# berry_bush.obj - Beerenstrauch fuer procedurally-generated-map
# Einheiten: Meter, Y oben, Vorderseite nach +Z - so wie Blender ein Modell
# exportiert, das in der Vorderansicht zum Betrachter schaut.
# Material Paint (das Laub) bekommt eine je Strauch leicht andere Farbe.
mtllib berry_bush.mtl
o Bush
v 0.12246 0.00000 0.29564
v 0.29564 0.00000 0.12246
v 0.29564 0.00000 -0.12246
v 0.12246 0.00000 -0.29564
v -0.12246 0.00000 -0.29564
v -0.29564 0.00000 -0.12246
v -0.29564 0.00000 0.12246
v -0.12246 0.00000 0.29564
v 0.21048 0.30000 0.50813
v 0.50813 0.30000 0.21048
v 0.50813 0.30000 -0.21048
v 0.21048 0.30000 -0.50813
v -0.21048 0.30000 -0.50813
v -0.50813 0.30000 -0.21048
v -0.50813 0.30000 0.21048
v -0.21048 0.30000 0.50813
s off
usemtl Paint
f 1 2 10 9
f 2 3 11 10
f 3 4 12 11
f 4 5 13 12
f 5 6 14 13
f 6 7 15 14
f 7 8 16 15
f 8 1 9 16
f 9 10 11 12 13 14 15 16
f 8 7 6 5 4 3 2 1
v 0.21048 0.30000 0.50813
v 0.50813 0.30000 0.21048
v 0.50813 0.30000 -0.21048
v 0.21048 0.30000 -0.50813
v -0.21048 0.30000 -0.50813
v -0.50813 0.30000 -0.21048
v -0.50813 0.30000 0.21048
v -0.21048 0.30000 0.50813
v 0.06888 0.72000 0.16630
v 0.16630 0.72000 0.06888
v 0.16630 0.72000 -0.06888
v 0.06888 0.72000 -0.16630
v -0.06888 0.72000 -0.16630
v -0.16630 0.72000 -0.06888
v -0.16630 0.72000 0.06888
v -0.06888 0.72000 0.16630
s off
usemtl Paint
f 17 18 26 25
f 18 19 27 26
f 19 20 28 27
f 20 21 29 28
f 21 22 30 29
f 22 23 31 30
f 23 24 32 31
f 24 17 25 32
f 25 26 27 28 29 30 31 32
f 24 23 22 21 20 19 18 17
o Berries
v -0.05000 0.13000 0.41800
v 0.05000 0.13000 0.41800
v 0.05000 0.23000 0.41800
v -0.05000 0.23000 0.41800
v -0.05000 0.13000 0.51800
v 0.05000 0.13000 0.51800
v 0.05000 0.23000 0.51800
v -0.05000 0.23000 0.51800
s off
usemtl Berry
f 33 36 35 34
f 37 38 39 40
f 33 34 38 37
f 36 40 39 35
f 33 37 40 36
f 34 35 39 38
v 0.32233 0.26000 -0.45643
v 0.42233 0.26000 -0.45643
v 0.42233 0.36000 -0.45643
v 0.32233 0.36000 -0.45643
v 0.32233 0.26000 -0.35643
v 0.42233 0.26000 -0.35643
v 0.42233 0.36000 -0.35643
v 0.32233 0.36000 -0.35643
s off
usemtl Berry
f 41 44 43 42
f 45 46 47 48
f 41 42 46 45
f 44 48 47 43
f 41 45 48 44
f 42 43 47 46
v -0.48499 0.39000 -0.01183
v -0.38499 0.39000 -0.01183
v -0.38499 0.49000 -0.01183
v -0.48499 0.49000 -0.01183
v -0.48499 0.39000 0.08817
v -0.38499 0.39000 0.08817
v -0.38499 0.49000 0.08817
v -0.48499 0.49000 0.08817
s off
usemtl Berry
f 49 52 51 50
f 53 54 55 56
f 49 50 54 53
f 52 56 55 51
f 49 53 56 52
f 50 51 55 54
v 0.20565 0.52000 0.14601
v 0.30565 0.52000 0.14601
v 0.30565 0.62000 0.14601
v 0.20565 0.62000 0.14601
v 0.20565 0.52000 0.24601
v 0.30565 0.52000 0.24601
v 0.30565 0.62000 0.24601
v 0.20565 0.62000 0.24601
s off
usemtl Berry
f 57 60 59 58
f 61 62 63 64
f 57 58 62 61
f 60 64 63 59
f 57 61 64 60
f 58 59 63 62
v -0.13151 0.13000 -0.51085
v -0.03151 0.13000 -0.51085
v -0.03151 0.23000 -0.51085
v -0.13151 0.23000 -0.51085
v -0.13151 0.13000 -0.41085
v -0.03151 0.13000 -0.41085
v -0.03151 0.23000 -0.41085
v -0.13151 0.23000 -0.41085
s off
usemtl Berry
f 65 68 67 66
f 69 70 71 72
f 65 66 70 69
f 68 72 71 67
f 65 69 72 68
f 66 67 71 70
v -0.34585 0.26000 0.41507
v -0.24585 0.26000 0.41507
v -0.24585 0.36000 0.41507
v -0.34585 0.36000 0.41507
v -0.34585 0.26000 0.51507
v -0.24585 0.26000 0.51507
v -0.24585 0.36000 0.51507
v -0.34585 0.36000 0.51507
s off
usemtl Berry
f 73 76 75 74
f 77 78 79 80
f 73 74 78 77
f 76 80 79 75
f 73 77 80 76
f 74 75 79 78
v 0.37170 0.39000 -0.16335
v 0.47170 0.39000 -0.16335
v 0.47170 0.49000 -0.16335
v 0.37170 0.49000 -0.16335
v 0.37170 0.39000 -0.06335
v 0.47170 0.39000 -0.06335
v 0.47170 0.49000 -0.06335
v 0.37170 0.49000 -0.06335
s off
usemtl Berry
f 81 84 83 82
f 85 86 87 88
f 81 82 86 85
f 84 88 87 83
f 81 85 88 84
f 82 83 87 86
v -0.33588 0.52000 -0.19848
v -0.23588 0.52000 -0.19848
v -0.23588 0.62000 -0.19848
v -0.33588 0.62000 -0.19848
v -0.33588 0.52000 -0.09848
v -0.23588 0.52000 -0.09848
v -0.23588 0.62000 -0.09848
v -0.33588 0.62000 -0.09848
s off
usemtl Berry
f 89 92 91 90
f 93 94 95 96
f 89 90 94 93
f 92 96 95 91
f 89 93 96 92
f 90 91 95 94
v 0.11053 0.13000 0.38961
v 0.21053 0.13000 0.38961
v 0.21053 0.23000 0.38961
v 0.11053 0.23000 0.38961
v 0.11053 0.13000 0.48961
v 0.21053 0.13000 0.48961
v 0.21053 0.23000 0.48961
v 0.11053 0.23000 0.48961
s off
usemtl Berry
f 97 100 99 98
f 101 102 103 104
f 97 98 102 101
f 100 104 103 99
f 97 101 104 100
f 98 99 103 102
v 0.16033 0.26000 -0.55948
v 0.26033 0.26000 -0.55948
v 0.26033 0.36000 -0.55948
v 0.16033 0.36000 -0.55948
v 0.16033 0.26000 -0.45948
v 0.26033 0.26000 -0.45948
v 0.26033 0.36000 -0.45948
v 0.16033 0.36000 -0.45948
s off
usemtl Berry
f 105 108 107 106
f 109 110 111 112
f 105 106 110 109
f 108 112 111 107
f 105 109 112 108
f 106 107 111 110
v -0.44551 0.39000 0.13507
v -0.34551 0.39000 0.13507
v -0.34551 0.49000 0.13507
v -0.44551 0.49000 0.13507
v -0.44551 0.39000 0.23507
v -0.34551 0.39000 0.23507
v -0.34551 0.49000 0.23507
v -0.44551 0.49000 0.23507
s off
usemtl Berry
f 113 116 115 114
f 117 118 119 120
f 113 114 118 117
f 116 120 119 115
f 113 117 120 116
f 114 115 119 118
v 0.25737 0.52000 0.04642
v 0.35737 0.52000 0.04642
v 0.35737 0.62000 0.04642
v 0.25737 0.62000 0.04642
v 0.25737 0.52000 0.14642
v 0.35737 0.52000 0.14642
v 0.35737 0.62000 0.14642
v 0.25737 0.62000 0.14642
s off
usemtl Berry
f 121 124 123 122
f 125 126 127 128
f 121 122 126 125
f 124 128 127 123
f 121 125 128 124
f 122 123 127 126
v -0.28464 0.13000 -0.45493
v -0.18464 0.13000 -0.45493
v -0.18464 0.23000 -0.45493
v -0.28464 0.23000 -0.45493
v -0.28464 0.13000 -0.35493
v -0.18464 0.13000 -0.35493
v -0.18464 0.23000 -0.35493
v -0.28464 0.23000 -0.35493
s off
usemtl Berry
f 129 132 131 130
f 133 134 135 136
f 129 130 134 133
f 132 136 135 131
f 129 133 136 132
f 130 131 135 134
v -0.16837 0.26000 0.48833
v -0.06837 0.26000 0.48833
v -0.06837 0.36000 0.48833
v -0.16837 0.36000 0.48833
v -0.16837 0.26000 0.58833
v -0.06837 0.26000 0.58833
v -0.06837 0.36000 0.58833
v -0.16837 0.36000 0.58833
s off
usemtl Berry
f 137 140 139 138
f 141 142 143 144
f 137 138 142 141
f 140 144 143 139
f 137 141 144 140
f 138 139 143 142
