# berry_bush_4.obj - Himbeerstrauch fuer procedurally-generated-map
# Einheiten: Meter, Y oben, Vorderseite nach +Z - so wie Blender ein Modell
# exportiert, das in der Vorderansicht zum Betrachter schaut.
# Material Paint (das Laub) bekommt eine je Strauch leicht andere Farbe.
mtllib berry_bush_4.mtl
o Mound
v 0.508 0 0.191
v 0.21 0 0.462
v -0.21 0 0.462
v -0.508 0 0.191
v -0.508 0 -0.191
v -0.21 0 -0.462
v 0.21 0 -0.462
v 0.508 0 -0.191
v 0.416 0.07 0.153
v 0.172 0.07 0.37
v -0.172 0.07 0.37
v -0.416 0.07 0.153
v -0.416 0.07 -0.153
v -0.172 0.07 -0.37
v 0.172 0.07 -0.37
v 0.416 0.07 -0.153
usemtl Soil
s off
f 8 7 6 5 4 3 2 1
f 9 10 11 12 13 14 15 16
f 1 2 10 9
f 2 3 11 10
f 3 4 12 11
f 4 5 13 12
f 5 6 14 13
f 6 7 15 14
f 7 8 16 15
f 8 1 9 16
o Leaves
v -0.222 0.95 0.2
v -0.302 0.95 0.015
v -0.241 0.95 -0.178
v -0.067 0.95 -0.287
v 0.138 0.95 -0.262
v 0.279 0.95 -0.114
v 0.289 0.95 0.087
v 0.164 0.95 0.247
v -0.038 0.95 0.292
v -0.403 1.19 0.364
v -0.549 1.19 0.027
v -0.439 1.19 -0.323
v -0.123 1.19 -0.522
v 0.251 1.19 -0.476
v 0.507 1.19 -0.208
v 0.526 1.19 0.158
v 0.299 1.19 0.45
v -0.068 1.19 0.531
usemtl Paint
s off
f 25 24 23 22 21 20 19 18 17
f 26 27 28 29 30 31 32 33 34
f 17 18 27 26
f 18 19 28 27
f 19 20 29 28
f 20 21 30 29
f 21 22 31 30
f 22 23 32 31
f 23 24 33 32
f 24 25 34 33
f 25 17 26 34
o Leaves
v -0.496 1.19 0.232
v -0.533 1.19 -0.132
v -0.321 1.19 -0.435
v 0.041 1.19 -0.534
v 0.384 1.19 -0.383
v 0.547 1.19 -0.053
v 0.454 1.19 0.302
v 0.149 1.19 0.515
v -0.226 1.19 0.488
v -0.421 1.51 0.197
v -0.453 1.51 -0.112
v -0.273 1.51 -0.37
v 0.035 1.51 -0.454
v 0.327 1.51 -0.326
v 0.465 1.51 -0.045
v 0.386 1.51 0.257
v 0.126 1.51 0.438
v -0.192 1.51 0.415
usemtl Paint
s off
f 43 42 41 40 39 38 37 36 35
f 44 45 46 47 48 49 50 51 52
f 35 36 45 44
f 36 37 46 45
f 37 38 47 46
f 38 39 48 47
f 39 40 49 48
f 40 41 50 49
f 41 42 51 50
f 42 43 52 51
f 43 35 44 52
o Leaves
v -0.462 1.51 0.067
v -0.399 1.51 -0.238
v -0.148 1.51 -0.432
v 0.171 1.51 -0.423
v 0.411 1.51 -0.217
v 0.458 1.51 0.091
v 0.291 1.51 0.356
v -0.012 1.51 0.455
v -0.31 1.51 0.341
v -0.163 1.75 0.024
v -0.141 1.75 -0.084
v -0.052 1.75 -0.152
v 0.06 1.75 -0.149
v 0.145 1.75 -0.077
v 0.162 1.75 0.032
v 0.103 1.75 0.126
v -0.004 1.75 0.161
v -0.109 1.75 0.12
usemtl Paint
s off
f 61 60 59 58 57 56 55 54 53
f 62 63 64 65 66 67 68 69 70
f 53 54 63 62
f 54 55 64 63
f 55 56 65 64
f 56 57 66 65
f 57 58 67 66
f 58 59 68 67
f 59 60 69 68
f 60 61 70 69
f 61 53 62 70
o Leaves
v -0.387 0.75 0.344
v -0.602 0.75 0.349
v -0.74 0.75 0.204
v -0.697 0.75 0.018
v -0.506 0.75 -0.068
v -0.31 0.75 0.01
v -0.257 0.75 0.193
v -0.295 0.96 0.503
v -0.685 0.96 0.511
v -0.936 0.96 0.248
v -0.859 0.96 -0.089
v -0.511 0.96 -0.246
v -0.155 0.96 -0.105
v -0.059 0.96 0.228
usemtl Paint
s off
f 77 76 75 74 73 72 71
f 78 79 80 81 82 83 84
f 71 72 79 78
f 72 73 80 79
f 73 74 81 80
f 74 75 82 81
f 75 76 83 82
f 76 77 84 83
f 77 71 78 84
o Leaves
v -0.422 0.96 0.54
v -0.798 0.96 0.447
v -0.949 0.96 0.13
v -0.763 0.96 -0.172
v -0.378 0.96 -0.232
v -0.085 0.96 -0.004
v -0.105 0.96 0.34
v -0.434 1.24 0.482
v -0.753 1.24 0.403
v -0.882 1.24 0.133
v -0.723 1.24 -0.124
v -0.396 1.24 -0.174
v -0.147 1.24 0.019
v -0.164 1.24 0.311
usemtl Paint
s off
f 91 90 89 88 87 86 85
f 92 93 94 95 96 97 98
f 85 86 93 92
f 86 87 94 93
f 87 88 95 94
f 88 89 96 95
f 89 90 97 96
f 90 91 98 97
f 91 85 92 98
o Leaves
v -0.548 1.24 0.484
v -0.827 1.24 0.325
v -0.859 1.24 0.034
v -0.621 1.24 -0.17
v -0.292 1.24 -0.133
v -0.119 1.24 0.117
v -0.233 1.24 0.391
v -0.517 1.45 0.268
v -0.615 1.45 0.212
v -0.627 1.45 0.109
v -0.543 1.45 0.037
v -0.427 1.45 0.05
v -0.366 1.45 0.138
v -0.406 1.45 0.235
usemtl Paint
s off
f 105 104 103 102 101 100 99
f 106 107 108 109 110 111 112
f 99 100 107 106
f 100 101 108 107
f 101 102 109 108
f 102 103 110 109
f 103 104 111 110
f 104 105 112 111
f 105 99 106 112
o Leaves
v 0.331 0.8 0.068
v 0.253 0.8 -0.092
v 0.319 0.8 -0.258
v 0.492 0.8 -0.33
v 0.669 0.8 -0.268
v 0.747 0.8 -0.108
v 0.681 0.8 0.058
v 0.508 0.8 0.13
v 0.192 1.01 0.206
v 0.05 1.01 -0.086
v 0.172 1.01 -0.387
v 0.485 1.01 -0.519
v 0.808 1.01 -0.406
v 0.95 1.01 -0.114
v 0.828 1.01 0.187
v 0.515 1.01 0.319
usemtl Paint
s off
f 120 119 118 117 116 115 114 113
f 121 122 123 124 125 126 127 128
f 113 114 122 121
f 114 115 123 122
f 115 116 124 123
f 116 117 125 124
f 117 118 126 125
f 118 119 127 126
f 119 120 128 127
f 120 113 121 128
o Leaves
v 0.109 1.01 0.108
v 0.066 1.01 -0.211
v 0.277 1.01 -0.464
v 0.619 1.01 -0.504
v 0.891 1.01 -0.308
v 0.934 1.01 0.011
v 0.723 1.01 0.264
v 0.381 1.01 0.304
v 0.168 1.29 0.076
v 0.131 1.29 -0.194
v 0.311 1.29 -0.41
v 0.601 1.29 -0.444
v 0.832 1.29 -0.276
v 0.869 1.29 -0.006
v 0.689 1.29 0.21
v 0.399 1.29 0.244
usemtl Paint
s off
f 136 135 134 133 132 131 130 129
f 137 138 139 140 141 142 143 144
f 129 130 138 137
f 130 131 139 138
f 131 132 140 139
f 132 133 141 140
f 133 134 142 141
f 134 135 143 142
f 135 136 144 143
f 136 129 137 144
o Leaves
v 0.127 1.29 -0.023
v 0.177 1.29 -0.292
v 0.417 1.29 -0.448
v 0.706 1.29 -0.401
v 0.873 1.29 -0.177
v 0.823 1.29 0.092
v 0.583 1.29 0.248
v 0.294 1.29 0.201
v 0.368 1.5 -0.073
v 0.386 1.5 -0.168
v 0.471 1.5 -0.223
v 0.573 1.5 -0.206
v 0.632 1.5 -0.127
v 0.614 1.5 -0.032
v 0.529 1.5 0.023
v 0.427 1.5 0.006
usemtl Paint
s off
f 152 151 150 149 148 147 146 145
f 153 154 155 156 157 158 159 160
f 145 146 154 153
f 146 147 155 154
f 147 148 156 155
f 148 149 157 156
f 149 150 158 157
f 150 151 159 158
f 151 152 160 159
f 152 145 153 160
o Leaves
v -0.123 0.725 0.562
v -0.101 0.725 0.386
v 0.038 0.725 0.278
v 0.214 0.725 0.299
v 0.323 0.725 0.438
v 0.301 0.725 0.614
v 0.162 0.725 0.722
v -0.014 0.725 0.701
v -0.305 0.92 0.612
v -0.265 0.92 0.293
v -0.012 0.92 0.096
v 0.307 0.92 0.135
v 0.505 0.92 0.388
v 0.465 0.92 0.707
v 0.212 0.92 0.904
v -0.107 0.92 0.865
usemtl LeafDark
s off
f 168 167 166 165 164 163 162 161
f 169 170 171 172 173 174 175 176
f 161 162 170 169
f 162 163 171 170
f 163 164 172 171
f 164 165 173 172
f 165 166 174 173
f 166 167 175 174
f 167 168 176 175
f 168 161 169 176
o Leaves
v -0.32 0.92 0.487
v -0.188 0.92 0.195
v 0.113 0.92 0.081
v 0.406 0.92 0.212
v 0.52 0.92 0.513
v 0.388 0.92 0.805
v 0.087 0.92 0.919
v -0.206 0.92 0.788
v -0.257 1.18 0.489
v -0.145 1.18 0.24
v 0.111 1.18 0.143
v 0.36 1.18 0.255
v 0.457 1.18 0.511
v 0.345 1.18 0.76
v 0.089 1.18 0.857
v -0.16 1.18 0.745
usemtl LeafDark
s off
f 184 183 182 181 180 179 178 177
f 185 186 187 188 189 190 191 192
f 177 178 186 185
f 178 179 187 186
f 179 180 188 187
f 180 181 189 188
f 181 182 190 189
f 182 183 191 190
f 183 184 192 191
f 184 177 185 192
o Leaves
v -0.238 1.18 0.384
v -0.057 1.18 0.18
v 0.216 1.18 0.163
v 0.421 1.18 0.343
v 0.438 1.18 0.616
v 0.257 1.18 0.82
v -0.016 1.18 0.837
v -0.221 1.18 0.657
v -0.019 1.375 0.459
v 0.045 1.375 0.387
v 0.141 1.375 0.381
v 0.213 1.375 0.445
v 0.219 1.375 0.541
v 0.155 1.375 0.613
v 0.059 1.375 0.619
v -0.013 1.375 0.555
usemtl LeafDark
s off
f 200 199 198 197 196 195 194 193
f 201 202 203 204 205 206 207 208
f 193 194 202 201
f 194 195 203 202
f 195 196 204 203
f 196 197 205 204
f 197 198 206 205
f 198 199 207 206
f 199 200 208 207
f 200 193 201 208
o Leaves
v -0.193 0.7 -0.296
v -0.314 0.7 -0.448
v -0.273 0.7 -0.639
v -0.102 0.7 -0.726
v 0.071 0.7 -0.643
v 0.115 0.7 -0.452
v -0.003 0.7 -0.297
v -0.27 0.88 -0.128
v -0.489 0.88 -0.405
v -0.415 0.88 -0.753
v -0.104 0.88 -0.911
v 0.21 0.88 -0.759
v 0.291 0.88 -0.413
v 0.077 0.88 -0.132
usemtl Paint
s off
f 215 214 213 212 211 210 209
f 216 217 218 219 220 221 222
f 209 210 217 216
f 210 211 218 217
f 211 212 219 218
f 212 213 220 219
f 213 214 221 220
f 214 215 222 221
f 215 209 216 222
o Leaves
v -0.369 0.88 -0.196
v -0.499 0.88 -0.527
v -0.328 0.88 -0.837
v 0.014 0.88 -0.893
v 0.271 0.88 -0.654
v 0.248 0.88 -0.298
v -0.037 0.88 -0.095
v -0.329 1.12 -0.242
v -0.439 1.12 -0.523
v -0.294 1.12 -0.787
v -0.003 1.12 -0.834
v 0.215 1.12 -0.63
v 0.196 1.12 -0.328
v -0.046 1.12 -0.155
usemtl Paint
s off
f 229 228 227 226 225 224 223
f 230 231 232 233 234 235 236
f 223 224 231 230
f 224 225 232 231
f 225 226 233 232
f 226 227 234 233
f 227 228 235 234
f 228 229 236 235
f 229 223 230 236
o Leaves
v -0.393 1.12 -0.323
v -0.418 1.12 -0.625
v -0.203 1.12 -0.833
v 0.089 1.12 -0.79
v 0.239 1.12 -0.529
v 0.133 1.12 -0.246
v -0.148 1.12 -0.154
v -0.203 1.3 -0.438
v -0.212 1.3 -0.544
v -0.136 1.3 -0.617
v -0.033 1.3 -0.602
v 0.02 1.3 -0.51
v -0.018 1.3 -0.41
v -0.117 1.3 -0.378
usemtl Paint
s off
f 243 242 241 240 239 238 237
f 244 245 246 247 248 249 250
f 237 238 245 244
f 238 239 246 245
f 239 240 247 246
f 240 241 248 247
f 241 242 249 248
f 242 243 250 249
f 243 237 244 250
o Leaves
v -0.112 1.525 0.084
v -0.088 1.525 -0.04
v 0.016 1.525 -0.111
v 0.14 1.525 -0.088
v 0.212 1.525 0.016
v 0.188 1.525 0.14
v 0.084 1.525 0.211
v -0.04 1.525 0.188
v -0.244 1.66 0.111
v -0.201 1.66 -0.114
v -0.011 1.66 -0.243
v 0.214 1.66 -0.2
v 0.344 1.66 -0.011
v 0.301 1.66 0.214
v 0.111 1.66 0.343
v -0.114 1.66 0.3
usemtl Paint
s off
f 258 257 256 255 254 253 252 251
f 259 260 261 262 263 264 265 266
f 251 252 260 259
f 252 253 261 260
f 253 254 262 261
f 254 255 263 262
f 255 256 264 263
f 256 257 265 264
f 257 258 266 265
f 258 251 259 266
o Leaves
v -0.249 1.66 0.022
v -0.141 1.66 -0.181
v 0.078 1.66 -0.248
v 0.281 1.66 -0.141
v 0.349 1.66 0.078
v 0.241 1.66 0.281
v 0.022 1.66 0.348
v -0.181 1.66 0.241
v -0.204 1.84 0.026
v -0.112 1.84 -0.146
v 0.074 1.84 -0.203
v 0.247 1.84 -0.112
v 0.304 1.84 0.074
v 0.212 1.84 0.246
v 0.026 1.84 0.303
v -0.147 1.84 0.212
usemtl Paint
s off
f 274 273 272 271 270 269 268 267
f 275 276 277 278 279 280 281 282
f 267 268 276 275
f 268 269 277 276
f 269 270 278 277
f 270 271 279 278
f 271 272 280 279
f 272 273 281 280
f 273 274 282 281
f 274 267 275 282
o Leaves
v -0.185 1.84 -0.048
v -0.047 1.84 -0.185
v 0.148 1.84 -0.185
v 0.286 1.84 -0.047
v 0.285 1.84 0.148
v 0.147 1.84 0.285
v -0.048 1.84 0.285
v -0.186 1.84 0.147
v -0.033 1.975 0.015
v 0.016 1.975 -0.033
v 0.085 1.975 -0.033
v 0.133 1.975 0.016
v 0.133 1.975 0.085
v 0.084 1.975 0.133
v 0.015 1.975 0.133
v -0.033 1.975 0.084
usemtl Paint
s off
f 290 289 288 287 286 285 284 283
f 291 292 293 294 295 296 297 298
f 283 284 292 291
f 284 285 293 292
f 285 286 294 293
f 286 287 295 294
f 287 288 296 295
f 288 289 297 296
f 289 290 298 297
f 290 283 291 298
o Cane
v 0.134 -0.003 0
v 0.144 -0.01 0.034
v 0.117 -0.002 0.055
v 0.09 0.008 0.035
v 0.101 0.007 0.001
v 0.463 1.022 0.094
v 0.47 1.017 0.116
v 0.452 1.022 0.13
v 0.434 1.029 0.117
v 0.441 1.029 0.094
usemtl Bark
s off
f 303 302 301 300 299
f 304 305 306 307 308
f 299 300 305 304
f 300 301 306 305
f 301 302 307 306
f 302 303 308 307
f 303 299 304 308
o Cane.Leaf
v 0.239 0.607 0.121
v 0.264 0.607 0.003
v 0.303 0.493 0.012
v 0.278 0.493 0.129
v 0.464 0.625 0.112
v 0.466 0.625 0.103
v 0.469 0.615 0.103
v 0.467 0.615 0.113
usemtl Paint
s off
f 312 311 310 309
f 313 314 315 316
f 309 310 314 313
f 310 311 315 314
f 311 312 316 315
f 312 309 313 316
o Cane
v 0.087 0.005 0.074
v 0.098 -0.007 0.105
v 0.07 -0.009 0.126
v 0.042 0.002 0.108
v 0.052 0.01 0.076
v 0.28 1.099 0.44
v 0.287 1.091 0.46
v 0.268 1.09 0.475
v 0.25 1.097 0.462
v 0.257 1.103 0.441
usemtl Bark
s off
f 321 320 319 318 317
f 322 323 324 325 326
f 317 318 323 322
f 318 319 324 323
f 319 320 325 324
f 320 321 326 325
f 321 317 322 326
o Cane
v 0.02 0.008 0.097
v 0.031 -0.003 0.129
v 0.003 -0.01 0.148
v -0.026 -0.003 0.129
v -0.015 0.008 0.097
v 0.023 1.062 0.486
v 0.03 1.055 0.507
v 0.011 1.05 0.521
v -0.008 1.055 0.508
v -0.001 1.063 0.487
usemtl Bark
s off
f 331 330 329 328 327
f 332 333 334 335 336
f 327 328 333 332
f 328 329 334 333
f 329 330 335 334
f 330 331 336 335
f 331 327 332 336
o Cane
v -0.069 0.008 0.06
v -0.058 0.005 0.094
v -0.086 -0.005 0.113
v -0.114 -0.008 0.091
v -0.103 0 0.059
v -0.345 1.057 0.252
v -0.338 1.055 0.275
v -0.356 1.048 0.287
v -0.375 1.046 0.273
v -0.368 1.052 0.251
usemtl Bark
s off
f 341 340 339 338 337
f 342 343 344 345 346
f 337 338 343 342
f 338 339 344 343
f 339 340 345 344
f 340 341 346 345
f 341 337 342 346
o Cane.Leaf
v -0.241 0.607 0.104
v -0.158 0.607 0.19
v -0.186 0.493 0.217
v -0.27 0.493 0.131
v -0.36 0.625 0.295
v -0.353 0.625 0.302
v -0.355 0.615 0.305
v -0.362 0.615 0.297
usemtl Paint
s off
f 350 349 348 347
f 351 352 353 354
f 347 348 352 351
f 348 349 353 352
f 349 350 354 353
f 350 347 351 354
o Cane
v -0.101 0.009 0
v -0.091 0.01 0.034
v -0.118 -0.003 0.053
v -0.144 -0.012 0.032
v -0.134 -0.005 -0.001
v -0.521 0.976 0.092
v -0.515 0.977 0.115
v -0.532 0.968 0.128
v -0.55 0.962 0.114
v -0.543 0.967 0.092
usemtl Bark
s off
f 359 358 357 356 355
f 360 361 362 363 364
f 355 356 361 360
f 356 357 362 361
f 357 358 363 362
f 358 359 364 363
f 359 355 360 364
o Cane
v -0.094 0 -0.07
v -0.083 0.007 -0.037
v -0.111 0.004 -0.016
v -0.139 -0.005 -0.036
v -0.128 -0.007 -0.069
v -0.368 1.221 -0.232
v -0.36 1.226 -0.21
v -0.379 1.224 -0.196
v -0.398 1.218 -0.209
v -0.39 1.216 -0.231
usemtl Bark
s off
f 369 368 367 366 365
f 370 371 372 373 374
f 365 366 371 370
f 366 367 372 371
f 367 368 373 372
f 368 369 374 373
f 369 365 370 374
o Cane
v -0.036 -0.003 -0.132
v -0.025 0.008 -0.1
v -0.053 0.007 -0.079
v -0.081 -0.003 -0.097
v -0.07 -0.009 -0.13
v -0.25 0.965 -0.371
v -0.243 0.972 -0.35
v -0.261 0.972 -0.335
v -0.28 0.965 -0.348
v -0.273 0.961 -0.37
usemtl Bark
s off
f 379 378 377 376 375
f 380 381 382 383 384
f 375 376 381 380
f 376 377 382 381
f 377 378 383 382
f 378 379 384 383
f 379 375 380 384
o Cane.Leaf
v -0.094 0.607 -0.222
v -0.202 0.607 -0.168
v -0.219 0.493 -0.204
v -0.112 0.493 -0.257
v -0.24 0.625 -0.393
v -0.249 0.625 -0.388
v -0.251 0.615 -0.391
v -0.242 0.615 -0.396
usemtl Paint
s off
f 388 387 386 385
f 389 390 391 392
f 385 386 390 389
f 386 387 391 390
f 387 388 392 391
f 388 385 389 392
o Cane
v 0.039 -0.009 -0.141
v 0.05 0.002 -0.109
v 0.021 0.01 -0.09
v -0.007 0.004 -0.11
v 0.004 -0.007 -0.141
v 0.112 1.384 -0.614
v 0.12 1.391 -0.593
v 0.101 1.396 -0.58
v 0.082 1.393 -0.593
v 0.089 1.385 -0.614
usemtl Bark
s off
f 397 396 395 394 393
f 398 399 400 401 402
f 393 394 399 398
f 394 395 400 399
f 395 396 401 400
f 396 397 402 401
f 397 393 398 402
o Cane
v 0.113 -0.009 -0.095
v 0.123 -0.003 -0.063
v 0.095 0.008 -0.044
v 0.067 0.007 -0.065
v 0.078 -0.003 -0.097
v 0.333 1.171 -0.409
v 0.34 1.175 -0.387
v 0.322 1.182 -0.374
v 0.303 1.182 -0.388
v 0.31 1.175 -0.41
usemtl Bark
s off
f 407 406 405 404 403
f 408 409 410 411 412
f 403 404 409 408
f 404 405 410 409
f 405 406 411 410
f 406 407 412 411
f 407 403 408 412
o Leaf
v 0.858 1.239 -0.187
v 0.81 1.239 -0.298
v 0.848 1.126 -0.314
v 0.896 1.126 -0.203
v 1.068 1.275 -0.333
v 1.061 1.275 -0.35
v 1.066 1.259 -0.352
v 1.073 1.259 -0.336
usemtl LeafLight
s off
f 416 415 414 413
f 417 418 419 420
f 413 414 418 417
f 414 415 419 418
f 415 416 420 419
f 416 413 417 420
o Leaf
v -0.151 1.136 0.743
v -0.045 1.136 0.802
v -0.069 1.025 0.844
v -0.175 1.025 0.785
v -0.203 1.167 0.942
v -0.188 1.167 0.95
v -0.192 1.151 0.956
v -0.207 1.151 0.948
usemtl Paint
s off
f 424 423 422 421
f 425 426 427 428
f 421 422 426 425
f 422 423 427 426
f 423 424 428 427
f 424 421 425 428
o Leaf
v 0.4 1.411 -0.286
v 0.305 1.411 -0.212
v 0.251 1.327 -0.281
v 0.347 1.327 -0.355
v 0.236 1.546 -0.413
v 0.222 1.546 -0.402
v 0.215 1.534 -0.412
v 0.229 1.534 -0.423
usemtl Paint
s off
f 432 431 430 429
f 433 434 435 436
f 429 430 434 433
f 430 431 435 434
f 431 432 436 435
f 432 429 433 436
o Leaf
v 0.191 1.065 -0.339
v 0.223 1.065 -0.456
v 0.268 0.953 -0.443
v 0.236 0.953 -0.326
v 0.401 1.094 -0.334
v 0.406 1.094 -0.351
v 0.412 1.078 -0.349
v 0.408 1.078 -0.332
usemtl Paint
s off
f 440 439 438 437
f 441 442 443 444
f 437 438 442 441
f 438 439 443 442
f 439 440 444 443
f 440 437 441 444
o Leaf
v 0.206 1.832 -0.094
v 0.118 1.832 -0.176
v 0.162 1.73 -0.223
v 0.25 1.73 -0.141
v 0.316 1.907 -0.287
v 0.303 1.907 -0.299
v 0.309 1.892 -0.306
v 0.322 1.892 -0.294
usemtl LeafLight
s off
f 448 447 446 445
f 449 450 451 452
f 445 446 450 449
f 446 447 451 450
f 447 448 452 451
f 448 445 449 452
o Leaf
v -0.022 1.1 0.818
v 0.094 1.1 0.855
v 0.079 0.989 0.9
v -0.036 0.989 0.863
v -0.026 1.119 1.002
v -0.009 1.119 1.007
v -0.012 1.103 1.014
v -0.028 1.103 1.008
usemtl Paint
s off
f 456 455 454 453
f 457 458 459 460
f 453 454 458 457
f 454 455 459 458
f 455 456 460 459
f 456 453 457 460
o Leaf
v 0.287 1.108 0.195
v 0.175 1.108 0.15
v 0.184 0.989 0.126
v 0.297 0.989 0.172
v 0.33 1.107 -0.05
v 0.314 1.107 -0.057
v 0.316 1.09 -0.06
v 0.332 1.09 -0.054
usemtl Paint
s off
f 464 463 462 461
f 465 466 467 468
f 461 462 466 465
f 462 463 467 466
f 463 464 468 467
f 464 461 465 468
o Leaf
v -0.59 1.347 0.356
v -0.47 1.347 0.37
v -0.478 1.253 0.445
v -0.599 1.253 0.431
v -0.563 1.45 0.572
v -0.545 1.45 0.574
v -0.547 1.437 0.585
v -0.564 1.437 0.583
usemtl Paint
s off
f 472 471 470 469
f 473 474 475 476
f 469 470 474 473
f 470 471 475 474
f 471 472 476 475
f 472 469 473 476
o Leaf
v -0.052 1.254 -0.431
v -0.052 1.224 -0.313
v -0.173 1.221 -0.314
v -0.173 1.251 -0.432
v -0.11 1.477 -0.321
v -0.11 1.473 -0.304
v -0.127 1.473 -0.304
v -0.127 1.477 -0.321
usemtl LeafLight
s off
f 480 479 478 477
f 481 482 483 484
f 477 478 482 481
f 478 479 483 482
f 479 480 484 483
f 480 477 481 484
o Leaf
v -0.048 1.596 -0.342
v -0.167 1.596 -0.318
v -0.181 1.498 -0.388
v -0.063 1.498 -0.412
v -0.145 1.704 -0.561
v -0.163 1.704 -0.558
v -0.165 1.69 -0.568
v -0.148 1.69 -0.572
usemtl Paint
s off
f 488 487 486 485
f 489 490 491 492
f 485 486 490 489
f 486 487 491 490
f 487 488 492 491
f 488 485 489 492
o Leaf
v 0.455 1.336 -0.376
v 0.339 1.336 -0.341
v 0.315 1.247 -0.42
v 0.43 1.247 -0.455
v 0.343 1.461 -0.562
v 0.327 1.461 -0.557
v 0.323 1.448 -0.568
v 0.34 1.448 -0.573
usemtl Paint
s off
f 496 495 494 493
f 497 498 499 500
f 493 494 498 497
f 494 495 499 498
f 495 496 500 499
f 496 493 497 500
o Leaf
v 0.293 1.795 0.095
v 0.283 1.795 -0.026
v 0.317 1.679 -0.028
v 0.327 1.679 0.092
v 0.503 1.804 0.025
v 0.501 1.804 0.008
v 0.506 1.788 0.007
v 0.508 1.788 0.025
usemtl Paint
s off
f 504 503 502 501
f 505 506 507 508
f 501 502 506 505
f 502 503 507 506
f 503 504 508 507
f 504 501 505 508
o Leaf
v 0.182 1.868 -0.085
v 0.078 1.868 -0.147
v 0.122 1.783 -0.22
v 0.226 1.783 -0.158
v 0.245 2.003 -0.29
v 0.229 2.003 -0.299
v 0.236 1.991 -0.31
v 0.251 1.991 -0.301
usemtl LeafLight
s off
f 512 511 510 509
f 513 514 515 516
f 509 510 514 513
f 510 511 515 514
f 511 512 516 515
f 512 509 513 516
o Leaf
v 0.052 1.236 0.777
v 0.173 1.236 0.769
v 0.177 1.141 0.843
v 0.057 1.141 0.851
v 0.115 1.317 0.96
v 0.133 1.317 0.959
v 0.134 1.303 0.97
v 0.116 1.303 0.971
usemtl Paint
s off
f 520 519 518 517
f 521 522 523 524
f 517 518 522 521
f 518 519 523 522
f 519 520 524 523
f 520 517 521 524
o Leaf
v -0.412 1.204 0.467
v -0.3 1.204 0.421
v -0.286 1.089 0.454
v -0.398 1.089 0.5
v -0.265 1.231 0.687
v -0.249 1.231 0.68
v -0.247 1.214 0.685
v -0.263 1.214 0.692
usemtl Paint
s off
f 528 527 526 525
f 529 530 531 532
f 525 526 530 529
f 526 527 531 530
f 527 528 532 531
f 528 525 529 532
o Leaf
v 0.675 1.385 0.088
v 0.747 1.385 -0.01
v 0.81 1.294 0.037
v 0.739 1.294 0.134
v 0.883 1.505 0.176
v 0.893 1.505 0.162
v 0.902 1.492 0.168
v 0.892 1.492 0.182
usemtl Paint
s off
f 536 535 534 533
f 537 538 539 540
f 533 534 538 537
f 534 535 539 538
f 535 536 540 539
f 536 533 537 540
o Leaf
v -0.777 1.154 -0.091
v -0.85 1.154 0.005
v -0.866 1.034 -0.007
v -0.793 1.034 -0.103
v -1.003 1.142 -0.198
v -1.013 1.142 -0.184
v -1.016 1.124 -0.186
v -1.005 1.124 -0.2
usemtl LeafLight
s off
f 544 543 542 541
f 545 546 547 548
f 541 542 546 545
f 542 543 547 546
f 543 544 548 547
f 544 541 545 548
o Leaf
v 0.124 1.202 -0.489
v 0.124 1.186 -0.369
v 0.011 1.228 -0.363
v 0.011 1.244 -0.483
v 0.163 1.445 -0.403
v 0.163 1.443 -0.385
v 0.147 1.449 -0.384
v 0.147 1.451 -0.402
usemtl Paint
s off
f 552 551 550 549
f 553 554 555 556
f 549 550 554 553
f 550 551 555 554
f 551 552 556 555
f 552 549 553 556
o Leaf
v 0.317 1.261 0.354
v 0.214 1.261 0.291
v 0.258 1.175 0.218
v 0.361 1.175 0.281
v 0.382 1.394 0.148
v 0.367 1.394 0.138
v 0.374 1.382 0.128
v 0.389 1.382 0.137
usemtl Paint
s off
f 560 559 558 557
f 561 562 563 564
f 557 558 562 561
f 558 559 563 562
f 559 560 564 563
f 560 557 561 564
o Leaf
v -0.885 1.128 0.144
v -0.866 1.128 0.264
v -0.889 1.009 0.267
v -0.907 1.009 0.148
v -1.104 1.119 0.231
v -1.101 1.119 0.249
v -1.104 1.101 0.249
v -1.107 1.101 0.232
usemtl Paint
s off
f 568 567 566 565
f 569 570 571 572
f 565 566 570 569
f 566 567 571 570
f 567 568 572 571
f 568 565 569 572
o Leaf
v 0.215 1.048 -0.401
v 0.234 1.048 -0.52
v 0.275 0.934 -0.514
v 0.256 0.934 -0.394
v 0.411 1.062 -0.422
v 0.414 1.062 -0.44
v 0.42 1.045 -0.439
v 0.417 1.045 -0.421
usemtl LeafLight
s off
f 576 575 574 573
f 577 578 579 580
f 573 574 578 577
f 574 575 579 578
f 575 576 580 579
f 576 573 577 580
o Leaf
v 0.35 1.309 -0.379
v 0.256 1.309 -0.303
v 0.214 1.209 -0.355
v 0.308 1.209 -0.431
v 0.18 1.386 -0.507
v 0.167 1.386 -0.496
v 0.16 1.371 -0.503
v 0.174 1.371 -0.514
usemtl Paint
s off
f 584 583 582 581
f 585 586 587 588
f 581 582 586 585
f 582 583 587 586
f 583 584 588 587
f 584 581 585 588
o Leaf
v -0.644 1.359 0.008
v -0.644 1.383 0.127
v -0.755 1.337 0.136
v -0.755 1.313 0.018
v -0.781 1.559 0.02
v -0.781 1.562 0.037
v -0.798 1.556 0.039
v -0.798 1.552 0.021
usemtl Paint
s off
f 592 591 590 589
f 593 594 595 596
f 589 590 594 593
f 590 591 595 594
f 591 592 596 595
f 592 589 593 596
o Leaf
v -0.429 1.167 0.477
v -0.316 1.167 0.433
v -0.303 1.052 0.468
v -0.416 1.052 0.512
v -0.285 1.197 0.702
v -0.269 1.197 0.696
v -0.267 1.18 0.701
v -0.284 1.18 0.707
usemtl Paint
s off
f 600 599 598 597
f 601 602 603 604
f 597 598 602 601
f 598 599 603 602
f 599 600 604 603
f 600 597 601 604
o Leaf
v -0.537 1.361 0.34
v -0.416 1.361 0.331
v -0.409 1.278 0.419
v -0.53 1.278 0.428
v -0.471 1.481 0.52
v -0.453 1.481 0.518
v -0.452 1.469 0.531
v -0.47 1.469 0.532
usemtl LeafLight
s off
f 608 607 606 605
f 609 610 611 612
f 605 606 610 609
f 606 607 611 610
f 607 608 612 611
f 608 605 609 612
o Leaf
v -0.765 1.311 0.141
v -0.745 1.311 0.26
v -0.843 1.243 0.277
v -0.864 1.243 0.158
v -0.925 1.471 0.221
v -0.922 1.471 0.238
v -0.937 1.461 0.241
v -0.94 1.461 0.223
usemtl Paint
s off
f 616 615 614 613
f 617 618 619 620
f 613 614 618 617
f 614 615 619 618
f 615 616 620 619
f 616 613 617 620
o Leaf
v -0.344 1.352 0.019
v -0.446 1.352 -0.046
v -0.394 1.28 -0.128
v -0.292 1.28 -0.063
v -0.282 1.532 -0.175
v -0.297 1.532 -0.184
v -0.29 1.521 -0.196
v -0.275 1.521 -0.187
usemtl Paint
s off
f 624 623 622 621
f 625 626 627 628
f 621 622 626 625
f 622 623 627 626
f 623 624 628 627
f 624 621 625 628
o Leaf
v 0.093 1.23 -0.406
v 0.111 1.23 -0.525
v 0.18 1.131 -0.515
v 0.161 1.131 -0.395
v 0.303 1.309 -0.426
v 0.305 1.309 -0.444
v 0.315 1.295 -0.442
v 0.313 1.295 -0.425
usemtl Paint
s off
f 632 631 630 629
f 633 634 635 636
f 629 630 634 633
f 630 631 635 634
f 631 632 636 635
f 632 629 633 636
o Leaf
v -0.149 1.166 -0.228
v -0.028 1.166 -0.233
v -0.024 1.073 -0.156
v -0.145 1.073 -0.15
v -0.086 1.283 -0.008
v -0.069 1.283 -0.009
v -0.068 1.27 0.002
v -0.086 1.27 0.003
usemtl LeafLight
s off
f 640 639 638 637
f 641 642 643 644
f 637 638 642 641
f 638 639 643 642
f 639 640 644 643
f 640 637 641 644
o Leaf
v 0.743 1.279 -0.326
v 0.66 1.279 -0.413
v 0.693 1.167 -0.445
v 0.777 1.167 -0.358
v 0.866 1.315 -0.514
v 0.854 1.315 -0.527
v 0.859 1.298 -0.532
v 0.871 1.298 -0.519
usemtl Paint
s off
f 648 647 646 645
f 649 650 651 652
f 645 646 650 649
f 646 647 651 650
f 647 648 652 651
f 648 645 649 652
o Leaf
v -0.626 1.395 0.089
v -0.626 1.395 0.21
v -0.733 1.338 0.21
v -0.733 1.338 0.089
v -0.768 1.551 0.141
v -0.768 1.551 0.158
v -0.783 1.543 0.158
v -0.783 1.543 0.141
usemtl Paint
s off
f 656 655 654 653
f 657 658 659 660
f 653 654 658 657
f 654 655 659 658
f 655 656 660 659
f 656 653 657 660
o Leaf
v -0.14 1.185 0.263
v -0.205 1.185 0.366
v -0.233 1.069 0.348
v -0.169 1.069 0.245
v -0.386 1.206 0.17
v -0.395 1.206 0.184
v -0.399 1.19 0.182
v -0.39 1.19 0.167
usemtl Paint
s off
f 664 663 662 661
f 665 666 667 668
f 661 662 666 665
f 662 663 667 666
f 663 664 668 667
f 664 661 665 668
o Leaf
v 0.008 1.797 0.286
v 0.129 1.797 0.278
v 0.131 1.684 0.323
v 0.011 1.684 0.33
v 0.073 1.827 0.496
v 0.09 1.827 0.495
v 0.091 1.81 0.502
v 0.073 1.81 0.503
usemtl LeafLight
s off
f 672 671 670 669
f 673 674 675 676
f 669 670 674 673
f 670 671 675 674
f 671 672 676 675
f 672 669 673 676
o Leaf
v 0.381 1.085 0.734
v 0.434 1.085 0.625
v 0.45 0.965 0.633
v 0.397 0.965 0.742
v 0.614 1.068 0.79
v 0.622 1.068 0.774
v 0.624 1.05 0.775
v 0.616 1.05 0.791
usemtl Paint
s off
f 680 679 678 677
f 681 682 683 684
f 677 678 682 681
f 678 679 683 682
f 679 680 684 683
f 680 677 681 684
o Leaf
v -0.153 1.816 0.164
v -0.078 1.816 0.258
v -0.113 1.704 0.286
v -0.188 1.704 0.191
v -0.319 1.861 0.362
v -0.308 1.861 0.376
v -0.313 1.845 0.38
v -0.324 1.845 0.366
usemtl Paint
s off
f 688 687 686 685
f 689 690 691 692
f 685 686 690 689
f 686 687 691 690
f 687 688 692 691
f 688 685 689 692
o Leaf
v 0.106 1.913 0.174
v 0.206 1.913 0.106
v 0.258 1.835 0.182
v 0.158 1.835 0.25
v 0.255 2.055 0.3
v 0.269 2.055 0.291
v 0.277 2.044 0.302
v 0.262 2.044 0.312
usemtl Paint
s off
f 696 695 694 693
f 697 698 699 700
f 693 694 698 697
f 694 695 699 698
f 695 696 700 699
f 696 693 697 700
o Leaf
v -0.26 1.331 0.27
v -0.237 1.331 0.151
v -0.156 1.242 0.166
v -0.179 1.242 0.285
v -0.015 1.484 0.264
v -0.012 1.484 0.247
v 0 1.471 0.249
v -0.003 1.471 0.266
usemtl LeafLight
s off
f 704 703 702 701
f 705 706 707 708
f 701 702 706 705
f 702 703 707 706
f 703 704 708 707
f 704 701 705 708
o Leaf
v 0.087 1.939 0.145
v 0.144 1.939 0.039
v 0.236 1.878 0.087
v 0.179 1.878 0.194
v 0.249 2.101 0.173
v 0.257 2.101 0.158
v 0.271 2.092 0.165
v 0.262 2.092 0.18
usemtl Paint
s off
f 712 711 710 709
f 713 714 715 716
f 709 710 714 713
f 710 711 715 714
f 711 712 716 715
f 712 709 713 716
o Leaf
v -0.016 1.494 0.438
v 0.104 1.494 0.426
v 0.108 1.378 0.463
v -0.013 1.378 0.474
v 0.059 1.518 0.678
v 0.077 1.518 0.676
v 0.077 1.501 0.682
v 0.06 1.501 0.683
usemtl Paint
s off
f 720 719 718 717
f 721 722 723 724
f 717 718 722 721
f 718 719 723 722
f 719 720 724 723
f 720 717 721 724
o Leaf
v 0.06 1.227 -0.598
v -0.042 1.227 -0.662
v 0.013 1.164 -0.749
v 0.115 1.164 -0.685
v 0.109 1.413 -0.773
v 0.094 1.413 -0.782
v 0.102 1.404 -0.795
v 0.117 1.404 -0.785
usemtl Paint
s off
f 728 727 726 725
f 729 730 731 732
f 725 726 730 729
f 726 727 731 730
f 727 728 732 731
f 728 725 729 732
o Berry
v 0.894 1.315 -0.129
v 0.839 1.315 -0.111
v 0.805 1.315 -0.158
v 0.839 1.315 -0.205
v 0.894 1.315 -0.187
v 0.911 1.385 -0.117
v 0.832 1.385 -0.091
v 0.784 1.385 -0.158
v 0.832 1.385 -0.225
v 0.911 1.385 -0.199
usemtl Pink
s off
f 737 736 735 734 733
f 738 739 740 741 742
f 733 734 739 738
f 734 735 740 739
f 735 736 741 740
f 736 737 742 741
f 737 733 738 742
o Berry
v 0.911 1.385 -0.117
v 0.832 1.385 -0.091
v 0.784 1.385 -0.158
v 0.832 1.385 -0.225
v 0.911 1.385 -0.199
v 0.88 1.448 -0.14
v 0.844 1.448 -0.128
v 0.822 1.448 -0.158
v 0.844 1.448 -0.188
v 0.88 1.448 -0.177
usemtl Pink
s off
f 747 746 745 744 743
f 748 749 750 751 752
f 743 744 749 748
f 744 745 750 749
f 745 746 751 750
f 746 747 752 751
f 747 743 748 752
o Berry.Shine
v 0.833 1.417 -0.13
v 0.833 1.417 -0.105
v 0.861 1.417 -0.105
v 0.861 1.417 -0.13
v 0.833 1.438 -0.13
v 0.833 1.438 -0.105
v 0.861 1.438 -0.105
v 0.861 1.438 -0.13
usemtl Shine
s off
f 756 755 754 753
f 757 758 759 760
f 753 754 758 757
f 754 755 759 758
f 755 756 760 759
f 756 753 757 760
o Berry
v 0.868 1.308 -0.196
v 0.813 1.308 -0.179
v 0.779 1.308 -0.225
v 0.813 1.308 -0.272
v 0.868 1.308 -0.254
v 0.885 1.378 -0.184
v 0.807 1.378 -0.159
v 0.758 1.378 -0.225
v 0.807 1.378 -0.292
v 0.885 1.378 -0.266
usemtl Pink
s off
f 765 764 763 762 761
f 766 767 768 769 770
f 761 762 767 766
f 762 763 768 767
f 763 764 769 768
f 764 765 770 769
f 765 761 766 770
o Berry
v 0.885 1.378 -0.184
v 0.807 1.378 -0.159
v 0.758 1.378 -0.225
v 0.807 1.378 -0.292
v 0.885 1.378 -0.266
v 0.854 1.441 -0.207
v 0.819 1.441 -0.195
v 0.797 1.441 -0.225
v 0.819 1.441 -0.255
v 0.854 1.441 -0.244
usemtl Pink
s off
f 775 774 773 772 771
f 776 777 778 779 780
f 771 772 777 776
f 772 773 778 777
f 773 774 779 778
f 774 775 780 779
f 775 771 776 780
o Berry
v 0.887 1.244 -0.072
v 0.832 1.244 -0.054
v 0.798 1.244 -0.101
v 0.832 1.244 -0.148
v 0.887 1.244 -0.13
v 0.904 1.315 -0.06
v 0.826 1.315 -0.034
v 0.777 1.315 -0.101
v 0.826 1.315 -0.168
v 0.904 1.315 -0.142
usemtl Pink
s off
f 785 784 783 782 781
f 786 787 788 789 790
f 781 782 787 786
f 782 783 788 787
f 783 784 789 788
f 784 785 790 789
f 785 781 786 790
o Berry
v 0.904 1.315 -0.06
v 0.826 1.315 -0.034
v 0.777 1.315 -0.101
v 0.826 1.315 -0.168
v 0.904 1.315 -0.142
v 0.873 1.378 -0.082
v 0.838 1.378 -0.071
v 0.816 1.378 -0.101
v 0.838 1.378 -0.131
v 0.873 1.378 -0.12
usemtl Pink
s off
f 795 794 793 792 791
f 796 797 798 799 800
f 791 792 797 796
f 792 793 798 797
f 793 794 799 798
f 794 795 800 799
f 795 791 796 800
o Berry
v 0.015 0.955 0.932
v -0.038 0.955 0.949
v -0.07 0.955 0.905
v -0.038 0.955 0.86
v 0.015 0.955 0.877
v 0.031 1.022 0.944
v -0.044 1.022 0.968
v -0.09 1.022 0.905
v -0.044 1.022 0.841
v 0.031 1.022 0.866
usemtl Pink
s off
f 805 804 803 802 801
f 806 807 808 809 810
f 801 802 807 806
f 802 803 808 807
f 803 804 809 808
f 804 805 810 809
f 805 801 806 810
o Berry
v 0.031 1.022 0.944
v -0.044 1.022 0.968
v -0.09 1.022 0.905
v -0.044 1.022 0.841
v 0.031 1.022 0.866
v 0.001 1.082 0.923
v -0.033 1.082 0.933
v -0.053 1.082 0.905
v -0.033 1.082 0.876
v 0.001 1.082 0.887
usemtl Pink
s off
f 815 814 813 812 811
f 816 817 818 819 820
f 811 812 817 816
f 812 813 818 817
f 813 814 819 818
f 814 815 820 819
f 815 811 816 820
o Berry.Shine
v -0.043 1.052 0.932
v -0.043 1.052 0.955
v -0.017 1.052 0.955
v -0.017 1.052 0.932
v -0.043 1.072 0.932
v -0.043 1.072 0.955
v -0.017 1.072 0.955
v -0.017 1.072 0.932
usemtl Shine
s off
f 824 823 822 821
f 825 826 827 828
f 821 822 826 825
f 822 823 827 826
f 823 824 828 827
f 824 821 825 828
o Berry
v -0.077 0.918 0.997
v -0.133 0.918 1.015
v -0.168 0.918 0.968
v -0.133 0.918 0.92
v -0.077 0.918 0.938
v -0.06 0.989 1.01
v -0.14 0.989 1.036
v -0.189 0.989 0.968
v -0.14 0.989 0.9
v -0.06 0.989 0.926
usemtl Red
s off
f 833 832 831 830 829
f 834 835 836 837 838
f 829 830 835 834
f 830 831 836 835
f 831 832 837 836
f 832 833 838 837
f 833 829 834 838
o Berry
v -0.06 0.989 1.01
v -0.14 0.989 1.036
v -0.189 0.989 0.968
v -0.14 0.989 0.9
v -0.06 0.989 0.926
v -0.092 1.054 0.987
v -0.128 1.054 0.998
v -0.15 1.054 0.968
v -0.128 1.054 0.937
v -0.092 1.054 0.949
usemtl Red
s off
f 843 842 841 840 839
f 844 845 846 847 848
f 839 840 845 844
f 840 841 846 845
f 841 842 847 846
f 842 843 848 847
f 843 839 844 848
o Berry
v -0.025 1.906 -0.036
v -0.073 1.906 -0.02
v -0.104 1.906 -0.062
v -0.073 1.906 -0.103
v -0.025 1.906 -0.088
v -0.01 1.968 -0.025
v -0.079 1.968 -0.003
v -0.122 1.968 -0.062
v -0.079 1.968 -0.121
v -0.01 1.968 -0.099
usemtl Pink
s off
f 853 852 851 850 849
f 854 855 856 857 858
f 849 850 855 854
f 850 851 856 855
f 851 852 857 856
f 852 853 858 857
f 853 849 854 858
o Berry
v -0.01 1.968 -0.025
v -0.079 1.968 -0.003
v -0.122 1.968 -0.062
v -0.079 1.968 -0.121
v -0.01 1.968 -0.099
v -0.037 2.024 -0.046
v -0.069 2.024 -0.035
v -0.088 2.024 -0.062
v -0.069 2.024 -0.089
v -0.037 2.024 -0.078
usemtl Pink
s off
f 863 862 861 860 859
f 864 865 866 867 868
f 859 860 865 864
f 860 861 866 865
f 861 862 867 866
f 862 863 868 867
f 863 859 864 868
o Berry.Shine
v -0.079 1.996 -0.037
v -0.079 1.996 -0.015
v -0.054 1.996 -0.015
v -0.054 1.996 -0.037
v -0.079 2.015 -0.037
v -0.079 2.015 -0.015
v -0.054 2.015 -0.015
v -0.054 2.015 -0.037
usemtl Shine
s off
f 872 871 870 869
f 873 874 875 876
f 869 870 874 873
f 870 871 875 874
f 871 872 876 875
f 872 869 873 876
o Berry
v 0.044 1.869 0.05
v -0.006 1.869 0.066
v -0.036 1.869 0.024
v -0.006 1.869 -0.018
v 0.044 1.869 -0.002
v 0.059 1.932 0.061
v -0.011 1.932 0.084
v -0.055 1.932 0.024
v -0.011 1.932 -0.036
v 0.059 1.932 -0.013
usemtl Red
s off
f 881 880 879 878 877
f 882 883 884 885 886
f 877 878 883 882
f 878 879 884 883
f 879 880 885 884
f 880 881 886 885
f 881 877 882 886
o Berry
v 0.059 1.932 0.061
v -0.011 1.932 0.084
v -0.055 1.932 0.024
v -0.011 1.932 -0.036
v 0.059 1.932 -0.013
v 0.031 1.988 0.041
v -0.001 1.988 0.051
v -0.02 1.988 0.024
v -0.001 1.988 -0.003
v 0.031 1.988 0.008
usemtl Red
s off
f 891 890 889 888 887
f 892 893 894 895 896
f 887 888 893 892
f 888 889 894 893
f 889 890 895 894
f 890 891 896 895
f 891 887 892 896
o Berry
v 0.549 1.408 -0.107
v 0.499 1.408 -0.09
v 0.468 1.408 -0.133
v 0.499 1.408 -0.176
v 0.549 1.408 -0.16
v 0.565 1.473 -0.095
v 0.493 1.473 -0.072
v 0.449 1.473 -0.133
v 0.493 1.473 -0.194
v 0.565 1.473 -0.171
usemtl Red
s off
f 901 900 899 898 897
f 902 903 904 905 906
f 897 898 903 902
f 898 899 904 903
f 899 900 905 904
f 900 901 906 905
f 901 897 902 906
o Berry
v 0.565 1.473 -0.095
v 0.493 1.473 -0.072
v 0.449 1.473 -0.133
v 0.493 1.473 -0.194
v 0.565 1.473 -0.171
v 0.536 1.53 -0.116
v 0.504 1.53 -0.106
v 0.484 1.53 -0.133
v 0.504 1.53 -0.161
v 0.536 1.53 -0.15
usemtl Red
s off
f 911 910 909 908 907
f 912 913 914 915 916
f 907 908 913 912
f 908 909 914 913
f 909 910 915 914
f 910 911 916 915
f 911 907 912 916
o Berry.Shine
v 0.494 1.501 -0.107
v 0.494 1.501 -0.085
v 0.519 1.501 -0.085
v 0.519 1.501 -0.107
v 0.494 1.521 -0.107
v 0.494 1.521 -0.085
v 0.519 1.521 -0.085
v 0.519 1.521 -0.107
usemtl Shine
s off
f 920 919 918 917
f 921 922 923 924
f 917 918 922 921
f 918 919 923 922
f 919 920 924 923
f 920 917 921 924
o Berry
v 0.526 1.386 -0.157
v 0.469 1.386 -0.138
v 0.433 1.386 -0.187
v 0.469 1.386 -0.235
v 0.526 1.386 -0.217
v 0.543 1.459 -0.144
v 0.462 1.459 -0.117
v 0.411 1.459 -0.187
v 0.462 1.459 -0.256
v 0.543 1.459 -0.23
usemtl Red
s off
f 929 928 927 926 925
f 930 931 932 933 934
f 925 926 931 930
f 926 927 932 931
f 927 928 933 932
f 928 929 934 933
f 929 925 930 934
o Berry
v 0.543 1.459 -0.144
v 0.462 1.459 -0.117
v 0.411 1.459 -0.187
v 0.462 1.459 -0.256
v 0.543 1.459 -0.23
v 0.511 1.525 -0.167
v 0.474 1.525 -0.155
v 0.452 1.525 -0.187
v 0.474 1.525 -0.218
v 0.511 1.525 -0.206
usemtl Red
s off
f 939 938 937 936 935
f 940 941 942 943 944
f 935 936 941 940
f 936 937 942 941
f 937 938 943 942
f 938 939 944 943
f 939 935 940 944
o Berry
v 0.606 1.297 -0.189
v 0.549 1.297 -0.171
v 0.514 1.297 -0.219
v 0.549 1.297 -0.268
v 0.606 1.297 -0.249
v 0.624 1.37 -0.177
v 0.543 1.37 -0.15
v 0.492 1.37 -0.219
v 0.543 1.37 -0.288
v 0.624 1.37 -0.262
usemtl Pink
s off
f 949 948 947 946 945
f 950 951 952 953 954
f 945 946 951 950
f 946 947 952 951
f 947 948 953 952
f 948 949 954 953
f 949 945 950 954
o Berry
v 0.624 1.37 -0.177
v 0.543 1.37 -0.15
v 0.492 1.37 -0.219
v 0.543 1.37 -0.288
v 0.624 1.37 -0.262
v 0.592 1.435 -0.2
v 0.555 1.435 -0.188
v 0.532 1.435 -0.219
v 0.555 1.435 -0.25
v 0.592 1.435 -0.238
usemtl Pink
s off
f 959 958 957 956 955
f 960 961 962 963 964
f 955 956 961 960
f 956 957 962 961
f 957 958 963 962
f 958 959 964 963
f 959 955 960 964
o Berry
v 0.584 1.374 -0.186
v 0.539 1.374 -0.171
v 0.512 1.374 -0.21
v 0.539 1.374 -0.248
v 0.584 1.374 -0.233
v 0.598 1.432 -0.176
v 0.534 1.432 -0.155
v 0.494 1.432 -0.21
v 0.534 1.432 -0.264
v 0.598 1.432 -0.243
usemtl Red
s off
f 969 968 967 966 965
f 970 971 972 973 974
f 965 966 971 970
f 966 967 972 971
f 967 968 973 972
f 968 969 974 973
f 969 965 970 974
o Berry
v 0.598 1.432 -0.176
v 0.534 1.432 -0.155
v 0.494 1.432 -0.21
v 0.534 1.432 -0.264
v 0.598 1.432 -0.243
v 0.573 1.483 -0.194
v 0.544 1.483 -0.185
v 0.526 1.483 -0.21
v 0.544 1.483 -0.234
v 0.573 1.483 -0.225
usemtl Red
s off
f 979 978 977 976 975
f 980 981 982 983 984
f 975 976 981 980
f 976 977 982 981
f 977 978 983 982
f 978 979 984 983
f 979 975 980 984
o Berry
v -0.017 1.658 -0.219
v -0.061 1.658 -0.205
v -0.088 1.658 -0.242
v -0.061 1.658 -0.28
v -0.017 1.658 -0.265
v -0.003 1.715 -0.209
v -0.066 1.715 -0.189
v -0.105 1.715 -0.242
v -0.066 1.715 -0.296
v -0.003 1.715 -0.275
usemtl Green
s off
f 989 988 987 986 985
f 990 991 992 993 994
f 985 986 991 990
f 986 987 992 991
f 987 988 993 992
f 988 989 994 993
f 989 985 990 994
o Berry
v -0.003 1.715 -0.209
v -0.066 1.715 -0.189
v -0.105 1.715 -0.242
v -0.066 1.715 -0.296
v -0.003 1.715 -0.275
v -0.028 1.766 -0.227
v -0.057 1.766 -0.218
v -0.074 1.766 -0.242
v -0.057 1.766 -0.266
v -0.028 1.766 -0.257
usemtl Green
s off
f 999 998 997 996 995
f 1000 1001 1002 1003 1004
f 995 996 1001 1000
f 996 997 1002 1001
f 997 998 1003 1002
f 998 999 1004 1003
f 999 995 1000 1004
o Berry.Shine
v -0.066 1.74 -0.22
v -0.066 1.74 -0.2
v -0.043 1.74 -0.2
v -0.043 1.74 -0.22
v -0.066 1.757 -0.22
v -0.066 1.757 -0.2
v -0.043 1.757 -0.2
v -0.043 1.757 -0.22
usemtl Shine
s off
f 1008 1007 1006 1005
f 1009 1010 1011 1012
f 1005 1006 1010 1009
f 1006 1007 1011 1010
f 1007 1008 1012 1011
f 1008 1005 1009 1012
o Berry
v 0.042 1.537 -0.262
v -0.003 1.537 -0.247
v -0.031 1.537 -0.286
v -0.003 1.537 -0.324
v 0.042 1.537 -0.309
v 0.056 1.594 -0.252
v -0.008 1.594 -0.231
v -0.048 1.594 -0.286
v -0.008 1.594 -0.34
v 0.056 1.594 -0.319
usemtl Green
s off
f 1017 1016 1015 1014 1013
f 1018 1019 1020 1021 1022
f 1013 1014 1019 1018
f 1014 1015 1020 1019
f 1015 1016 1021 1020
f 1016 1017 1022 1021
f 1017 1013 1018 1022
o Berry
v 0.056 1.594 -0.252
v -0.008 1.594 -0.231
v -0.048 1.594 -0.286
v -0.008 1.594 -0.34
v 0.056 1.594 -0.319
v 0.03 1.646 -0.27
v 0.001 1.646 -0.261
v -0.017 1.646 -0.286
v 0.001 1.646 -0.31
v 0.03 1.646 -0.301
usemtl Green
s off
f 1027 1026 1025 1024 1023
f 1028 1029 1030 1031 1032
f 1023 1024 1029 1028
f 1024 1025 1030 1029
f 1025 1026 1031 1030
f 1026 1027 1032 1031
f 1027 1023 1028 1032
o Berry
v -0.071 1.638 -0.312
v -0.116 1.638 -0.297
v -0.145 1.638 -0.336
v -0.116 1.638 -0.375
v -0.071 1.638 -0.36
v -0.056 1.696 -0.302
v -0.122 1.696 -0.28
v -0.162 1.696 -0.336
v -0.122 1.696 -0.391
v -0.056 1.696 -0.37
usemtl Red
s off
f 1037 1036 1035 1034 1033
f 1038 1039 1040 1041 1042
f 1033 1034 1039 1038
f 1034 1035 1040 1039
f 1035 1036 1041 1040
f 1036 1037 1042 1041
f 1037 1033 1038 1042
o Berry
v -0.056 1.696 -0.302
v -0.122 1.696 -0.28
v -0.162 1.696 -0.336
v -0.122 1.696 -0.391
v -0.056 1.696 -0.37
v -0.082 1.749 -0.32
v -0.112 1.749 -0.311
v -0.13 1.749 -0.336
v -0.112 1.749 -0.361
v -0.082 1.749 -0.351
usemtl Red
s off
f 1047 1046 1045 1044 1043
f 1048 1049 1050 1051 1052
f 1043 1044 1049 1048
f 1044 1045 1050 1049
f 1045 1046 1051 1050
f 1046 1047 1052 1051
f 1047 1043 1048 1052
o Berry
v -0.828 1.214 0.343
v -0.877 1.214 0.359
v -0.908 1.214 0.317
v -0.877 1.214 0.275
v -0.828 1.214 0.291
v -0.813 1.277 0.354
v -0.883 1.277 0.377
v -0.927 1.277 0.317
v -0.883 1.277 0.257
v -0.813 1.277 0.28
usemtl Red
s off
f 1057 1056 1055 1054 1053
f 1058 1059 1060 1061 1062
f 1053 1054 1059 1058
f 1054 1055 1060 1059
f 1055 1056 1061 1060
f 1056 1057 1062 1061
f 1057 1053 1058 1062
o Berry
v -0.813 1.277 0.354
v -0.883 1.277 0.377
v -0.927 1.277 0.317
v -0.883 1.277 0.257
v -0.813 1.277 0.28
v -0.841 1.334 0.334
v -0.872 1.334 0.344
v -0.892 1.334 0.317
v -0.872 1.334 0.29
v -0.841 1.334 0.301
usemtl Red
s off
f 1067 1066 1065 1064 1063
f 1068 1069 1070 1071 1072
f 1063 1064 1069 1068
f 1064 1065 1070 1069
f 1065 1066 1071 1070
f 1066 1067 1072 1071
f 1067 1063 1068 1072
o Berry.Shine
v -0.882 1.305 0.343
v -0.882 1.305 0.365
v -0.857 1.305 0.365
v -0.857 1.305 0.343
v -0.882 1.324 0.343
v -0.882 1.324 0.365
v -0.857 1.324 0.365
v -0.857 1.324 0.343
usemtl Shine
s off
f 1076 1075 1074 1073
f 1077 1078 1079 1080
f 1073 1074 1078 1077
f 1074 1075 1079 1078
f 1075 1076 1080 1079
f 1076 1073 1077 1080
o Berry
v -0.907 1.088 0.408
v -0.964 1.088 0.426
v -0.999 1.088 0.378
v -0.964 1.088 0.33
v -0.907 1.088 0.348
v -0.89 1.161 0.421
v -0.971 1.161 0.447
v -1.021 1.161 0.378
v -0.971 1.161 0.309
v -0.89 1.161 0.335
usemtl Pink
s off
f 1085 1084 1083 1082 1081
f 1086 1087 1088 1089 1090
f 1081 1082 1087 1086
f 1082 1083 1088 1087
f 1083 1084 1089 1088
f 1084 1085 1090 1089
f 1085 1081 1086 1090
o Berry
v -0.89 1.161 0.421
v -0.971 1.161 0.447
v -1.021 1.161 0.378
v -0.971 1.161 0.309
v -0.89 1.161 0.335
v -0.922 1.226 0.397
v -0.958 1.226 0.409
v -0.981 1.226 0.378
v -0.958 1.226 0.347
v -0.922 1.226 0.359
usemtl Pink
s off
f 1095 1094 1093 1092 1091
f 1096 1097 1098 1099 1100
f 1091 1092 1097 1096
f 1092 1093 1098 1097
f 1093 1094 1099 1098
f 1094 1095 1100 1099
f 1095 1091 1096 1100
o Berry
v 0.706 1.244 0.288
v 0.654 1.244 0.305
v 0.621 1.244 0.261
v 0.654 1.244 0.216
v 0.706 1.244 0.233
v 0.722 1.31 0.3
v 0.647 1.31 0.324
v 0.601 1.31 0.261
v 0.647 1.31 0.197
v 0.722 1.31 0.221
usemtl Pink
s off
f 1105 1104 1103 1102 1101
f 1106 1107 1108 1109 1110
f 1101 1102 1107 1106
f 1102 1103 1108 1107
f 1103 1104 1109 1108
f 1104 1105 1110 1109
f 1105 1101 1106 1110
o Berry
v 0.722 1.31 0.3
v 0.647 1.31 0.324
v 0.601 1.31 0.261
v 0.647 1.31 0.197
v 0.722 1.31 0.221
v 0.692 1.37 0.278
v 0.659 1.37 0.289
v 0.638 1.37 0.261
v 0.659 1.37 0.232
v 0.692 1.37 0.243
usemtl Pink
s off
f 1115 1114 1113 1112 1111
f 1116 1117 1118 1119 1120
f 1111 1112 1117 1116
f 1112 1113 1118 1117
f 1113 1114 1119 1118
f 1114 1115 1120 1119
f 1115 1111 1116 1120
o Berry.Shine
v 0.648 1.34 0.287
v 0.648 1.34 0.31
v 0.675 1.34 0.31
v 0.675 1.34 0.287
v 0.648 1.36 0.287
v 0.648 1.36 0.31
v 0.675 1.36 0.31
v 0.675 1.36 0.287
usemtl Shine
s off
f 1124 1123 1122 1121
f 1125 1126 1127 1128
f 1121 1122 1126 1125
f 1122 1123 1127 1126
f 1123 1124 1128 1127
f 1124 1121 1125 1128
o Berry
v 0.678 1.217 0.345
v 0.628 1.217 0.361
v 0.596 1.217 0.318
v 0.628 1.217 0.275
v 0.678 1.217 0.292
v 0.694 1.282 0.356
v 0.622 1.282 0.38
v 0.577 1.282 0.318
v 0.622 1.282 0.257
v 0.694 1.282 0.28
usemtl Pink
s off
f 1133 1132 1131 1130 1129
f 1134 1135 1136 1137 1138
f 1129 1130 1135 1134
f 1130 1131 1136 1135
f 1131 1132 1137 1136
f 1132 1133 1138 1137
f 1133 1129 1134 1138
o Berry
v 0.694 1.282 0.356
v 0.622 1.282 0.38
v 0.577 1.282 0.318
v 0.622 1.282 0.257
v 0.694 1.282 0.28
v 0.665 1.34 0.335
v 0.633 1.34 0.346
v 0.612 1.34 0.318
v 0.633 1.34 0.291
v 0.665 1.34 0.301
usemtl Pink
s off
f 1143 1142 1141 1140 1139
f 1144 1145 1146 1147 1148
f 1139 1140 1145 1144
f 1140 1141 1146 1145
f 1141 1142 1147 1146
f 1142 1143 1148 1147
f 1143 1139 1144 1148
o Berry
v 0.767 1.156 0.315
v 0.709 1.156 0.334
v 0.673 1.156 0.284
v 0.709 1.156 0.235
v 0.767 1.156 0.254
v 0.785 1.23 0.328
v 0.702 1.23 0.355
v 0.65 1.23 0.284
v 0.702 1.23 0.214
v 0.785 1.23 0.241
usemtl Red
s off
f 1153 1152 1151 1150 1149
f 1154 1155 1156 1157 1158
f 1149 1150 1155 1154
f 1150 1151 1156 1155
f 1151 1152 1157 1156
f 1152 1153 1158 1157
f 1153 1149 1154 1158
o Berry
v 0.785 1.23 0.328
v 0.702 1.23 0.355
v 0.65 1.23 0.284
v 0.702 1.23 0.214
v 0.785 1.23 0.241
v 0.752 1.297 0.304
v 0.714 1.297 0.316
v 0.691 1.297 0.284
v 0.714 1.297 0.252
v 0.752 1.297 0.265
usemtl Red
s off
f 1163 1162 1161 1160 1159
f 1164 1165 1166 1167 1168
f 1159 1160 1165 1164
f 1160 1161 1166 1165
f 1161 1162 1167 1166
f 1162 1163 1168 1167
f 1163 1159 1164 1168
o Berry
v -0.408 1.255 -0.281
v -0.456 1.255 -0.266
v -0.485 1.255 -0.307
v -0.456 1.255 -0.347
v -0.408 1.255 -0.332
v -0.393 1.316 -0.27
v -0.461 1.316 -0.248
v -0.504 1.316 -0.307
v -0.461 1.316 -0.365
v -0.393 1.316 -0.343
usemtl Pink
s off
f 1173 1172 1171 1170 1169
f 1174 1175 1176 1177 1178
f 1169 1170 1175 1174
f 1170 1171 1176 1175
f 1171 1172 1177 1176
f 1172 1173 1178 1177
f 1173 1169 1174 1178
o Berry
v -0.393 1.316 -0.27
v -0.461 1.316 -0.248
v -0.504 1.316 -0.307
v -0.461 1.316 -0.365
v -0.393 1.316 -0.343
v -0.42 1.372 -0.29
v -0.451 1.372 -0.28
v -0.47 1.372 -0.307
v -0.451 1.372 -0.333
v -0.42 1.372 -0.323
usemtl Pink
s off
f 1183 1182 1181 1180 1179
f 1184 1185 1186 1187 1188
f 1179 1180 1185 1184
f 1180 1181 1186 1185
f 1181 1182 1187 1186
f 1182 1183 1188 1187
f 1183 1179 1184 1188
o Berry.Shine
v -0.461 1.344 -0.282
v -0.461 1.344 -0.26
v -0.436 1.344 -0.26
v -0.436 1.344 -0.282
v -0.461 1.362 -0.282
v -0.461 1.362 -0.26
v -0.436 1.362 -0.26
v -0.436 1.362 -0.282
usemtl Shine
s off
f 1192 1191 1190 1189
f 1193 1194 1195 1196
f 1189 1190 1194 1193
f 1190 1191 1195 1194
f 1191 1192 1196 1195
f 1192 1189 1193 1196
o Berry
v -0.396 1.185 -0.2
v -0.44 1.185 -0.186
v -0.467 1.185 -0.223
v -0.44 1.185 -0.26
v -0.396 1.185 -0.246
v -0.383 1.241 -0.19
v -0.445 1.241 -0.17
v -0.484 1.241 -0.223
v -0.445 1.241 -0.276
v -0.383 1.241 -0.256
usemtl Pink
s off
f 1201 1200 1199 1198 1197
f 1202 1203 1204 1205 1206
f 1197 1198 1203 1202
f 1198 1199 1204 1203
f 1199 1200 1205 1204
f 1200 1201 1206 1205
f 1201 1197 1202 1206
o Berry
v -0.383 1.241 -0.19
v -0.445 1.241 -0.17
v -0.484 1.241 -0.223
v -0.445 1.241 -0.276
v -0.383 1.241 -0.256
v -0.407 1.291 -0.208
v -0.436 1.291 -0.199
v -0.453 1.291 -0.223
v -0.436 1.291 -0.247
v -0.407 1.291 -0.238
usemtl Pink
s off
f 1211 1210 1209 1208 1207
f 1212 1213 1214 1215 1216
f 1207 1208 1213 1212
f 1208 1209 1214 1213
f 1209 1210 1215 1214
f 1210 1211 1216 1215
f 1211 1207 1212 1216
o Berry
v -0.309 1.129 -0.28
v -0.367 1.129 -0.261
v -0.402 1.129 -0.31
v -0.367 1.129 -0.359
v -0.309 1.129 -0.34
v -0.291 1.203 -0.267
v -0.374 1.203 -0.24
v -0.424 1.203 -0.31
v -0.374 1.203 -0.38
v -0.291 1.203 -0.353
usemtl Pink
s off
f 1221 1220 1219 1218 1217
f 1222 1223 1224 1225 1226
f 1217 1218 1223 1222
f 1218 1219 1224 1223
f 1219 1220 1225 1224
f 1220 1221 1226 1225
f 1221 1217 1222 1226
o Berry
v -0.291 1.203 -0.267
v -0.374 1.203 -0.24
v -0.424 1.203 -0.31
v -0.374 1.203 -0.38
v -0.291 1.203 -0.353
v -0.324 1.269 -0.291
v -0.361 1.269 -0.279
v -0.384 1.269 -0.31
v -0.361 1.269 -0.342
v -0.324 1.269 -0.33
usemtl Pink
s off
f 1231 1230 1229 1228 1227
f 1232 1233 1234 1235 1236
f 1227 1228 1233 1232
f 1228 1229 1234 1233
f 1229 1230 1235 1234
f 1230 1231 1236 1235
f 1231 1227 1232 1236
o Berry
v 0.378 1.616 0.145
v 0.326 1.616 0.162
v 0.293 1.616 0.117
v 0.326 1.616 0.073
v 0.378 1.616 0.09
v 0.394 1.683 0.156
v 0.32 1.683 0.181
v 0.273 1.683 0.117
v 0.32 1.683 0.053
v 0.394 1.683 0.078
usemtl Green
s off
f 1241 1240 1239 1238 1237
f 1242 1243 1244 1245 1246
f 1237 1238 1243 1242
f 1238 1239 1244 1243
f 1239 1240 1245 1244
f 1240 1241 1246 1245
f 1241 1237 1242 1246
o Berry
v 0.394 1.683 0.156
v 0.32 1.683 0.181
v 0.273 1.683 0.117
v 0.32 1.683 0.053
v 0.394 1.683 0.078
v 0.365 1.743 0.135
v 0.331 1.743 0.146
v 0.31 1.743 0.117
v 0.331 1.743 0.088
v 0.365 1.743 0.099
usemtl Green
s off
f 1251 1250 1249 1248 1247
f 1252 1253 1254 1255 1256
f 1247 1248 1253 1252
f 1248 1249 1254 1253
f 1249 1250 1255 1254
f 1250 1251 1256 1255
f 1251 1247 1252 1256
o Berry.Shine
v 0.32 1.713 0.144
v 0.32 1.713 0.167
v 0.347 1.713 0.167
v 0.347 1.713 0.144
v 0.32 1.733 0.144
v 0.32 1.733 0.167
v 0.347 1.733 0.167
v 0.347 1.733 0.144
usemtl Shine
s off
f 1260 1259 1258 1257
f 1261 1262 1263 1264
f 1257 1258 1262 1261
f 1258 1259 1263 1262
f 1259 1260 1264 1263
f 1260 1257 1261 1264
o Berry
v 0.399 1.53 0.105
v 0.34 1.53 0.124
v 0.304 1.53 0.074
v 0.34 1.53 0.025
v 0.399 1.53 0.044
v 0.417 1.604 0.118
v 0.334 1.604 0.145
v 0.282 1.604 0.074
v 0.334 1.604 0.004
v 0.417 1.604 0.031
usemtl Green
s off
f 1269 1268 1267 1266 1265
f 1270 1271 1272 1273 1274
f 1265 1266 1271 1270
f 1266 1267 1272 1271
f 1267 1268 1273 1272
f 1268 1269 1274 1273
f 1269 1265 1270 1274
o Berry
v 0.417 1.604 0.118
v 0.334 1.604 0.145
v 0.282 1.604 0.074
v 0.334 1.604 0.004
v 0.417 1.604 0.031
v 0.384 1.671 0.094
v 0.346 1.671 0.106
v 0.323 1.671 0.074
v 0.346 1.671 0.043
v 0.384 1.671 0.055
usemtl Green
s off
f 1279 1278 1277 1276 1275
f 1280 1281 1282 1283 1284
f 1275 1276 1281 1280
f 1276 1277 1282 1281
f 1277 1278 1283 1282
f 1278 1279 1284 1283
f 1279 1275 1280 1284
o Berry
v -0.313 1.151 0.547
v -0.37 1.151 0.565
v -0.405 1.151 0.517
v -0.37 1.151 0.469
v -0.313 1.151 0.488
v -0.296 1.223 0.56
v -0.376 1.223 0.586
v -0.426 1.223 0.517
v -0.376 1.223 0.449
v -0.296 1.223 0.475
usemtl Pink
s off
f 1289 1288 1287 1286 1285
f 1290 1291 1292 1293 1294
f 1285 1286 1291 1290
f 1286 1287 1292 1291
f 1287 1288 1293 1292
f 1288 1289 1294 1293
f 1289 1285 1290 1294
o Berry
v -0.296 1.223 0.56
v -0.376 1.223 0.586
v -0.426 1.223 0.517
v -0.376 1.223 0.449
v -0.296 1.223 0.475
v -0.328 1.288 0.536
v -0.364 1.288 0.548
v -0.387 1.288 0.517
v -0.364 1.288 0.486
v -0.328 1.288 0.498
usemtl Pink
s off
f 1299 1298 1297 1296 1295
f 1300 1301 1302 1303 1304
f 1295 1296 1301 1300
f 1296 1297 1302 1301
f 1297 1298 1303 1302
f 1298 1299 1304 1303
f 1299 1295 1300 1304
o Berry.Shine
v -0.376 1.256 0.546
v -0.376 1.256 0.571
v -0.347 1.256 0.571
v -0.347 1.256 0.546
v -0.376 1.277 0.546
v -0.376 1.277 0.571
v -0.347 1.277 0.571
v -0.347 1.277 0.546
usemtl Shine
s off
f 1308 1307 1306 1305
f 1309 1310 1311 1312
f 1305 1306 1310 1309
f 1306 1307 1311 1310
f 1307 1308 1312 1311
f 1308 1305 1309 1312
o Berry
v -0.229 1.034 0.445
v -0.272 1.034 0.459
v -0.299 1.034 0.422
v -0.272 1.034 0.385
v -0.229 1.034 0.399
v -0.215 1.09 0.455
v -0.277 1.09 0.475
v -0.316 1.09 0.422
v -0.277 1.09 0.369
v -0.215 1.09 0.389
usemtl Red
s off
f 1317 1316 1315 1314 1313
f 1318 1319 1320 1321 1322
f 1313 1314 1319 1318
f 1314 1315 1320 1319
f 1315 1316 1321 1320
f 1316 1317 1322 1321
f 1317 1313 1318 1322
o Berry
v -0.215 1.09 0.455
v -0.277 1.09 0.475
v -0.316 1.09 0.422
v -0.277 1.09 0.369
v -0.215 1.09 0.389
v -0.24 1.14 0.437
v -0.268 1.14 0.446
v -0.285 1.14 0.422
v -0.268 1.14 0.398
v -0.24 1.14 0.407
usemtl Red
s off
f 1327 1326 1325 1324 1323
f 1328 1329 1330 1331 1332
f 1323 1324 1329 1328
f 1324 1325 1330 1329
f 1325 1326 1331 1330
f 1326 1327 1332 1331
f 1327 1323 1328 1332
o Berry
v -0.372 1.027 0.508
v -0.416 1.027 0.523
v -0.443 1.027 0.485
v -0.416 1.027 0.448
v -0.372 1.027 0.462
v -0.358 1.084 0.518
v -0.421 1.084 0.539
v -0.46 1.084 0.485
v -0.421 1.084 0.432
v -0.358 1.084 0.452
usemtl Pink
s off
f 1337 1336 1335 1334 1333
f 1338 1339 1340 1341 1342
f 1333 1334 1339 1338
f 1334 1335 1340 1339
f 1335 1336 1341 1340
f 1336 1337 1342 1341
f 1337 1333 1338 1342
o Berry
v -0.358 1.084 0.518
v -0.421 1.084 0.539
v -0.46 1.084 0.485
v -0.421 1.084 0.432
v -0.358 1.084 0.452
v -0.383 1.134 0.5
v -0.411 1.134 0.509
v -0.429 1.134 0.485
v -0.411 1.134 0.461
v -0.383 1.134 0.47
usemtl Pink
s off
f 1347 1346 1345 1344 1343
f 1348 1349 1350 1351 1352
f 1343 1344 1349 1348
f 1344 1345 1350 1349
f 1345 1346 1351 1350
f 1346 1347 1352 1351
f 1347 1343 1348 1352
o Berry
v -0.407 1.036 0.494
v -0.458 1.036 0.51
v -0.489 1.036 0.467
v -0.458 1.036 0.423
v -0.407 1.036 0.44
v -0.391 1.101 0.505
v -0.464 1.101 0.529
v -0.509 1.101 0.467
v -0.464 1.101 0.405
v -0.391 1.101 0.428
usemtl Red
s off
f 1357 1356 1355 1354 1353
f 1358 1359 1360 1361 1362
f 1353 1354 1359 1358
f 1354 1355 1360 1359
f 1355 1356 1361 1360
f 1356 1357 1362 1361
f 1357 1353 1358 1362
o Berry
v -0.391 1.101 0.505
v -0.464 1.101 0.529
v -0.509 1.101 0.467
v -0.464 1.101 0.405
v -0.391 1.101 0.428
v -0.42 1.16 0.484
v -0.453 1.16 0.495
v -0.473 1.16 0.467
v -0.453 1.16 0.439
v -0.42 1.16 0.449
usemtl Red
s off
f 1367 1366 1365 1364 1363
f 1368 1369 1370 1371 1372
f 1363 1364 1369 1368
f 1364 1365 1370 1369
f 1365 1366 1371 1370
f 1366 1367 1372 1371
f 1367 1363 1368 1372
o Berry
v -0.077 1.86 -0.115
v -0.122 1.86 -0.101
v -0.15 1.86 -0.139
v -0.122 1.86 -0.177
v -0.077 1.86 -0.163
v -0.063 1.917 -0.105
v -0.127 1.917 -0.085
v -0.167 1.917 -0.139
v -0.127 1.917 -0.193
v -0.063 1.917 -0.173
usemtl Pink
s off
f 1377 1376 1375 1374 1373
f 1378 1379 1380 1381 1382
f 1373 1374 1379 1378
f 1374 1375 1380 1379
f 1375 1376 1381 1380
f 1376 1377 1382 1381
f 1377 1373 1378 1382
o Berry
v -0.063 1.917 -0.105
v -0.127 1.917 -0.085
v -0.167 1.917 -0.139
v -0.127 1.917 -0.193
v -0.063 1.917 -0.173
v -0.089 1.968 -0.124
v -0.118 1.968 -0.114
v -0.136 1.968 -0.139
v -0.118 1.968 -0.163
v -0.089 1.968 -0.154
usemtl Pink
s off
f 1387 1386 1385 1384 1383
f 1388 1389 1390 1391 1392
f 1383 1384 1389 1388
f 1384 1385 1390 1389
f 1385 1386 1391 1390
f 1386 1387 1392 1391
f 1387 1383 1388 1392
o Berry.Shine
v -0.127 1.943 -0.116
v -0.127 1.943 -0.096
v -0.104 1.943 -0.096
v -0.104 1.943 -0.116
v -0.127 1.96 -0.116
v -0.127 1.96 -0.096
v -0.104 1.96 -0.096
v -0.104 1.96 -0.116
usemtl Shine
s off
f 1396 1395 1394 1393
f 1397 1398 1399 1400
f 1393 1394 1398 1397
f 1394 1395 1399 1398
f 1395 1396 1400 1399
f 1396 1393 1397 1400
o Berry
v -0.137 1.78 -0.143
v -0.182 1.78 -0.128
v -0.209 1.78 -0.166
v -0.182 1.78 -0.204
v -0.137 1.78 -0.19
v -0.123 1.838 -0.132
v -0.187 1.838 -0.112
v -0.227 1.838 -0.166
v -0.187 1.838 -0.221
v -0.123 1.838 -0.2
usemtl Green
s off
f 1405 1404 1403 1402 1401
f 1406 1407 1408 1409 1410
f 1401 1402 1407 1406
f 1402 1403 1408 1407
f 1403 1404 1409 1408
f 1404 1405 1410 1409
f 1405 1401 1406 1410
o Berry
v -0.123 1.838 -0.132
v -0.187 1.838 -0.112
v -0.227 1.838 -0.166
v -0.187 1.838 -0.221
v -0.123 1.838 -0.2
v -0.148 1.889 -0.151
v -0.177 1.889 -0.142
v -0.195 1.889 -0.166
v -0.177 1.889 -0.191
v -0.148 1.889 -0.181
usemtl Green
s off
f 1415 1414 1413 1412 1411
f 1416 1417 1418 1419 1420
f 1411 1412 1417 1416
f 1412 1413 1418 1417
f 1413 1414 1419 1418
f 1414 1415 1420 1419
f 1415 1411 1416 1420
o Berry
v -0.027 1.783 -0.159
v -0.071 1.783 -0.145
v -0.098 1.783 -0.182
v -0.071 1.783 -0.219
v -0.027 1.783 -0.204
v -0.014 1.838 -0.149
v -0.076 1.838 -0.129
v -0.114 1.838 -0.182
v -0.076 1.838 -0.234
v -0.014 1.838 -0.214
usemtl Green
s off
f 1425 1424 1423 1422 1421
f 1426 1427 1428 1429 1430
f 1421 1422 1427 1426
f 1422 1423 1428 1427
f 1423 1424 1429 1428
f 1424 1425 1430 1429
f 1425 1421 1426 1430
o Berry
v -0.014 1.838 -0.149
v -0.076 1.838 -0.129
v -0.114 1.838 -0.182
v -0.076 1.838 -0.234
v -0.014 1.838 -0.214
v -0.039 1.888 -0.167
v -0.067 1.888 -0.158
v -0.084 1.888 -0.182
v -0.067 1.888 -0.205
v -0.039 1.888 -0.196
usemtl Green
s off
f 1435 1434 1433 1432 1431
f 1436 1437 1438 1439 1440
f 1431 1432 1437 1436
f 1432 1433 1438 1437
f 1433 1434 1439 1438
f 1434 1435 1440 1439
f 1435 1431 1436 1440
o Berry
v -0.086 1.858 -0.092
v -0.13 1.858 -0.078
v -0.157 1.858 -0.115
v -0.13 1.858 -0.153
v -0.086 1.858 -0.138
v -0.072 1.914 -0.082
v -0.135 1.914 -0.062
v -0.174 1.914 -0.115
v -0.135 1.914 -0.169
v -0.072 1.914 -0.148
usemtl Pink
s off
f 1445 1444 1443 1442 1441
f 1446 1447 1448 1449 1450
f 1441 1442 1447 1446
f 1442 1443 1448 1447
f 1443 1444 1449 1448
f 1444 1445 1450 1449
f 1445 1441 1446 1450
o Berry
v -0.072 1.914 -0.082
v -0.135 1.914 -0.062
v -0.174 1.914 -0.115
v -0.135 1.914 -0.169
v -0.072 1.914 -0.148
v -0.097 1.965 -0.1
v -0.126 1.965 -0.091
v -0.143 1.965 -0.115
v -0.126 1.965 -0.139
v -0.097 1.965 -0.13
usemtl Pink
s off
f 1455 1454 1453 1452 1451
f 1456 1457 1458 1459 1460
f 1451 1452 1457 1456
f 1452 1453 1458 1457
f 1453 1454 1459 1458
f 1454 1455 1460 1459
f 1455 1451 1456 1460
o Berry
v -0.02 1.554 -0.378
v -0.074 1.554 -0.36
v -0.107 1.554 -0.406
v -0.074 1.554 -0.452
v -0.02 1.554 -0.434
v -0.003 1.623 -0.366
v -0.08 1.623 -0.341
v -0.128 1.623 -0.406
v -0.08 1.623 -0.472
v -0.003 1.623 -0.447
usemtl Green
s off
f 1465 1464 1463 1462 1461
f 1466 1467 1468 1469 1470
f 1461 1462 1467 1466
f 1462 1463 1468 1467
f 1463 1464 1469 1468
f 1464 1465 1470 1469
f 1465 1461 1466 1470
o Berry
v -0.003 1.623 -0.366
v -0.08 1.623 -0.341
v -0.128 1.623 -0.406
v -0.08 1.623 -0.472
v -0.003 1.623 -0.447
v -0.034 1.685 -0.388
v -0.069 1.685 -0.377
v -0.09 1.685 -0.406
v -0.069 1.685 -0.436
v -0.034 1.685 -0.424
usemtl Green
s off
f 1475 1474 1473 1472 1471
f 1476 1477 1478 1479 1480
f 1471 1472 1477 1476
f 1472 1473 1478 1477
f 1473 1474 1479 1478
f 1474 1475 1480 1479
f 1475 1471 1476 1480
o Berry.Shine
v -0.08 1.654 -0.379
v -0.08 1.654 -0.354
v -0.052 1.654 -0.354
v -0.052 1.654 -0.379
v -0.08 1.675 -0.379
v -0.08 1.675 -0.354
v -0.052 1.675 -0.354
v -0.052 1.675 -0.379
usemtl Shine
s off
f 1484 1483 1482 1481
f 1485 1486 1487 1488
f 1481 1482 1486 1485
f 1482 1483 1487 1486
f 1483 1484 1488 1487
f 1484 1481 1485 1488
o Berry
v -0.045 1.529 -0.429
v -0.093 1.529 -0.413
v -0.122 1.529 -0.454
v -0.093 1.529 -0.494
v -0.045 1.529 -0.479
v -0.031 1.59 -0.418
v -0.099 1.59 -0.396
v -0.141 1.59 -0.454
v -0.099 1.59 -0.511
v -0.031 1.59 -0.489
usemtl Red
s off
f 1493 1492 1491 1490 1489
f 1494 1495 1496 1497 1498
f 1489 1490 1495 1494
f 1490 1491 1496 1495
f 1491 1492 1497 1496
f 1492 1493 1498 1497
f 1493 1489 1494 1498
o Berry
v -0.031 1.59 -0.418
v -0.099 1.59 -0.396
v -0.141 1.59 -0.454
v -0.099 1.59 -0.511
v -0.031 1.59 -0.489
v -0.058 1.644 -0.437
v -0.088 1.644 -0.428
v -0.107 1.644 -0.454
v -0.088 1.644 -0.48
v -0.058 1.644 -0.47
usemtl Red
s off
f 1503 1502 1501 1500 1499
f 1504 1505 1506 1507 1508
f 1499 1500 1505 1504
f 1500 1501 1506 1505
f 1501 1502 1507 1506
f 1502 1503 1508 1507
f 1503 1499 1504 1508
o Berry
v -0.071 1.454 -0.348
v -0.118 1.454 -0.332
v -0.148 1.454 -0.373
v -0.118 1.454 -0.413
v -0.071 1.454 -0.398
v -0.056 1.515 -0.337
v -0.124 1.515 -0.315
v -0.166 1.515 -0.373
v -0.124 1.515 -0.431
v -0.056 1.515 -0.409
usemtl Red
s off
f 1513 1512 1511 1510 1509
f 1514 1515 1516 1517 1518
f 1509 1510 1515 1514
f 1510 1511 1516 1515
f 1511 1512 1517 1516
f 1512 1513 1518 1517
f 1513 1509 1514 1518
o Berry
v -0.056 1.515 -0.337
v -0.124 1.515 -0.315
v -0.166 1.515 -0.373
v -0.124 1.515 -0.431
v -0.056 1.515 -0.409
v -0.083 1.57 -0.357
v -0.114 1.57 -0.347
v -0.133 1.57 -0.373
v -0.114 1.57 -0.399
v -0.083 1.57 -0.389
usemtl Red
s off
f 1523 1522 1521 1520 1519
f 1524 1525 1526 1527 1528
f 1519 1520 1525 1524
f 1520 1521 1526 1525
f 1521 1522 1527 1526
f 1522 1523 1528 1527
f 1523 1519 1524 1528
o Berry
v 0.012 1.556 -0.39
v -0.034 1.556 -0.375
v -0.063 1.556 -0.414
v -0.034 1.556 -0.454
v 0.012 1.556 -0.439
v 0.027 1.615 -0.379
v -0.04 1.615 -0.358
v -0.08 1.615 -0.414
v -0.04 1.615 -0.47
v 0.027 1.615 -0.449
usemtl Red
s off
f 1533 1532 1531 1530 1529
f 1534 1535 1536 1537 1538
f 1529 1530 1535 1534
f 1530 1531 1536 1535
f 1531 1532 1537 1536
f 1532 1533 1538 1537
f 1533 1529 1534 1538
o Berry
v 0.027 1.615 -0.379
v -0.04 1.615 -0.358
v -0.08 1.615 -0.414
v -0.04 1.615 -0.47
v 0.027 1.615 -0.449
v 0 1.668 -0.399
v -0.029 1.668 -0.389
v -0.048 1.668 -0.414
v -0.029 1.668 -0.44
v 0 1.668 -0.43
usemtl Red
s off
f 1543 1542 1541 1540 1539
f 1544 1545 1546 1547 1548
f 1539 1540 1545 1544
f 1540 1541 1546 1545
f 1541 1542 1547 1546
f 1542 1543 1548 1547
f 1543 1539 1544 1548
o Berry
v -0.183 1.313 0.094
v -0.24 1.313 0.113
v -0.275 1.313 0.065
v -0.24 1.313 0.016
v -0.183 1.313 0.035
v -0.165 1.385 0.107
v -0.246 1.385 0.133
v -0.296 1.385 0.065
v -0.246 1.385 -0.004
v -0.165 1.385 0.022
usemtl Green
s off
f 1553 1552 1551 1550 1549
f 1554 1555 1556 1557 1558
f 1549 1550 1555 1554
f 1550 1551 1556 1555
f 1551 1552 1557 1556
f 1552 1553 1558 1557
f 1553 1549 1554 1558
o Berry
v -0.165 1.385 0.107
v -0.246 1.385 0.133
v -0.296 1.385 0.065
v -0.246 1.385 -0.004
v -0.165 1.385 0.022
v -0.198 1.45 0.084
v -0.234 1.45 0.096
v -0.257 1.45 0.065
v -0.234 1.45 0.034
v -0.198 1.45 0.045
usemtl Green
s off
f 1563 1562 1561 1560 1559
f 1564 1565 1566 1567 1568
f 1559 1560 1565 1564
f 1560 1561 1566 1565
f 1561 1562 1567 1566
f 1562 1563 1568 1567
f 1563 1559 1564 1568
o Berry.Shine
v -0.246 1.418 0.094
v -0.246 1.418 0.119
v -0.217 1.418 0.119
v -0.217 1.418 0.094
v -0.246 1.439 0.094
v -0.246 1.439 0.119
v -0.217 1.439 0.119
v -0.217 1.439 0.094
usemtl Shine
s off
f 1572 1571 1570 1569
f 1573 1574 1575 1576
f 1569 1570 1574 1573
f 1570 1571 1575 1574
f 1571 1572 1576 1575
f 1572 1569 1573 1576
o Berry
v -0.205 1.296 0.185
v -0.262 1.296 0.204
v -0.298 1.296 0.155
v -0.262 1.296 0.107
v -0.205 1.296 0.125
v -0.188 1.369 0.198
v -0.269 1.369 0.225
v -0.32 1.369 0.155
v -0.269 1.369 0.086
v -0.188 1.369 0.112
usemtl Pink
s off
f 1581 1580 1579 1578 1577
f 1582 1583 1584 1585 1586
f 1577 1578 1583 1582
f 1578 1579 1584 1583
f 1579 1580 1585 1584
f 1580 1581 1586 1585
f 1581 1577 1582 1586
o Berry
v -0.188 1.369 0.198
v -0.269 1.369 0.225
v -0.32 1.369 0.155
v -0.269 1.369 0.086
v -0.188 1.369 0.112
v -0.22 1.434 0.175
v -0.257 1.434 0.186
v -0.279 1.434 0.155
v -0.257 1.434 0.124
v -0.22 1.434 0.136
usemtl Pink
s off
f 1591 1590 1589 1588 1587
f 1592 1593 1594 1595 1596
f 1587 1588 1593 1592
f 1588 1589 1594 1593
f 1589 1590 1595 1594
f 1590 1591 1596 1595
f 1591 1587 1592 1596
o Berry
v -0.143 1.186 0.121
v -0.188 1.186 0.136
v -0.216 1.186 0.097
v -0.188 1.186 0.059
v -0.143 1.186 0.074
v -0.129 1.244 0.131
v -0.194 1.244 0.152
v -0.234 1.244 0.097
v -0.194 1.244 0.043
v -0.129 1.244 0.064
usemtl Green
s off
f 1601 1600 1599 1598 1597
f 1602 1603 1604 1605 1606
f 1597 1598 1603 1602
f 1598 1599 1604 1603
f 1599 1600 1605 1604
f 1600 1601 1606 1605
f 1601 1597 1602 1606
o Berry
v -0.129 1.244 0.131
v -0.194 1.244 0.152
v -0.234 1.244 0.097
v -0.194 1.244 0.043
v -0.129 1.244 0.064
v -0.155 1.295 0.113
v -0.184 1.295 0.122
v -0.202 1.295 0.097
v -0.184 1.295 0.073
v -0.155 1.295 0.082
usemtl Green
s off
f 1611 1610 1609 1608 1607
f 1612 1613 1614 1615 1616
f 1607 1608 1613 1612
f 1608 1609 1614 1613
f 1609 1610 1615 1614
f 1610 1611 1616 1615
f 1611 1607 1612 1616
o Berry
v 0.711 1.241 0.288
v 0.655 1.241 0.306
v 0.621 1.241 0.258
v 0.655 1.241 0.211
v 0.711 1.241 0.229
v 0.728 1.312 0.3
v 0.649 1.312 0.326
v 0.599 1.312 0.258
v 0.649 1.312 0.191
v 0.728 1.312 0.216
usemtl Red
s off
f 1621 1620 1619 1618 1617
f 1622 1623 1624 1625 1626
f 1617 1618 1623 1622
f 1618 1619 1624 1623
f 1619 1620 1625 1624
f 1620 1621 1626 1625
f 1621 1617 1622 1626
o Berry
v 0.728 1.312 0.3
v 0.649 1.312 0.326
v 0.599 1.312 0.258
v 0.649 1.312 0.191
v 0.728 1.312 0.216
v 0.696 1.376 0.277
v 0.661 1.376 0.289
v 0.638 1.376 0.258
v 0.661 1.376 0.228
v 0.696 1.376 0.239
usemtl Red
s off
f 1631 1630 1629 1628 1627
f 1632 1633 1634 1635 1636
f 1627 1628 1633 1632
f 1628 1629 1634 1633
f 1629 1630 1635 1634
f 1630 1631 1636 1635
f 1631 1627 1632 1636
o Berry.Shine
v 0.649 1.344 0.287
v 0.649 1.344 0.312
v 0.678 1.344 0.312
v 0.678 1.344 0.287
v 0.649 1.366 0.287
v 0.649 1.366 0.312
v 0.678 1.366 0.312
v 0.678 1.366 0.287
usemtl Shine
s off
f 1640 1639 1638 1637
f 1641 1642 1643 1644
f 1637 1638 1642 1641
f 1638 1639 1643 1642
f 1639 1640 1644 1643
f 1640 1637 1641 1644
o Berry
v 0.645 1.201 0.326
v 0.6 1.201 0.341
v 0.571 1.201 0.302
v 0.6 1.201 0.263
v 0.645 1.201 0.278
v 0.659 1.259 0.336
v 0.594 1.259 0.357
v 0.554 1.259 0.302
v 0.594 1.259 0.246
v 0.659 1.259 0.268
usemtl Green
s off
f 1649 1648 1647 1646 1645
f 1650 1651 1652 1653 1654
f 1645 1646 1651 1650
f 1646 1647 1652 1651
f 1647 1648 1653 1652
f 1648 1649 1654 1653
f 1649 1645 1650 1654
o Berry
v 0.659 1.259 0.336
v 0.594 1.259 0.357
v 0.554 1.259 0.302
v 0.594 1.259 0.246
v 0.659 1.259 0.268
v 0.633 1.312 0.317
v 0.604 1.312 0.327
v 0.586 1.312 0.302
v 0.604 1.312 0.277
v 0.633 1.312 0.286
usemtl Green
s off
f 1659 1658 1657 1656 1655
f 1660 1661 1662 1663 1664
f 1655 1656 1661 1660
f 1656 1657 1662 1661
f 1657 1658 1663 1662
f 1658 1659 1664 1663
f 1659 1655 1660 1664
o Berry
v 0.656 1.174 0.261
v 0.604 1.174 0.278
v 0.572 1.174 0.234
v 0.604 1.174 0.19
v 0.656 1.174 0.207
v 0.672 1.24 0.273
v 0.598 1.24 0.297
v 0.552 1.24 0.234
v 0.598 1.24 0.171
v 0.672 1.24 0.195
usemtl Pink
s off
f 1669 1668 1667 1666 1665
f 1670 1671 1672 1673 1674
f 1665 1666 1671 1670
f 1666 1667 1672 1671
f 1667 1668 1673 1672
f 1668 1669 1674 1673
f 1669 1665 1670 1674
o Berry
v 0.672 1.24 0.273
v 0.598 1.24 0.297
v 0.552 1.24 0.234
v 0.598 1.24 0.171
v 0.672 1.24 0.195
v 0.643 1.3 0.252
v 0.609 1.3 0.263
v 0.589 1.3 0.234
v 0.609 1.3 0.206
v 0.643 1.3 0.217
usemtl Pink
s off
f 1679 1678 1677 1676 1675
f 1680 1681 1682 1683 1684
f 1675 1676 1681 1680
f 1676 1677 1682 1681
f 1677 1678 1683 1682
f 1678 1679 1684 1683
f 1679 1675 1680 1684
o Berry
v 0.65 1.106 0.338
v 0.595 1.106 0.356
v 0.561 1.106 0.309
v 0.595 1.106 0.262
v 0.65 1.106 0.28
v 0.667 1.176 0.35
v 0.589 1.176 0.376
v 0.54 1.176 0.309
v 0.589 1.176 0.242
v 0.667 1.176 0.267
usemtl Green
s off
f 1689 1688 1687 1686 1685
f 1690 1691 1692 1693 1694
f 1685 1686 1691 1690
f 1686 1687 1692 1691
f 1687 1688 1693 1692
f 1688 1689 1694 1693
f 1689 1685 1690 1694
o Berry
v 0.667 1.176 0.35
v 0.589 1.176 0.376
v 0.54 1.176 0.309
v 0.589 1.176 0.242
v 0.667 1.176 0.267
v 0.636 1.239 0.327
v 0.601 1.239 0.339
v 0.579 1.239 0.309
v 0.601 1.239 0.279
v 0.636 1.239 0.29
usemtl Green
s off
f 1699 1698 1697 1696 1695
f 1700 1701 1702 1703 1704
f 1695 1696 1701 1700
f 1696 1697 1702 1701
f 1697 1698 1703 1702
f 1698 1699 1704 1703
f 1699 1695 1700 1704
o Berry
v -0.138 1.207 -0.286
v -0.196 1.207 -0.267
v -0.232 1.207 -0.316
v -0.196 1.207 -0.366
v -0.138 1.207 -0.347
v -0.12 1.281 -0.273
v -0.203 1.281 -0.246
v -0.254 1.281 -0.316
v -0.203 1.281 -0.387
v -0.12 1.281 -0.36
usemtl Pink
s off
f 1709 1708 1707 1706 1705
f 1710 1711 1712 1713 1714
f 1705 1706 1711 1710
f 1706 1707 1712 1711
f 1707 1708 1713 1712
f 1708 1709 1714 1713
f 1709 1705 1710 1714
o Berry
v -0.12 1.281 -0.273
v -0.203 1.281 -0.246
v -0.254 1.281 -0.316
v -0.203 1.281 -0.387
v -0.12 1.281 -0.36
v -0.153 1.347 -0.297
v -0.19 1.347 -0.285
v -0.213 1.347 -0.316
v -0.19 1.347 -0.348
v -0.153 1.347 -0.336
usemtl Pink
s off
f 1719 1718 1717 1716 1715
f 1720 1721 1722 1723 1724
f 1715 1716 1721 1720
f 1716 1717 1722 1721
f 1717 1718 1723 1722
f 1718 1719 1724 1723
f 1719 1715 1720 1724
o Berry.Shine
v -0.202 1.314 -0.287
v -0.202 1.314 -0.261
v -0.173 1.314 -0.261
v -0.173 1.314 -0.287
v -0.202 1.336 -0.287
v -0.202 1.336 -0.261
v -0.173 1.336 -0.261
v -0.173 1.336 -0.287
usemtl Shine
s off
f 1728 1727 1726 1725
f 1729 1730 1731 1732
f 1725 1726 1730 1729
f 1726 1727 1731 1730
f 1727 1728 1732 1731
f 1728 1725 1729 1732
o Berry
v -0.152 1.205 -0.297
v -0.207 1.205 -0.279
v -0.241 1.205 -0.326
v -0.207 1.205 -0.372
v -0.152 1.205 -0.355
v -0.135 1.275 -0.284
v -0.213 1.275 -0.259
v -0.262 1.275 -0.326
v -0.213 1.275 -0.392
v -0.135 1.275 -0.367
usemtl Red
s off
f 1737 1736 1735 1734 1733
f 1738 1739 1740 1741 1742
f 1733 1734 1739 1738
f 1734 1735 1740 1739
f 1735 1736 1741 1740
f 1736 1737 1742 1741
f 1737 1733 1738 1742
o Berry
v -0.135 1.275 -0.284
v -0.213 1.275 -0.259
v -0.262 1.275 -0.326
v -0.213 1.275 -0.392
v -0.135 1.275 -0.367
v -0.166 1.338 -0.307
v -0.201 1.338 -0.296
v -0.223 1.338 -0.326
v -0.201 1.338 -0.356
v -0.166 1.338 -0.344
usemtl Red
s off
f 1747 1746 1745 1744 1743
f 1748 1749 1750 1751 1752
f 1743 1744 1749 1748
f 1744 1745 1750 1749
f 1745 1746 1751 1750
f 1746 1747 1752 1751
f 1747 1743 1748 1752
o Berry
v -0.442 1.324 0.279
v -0.496 1.324 0.296
v -0.53 1.324 0.25
v -0.496 1.324 0.204
v -0.442 1.324 0.221
v -0.425 1.393 0.291
v -0.502 1.393 0.316
v -0.55 1.393 0.25
v -0.502 1.393 0.184
v -0.425 1.393 0.209
usemtl Pink
s off
f 1757 1756 1755 1754 1753
f 1758 1759 1760 1761 1762
f 1753 1754 1759 1758
f 1754 1755 1760 1759
f 1755 1756 1761 1760
f 1756 1757 1762 1761
f 1757 1753 1758 1762
o Berry
v -0.425 1.393 0.291
v -0.502 1.393 0.316
v -0.55 1.393 0.25
v -0.502 1.393 0.184
v -0.425 1.393 0.209
v -0.456 1.456 0.268
v -0.491 1.456 0.28
v -0.512 1.456 0.25
v -0.491 1.456 0.22
v -0.456 1.456 0.232
usemtl Pink
s off
f 1767 1766 1765 1764 1763
f 1768 1769 1770 1771 1772
f 1763 1764 1769 1768
f 1764 1765 1770 1769
f 1765 1766 1771 1770
f 1766 1767 1772 1771
f 1767 1763 1768 1772
o Berry.Shine
v -0.502 1.424 0.278
v -0.502 1.424 0.302
v -0.474 1.424 0.302
v -0.474 1.424 0.278
v -0.502 1.445 0.278
v -0.502 1.445 0.302
v -0.474 1.445 0.302
v -0.474 1.445 0.278
usemtl Shine
s off
f 1776 1775 1774 1773
f 1777 1778 1779 1780
f 1773 1774 1778 1777
f 1774 1775 1779 1778
f 1775 1776 1780 1779
f 1776 1773 1777 1780
o Berry
v -0.387 1.31 0.323
v -0.431 1.31 0.337
v -0.458 1.31 0.3
v -0.431 1.31 0.263
v -0.387 1.31 0.277
v -0.373 1.366 0.333
v -0.436 1.366 0.353
v -0.474 1.366 0.3
v -0.436 1.366 0.247
v -0.373 1.366 0.267
usemtl Pink
s off
f 1785 1784 1783 1782 1781
f 1786 1787 1788 1789 1790
f 1781 1782 1787 1786
f 1782 1783 1788 1787
f 1783 1784 1789 1788
f 1784 1785 1790 1789
f 1785 1781 1786 1790
o Berry
v -0.373 1.366 0.333
v -0.436 1.366 0.353
v -0.474 1.366 0.3
v -0.436 1.366 0.247
v -0.373 1.366 0.267
v -0.398 1.416 0.315
v -0.426 1.416 0.324
v -0.444 1.416 0.3
v -0.426 1.416 0.276
v -0.398 1.416 0.285
usemtl Pink
s off
f 1795 1794 1793 1792 1791
f 1796 1797 1798 1799 1800
f 1791 1792 1797 1796
f 1792 1793 1798 1797
f 1793 1794 1799 1798
f 1794 1795 1800 1799
f 1795 1791 1796 1800
o Berry
v -0.405 1.32 0.29
v -0.455 1.32 0.306
v -0.486 1.32 0.264
v -0.455 1.32 0.222
v -0.405 1.32 0.238
v -0.39 1.384 0.301
v -0.461 1.384 0.324
v -0.505 1.384 0.264
v -0.461 1.384 0.203
v -0.39 1.384 0.227
usemtl Red
s off
f 1805 1804 1803 1802 1801
f 1806 1807 1808 1809 1810
f 1801 1802 1807 1806
f 1802 1803 1808 1807
f 1803 1804 1809 1808
f 1804 1805 1810 1809
f 1805 1801 1806 1810
o Berry
v -0.39 1.384 0.301
v -0.461 1.384 0.324
v -0.505 1.384 0.264
v -0.461 1.384 0.203
v -0.39 1.384 0.227
v -0.418 1.441 0.281
v -0.45 1.441 0.291
v -0.47 1.441 0.264
v -0.45 1.441 0.237
v -0.418 1.441 0.247
usemtl Red
s off
f 1815 1814 1813 1812 1811
f 1816 1817 1818 1819 1820
f 1811 1812 1817 1816
f 1812 1813 1818 1817
f 1813 1814 1819 1818
f 1814 1815 1820 1819
f 1815 1811 1816 1820
o Berry
v -0.498 1.184 0.269
v -0.555 1.184 0.287
v -0.59 1.184 0.239
v -0.555 1.184 0.19
v -0.498 1.184 0.209
v -0.481 1.257 0.281
v -0.562 1.257 0.308
v -0.612 1.257 0.239
v -0.562 1.257 0.169
v -0.481 1.257 0.196
usemtl Pink
s off
f 1825 1824 1823 1822 1821
f 1826 1827 1828 1829 1830
f 1821 1822 1827 1826
f 1822 1823 1828 1827
f 1823 1824 1829 1828
f 1824 1825 1830 1829
f 1825 1821 1826 1830
o Berry
v -0.481 1.257 0.281
v -0.562 1.257 0.308
v -0.612 1.257 0.239
v -0.562 1.257 0.169
v -0.481 1.257 0.196
v -0.513 1.322 0.258
v -0.55 1.322 0.27
v -0.572 1.322 0.239
v -0.55 1.322 0.207
v -0.513 1.322 0.219
usemtl Pink
s off
f 1835 1834 1833 1832 1831
f 1836 1837 1838 1839 1840
f 1831 1832 1837 1836
f 1832 1833 1838 1837
f 1833 1834 1839 1838
f 1834 1835 1840 1839
f 1835 1831 1836 1840
o Berry
v 0.125 1.029 -0.235
v 0.074 1.029 -0.218
v 0.043 1.029 -0.262
v 0.074 1.029 -0.305
v 0.125 1.029 -0.288
v 0.141 1.094 -0.223
v 0.068 1.094 -0.2
v 0.023 1.094 -0.262
v 0.068 1.094 -0.323
v 0.141 1.094 -0.3
usemtl Pink
s off
f 1845 1844 1843 1842 1841
f 1846 1847 1848 1849 1850
f 1841 1842 1847 1846
f 1842 1843 1848 1847
f 1843 1844 1849 1848
f 1844 1845 1850 1849
f 1845 1841 1846 1850
o Berry
v 0.141 1.094 -0.223
v 0.068 1.094 -0.2
v 0.023 1.094 -0.262
v 0.068 1.094 -0.323
v 0.141 1.094 -0.3
v 0.112 1.153 -0.244
v 0.079 1.153 -0.234
v 0.059 1.153 -0.262
v 0.079 1.153 -0.289
v 0.112 1.153 -0.279
usemtl Pink
s off
f 1855 1854 1853 1852 1851
f 1856 1857 1858 1859 1860
f 1851 1852 1857 1856
f 1852 1853 1858 1857
f 1853 1854 1859 1858
f 1854 1855 1860 1859
f 1855 1851 1856 1860
o Berry.Shine
v 0.069 1.123 -0.235
v 0.069 1.123 -0.213
v 0.095 1.123 -0.213
v 0.095 1.123 -0.235
v 0.069 1.143 -0.235
v 0.069 1.143 -0.213
v 0.095 1.143 -0.213
v 0.095 1.143 -0.235
usemtl Shine
s off
f 1864 1863 1862 1861
f 1865 1866 1867 1868
f 1861 1862 1866 1865
f 1862 1863 1867 1866
f 1863 1864 1868 1867
f 1864 1861 1865 1868
o Berry
v 0.103 0.966 -0.334
v 0.057 0.966 -0.319
v 0.028 0.966 -0.359
v 0.057 0.966 -0.398
v 0.103 0.966 -0.383
v 0.118 1.025 -0.324
v 0.052 1.025 -0.302
v 0.011 1.025 -0.359
v 0.052 1.025 -0.415
v 0.118 1.025 -0.393
usemtl Pink
s off
f 1873 1872 1871 1870 1869
f 1874 1875 1876 1877 1878
f 1869 1870 1875 1874
f 1870 1871 1876 1875
f 1871 1872 1877 1876
f 1872 1873 1878 1877
f 1873 1869 1874 1878
o Berry
v 0.118 1.025 -0.324
v 0.052 1.025 -0.302
v 0.011 1.025 -0.359
v 0.052 1.025 -0.415
v 0.118 1.025 -0.393
v 0.091 1.078 -0.343
v 0.062 1.078 -0.333
v 0.043 1.078 -0.359
v 0.062 1.078 -0.384
v 0.091 1.078 -0.374
usemtl Pink
s off
f 1883 1882 1881 1880 1879
f 1884 1885 1886 1887 1888
f 1879 1880 1885 1884
f 1880 1881 1886 1885
f 1881 1882 1887 1886
f 1882 1883 1888 1887
f 1883 1879 1884 1888
o Berry
v 0.215 0.985 -0.289
v 0.163 0.985 -0.272
v 0.131 0.985 -0.317
v 0.163 0.985 -0.361
v 0.215 0.985 -0.344
v 0.231 1.051 -0.278
v 0.157 1.051 -0.254
v 0.111 1.051 -0.317
v 0.157 1.051 -0.38
v 0.231 1.051 -0.356
usemtl Red
s off
f 1893 1892 1891 1890 1889
f 1894 1895 1896 1897 1898
f 1889 1890 1895 1894
f 1890 1891 1896 1895
f 1891 1892 1897 1896
f 1892 1893 1898 1897
f 1893 1889 1894 1898
o Berry
v 0.231 1.051 -0.278
v 0.157 1.051 -0.254
v 0.111 1.051 -0.317
v 0.157 1.051 -0.38
v 0.231 1.051 -0.356
v 0.202 1.111 -0.299
v 0.168 1.111 -0.288
v 0.147 1.111 -0.317
v 0.168 1.111 -0.345
v 0.202 1.111 -0.334
usemtl Red
s off
f 1903 1902 1901 1900 1899
f 1904 1905 1906 1907 1908
f 1899 1900 1905 1904
f 1900 1901 1906 1905
f 1901 1902 1907 1906
f 1902 1903 1908 1907
f 1903 1899 1904 1908
o Berry
v 0.129 1 -0.179
v 0.073 1 -0.161
v 0.039 1 -0.209
v 0.073 1 -0.256
v 0.129 1 -0.238
v 0.146 1.071 -0.167
v 0.067 1.071 -0.141
v 0.017 1.071 -0.209
v 0.067 1.071 -0.277
v 0.146 1.071 -0.251
usemtl Green
s off
f 1913 1912 1911 1910 1909
f 1914 1915 1916 1917 1918
f 1909 1910 1915 1914
f 1910 1911 1916 1915
f 1911 1912 1917 1916
f 1912 1913 1918 1917
f 1913 1909 1914 1918
o Berry
v 0.146 1.071 -0.167
v 0.067 1.071 -0.141
v 0.017 1.071 -0.209
v 0.067 1.071 -0.277
v 0.146 1.071 -0.251
v 0.115 1.135 -0.19
v 0.079 1.135 -0.178
v 0.056 1.135 -0.209
v 0.079 1.135 -0.239
v 0.115 1.135 -0.227
usemtl Green
s off
f 1923 1922 1921 1920 1919
f 1924 1925 1926 1927 1928
f 1919 1920 1925 1924
f 1920 1921 1926 1925
f 1921 1922 1927 1926
f 1922 1923 1928 1927
f 1923 1919 1924 1928
o Berry
v 0.308 1.281 0.379
v 0.26 1.281 0.394
v 0.231 1.281 0.354
v 0.26 1.281 0.313
v 0.308 1.281 0.329
v 0.323 1.342 0.39
v 0.254 1.342 0.412
v 0.212 1.342 0.354
v 0.254 1.342 0.296
v 0.323 1.342 0.318
usemtl Pink
s off
f 1933 1932 1931 1930 1929
f 1934 1935 1936 1937 1938
f 1929 1930 1935 1934
f 1930 1931 1936 1935
f 1931 1932 1937 1936
f 1932 1933 1938 1937
f 1933 1929 1934 1938
o Berry
v 0.323 1.342 0.39
v 0.254 1.342 0.412
v 0.212 1.342 0.354
v 0.254 1.342 0.296
v 0.323 1.342 0.318
v 0.296 1.397 0.37
v 0.265 1.397 0.38
v 0.246 1.397 0.354
v 0.265 1.397 0.328
v 0.296 1.397 0.338
usemtl Pink
s off
f 1943 1942 1941 1940 1939
f 1944 1945 1946 1947 1948
f 1939 1940 1945 1944
f 1940 1941 1946 1945
f 1941 1942 1947 1946
f 1942 1943 1948 1947
f 1943 1939 1944 1948
o Berry.Shine
v 0.255 1.369 0.378
v 0.255 1.369 0.4
v 0.279 1.369 0.4
v 0.279 1.369 0.378
v 0.255 1.388 0.378
v 0.255 1.388 0.4
v 0.279 1.388 0.4
v 0.279 1.388 0.378
usemtl Shine
s off
f 1952 1951 1950 1949
f 1953 1954 1955 1956
f 1949 1950 1954 1953
f 1950 1951 1955 1954
f 1951 1952 1956 1955
f 1952 1949 1953 1956
o Berry
v 0.218 1.273 0.428
v 0.169 1.273 0.443
v 0.139 1.273 0.402
v 0.169 1.273 0.361
v 0.218 1.273 0.376
v 0.233 1.335 0.439
v 0.164 1.335 0.461
v 0.121 1.335 0.402
v 0.164 1.335 0.343
v 0.233 1.335 0.366
usemtl Pink
s off
f 1961 1960 1959 1958 1957
f 1962 1963 1964 1965 1966
f 1957 1958 1963 1962
f 1958 1959 1964 1963
f 1959 1960 1965 1964
f 1960 1961 1966 1965
f 1961 1957 1962 1966
o Berry
v 0.233 1.335 0.439
v 0.164 1.335 0.461
v 0.121 1.335 0.402
v 0.164 1.335 0.343
v 0.233 1.335 0.366
v 0.205 1.391 0.418
v 0.174 1.391 0.429
v 0.155 1.391 0.402
v 0.174 1.391 0.375
v 0.205 1.391 0.386
usemtl Pink
s off
f 1971 1970 1969 1968 1967
f 1972 1973 1974 1975 1976
f 1967 1968 1973 1972
f 1968 1969 1974 1973
f 1969 1970 1975 1974
f 1970 1971 1976 1975
f 1971 1967 1972 1976
o Berry
v 0.408 1.188 0.34
v 0.355 1.188 0.357
v 0.322 1.188 0.312
v 0.355 1.188 0.266
v 0.408 1.188 0.284
v 0.425 1.256 0.352
v 0.349 1.256 0.377
v 0.301 1.256 0.312
v 0.349 1.256 0.247
v 0.425 1.256 0.272
usemtl Pink
s off
f 1981 1980 1979 1978 1977
f 1982 1983 1984 1985 1986
f 1977 1978 1983 1982
f 1978 1979 1984 1983
f 1979 1980 1985 1984
f 1980 1981 1986 1985
f 1981 1977 1982 1986
o Berry
v 0.425 1.256 0.352
v 0.349 1.256 0.377
v 0.301 1.256 0.312
v 0.349 1.256 0.247
v 0.425 1.256 0.272
v 0.394 1.317 0.33
v 0.36 1.317 0.341
v 0.339 1.317 0.312
v 0.36 1.317 0.283
v 0.394 1.317 0.294
usemtl Pink
s off
f 1991 1990 1989 1988 1987
f 1992 1993 1994 1995 1996
f 1987 1988 1993 1992
f 1988 1989 1994 1993
f 1989 1990 1995 1994
f 1990 1991 1996 1995
f 1991 1987 1992 1996
o Berry
v 0.255 1.196 0.377
v 0.203 1.196 0.394
v 0.172 1.196 0.35
v 0.203 1.196 0.306
v 0.255 1.196 0.323
v 0.271 1.261 0.389
v 0.197 1.261 0.412
v 0.152 1.261 0.35
v 0.197 1.261 0.288
v 0.271 1.261 0.312
usemtl Pink
s off
f 2001 2000 1999 1998 1997
f 2002 2003 2004 2005 2006
f 1997 1998 2003 2002
f 1998 1999 2004 2003
f 1999 2000 2005 2004
f 2000 2001 2006 2005
f 2001 1997 2002 2006
o Berry
v 0.271 1.261 0.389
v 0.197 1.261 0.412
v 0.152 1.261 0.35
v 0.197 1.261 0.288
v 0.271 1.261 0.312
v 0.241 1.32 0.367
v 0.208 1.32 0.378
v 0.188 1.32 0.35
v 0.208 1.32 0.322
v 0.241 1.32 0.333
usemtl Pink
s off
f 2011 2010 2009 2008 2007
f 2012 2013 2014 2015 2016
f 2007 2008 2013 2012
f 2008 2009 2014 2013
f 2009 2010 2015 2014
f 2010 2011 2016 2015
f 2011 2007 2012 2016
o Berry
v -0.514 1.107 0.576
v -0.565 1.107 0.593
v -0.597 1.107 0.549
v -0.565 1.107 0.505
v -0.514 1.107 0.522
v -0.498 1.172 0.587
v -0.572 1.172 0.611
v -0.617 1.172 0.549
v -0.572 1.172 0.487
v -0.498 1.172 0.51
usemtl Pink
s off
f 2021 2020 2019 2018 2017
f 2022 2023 2024 2025 2026
f 2017 2018 2023 2022
f 2018 2019 2024 2023
f 2019 2020 2025 2024
f 2020 2021 2026 2025
f 2021 2017 2022 2026
o Berry
v -0.498 1.172 0.587
v -0.572 1.172 0.611
v -0.617 1.172 0.549
v -0.572 1.172 0.487
v -0.498 1.172 0.51
v -0.527 1.231 0.566
v -0.56 1.231 0.577
v -0.581 1.231 0.549
v -0.56 1.231 0.521
v -0.527 1.231 0.532
usemtl Pink
s off
f 2031 2030 2029 2028 2027
f 2032 2033 2034 2035 2036
f 2027 2028 2033 2032
f 2028 2029 2034 2033
f 2029 2030 2035 2034
f 2030 2031 2036 2035
f 2031 2027 2032 2036
o Berry.Shine
v -0.571 1.202 0.575
v -0.571 1.202 0.598
v -0.545 1.202 0.598
v -0.545 1.202 0.575
v -0.571 1.221 0.575
v -0.571 1.221 0.598
v -0.545 1.221 0.598
v -0.545 1.221 0.575
usemtl Shine
s off
f 2040 2039 2038 2037
f 2041 2042 2043 2044
f 2037 2038 2042 2041
f 2038 2039 2043 2042
f 2039 2040 2044 2043
f 2040 2037 2041 2044
o Berry
v -0.558 1.109 0.56
v -0.603 1.109 0.574
v -0.63 1.109 0.536
v -0.603 1.109 0.498
v -0.558 1.109 0.512
v -0.544 1.167 0.57
v -0.608 1.167 0.591
v -0.648 1.167 0.536
v -0.608 1.167 0.481
v -0.544 1.167 0.502
usemtl Pink
s off
f 2049 2048 2047 2046 2045
f 2050 2051 2052 2053 2054
f 2045 2046 2051 2050
f 2046 2047 2052 2051
f 2047 2048 2053 2052
f 2048 2049 2054 2053
f 2049 2045 2050 2054
o Berry
v -0.544 1.167 0.57
v -0.608 1.167 0.591
v -0.648 1.167 0.536
v -0.608 1.167 0.481
v -0.544 1.167 0.502
v -0.569 1.218 0.551
v -0.598 1.218 0.561
v -0.616 1.218 0.536
v -0.598 1.218 0.511
v -0.569 1.218 0.521
usemtl Pink
s off
f 2059 2058 2057 2056 2055
f 2060 2061 2062 2063 2064
f 2055 2056 2061 2060
f 2056 2057 2062 2061
f 2057 2058 2063 2062
f 2058 2059 2064 2063
f 2059 2055 2060 2064
o Berry
v 0.107 1.301 0.34
v 0.062 1.301 0.355
v 0.035 1.301 0.317
v 0.062 1.301 0.279
v 0.107 1.301 0.294
v 0.12 1.358 0.35
v 0.057 1.358 0.371
v 0.018 1.358 0.317
v 0.057 1.358 0.263
v 0.12 1.358 0.284
usemtl Red
s off
f 2069 2068 2067 2066 2065
f 2070 2071 2072 2073 2074
f 2065 2066 2071 2070
f 2066 2067 2072 2071
f 2067 2068 2073 2072
f 2068 2069 2074 2073
f 2069 2065 2070 2074
o Berry
v 0.12 1.358 0.35
v 0.057 1.358 0.371
v 0.018 1.358 0.317
v 0.057 1.358 0.263
v 0.12 1.358 0.284
v 0.095 1.409 0.332
v 0.066 1.409 0.341
v 0.049 1.409 0.317
v 0.066 1.409 0.293
v 0.095 1.409 0.302
usemtl Red
s off
f 2079 2078 2077 2076 2075
f 2080 2081 2082 2083 2084
f 2075 2076 2081 2080
f 2076 2077 2082 2081
f 2077 2078 2083 2082
f 2078 2079 2084 2083
f 2079 2075 2080 2084
o Berry.Shine
v 0.057 1.384 0.34
v 0.057 1.384 0.36
v 0.08 1.384 0.36
v 0.08 1.384 0.34
v 0.057 1.401 0.34
v 0.057 1.401 0.36
v 0.08 1.401 0.36
v 0.08 1.401 0.34
usemtl Shine
s off
f 2088 2087 2086 2085
f 2089 2090 2091 2092
f 2085 2086 2090 2089
f 2086 2087 2091 2090
f 2087 2088 2092 2091
f 2088 2085 2089 2092
o Berry
v 0.023 1.264 0.373
v -0.027 1.264 0.39
v -0.059 1.264 0.347
v -0.027 1.264 0.304
v 0.023 1.264 0.32
v 0.039 1.329 0.385
v -0.033 1.329 0.408
v -0.078 1.329 0.347
v -0.033 1.329 0.285
v 0.039 1.329 0.309
usemtl Pink
s off
f 2097 2096 2095 2094 2093
f 2098 2099 2100 2101 2102
f 2093 2094 2099 2098
f 2094 2095 2100 2099
f 2095 2096 2101 2100
f 2096 2097 2102 2101
f 2097 2093 2098 2102
o Berry
v 0.039 1.329 0.385
v -0.033 1.329 0.408
v -0.078 1.329 0.347
v -0.033 1.329 0.285
v 0.039 1.329 0.309
v 0.01 1.387 0.364
v -0.022 1.387 0.374
v -0.042 1.387 0.347
v -0.022 1.387 0.319
v 0.01 1.387 0.33
usemtl Pink
s off
f 2107 2106 2105 2104 2103
f 2108 2109 2110 2111 2112
f 2103 2104 2109 2108
f 2104 2105 2110 2109
f 2105 2106 2111 2110
f 2106 2107 2112 2111
f 2107 2103 2108 2112
o Berry
v 0.069 1.197 -0.259
v 0.023 1.197 -0.244
v -0.006 1.197 -0.284
v 0.023 1.197 -0.324
v 0.069 1.197 -0.308
v 0.084 1.256 -0.249
v 0.017 1.256 -0.227
v -0.024 1.256 -0.284
v 0.017 1.256 -0.341
v 0.084 1.256 -0.319
usemtl Pink
s off
f 2117 2116 2115 2114 2113
f 2118 2119 2120 2121 2122
f 2113 2114 2119 2118
f 2114 2115 2120 2119
f 2115 2116 2121 2120
f 2116 2117 2122 2121
f 2117 2113 2118 2122
o Berry
v 0.084 1.256 -0.249
v 0.017 1.256 -0.227
v -0.024 1.256 -0.284
v 0.017 1.256 -0.341
v 0.084 1.256 -0.319
v 0.057 1.31 -0.268
v 0.027 1.31 -0.258
v 0.009 1.31 -0.284
v 0.027 1.31 -0.309
v 0.057 1.31 -0.3
usemtl Pink
s off
f 2127 2126 2125 2124 2123
f 2128 2129 2130 2131 2132
f 2123 2124 2129 2128
f 2124 2125 2130 2129
f 2125 2126 2131 2130
f 2126 2127 2132 2131
f 2127 2123 2128 2132
o Berry.Shine
v 0.018 1.283 -0.26
v 0.018 1.283 -0.239
v 0.042 1.283 -0.239
v 0.042 1.283 -0.26
v 0.018 1.301 -0.26
v 0.018 1.301 -0.239
v 0.042 1.301 -0.239
v 0.042 1.301 -0.26
usemtl Shine
s off
f 2136 2135 2134 2133
f 2137 2138 2139 2140
f 2133 2134 2138 2137
f 2134 2135 2139 2138
f 2135 2136 2140 2139
f 2136 2133 2137 2140
o Berry
v 0.06 1.086 -0.325
v 0.016 1.086 -0.31
v -0.011 1.086 -0.348
v 0.016 1.086 -0.385
v 0.06 1.086 -0.371
v 0.074 1.142 -0.315
v 0.011 1.142 -0.294
v -0.028 1.142 -0.348
v 0.011 1.142 -0.401
v 0.074 1.142 -0.381
usemtl Red
s off
f 2145 2144 2143 2142 2141
f 2146 2147 2148 2149 2150
f 2141 2142 2147 2146
f 2142 2143 2148 2147
f 2143 2144 2149 2148
f 2144 2145 2150 2149
f 2145 2141 2146 2150
o Berry
v 0.074 1.142 -0.315
v 0.011 1.142 -0.294
v -0.028 1.142 -0.348
v 0.011 1.142 -0.401
v 0.074 1.142 -0.381
v 0.049 1.193 -0.333
v 0.02 1.193 -0.324
v 0.003 1.193 -0.348
v 0.02 1.193 -0.372
v 0.049 1.193 -0.363
usemtl Red
s off
f 2155 2154 2153 2152 2151
f 2156 2157 2158 2159 2160
f 2151 2152 2157 2156
f 2152 2153 2158 2157
f 2153 2154 2159 2158
f 2154 2155 2160 2159
f 2155 2151 2156 2160
o Berry
v 0.106 1.107 -0.331
v 0.056 1.107 -0.315
v 0.024 1.107 -0.358
v 0.056 1.107 -0.401
v 0.106 1.107 -0.384
v 0.122 1.171 -0.32
v 0.05 1.171 -0.297
v 0.005 1.171 -0.358
v 0.05 1.171 -0.419
v 0.122 1.171 -0.396
usemtl Pink
s off
f 2165 2164 2163 2162 2161
f 2166 2167 2168 2169 2170
f 2161 2162 2167 2166
f 2162 2163 2168 2167
f 2163 2164 2169 2168
f 2164 2165 2170 2169
f 2165 2161 2166 2170
o Berry
v 0.122 1.171 -0.32
v 0.05 1.171 -0.297
v 0.005 1.171 -0.358
v 0.05 1.171 -0.419
v 0.122 1.171 -0.396
v 0.093 1.229 -0.341
v 0.061 1.229 -0.33
v 0.041 1.229 -0.358
v 0.061 1.229 -0.386
v 0.093 1.229 -0.375
usemtl Pink
s off
f 2175 2174 2173 2172 2171
f 2176 2177 2178 2179 2180
f 2171 2172 2177 2176
f 2172 2173 2178 2177
f 2173 2174 2179 2178
f 2174 2175 2180 2179
f 2175 2171 2176 2180
o Berry
v 0.125 1.112 -0.257
v 0.08 1.112 -0.242
v 0.051 1.112 -0.281
v 0.08 1.112 -0.32
v 0.125 1.112 -0.305
v 0.14 1.171 -0.247
v 0.074 1.171 -0.226
v 0.034 1.171 -0.281
v 0.074 1.171 -0.337
v 0.14 1.171 -0.316
usemtl Pink
s off
f 2185 2184 2183 2182 2181
f 2186 2187 2188 2189 2190
f 2181 2182 2187 2186
f 2182 2183 2188 2187
f 2183 2184 2189 2188
f 2184 2185 2190 2189
f 2185 2181 2186 2190
o Berry
v 0.14 1.171 -0.247
v 0.074 1.171 -0.226
v 0.034 1.171 -0.281
v 0.074 1.171 -0.337
v 0.14 1.171 -0.316
v 0.114 1.223 -0.266
v 0.084 1.223 -0.256
v 0.066 1.223 -0.281
v 0.084 1.223 -0.306
v 0.114 1.223 -0.297
usemtl Pink
s off
f 2195 2194 2193 2192 2191
f 2196 2197 2198 2199 2200
f 2191 2192 2197 2196
f 2192 2193 2198 2197
f 2193 2194 2199 2198
f 2194 2195 2200 2199
f 2195 2191 2196 2200
o Berry
v -0.167 1.223 0.393
v -0.212 1.223 0.408
v -0.24 1.223 0.369
v -0.212 1.223 0.331
v -0.167 1.223 0.346
v -0.153 1.281 0.403
v -0.217 1.281 0.424
v -0.257 1.281 0.369
v -0.217 1.281 0.315
v -0.153 1.281 0.335
usemtl Pink
s off
f 2205 2204 2203 2202 2201
f 2206 2207 2208 2209 2210
f 2201 2202 2207 2206
f 2202 2203 2208 2207
f 2203 2204 2209 2208
f 2204 2205 2210 2209
f 2205 2201 2206 2210
o Berry
v -0.153 1.281 0.403
v -0.217 1.281 0.424
v -0.257 1.281 0.369
v -0.217 1.281 0.315
v -0.153 1.281 0.335
v -0.178 1.332 0.385
v -0.207 1.332 0.394
v -0.225 1.332 0.369
v -0.207 1.332 0.345
v -0.178 1.332 0.354
usemtl Pink
s off
f 2215 2214 2213 2212 2211
f 2216 2217 2218 2219 2220
f 2211 2212 2217 2216
f 2212 2213 2218 2217
f 2213 2214 2219 2218
f 2214 2215 2220 2219
f 2215 2211 2216 2220
o Berry.Shine
v -0.217 1.307 0.392
v -0.217 1.307 0.413
v -0.194 1.307 0.413
v -0.194 1.307 0.392
v -0.217 1.324 0.392
v -0.217 1.324 0.413
v -0.194 1.324 0.413
v -0.194 1.324 0.392
usemtl Shine
s off
f 2224 2223 2222 2221
f 2225 2226 2227 2228
f 2221 2222 2226 2225
f 2222 2223 2227 2226
f 2223 2224 2228 2227
f 2224 2221 2225 2228
o Berry
v -0.23 1.16 0.32
v -0.276 1.16 0.335
v -0.305 1.16 0.296
v -0.276 1.16 0.257
v -0.23 1.16 0.272
v -0.216 1.219 0.33
v -0.282 1.219 0.352
v -0.322 1.219 0.296
v -0.282 1.219 0.24
v -0.216 1.219 0.261
usemtl Red
s off
f 2233 2232 2231 2230 2229
f 2234 2235 2236 2237 2238
f 2229 2230 2235 2234
f 2230 2231 2236 2235
f 2231 2232 2237 2236
f 2232 2233 2238 2237
f 2233 2229 2234 2238
o Berry
v -0.216 1.219 0.33
v -0.282 1.219 0.352
v -0.322 1.219 0.296
v -0.282 1.219 0.24
v -0.216 1.219 0.261
v -0.242 1.272 0.311
v -0.272 1.272 0.321
v -0.29 1.272 0.296
v -0.272 1.272 0.271
v -0.242 1.272 0.28
usemtl Red
s off
f 2243 2242 2241 2240 2239
f 2244 2245 2246 2247 2248
f 2239 2240 2245 2244
f 2240 2241 2246 2245
f 2241 2242 2247 2246
f 2242 2243 2248 2247
f 2243 2239 2244 2248
o Berry
v -0.2 -0.005 -0.642
v -0.239 -0.005 -0.629
v -0.264 -0.005 -0.663
v -0.239 -0.005 -0.696
v -0.2 -0.005 -0.683
v -0.188 0.045 -0.633
v -0.244 0.045 -0.615
v -0.279 0.045 -0.663
v -0.244 0.045 -0.71
v -0.188 0.045 -0.692
usemtl Pink
s off
f 2253 2252 2251 2250 2249
f 2254 2255 2256 2257 2258
f 2249 2250 2255 2254
f 2250 2251 2256 2255
f 2251 2252 2257 2256
f 2252 2253 2258 2257
f 2253 2249 2254 2258
o Berry
v -0.188 0.045 -0.633
v -0.244 0.045 -0.615
v -0.279 0.045 -0.663
v -0.244 0.045 -0.71
v -0.188 0.045 -0.692
v -0.21 0.09 -0.649
v -0.235 0.09 -0.641
v -0.251 0.09 -0.663
v -0.235 0.09 -0.684
v -0.21 0.09 -0.676
usemtl Pink
s off
f 2263 2262 2261 2260 2259
f 2264 2265 2266 2267 2268
f 2259 2260 2265 2264
f 2260 2261 2266 2265
f 2261 2262 2267 2266
f 2262 2263 2268 2267
f 2263 2259 2264 2268
o Berry
v -0.229 -0.005 -0.621
v -0.268 -0.005 -0.609
v -0.292 -0.005 -0.642
v -0.268 -0.005 -0.675
v -0.229 -0.005 -0.663
v -0.217 0.045 -0.613
v -0.273 0.045 -0.594
v -0.307 0.045 -0.642
v -0.273 0.045 -0.69
v -0.217 0.045 -0.671
usemtl Red
s off
f 2273 2272 2271 2270 2269
f 2274 2275 2276 2277 2278
f 2269 2270 2275 2274
f 2270 2271 2276 2275
f 2271 2272 2277 2276
f 2272 2273 2278 2277
f 2273 2269 2274 2278
o Berry
v -0.217 0.045 -0.613
v -0.273 0.045 -0.594
v -0.307 0.045 -0.642
v -0.273 0.045 -0.69
v -0.217 0.045 -0.671
v -0.239 0.09 -0.629
v -0.264 0.09 -0.621
v -0.28 0.09 -0.642
v -0.264 0.09 -0.663
v -0.239 0.09 -0.655
usemtl Red
s off
f 2283 2282 2281 2280 2279
f 2284 2285 2286 2287 2288
f 2279 2280 2285 2284
f 2280 2281 2286 2285
f 2281 2282 2287 2286
f 2282 2283 2288 2287
f 2283 2279 2284 2288
o Fallen.Leaf
v -0.079 0 -0.707
v 0.002 0 -0.677
v -0.017 0 -0.62
v -0.11 0 -0.614
v -0.149 0 -0.667
v -0.079 0.015 -0.707
v 0.002 0.015 -0.677
v -0.017 0.015 -0.62
v -0.11 0.015 -0.614
v -0.149 0.015 -0.667
usemtl LeafDry
s off
f 2293 2292 2291 2290 2289
f 2294 2295 2296 2297 2298
f 2289 2290 2295 2294
f 2290 2291 2296 2295
f 2291 2292 2297 2296
f 2292 2293 2298 2297
f 2293 2289 2294 2298
o Berry
v 0.518 -0.005 -0.057
v 0.479 -0.005 -0.044
v 0.455 -0.005 -0.077
v 0.479 -0.005 -0.111
v 0.518 -0.005 -0.098
v 0.53 0.045 -0.048
v 0.474 0.045 -0.03
v 0.44 0.045 -0.077
v 0.474 0.045 -0.125
v 0.53 0.045 -0.107
usemtl Red
s off
f 2303 2302 2301 2300 2299
f 2304 2305 2306 2307 2308
f 2299 2300 2305 2304
f 2300 2301 2306 2305
f 2301 2302 2307 2306
f 2302 2303 2308 2307
f 2303 2299 2304 2308
o Berry
v 0.53 0.045 -0.048
v 0.474 0.045 -0.03
v 0.44 0.045 -0.077
v 0.474 0.045 -0.125
v 0.53 0.045 -0.107
v 0.508 0.09 -0.064
v 0.483 0.09 -0.056
v 0.467 0.09 -0.077
v 0.483 0.09 -0.099
v 0.508 0.09 -0.091
usemtl Red
s off
f 2313 2312 2311 2310 2309
f 2314 2315 2316 2317 2318
f 2309 2310 2315 2314
f 2310 2311 2316 2315
f 2311 2312 2317 2316
f 2312 2313 2318 2317
f 2313 2309 2314 2318
o Berry
v -0.667 -0.005 0.281
v -0.706 -0.005 0.294
v -0.731 -0.005 0.26
v -0.706 -0.005 0.227
v -0.667 -0.005 0.24
v -0.655 0.045 0.29
v -0.711 0.045 0.308
v -0.746 0.045 0.26
v -0.711 0.045 0.213
v -0.655 0.045 0.231
usemtl Pink
s off
f 2323 2322 2321 2320 2319
f 2324 2325 2326 2327 2328
f 2319 2320 2325 2324
f 2320 2321 2326 2325
f 2321 2322 2327 2326
f 2322 2323 2328 2327
f 2323 2319 2324 2328
o Berry
v -0.655 0.045 0.29
v -0.711 0.045 0.308
v -0.746 0.045 0.26
v -0.711 0.045 0.213
v -0.655 0.045 0.231
v -0.677 0.09 0.273
v -0.702 0.09 0.282
v -0.718 0.09 0.26
v -0.702 0.09 0.239
v -0.677 0.09 0.247
usemtl Pink
s off
f 2333 2332 2331 2330 2329
f 2334 2335 2336 2337 2338
f 2329 2330 2335 2334
f 2330 2331 2336 2335
f 2331 2332 2337 2336
f 2332 2333 2338 2337
f 2333 2329 2334 2338
