# boar.obj - Wildschwein, Blickrichtung +z (tools/models/animals.mjs)
mtllib boar.mtl
o Body
v 0 0.32 -0.14
v 0.095 0.351 -0.14
v 0.082 0.351 -0.015
v 0.048 0.351 0.077
v 0 0.351 0.11
v -0.047 0.351 0.077
v -0.082 0.351 -0.015
v -0.095 0.351 -0.14
v -0.082 0.351 -0.265
v -0.048 0.351 -0.357
v 0 0.351 -0.39
v 0.048 0.351 -0.357
v 0.082 0.351 -0.265
v 0.165 0.435 -0.14
v 0.143 0.435 0.077
v 0.082 0.435 0.235
v 0 0.435 0.293
v -0.082 0.435 0.235
v -0.143 0.435 0.077
v -0.165 0.435 -0.14
v -0.143 0.435 -0.357
v -0.082 0.435 -0.515
v 0 0.435 -0.573
v 0.082 0.435 -0.515
v 0.142 0.435 -0.357
v 0.19 0.55 -0.14
v 0.165 0.55 0.11
v 0.095 0.55 0.293
v 0 0.55 0.36
v -0.095 0.55 0.293
v -0.165 0.55 0.11
v -0.19 0.55 -0.14
v -0.165 0.55 -0.39
v -0.095 0.55 -0.573
v 0 0.55 -0.64
v 0.095 0.55 -0.573
v 0.165 0.55 -0.39
v 0.165 0.665 -0.14
v 0.143 0.665 0.077
v 0.082 0.665 0.235
v 0 0.665 0.293
v -0.082 0.665 0.235
v -0.143 0.665 0.077
v -0.165 0.665 -0.14
v -0.143 0.665 -0.357
v -0.082 0.665 -0.515
v 0 0.665 -0.573
v 0.082 0.665 -0.515
v 0.142 0.665 -0.357
v 0.095 0.749 -0.14
v 0.082 0.749 -0.015
v 0.048 0.749 0.077
v 0 0.749 0.11
v -0.047 0.749 0.077
v -0.082 0.749 -0.015
v -0.095 0.749 -0.14
v -0.082 0.749 -0.265
v -0.048 0.749 -0.357
v 0 0.749 -0.39
v 0.048 0.749 -0.357
v 0.082 0.749 -0.265
v 0 0.78 -0.14
usemtl Boar
s off
f 1 3 2
f 2 3 15 14
f 14 15 27 26
f 26 27 39 38
f 38 39 51 50
f 50 51 62
f 1 4 3
f 3 4 16 15
f 15 16 28 27
f 27 28 40 39
f 39 40 52 51
f 51 52 62
f 1 5 4
f 4 5 17 16
f 16 17 29 28
f 28 29 41 40
f 40 41 53 52
f 52 53 62
f 1 6 5
f 5 6 18 17
f 17 18 30 29
f 29 30 42 41
f 41 42 54 53
f 53 54 62
f 1 7 6
f 6 7 19 18
f 18 19 31 30
f 30 31 43 42
f 42 43 55 54
f 54 55 62
f 1 8 7
f 7 8 20 19
f 19 20 32 31
f 31 32 44 43
f 43 44 56 55
f 55 56 62
f 1 9 8
f 8 9 21 20
f 20 21 33 32
f 32 33 45 44
f 44 45 57 56
f 56 57 62
f 1 10 9
f 9 10 22 21
f 21 22 34 33
f 33 34 46 45
f 45 46 58 57
f 57 58 62
f 1 11 10
f 10 11 23 22
f 22 23 35 34
f 34 35 47 46
f 46 47 59 58
f 58 59 62
f 1 12 11
f 11 12 24 23
f 23 24 36 35
f 35 36 48 47
f 47 48 60 59
f 59 60 62
f 1 13 12
f 12 13 25 24
f 24 25 37 36
f 36 37 49 48
f 48 49 61 60
f 60 61 62
f 1 2 13
f 13 2 14 25
f 25 14 26 37
f 37 26 38 49
f 49 38 50 61
f 61 50 62
o Body.Shoulder
v 0 0.34 0.16
v 0.1 0.375 0.16
v 0.081 0.375 0.242
v 0.031 0.375 0.293
v -0.031 0.375 0.293
v -0.081 0.375 0.242
v -0.1 0.375 0.16
v -0.081 0.375 0.078
v -0.031 0.375 0.027
v 0.031 0.375 0.027
v 0.081 0.375 0.078
v 0.173 0.47 0.16
v 0.14 0.47 0.303
v 0.054 0.47 0.391
v -0.054 0.47 0.391
v -0.14 0.47 0.303
v -0.173 0.47 0.16
v -0.14 0.47 0.017
v -0.054 0.47 -0.071
v 0.054 0.47 -0.071
v 0.14 0.47 0.017
v 0.2 0.6 0.16
v 0.162 0.6 0.325
v 0.062 0.6 0.426
v -0.062 0.6 0.426
v -0.162 0.6 0.325
v -0.2 0.6 0.16
v -0.162 0.6 -0.005
v -0.062 0.6 -0.106
v 0.062 0.6 -0.106
v 0.162 0.6 -0.005
v 0.173 0.73 0.16
v 0.14 0.73 0.303
v 0.054 0.73 0.391
v -0.054 0.73 0.391
v -0.14 0.73 0.303
v -0.173 0.73 0.16
v -0.14 0.73 0.017
v -0.054 0.73 -0.071
v 0.054 0.73 -0.071
v 0.14 0.73 0.017
v 0.1 0.825 0.16
v 0.081 0.825 0.242
v 0.031 0.825 0.293
v -0.031 0.825 0.293
v -0.081 0.825 0.242
v -0.1 0.825 0.16
v -0.081 0.825 0.078
v -0.031 0.825 0.027
v 0.031 0.825 0.027
v 0.081 0.825 0.078
v 0 0.86 0.16
usemtl Boar
s off
f 63 65 64
f 64 65 75 74
f 74 75 85 84
f 84 85 95 94
f 94 95 105 104
f 104 105 114
f 63 66 65
f 65 66 76 75
f 75 76 86 85
f 85 86 96 95
f 95 96 106 105
f 105 106 114
f 63 67 66
f 66 67 77 76
f 76 77 87 86
f 86 87 97 96
f 96 97 107 106
f 106 107 114
f 63 68 67
f 67 68 78 77
f 77 78 88 87
f 87 88 98 97
f 97 98 108 107
f 107 108 114
f 63 69 68
f 68 69 79 78
f 78 79 89 88
f 88 89 99 98
f 98 99 109 108
f 108 109 114
f 63 70 69
f 69 70 80 79
f 79 80 90 89
f 89 90 100 99
f 99 100 110 109
f 109 110 114
f 63 71 70
f 70 71 81 80
f 80 81 91 90
f 90 91 101 100
f 100 101 111 110
f 110 111 114
f 63 72 71
f 71 72 82 81
f 81 82 92 91
f 91 92 102 101
f 101 102 112 111
f 111 112 114
f 63 73 72
f 72 73 83 82
f 82 83 93 92
f 92 93 103 102
f 102 103 113 112
f 112 113 114
f 63 64 73
f 73 64 74 83
f 83 74 84 93
f 93 84 94 103
f 103 94 104 113
f 113 104 114
o Body.Mane
v 0 0.26 -0.02
v 0.025 0.3 -0.02
v 0.018 0.3 0.128
v 0 0.3 0.19
v -0.018 0.3 0.128
v -0.025 0.3 -0.02
v -0.018 0.3 -0.168
v 0 0.3 -0.23
v 0.018 0.3 -0.168
v 0.043 0.41 -0.02
v 0.031 0.41 0.237
v 0 0.41 0.344
v -0.031 0.41 0.237
v -0.043 0.41 -0.02
v -0.031 0.41 -0.277
v 0 0.41 -0.384
v 0.031 0.41 -0.277
v 0.05 0.56 -0.02
v 0.035 0.56 0.277
v 0 0.56 0.4
v -0.035 0.56 0.277
v -0.05 0.56 -0.02
v -0.035 0.56 -0.317
v 0 0.56 -0.44
v 0.035 0.56 -0.317
v 0.043 0.71 -0.02
v 0.031 0.71 0.237
v 0 0.71 0.344
v -0.031 0.71 0.237
v -0.043 0.71 -0.02
v -0.031 0.71 -0.277
v 0 0.71 -0.384
v 0.031 0.71 -0.277
v 0.025 0.82 -0.02
v 0.018 0.82 0.128
v 0 0.82 0.19
v -0.018 0.82 0.128
v -0.025 0.82 -0.02
v -0.018 0.82 -0.168
v 0 0.82 -0.23
v 0.018 0.82 -0.168
v 0 0.86 -0.02
usemtl BoarDark
s off
f 115 117 116
f 116 117 125 124
f 124 125 133 132
f 132 133 141 140
f 140 141 149 148
f 148 149 156
f 115 118 117
f 117 118 126 125
f 125 126 134 133
f 133 134 142 141
f 141 142 150 149
f 149 150 156
f 115 119 118
f 118 119 127 126
f 126 127 135 134
f 134 135 143 142
f 142 143 151 150
f 150 151 156
f 115 120 119
f 119 120 128 127
f 127 128 136 135
f 135 136 144 143
f 143 144 152 151
f 151 152 156
f 115 121 120
f 120 121 129 128
f 128 129 137 136
f 136 137 145 144
f 144 145 153 152
f 152 153 156
f 115 122 121
f 121 122 130 129
f 129 130 138 137
f 137 138 146 145
f 145 146 154 153
f 153 154 156
f 115 123 122
f 122 123 131 130
f 130 131 139 138
f 138 139 147 146
f 146 147 155 154
f 154 155 156
f 115 116 123
f 123 116 124 131
f 131 124 132 139
f 139 132 140 147
f 147 140 148 155
f 155 148 156
o Body.Tail
v 0.007 0.595 -0.618
v 0.015 0.6 -0.63
v 0.008 0.605 -0.642
v -0.007 0.605 -0.642
v -0.015 0.6 -0.63
v -0.007 0.595 -0.618
v 0.005 0.417 -0.692
v 0.01 0.42 -0.7
v 0.005 0.423 -0.708
v -0.005 0.423 -0.708
v -0.01 0.42 -0.7
v -0.005 0.417 -0.692
usemtl BoarDark
s off
f 162 161 160 159 158 157
f 163 164 165 166 167 168
f 157 158 164 163
f 158 159 165 164
f 159 160 166 165
f 160 161 167 166
f 161 162 168 167
f 162 157 163 168
o Head.Neck
v -0.139 0.493 0.179
v -0.057 0.569 0.149
v 0.057 0.569 0.149
v 0.139 0.493 0.179
v 0.139 0.387 0.221
v 0.057 0.311 0.251
v -0.057 0.311 0.251
v -0.139 0.387 0.221
v -0.111 0.603 0.483
v -0.046 0.663 0.459
v 0.046 0.663 0.459
v 0.111 0.603 0.483
v 0.111 0.517 0.517
v 0.046 0.457 0.541
v -0.046 0.457 0.541
v -0.111 0.517 0.517
usemtl Boar
s off
f 176 175 174 173 172 171 170 169
f 177 178 179 180 181 182 183 184
f 169 170 178 177
f 170 171 179 178
f 171 172 180 179
f 172 173 181 180
f 173 174 182 181
f 174 175 183 182
f 175 176 184 183
f 176 169 177 184
o Head.Skull
v 0 0.4 0.56
v 0.07 0.421 0.56
v 0.057 0.421 0.604
v 0.022 0.421 0.631
v -0.022 0.421 0.631
v -0.057 0.421 0.604
v -0.07 0.421 0.56
v -0.057 0.421 0.516
v -0.022 0.421 0.489
v 0.022 0.421 0.489
v 0.057 0.421 0.516
v 0.121 0.48 0.56
v 0.098 0.48 0.636
v 0.037 0.48 0.684
v -0.037 0.48 0.684
v -0.098 0.48 0.636
v -0.121 0.48 0.56
v -0.098 0.48 0.484
v -0.037 0.48 0.436
v 0.037 0.48 0.436
v 0.098 0.48 0.484
v 0.14 0.56 0.56
v 0.113 0.56 0.648
v 0.043 0.56 0.703
v -0.043 0.56 0.703
v -0.113 0.56 0.648
v -0.14 0.56 0.56
v -0.113 0.56 0.472
v -0.043 0.56 0.417
v 0.043 0.56 0.417
v 0.113 0.56 0.472
v 0.121 0.64 0.56
v 0.098 0.64 0.636
v 0.037 0.64 0.684
v -0.037 0.64 0.684
v -0.098 0.64 0.636
v -0.121 0.64 0.56
v -0.098 0.64 0.484
v -0.037 0.64 0.436
v 0.037 0.64 0.436
v 0.098 0.64 0.484
v 0.07 0.699 0.56
v 0.057 0.699 0.604
v 0.022 0.699 0.631
v -0.022 0.699 0.631
v -0.057 0.699 0.604
v -0.07 0.699 0.56
v -0.057 0.699 0.516
v -0.022 0.699 0.489
v 0.022 0.699 0.489
v 0.057 0.699 0.516
v 0 0.72 0.56
usemtl Boar
s off
f 185 187 186
f 186 187 197 196
f 196 197 207 206
f 206 207 217 216
f 216 217 227 226
f 226 227 236
f 185 188 187
f 187 188 198 197
f 197 198 208 207
f 207 208 218 217
f 217 218 228 227
f 227 228 236
f 185 189 188
f 188 189 199 198
f 198 199 209 208
f 208 209 219 218
f 218 219 229 228
f 228 229 236
f 185 190 189
f 189 190 200 199
f 199 200 210 209
f 209 210 220 219
f 219 220 230 229
f 229 230 236
f 185 191 190
f 190 191 201 200
f 200 201 211 210
f 210 211 221 220
f 220 221 231 230
f 230 231 236
f 185 192 191
f 191 192 202 201
f 201 202 212 211
f 211 212 222 221
f 221 222 232 231
f 231 232 236
f 185 193 192
f 192 193 203 202
f 202 203 213 212
f 212 213 223 222
f 222 223 233 232
f 232 233 236
f 185 194 193
f 193 194 204 203
f 203 204 214 213
f 213 214 224 223
f 223 224 234 233
f 233 234 236
f 185 195 194
f 194 195 205 204
f 204 205 215 214
f 214 215 225 224
f 224 225 235 234
f 234 235 236
f 185 186 195
f 195 186 196 205
f 205 196 206 215
f 215 206 216 225
f 225 216 226 235
f 235 226 236
o Head.Face
v -0.092 0.556 0.612
v -0.038 0.608 0.629
v 0.038 0.608 0.629
v 0.092 0.556 0.612
v 0.092 0.484 0.588
v 0.038 0.432 0.571
v -0.038 0.432 0.571
v -0.092 0.484 0.588
v -0.055 0.452 0.877
v -0.023 0.483 0.888
v 0.023 0.483 0.888
v 0.055 0.452 0.877
v 0.055 0.408 0.863
v 0.023 0.377 0.852
v -0.023 0.377 0.852
v -0.055 0.408 0.863
usemtl BoarDark
s off
f 244 243 242 241 240 239 238 237
f 245 246 247 248 249 250 251 252
f 237 238 246 245
f 238 239 247 246
f 239 240 248 247
f 240 241 249 248
f 241 242 250 249
f 242 243 251 250
f 243 244 252 251
f 244 237 245 252
o Head.Snout
v 0.057 0.449 0.87
v 0.035 0.479 0.87
v 0 0.49 0.87
v -0.035 0.479 0.87
v -0.057 0.449 0.87
v -0.057 0.411 0.87
v -0.035 0.381 0.87
v 0 0.37 0.87
v 0.035 0.381 0.87
v 0.057 0.411 0.87
v 0.057 0.449 0.9
v 0.035 0.479 0.9
v 0 0.49 0.9
v -0.035 0.479 0.9
v -0.057 0.449 0.9
v -0.057 0.411 0.9
v -0.035 0.381 0.9
v 0 0.37 0.9
v 0.035 0.381 0.9
v 0.057 0.411 0.9
usemtl Snout
s off
f 262 261 260 259 258 257 256 255 254 253
f 263 264 265 266 267 268 269 270 271 272
f 253 254 264 263
f 254 255 265 264
f 255 256 266 265
f 256 257 267 266
f 257 258 268 267
f 258 259 269 268
f 259 260 270 269
f 260 261 271 270
f 261 262 272 271
f 262 253 263 272
o Head.Eye
v -0.1 0.586 0.66
v -0.09 0.59 0.66
v -0.095 0.59 0.669
v -0.105 0.59 0.669
v -0.11 0.59 0.66
v -0.105 0.59 0.651
v -0.095 0.59 0.651
v -0.086 0.6 0.66
v -0.093 0.6 0.672
v -0.107 0.6 0.672
v -0.114 0.6 0.66
v -0.107 0.6 0.648
v -0.093 0.6 0.648
v -0.09 0.61 0.66
v -0.095 0.61 0.669
v -0.105 0.61 0.669
v -0.11 0.61 0.66
v -0.105 0.61 0.651
v -0.095 0.61 0.651
v -0.1 0.614 0.66
usemtl Eye
s off
f 273 275 274
f 274 275 281 280
f 280 281 287 286
f 286 287 292
f 273 276 275
f 275 276 282 281
f 281 282 288 287
f 287 288 292
f 273 277 276
f 276 277 283 282
f 282 283 289 288
f 288 289 292
f 273 278 277
f 277 278 284 283
f 283 284 290 289
f 289 290 292
f 273 279 278
f 278 279 285 284
f 284 285 291 290
f 290 291 292
f 273 274 279
f 279 274 280 285
f 285 280 286 291
f 291 286 292
o Head.Ear
v -0.061 0.689 0.503
v -0.065 0.698 0.537
v -0.094 0.689 0.554
v -0.119 0.671 0.537
v -0.115 0.662 0.503
v -0.086 0.671 0.486
v -0.142 0.803 0.475
v -0.143 0.805 0.485
v -0.151 0.803 0.49
v -0.158 0.797 0.485
v -0.157 0.795 0.475
v -0.149 0.797 0.47
usemtl BoarDark
s off
f 298 297 296 295 294 293
f 299 300 301 302 303 304
f 293 294 300 299
f 294 295 301 300
f 295 296 302 301
f 296 297 303 302
f 297 298 304 303
f 298 293 299 304
o Head.Tusk
v -0.064 0.423 0.788
v -0.052 0.426 0.792
v -0.048 0.423 0.804
v -0.056 0.417 0.812
v -0.068 0.414 0.808
v -0.072 0.417 0.796
v -0.101 0.521 0.836
v -0.098 0.522 0.838
v -0.096 0.521 0.841
v -0.099 0.519 0.844
v -0.102 0.518 0.842
v -0.104 0.519 0.839
usemtl Tusk
s off
f 310 309 308 307 306 305
f 311 312 313 314 315 316
f 305 306 312 311
f 306 307 313 312
f 307 308 314 313
f 308 309 315 314
f 309 310 316 315
f 310 305 311 316
o Head.Eye
v 0.1 0.586 0.66
v 0.11 0.59 0.66
v 0.105 0.59 0.669
v 0.095 0.59 0.669
v 0.09 0.59 0.66
v 0.095 0.59 0.651
v 0.105 0.59 0.651
v 0.114 0.6 0.66
v 0.107 0.6 0.672
v 0.093 0.6 0.672
v 0.086 0.6 0.66
v 0.093 0.6 0.648
v 0.107 0.6 0.648
v 0.11 0.61 0.66
v 0.105 0.61 0.669
v 0.095 0.61 0.669
v 0.09 0.61 0.66
v 0.095 0.61 0.651
v 0.105 0.61 0.651
v 0.1 0.614 0.66
usemtl Eye
s off
f 317 319 318
f 318 319 325 324
f 324 325 331 330
f 330 331 336
f 317 320 319
f 319 320 326 325
f 325 326 332 331
f 331 332 336
f 317 321 320
f 320 321 327 326
f 326 327 333 332
f 332 333 336
f 317 322 321
f 321 322 328 327
f 327 328 334 333
f 333 334 336
f 317 323 322
f 322 323 329 328
f 328 329 335 334
f 334 335 336
f 317 318 323
f 323 318 324 329
f 329 324 330 335
f 335 330 336
o Head.Ear
v 0.094 0.689 0.554
v 0.065 0.698 0.537
v 0.061 0.689 0.503
v 0.086 0.671 0.486
v 0.115 0.662 0.503
v 0.119 0.671 0.537
v 0.151 0.803 0.49
v 0.143 0.805 0.485
v 0.142 0.803 0.475
v 0.149 0.797 0.47
v 0.157 0.795 0.475
v 0.158 0.797 0.485
usemtl BoarDark
s off
f 342 341 340 339 338 337
f 343 344 345 346 347 348
f 337 338 344 343
f 338 339 345 344
f 339 340 346 345
f 340 341 347 346
f 341 342 348 347
f 342 337 343 348
o Head.Tusk
v 0.048 0.423 0.804
v 0.052 0.426 0.792
v 0.064 0.423 0.788
v 0.072 0.417 0.796
v 0.068 0.414 0.808
v 0.056 0.417 0.812
v 0.096 0.521 0.841
v 0.098 0.522 0.838
v 0.101 0.521 0.836
v 0.104 0.519 0.839
v 0.102 0.518 0.842
v 0.099 0.519 0.844
usemtl Tusk
s off
f 354 353 352 351 350 349
f 355 356 357 358 359 360
f 349 350 356 355
f 350 351 357 356
f 351 352 358 357
f 352 353 359 358
f 353 354 360 359
f 354 349 355 360
o Leg.FL
v 0.129 0.48 0.306
v 0.156 0.48 0.279
v 0.156 0.48 0.241
v 0.129 0.48 0.214
v 0.091 0.48 0.214
v 0.064 0.48 0.241
v 0.064 0.48 0.279
v 0.091 0.48 0.306
v 0.121 0.18 0.288
v 0.138 0.18 0.271
v 0.138 0.18 0.249
v 0.121 0.18 0.232
v 0.099 0.18 0.232
v 0.082 0.18 0.249
v 0.082 0.18 0.271
v 0.099 0.18 0.288
usemtl Boar
s off
f 368 367 366 365 364 363 362 361
f 369 370 371 372 373 374 375 376
f 361 362 370 369
f 362 363 371 370
f 363 364 372 371
f 364 365 373 372
f 365 366 374 373
f 366 367 375 374
f 367 368 376 375
f 368 361 369 376
o Leg.FL.Shin
v 0.122 0.191 0.282
v 0.135 0.19 0.26
v 0.123 0.189 0.238
v 0.098 0.189 0.238
v 0.085 0.19 0.26
v 0.098 0.191 0.282
v 0.12 0.041 0.287
v 0.13 0.04 0.27
v 0.12 0.039 0.253
v 0.1 0.039 0.253
v 0.09 0.04 0.27
v 0.1 0.041 0.287
usemtl BoarDark
s off
f 382 381 380 379 378 377
f 383 384 385 386 387 388
f 377 378 384 383
f 378 379 385 384
f 379 380 386 385
f 380 381 387 386
f 381 382 388 387
f 382 377 383 388
o Leg.FL.Hoof
v 0.136 0 0.286
v 0.11 0 0.305
v 0.084 0 0.286
v 0.084 0 0.249
v 0.11 0 0.23
v 0.136 0 0.249
v 0.136 0.045 0.286
v 0.11 0.045 0.305
v 0.084 0.045 0.286
v 0.084 0.045 0.249
v 0.11 0.045 0.23
v 0.136 0.045 0.249
usemtl Hoof
s off
f 394 393 392 391 390 389
f 395 396 397 398 399 400
f 389 390 396 395
f 390 391 397 396
f 391 392 398 397
f 392 393 399 398
f 393 394 400 399
f 394 389 395 400
o Leg.FR
v -0.091 0.48 0.306
v -0.064 0.48 0.279
v -0.064 0.48 0.241
v -0.091 0.48 0.214
v -0.129 0.48 0.214
v -0.156 0.48 0.241
v -0.156 0.48 0.279
v -0.129 0.48 0.306
v -0.099 0.18 0.288
v -0.082 0.18 0.271
v -0.082 0.18 0.249
v -0.099 0.18 0.232
v -0.121 0.18 0.232
v -0.138 0.18 0.249
v -0.138 0.18 0.271
v -0.121 0.18 0.288
usemtl Boar
s off
f 408 407 406 405 404 403 402 401
f 409 410 411 412 413 414 415 416
f 401 402 410 409
f 402 403 411 410
f 403 404 412 411
f 404 405 413 412
f 405 406 414 413
f 406 407 415 414
f 407 408 416 415
f 408 401 409 416
o Leg.FR.Shin
v -0.098 0.191 0.282
v -0.085 0.19 0.26
v -0.097 0.189 0.238
v -0.122 0.189 0.238
v -0.135 0.19 0.26
v -0.122 0.191 0.282
v -0.1 0.041 0.287
v -0.09 0.04 0.27
v -0.1 0.039 0.253
v -0.12 0.039 0.253
v -0.13 0.04 0.27
v -0.12 0.041 0.287
usemtl BoarDark
s off
f 422 421 420 419 418 417
f 423 424 425 426 427 428
f 417 418 424 423
f 418 419 425 424
f 419 420 426 425
f 420 421 427 426
f 421 422 428 427
f 422 417 423 428
o Leg.FR.Hoof
v -0.084 0 0.286
v -0.11 0 0.305
v -0.136 0 0.286
v -0.136 0 0.249
v -0.11 0 0.23
v -0.084 0 0.249
v -0.084 0.045 0.286
v -0.11 0.045 0.305
v -0.136 0.045 0.286
v -0.136 0.045 0.249
v -0.11 0.045 0.23
v -0.084 0.045 0.249
usemtl Hoof
s off
f 434 433 432 431 430 429
f 435 436 437 438 439 440
f 429 430 436 435
f 430 431 437 436
f 431 432 438 437
f 432 433 439 438
f 433 434 440 439
f 434 429 435 440
o Leg.BL
v 0.129 0.48 -0.454
v 0.156 0.48 -0.481
v 0.156 0.48 -0.519
v 0.129 0.48 -0.546
v 0.091 0.48 -0.546
v 0.064 0.48 -0.519
v 0.064 0.48 -0.481
v 0.091 0.48 -0.454
v 0.121 0.18 -0.472
v 0.138 0.18 -0.489
v 0.138 0.18 -0.511
v 0.121 0.18 -0.528
v 0.099 0.18 -0.528
v 0.082 0.18 -0.511
v 0.082 0.18 -0.489
v 0.099 0.18 -0.472
usemtl Boar
s off
f 448 447 446 445 444 443 442 441
f 449 450 451 452 453 454 455 456
f 441 442 450 449
f 442 443 451 450
f 443 444 452 451
f 444 445 453 452
f 445 446 454 453
f 446 447 455 454
f 447 448 456 455
f 448 441 449 456
o Leg.BL.Shin
v 0.122 0.191 -0.478
v 0.135 0.19 -0.5
v 0.123 0.189 -0.522
v 0.098 0.189 -0.522
v 0.085 0.19 -0.5
v 0.098 0.191 -0.478
v 0.12 0.041 -0.473
v 0.13 0.04 -0.49
v 0.12 0.039 -0.507
v 0.1 0.039 -0.507
v 0.09 0.04 -0.49
v 0.1 0.041 -0.473
usemtl BoarDark
s off
f 462 461 460 459 458 457
f 463 464 465 466 467 468
f 457 458 464 463
f 458 459 465 464
f 459 460 466 465
f 460 461 467 466
f 461 462 468 467
f 462 457 463 468
o Leg.BL.Hoof
v 0.136 0 -0.474
v 0.11 0 -0.455
v 0.084 0 -0.474
v 0.084 0 -0.511
v 0.11 0 -0.53
v 0.136 0 -0.511
v 0.136 0.045 -0.474
v 0.11 0.045 -0.455
v 0.084 0.045 -0.474
v 0.084 0.045 -0.511
v 0.11 0.045 -0.53
v 0.136 0.045 -0.511
usemtl Hoof
s off
f 474 473 472 471 470 469
f 475 476 477 478 479 480
f 469 470 476 475
f 470 471 477 476
f 471 472 478 477
f 472 473 479 478
f 473 474 480 479
f 474 469 475 480
o Leg.BR
v -0.091 0.48 -0.454
v -0.064 0.48 -0.481
v -0.064 0.48 -0.519
v -0.091 0.48 -0.546
v -0.129 0.48 -0.546
v -0.156 0.48 -0.519
v -0.156 0.48 -0.481
v -0.129 0.48 -0.454
v -0.099 0.18 -0.472
v -0.082 0.18 -0.489
v -0.082 0.18 -0.511
v -0.099 0.18 -0.528
v -0.121 0.18 -0.528
v -0.138 0.18 -0.511
v -0.138 0.18 -0.489
v -0.121 0.18 -0.472
usemtl Boar
s off
f 488 487 486 485 484 483 482 481
f 489 490 491 492 493 494 495 496
f 481 482 490 489
f 482 483 491 490
f 483 484 492 491
f 484 485 493 492
f 485 486 494 493
f 486 487 495 494
f 487 488 496 495
f 488 481 489 496
o Leg.BR.Shin
v -0.098 0.191 -0.478
v -0.085 0.19 -0.5
v -0.097 0.189 -0.522
v -0.122 0.189 -0.522
v -0.135 0.19 -0.5
v -0.122 0.191 -0.478
v -0.1 0.041 -0.473
v -0.09 0.04 -0.49
v -0.1 0.039 -0.507
v -0.12 0.039 -0.507
v -0.13 0.04 -0.49
v -0.12 0.041 -0.473
usemtl BoarDark
s off
f 502 501 500 499 498 497
f 503 504 505 506 507 508
f 497 498 504 503
f 498 499 505 504
f 499 500 506 505
f 500 501 507 506
f 501 502 508 507
f 502 497 503 508
o Leg.BR.Hoof
v -0.084 0 -0.474
v -0.11 0 -0.455
v -0.136 0 -0.474
v -0.136 0 -0.511
v -0.11 0 -0.53
v -0.084 0 -0.511
v -0.084 0.045 -0.474
v -0.11 0.045 -0.455
v -0.136 0.045 -0.474
v -0.136 0.045 -0.511
v -0.11 0.045 -0.53
v -0.084 0.045 -0.511
usemtl Hoof
s off
f 514 513 512 511 510 509
f 515 516 517 518 519 520
f 509 510 516 515
f 510 511 517 516
f 511 512 518 517
f 512 513 519 518
f 513 514 520 519
f 514 509 515 520
