# bow.obj - Bogen fuer procedurally-generated-map
# Einheiten: Meter (1 Tile = 5 m, Tueren 2.1 m, ein Dorfbewohner 1.75 m), Y oben,
# Vorderseite nach +Z - so wie Blender ein Modell exportiert, das in der
# Vorderansicht zum Betrachter schaut.
mtllib bow.mtl
o Bow
v 0.595 0.14 -0.03
v 0.595 0.14 0.03
v 0.536 0.128 0.03
v 0.536 0.128 -0.03
v 0.554 0.376 -0.038
v 0.554 0.376 0.037
v 0.48 0.361 0.038
v 0.48 0.361 -0.037
usemtl Wood
s off
f 4 3 2 1
f 5 6 7 8
f 1 2 6 5
f 2 3 7 6
f 3 4 8 7
f 4 1 5 8
o Bow
v 0.552 0.381 -0.038
v 0.552 0.381 0.037
v 0.482 0.356 0.038
v 0.482 0.356 -0.037
v 0.484 0.592 -0.045
v 0.484 0.592 0.045
v 0.4 0.561 0.045
v 0.4 0.561 -0.045
usemtl Wood
s off
f 12 11 10 9
f 13 14 15 16
f 9 10 14 13
f 10 11 15 14
f 11 12 16 15
f 12 9 13 16
o Bow
v 0.481 0.598 -0.045
v 0.481 0.598 0.045
v 0.403 0.554 0.045
v 0.403 0.554 -0.045
v 0.386 0.783 -0.053
v 0.386 0.783 0.052
v 0.295 0.732 0.053
v 0.295 0.732 -0.052
usemtl Wood
s off
f 20 19 18 17
f 21 22 23 24
f 17 18 22 21
f 18 19 23 22
f 19 20 24 23
f 20 17 21 24
o Bow
v 0.381 0.791 -0.053
v 0.381 0.791 0.052
v 0.3 0.724 0.053
v 0.3 0.724 -0.052
v 0.258 0.95 -0.06
v 0.258 0.95 0.06
v 0.166 0.874 0.06
v 0.166 0.874 -0.06
usemtl Wood
s off
f 28 27 26 25
f 29 30 31 32
f 25 26 30 29
f 26 27 31 30
f 27 28 32 31
f 28 25 29 32
o Bow
v 0.25 0.958 -0.06
v 0.25 0.958 0.06
v 0.174 0.866 0.06
v 0.174 0.866 -0.06
v 0.091 1.081 -0.053
v 0.091 1.081 0.052
v 0.024 1 0.053
v 0.024 1 -0.052
usemtl Wood
s off
f 36 35 34 33
f 37 38 39 40
f 33 34 38 37
f 34 35 39 38
f 35 36 40 39
f 36 33 37 40
o Bow
v 0.083 1.086 -0.053
v 0.083 1.086 0.052
v 0.032 0.995 0.053
v 0.032 0.995 -0.052
v -0.102 1.181 -0.045
v -0.102 1.181 0.045
v -0.146 1.103 0.045
v -0.146 1.103 -0.045
usemtl Wood
s off
f 44 43 42 41
f 45 46 47 48
f 41 42 46 45
f 42 43 47 46
f 43 44 48 47
f 44 41 45 48
o Bow
v -0.108 1.184 -0.045
v -0.108 1.184 0.045
v -0.139 1.1 0.045
v -0.139 1.1 -0.045
v -0.319 1.252 -0.038
v -0.319 1.252 0.037
v -0.344 1.182 0.038
v -0.344 1.182 -0.037
usemtl Wood
s off
f 52 51 50 49
f 53 54 55 56
f 49 50 54 53
f 50 51 55 54
f 51 52 56 55
f 52 49 53 56
o Bow
v -0.324 1.254 -0.038
v -0.324 1.254 0.037
v -0.339 1.18 0.038
v -0.339 1.18 -0.037
v -0.56 1.295 -0.03
v -0.56 1.295 0.03
v -0.572 1.236 0.03
v -0.572 1.236 -0.03
usemtl Wood
s off
f 60 59 58 57
f 61 62 63 64
f 57 58 62 61
f 58 59 63 62
f 59 60 64 63
f 60 57 61 64
o Bow.Grip
v 0.316 0.903 -0.07
v 0.316 0.903 0.07
v 0.217 0.804 0.07
v 0.217 0.804 -0.07
v 0.203 1.016 -0.07
v 0.203 1.016 0.07
v 0.104 0.917 0.07
v 0.104 0.917 -0.07
usemtl WoodDark
s off
f 68 67 66 65
f 69 70 71 72
f 65 66 70 69
f 66 67 71 70
f 67 68 72 71
f 68 65 69 72
o Bow.String
v 0.574 0.143 -0.012
v 0.574 0.143 0.012
v 0.557 0.126 0.012
v 0.557 0.126 -0.012
v -0.557 1.274 -0.012
v -0.557 1.274 0.012
v -0.574 1.257 0.012
v -0.574 1.257 -0.012
usemtl Canvas
s off
f 76 75 74 73
f 77 78 79 80
f 73 74 78 77
f 74 75 79 78
f 75 76 80 79
f 76 73 77 80
o Arrow
v -0.019 0.719 0.028
v -0.019 0.719 -0.027
v 0.019 0.681 -0.028
v 0.019 0.681 0.027
v 0.546 1.285 0.028
v 0.546 1.285 -0.027
v 0.585 1.246 -0.028
v 0.585 1.246 0.027
usemtl WoodLight
s off
f 84 83 82 81
f 85 86 87 88
f 81 82 86 85
f 82 83 87 86
f 83 84 88 87
f 84 81 85 88
o Arrow.Head
v 0.523 1.308 0.06
v 0.523 1.308 -0.06
v 0.608 1.223 -0.06
v 0.608 1.223 0.06
v 0.704 1.411 0.005
v 0.704 1.411 -0.005
v 0.711 1.404 -0.005
v 0.711 1.404 0.005
usemtl Iron
s off
f 92 91 90 89
f 93 94 95 96
f 89 90 94 93
f 90 91 95 94
f 91 92 96 95
f 92 89 93 96
o Arrow.Fletch
v -0.028 0.757 0.06
v -0.028 0.757 -0.06
v 0.057 0.672 -0.06
v 0.057 0.672 0.06
v 0.138 0.873 0.025
v 0.138 0.873 -0.025
v 0.173 0.838 -0.025
v 0.173 0.838 0.025
usemtl Feather
s off
f 100 99 98 97
f 101 102 103 104
f 97 98 102 101
f 98 99 103 102
f 99 100 104 103
f 100 97 101 104
