# bowyer.obj - Bognerei fuer procedurally-generated-map
# Einheiten: Meter (1 Tile = 5 m, Tueren 2.1 m, ein Dorfbewohner 1.75 m), Y oben,
# Vorderseite nach +Z - so wie Blender ein Modell exportiert, das in der
# Vorderansicht zum Betrachter schaut.
# Material Paint (Band, Wappen, Zielscheibe) bekommt die Gebaeudefarbe aus dem Spiel.
# Die Objekte Entry und Work.* markieren Eingang und Werkbank und werden nicht gezeichnet.
mtllib bowyer.mtl
o Ground
v -1.47 0 -2.2
v -2.45 0 -1.32
v -2.45 0 1.32
v -1.47 0 2.2
v 1.47 0 2.2
v 2.45 0 1.32
v 2.45 0 -1.32
v 1.47 0 -2.2
v -1.47 0.03 -2.2
v -2.45 0.03 -1.32
v -2.45 0.03 1.32
v -1.47 0.03 2.2
v 1.47 0.03 2.2
v 2.45 0.03 1.32
v 2.45 0.03 -1.32
v 1.47 0.03 -2.2
usemtl Dirt
s off
f 8 7 6 5 4 3 2 1
f 9 10 11 12 13 14 15 16
f 1 2 10 9
f 2 3 11 10
f 3 4 12 11
f 4 5 13 12
f 5 6 14 13
f 6 7 15 14
f 7 8 16 15
f 8 1 9 16
o Plinth
v -2.21 0 -2.01
v -2.21 0 -0.29
v 0.61 0 -0.29
v 0.61 0 -2.01
v -2.21 0.3 -2.01
v -2.21 0.3 -0.29
v 0.61 0.3 -0.29
v 0.61 0.3 -2.01
usemtl Stone
s off
f 20 19 18 17
f 21 22 23 24
f 17 18 22 21
f 18 19 23 22
f 19 20 24 23
f 20 17 21 24
o Walls
v -2.15 0.3 -1.95
v -2.15 0.3 -0.35
v 0.55 0.3 -0.35
v 0.55 0.3 -1.95
v -2.15 2.3 -1.95
v -2.15 2.3 -0.35
v 0.55 2.3 -0.35
v 0.55 2.3 -1.95
usemtl PlasterGrey
s off
f 28 27 26 25
f 29 30 31 32
f 25 26 30 29
f 26 27 31 30
f 27 28 32 31
f 28 25 29 32
o Timber.Post
v -2.23 0.3 -0.35
v -2.23 0.3 -0.29
v -2.07 0.3 -0.29
v -2.07 0.3 -0.35
v -2.23 2.3 -0.35
v -2.23 2.3 -0.29
v -2.07 2.3 -0.29
v -2.07 2.3 -0.35
usemtl Timber
s off
f 36 35 34 33
f 37 38 39 40
f 33 34 38 37
f 34 35 39 38
f 35 36 40 39
f 36 33 37 40
o Timber.Post
v -1.18 0.3 -0.35
v -1.18 0.3 -0.29
v -1.02 0.3 -0.29
v -1.02 0.3 -0.35
v -1.18 2.3 -0.35
v -1.18 2.3 -0.29
v -1.02 2.3 -0.29
v -1.02 2.3 -0.35
usemtl Timber
s off
f 44 43 42 41
f 45 46 47 48
f 41 42 46 45
f 42 43 47 46
f 43 44 48 47
f 44 41 45 48
o Timber.Post
v 0.47 0.3 -0.35
v 0.47 0.3 -0.29
v 0.63 0.3 -0.29
v 0.63 0.3 -0.35
v 0.47 2.3 -0.35
v 0.47 2.3 -0.29
v 0.63 2.3 -0.29
v 0.63 2.3 -0.35
usemtl Timber
s off
f 52 51 50 49
f 53 54 55 56
f 49 50 54 53
f 50 51 55 54
f 51 52 56 55
f 52 49 53 56
o Timber.Sill
v -2.15 0.3 -0.35
v -2.15 0.3 -0.29
v 0.55 0.3 -0.29
v 0.55 0.3 -0.35
v -2.15 0.42 -0.35
v -2.15 0.42 -0.29
v 0.55 0.42 -0.29
v 0.55 0.42 -0.35
usemtl Timber
s off
f 60 59 58 57
f 61 62 63 64
f 57 58 62 61
f 58 59 63 62
f 59 60 64 63
f 60 57 61 64
o Timber.Plate
v -2.19 2.14 -0.35
v -2.19 2.14 -0.28
v 0.59 2.14 -0.28
v 0.59 2.14 -0.35
v -2.19 2.3 -0.35
v -2.19 2.3 -0.28
v 0.59 2.3 -0.28
v 0.59 2.3 -0.35
usemtl Timber
s off
f 68 67 66 65
f 69 70 71 72
f 65 66 70 69
f 66 67 71 70
f 67 68 72 71
f 68 65 69 72
o Timber.Post
v -2.21 0.3 -2.03
v -2.21 0.3 -1.87
v -2.15 0.3 -1.87
v -2.15 0.3 -2.03
v -2.21 2.3 -2.03
v -2.21 2.3 -1.87
v -2.15 2.3 -1.87
v -2.15 2.3 -2.03
usemtl Timber
s off
f 76 75 74 73
f 77 78 79 80
f 73 74 78 77
f 74 75 79 78
f 75 76 80 79
f 76 73 77 80
o Timber.Post
v -2.21 0.3 -1.23
v -2.21 0.3 -1.07
v -2.15 0.3 -1.07
v -2.15 0.3 -1.23
v -2.21 2.3 -1.23
v -2.21 2.3 -1.07
v -2.15 2.3 -1.07
v -2.15 2.3 -1.23
usemtl Timber
s off
f 84 83 82 81
f 85 86 87 88
f 81 82 86 85
f 82 83 87 86
f 83 84 88 87
f 84 81 85 88
o Timber.Post
v -2.21 0.3 -0.43
v -2.21 0.3 -0.27
v -2.15 0.3 -0.27
v -2.15 0.3 -0.43
v -2.21 2.3 -0.43
v -2.21 2.3 -0.27
v -2.15 2.3 -0.27
v -2.15 2.3 -0.43
usemtl Timber
s off
f 92 91 90 89
f 93 94 95 96
f 89 90 94 93
f 90 91 95 94
f 91 92 96 95
f 92 89 93 96
o Timber.Post
v 0.55 0.3 -2.03
v 0.55 0.3 -1.87
v 0.61 0.3 -1.87
v 0.61 0.3 -2.03
v 0.55 2.3 -2.03
v 0.55 2.3 -1.87
v 0.61 2.3 -1.87
v 0.61 2.3 -2.03
usemtl Timber
s off
f 100 99 98 97
f 101 102 103 104
f 97 98 102 101
f 98 99 103 102
f 99 100 104 103
f 100 97 101 104
o Timber.Post
v 0.55 0.3 -1.23
v 0.55 0.3 -1.07
v 0.61 0.3 -1.07
v 0.61 0.3 -1.23
v 0.55 2.3 -1.23
v 0.55 2.3 -1.07
v 0.61 2.3 -1.07
v 0.61 2.3 -1.23
usemtl Timber
s off
f 108 107 106 105
f 109 110 111 112
f 105 106 110 109
f 106 107 111 110
f 107 108 112 111
f 108 105 109 112
o Timber.Post
v 0.55 0.3 -0.43
v 0.55 0.3 -0.27
v 0.61 0.3 -0.27
v 0.61 0.3 -0.43
v 0.55 2.3 -0.43
v 0.55 2.3 -0.27
v 0.61 2.3 -0.27
v 0.61 2.3 -0.43
usemtl Timber
s off
f 116 115 114 113
f 117 118 119 120
f 113 114 118 117
f 114 115 119 118
f 115 116 120 119
f 116 113 117 120
o Timber.Brace
v -2.095 0.442 -0.27
v -2.095 0.442 -0.37
v -2.005 0.398 -0.37
v -2.005 0.398 -0.27
v -1.245 2.162 -0.27
v -1.245 2.162 -0.37
v -1.155 2.118 -0.37
v -1.155 2.118 -0.27
usemtl Timber
s off
f 124 123 122 121
f 125 126 127 128
f 121 122 126 125
f 122 123 127 126
f 123 124 128 127
f 124 121 125 128
o Band
v -2.17 1.94 -0.35
v -2.17 1.94 -0.3
v 0.57 1.94 -0.3
v 0.57 1.94 -0.35
v -2.17 2.14 -0.35
v -2.17 2.14 -0.3
v 0.57 2.14 -0.3
v 0.57 2.14 -0.35
usemtl Paint
s off
f 132 131 130 129
f 133 134 135 136
f 129 130 134 133
f 130 131 135 134
f 131 132 136 135
f 132 129 133 136
o Shield
v -0.37 2.28 -0.28
v 0.07 2.28 -0.28
v 0.07 2 -0.28
v -0.15 1.75 -0.28
v -0.37 2 -0.28
v -0.37 2.28 -0.23
v 0.07 2.28 -0.23
v 0.07 2 -0.23
v -0.15 1.75 -0.23
v -0.37 2 -0.23
usemtl Paint
s off
f 141 140 139 138 137
f 142 143 144 145 146
f 137 138 143 142
f 138 139 144 143
f 139 140 145 144
f 140 141 146 145
f 141 137 142 146
o Shield.Stripe
v -0.309 2.261 -0.195
v -0.309 2.261 -0.255
v -0.351 2.219 -0.255
v -0.351 2.219 -0.195
v 0.051 1.901 -0.195
v 0.051 1.901 -0.255
v 0.009 1.859 -0.255
v 0.009 1.859 -0.195
usemtl Canvas
s off
f 150 149 148 147
f 151 152 153 154
f 147 148 152 151
f 148 149 153 152
f 149 150 154 153
f 150 147 151 154
o Door
v -0.57 0.3 -0.35
v -0.57 0.3 -0.3
v 0.27 0.3 -0.3
v 0.27 0.3 -0.35
v -0.57 2.15 -0.35
v -0.57 2.15 -0.3
v 0.27 2.15 -0.3
v 0.27 2.15 -0.35
usemtl Wood
s off
f 158 157 156 155
f 159 160 161 162
f 155 156 160 159
f 156 157 161 160
f 157 158 162 161
f 158 155 159 162
o Door.Seam
v -0.37 0.35 -0.3
v -0.37 0.35 -0.29
v -0.35 0.35 -0.29
v -0.35 0.35 -0.3
v -0.37 2.1 -0.3
v -0.37 2.1 -0.29
v -0.35 2.1 -0.29
v -0.35 2.1 -0.3
usemtl WoodDark
s off
f 166 165 164 163
f 167 168 169 170
f 163 164 168 167
f 164 165 169 168
f 165 166 170 169
f 166 163 167 170
o Door.Seam
v -0.16 0.35 -0.3
v -0.16 0.35 -0.29
v -0.14 0.35 -0.29
v -0.14 0.35 -0.3
v -0.16 2.1 -0.3
v -0.16 2.1 -0.29
v -0.14 2.1 -0.29
v -0.14 2.1 -0.3
usemtl WoodDark
s off
f 174 173 172 171
f 175 176 177 178
f 171 172 176 175
f 172 173 177 176
f 173 174 178 177
f 174 171 175 178
o Door.Seam
v 0.05 0.35 -0.3
v 0.05 0.35 -0.29
v 0.07 0.35 -0.29
v 0.07 0.35 -0.3
v 0.05 2.1 -0.3
v 0.05 2.1 -0.29
v 0.07 2.1 -0.29
v 0.07 2.1 -0.3
usemtl WoodDark
s off
f 182 181 180 179
f 183 184 185 186
f 179 180 184 183
f 180 181 185 184
f 181 182 186 185
f 182 179 183 186
o Door.Hinge
v -0.55 0.65 -0.3
v -0.55 0.65 -0.285
v -0.05 0.65 -0.285
v -0.05 0.65 -0.3
v -0.55 0.71 -0.3
v -0.55 0.71 -0.285
v -0.05 0.71 -0.285
v -0.05 0.71 -0.3
usemtl Iron
s off
f 190 189 188 187
f 191 192 193 194
f 187 188 192 191
f 188 189 193 192
f 189 190 194 193
f 190 187 191 194
o Door.Hinge
v -0.55 1.7 -0.3
v -0.55 1.7 -0.285
v -0.05 1.7 -0.285
v -0.05 1.7 -0.3
v -0.55 1.76 -0.3
v -0.55 1.76 -0.285
v -0.05 1.76 -0.285
v -0.05 1.76 -0.3
usemtl Iron
s off
f 198 197 196 195
f 199 200 201 202
f 195 196 200 199
f 196 197 201 200
f 197 198 202 201
f 198 195 199 202
o Door.Frame
v -0.69 2.15 -0.35
v -0.69 2.15 -0.26
v 0.39 2.15 -0.26
v 0.39 2.15 -0.35
v -0.69 2.27 -0.35
v -0.69 2.27 -0.26
v 0.39 2.27 -0.26
v 0.39 2.27 -0.35
usemtl Timber
s off
f 206 205 204 203
f 207 208 209 210
f 203 204 208 207
f 204 205 209 208
f 205 206 210 209
f 206 203 207 210
o Door.Frame
v -0.69 0.3 -0.35
v -0.69 0.3 -0.27
v -0.57 0.3 -0.27
v -0.57 0.3 -0.35
v -0.69 2.15 -0.35
v -0.69 2.15 -0.27
v -0.57 2.15 -0.27
v -0.57 2.15 -0.35
usemtl Timber
s off
f 214 213 212 211
f 215 216 217 218
f 211 212 216 215
f 212 213 217 216
f 213 214 218 217
f 214 211 215 218
o Door.Frame
v 0.27 0.3 -0.35
v 0.27 0.3 -0.27
v 0.39 0.3 -0.27
v 0.39 0.3 -0.35
v 0.27 2.15 -0.35
v 0.27 2.15 -0.27
v 0.39 2.15 -0.27
v 0.39 2.15 -0.35
usemtl Timber
s off
f 222 221 220 219
f 223 224 225 226
f 219 220 224 223
f 220 221 225 224
f 221 222 226 225
f 222 219 223 226
o Window
v -2.18 1.1 -1.45
v -2.18 1.1 -0.85
v -2.15 1.1 -0.85
v -2.15 1.1 -1.45
v -2.18 1.6 -1.45
v -2.18 1.6 -0.85
v -2.15 1.6 -0.85
v -2.15 1.6 -1.45
usemtl WindowLit
s off
f 230 229 228 227
f 231 232 233 234
f 227 228 232 231
f 228 229 233 232
f 229 230 234 233
f 230 227 231 234
o Window.Frame
v -2.23 1.03 -1.52
v -2.23 1.03 -0.78
v -2.15 1.03 -0.78
v -2.15 1.03 -1.52
v -2.23 1.1 -1.52
v -2.23 1.1 -0.78
v -2.15 1.1 -0.78
v -2.15 1.1 -1.52
usemtl Timber
s off
f 238 237 236 235
f 239 240 241 242
f 235 236 240 239
f 236 237 241 240
f 237 238 242 241
f 238 235 239 242
o Window.Bar
v -2.21 1.1 -1.17
v -2.21 1.1 -1.13
v -2.15 1.1 -1.13
v -2.15 1.1 -1.17
v -2.21 1.6 -1.17
v -2.21 1.6 -1.13
v -2.15 1.6 -1.13
v -2.15 1.6 -1.17
usemtl Timber
s off
f 246 245 244 243
f 247 248 249 250
f 243 244 248 247
f 244 245 249 248
f 245 246 250 249
f 246 243 247 250
o Window.Shutter
v -2.2 1.1 -1.8
v -2.2 1.1 -1.5
v -2.15 1.1 -1.5
v -2.15 1.1 -1.8
v -2.2 1.6 -1.8
v -2.2 1.6 -1.5
v -2.15 1.6 -1.5
v -2.15 1.6 -1.8
usemtl Shutter
s off
f 254 253 252 251
f 255 256 257 258
f 251 252 256 255
f 252 253 257 256
f 253 254 258 257
f 254 251 255 258
o Window.Shutter
v -2.2 1.1 -0.8
v -2.2 1.1 -0.5
v -2.15 1.1 -0.5
v -2.15 1.1 -0.8
v -2.2 1.6 -0.8
v -2.2 1.6 -0.5
v -2.15 1.6 -0.5
v -2.15 1.6 -0.8
usemtl Shutter
s off
f 262 261 260 259
f 263 264 265 266
f 259 260 264 263
f 260 261 265 264
f 261 262 266 265
f 262 259 263 266
o Peg
v -1.88 1.9 -0.35
v -1.88 1.9 -0.21
v -1.82 1.9 -0.21
v -1.82 1.9 -0.35
v -1.88 1.95 -0.35
v -1.88 1.95 -0.21
v -1.82 1.95 -0.21
v -1.82 1.95 -0.35
usemtl WoodDark
s off
f 270 269 268 267
f 271 272 273 274
f 267 268 272 271
f 268 269 273 272
f 269 270 274 273
f 270 267 271 274
o Bow
v -1.835 0.473 -0.245
v -1.835 0.477 -0.215
v -1.865 0.477 -0.215
v -1.865 0.473 -0.245
v -1.831 0.653 -0.279
v -1.831 0.659 -0.242
v -1.869 0.659 -0.242
v -1.869 0.653 -0.279
usemtl Wood
s off
f 278 277 276 275
f 279 280 281 282
f 275 276 280 279
f 276 277 281 280
f 277 278 282 281
f 278 275 279 282
o Bow
v -1.831 0.654 -0.279
v -1.831 0.658 -0.242
v -1.869 0.658 -0.242
v -1.869 0.654 -0.279
v -1.828 0.835 -0.305
v -1.828 0.84 -0.26
v -1.873 0.84 -0.26
v -1.873 0.835 -0.305
usemtl Wood
s off
f 286 285 284 283
f 287 288 289 290
f 283 284 288 287
f 284 285 289 288
f 285 286 290 289
f 286 283 287 290
o Bow
v -1.828 0.836 -0.305
v -1.828 0.839 -0.26
v -1.873 0.839 -0.26
v -1.873 0.836 -0.305
v -1.824 1.017 -0.322
v -1.824 1.021 -0.269
v -1.876 1.021 -0.269
v -1.876 1.017 -0.322
usemtl Wood
s off
f 294 293 292 291
f 295 296 297 298
f 291 292 296 295
f 292 293 297 296
f 293 294 298 297
f 294 291 295 298
o Bow
v -1.824 1.018 -0.322
v -1.824 1.019 -0.269
v -1.876 1.019 -0.269
v -1.876 1.018 -0.322
v -1.82 1.199 -0.33
v -1.82 1.201 -0.27
v -1.88 1.201 -0.27
v -1.88 1.199 -0.33
usemtl Wood
s off
f 302 301 300 299
f 303 304 305 306
f 299 300 304 303
f 300 301 305 304
f 301 302 306 305
f 302 299 303 306
o Bow
v -1.82 1.201 -0.33
v -1.82 1.199 -0.27
v -1.88 1.199 -0.27
v -1.88 1.201 -0.33
v -1.824 1.382 -0.322
v -1.824 1.381 -0.269
v -1.876 1.381 -0.269
v -1.876 1.382 -0.322
usemtl Wood
s off
f 310 309 308 307
f 311 312 313 314
f 307 308 312 311
f 308 309 313 312
f 309 310 314 313
f 310 307 311 314
o Bow
v -1.824 1.383 -0.322
v -1.824 1.379 -0.269
v -1.876 1.379 -0.269
v -1.876 1.383 -0.322
v -1.828 1.564 -0.305
v -1.828 1.561 -0.26
v -1.873 1.561 -0.26
v -1.873 1.564 -0.305
usemtl Wood
s off
f 318 317 316 315
f 319 320 321 322
f 315 316 320 319
f 316 317 321 320
f 317 318 322 321
f 318 315 319 322
o Bow
v -1.828 1.565 -0.305
v -1.828 1.56 -0.26
v -1.873 1.56 -0.26
v -1.873 1.565 -0.305
v -1.831 1.746 -0.279
v -1.831 1.742 -0.242
v -1.869 1.742 -0.242
v -1.869 1.746 -0.279
usemtl Wood
s off
f 326 325 324 323
f 327 328 329 330
f 323 324 328 327
f 324 325 329 328
f 325 326 330 329
f 326 323 327 330
o Bow
v -1.831 1.747 -0.279
v -1.831 1.741 -0.242
v -1.869 1.741 -0.242
v -1.869 1.747 -0.279
v -1.835 1.927 -0.245
v -1.835 1.923 -0.215
v -1.865 1.923 -0.215
v -1.865 1.927 -0.245
usemtl Wood
s off
f 334 333 332 331
f 335 336 337 338
f 331 332 336 335
f 332 333 337 336
f 333 334 338 337
f 334 331 335 338
o Bow.Grip
v -1.815 1.127 -0.334
v -1.815 1.127 -0.264
v -1.885 1.127 -0.264
v -1.885 1.127 -0.334
v -1.815 1.272 -0.334
v -1.815 1.272 -0.264
v -1.885 1.272 -0.264
v -1.885 1.272 -0.334
usemtl WoodDark
s off
f 342 341 340 339
f 343 344 345 346
f 339 340 344 343
f 340 341 345 344
f 341 342 346 345
f 342 339 343 346
o Bow.String
v -1.844 0.475 -0.236
v -1.844 0.475 -0.224
v -1.856 0.475 -0.224
v -1.856 0.475 -0.236
v -1.844 1.925 -0.236
v -1.844 1.925 -0.224
v -1.856 1.925 -0.224
v -1.856 1.925 -0.236
usemtl Canvas
s off
f 350 349 348 347
f 351 352 353 354
f 347 348 352 351
f 348 349 353 352
f 349 350 354 353
f 350 347 351 354
o Peg
v -1.53 1.9 -0.35
v -1.53 1.9 -0.21
v -1.47 1.9 -0.21
v -1.47 1.9 -0.35
v -1.53 1.95 -0.35
v -1.53 1.95 -0.21
v -1.47 1.95 -0.21
v -1.47 1.95 -0.35
usemtl WoodDark
s off
f 358 357 356 355
f 359 360 361 362
f 355 356 360 359
f 356 357 361 360
f 357 358 362 361
f 358 355 359 362
o Bow
v -1.485 0.393 -0.245
v -1.485 0.397 -0.215
v -1.515 0.397 -0.215
v -1.515 0.393 -0.245
v -1.481 0.573 -0.279
v -1.481 0.579 -0.242
v -1.519 0.579 -0.242
v -1.519 0.573 -0.279
usemtl Wood
s off
f 366 365 364 363
f 367 368 369 370
f 363 364 368 367
f 364 365 369 368
f 365 366 370 369
f 366 363 367 370
o Bow
v -1.481 0.574 -0.279
v -1.481 0.578 -0.242
v -1.519 0.578 -0.242
v -1.519 0.574 -0.279
v -1.478 0.755 -0.305
v -1.478 0.76 -0.26
v -1.522 0.76 -0.26
v -1.522 0.755 -0.305
usemtl Wood
s off
f 374 373 372 371
f 375 376 377 378
f 371 372 376 375
f 372 373 377 376
f 373 374 378 377
f 374 371 375 378
o Bow
v -1.478 0.756 -0.305
v -1.478 0.759 -0.26
v -1.522 0.759 -0.26
v -1.522 0.756 -0.305
v -1.474 0.937 -0.322
v -1.474 0.941 -0.269
v -1.526 0.941 -0.269
v -1.526 0.937 -0.322
usemtl Wood
s off
f 382 381 380 379
f 383 384 385 386
f 379 380 384 383
f 380 381 385 384
f 381 382 386 385
f 382 379 383 386
o Bow
v -1.474 0.938 -0.322
v -1.474 0.939 -0.269
v -1.526 0.939 -0.269
v -1.526 0.938 -0.322
v -1.47 1.119 -0.33
v -1.47 1.121 -0.27
v -1.53 1.121 -0.27
v -1.53 1.119 -0.33
usemtl Wood
s off
f 390 389 388 387
f 391 392 393 394
f 387 388 392 391
f 388 389 393 392
f 389 390 394 393
f 390 387 391 394
o Bow
v -1.47 1.121 -0.33
v -1.47 1.119 -0.27
v -1.53 1.119 -0.27
v -1.53 1.121 -0.33
v -1.474 1.302 -0.322
v -1.474 1.301 -0.269
v -1.526 1.301 -0.269
v -1.526 1.302 -0.322
usemtl Wood
s off
f 398 397 396 395
f 399 400 401 402
f 395 396 400 399
f 396 397 401 400
f 397 398 402 401
f 398 395 399 402
o Bow
v -1.474 1.303 -0.322
v -1.474 1.299 -0.269
v -1.526 1.299 -0.269
v -1.526 1.303 -0.322
v -1.478 1.484 -0.305
v -1.478 1.481 -0.26
v -1.522 1.481 -0.26
v -1.522 1.484 -0.305
usemtl Wood
s off
f 406 405 404 403
f 407 408 409 410
f 403 404 408 407
f 404 405 409 408
f 405 406 410 409
f 406 403 407 410
o Bow
v -1.478 1.485 -0.305
v -1.478 1.48 -0.26
v -1.522 1.48 -0.26
v -1.522 1.485 -0.305
v -1.481 1.666 -0.279
v -1.481 1.662 -0.242
v -1.519 1.662 -0.242
v -1.519 1.666 -0.279
usemtl Wood
s off
f 414 413 412 411
f 415 416 417 418
f 411 412 416 415
f 412 413 417 416
f 413 414 418 417
f 414 411 415 418
o Bow
v -1.481 1.667 -0.279
v -1.481 1.661 -0.242
v -1.519 1.661 -0.242
v -1.519 1.667 -0.279
v -1.485 1.847 -0.245
v -1.485 1.843 -0.215
v -1.515 1.843 -0.215
v -1.515 1.847 -0.245
usemtl Wood
s off
f 422 421 420 419
f 423 424 425 426
f 419 420 424 423
f 420 421 425 424
f 421 422 426 425
f 422 419 423 426
o Bow.Grip
v -1.465 1.047 -0.334
v -1.465 1.047 -0.264
v -1.535 1.047 -0.264
v -1.535 1.047 -0.334
v -1.465 1.192 -0.334
v -1.465 1.192 -0.264
v -1.535 1.192 -0.264
v -1.535 1.192 -0.334
usemtl WoodDark
s off
f 430 429 428 427
f 431 432 433 434
f 427 428 432 431
f 428 429 433 432
f 429 430 434 433
f 430 427 431 434
o Bow.String
v -1.494 0.395 -0.236
v -1.494 0.395 -0.224
v -1.506 0.395 -0.224
v -1.506 0.395 -0.236
v -1.494 1.845 -0.236
v -1.494 1.845 -0.224
v -1.506 1.845 -0.224
v -1.506 1.845 -0.236
usemtl Canvas
s off
f 438 437 436 435
f 439 440 441 442
f 435 436 440 439
f 436 437 441 440
f 437 438 442 441
f 438 435 439 442
o Peg
v -1.18 1.9 -0.35
v -1.18 1.9 -0.21
v -1.12 1.9 -0.21
v -1.12 1.9 -0.35
v -1.18 1.95 -0.35
v -1.18 1.95 -0.21
v -1.12 1.95 -0.21
v -1.12 1.95 -0.35
usemtl WoodDark
s off
f 446 445 444 443
f 447 448 449 450
f 443 444 448 447
f 444 445 449 448
f 445 446 450 449
f 446 443 447 450
o Bow
v -1.135 0.473 -0.245
v -1.135 0.477 -0.215
v -1.165 0.477 -0.215
v -1.165 0.473 -0.245
v -1.131 0.653 -0.279
v -1.131 0.659 -0.242
v -1.169 0.659 -0.242
v -1.169 0.653 -0.279
usemtl Wood
s off
f 454 453 452 451
f 455 456 457 458
f 451 452 456 455
f 452 453 457 456
f 453 454 458 457
f 454 451 455 458
o Bow
v -1.131 0.654 -0.279
v -1.131 0.658 -0.242
v -1.169 0.658 -0.242
v -1.169 0.654 -0.279
v -1.127 0.835 -0.305
v -1.127 0.84 -0.26
v -1.172 0.84 -0.26
v -1.172 0.835 -0.305
usemtl Wood
s off
f 462 461 460 459
f 463 464 465 466
f 459 460 464 463
f 460 461 465 464
f 461 462 466 465
f 462 459 463 466
o Bow
v -1.127 0.836 -0.305
v -1.127 0.839 -0.26
v -1.172 0.839 -0.26
v -1.172 0.836 -0.305
v -1.124 1.017 -0.322
v -1.124 1.021 -0.269
v -1.176 1.021 -0.269
v -1.176 1.017 -0.322
usemtl Wood
s off
f 470 469 468 467
f 471 472 473 474
f 467 468 472 471
f 468 469 473 472
f 469 470 474 473
f 470 467 471 474
o Bow
v -1.124 1.018 -0.322
v -1.124 1.019 -0.269
v -1.176 1.019 -0.269
v -1.176 1.018 -0.322
v -1.12 1.199 -0.33
v -1.12 1.201 -0.27
v -1.18 1.201 -0.27
v -1.18 1.199 -0.33
usemtl Wood
s off
f 478 477 476 475
f 479 480 481 482
f 475 476 480 479
f 476 477 481 480
f 477 478 482 481
f 478 475 479 482
o Bow
v -1.12 1.201 -0.33
v -1.12 1.199 -0.27
v -1.18 1.199 -0.27
v -1.18 1.201 -0.33
v -1.124 1.382 -0.322
v -1.124 1.381 -0.269
v -1.176 1.381 -0.269
v -1.176 1.382 -0.322
usemtl Wood
s off
f 486 485 484 483
f 487 488 489 490
f 483 484 488 487
f 484 485 489 488
f 485 486 490 489
f 486 483 487 490
o Bow
v -1.124 1.383 -0.322
v -1.124 1.379 -0.269
v -1.176 1.379 -0.269
v -1.176 1.383 -0.322
v -1.127 1.564 -0.305
v -1.127 1.561 -0.26
v -1.172 1.561 -0.26
v -1.172 1.564 -0.305
usemtl Wood
s off
f 494 493 492 491
f 495 496 497 498
f 491 492 496 495
f 492 493 497 496
f 493 494 498 497
f 494 491 495 498
o Bow
v -1.127 1.565 -0.305
v -1.127 1.56 -0.26
v -1.172 1.56 -0.26
v -1.172 1.565 -0.305
v -1.131 1.746 -0.279
v -1.131 1.742 -0.242
v -1.169 1.742 -0.242
v -1.169 1.746 -0.279
usemtl Wood
s off
f 502 501 500 499
f 503 504 505 506
f 499 500 504 503
f 500 501 505 504
f 501 502 506 505
f 502 499 503 506
o Bow
v -1.131 1.747 -0.279
v -1.131 1.741 -0.242
v -1.169 1.741 -0.242
v -1.169 1.747 -0.279
v -1.135 1.927 -0.245
v -1.135 1.923 -0.215
v -1.165 1.923 -0.215
v -1.165 1.927 -0.245
usemtl Wood
s off
f 510 509 508 507
f 511 512 513 514
f 507 508 512 511
f 508 509 513 512
f 509 510 514 513
f 510 507 511 514
o Bow.Grip
v -1.115 1.127 -0.334
v -1.115 1.127 -0.264
v -1.185 1.127 -0.264
v -1.185 1.127 -0.334
v -1.115 1.272 -0.334
v -1.115 1.272 -0.264
v -1.185 1.272 -0.264
v -1.185 1.272 -0.334
usemtl WoodDark
s off
f 518 517 516 515
f 519 520 521 522
f 515 516 520 519
f 516 517 521 520
f 517 518 522 521
f 518 515 519 522
o Bow.String
v -1.144 0.475 -0.236
v -1.144 0.475 -0.224
v -1.156 0.475 -0.224
v -1.156 0.475 -0.236
v -1.144 1.925 -0.236
v -1.144 1.925 -0.224
v -1.156 1.925 -0.224
v -1.156 1.925 -0.236
usemtl Canvas
s off
f 526 525 524 523
f 527 528 529 530
f 523 524 528 527
f 524 525 529 528
f 525 526 530 529
f 526 523 527 530
o Roof
v -2.45 2.2 0.15
v -2.45 2.47 -0.11
v -2.45 2.58 -0.11
v -2.45 2.376 0.15
v 0.65 2.2 0.15
v 0.65 2.47 -0.11
v 0.65 2.58 -0.11
v 0.65 2.376 0.15
usemtl Shingle
s off
f 534 533 532 531
f 535 536 537 538
f 531 532 536 535
f 532 533 537 536
f 533 534 538 537
f 534 531 535 538
o Roof
v -2.45 2.47 -0.11
v -2.45 2.74 -0.37
v -2.45 2.85 -0.37
v -2.45 2.646 -0.11
v 0.65 2.47 -0.11
v 0.65 2.74 -0.37
v 0.65 2.85 -0.37
v 0.65 2.646 -0.11
usemtl Shingle
s off
f 542 541 540 539
f 543 544 545 546
f 539 540 544 543
f 540 541 545 544
f 541 542 546 545
f 542 539 543 546
o Roof
v -2.45 2.74 -0.37
v -2.45 3.01 -0.63
v -2.45 3.12 -0.63
v -2.45 2.916 -0.37
v 0.65 2.74 -0.37
v 0.65 3.01 -0.63
v 0.65 3.12 -0.63
v 0.65 2.916 -0.37
usemtl Shingle
s off
f 550 549 548 547
f 551 552 553 554
f 547 548 552 551
f 548 549 553 552
f 549 550 554 553
f 550 547 551 554
o Roof
v -2.45 3.01 -0.63
v -2.45 3.28 -0.89
v -2.45 3.39 -0.89
v -2.45 3.186 -0.63
v 0.65 3.01 -0.63
v 0.65 3.28 -0.89
v 0.65 3.39 -0.89
v 0.65 3.186 -0.63
usemtl Shingle
s off
f 558 557 556 555
f 559 560 561 562
f 555 556 560 559
f 556 557 561 560
f 557 558 562 561
f 558 555 559 562
o Roof
v -2.45 3.28 -0.89
v -2.45 3.55 -1.15
v -2.45 3.66 -1.15
v -2.45 3.39 -0.89
v 0.65 3.28 -0.89
v 0.65 3.55 -1.15
v 0.65 3.66 -1.15
v 0.65 3.39 -0.89
usemtl Shingle
s off
f 566 565 564 563
f 567 568 569 570
f 563 564 568 567
f 564 565 569 568
f 565 566 570 569
f 566 563 567 570
o Roof
v -2.45 2.2 -2.4
v -2.45 2.47 -2.15
v -2.45 2.58 -2.15
v -2.45 2.376 -2.4
v 0.65 2.2 -2.4
v 0.65 2.47 -2.15
v 0.65 2.58 -2.15
v 0.65 2.376 -2.4
usemtl Shingle
s off
f 574 573 572 571
f 575 576 577 578
f 571 572 576 575
f 572 573 577 576
f 573 574 578 577
f 574 571 575 578
o Roof
v -2.45 2.47 -2.15
v -2.45 2.74 -1.9
v -2.45 2.85 -1.9
v -2.45 2.646 -2.15
v 0.65 2.47 -2.15
v 0.65 2.74 -1.9
v 0.65 2.85 -1.9
v 0.65 2.646 -2.15
usemtl Shingle
s off
f 582 581 580 579
f 583 584 585 586
f 579 580 584 583
f 580 581 585 584
f 581 582 586 585
f 582 579 583 586
o Roof
v -2.45 2.74 -1.9
v -2.45 3.01 -1.65
v -2.45 3.12 -1.65
v -2.45 2.916 -1.9
v 0.65 2.74 -1.9
v 0.65 3.01 -1.65
v 0.65 3.12 -1.65
v 0.65 2.916 -1.9
usemtl Shingle
s off
f 590 589 588 587
f 591 592 593 594
f 587 588 592 591
f 588 589 593 592
f 589 590 594 593
f 590 587 591 594
o Roof
v -2.45 3.01 -1.65
v -2.45 3.28 -1.4
v -2.45 3.39 -1.4
v -2.45 3.186 -1.65
v 0.65 3.01 -1.65
v 0.65 3.28 -1.4
v 0.65 3.39 -1.4
v 0.65 3.186 -1.65
usemtl Shingle
s off
f 598 597 596 595
f 599 600 601 602
f 595 596 600 599
f 596 597 601 600
f 597 598 602 601
f 598 595 599 602
o Roof
v -2.45 3.28 -1.4
v -2.45 3.55 -1.15
v -2.45 3.66 -1.15
v -2.45 3.39 -1.4
v 0.65 3.28 -1.4
v 0.65 3.55 -1.15
v 0.65 3.66 -1.15
v 0.65 3.39 -1.4
usemtl Shingle
s off
f 606 605 604 603
f 607 608 609 610
f 603 604 608 607
f 604 605 609 608
f 605 606 610 609
f 606 603 607 610
o Roof.Ridge
v -2.49 3.65 -1.046
v -2.49 3.69 -1.15
v -2.49 3.65 -1.254
v -2.49 3.57 -1.254
v -2.49 3.53 -1.15
v -2.49 3.57 -1.046
v 0.69 3.65 -1.046
v 0.69 3.69 -1.15
v 0.69 3.65 -1.254
v 0.69 3.57 -1.254
v 0.69 3.53 -1.15
v 0.69 3.57 -1.046
usemtl ShingleDark
s off
f 616 615 614 613 612 611
f 617 618 619 620 621 622
f 611 612 618 617
f 612 613 619 618
f 613 614 620 619
f 614 615 621 620
f 615 616 622 621
f 616 611 617 622
o Gable
v -2.19 2.3 -1.95
v -2.19 2.3 -0.35
v -2.19 3.45 -1.15
v -2.11 2.3 -1.95
v -2.11 2.3 -0.35
v -2.11 3.45 -1.15
usemtl WoodLight
s off
f 625 624 623
f 626 627 628
f 623 624 627 626
f 624 625 628 627
f 625 623 626 628
o Gable.Barge
v -2.39 2.22 0.195
v -2.51 2.22 0.195
v -2.51 2.14 0.105
v -2.39 2.14 0.105
v -2.39 3.67 -1.105
v -2.51 3.67 -1.105
v -2.51 3.59 -1.195
v -2.39 3.59 -1.195
usemtl Timber
s off
f 632 631 630 629
f 633 634 635 636
f 629 630 634 633
f 630 631 635 634
f 631 632 636 635
f 632 629 633 636
o Gable.Barge
v -2.51 2.219 -2.445
v -2.39 2.219 -2.445
v -2.39 2.141 -2.355
v -2.51 2.141 -2.355
v -2.51 3.669 -1.195
v -2.39 3.669 -1.195
v -2.39 3.591 -1.105
v -2.51 3.591 -1.105
usemtl Timber
s off
f 640 639 638 637
f 641 642 643 644
f 637 638 642 641
f 638 639 643 642
f 639 640 644 643
f 640 637 641 644
o Gable
v 0.51 2.3 -1.95
v 0.51 2.3 -0.35
v 0.51 3.45 -1.15
v 0.59 2.3 -1.95
v 0.59 2.3 -0.35
v 0.59 3.45 -1.15
usemtl WoodLight
s off
f 647 646 645
f 648 649 650
f 645 646 649 648
f 646 647 650 649
f 647 645 648 650
o Gable.Barge
v 0.71 2.22 0.195
v 0.59 2.22 0.195
v 0.59 2.14 0.105
v 0.71 2.14 0.105
v 0.71 3.67 -1.105
v 0.59 3.67 -1.105
v 0.59 3.59 -1.195
v 0.71 3.59 -1.195
usemtl Timber
s off
f 654 653 652 651
f 655 656 657 658
f 651 652 656 655
f 652 653 657 656
f 653 654 658 657
f 654 651 655 658
o Gable.Barge
v 0.59 2.219 -2.445
v 0.71 2.219 -2.445
v 0.71 2.141 -2.355
v 0.59 2.141 -2.355
v 0.59 3.669 -1.195
v 0.71 3.669 -1.195
v 0.71 3.591 -1.105
v 0.59 3.591 -1.105
usemtl Timber
s off
f 662 661 660 659
f 663 664 665 666
f 659 660 664 663
f 660 661 665 664
f 661 662 666 665
f 662 659 663 666
o Lean.Foot
v 2.116 0 -2.04
v 2.06 0 -1.984
v 2.06 0 -1.816
v 2.116 0 -1.76
v 2.284 0 -1.76
v 2.34 0 -1.816
v 2.34 0 -1.984
v 2.284 0 -2.04
v 2.116 0.12 -2.04
v 2.06 0.12 -1.984
v 2.06 0.12 -1.816
v 2.116 0.12 -1.76
v 2.284 0.12 -1.76
v 2.34 0.12 -1.816
v 2.34 0.12 -1.984
v 2.284 0.12 -2.04
usemtl Stone
s off
f 674 673 672 671 670 669 668 667
f 675 676 677 678 679 680 681 682
f 667 668 676 675
f 668 669 677 676
f 669 670 678 677
f 670 671 679 678
f 671 672 680 679
f 672 673 681 680
f 673 674 682 681
f 674 667 675 682
o Lean.Post
v 2.11 0 -1.99
v 2.11 0 -1.81
v 2.29 0 -1.81
v 2.29 0 -1.99
v 2.11 1.85 -1.99
v 2.11 1.85 -1.81
v 2.29 1.85 -1.81
v 2.29 1.85 -1.99
usemtl Timber
s off
f 686 685 684 683
f 687 688 689 690
f 683 684 688 687
f 684 685 689 688
f 685 686 690 689
f 686 683 687 690
o Lean.Foot
v 2.116 0 -0.49
v 2.06 0 -0.434
v 2.06 0 -0.266
v 2.116 0 -0.21
v 2.284 0 -0.21
v 2.34 0 -0.266
v 2.34 0 -0.434
v 2.284 0 -0.49
v 2.116 0.12 -0.49
v 2.06 0.12 -0.434
v 2.06 0.12 -0.266
v 2.116 0.12 -0.21
v 2.284 0.12 -0.21
v 2.34 0.12 -0.266
v 2.34 0.12 -0.434
v 2.284 0.12 -0.49
usemtl Stone
s off
f 698 697 696 695 694 693 692 691
f 699 700 701 702 703 704 705 706
f 691 692 700 699
f 692 693 701 700
f 693 694 702 701
f 694 695 703 702
f 695 696 704 703
f 696 697 705 704
f 697 698 706 705
f 698 691 699 706
o Lean.Post
v 2.11 0 -0.44
v 2.11 0 -0.26
v 2.29 0 -0.26
v 2.29 0 -0.44
v 2.11 1.85 -0.44
v 2.11 1.85 -0.26
v 2.29 1.85 -0.26
v 2.29 1.85 -0.44
usemtl Timber
s off
f 710 709 708 707
f 711 712 713 714
f 707 708 712 711
f 708 709 713 712
f 709 710 714 713
f 710 707 711 714
o Lean.Beam
v 2.1 1.67 -2.05
v 2.1 1.67 -0.25
v 2.3 1.67 -0.25
v 2.3 1.67 -2.05
v 2.1 1.85 -2.05
v 2.1 1.85 -0.25
v 2.3 1.85 -0.25
v 2.3 1.85 -2.05
usemtl Timber
s off
f 718 717 716 715
f 719 720 721 722
f 715 716 720 719
f 716 717 721 720
f 717 718 722 721
f 718 715 719 722
o Lean.Rafter
v 0.556 2.095 -1.855
v 0.556 2.095 -1.945
v 0.544 2.005 -1.945
v 0.544 2.005 -1.855
v 2.456 1.845 -1.855
v 2.456 1.845 -1.945
v 2.444 1.755 -1.945
v 2.444 1.755 -1.855
usemtl Timber
s off
f 726 725 724 723
f 727 728 729 730
f 723 724 728 727
f 724 725 729 728
f 725 726 730 729
f 726 723 727 730
o Lean.Rafter
v 0.556 2.095 -0.305
v 0.556 2.095 -0.395
v 0.544 2.005 -0.395
v 0.544 2.005 -0.305
v 2.456 1.845 -0.305
v 2.456 1.845 -0.395
v 2.444 1.755 -0.395
v 2.444 1.755 -0.305
usemtl Timber
s off
f 734 733 732 731
f 735 736 737 738
f 731 732 736 735
f 732 733 737 736
f 733 734 738 737
f 734 731 735 738
o Lean.Roof
v 2.5 1.77 -2.25
v 1.857 1.88 -2.25
v 1.857 1.98 -2.25
v 2.5 1.93 -2.25
v 2.5 1.77 0
v 1.857 1.88 0
v 1.857 1.98 0
v 2.5 1.93 0
usemtl Shingle
s off
f 742 741 740 739
f 743 744 745 746
f 739 740 744 743
f 740 741 745 744
f 741 742 746 745
f 742 739 743 746
o Lean.Roof
v 1.857 1.88 -2.25
v 1.213 1.99 -2.25
v 1.213 2.09 -2.25
v 1.857 2.04 -2.25
v 1.857 1.88 0
v 1.213 1.99 0
v 1.213 2.09 0
v 1.857 2.04 0
usemtl Shingle
s off
f 750 749 748 747
f 751 752 753 754
f 747 748 752 751
f 748 749 753 752
f 749 750 754 753
f 750 747 751 754
o Lean.Roof
v 1.213 1.99 -2.25
v 0.57 2.1 -2.25
v 0.57 2.2 -2.25
v 1.213 2.09 -2.25
v 1.213 1.99 0
v 0.57 2.1 0
v 0.57 2.2 0
v 1.213 2.09 0
usemtl Shingle
s off
f 758 757 756 755
f 759 760 761 762
f 755 756 760 759
f 756 757 761 760
f 757 758 762 761
f 758 755 759 762
o Stave
v 0.922 0.034 -1.772
v 0.922 0.033 -1.727
v 0.878 0.026 -1.728
v 0.878 0.027 -1.773
v 0.632 1.754 -1.752
v 0.632 1.753 -1.707
v 0.588 1.746 -1.708
v 0.588 1.747 -1.753
usemtl Wood
s off
f 766 765 764 763
f 767 768 769 770
f 763 764 768 767
f 764 765 769 768
f 765 766 770 769
f 766 763 767 770
o Stave
v 0.982 0.034 -1.632
v 0.982 0.034 -1.587
v 0.938 0.026 -1.588
v 0.938 0.026 -1.633
v 0.632 1.854 -1.612
v 0.632 1.854 -1.567
v 0.588 1.846 -1.568
v 0.588 1.846 -1.613
usemtl WoodLight
s off
f 774 773 772 771
f 775 776 777 778
f 771 772 776 775
f 772 773 777 776
f 773 774 778 777
f 774 771 775 778
o Stave
v 1.042 0.035 -1.492
v 1.042 0.035 -1.447
v 0.998 0.025 -1.448
v 0.998 0.025 -1.493
v 0.632 1.755 -1.472
v 0.632 1.755 -1.427
v 0.588 1.745 -1.428
v 0.588 1.745 -1.473
usemtl Wood
s off
f 782 781 780 779
f 783 784 785 786
f 779 780 784 783
f 780 781 785 784
f 781 782 786 785
f 782 779 783 786
o Stave
v 0.922 0.034 -1.352
v 0.922 0.033 -1.307
v 0.878 0.026 -1.308
v 0.878 0.027 -1.353
v 0.632 1.854 -1.332
v 0.632 1.853 -1.287
v 0.588 1.846 -1.288
v 0.588 1.847 -1.333
usemtl WoodLight
s off
f 790 789 788 787
f 791 792 793 794
f 787 788 792 791
f 788 789 793 792
f 789 790 794 793
f 790 787 791 794
o Stave
v 0.982 0.035 -1.212
v 0.982 0.034 -1.167
v 0.938 0.025 -1.168
v 0.938 0.026 -1.213
v 0.632 1.755 -1.192
v 0.632 1.754 -1.147
v 0.588 1.745 -1.148
v 0.588 1.746 -1.193
usemtl Wood
s off
f 798 797 796 795
f 799 800 801 802
f 795 796 800 799
f 796 797 801 800
f 797 798 802 801
f 798 795 799 802
o Stave
v 1.042 0.035 -1.072
v 1.042 0.035 -1.027
v 0.998 0.025 -1.028
v 0.998 0.025 -1.073
v 0.632 1.855 -1.052
v 0.632 1.855 -1.007
v 0.588 1.845 -1.008
v 0.588 1.845 -1.053
usemtl WoodLight
s off
f 806 805 804 803
f 807 808 809 810
f 803 804 808 807
f 804 805 809 808
f 805 806 810 809
f 806 803 807 810
o Stave
v 0.922 0.034 -0.932
v 0.922 0.033 -0.887
v 0.878 0.026 -0.888
v 0.878 0.027 -0.933
v 0.632 1.754 -0.912
v 0.632 1.753 -0.867
v 0.588 1.746 -0.868
v 0.588 1.747 -0.913
usemtl Wood
s off
f 814 813 812 811
f 815 816 817 818
f 811 812 816 815
f 812 813 817 816
f 813 814 818 817
f 814 811 815 818
o Stave
v 0.982 0.034 -0.792
v 0.982 0.034 -0.747
v 0.938 0.026 -0.748
v 0.938 0.026 -0.793
v 0.632 1.854 -0.772
v 0.632 1.854 -0.727
v 0.588 1.846 -0.728
v 0.588 1.846 -0.773
usemtl WoodLight
s off
f 822 821 820 819
f 823 824 825 826
f 819 820 824 823
f 820 821 825 824
f 821 822 826 825
f 822 819 823 826
o Stave
v 1.042 0.035 -0.652
v 1.042 0.035 -0.607
v 0.998 0.025 -0.608
v 0.998 0.025 -0.653
v 0.632 1.755 -0.632
v 0.632 1.755 -0.587
v 0.588 1.745 -0.588
v 0.588 1.745 -0.633
usemtl Wood
s off
f 830 829 828 827
f 831 832 833 834
f 827 828 832 831
f 828 829 833 832
f 829 830 834 833
f 830 827 831 834
o Stave
v 0.922 0.034 -0.512
v 0.922 0.033 -0.467
v 0.878 0.026 -0.468
v 0.878 0.027 -0.513
v 0.632 1.854 -0.492
v 0.632 1.853 -0.447
v 0.588 1.846 -0.448
v 0.588 1.847 -0.493
usemtl WoodLight
s off
f 838 837 836 835
f 839 840 841 842
f 835 836 840 839
f 836 837 841 840
f 837 838 842 841
f 838 835 839 842
o Billet
v 1.542 0.138 -1.8
v 1.488 0.192 -1.8
v 1.412 0.192 -1.8
v 1.358 0.138 -1.8
v 1.358 0.062 -1.8
v 1.412 0.008 -1.8
v 1.488 0.008 -1.8
v 1.542 0.062 -1.8
v 1.542 0.138 -0.85
v 1.488 0.192 -0.85
v 1.412 0.192 -0.85
v 1.358 0.138 -0.85
v 1.358 0.062 -0.85
v 1.412 0.008 -0.85
v 1.488 0.008 -0.85
v 1.542 0.062 -0.85
usemtl Bark
s off
f 850 849 848 847 846 845 844 843
f 851 852 853 854 855 856 857 858
f 843 844 852 851
f 844 845 853 852
f 845 846 854 853
f 846 847 855 854
f 847 848 856 855
f 848 849 857 856
f 849 850 858 857
f 850 843 851 858
o Billet.End
v 1.531 0.134 -0.85
v 1.484 0.181 -0.85
v 1.416 0.181 -0.85
v 1.369 0.134 -0.85
v 1.369 0.066 -0.85
v 1.416 0.019 -0.85
v 1.484 0.019 -0.85
v 1.531 0.066 -0.85
v 1.531 0.134 -0.838
v 1.484 0.181 -0.838
v 1.416 0.181 -0.838
v 1.369 0.134 -0.838
v 1.369 0.066 -0.838
v 1.416 0.019 -0.838
v 1.484 0.019 -0.838
v 1.531 0.066 -0.838
usemtl LogEnd
s off
f 866 865 864 863 862 861 860 859
f 867 868 869 870 871 872 873 874
f 859 860 868 867
f 860 861 869 868
f 861 862 870 869
f 862 863 871 870
f 863 864 872 871
f 864 865 873 872
f 865 866 874 873
f 866 859 867 874
o Billet
v 1.762 0.138 -1.8
v 1.708 0.192 -1.8
v 1.632 0.192 -1.8
v 1.578 0.138 -1.8
v 1.578 0.062 -1.8
v 1.632 0.008 -1.8
v 1.708 0.008 -1.8
v 1.762 0.062 -1.8
v 1.762 0.138 -0.85
v 1.708 0.192 -0.85
v 1.632 0.192 -0.85
v 1.578 0.138 -0.85
v 1.578 0.062 -0.85
v 1.632 0.008 -0.85
v 1.708 0.008 -0.85
v 1.762 0.062 -0.85
usemtl Bark
s off
f 882 881 880 879 878 877 876 875
f 883 884 885 886 887 888 889 890
f 875 876 884 883
f 876 877 885 884
f 877 878 886 885
f 878 879 887 886
f 879 880 888 887
f 880 881 889 888
f 881 882 890 889
f 882 875 883 890
o Billet.End
v 1.751 0.134 -0.85
v 1.704 0.181 -0.85
v 1.636 0.181 -0.85
v 1.589 0.134 -0.85
v 1.589 0.066 -0.85
v 1.636 0.019 -0.85
v 1.704 0.019 -0.85
v 1.751 0.066 -0.85
v 1.751 0.134 -0.838
v 1.704 0.181 -0.838
v 1.636 0.181 -0.838
v 1.589 0.134 -0.838
v 1.589 0.066 -0.838
v 1.636 0.019 -0.838
v 1.704 0.019 -0.838
v 1.751 0.066 -0.838
usemtl LogEnd
s off
f 898 897 896 895 894 893 892 891
f 899 900 901 902 903 904 905 906
f 891 892 900 899
f 892 893 901 900
f 893 894 902 901
f 894 895 903 902
f 895 896 904 903
f 896 897 905 904
f 897 898 906 905
f 898 891 899 906
o Billet
v 1.982 0.138 -1.8
v 1.928 0.192 -1.8
v 1.852 0.192 -1.8
v 1.798 0.138 -1.8
v 1.798 0.062 -1.8
v 1.852 0.008 -1.8
v 1.928 0.008 -1.8
v 1.982 0.062 -1.8
v 1.982 0.138 -0.85
v 1.928 0.192 -0.85
v 1.852 0.192 -0.85
v 1.798 0.138 -0.85
v 1.798 0.062 -0.85
v 1.852 0.008 -0.85
v 1.928 0.008 -0.85
v 1.982 0.062 -0.85
usemtl Bark
s off
f 914 913 912 911 910 909 908 907
f 915 916 917 918 919 920 921 922
f 907 908 916 915
f 908 909 917 916
f 909 910 918 917
f 910 911 919 918
f 911 912 920 919
f 912 913 921 920
f 913 914 922 921
f 914 907 915 922
o Billet.End
v 1.971 0.134 -0.85
v 1.924 0.181 -0.85
v 1.856 0.181 -0.85
v 1.809 0.134 -0.85
v 1.809 0.066 -0.85
v 1.856 0.019 -0.85
v 1.924 0.019 -0.85
v 1.971 0.066 -0.85
v 1.971 0.134 -0.838
v 1.924 0.181 -0.838
v 1.856 0.181 -0.838
v 1.809 0.134 -0.838
v 1.809 0.066 -0.838
v 1.856 0.019 -0.838
v 1.924 0.019 -0.838
v 1.971 0.066 -0.838
usemtl LogEnd
s off
f 930 929 928 927 926 925 924 923
f 931 932 933 934 935 936 937 938
f 923 924 932 931
f 924 925 933 932
f 925 926 934 933
f 926 927 935 934
f 927 928 936 935
f 928 929 937 936
f 929 930 938 937
f 930 923 931 938
o Billet
v 2.202 0.138 -1.8
v 2.148 0.192 -1.8
v 2.072 0.192 -1.8
v 2.018 0.138 -1.8
v 2.018 0.062 -1.8
v 2.072 0.008 -1.8
v 2.148 0.008 -1.8
v 2.202 0.062 -1.8
v 2.202 0.138 -0.85
v 2.148 0.192 -0.85
v 2.072 0.192 -0.85
v 2.018 0.138 -0.85
v 2.018 0.062 -0.85
v 2.072 0.008 -0.85
v 2.148 0.008 -0.85
v 2.202 0.062 -0.85
usemtl Bark
s off
f 946 945 944 943 942 941 940 939
f 947 948 949 950 951 952 953 954
f 939 940 948 947
f 940 941 949 948
f 941 942 950 949
f 942 943 951 950
f 943 944 952 951
f 944 945 953 952
f 945 946 954 953
f 946 939 947 954
o Billet.End
v 2.191 0.134 -0.85
v 2.144 0.181 -0.85
v 2.076 0.181 -0.85
v 2.029 0.134 -0.85
v 2.029 0.066 -0.85
v 2.076 0.019 -0.85
v 2.144 0.019 -0.85
v 2.191 0.066 -0.85
v 2.191 0.134 -0.838
v 2.144 0.181 -0.838
v 2.076 0.181 -0.838
v 2.029 0.134 -0.838
v 2.029 0.066 -0.838
v 2.076 0.019 -0.838
v 2.144 0.019 -0.838
v 2.191 0.066 -0.838
usemtl LogEnd
s off
f 962 961 960 959 958 957 956 955
f 963 964 965 966 967 968 969 970
f 955 956 964 963
f 956 957 965 964
f 957 958 966 965
f 958 959 967 966
f 959 960 968 967
f 960 961 969 968
f 961 962 970 969
f 962 955 963 970
o Billet
v 1.652 0.318 -1.8
v 1.598 0.372 -1.8
v 1.522 0.372 -1.8
v 1.468 0.318 -1.8
v 1.468 0.242 -1.8
v 1.522 0.188 -1.8
v 1.598 0.188 -1.8
v 1.652 0.242 -1.8
v 1.652 0.318 -0.85
v 1.598 0.372 -0.85
v 1.522 0.372 -0.85
v 1.468 0.318 -0.85
v 1.468 0.242 -0.85
v 1.522 0.188 -0.85
v 1.598 0.188 -0.85
v 1.652 0.242 -0.85
usemtl Bark
s off
f 978 977 976 975 974 973 972 971
f 979 980 981 982 983 984 985 986
f 971 972 980 979
f 972 973 981 980
f 973 974 982 981
f 974 975 983 982
f 975 976 984 983
f 976 977 985 984
f 977 978 986 985
f 978 971 979 986
o Billet.End
v 1.641 0.314 -0.85
v 1.594 0.361 -0.85
v 1.526 0.361 -0.85
v 1.479 0.314 -0.85
v 1.479 0.246 -0.85
v 1.526 0.199 -0.85
v 1.594 0.199 -0.85
v 1.641 0.246 -0.85
v 1.641 0.314 -0.838
v 1.594 0.361 -0.838
v 1.526 0.361 -0.838
v 1.479 0.314 -0.838
v 1.479 0.246 -0.838
v 1.526 0.199 -0.838
v 1.594 0.199 -0.838
v 1.641 0.246 -0.838
usemtl LogEnd
s off
f 994 993 992 991 990 989 988 987
f 995 996 997 998 999 1000 1001 1002
f 987 988 996 995
f 988 989 997 996
f 989 990 998 997
f 990 991 999 998
f 991 992 1000 999
f 992 993 1001 1000
f 993 994 1002 1001
f 994 987 995 1002
o Billet
v 1.872 0.318 -1.8
v 1.818 0.372 -1.8
v 1.742 0.372 -1.8
v 1.688 0.318 -1.8
v 1.688 0.242 -1.8
v 1.742 0.188 -1.8
v 1.818 0.188 -1.8
v 1.872 0.242 -1.8
v 1.872 0.318 -0.85
v 1.818 0.372 -0.85
v 1.742 0.372 -0.85
v 1.688 0.318 -0.85
v 1.688 0.242 -0.85
v 1.742 0.188 -0.85
v 1.818 0.188 -0.85
v 1.872 0.242 -0.85
usemtl Bark
s off
f 1010 1009 1008 1007 1006 1005 1004 1003
f 1011 1012 1013 1014 1015 1016 1017 1018
f 1003 1004 1012 1011
f 1004 1005 1013 1012
f 1005 1006 1014 1013
f 1006 1007 1015 1014
f 1007 1008 1016 1015
f 1008 1009 1017 1016
f 1009 1010 1018 1017
f 1010 1003 1011 1018
o Billet.End
v 1.861 0.314 -0.85
v 1.814 0.361 -0.85
v 1.746 0.361 -0.85
v 1.699 0.314 -0.85
v 1.699 0.246 -0.85
v 1.746 0.199 -0.85
v 1.814 0.199 -0.85
v 1.861 0.246 -0.85
v 1.861 0.314 -0.838
v 1.814 0.361 -0.838
v 1.746 0.361 -0.838
v 1.699 0.314 -0.838
v 1.699 0.246 -0.838
v 1.746 0.199 -0.838
v 1.814 0.199 -0.838
v 1.861 0.246 -0.838
usemtl LogEnd
s off
f 1026 1025 1024 1023 1022 1021 1020 1019
f 1027 1028 1029 1030 1031 1032 1033 1034
f 1019 1020 1028 1027
f 1020 1021 1029 1028
f 1021 1022 1030 1029
f 1022 1023 1031 1030
f 1023 1024 1032 1031
f 1024 1025 1033 1032
f 1025 1026 1034 1033
f 1026 1019 1027 1034
o Billet
v 2.092 0.318 -1.8
v 2.038 0.372 -1.8
v 1.962 0.372 -1.8
v 1.908 0.318 -1.8
v 1.908 0.242 -1.8
v 1.962 0.188 -1.8
v 2.038 0.188 -1.8
v 2.092 0.242 -1.8
v 2.092 0.318 -0.85
v 2.038 0.372 -0.85
v 1.962 0.372 -0.85
v 1.908 0.318 -0.85
v 1.908 0.242 -0.85
v 1.962 0.188 -0.85
v 2.038 0.188 -0.85
v 2.092 0.242 -0.85
usemtl Bark
s off
f 1042 1041 1040 1039 1038 1037 1036 1035
f 1043 1044 1045 1046 1047 1048 1049 1050
f 1035 1036 1044 1043
f 1036 1037 1045 1044
f 1037 1038 1046 1045
f 1038 1039 1047 1046
f 1039 1040 1048 1047
f 1040 1041 1049 1048
f 1041 1042 1050 1049
f 1042 1035 1043 1050
o Billet.End
v 2.081 0.314 -0.85
v 2.034 0.361 -0.85
v 1.966 0.361 -0.85
v 1.919 0.314 -0.85
v 1.919 0.246 -0.85
v 1.966 0.199 -0.85
v 2.034 0.199 -0.85
v 2.081 0.246 -0.85
v 2.081 0.314 -0.838
v 2.034 0.361 -0.838
v 1.966 0.361 -0.838
v 1.919 0.314 -0.838
v 1.919 0.246 -0.838
v 1.966 0.199 -0.838
v 2.034 0.199 -0.838
v 2.081 0.246 -0.838
usemtl LogEnd
s off
f 1058 1057 1056 1055 1054 1053 1052 1051
f 1059 1060 1061 1062 1063 1064 1065 1066
f 1051 1052 1060 1059
f 1052 1053 1061 1060
f 1053 1054 1062 1061
f 1054 1055 1063 1062
f 1055 1056 1064 1063
f 1056 1057 1065 1064
f 1057 1058 1066 1065
f 1058 1051 1059 1066
o Billet
v 1.762 0.498 -1.8
v 1.708 0.552 -1.8
v 1.632 0.552 -1.8
v 1.578 0.498 -1.8
v 1.578 0.422 -1.8
v 1.632 0.368 -1.8
v 1.708 0.368 -1.8
v 1.762 0.422 -1.8
v 1.762 0.498 -0.85
v 1.708 0.552 -0.85
v 1.632 0.552 -0.85
v 1.578 0.498 -0.85
v 1.578 0.422 -0.85
v 1.632 0.368 -0.85
v 1.708 0.368 -0.85
v 1.762 0.422 -0.85
usemtl Bark
s off
f 1074 1073 1072 1071 1070 1069 1068 1067
f 1075 1076 1077 1078 1079 1080 1081 1082
f 1067 1068 1076 1075
f 1068 1069 1077 1076
f 1069 1070 1078 1077
f 1070 1071 1079 1078
f 1071 1072 1080 1079
f 1072 1073 1081 1080
f 1073 1074 1082 1081
f 1074 1067 1075 1082
o Billet.End
v 1.751 0.494 -0.85
v 1.704 0.541 -0.85
v 1.636 0.541 -0.85
v 1.589 0.494 -0.85
v 1.589 0.426 -0.85
v 1.636 0.379 -0.85
v 1.704 0.379 -0.85
v 1.751 0.426 -0.85
v 1.751 0.494 -0.838
v 1.704 0.541 -0.838
v 1.636 0.541 -0.838
v 1.589 0.494 -0.838
v 1.589 0.426 -0.838
v 1.636 0.379 -0.838
v 1.704 0.379 -0.838
v 1.751 0.426 -0.838
usemtl LogEnd
s off
f 1090 1089 1088 1087 1086 1085 1084 1083
f 1091 1092 1093 1094 1095 1096 1097 1098
f 1083 1084 1092 1091
f 1084 1085 1093 1092
f 1085 1086 1094 1093
f 1086 1087 1095 1094
f 1087 1088 1096 1095
f 1088 1089 1097 1096
f 1089 1090 1098 1097
f 1090 1083 1091 1098
o Billet
v 1.982 0.498 -1.8
v 1.928 0.552 -1.8
v 1.852 0.552 -1.8
v 1.798 0.498 -1.8
v 1.798 0.422 -1.8
v 1.852 0.368 -1.8
v 1.928 0.368 -1.8
v 1.982 0.422 -1.8
v 1.982 0.498 -0.85
v 1.928 0.552 -0.85
v 1.852 0.552 -0.85
v 1.798 0.498 -0.85
v 1.798 0.422 -0.85
v 1.852 0.368 -0.85
v 1.928 0.368 -0.85
v 1.982 0.422 -0.85
usemtl Bark
s off
f 1106 1105 1104 1103 1102 1101 1100 1099
f 1107 1108 1109 1110 1111 1112 1113 1114
f 1099 1100 1108 1107
f 1100 1101 1109 1108
f 1101 1102 1110 1109
f 1102 1103 1111 1110
f 1103 1104 1112 1111
f 1104 1105 1113 1112
f 1105 1106 1114 1113
f 1106 1099 1107 1114
o Billet.End
v 1.971 0.494 -0.85
v 1.924 0.541 -0.85
v 1.856 0.541 -0.85
v 1.809 0.494 -0.85
v 1.809 0.426 -0.85
v 1.856 0.379 -0.85
v 1.924 0.379 -0.85
v 1.971 0.426 -0.85
v 1.971 0.494 -0.838
v 1.924 0.541 -0.838
v 1.856 0.541 -0.838
v 1.809 0.494 -0.838
v 1.809 0.426 -0.838
v 1.856 0.379 -0.838
v 1.924 0.379 -0.838
v 1.971 0.426 -0.838
usemtl LogEnd
s off
f 1122 1121 1120 1119 1118 1117 1116 1115
f 1123 1124 1125 1126 1127 1128 1129 1130
f 1115 1116 1124 1123
f 1116 1117 1125 1124
f 1117 1118 1126 1125
f 1118 1119 1127 1126
f 1119 1120 1128 1127
f 1120 1121 1129 1128
f 1121 1122 1130 1129
f 1122 1115 1123 1130
o Bench
v 0.15 0.72 0.8
v 0.15 0.72 1.2
v 1.55 0.72 1.2
v 1.55 0.72 0.8
v 0.15 0.8 0.8
v 0.15 0.8 1.2
v 1.55 0.8 1.2
v 1.55 0.8 0.8
usemtl WoodLight
s off
f 1134 1133 1132 1131
f 1135 1136 1137 1138
f 1131 1132 1136 1135
f 1132 1133 1137 1136
f 1133 1134 1138 1137
f 1134 1131 1135 1138
o Bench.Leg
v 0.225 -0.004 0.845
v 0.225 -0.004 0.915
v 0.155 0.004 0.915
v 0.155 0.004 0.845
v 0.305 0.716 0.845
v 0.305 0.716 0.915
v 0.235 0.724 0.915
v 0.235 0.724 0.845
usemtl Wood
s off
f 1142 1141 1140 1139
f 1143 1144 1145 1146
f 1139 1140 1144 1143
f 1140 1141 1145 1144
f 1141 1142 1146 1145
f 1142 1139 1143 1146
o Bench.Leg
v 0.225 -0.004 1.085
v 0.225 -0.004 1.155
v 0.155 0.004 1.155
v 0.155 0.004 1.085
v 0.305 0.716 1.085
v 0.305 0.716 1.155
v 0.235 0.724 1.155
v 0.235 0.724 1.085
usemtl Wood
s off
f 1150 1149 1148 1147
f 1151 1152 1153 1154
f 1147 1148 1152 1151
f 1148 1149 1153 1152
f 1149 1150 1154 1153
f 1150 1147 1151 1154
o Bench.Leg
v 1.545 0.004 0.845
v 1.545 0.004 0.915
v 1.475 -0.004 0.915
v 1.475 -0.004 0.845
v 1.465 0.724 0.845
v 1.465 0.724 0.915
v 1.395 0.716 0.915
v 1.395 0.716 0.845
usemtl Wood
s off
f 1158 1157 1156 1155
f 1159 1160 1161 1162
f 1155 1156 1160 1159
f 1156 1157 1161 1160
f 1157 1158 1162 1161
f 1158 1155 1159 1162
o Bench.Leg
v 1.545 0.004 1.085
v 1.545 0.004 1.155
v 1.475 -0.004 1.155
v 1.475 -0.004 1.085
v 1.465 0.724 1.085
v 1.465 0.724 1.155
v 1.395 0.716 1.155
v 1.395 0.716 1.085
usemtl Wood
s off
f 1166 1165 1164 1163
f 1167 1168 1169 1170
f 1163 1164 1168 1167
f 1164 1165 1169 1168
f 1165 1166 1170 1169
f 1166 1163 1167 1170
o Bench.Rail
v 0.25 0.3 0.97
v 0.25 0.3 1.03
v 1.45 0.3 1.03
v 1.45 0.3 0.97
v 0.25 0.36 0.97
v 0.25 0.36 1.03
v 1.45 0.36 1.03
v 1.45 0.36 0.97
usemtl Wood
s off
f 1174 1173 1172 1171
f 1175 1176 1177 1178
f 1171 1172 1176 1175
f 1172 1173 1177 1176
f 1173 1174 1178 1177
f 1174 1171 1175 1178
o Bench.Vise
v 0.2 0.8 0.9
v 0.2 0.8 1.1
v 0.35 0.8 1.1
v 0.35 0.8 0.9
v 0.2 0.92 0.9
v 0.2 0.92 1.1
v 0.35 0.92 1.1
v 0.35 0.92 0.9
usemtl WoodDark
s off
f 1182 1181 1180 1179
f 1183 1184 1185 1186
f 1179 1180 1184 1183
f 1180 1181 1185 1184
f 1181 1182 1186 1185
f 1182 1179 1183 1186
o Craft.0
v -0.05 0.8 0.955
v -0.05 0.8 1.045
v 1.63 0.8 1.045
v 1.63 0.8 0.955
v -0.05 0.88 0.955
v -0.05 0.88 1.045
v 1.63 0.88 1.045
v 1.63 0.88 0.955
usemtl WoodLight
s off
f 1190 1189 1188 1187
f 1191 1192 1193 1194
f 1187 1188 1192 1191
f 1188 1189 1193 1192
f 1189 1190 1194 1193
f 1190 1187 1191 1194
o Craft.0.Bark
v 0.05 0.88 0.97
v 0.05 0.88 1.03
v 1.33 0.88 1.03
v 1.33 0.88 0.97
v 0.05 0.89 0.97
v 0.05 0.89 1.03
v 1.33 0.89 1.03
v 1.33 0.89 0.97
usemtl Bark
s off
f 1198 1197 1196 1195
f 1199 1200 1201 1202
f 1195 1196 1200 1199
f 1196 1197 1201 1200
f 1197 1198 1202 1201
f 1198 1195 1199 1202
o Craft.1
v -0.051 0.852 1.012
v -0.051 0.852 0.988
v -0.049 0.828 0.988
v -0.049 0.828 1.012
v 0.159 0.874 1.017
v 0.159 0.874 0.983
v 0.161 0.841 0.983
v 0.161 0.841 1.017
usemtl WoodLight
s off
f 1206 1205 1204 1203
f 1207 1208 1209 1210
f 1203 1204 1208 1207
f 1204 1205 1209 1208
f 1205 1206 1210 1209
f 1206 1203 1207 1210
o Craft.1
v 0.159 0.874 1.017
v 0.159 0.874 0.983
v 0.161 0.841 0.983
v 0.161 0.841 1.017
v 0.369 0.891 1.021
v 0.369 0.891 0.979
v 0.371 0.849 0.979
v 0.371 0.849 1.021
usemtl WoodLight
s off
f 1214 1213 1212 1211
f 1215 1216 1217 1218
f 1211 1212 1216 1215
f 1212 1213 1217 1216
f 1213 1214 1218 1217
f 1214 1211 1215 1218
o Craft.1
v 0.369 0.891 1.021
v 0.369 0.891 0.979
v 0.371 0.849 0.979
v 0.371 0.849 1.021
v 0.579 0.903 1.026
v 0.579 0.903 0.974
v 0.581 0.852 0.974
v 0.581 0.852 1.026
usemtl WoodLight
s off
f 1222 1221 1220 1219
f 1223 1224 1225 1226
f 1219 1220 1224 1223
f 1220 1221 1225 1224
f 1221 1222 1226 1225
f 1222 1219 1223 1226
o Craft.1
v 0.58 0.903 1.026
v 0.58 0.903 0.974
v 0.58 0.852 0.974
v 0.58 0.852 1.026
v 0.79 0.91 1.03
v 0.79 0.91 0.97
v 0.79 0.85 0.97
v 0.79 0.85 1.03
usemtl WoodLight
s off
f 1230 1229 1228 1227
f 1231 1232 1233 1234
f 1227 1228 1232 1231
f 1228 1229 1233 1232
f 1229 1230 1234 1233
f 1230 1227 1231 1234
o Craft.1
v 0.79 0.91 1.03
v 0.79 0.91 0.97
v 0.79 0.85 0.97
v 0.79 0.85 1.03
v 1 0.903 1.026
v 1 0.903 0.974
v 1 0.852 0.974
v 1 0.852 1.026
usemtl WoodLight
s off
f 1238 1237 1236 1235
f 1239 1240 1241 1242
f 1235 1236 1240 1239
f 1236 1237 1241 1240
f 1237 1238 1242 1241
f 1238 1235 1239 1242
o Craft.1
v 1.001 0.903 1.026
v 1.001 0.903 0.974
v 0.999 0.852 0.974
v 0.999 0.852 1.026
v 1.211 0.891 1.021
v 1.211 0.891 0.979
v 1.209 0.849 0.979
v 1.209 0.849 1.021
usemtl WoodLight
s off
f 1246 1245 1244 1243
f 1247 1248 1249 1250
f 1243 1244 1248 1247
f 1244 1245 1249 1248
f 1245 1246 1250 1249
f 1246 1243 1247 1250
o Craft.1
v 1.211 0.891 1.021
v 1.211 0.891 0.979
v 1.209 0.849 0.979
v 1.209 0.849 1.021
v 1.421 0.874 1.017
v 1.421 0.874 0.983
v 1.419 0.841 0.983
v 1.419 0.841 1.017
usemtl WoodLight
s off
f 1254 1253 1252 1251
f 1255 1256 1257 1258
f 1251 1252 1256 1255
f 1252 1253 1257 1256
f 1253 1254 1258 1257
f 1254 1251 1255 1258
o Craft.1
v 1.421 0.874 1.017
v 1.421 0.874 0.983
v 1.419 0.841 0.983
v 1.419 0.841 1.017
v 1.631 0.852 1.012
v 1.631 0.852 0.988
v 1.629 0.828 0.988
v 1.629 0.828 1.012
usemtl WoodLight
s off
f 1262 1261 1260 1259
f 1263 1264 1265 1266
f 1259 1260 1264 1263
f 1260 1261 1265 1264
f 1261 1262 1266 1265
f 1262 1259 1263 1266
o Craft.2
v -0.043 0.861 1.07
v -0.057 0.861 1.03
v -0.057 0.819 1.03
v -0.043 0.819 1.07
v 0.168 0.866 1.005
v 0.152 0.866 0.955
v 0.152 0.814 0.955
v 0.168 0.814 1.005
usemtl Wood
s off
f 1270 1269 1268 1267
f 1271 1272 1273 1274
f 1267 1268 1272 1271
f 1268 1269 1273 1272
f 1269 1270 1274 1273
f 1270 1267 1271 1274
o Craft.2
v 0.166 0.866 1.006
v 0.154 0.866 0.954
v 0.154 0.814 0.954
v 0.166 0.814 1.006
v 0.377 0.872 0.961
v 0.363 0.872 0.899
v 0.363 0.809 0.899
v 0.377 0.809 0.961
usemtl Wood
s off
f 1278 1277 1276 1275
f 1279 1280 1281 1282
f 1275 1276 1280 1279
f 1276 1277 1281 1280
f 1277 1278 1282 1281
f 1278 1275 1279 1282
o Craft.2
v 0.374 0.872 0.961
v 0.366 0.872 0.899
v 0.366 0.809 0.899
v 0.374 0.809 0.961
v 0.585 0.877 0.936
v 0.575 0.877 0.864
v 0.575 0.803 0.864
v 0.585 0.803 0.936
usemtl Wood
s off
f 1286 1285 1284 1283
f 1287 1288 1289 1290
f 1283 1284 1288 1287
f 1284 1285 1289 1288
f 1285 1286 1290 1289
f 1286 1283 1287 1290
o Craft.2
v 0.582 0.877 0.937
v 0.578 0.877 0.863
v 0.578 0.803 0.863
v 0.582 0.803 0.937
v 0.792 0.882 0.932
v 0.788 0.882 0.848
v 0.788 0.798 0.848
v 0.792 0.798 0.932
usemtl Wood
s off
f 1294 1293 1292 1291
f 1295 1296 1297 1298
f 1291 1292 1296 1295
f 1292 1293 1297 1296
f 1293 1294 1298 1297
f 1294 1291 1295 1298
o Craft.2
v 0.788 0.882 0.932
v 0.792 0.882 0.848
v 0.792 0.798 0.848
v 0.788 0.798 0.932
v 0.998 0.877 0.937
v 1.002 0.877 0.863
v 1.002 0.803 0.863
v 0.998 0.803 0.937
usemtl Wood
s off
f 1302 1301 1300 1299
f 1303 1304 1305 1306
f 1299 1300 1304 1303
f 1300 1301 1305 1304
f 1301 1302 1306 1305
f 1302 1299 1303 1306
o Craft.2
v 0.995 0.877 0.936
v 1.005 0.877 0.864
v 1.005 0.803 0.864
v 0.995 0.803 0.936
v 1.206 0.872 0.961
v 1.214 0.872 0.899
v 1.214 0.809 0.899
v 1.206 0.809 0.961
usemtl Wood
s off
f 1310 1309 1308 1307
f 1311 1312 1313 1314
f 1307 1308 1312 1311
f 1308 1309 1313 1312
f 1309 1310 1314 1313
f 1310 1307 1311 1314
o Craft.2
v 1.203 0.872 0.961
v 1.217 0.872 0.899
v 1.217 0.809 0.899
v 1.203 0.809 0.961
v 1.414 0.866 1.006
v 1.426 0.866 0.954
v 1.426 0.814 0.954
v 1.414 0.814 1.006
usemtl Wood
s off
f 1318 1317 1316 1315
f 1319 1320 1321 1322
f 1315 1316 1320 1319
f 1316 1317 1321 1320
f 1317 1318 1322 1321
f 1318 1315 1319 1322
o Craft.2
v 1.412 0.866 1.005
v 1.428 0.866 0.955
v 1.428 0.814 0.955
v 1.412 0.814 1.005
v 1.623 0.861 1.07
v 1.637 0.861 1.03
v 1.637 0.819 1.03
v 1.623 0.819 1.07
usemtl Wood
s off
f 1326 1325 1324 1323
f 1327 1328 1329 1330
f 1323 1324 1328 1327
f 1324 1325 1329 1328
f 1325 1326 1330 1329
f 1326 1323 1327 1330
o Craft.2.Grip
v 0.706 0.889 0.941
v 0.706 0.889 0.843
v 0.706 0.791 0.843
v 0.706 0.791 0.941
v 0.874 0.889 0.941
v 0.874 0.889 0.843
v 0.874 0.791 0.843
v 0.874 0.791 0.941
usemtl WoodDark
s off
f 1334 1333 1332 1331
f 1335 1336 1337 1338
f 1331 1332 1336 1335
f 1332 1333 1337 1336
f 1333 1334 1338 1337
f 1334 1331 1335 1338
o Craft.2.String
v -0.05 0.848 1.058
v -0.05 0.848 1.042
v -0.05 0.832 1.042
v -0.05 0.832 1.058
v 1.63 0.848 1.058
v 1.63 0.848 1.042
v 1.63 0.832 1.042
v 1.63 0.832 1.058
usemtl Canvas
s off
f 1342 1341 1340 1339
f 1343 1344 1345 1346
f 1339 1340 1344 1343
f 1340 1341 1345 1344
f 1341 1342 1346 1345
f 1342 1339 1343 1346
o Shaving
v 1.05 0.03 0.975
v 1.05 0.03 1.025
v 1.17 0.03 1.025
v 1.17 0.03 0.975
v 1.05 0.05 0.975
v 1.05 0.05 1.025
v 1.17 0.05 1.025
v 1.17 0.05 0.975
usemtl WoodLight
s off
f 1350 1349 1348 1347
f 1351 1352 1353 1354
f 1347 1348 1352 1351
f 1348 1349 1353 1352
f 1349 1350 1354 1353
f 1350 1347 1351 1354
o Shaving
v 0.513 0.03 1.166
v 0.513 0.03 1.216
v 0.633 0.03 1.216
v 0.633 0.03 1.166
v 0.513 0.05 1.166
v 0.513 0.05 1.216
v 0.633 0.05 1.216
v 0.633 0.05 1.166
usemtl LogEnd
s off
f 1358 1357 1356 1355
f 1359 1360 1361 1362
f 1355 1356 1360 1359
f 1356 1357 1361 1360
f 1357 1358 1362 1361
f 1358 1355 1359 1362
o Shaving
v 0.726 0.03 0.625
v 0.726 0.03 0.675
v 0.846 0.03 0.675
v 0.846 0.03 0.625
v 0.726 0.05 0.625
v 0.726 0.05 0.675
v 0.846 0.05 0.675
v 0.846 0.05 0.625
usemtl LogEnd
s off
f 1366 1365 1364 1363
f 1367 1368 1369 1370
f 1363 1364 1368 1367
f 1364 1365 1369 1368
f 1365 1366 1370 1369
f 1366 1363 1367 1370
o Shaving
v 1.384 0.03 1.234
v 1.384 0.03 1.284
v 1.504 0.03 1.284
v 1.504 0.03 1.234
v 1.384 0.05 1.234
v 1.384 0.05 1.284
v 1.504 0.05 1.284
v 1.504 0.05 1.234
usemtl WoodLight
s off
f 1374 1373 1372 1371
f 1375 1376 1377 1378
f 1371 1372 1376 1375
f 1372 1373 1377 1376
f 1373 1374 1378 1377
f 1374 1371 1375 1378
o Shaving
v -0.072 0.03 1.096
v -0.072 0.03 1.146
v 0.048 0.03 1.146
v 0.048 0.03 1.096
v -0.072 0.05 1.096
v -0.072 0.05 1.146
v 0.048 0.05 1.146
v 0.048 0.05 1.096
usemtl LogEnd
s off
f 1382 1381 1380 1379
f 1383 1384 1385 1386
f 1379 1380 1384 1383
f 1380 1381 1385 1384
f 1381 1382 1386 1385
f 1382 1379 1383 1386
o Shaving
v 0.916 0.03 0.835
v 0.916 0.03 0.885
v 1.036 0.03 0.885
v 1.036 0.03 0.835
v 0.916 0.05 0.835
v 0.916 0.05 0.885
v 1.036 0.05 0.885
v 1.036 0.05 0.835
usemtl LogEnd
s off
f 1390 1389 1388 1387
f 1391 1392 1393 1394
f 1387 1388 1392 1391
f 1388 1389 1393 1392
f 1389 1390 1394 1393
f 1390 1387 1391 1394
o Shaving
v 0.928 0.03 1.217
v 0.928 0.03 1.267
v 1.048 0.03 1.267
v 1.048 0.03 1.217
v 0.928 0.05 1.217
v 0.928 0.05 1.267
v 1.048 0.05 1.267
v 1.048 0.05 1.217
usemtl WoodLight
s off
f 1398 1397 1396 1395
f 1399 1400 1401 1402
f 1395 1396 1400 1399
f 1396 1397 1401 1400
f 1397 1398 1402 1401
f 1398 1395 1399 1402
o Shaving
v 0.261 0.03 0.841
v 0.261 0.03 0.891
v 0.381 0.03 0.891
v 0.381 0.03 0.841
v 0.261 0.05 0.841
v 0.261 0.05 0.891
v 0.381 0.05 0.891
v 0.381 0.05 0.841
usemtl LogEnd
s off
f 1406 1405 1404 1403
f 1407 1408 1409 1410
f 1403 1404 1408 1407
f 1404 1405 1409 1408
f 1405 1406 1410 1409
f 1406 1403 1407 1410
o Shaving
v 1.446 0.03 0.78
v 1.446 0.03 0.83
v 1.566 0.03 0.83
v 1.566 0.03 0.78
v 1.446 0.05 0.78
v 1.446 0.05 0.83
v 1.566 0.05 0.83
v 1.566 0.05 0.78
usemtl LogEnd
s off
f 1414 1413 1412 1411
f 1415 1416 1417 1418
f 1411 1412 1416 1415
f 1412 1413 1417 1416
f 1413 1414 1418 1417
f 1414 1411 1415 1418
o Shaving
v 0.546 0.03 1.498
v 0.546 0.03 1.548
v 0.666 0.03 1.548
v 0.666 0.03 1.498
v 0.546 0.05 1.498
v 0.546 0.05 1.548
v 0.666 0.05 1.548
v 0.666 0.05 1.498
usemtl WoodLight
s off
f 1422 1421 1420 1419
f 1423 1424 1425 1426
f 1419 1420 1424 1423
f 1420 1421 1425 1424
f 1421 1422 1426 1425
f 1422 1419 1423 1426
o Shaving
v 0.651 0.03 0.84
v 0.651 0.03 0.89
v 0.771 0.03 0.89
v 0.771 0.03 0.84
v 0.651 0.05 0.84
v 0.651 0.05 0.89
v 0.771 0.05 0.89
v 0.771 0.05 0.84
usemtl LogEnd
s off
f 1430 1429 1428 1427
f 1431 1432 1433 1434
f 1427 1428 1432 1431
f 1428 1429 1433 1432
f 1429 1430 1434 1433
f 1430 1427 1431 1434
o Shaving
v 1.2 0.03 1.018
v 1.2 0.03 1.068
v 1.32 0.03 1.068
v 1.32 0.03 1.018
v 1.2 0.05 1.018
v 1.2 0.05 1.068
v 1.32 0.05 1.068
v 1.32 0.05 1.018
usemtl LogEnd
s off
f 1438 1437 1436 1435
f 1439 1440 1441 1442
f 1435 1436 1440 1439
f 1436 1437 1441 1440
f 1437 1438 1442 1441
f 1438 1435 1439 1442
o Shaving
v 0.343 0.03 1.195
v 0.343 0.03 1.245
v 0.463 0.03 1.245
v 0.463 0.03 1.195
v 0.343 0.05 1.195
v 0.343 0.05 1.245
v 0.463 0.05 1.245
v 0.463 0.05 1.195
usemtl WoodLight
s off
f 1446 1445 1444 1443
f 1447 1448 1449 1450
f 1443 1444 1448 1447
f 1444 1445 1449 1448
f 1445 1446 1450 1449
f 1446 1443 1447 1450
o Shaving
v 0.83 0.03 0.528
v 0.83 0.03 0.578
v 0.95 0.03 0.578
v 0.95 0.03 0.528
v 0.83 0.05 0.528
v 0.83 0.05 0.578
v 0.95 0.05 0.578
v 0.95 0.05 0.528
usemtl LogEnd
s off
f 1454 1453 1452 1451
f 1455 1456 1457 1458
f 1451 1452 1456 1455
f 1452 1453 1457 1456
f 1453 1454 1458 1457
f 1454 1451 1455 1458
o Target.Leg
v -1.967 -0.011 1.265
v -1.967 -0.013 1.335
v -2.033 0.011 1.335
v -2.033 0.013 1.265
v -1.517 1.239 1.295
v -1.517 1.237 1.365
v -1.583 1.261 1.365
v -1.583 1.263 1.295
usemtl Wood
s off
f 1462 1461 1460 1459
f 1463 1464 1465 1466
f 1459 1460 1464 1463
f 1460 1461 1465 1464
f 1461 1462 1466 1465
f 1462 1459 1463 1466
o Target.Leg
v -1.067 0.013 1.265
v -1.067 0.011 1.335
v -1.133 -0.013 1.335
v -1.133 -0.011 1.265
v -1.517 1.263 1.295
v -1.517 1.261 1.365
v -1.583 1.237 1.365
v -1.583 1.239 1.295
usemtl Wood
s off
f 1470 1469 1468 1467
f 1471 1472 1473 1474
f 1467 1468 1472 1471
f 1468 1469 1473 1472
f 1469 1470 1474 1473
f 1470 1467 1471 1474
o Target.Leg
v -1.515 0.013 0.817
v -1.515 -0.013 0.883
v -1.585 -0.013 0.883
v -1.585 0.013 0.817
v -1.515 1.263 1.297
v -1.515 1.237 1.363
v -1.585 1.237 1.363
v -1.585 1.263 1.297
usemtl Wood
s off
f 1478 1477 1476 1475
f 1479 1480 1481 1482
f 1475 1476 1480 1479
f 1476 1477 1481 1480
f 1477 1478 1482 1481
f 1478 1475 1479 1482
o Target
v -1.079 1.144 1.35
v -1.151 1.317 1.35
v -1.283 1.449 1.35
v -1.456 1.521 1.35
v -1.644 1.521 1.35
v -1.817 1.449 1.35
v -1.949 1.317 1.35
v -2.021 1.144 1.35
v -2.021 0.956 1.35
v -1.949 0.783 1.35
v -1.817 0.651 1.35
v -1.644 0.579 1.35
v -1.456 0.579 1.35
v -1.283 0.651 1.35
v -1.151 0.783 1.35
v -1.079 0.956 1.35
v -1.079 1.144 1.55
v -1.151 1.317 1.55
v -1.283 1.449 1.55
v -1.456 1.521 1.55
v -1.644 1.521 1.55
v -1.817 1.449 1.55
v -1.949 1.317 1.55
v -2.021 1.144 1.55
v -2.021 0.956 1.55
v -1.949 0.783 1.55
v -1.817 0.651 1.55
v -1.644 0.579 1.55
v -1.456 0.579 1.55
v -1.283 0.651 1.55
v -1.151 0.783 1.55
v -1.079 0.956 1.55
usemtl Straw
s off
f 1498 1497 1496 1495 1494 1493 1492 1491 1490 1489 1488 1487 1486 1485 1484 1483
f 1499 1500 1501 1502 1503 1504 1505 1506 1507 1508 1509 1510 1511 1512 1513 1514
f 1483 1484 1500 1499
f 1484 1485 1501 1500
f 1485 1486 1502 1501
f 1486 1487 1503 1502
f 1487 1488 1504 1503
f 1488 1489 1505 1504
f 1489 1490 1506 1505
f 1490 1491 1507 1506
f 1491 1492 1508 1507
f 1492 1493 1509 1508
f 1493 1494 1510 1509
f 1494 1495 1511 1510
f 1495 1496 1512 1511
f 1496 1497 1513 1512
f 1497 1498 1514 1513
f 1498 1483 1499 1514
o Target.Ring
v -1.197 1.12 1.55
v -1.251 1.25 1.55
v -1.35 1.349 1.55
v -1.48 1.403 1.55
v -1.62 1.403 1.55
v -1.75 1.349 1.55
v -1.849 1.25 1.55
v -1.903 1.12 1.55
v -1.903 0.98 1.55
v -1.849 0.85 1.55
v -1.75 0.751 1.55
v -1.62 0.697 1.55
v -1.48 0.697 1.55
v -1.35 0.751 1.55
v -1.251 0.85 1.55
v -1.197 0.98 1.55
v -1.197 1.12 1.56
v -1.251 1.25 1.56
v -1.35 1.349 1.56
v -1.48 1.403 1.56
v -1.62 1.403 1.56
v -1.75 1.349 1.56
v -1.849 1.25 1.56
v -1.903 1.12 1.56
v -1.903 0.98 1.56
v -1.849 0.85 1.56
v -1.75 0.751 1.56
v -1.62 0.697 1.56
v -1.48 0.697 1.56
v -1.35 0.751 1.56
v -1.251 0.85 1.56
v -1.197 0.98 1.56
usemtl Paint
s off
f 1530 1529 1528 1527 1526 1525 1524 1523 1522 1521 1520 1519 1518 1517 1516 1515
f 1531 1532 1533 1534 1535 1536 1537 1538 1539 1540 1541 1542 1543 1544 1545 1546
f 1515 1516 1532 1531
f 1516 1517 1533 1532
f 1517 1518 1534 1533
f 1518 1519 1535 1534
f 1519 1520 1536 1535
f 1520 1521 1537 1536
f 1521 1522 1538 1537
f 1522 1523 1539 1538
f 1523 1524 1540 1539
f 1524 1525 1541 1540
f 1525 1526 1542 1541
f 1526 1527 1543 1542
f 1527 1528 1544 1543
f 1528 1529 1545 1544
f 1529 1530 1546 1545
f 1530 1515 1531 1546
o Target.Ring
v -1.305 1.099 1.55
v -1.342 1.189 1.55
v -1.411 1.258 1.55
v -1.501 1.295 1.55
v -1.599 1.295 1.55
v -1.689 1.258 1.55
v -1.758 1.189 1.55
v -1.795 1.099 1.55
v -1.795 1.001 1.55
v -1.758 0.911 1.55
v -1.689 0.842 1.55
v -1.599 0.805 1.55
v -1.501 0.805 1.55
v -1.411 0.842 1.55
v -1.342 0.911 1.55
v -1.305 1.001 1.55
v -1.305 1.099 1.57
v -1.342 1.189 1.57
v -1.411 1.258 1.57
v -1.501 1.295 1.57
v -1.599 1.295 1.57
v -1.689 1.258 1.57
v -1.758 1.189 1.57
v -1.795 1.099 1.57
v -1.795 1.001 1.57
v -1.758 0.911 1.57
v -1.689 0.842 1.57
v -1.599 0.805 1.57
v -1.501 0.805 1.57
v -1.411 0.842 1.57
v -1.342 0.911 1.57
v -1.305 1.001 1.57
usemtl Canvas
s off
f 1562 1561 1560 1559 1558 1557 1556 1555 1554 1553 1552 1551 1550 1549 1548 1547
f 1563 1564 1565 1566 1567 1568 1569 1570 1571 1572 1573 1574 1575 1576 1577 1578
f 1547 1548 1564 1563
f 1548 1549 1565 1564
f 1549 1550 1566 1565
f 1550 1551 1567 1566
f 1551 1552 1568 1567
f 1552 1553 1569 1568
f 1553 1554 1570 1569
f 1554 1555 1571 1570
f 1555 1556 1572 1571
f 1556 1557 1573 1572
f 1557 1558 1574 1573
f 1558 1559 1575 1574
f 1559 1560 1576 1575
f 1560 1561 1577 1576
f 1561 1562 1578 1577
f 1562 1547 1563 1578
o Target.Ring
v -1.413 1.077 1.55
v -1.434 1.128 1.55
v -1.472 1.166 1.55
v -1.523 1.187 1.55
v -1.577 1.187 1.55
v -1.628 1.166 1.55
v -1.666 1.128 1.55
v -1.687 1.077 1.55
v -1.687 1.023 1.55
v -1.666 0.972 1.55
v -1.628 0.934 1.55
v -1.577 0.913 1.55
v -1.523 0.913 1.55
v -1.472 0.934 1.55
v -1.434 0.972 1.55
v -1.413 1.023 1.55
v -1.413 1.077 1.58
v -1.434 1.128 1.58
v -1.472 1.166 1.58
v -1.523 1.187 1.58
v -1.577 1.187 1.58
v -1.628 1.166 1.58
v -1.666 1.128 1.58
v -1.687 1.077 1.58
v -1.687 1.023 1.58
v -1.666 0.972 1.58
v -1.628 0.934 1.58
v -1.577 0.913 1.58
v -1.523 0.913 1.58
v -1.472 0.934 1.58
v -1.434 0.972 1.58
v -1.413 1.023 1.58
usemtl Paint
s off
f 1594 1593 1592 1591 1590 1589 1588 1587 1586 1585 1584 1583 1582 1581 1580 1579
f 1595 1596 1597 1598 1599 1600 1601 1602 1603 1604 1605 1606 1607 1608 1609 1610
f 1579 1580 1596 1595
f 1580 1581 1597 1596
f 1581 1582 1598 1597
f 1582 1583 1599 1598
f 1583 1584 1600 1599
f 1584 1585 1601 1600
f 1585 1586 1602 1601
f 1586 1587 1603 1602
f 1587 1588 1604 1603
f 1588 1589 1605 1604
f 1589 1590 1606 1605
f 1590 1591 1607 1606
f 1591 1592 1608 1607
f 1592 1593 1609 1608
f 1593 1594 1610 1609
f 1594 1579 1595 1610
o Target.Ring
v -1.501 1.06 1.55
v -1.508 1.078 1.55
v -1.522 1.092 1.55
v -1.54 1.099 1.55
v -1.56 1.099 1.55
v -1.578 1.092 1.55
v -1.592 1.078 1.55
v -1.599 1.06 1.55
v -1.599 1.04 1.55
v -1.592 1.022 1.55
v -1.578 1.008 1.55
v -1.56 1.001 1.55
v -1.54 1.001 1.55
v -1.522 1.008 1.55
v -1.508 1.022 1.55
v -1.501 1.04 1.55
v -1.501 1.06 1.59
v -1.508 1.078 1.59
v -1.522 1.092 1.59
v -1.54 1.099 1.59
v -1.56 1.099 1.59
v -1.578 1.092 1.59
v -1.592 1.078 1.59
v -1.599 1.06 1.59
v -1.599 1.04 1.59
v -1.592 1.022 1.59
v -1.578 1.008 1.59
v -1.56 1.001 1.59
v -1.54 1.001 1.59
v -1.522 1.008 1.59
v -1.508 1.022 1.59
v -1.501 1.04 1.59
usemtl Gold
s off
f 1626 1625 1624 1623 1622 1621 1620 1619 1618 1617 1616 1615 1614 1613 1612 1611
f 1627 1628 1629 1630 1631 1632 1633 1634 1635 1636 1637 1638 1639 1640 1641 1642
f 1611 1612 1628 1627
f 1612 1613 1629 1628
f 1613 1614 1630 1629
f 1614 1615 1631 1630
f 1615 1616 1632 1631
f 1616 1617 1633 1632
f 1617 1618 1634 1633
f 1618 1619 1635 1634
f 1619 1620 1636 1635
f 1620 1621 1637 1636
f 1621 1622 1638 1637
f 1622 1623 1639 1638
f 1623 1624 1640 1639
f 1624 1625 1641 1640
f 1625 1626 1642 1641
f 1626 1611 1627 1642
o Arrow
v -1.48 1.16 1.549
v -1.46 1.16 1.548
v -1.46 1.14 1.551
v -1.48 1.14 1.552
v -1.44 1.24 2.099
v -1.42 1.24 2.098
v -1.42 1.22 2.101
v -1.44 1.22 2.102
usemtl WoodLight
s off
f 1646 1645 1644 1643
f 1647 1648 1649 1650
f 1643 1644 1648 1647
f 1644 1645 1649 1648
f 1645 1646 1650 1649
f 1646 1643 1647 1650
o Arrow.Fletch
v -1.464 1.235 1.948
v -1.414 1.235 1.945
v -1.414 1.185 1.952
v -1.464 1.185 1.955
v -1.44 1.24 2.099
v -1.42 1.24 2.098
v -1.42 1.22 2.101
v -1.44 1.22 2.102
usemtl Feather
s off
f 1654 1653 1652 1651
f 1655 1656 1657 1658
f 1651 1652 1656 1655
f 1652 1653 1657 1656
f 1653 1654 1658 1657
f 1654 1651 1655 1658
o Arrow
v -1.76 1.01 1.547
v -1.74 1.01 1.55
v -1.74 0.99 1.553
v -1.76 0.99 1.55
v -1.82 1.09 2.097
v -1.8 1.09 2.1
v -1.8 1.07 2.103
v -1.82 1.07 2.1
usemtl WoodLight
s off
f 1662 1661 1660 1659
f 1663 1664 1665 1666
f 1659 1660 1664 1663
f 1660 1661 1665 1664
f 1661 1662 1666 1665
f 1662 1659 1663 1666
o Arrow.Fletch
v -1.821 1.085 1.944
v -1.771 1.085 1.949
v -1.772 1.035 1.956
v -1.822 1.035 1.951
v -1.82 1.09 2.098
v -1.8 1.09 2.1
v -1.8 1.07 2.102
v -1.82 1.07 2.1
usemtl Feather
s off
f 1670 1669 1668 1667
f 1671 1672 1673 1674
f 1667 1668 1672 1671
f 1668 1669 1673 1672
f 1669 1670 1674 1673
f 1670 1667 1671 1674
o Arrow
v -1.31 0.84 1.55
v -1.29 0.84 1.547
v -1.29 0.82 1.55
v -1.31 0.82 1.553
v -1.23 0.92 2.1
v -1.21 0.92 2.097
v -1.21 0.9 2.1
v -1.23 0.9 2.103
usemtl WoodLight
s off
f 1678 1677 1676 1675
f 1679 1680 1681 1682
f 1675 1676 1680 1679
f 1676 1677 1681 1680
f 1677 1678 1682 1681
f 1678 1675 1679 1682
o Arrow.Fletch
v -1.263 0.915 1.95
v -1.214 0.915 1.944
v -1.213 0.865 1.95
v -1.262 0.865 1.956
v -1.23 0.92 2.1
v -1.21 0.92 2.098
v -1.21 0.9 2.1
v -1.23 0.9 2.102
usemtl Feather
s off
f 1686 1685 1684 1683
f 1687 1688 1689 1690
f 1683 1684 1688 1687
f 1684 1685 1689 1688
f 1685 1686 1690 1689
f 1686 1683 1687 1690
o Barrel
v -0.306 0 1.713
v -0.38 0 1.815
v -0.5 0 1.854
v -0.62 0 1.815
v -0.694 0 1.713
v -0.694 0 1.587
v -0.62 0 1.485
v -0.5 0 1.446
v -0.38 0 1.485
v -0.306 0 1.587
v -0.272 0.375 1.724
v -0.359 0.375 1.844
v -0.5 0.375 1.89
v -0.641 0.375 1.844
v -0.728 0.375 1.724
v -0.728 0.375 1.576
v -0.641 0.375 1.456
v -0.5 0.375 1.41
v -0.359 0.375 1.456
v -0.272 0.375 1.576
usemtl Wood
s off
f 1700 1699 1698 1697 1696 1695 1694 1693 1692 1691
f 1701 1702 1703 1704 1705 1706 1707 1708 1709 1710
f 1691 1692 1702 1701
f 1692 1693 1703 1702
f 1693 1694 1704 1703
f 1694 1695 1705 1704
f 1695 1696 1706 1705
f 1696 1697 1707 1706
f 1697 1698 1708 1707
f 1698 1699 1709 1708
f 1699 1700 1710 1709
f 1700 1691 1701 1710
o Barrel
v -0.272 0.375 1.724
v -0.359 0.375 1.844
v -0.5 0.375 1.89
v -0.641 0.375 1.844
v -0.728 0.375 1.724
v -0.728 0.375 1.576
v -0.641 0.375 1.456
v -0.5 0.375 1.41
v -0.359 0.375 1.456
v -0.272 0.375 1.576
v -0.306 0.75 1.713
v -0.38 0.75 1.815
v -0.5 0.75 1.854
v -0.62 0.75 1.815
v -0.694 0.75 1.713
v -0.694 0.75 1.587
v -0.62 0.75 1.485
v -0.5 0.75 1.446
v -0.38 0.75 1.485
v -0.306 0.75 1.587
usemtl Wood
s off
f 1720 1719 1718 1717 1716 1715 1714 1713 1712 1711
f 1721 1722 1723 1724 1725 1726 1727 1728 1729 1730
f 1711 1712 1722 1721
f 1712 1713 1723 1722
f 1713 1714 1724 1723
f 1714 1715 1725 1724
f 1715 1716 1726 1725
f 1716 1717 1727 1726
f 1717 1718 1728 1727
f 1718 1719 1729 1728
f 1719 1720 1730 1729
f 1720 1711 1721 1730
o Barrel.Hoop
v -0.273 0.112 1.724
v -0.36 0.112 1.843
v -0.5 0.112 1.889
v -0.64 0.112 1.843
v -0.727 0.112 1.724
v -0.727 0.112 1.576
v -0.64 0.112 1.457
v -0.5 0.112 1.411
v -0.36 0.112 1.457
v -0.273 0.112 1.576
v -0.273 0.162 1.724
v -0.36 0.162 1.843
v -0.5 0.162 1.889
v -0.64 0.162 1.843
v -0.727 0.162 1.724
v -0.727 0.162 1.576
v -0.64 0.162 1.457
v -0.5 0.162 1.411
v -0.36 0.162 1.457
v -0.273 0.162 1.576
usemtl Iron
s off
f 1740 1739 1738 1737 1736 1735 1734 1733 1732 1731
f 1741 1742 1743 1744 1745 1746 1747 1748 1749 1750
f 1731 1732 1742 1741
f 1732 1733 1743 1742
f 1733 1734 1744 1743
f 1734 1735 1745 1744
f 1735 1736 1746 1745
f 1736 1737 1747 1746
f 1737 1738 1748 1747
f 1738 1739 1749 1748
f 1739 1740 1750 1749
f 1740 1731 1741 1750
o Barrel.Hoop
v -0.27 0.6 1.725
v -0.358 0.6 1.846
v -0.5 0.6 1.892
v -0.642 0.6 1.846
v -0.73 0.6 1.725
v -0.73 0.6 1.575
v -0.642 0.6 1.454
v -0.5 0.6 1.408
v -0.358 0.6 1.454
v -0.27 0.6 1.575
v -0.27 0.65 1.725
v -0.358 0.65 1.846
v -0.5 0.65 1.892
v -0.642 0.65 1.846
v -0.73 0.65 1.725
v -0.73 0.65 1.575
v -0.642 0.65 1.454
v -0.5 0.65 1.408
v -0.358 0.65 1.454
v -0.27 0.65 1.575
usemtl Iron
s off
f 1760 1759 1758 1757 1756 1755 1754 1753 1752 1751
f 1761 1762 1763 1764 1765 1766 1767 1768 1769 1770
f 1751 1752 1762 1761
f 1752 1753 1763 1762
f 1753 1754 1764 1763
f 1754 1755 1765 1764
f 1755 1756 1766 1765
f 1756 1757 1767 1766
f 1757 1758 1768 1767
f 1758 1759 1769 1768
f 1759 1760 1770 1769
f 1760 1751 1761 1770
o Barrel.Lid
v -0.322 0.75 1.708
v -0.39 0.75 1.801
v -0.5 0.75 1.837
v -0.61 0.75 1.801
v -0.678 0.75 1.708
v -0.678 0.75 1.592
v -0.61 0.75 1.499
v -0.5 0.75 1.463
v -0.39 0.75 1.499
v -0.322 0.75 1.592
v -0.322 0.77 1.708
v -0.39 0.77 1.801
v -0.5 0.77 1.837
v -0.61 0.77 1.801
v -0.678 0.77 1.708
v -0.678 0.77 1.592
v -0.61 0.77 1.499
v -0.5 0.77 1.463
v -0.39 0.77 1.499
v -0.322 0.77 1.592
usemtl WoodDark
s off
f 1780 1779 1778 1777 1776 1775 1774 1773 1772 1771
f 1781 1782 1783 1784 1785 1786 1787 1788 1789 1790
f 1771 1772 1782 1781
f 1772 1773 1783 1782
f 1773 1774 1784 1783
f 1774 1775 1785 1784
f 1775 1776 1786 1785
f 1776 1777 1787 1786
f 1777 1778 1788 1787
f 1778 1779 1789 1788
f 1779 1780 1790 1789
f 1780 1771 1781 1790
o Arrow
v -0.46 0.499 1.64
v -0.46 0.499 1.66
v -0.48 0.501 1.66
v -0.48 0.501 1.64
v -0.4 1.249 1.64
v -0.4 1.249 1.66
v -0.42 1.251 1.66
v -0.42 1.251 1.64
usemtl WoodLight
s off
f 1794 1793 1792 1791
f 1795 1796 1797 1798
f 1791 1792 1796 1795
f 1792 1793 1797 1796
f 1793 1794 1798 1797
f 1794 1791 1795 1798
o Arrow.Fletch
v -0.385 1.11 1.625
v -0.385 1.11 1.675
v -0.435 1.11 1.675
v -0.435 1.11 1.625
v -0.4 1.25 1.64
v -0.4 1.25 1.66
v -0.42 1.25 1.66
v -0.42 1.25 1.64
usemtl Feather
s off
f 1802 1801 1800 1799
f 1803 1804 1805 1806
f 1799 1800 1804 1803
f 1800 1801 1805 1804
f 1801 1802 1806 1805
f 1802 1799 1803 1806
o Arrow
v -0.549 0.501 1.694
v -0.549 0.5 1.714
v -0.569 0.499 1.714
v -0.569 0.5 1.694
v -0.593 1.301 1.735
v -0.593 1.3 1.755
v -0.613 1.299 1.755
v -0.613 1.3 1.735
usemtl WoodLight
s off
f 1810 1809 1808 1807
f 1811 1812 1813 1814
f 1807 1808 1812 1811
f 1808 1809 1813 1812
f 1809 1810 1814 1813
f 1810 1807 1811 1814
o Arrow.Fletch
v -0.578 1.16 1.72
v -0.578 1.16 1.77
v -0.628 1.16 1.77
v -0.628 1.16 1.72
v -0.593 1.3 1.735
v -0.593 1.3 1.755
v -0.613 1.3 1.755
v -0.613 1.3 1.735
usemtl Feather
s off
f 1818 1817 1816 1815
f 1819 1820 1821 1822
f 1815 1816 1820 1819
f 1816 1817 1821 1820
f 1817 1818 1822 1821
f 1818 1815 1819 1822
o Arrow
v -0.479 0.499 1.511
v -0.479 0.501 1.53
v -0.499 0.501 1.53
v -0.499 0.499 1.511
v -0.473 1.249 1.451
v -0.473 1.251 1.471
v -0.493 1.251 1.471
v -0.493 1.249 1.451
usemtl WoodLight
s off
f 1826 1825 1824 1823
f 1827 1828 1829 1830
f 1823 1824 1828 1827
f 1824 1825 1829 1828
f 1825 1826 1830 1829
f 1826 1823 1827 1830
o Arrow.Fletch
v -0.458 1.11 1.436
v -0.458 1.11 1.486
v -0.508 1.11 1.486
v -0.508 1.11 1.436
v -0.473 1.25 1.451
v -0.473 1.25 1.471
v -0.493 1.25 1.471
v -0.493 1.25 1.451
usemtl Feather
s off
f 1834 1833 1832 1831
f 1835 1836 1837 1838
f 1831 1832 1836 1835
f 1832 1833 1837 1836
f 1833 1834 1838 1837
f 1834 1831 1835 1838
o Arrow
v -0.472 0.5 1.664
v -0.472 0.499 1.684
v -0.492 0.5 1.684
v -0.492 0.501 1.664
v -0.435 1.3 1.711
v -0.435 1.299 1.731
v -0.455 1.3 1.731
v -0.455 1.301 1.711
usemtl WoodLight
s off
f 1842 1841 1840 1839
f 1843 1844 1845 1846
f 1839 1840 1844 1843
f 1840 1841 1845 1844
f 1841 1842 1846 1845
f 1842 1839 1843 1846
o Arrow.Fletch
v -0.42 1.16 1.696
v -0.42 1.16 1.746
v -0.47 1.16 1.746
v -0.47 1.16 1.696
v -0.435 1.3 1.711
v -0.435 1.3 1.731
v -0.455 1.3 1.731
v -0.455 1.3 1.711
usemtl Feather
s off
f 1850 1849 1848 1847
f 1851 1852 1853 1854
f 1847 1848 1852 1851
f 1848 1849 1853 1852
f 1849 1850 1854 1853
f 1850 1847 1851 1854
o Arrow
v -0.569 0.501 1.626
v -0.569 0.501 1.646
v -0.589 0.499 1.646
v -0.589 0.499 1.626
v -0.628 1.251 1.616
v -0.628 1.251 1.636
v -0.648 1.249 1.636
v -0.648 1.249 1.616
usemtl WoodLight
s off
f 1858 1857 1856 1855
f 1859 1860 1861 1862
f 1855 1856 1860 1859
f 1856 1857 1861 1860
f 1857 1858 1862 1861
f 1858 1855 1859 1862
o Arrow.Fletch
v -0.613 1.11 1.601
v -0.613 1.11 1.651
v -0.663 1.11 1.651
v -0.663 1.11 1.601
v -0.628 1.25 1.616
v -0.628 1.25 1.636
v -0.648 1.25 1.636
v -0.648 1.25 1.616
usemtl Feather
s off
f 1866 1865 1864 1863
f 1867 1868 1869 1870
f 1863 1864 1868 1867
f 1864 1865 1869 1868
f 1865 1866 1870 1869
f 1866 1863 1867 1870
o Arrow
v -0.38 0.499 1.57
v -0.38 0.5 1.59
v -0.4 0.501 1.59
v -0.4 0.5 1.57
v -0.33 1.299 1.538
v -0.33 1.3 1.558
v -0.35 1.301 1.558
v -0.35 1.3 1.538
usemtl WoodLight
s off
f 1874 1873 1872 1871
f 1875 1876 1877 1878
f 1871 1872 1876 1875
f 1872 1873 1877 1876
f 1873 1874 1878 1877
f 1874 1871 1875 1878
o Arrow.Fletch
v -0.315 1.16 1.523
v -0.315 1.16 1.573
v -0.365 1.16 1.573
v -0.365 1.16 1.523
v -0.33 1.3 1.538
v -0.33 1.3 1.558
v -0.35 1.3 1.558
v -0.35 1.3 1.538
usemtl Feather
s off
f 1882 1881 1880 1879
f 1883 1884 1885 1886
f 1879 1880 1884 1883
f 1880 1881 1885 1884
f 1881 1882 1886 1885
f 1882 1879 1883 1886
o Arrow
v -0.498 0.501 1.669
v -0.498 0.499 1.689
v -0.518 0.499 1.689
v -0.518 0.501 1.669
v -0.513 1.251 1.727
v -0.513 1.249 1.747
v -0.533 1.249 1.747
v -0.533 1.251 1.727
usemtl WoodLight
s off
f 1890 1889 1888 1887
f 1891 1892 1893 1894
f 1887 1888 1892 1891
f 1888 1889 1893 1892
f 1889 1890 1894 1893
f 1890 1887 1891 1894
o Arrow.Fletch
v -0.498 1.11 1.712
v -0.498 1.11 1.762
v -0.548 1.11 1.762
v -0.548 1.11 1.712
v -0.513 1.25 1.727
v -0.513 1.25 1.747
v -0.533 1.25 1.747
v -0.533 1.25 1.727
usemtl Feather
s off
f 1898 1897 1896 1895
f 1899 1900 1901 1902
f 1895 1896 1900 1899
f 1896 1897 1901 1900
f 1897 1898 1902 1901
f 1898 1895 1899 1902
o Arrow
v -0.527 0.5 1.569
v -0.527 0.501 1.589
v -0.547 0.5 1.589
v -0.547 0.499 1.569
v -0.555 1.3 1.516
v -0.555 1.301 1.536
v -0.574 1.3 1.536
v -0.574 1.299 1.516
usemtl WoodLight
s off
f 1906 1905 1904 1903
f 1907 1908 1909 1910
f 1903 1904 1908 1907
f 1904 1905 1909 1908
f 1905 1906 1910 1909
f 1906 1903 1907 1910
o Arrow.Fletch
v -0.539 1.16 1.501
v -0.539 1.16 1.551
v -0.589 1.16 1.551
v -0.589 1.16 1.501
v -0.554 1.3 1.516
v -0.554 1.3 1.536
v -0.574 1.3 1.536
v -0.574 1.3 1.516
usemtl Feather
s off
f 1914 1913 1912 1911
f 1915 1916 1917 1918
f 1911 1912 1916 1915
f 1912 1913 1917 1916
f 1913 1914 1918 1917
f 1914 1911 1915 1918
o Arrow
v -0.368 0.5 1.685
v -0.368 0.499 1.705
v -0.388 0.5 1.705
v -0.388 0.501 1.685
v -0.312 1.25 1.705
v -0.312 1.249 1.725
v -0.332 1.25 1.725
v -0.332 1.251 1.705
usemtl WoodLight
s off
f 1922 1921 1920 1919
f 1923 1924 1925 1926
f 1919 1920 1924 1923
f 1920 1921 1925 1924
f 1921 1922 1926 1925
f 1922 1919 1923 1926
o Arrow.Fletch
v -0.297 1.11 1.69
v -0.297 1.11 1.74
v -0.347 1.11 1.74
v -0.347 1.11 1.69
v -0.312 1.25 1.705
v -0.312 1.25 1.725
v -0.332 1.25 1.725
v -0.332 1.25 1.705
usemtl Feather
s off
f 1930 1929 1928 1927
f 1931 1932 1933 1934
f 1927 1928 1932 1931
f 1928 1929 1933 1932
f 1929 1930 1934 1933
f 1930 1927 1931 1934
o Lantern
v 0.18 1.53 -0.07
v 0.18 1.53 0.07
v 0.32 1.53 0.07
v 0.32 1.53 -0.07
v 0.18 1.55 -0.07
v 0.18 1.55 0.07
v 0.32 1.55 0.07
v 0.32 1.55 -0.07
usemtl Iron
s off
f 1938 1937 1936 1935
f 1939 1940 1941 1942
f 1935 1936 1940 1939
f 1936 1937 1941 1940
f 1937 1938 1942 1941
f 1938 1935 1939 1942
o Lantern.Flame
v 0.2 1.55 -0.05
v 0.2 1.55 0.05
v 0.3 1.55 0.05
v 0.3 1.55 -0.05
v 0.2 1.69 -0.05
v 0.2 1.69 0.05
v 0.3 1.69 0.05
v 0.3 1.69 -0.05
usemtl Flame
s off
f 1946 1945 1944 1943
f 1947 1948 1949 1950
f 1943 1944 1948 1947
f 1944 1945 1949 1948
f 1945 1946 1950 1949
f 1946 1943 1947 1950
o Lantern.Cap
v 0.17 1.69 -0.08
v 0.17 1.69 0.08
v 0.33 1.69 0.08
v 0.33 1.69 -0.08
v 0.23 1.75 -0.02
v 0.23 1.75 0.02
v 0.27 1.75 0.02
v 0.27 1.75 -0.02
usemtl Iron
s off
f 1954 1953 1952 1951
f 1955 1956 1957 1958
f 1951 1952 1956 1955
f 1952 1953 1957 1956
f 1953 1954 1958 1957
f 1954 1951 1955 1958
o Lantern.Arm
v 0.23 1.72 -0.35
v 0.23 1.72 0.02
v 0.27 1.72 0.02
v 0.27 1.72 -0.35
v 0.23 1.76 -0.35
v 0.23 1.76 0.02
v 0.27 1.76 0.02
v 0.27 1.76 -0.35
usemtl Iron
s off
f 1962 1961 1960 1959
f 1963 1964 1965 1966
f 1959 1960 1964 1963
f 1960 1961 1965 1964
f 1961 1962 1966 1965
f 1962 1959 1963 1966
o Entry
v -0.18 0 0.15
v -0.18 0 0.2
v -0.12 0 0.2
v -0.12 0 0.15
v -0.18 0.05 0.15
v -0.18 0.05 0.2
v -0.12 0.05 0.2
v -0.12 0.05 0.15
usemtl Soot
s off
f 1970 1969 1968 1967
f 1971 1972 1973 1974
f 1967 1968 1972 1971
f 1968 1969 1973 1972
f 1969 1970 1974 1973
f 1970 1967 1971 1974
o Work.Stand
v 1.97 0 0.97
v 1.97 0 1.03
v 2.03 0 1.03
v 2.03 0 0.97
v 1.97 0.05 0.97
v 1.97 0.05 1.03
v 2.03 0.05 1.03
v 2.03 0.05 0.97
usemtl Soot
s off
f 1978 1977 1976 1975
f 1979 1980 1981 1982
f 1975 1976 1980 1979
f 1976 1977 1981 1980
f 1977 1978 1982 1981
f 1978 1975 1979 1982
o Work.Aim
v 0.25 0 0.97
v 0.25 0 1.03
v 0.31 0 1.03
v 0.31 0 0.97
v 0.25 0.05 0.97
v 0.25 0.05 1.03
v 0.31 0.05 1.03
v 0.31 0.05 0.97
usemtl Soot
s off
f 1986 1985 1984 1983
f 1987 1988 1989 1990
f 1983 1984 1988 1987
f 1984 1985 1989 1988
f 1985 1986 1990 1989
f 1986 1983 1987 1990
