# cow.obj - Kuh, Blickrichtung +z (tools/models/animals.mjs)
mtllib cow.mtl
o Body
v 0 0.72 -0.08
v 0.111 0.743 -0.08
v 0.1 0.743 0.053
v 0.069 0.743 0.159
v 0.025 0.743 0.218
v -0.025 0.743 0.218
v -0.069 0.743 0.159
v -0.1 0.743 0.053
v -0.111 0.743 -0.08
v -0.1 0.743 -0.213
v -0.069 0.743 -0.319
v -0.025 0.743 -0.378
v 0.025 0.743 -0.378
v 0.069 0.743 -0.319
v 0.1 0.743 -0.213
v 0.205 0.808 -0.08
v 0.185 0.808 0.165
v 0.128 0.808 0.362
v 0.046 0.808 0.472
v -0.046 0.808 0.472
v -0.128 0.808 0.362
v -0.185 0.808 0.165
v -0.205 0.808 -0.08
v -0.185 0.808 -0.325
v -0.128 0.808 -0.522
v -0.046 0.808 -0.632
v 0.046 0.808 -0.632
v 0.128 0.808 -0.522
v 0.185 0.808 -0.325
v 0.268 0.905 -0.08
v 0.241 0.905 0.241
v 0.167 0.905 0.498
v 0.06 0.905 0.641
v -0.06 0.905 0.641
v -0.167 0.905 0.498
v -0.241 0.905 0.241
v -0.268 0.905 -0.08
v -0.241 0.905 -0.401
v -0.167 0.905 -0.658
v -0.06 0.905 -0.801
v 0.06 0.905 -0.801
v 0.167 0.905 -0.658
v 0.241 0.905 -0.401
v 0.29 1.02 -0.08
v 0.261 1.02 0.267
v 0.181 1.02 0.545
v 0.065 1.02 0.7
v -0.065 1.02 0.7
v -0.181 1.02 0.545
v -0.261 1.02 0.267
v -0.29 1.02 -0.08
v -0.261 1.02 -0.427
v -0.181 1.02 -0.705
v -0.065 1.02 -0.86
v 0.065 1.02 -0.86
v 0.181 1.02 -0.705
v 0.261 1.02 -0.427
v 0.268 1.135 -0.08
v 0.241 1.135 0.241
v 0.167 1.135 0.498
v 0.06 1.135 0.641
v -0.06 1.135 0.641
v -0.167 1.135 0.498
v -0.241 1.135 0.241
v -0.268 1.135 -0.08
v -0.241 1.135 -0.401
v -0.167 1.135 -0.658
v -0.06 1.135 -0.801
v 0.06 1.135 -0.801
v 0.167 1.135 -0.658
v 0.241 1.135 -0.401
v 0.205 1.232 -0.08
v 0.185 1.232 0.165
v 0.128 1.232 0.362
v 0.046 1.232 0.472
v -0.046 1.232 0.472
v -0.128 1.232 0.362
v -0.185 1.232 0.165
v -0.205 1.232 -0.08
v -0.185 1.232 -0.325
v -0.128 1.232 -0.522
v -0.046 1.232 -0.632
v 0.046 1.232 -0.632
v 0.128 1.232 -0.522
v 0.185 1.232 -0.325
v 0.111 1.297 -0.08
v 0.1 1.297 0.053
v 0.069 1.297 0.159
v 0.025 1.297 0.218
v -0.025 1.297 0.218
v -0.069 1.297 0.159
v -0.1 1.297 0.053
v -0.111 1.297 -0.08
v -0.1 1.297 -0.213
v -0.069 1.297 -0.319
v -0.025 1.297 -0.378
v 0.025 1.297 -0.378
v 0.069 1.297 -0.319
v 0.1 1.297 -0.213
v 0 1.32 -0.08
usemtl CowWhite
s off
f 1 3 2
f 2 3 17 16
f 16 17 31 30
f 30 31 45 44
f 44 45 59 58
f 58 59 73 72
f 72 73 87 86
f 86 87 100
f 1 4 3
f 3 4 18 17
f 17 18 32 31
f 31 32 46 45
f 45 46 60 59
f 59 60 74 73
f 73 74 88 87
f 87 88 100
f 1 5 4
f 4 5 19 18
f 18 19 33 32
f 32 33 47 46
f 46 47 61 60
f 60 61 75 74
f 74 75 89 88
f 88 89 100
f 1 6 5
f 5 6 20 19
f 19 20 34 33
f 33 34 48 47
f 47 48 62 61
f 61 62 76 75
f 75 76 90 89
f 89 90 100
f 1 7 6
f 6 7 21 20
f 20 21 35 34
f 34 35 49 48
f 48 49 63 62
f 62 63 77 76
f 76 77 91 90
f 90 91 100
f 1 8 7
f 7 8 22 21
f 21 22 36 35
f 35 36 50 49
f 49 50 64 63
f 63 64 78 77
f 77 78 92 91
f 91 92 100
f 1 9 8
f 8 9 23 22
f 22 23 37 36
f 36 37 51 50
f 50 51 65 64
f 64 65 79 78
f 78 79 93 92
f 92 93 100
f 1 10 9
f 9 10 24 23
f 23 24 38 37
f 37 38 52 51
f 51 52 66 65
f 65 66 80 79
f 79 80 94 93
f 93 94 100
f 1 11 10
f 10 11 25 24
f 24 25 39 38
f 38 39 53 52
f 52 53 67 66
f 66 67 81 80
f 80 81 95 94
f 94 95 100
f 1 12 11
f 11 12 26 25
f 25 26 40 39
f 39 40 54 53
f 53 54 68 67
f 67 68 82 81
f 81 82 96 95
f 95 96 100
f 1 13 12
f 12 13 27 26
f 26 27 41 40
f 40 41 55 54
f 54 55 69 68
f 68 69 83 82
f 82 83 97 96
f 96 97 100
f 1 14 13
f 13 14 28 27
f 27 28 42 41
f 41 42 56 55
f 55 56 70 69
f 69 70 84 83
f 83 84 98 97
f 97 98 100
f 1 15 14
f 14 15 29 28
f 28 29 43 42
f 42 43 57 56
f 56 57 71 70
f 70 71 85 84
f 84 85 99 98
f 98 99 100
f 1 2 15
f 15 2 16 29
f 29 16 30 43
f 43 30 44 57
f 57 44 58 71
f 71 58 72 85
f 85 72 86 99
f 99 86 100
o Body.Hips
v 0 1.04 -0.62
v 0.13 1.061 -0.62
v 0.105 1.061 -0.555
v 0.04 1.061 -0.515
v -0.04 1.061 -0.515
v -0.105 1.061 -0.555
v -0.13 1.061 -0.62
v -0.105 1.061 -0.685
v -0.04 1.061 -0.725
v 0.04 1.061 -0.725
v 0.105 1.061 -0.685
v 0.225 1.12 -0.62
v 0.182 1.12 -0.508
v 0.07 1.12 -0.439
v -0.07 1.12 -0.439
v -0.182 1.12 -0.508
v -0.225 1.12 -0.62
v -0.182 1.12 -0.732
v -0.07 1.12 -0.801
v 0.07 1.12 -0.801
v 0.182 1.12 -0.732
v 0.26 1.2 -0.62
v 0.21 1.2 -0.491
v 0.08 1.2 -0.411
v -0.08 1.2 -0.411
v -0.21 1.2 -0.491
v -0.26 1.2 -0.62
v -0.21 1.2 -0.749
v -0.08 1.2 -0.829
v 0.08 1.2 -0.829
v 0.21 1.2 -0.749
v 0.225 1.28 -0.62
v 0.182 1.28 -0.508
v 0.07 1.28 -0.439
v -0.07 1.28 -0.439
v -0.182 1.28 -0.508
v -0.225 1.28 -0.62
v -0.182 1.28 -0.732
v -0.07 1.28 -0.801
v 0.07 1.28 -0.801
v 0.182 1.28 -0.732
v 0.13 1.339 -0.62
v 0.105 1.339 -0.555
v 0.04 1.339 -0.515
v -0.04 1.339 -0.515
v -0.105 1.339 -0.555
v -0.13 1.339 -0.62
v -0.105 1.339 -0.685
v -0.04 1.339 -0.725
v 0.04 1.339 -0.725
v 0.105 1.339 -0.685
v 0 1.36 -0.62
usemtl CowWhite
s off
f 101 103 102
f 102 103 113 112
f 112 113 123 122
f 122 123 133 132
f 132 133 143 142
f 142 143 152
f 101 104 103
f 103 104 114 113
f 113 114 124 123
f 123 124 134 133
f 133 134 144 143
f 143 144 152
f 101 105 104
f 104 105 115 114
f 114 115 125 124
f 124 125 135 134
f 134 135 145 144
f 144 145 152
f 101 106 105
f 105 106 116 115
f 115 116 126 125
f 125 126 136 135
f 135 136 146 145
f 145 146 152
f 101 107 106
f 106 107 117 116
f 116 117 127 126
f 126 127 137 136
f 136 137 147 146
f 146 147 152
f 101 108 107
f 107 108 118 117
f 117 118 128 127
f 127 128 138 137
f 137 138 148 147
f 147 148 152
f 101 109 108
f 108 109 119 118
f 118 119 129 128
f 128 129 139 138
f 138 139 149 148
f 148 149 152
f 101 110 109
f 109 110 120 119
f 119 120 130 129
f 129 130 140 139
f 139 140 150 149
f 149 150 152
f 101 111 110
f 110 111 121 120
f 120 121 131 130
f 130 131 141 140
f 140 141 151 150
f 150 151 152
f 101 102 111
f 111 102 112 121
f 121 112 122 131
f 131 122 132 141
f 141 132 142 151
f 151 142 152
o Body.Withers
v 0 1.05 0.45
v 0.11 1.07 0.45
v 0.089 1.07 0.515
v 0.034 1.07 0.555
v -0.034 1.07 0.555
v -0.089 1.07 0.515
v -0.11 1.07 0.45
v -0.089 1.07 0.385
v -0.034 1.07 0.345
v 0.034 1.07 0.345
v 0.089 1.07 0.385
v 0.191 1.125 0.45
v 0.154 1.125 0.562
v 0.059 1.125 0.631
v -0.059 1.125 0.631
v -0.154 1.125 0.562
v -0.191 1.125 0.45
v -0.154 1.125 0.338
v -0.059 1.125 0.269
v 0.059 1.125 0.269
v 0.154 1.125 0.338
v 0.22 1.2 0.45
v 0.178 1.2 0.579
v 0.068 1.2 0.659
v -0.068 1.2 0.659
v -0.178 1.2 0.579
v -0.22 1.2 0.45
v -0.178 1.2 0.321
v -0.068 1.2 0.241
v 0.068 1.2 0.241
v 0.178 1.2 0.321
v 0.191 1.275 0.45
v 0.154 1.275 0.562
v 0.059 1.275 0.631
v -0.059 1.275 0.631
v -0.154 1.275 0.562
v -0.191 1.275 0.45
v -0.154 1.275 0.338
v -0.059 1.275 0.269
v 0.059 1.275 0.269
v 0.154 1.275 0.338
v 0.11 1.33 0.45
v 0.089 1.33 0.515
v 0.034 1.33 0.555
v -0.034 1.33 0.555
v -0.089 1.33 0.515
v -0.11 1.33 0.45
v -0.089 1.33 0.385
v -0.034 1.33 0.345
v 0.034 1.33 0.345
v 0.089 1.33 0.385
v 0 1.35 0.45
usemtl CowWhite
s off
f 153 155 154
f 154 155 165 164
f 164 165 175 174
f 174 175 185 184
f 184 185 195 194
f 194 195 204
f 153 156 155
f 155 156 166 165
f 165 166 176 175
f 175 176 186 185
f 185 186 196 195
f 195 196 204
f 153 157 156
f 156 157 167 166
f 166 167 177 176
f 176 177 187 186
f 186 187 197 196
f 196 197 204
f 153 158 157
f 157 158 168 167
f 167 168 178 177
f 177 178 188 187
f 187 188 198 197
f 197 198 204
f 153 159 158
f 158 159 169 168
f 168 169 179 178
f 178 179 189 188
f 188 189 199 198
f 198 199 204
f 153 160 159
f 159 160 170 169
f 169 170 180 179
f 179 180 190 189
f 189 190 200 199
f 199 200 204
f 153 161 160
f 160 161 171 170
f 170 171 181 180
f 180 181 191 190
f 190 191 201 200
f 200 201 204
f 153 162 161
f 161 162 172 171
f 171 172 182 181
f 181 182 192 191
f 191 192 202 201
f 201 202 204
f 153 163 162
f 162 163 173 172
f 172 173 183 182
f 182 183 193 192
f 192 193 203 202
f 202 203 204
f 153 154 163
f 163 154 164 173
f 173 164 174 183
f 183 174 184 193
f 193 184 194 203
f 203 194 204
o Body.Patch
v -0.25 0.87 0.12
v -0.22 0.893 0.12
v -0.226 0.893 0.191
v -0.241 0.893 0.234
v -0.259 0.893 0.234
v -0.274 0.893 0.191
v -0.28 0.893 0.12
v -0.274 0.893 0.049
v -0.259 0.893 0.006
v -0.241 0.893 0.006
v -0.226 0.893 0.049
v -0.198 0.955 0.12
v -0.208 0.955 0.242
v -0.234 0.955 0.318
v -0.266 0.955 0.318
v -0.292 0.955 0.242
v -0.302 0.955 0.12
v -0.292 0.955 -0.002
v -0.266 0.955 -0.078
v -0.234 0.955 -0.078
v -0.208 0.955 -0.002
v -0.19 1.04 0.12
v -0.201 1.04 0.261
v -0.231 1.04 0.348
v -0.269 1.04 0.348
v -0.299 1.04 0.261
v -0.31 1.04 0.12
v -0.299 1.04 -0.021
v -0.269 1.04 -0.108
v -0.231 1.04 -0.108
v -0.201 1.04 -0.021
v -0.198 1.125 0.12
v -0.208 1.125 0.242
v -0.234 1.125 0.318
v -0.266 1.125 0.318
v -0.292 1.125 0.242
v -0.302 1.125 0.12
v -0.292 1.125 -0.002
v -0.266 1.125 -0.078
v -0.234 1.125 -0.078
v -0.208 1.125 -0.002
v -0.22 1.187 0.12
v -0.226 1.187 0.191
v -0.241 1.187 0.234
v -0.259 1.187 0.234
v -0.274 1.187 0.191
v -0.28 1.187 0.12
v -0.274 1.187 0.049
v -0.259 1.187 0.006
v -0.241 1.187 0.006
v -0.226 1.187 0.049
v -0.25 1.21 0.12
usemtl CowBlack
s off
f 205 207 206
f 206 207 217 216
f 216 217 227 226
f 226 227 237 236
f 236 237 247 246
f 246 247 256
f 205 208 207
f 207 208 218 217
f 217 218 228 227
f 227 228 238 237
f 237 238 248 247
f 247 248 256
f 205 209 208
f 208 209 219 218
f 218 219 229 228
f 228 229 239 238
f 238 239 249 248
f 248 249 256
f 205 210 209
f 209 210 220 219
f 219 220 230 229
f 229 230 240 239
f 239 240 250 249
f 249 250 256
f 205 211 210
f 210 211 221 220
f 220 221 231 230
f 230 231 241 240
f 240 241 251 250
f 250 251 256
f 205 212 211
f 211 212 222 221
f 221 222 232 231
f 231 232 242 241
f 241 242 252 251
f 251 252 256
f 205 213 212
f 212 213 223 222
f 222 223 233 232
f 232 233 243 242
f 242 243 253 252
f 252 253 256
f 205 214 213
f 213 214 224 223
f 223 224 234 233
f 233 234 244 243
f 243 244 254 253
f 253 254 256
f 205 215 214
f 214 215 225 224
f 224 225 235 234
f 234 235 245 244
f 244 245 255 254
f 254 255 256
f 205 206 215
f 215 206 216 225
f 225 216 226 235
f 235 226 236 245
f 245 236 246 255
f 255 246 256
o Body.Patch
v -0.21 0.95 -0.4
v -0.18 0.97 -0.4
v -0.186 0.97 -0.353
v -0.201 0.97 -0.324
v -0.219 0.97 -0.324
v -0.234 0.97 -0.353
v -0.24 0.97 -0.4
v -0.234 0.97 -0.447
v -0.219 0.97 -0.476
v -0.201 0.97 -0.476
v -0.186 0.97 -0.447
v -0.158 1.025 -0.4
v -0.168 1.025 -0.319
v -0.194 1.025 -0.268
v -0.226 1.025 -0.268
v -0.252 1.025 -0.319
v -0.262 1.025 -0.4
v -0.252 1.025 -0.481
v -0.226 1.025 -0.532
v -0.194 1.025 -0.532
v -0.168 1.025 -0.481
v -0.15 1.1 -0.4
v -0.161 1.1 -0.306
v -0.191 1.1 -0.248
v -0.229 1.1 -0.248
v -0.259 1.1 -0.306
v -0.27 1.1 -0.4
v -0.259 1.1 -0.494
v -0.229 1.1 -0.552
v -0.191 1.1 -0.552
v -0.161 1.1 -0.494
v -0.158 1.175 -0.4
v -0.168 1.175 -0.319
v -0.194 1.175 -0.268
v -0.226 1.175 -0.268
v -0.252 1.175 -0.319
v -0.262 1.175 -0.4
v -0.252 1.175 -0.481
v -0.226 1.175 -0.532
v -0.194 1.175 -0.532
v -0.168 1.175 -0.481
v -0.18 1.23 -0.4
v -0.186 1.23 -0.353
v -0.201 1.23 -0.324
v -0.219 1.23 -0.324
v -0.234 1.23 -0.353
v -0.24 1.23 -0.4
v -0.234 1.23 -0.447
v -0.219 1.23 -0.476
v -0.201 1.23 -0.476
v -0.186 1.23 -0.447
v -0.21 1.25 -0.4
usemtl CowBlack
s off
f 257 259 258
f 258 259 269 268
f 268 269 279 278
f 278 279 289 288
f 288 289 299 298
f 298 299 308
f 257 260 259
f 259 260 270 269
f 269 270 280 279
f 279 280 290 289
f 289 290 300 299
f 299 300 308
f 257 261 260
f 260 261 271 270
f 270 271 281 280
f 280 281 291 290
f 290 291 301 300
f 300 301 308
f 257 262 261
f 261 262 272 271
f 271 272 282 281
f 281 282 292 291
f 291 292 302 301
f 301 302 308
f 257 263 262
f 262 263 273 272
f 272 273 283 282
f 282 283 293 292
f 292 293 303 302
f 302 303 308
f 257 264 263
f 263 264 274 273
f 273 274 284 283
f 283 284 294 293
f 293 294 304 303
f 303 304 308
f 257 265 264
f 264 265 275 274
f 274 275 285 284
f 284 285 295 294
f 294 295 305 304
f 304 305 308
f 257 266 265
f 265 266 276 275
f 275 276 286 285
f 285 286 296 295
f 295 296 306 305
f 305 306 308
f 257 267 266
f 266 267 277 276
f 276 277 287 286
f 286 287 297 296
f 296 297 307 306
f 306 307 308
f 257 258 267
f 267 258 268 277
f 277 268 278 287
f 287 278 288 297
f 297 288 298 307
f 307 298 308
o Body.Patch
v 0.25 0.87 0.12
v 0.28 0.893 0.12
v 0.274 0.893 0.191
v 0.259 0.893 0.234
v 0.241 0.893 0.234
v 0.226 0.893 0.191
v 0.22 0.893 0.12
v 0.226 0.893 0.049
v 0.241 0.893 0.006
v 0.259 0.893 0.006
v 0.274 0.893 0.049
v 0.302 0.955 0.12
v 0.292 0.955 0.242
v 0.266 0.955 0.318
v 0.234 0.955 0.318
v 0.208 0.955 0.242
v 0.198 0.955 0.12
v 0.208 0.955 -0.002
v 0.234 0.955 -0.078
v 0.266 0.955 -0.078
v 0.292 0.955 -0.002
v 0.31 1.04 0.12
v 0.299 1.04 0.261
v 0.269 1.04 0.348
v 0.231 1.04 0.348
v 0.201 1.04 0.261
v 0.19 1.04 0.12
v 0.201 1.04 -0.021
v 0.231 1.04 -0.108
v 0.269 1.04 -0.108
v 0.299 1.04 -0.021
v 0.302 1.125 0.12
v 0.292 1.125 0.242
v 0.266 1.125 0.318
v 0.234 1.125 0.318
v 0.208 1.125 0.242
v 0.198 1.125 0.12
v 0.208 1.125 -0.002
v 0.234 1.125 -0.078
v 0.266 1.125 -0.078
v 0.292 1.125 -0.002
v 0.28 1.187 0.12
v 0.274 1.187 0.191
v 0.259 1.187 0.234
v 0.241 1.187 0.234
v 0.226 1.187 0.191
v 0.22 1.187 0.12
v 0.226 1.187 0.049
v 0.241 1.187 0.006
v 0.259 1.187 0.006
v 0.274 1.187 0.049
v 0.25 1.21 0.12
usemtl CowBlack
s off
f 309 311 310
f 310 311 321 320
f 320 321 331 330
f 330 331 341 340
f 340 341 351 350
f 350 351 360
f 309 312 311
f 311 312 322 321
f 321 322 332 331
f 331 332 342 341
f 341 342 352 351
f 351 352 360
f 309 313 312
f 312 313 323 322
f 322 323 333 332
f 332 333 343 342
f 342 343 353 352
f 352 353 360
f 309 314 313
f 313 314 324 323
f 323 324 334 333
f 333 334 344 343
f 343 344 354 353
f 353 354 360
f 309 315 314
f 314 315 325 324
f 324 325 335 334
f 334 335 345 344
f 344 345 355 354
f 354 355 360
f 309 316 315
f 315 316 326 325
f 325 326 336 335
f 335 336 346 345
f 345 346 356 355
f 355 356 360
f 309 317 316
f 316 317 327 326
f 326 327 337 336
f 336 337 347 346
f 346 347 357 356
f 356 357 360
f 309 318 317
f 317 318 328 327
f 327 328 338 337
f 337 338 348 347
f 347 348 358 357
f 357 358 360
f 309 319 318
f 318 319 329 328
f 328 329 339 338
f 338 339 349 348
f 348 349 359 358
f 358 359 360
f 309 310 319
f 319 310 320 329
f 329 320 330 339
f 339 330 340 349
f 349 340 350 359
f 359 350 360
o Body.Patch
v 0.21 0.95 -0.55
v 0.24 0.97 -0.55
v 0.234 0.97 -0.503
v 0.219 0.97 -0.474
v 0.201 0.97 -0.474
v 0.186 0.97 -0.503
v 0.18 0.97 -0.55
v 0.186 0.97 -0.597
v 0.201 0.97 -0.626
v 0.219 0.97 -0.626
v 0.234 0.97 -0.597
v 0.262 1.025 -0.55
v 0.252 1.025 -0.469
v 0.226 1.025 -0.418
v 0.194 1.025 -0.418
v 0.168 1.025 -0.469
v 0.158 1.025 -0.55
v 0.168 1.025 -0.631
v 0.194 1.025 -0.682
v 0.226 1.025 -0.682
v 0.252 1.025 -0.631
v 0.27 1.1 -0.55
v 0.259 1.1 -0.456
v 0.229 1.1 -0.398
v 0.191 1.1 -0.398
v 0.161 1.1 -0.456
v 0.15 1.1 -0.55
v 0.161 1.1 -0.644
v 0.191 1.1 -0.702
v 0.229 1.1 -0.702
v 0.259 1.1 -0.644
v 0.262 1.175 -0.55
v 0.252 1.175 -0.469
v 0.226 1.175 -0.418
v 0.194 1.175 -0.418
v 0.168 1.175 -0.469
v 0.158 1.175 -0.55
v 0.168 1.175 -0.631
v 0.194 1.175 -0.682
v 0.226 1.175 -0.682
v 0.252 1.175 -0.631
v 0.24 1.23 -0.55
v 0.234 1.23 -0.503
v 0.219 1.23 -0.474
v 0.201 1.23 -0.474
v 0.186 1.23 -0.503
v 0.18 1.23 -0.55
v 0.186 1.23 -0.597
v 0.201 1.23 -0.626
v 0.219 1.23 -0.626
v 0.234 1.23 -0.597
v 0.21 1.25 -0.55
usemtl CowBlack
s off
f 361 363 362
f 362 363 373 372
f 372 373 383 382
f 382 383 393 392
f 392 393 403 402
f 402 403 412
f 361 364 363
f 363 364 374 373
f 373 374 384 383
f 383 384 394 393
f 393 394 404 403
f 403 404 412
f 361 365 364
f 364 365 375 374
f 374 375 385 384
f 384 385 395 394
f 394 395 405 404
f 404 405 412
f 361 366 365
f 365 366 376 375
f 375 376 386 385
f 385 386 396 395
f 395 396 406 405
f 405 406 412
f 361 367 366
f 366 367 377 376
f 376 377 387 386
f 386 387 397 396
f 396 397 407 406
f 406 407 412
f 361 368 367
f 367 368 378 377
f 377 378 388 387
f 387 388 398 397
f 397 398 408 407
f 407 408 412
f 361 369 368
f 368 369 379 378
f 378 379 389 388
f 388 389 399 398
f 398 399 409 408
f 408 409 412
f 361 370 369
f 369 370 380 379
f 379 380 390 389
f 389 390 400 399
f 399 400 410 409
f 409 410 412
f 361 371 370
f 370 371 381 380
f 380 381 391 390
f 390 391 401 400
f 400 401 411 410
f 410 411 412
f 361 362 371
f 371 362 372 381
f 381 372 382 391
f 391 382 392 401
f 401 392 402 411
f 411 402 412
o Body.Patch
v -0.02 1.27 -0.58
v 0.05 1.277 -0.58
v 0.037 1.277 -0.542
v 0.002 1.277 -0.518
v -0.042 1.277 -0.518
v -0.077 1.277 -0.542
v -0.09 1.277 -0.58
v -0.077 1.277 -0.618
v -0.042 1.277 -0.642
v 0.002 1.277 -0.642
v 0.037 1.277 -0.618
v 0.101 1.295 -0.58
v 0.078 1.295 -0.514
v 0.017 1.295 -0.473
v -0.057 1.295 -0.473
v -0.118 1.295 -0.514
v -0.141 1.295 -0.58
v -0.118 1.295 -0.646
v -0.057 1.295 -0.687
v 0.017 1.295 -0.687
v 0.078 1.295 -0.646
v 0.12 1.32 -0.58
v 0.093 1.32 -0.504
v 0.023 1.32 -0.456
v -0.063 1.32 -0.456
v -0.133 1.32 -0.504
v -0.16 1.32 -0.58
v -0.133 1.32 -0.656
v -0.063 1.32 -0.704
v 0.023 1.32 -0.704
v 0.093 1.32 -0.656
v 0.101 1.345 -0.58
v 0.078 1.345 -0.514
v 0.017 1.345 -0.473
v -0.057 1.345 -0.473
v -0.118 1.345 -0.514
v -0.141 1.345 -0.58
v -0.118 1.345 -0.646
v -0.057 1.345 -0.687
v 0.017 1.345 -0.687
v 0.078 1.345 -0.646
v 0.05 1.363 -0.58
v 0.037 1.363 -0.542
v 0.002 1.363 -0.518
v -0.042 1.363 -0.518
v -0.077 1.363 -0.542
v -0.09 1.363 -0.58
v -0.077 1.363 -0.618
v -0.042 1.363 -0.642
v 0.002 1.363 -0.642
v 0.037 1.363 -0.618
v -0.02 1.37 -0.58
usemtl CowBlack
s off
f 413 415 414
f 414 415 425 424
f 424 425 435 434
f 434 435 445 444
f 444 445 455 454
f 454 455 464
f 413 416 415
f 415 416 426 425
f 425 426 436 435
f 435 436 446 445
f 445 446 456 455
f 455 456 464
f 413 417 416
f 416 417 427 426
f 426 427 437 436
f 436 437 447 446
f 446 447 457 456
f 456 457 464
f 413 418 417
f 417 418 428 427
f 427 428 438 437
f 437 438 448 447
f 447 448 458 457
f 457 458 464
f 413 419 418
f 418 419 429 428
f 428 429 439 438
f 438 439 449 448
f 448 449 459 458
f 458 459 464
f 413 420 419
f 419 420 430 429
f 429 430 440 439
f 439 440 450 449
f 449 450 460 459
f 459 460 464
f 413 421 420
f 420 421 431 430
f 430 431 441 440
f 440 441 451 450
f 450 451 461 460
f 460 461 464
f 413 422 421
f 421 422 432 431
f 431 432 442 441
f 441 442 452 451
f 451 452 462 461
f 461 462 464
f 413 423 422
f 422 423 433 432
f 432 433 443 442
f 442 443 453 452
f 452 453 463 462
f 462 463 464
f 413 414 423
f 423 414 424 433
f 433 424 434 443
f 443 434 444 453
f 453 444 454 463
f 463 454 464
o Body.Udder
v 0 0.63 -0.45
v 0.06 0.642 -0.45
v 0.049 0.642 -0.409
v 0.019 0.642 -0.383
v -0.019 0.642 -0.383
v -0.049 0.642 -0.409
v -0.06 0.642 -0.45
v -0.049 0.642 -0.491
v -0.019 0.642 -0.517
v 0.019 0.642 -0.517
v 0.049 0.642 -0.491
v 0.104 0.675 -0.45
v 0.084 0.675 -0.379
v 0.032 0.675 -0.335
v -0.032 0.675 -0.335
v -0.084 0.675 -0.379
v -0.104 0.675 -0.45
v -0.084 0.675 -0.521
v -0.032 0.675 -0.565
v 0.032 0.675 -0.565
v 0.084 0.675 -0.521
v 0.12 0.72 -0.45
v 0.097 0.72 -0.368
v 0.037 0.72 -0.317
v -0.037 0.72 -0.317
v -0.097 0.72 -0.368
v -0.12 0.72 -0.45
v -0.097 0.72 -0.532
v -0.037 0.72 -0.583
v 0.037 0.72 -0.583
v 0.097 0.72 -0.532
v 0.104 0.765 -0.45
v 0.084 0.765 -0.379
v 0.032 0.765 -0.335
v -0.032 0.765 -0.335
v -0.084 0.765 -0.379
v -0.104 0.765 -0.45
v -0.084 0.765 -0.521
v -0.032 0.765 -0.565
v 0.032 0.765 -0.565
v 0.084 0.765 -0.521
v 0.06 0.798 -0.45
v 0.049 0.798 -0.409
v 0.019 0.798 -0.383
v -0.019 0.798 -0.383
v -0.049 0.798 -0.409
v -0.06 0.798 -0.45
v -0.049 0.798 -0.491
v -0.019 0.798 -0.517
v 0.019 0.798 -0.517
v 0.049 0.798 -0.491
v 0 0.81 -0.45
usemtl Udder
s off
f 465 467 466
f 466 467 477 476
f 476 477 487 486
f 486 487 497 496
f 496 497 507 506
f 506 507 516
f 465 468 467
f 467 468 478 477
f 477 478 488 487
f 487 488 498 497
f 497 498 508 507
f 507 508 516
f 465 469 468
f 468 469 479 478
f 478 479 489 488
f 488 489 499 498
f 498 499 509 508
f 508 509 516
f 465 470 469
f 469 470 480 479
f 479 480 490 489
f 489 490 500 499
f 499 500 510 509
f 509 510 516
f 465 471 470
f 470 471 481 480
f 480 481 491 490
f 490 491 501 500
f 500 501 511 510
f 510 511 516
f 465 472 471
f 471 472 482 481
f 481 482 492 491
f 491 492 502 501
f 501 502 512 511
f 511 512 516
f 465 473 472
f 472 473 483 482
f 482 483 493 492
f 492 493 503 502
f 502 503 513 512
f 512 513 516
f 465 474 473
f 473 474 484 483
f 483 484 494 493
f 493 494 504 503
f 503 504 514 513
f 513 514 516
f 465 475 474
f 474 475 485 484
f 484 485 495 494
f 494 495 505 504
f 504 505 515 514
f 514 515 516
f 465 466 475
f 475 466 476 485
f 485 476 486 495
f 495 486 496 505
f 505 496 506 515
f 515 506 516
o Body.Tail
v 0.01 1.278 -0.843
v 0.02 1.28 -0.86
v 0.01 1.282 -0.877
v -0.01 1.282 -0.877
v -0.02 1.28 -0.86
v -0.01 1.278 -0.843
v 0.008 0.718 -0.917
v 0.015 0.72 -0.93
v 0.008 0.722 -0.943
v -0.007 0.722 -0.943
v -0.015 0.72 -0.93
v -0.007 0.718 -0.917
usemtl CowWhite
s off
f 522 521 520 519 518 517
f 523 524 525 526 527 528
f 517 518 524 523
f 518 519 525 524
f 519 520 526 525
f 520 521 527 526
f 521 522 528 527
f 522 517 523 528
o Body.Tail.Tuft
v 0 0.6 -0.94
v 0.025 0.621 -0.94
v 0.012 0.621 -0.919
v -0.012 0.621 -0.919
v -0.025 0.621 -0.94
v -0.012 0.621 -0.961
v 0.012 0.621 -0.961
v 0.035 0.67 -0.94
v 0.018 0.67 -0.91
v -0.017 0.67 -0.91
v -0.035 0.67 -0.94
v -0.018 0.67 -0.97
v 0.018 0.67 -0.97
v 0.025 0.719 -0.94
v 0.012 0.719 -0.919
v -0.012 0.719 -0.919
v -0.025 0.719 -0.94
v -0.012 0.719 -0.961
v 0.012 0.719 -0.961
v 0 0.74 -0.94
usemtl CowBlack
s off
f 529 531 530
f 530 531 537 536
f 536 537 543 542
f 542 543 548
f 529 532 531
f 531 532 538 537
f 537 538 544 543
f 543 544 548
f 529 533 532
f 532 533 539 538
f 538 539 545 544
f 544 545 548
f 529 534 533
f 533 534 540 539
f 539 540 546 545
f 545 546 548
f 529 535 534
f 534 535 541 540
f 540 541 547 546
f 546 547 548
f 529 530 535
f 535 530 536 541
f 541 536 542 547
f 547 542 548
o Head.Neck
v -0.157 1.051 0.46
v -0.065 1.124 0.403
v 0.065 1.124 0.403
v 0.157 1.051 0.46
v 0.157 0.949 0.54
v 0.065 0.876 0.597
v -0.065 0.876 0.597
v -0.157 0.949 0.54
v -0.111 1.286 0.792
v -0.046 1.337 0.752
v 0.046 1.337 0.752
v 0.111 1.286 0.792
v 0.111 1.214 0.848
v 0.046 1.163 0.888
v -0.046 1.163 0.888
v -0.111 1.214 0.848
usemtl CowWhite
s off
f 556 555 554 553 552 551 550 549
f 557 558 559 560 561 562 563 564
f 549 550 558 557
f 550 551 559 558
f 551 552 560 559
f 552 553 561 560
f 553 554 562 561
f 554 555 563 562
f 555 556 564 563
f 556 549 557 564
o Head.Skull
v 0 1.1 0.875
v 0.065 1.12 0.882
v 0.053 1.103 0.929
v 0.02 1.092 0.958
v -0.02 1.092 0.958
v -0.053 1.103 0.929
v -0.065 1.12 0.882
v -0.053 1.137 0.836
v -0.02 1.148 0.807
v 0.02 1.148 0.807
v 0.053 1.137 0.836
v 0.113 1.175 0.903
v 0.091 1.145 0.984
v 0.035 1.127 1.034
v -0.035 1.127 1.034
v -0.091 1.145 0.984
v -0.113 1.175 0.903
v -0.091 1.205 0.821
v -0.035 1.223 0.771
v 0.035 1.223 0.771
v 0.091 1.205 0.821
v 0.13 1.25 0.93
v 0.105 1.216 1.024
v 0.04 1.195 1.082
v -0.04 1.195 1.082
v -0.105 1.216 1.024
v -0.13 1.25 0.93
v -0.105 1.284 0.836
v -0.04 1.305 0.778
v 0.04 1.305 0.778
v 0.105 1.284 0.836
v 0.113 1.325 0.957
v 0.091 1.295 1.039
v 0.035 1.277 1.089
v -0.035 1.277 1.089
v -0.091 1.295 1.039
v -0.113 1.325 0.957
v -0.091 1.355 0.876
v -0.035 1.373 0.826
v 0.035 1.373 0.826
v 0.091 1.355 0.876
v 0.065 1.38 0.978
v 0.053 1.363 1.024
v 0.02 1.352 1.053
v -0.02 1.352 1.053
v -0.053 1.363 1.024
v -0.065 1.38 0.978
v -0.053 1.397 0.931
v -0.02 1.408 0.902
v 0.02 1.408 0.902
v 0.053 1.397 0.931
v 0 1.4 0.985
usemtl CowBlack
s off
f 565 567 566
f 566 567 577 576
f 576 577 587 586
f 586 587 597 596
f 596 597 607 606
f 606 607 616
f 565 568 567
f 567 568 578 577
f 577 578 588 587
f 587 588 598 597
f 597 598 608 607
f 607 608 616
f 565 569 568
f 568 569 579 578
f 578 579 589 588
f 588 589 599 598
f 598 599 609 608
f 608 609 616
f 565 570 569
f 569 570 580 579
f 579 580 590 589
f 589 590 600 599
f 599 600 610 609
f 609 610 616
f 565 571 570
f 570 571 581 580
f 580 581 591 590
f 590 591 601 600
f 600 601 611 610
f 610 611 616
f 565 572 571
f 571 572 582 581
f 581 582 592 591
f 591 592 602 601
f 601 602 612 611
f 611 612 616
f 565 573 572
f 572 573 583 582
f 582 583 593 592
f 592 593 603 602
f 602 603 613 612
f 612 613 616
f 565 574 573
f 573 574 584 583
f 583 584 594 593
f 593 594 604 603
f 603 604 614 613
f 613 614 616
f 565 575 574
f 574 575 585 584
f 584 585 595 594
f 594 595 605 604
f 604 605 615 614
f 614 615 616
f 565 566 575
f 575 566 576 585
f 585 576 586 595
f 595 586 596 605
f 605 596 606 615
f 615 606 616
o Head.Blaze
v 0 1.157 1.009
v 0.025 1.172 1.014
v 0.02 1.167 1.028
v 0.008 1.164 1.037
v -0.008 1.164 1.037
v -0.02 1.167 1.028
v -0.025 1.172 1.014
v -0.02 1.177 1.001
v -0.008 1.181 0.992
v 0.008 1.181 0.992
v 0.02 1.177 1.001
v 0.043 1.214 1.029
v 0.035 1.205 1.053
v 0.013 1.2 1.068
v -0.013 1.2 1.068
v -0.035 1.205 1.053
v -0.043 1.214 1.029
v -0.035 1.222 1.006
v -0.013 1.228 0.991
v 0.013 1.228 0.991
v 0.035 1.222 1.006
v 0.05 1.27 1.05
v 0.04 1.26 1.078
v 0.015 1.254 1.095
v -0.015 1.254 1.095
v -0.04 1.26 1.078
v -0.05 1.27 1.05
v -0.04 1.28 1.022
v -0.015 1.286 1.005
v 0.015 1.286 1.005
v 0.04 1.28 1.022
v 0.043 1.326 1.071
v 0.035 1.318 1.094
v 0.013 1.312 1.109
v -0.013 1.312 1.109
v -0.035 1.318 1.094
v -0.043 1.326 1.071
v -0.035 1.335 1.047
v -0.013 1.34 1.032
v 0.013 1.34 1.032
v 0.035 1.335 1.047
v 0.025 1.368 1.086
v 0.02 1.363 1.099
v 0.008 1.359 1.108
v -0.008 1.359 1.108
v -0.02 1.363 1.099
v -0.025 1.368 1.086
v -0.02 1.373 1.072
v -0.008 1.376 1.063
v 0.008 1.376 1.063
v 0.02 1.373 1.072
v 0 1.383 1.091
usemtl CowWhite
s off
f 617 619 618
f 618 619 629 628
f 628 629 639 638
f 638 639 649 648
f 648 649 659 658
f 658 659 668
f 617 620 619
f 619 620 630 629
f 629 630 640 639
f 639 640 650 649
f 649 650 660 659
f 659 660 668
f 617 621 620
f 620 621 631 630
f 630 631 641 640
f 640 641 651 650
f 650 651 661 660
f 660 661 668
f 617 622 621
f 621 622 632 631
f 631 632 642 641
f 641 642 652 651
f 651 652 662 661
f 661 662 668
f 617 623 622
f 622 623 633 632
f 632 633 643 642
f 642 643 653 652
f 652 653 663 662
f 662 663 668
f 617 624 623
f 623 624 634 633
f 633 634 644 643
f 643 644 654 653
f 653 654 664 663
f 663 664 668
f 617 625 624
f 624 625 635 634
f 634 635 645 644
f 644 645 655 654
f 654 655 665 664
f 664 665 668
f 617 626 625
f 625 626 636 635
f 635 636 646 645
f 645 646 656 655
f 655 656 666 665
f 665 666 668
f 617 627 626
f 626 627 637 636
f 636 637 647 646
f 646 647 657 656
f 656 657 667 666
f 666 667 668
f 617 618 627
f 627 618 628 637
f 637 628 638 647
f 647 638 648 657
f 657 648 658 667
f 667 658 668
o Head.Muzzle
v 0 1.01 1.1
v 0.055 1.021 1.1
v 0.044 1.021 1.129
v 0.017 1.021 1.148
v -0.017 1.021 1.148
v -0.044 1.021 1.129
v -0.055 1.021 1.1
v -0.044 1.021 1.071
v -0.017 1.021 1.052
v 0.017 1.021 1.052
v 0.044 1.021 1.071
v 0.095 1.05 1.1
v 0.077 1.05 1.151
v 0.029 1.05 1.182
v -0.029 1.05 1.182
v -0.077 1.05 1.151
v -0.095 1.05 1.1
v -0.077 1.05 1.049
v -0.029 1.05 1.018
v 0.029 1.05 1.018
v 0.077 1.05 1.049
v 0.11 1.09 1.1
v 0.089 1.09 1.159
v 0.034 1.09 1.195
v -0.034 1.09 1.195
v -0.089 1.09 1.159
v -0.11 1.09 1.1
v -0.089 1.09 1.041
v -0.034 1.09 1.005
v 0.034 1.09 1.005
v 0.089 1.09 1.041
v 0.095 1.13 1.1
v 0.077 1.13 1.151
v 0.029 1.13 1.182
v -0.029 1.13 1.182
v -0.077 1.13 1.151
v -0.095 1.13 1.1
v -0.077 1.13 1.049
v -0.029 1.13 1.018
v 0.029 1.13 1.018
v 0.077 1.13 1.049
v 0.055 1.159 1.1
v 0.044 1.159 1.129
v 0.017 1.159 1.148
v -0.017 1.159 1.148
v -0.044 1.159 1.129
v -0.055 1.159 1.1
v -0.044 1.159 1.071
v -0.017 1.159 1.052
v 0.017 1.159 1.052
v 0.044 1.159 1.071
v 0 1.17 1.1
usemtl CowMuzzle
s off
f 669 671 670
f 670 671 681 680
f 680 681 691 690
f 690 691 701 700
f 700 701 711 710
f 710 711 720
f 669 672 671
f 671 672 682 681
f 681 682 692 691
f 691 692 702 701
f 701 702 712 711
f 711 712 720
f 669 673 672
f 672 673 683 682
f 682 683 693 692
f 692 693 703 702
f 702 703 713 712
f 712 713 720
f 669 674 673
f 673 674 684 683
f 683 684 694 693
f 693 694 704 703
f 703 704 714 713
f 713 714 720
f 669 675 674
f 674 675 685 684
f 684 685 695 694
f 694 695 705 704
f 704 705 715 714
f 714 715 720
f 669 676 675
f 675 676 686 685
f 685 686 696 695
f 695 696 706 705
f 705 706 716 715
f 715 716 720
f 669 677 676
f 676 677 687 686
f 686 687 697 696
f 696 697 707 706
f 706 707 717 716
f 716 717 720
f 669 678 677
f 677 678 688 687
f 687 688 698 697
f 697 698 708 707
f 707 708 718 717
f 717 718 720
f 669 679 678
f 678 679 689 688
f 688 689 699 698
f 698 699 709 708
f 708 709 719 718
f 718 719 720
f 669 670 679
f 679 670 680 689
f 689 680 690 699
f 699 690 700 709
f 709 700 710 719
f 719 710 720
o Head.Nose
v 0 1.075 1.195
v 0.049 1.082 1.195
v 0.035 1.082 1.201
v 0 1.082 1.203
v -0.035 1.082 1.201
v -0.049 1.082 1.195
v -0.035 1.082 1.189
v 0 1.082 1.187
v 0.035 1.082 1.189
v 0.07 1.1 1.195
v 0.049 1.1 1.203
v 0 1.1 1.207
v -0.049 1.1 1.203
v -0.07 1.1 1.195
v -0.049 1.1 1.187
v 0 1.1 1.183
v 0.049 1.1 1.187
v 0.049 1.118 1.195
v 0.035 1.118 1.201
v 0 1.118 1.203
v -0.035 1.118 1.201
v -0.049 1.118 1.195
v -0.035 1.118 1.189
v 0 1.118 1.187
v 0.035 1.118 1.189
v 0 1.125 1.195
usemtl Nose
s off
f 721 723 722
f 722 723 731 730
f 730 731 739 738
f 738 739 746
f 721 724 723
f 723 724 732 731
f 731 732 740 739
f 739 740 746
f 721 725 724
f 724 725 733 732
f 732 733 741 740
f 740 741 746
f 721 726 725
f 725 726 734 733
f 733 734 742 741
f 741 742 746
f 721 727 726
f 726 727 735 734
f 734 735 743 742
f 742 743 746
f 721 728 727
f 727 728 736 735
f 735 736 744 743
f 743 744 746
f 721 729 728
f 728 729 737 736
f 736 737 745 744
f 744 745 746
f 721 722 729
f 729 722 730 737
f 737 730 738 745
f 745 738 746
o Head.Eye
v -0.12 1.282 0.97
v -0.107 1.287 0.97
v -0.114 1.287 0.981
v -0.126 1.287 0.981
v -0.133 1.287 0.97
v -0.126 1.287 0.959
v -0.114 1.287 0.959
v -0.102 1.3 0.97
v -0.111 1.3 0.986
v -0.129 1.3 0.986
v -0.138 1.3 0.97
v -0.129 1.3 0.954
v -0.111 1.3 0.954
v -0.107 1.313 0.97
v -0.114 1.313 0.981
v -0.126 1.313 0.981
v -0.133 1.313 0.97
v -0.126 1.313 0.959
v -0.114 1.313 0.959
v -0.12 1.318 0.97
usemtl Eye
s off
f 747 749 748
f 748 749 755 754
f 754 755 761 760
f 760 761 766
f 747 750 749
f 749 750 756 755
f 755 756 762 761
f 761 762 766
f 747 751 750
f 750 751 757 756
f 756 757 763 762
f 762 763 766
f 747 752 751
f 751 752 758 757
f 757 758 764 763
f 763 764 766
f 747 753 752
f 752 753 759 758
f 758 759 765 764
f 764 765 766
f 747 748 753
f 753 748 754 759
f 759 754 760 765
f 765 760 766
o Head.Ear
v -0.119 1.352 0.821
v -0.129 1.374 0.859
v -0.129 1.352 0.898
v -0.121 1.308 0.899
v -0.111 1.286 0.861
v -0.111 1.308 0.822
v -0.27 1.312 0.818
v -0.275 1.325 0.839
v -0.275 1.312 0.861
v -0.27 1.288 0.862
v -0.265 1.275 0.841
v -0.265 1.288 0.819
usemtl CowBlack
s off
f 772 771 770 769 768 767
f 773 774 775 776 777 778
f 767 768 774 773
f 768 769 775 774
f 769 770 776 775
f 770 771 777 776
f 771 772 778 777
f 772 767 773 778
o Head.Horn
v -0.081 1.389 0.857
v -0.064 1.398 0.873
v -0.064 1.389 0.897
v -0.079 1.371 0.903
v -0.096 1.362 0.887
v -0.096 1.371 0.863
v -0.2 1.504 0.921
v -0.194 1.507 0.927
v -0.194 1.504 0.937
v -0.2 1.496 0.939
v -0.206 1.493 0.933
v -0.206 1.496 0.923
usemtl Horn
s off
f 784 783 782 781 780 779
f 785 786 787 788 789 790
f 779 780 786 785
f 780 781 787 786
f 781 782 788 787
f 782 783 789 788
f 783 784 790 789
f 784 779 785 790
o Head.Eye
v 0.12 1.282 0.97
v 0.133 1.287 0.97
v 0.126 1.287 0.981
v 0.114 1.287 0.981
v 0.107 1.287 0.97
v 0.114 1.287 0.959
v 0.126 1.287 0.959
v 0.138 1.3 0.97
v 0.129 1.3 0.986
v 0.111 1.3 0.986
v 0.102 1.3 0.97
v 0.111 1.3 0.954
v 0.129 1.3 0.954
v 0.133 1.313 0.97
v 0.126 1.313 0.981
v 0.114 1.313 0.981
v 0.107 1.313 0.97
v 0.114 1.313 0.959
v 0.126 1.313 0.959
v 0.12 1.318 0.97
usemtl Eye
s off
f 791 793 792
f 792 793 799 798
f 798 799 805 804
f 804 805 810
f 791 794 793
f 793 794 800 799
f 799 800 806 805
f 805 806 810
f 791 795 794
f 794 795 801 800
f 800 801 807 806
f 806 807 810
f 791 796 795
f 795 796 802 801
f 801 802 808 807
f 807 808 810
f 791 797 796
f 796 797 803 802
f 802 803 809 808
f 808 809 810
f 791 792 797
f 797 792 798 803
f 803 798 804 809
f 809 804 810
o Head.Ear
v 0.129 1.352 0.898
v 0.129 1.374 0.859
v 0.119 1.352 0.821
v 0.111 1.308 0.822
v 0.111 1.286 0.861
v 0.121 1.308 0.899
v 0.275 1.312 0.861
v 0.275 1.325 0.839
v 0.27 1.312 0.818
v 0.265 1.288 0.819
v 0.265 1.275 0.841
v 0.27 1.288 0.862
usemtl CowBlack
s off
f 816 815 814 813 812 811
f 817 818 819 820 821 822
f 811 812 818 817
f 812 813 819 818
f 813 814 820 819
f 814 815 821 820
f 815 816 822 821
f 816 811 817 822
o Head.Horn
v 0.064 1.389 0.897
v 0.064 1.398 0.873
v 0.081 1.389 0.857
v 0.096 1.371 0.863
v 0.096 1.362 0.887
v 0.079 1.371 0.903
v 0.194 1.504 0.937
v 0.194 1.507 0.927
v 0.2 1.504 0.921
v 0.206 1.496 0.923
v 0.206 1.493 0.933
v 0.2 1.496 0.939
usemtl Horn
s off
f 828 827 826 825 824 823
f 829 830 831 832 833 834
f 823 824 830 829
f 824 825 831 830
f 825 826 832 831
f 826 827 833 832
f 827 828 834 833
f 828 823 829 834
o Leg.FL
v 0.199 0.901 0.549
v 0.239 0.901 0.509
v 0.239 0.899 0.451
v 0.199 0.899 0.411
v 0.141 0.899 0.411
v 0.101 0.899 0.451
v 0.101 0.901 0.509
v 0.141 0.901 0.549
v 0.187 0.421 0.532
v 0.212 0.42 0.507
v 0.212 0.42 0.473
v 0.187 0.419 0.448
v 0.153 0.419 0.448
v 0.128 0.42 0.473
v 0.128 0.42 0.507
v 0.153 0.421 0.532
usemtl CowWhite
s off
f 842 841 840 839 838 837 836 835
f 843 844 845 846 847 848 849 850
f 835 836 844 843
f 836 837 845 844
f 837 838 846 845
f 838 839 847 846
f 839 840 848 847
f 840 841 849 848
f 841 842 850 849
f 842 835 843 850
o Leg.FL.Shin
v 0.185 0.429 0.527
v 0.207 0.43 0.505
v 0.207 0.43 0.475
v 0.185 0.431 0.453
v 0.155 0.431 0.453
v 0.133 0.43 0.475
v 0.133 0.43 0.505
v 0.155 0.429 0.527
v 0.183 0.059 0.512
v 0.202 0.06 0.493
v 0.202 0.06 0.467
v 0.183 0.061 0.448
v 0.157 0.061 0.448
v 0.138 0.06 0.467
v 0.138 0.06 0.493
v 0.157 0.059 0.512
usemtl CowWhite
s off
f 858 857 856 855 854 853 852 851
f 859 860 861 862 863 864 865 866
f 851 852 860 859
f 852 853 861 860
f 853 854 862 861
f 854 855 863 862
f 855 856 864 863
f 856 857 865 864
f 857 858 866 865
f 858 851 859 866
o Leg.FL.Hoof
v 0.216 0 0.506
v 0.189 0 0.536
v 0.151 0 0.536
v 0.124 0 0.506
v 0.124 0 0.464
v 0.151 0 0.434
v 0.189 0 0.434
v 0.216 0 0.464
v 0.216 0.07 0.506
v 0.189 0.07 0.536
v 0.151 0.07 0.536
v 0.124 0.07 0.506
v 0.124 0.07 0.464
v 0.151 0.07 0.434
v 0.189 0.07 0.434
v 0.216 0.07 0.464
usemtl Hoof
s off
f 874 873 872 871 870 869 868 867
f 875 876 877 878 879 880 881 882
f 867 868 876 875
f 868 869 877 876
f 869 870 878 877
f 870 871 879 878
f 871 872 880 879
f 872 873 881 880
f 873 874 882 881
f 874 867 875 882
o Leg.FR
v -0.141 0.901 0.549
v -0.101 0.901 0.509
v -0.101 0.899 0.451
v -0.141 0.899 0.411
v -0.199 0.899 0.411
v -0.239 0.899 0.451
v -0.239 0.901 0.509
v -0.199 0.901 0.549
v -0.153 0.421 0.532
v -0.128 0.42 0.507
v -0.128 0.42 0.473
v -0.153 0.419 0.448
v -0.187 0.419 0.448
v -0.212 0.42 0.473
v -0.212 0.42 0.507
v -0.187 0.421 0.532
usemtl CowWhite
s off
f 890 889 888 887 886 885 884 883
f 891 892 893 894 895 896 897 898
f 883 884 892 891
f 884 885 893 892
f 885 886 894 893
f 886 887 895 894
f 887 888 896 895
f 888 889 897 896
f 889 890 898 897
f 890 883 891 898
o Leg.FR.Shin
v -0.155 0.429 0.527
v -0.133 0.43 0.505
v -0.133 0.43 0.475
v -0.155 0.431 0.453
v -0.185 0.431 0.453
v -0.207 0.43 0.475
v -0.207 0.43 0.505
v -0.185 0.429 0.527
v -0.157 0.059 0.512
v -0.138 0.06 0.493
v -0.138 0.06 0.467
v -0.157 0.061 0.448
v -0.183 0.061 0.448
v -0.202 0.06 0.467
v -0.202 0.06 0.493
v -0.183 0.059 0.512
usemtl CowWhite
s off
f 906 905 904 903 902 901 900 899
f 907 908 909 910 911 912 913 914
f 899 900 908 907
f 900 901 909 908
f 901 902 910 909
f 902 903 911 910
f 903 904 912 911
f 904 905 913 912
f 905 906 914 913
f 906 899 907 914
o Leg.FR.Hoof
v -0.124 0 0.506
v -0.151 0 0.536
v -0.189 0 0.536
v -0.216 0 0.506
v -0.216 0 0.464
v -0.189 0 0.434
v -0.151 0 0.434
v -0.124 0 0.464
v -0.124 0.07 0.506
v -0.151 0.07 0.536
v -0.189 0.07 0.536
v -0.216 0.07 0.506
v -0.216 0.07 0.464
v -0.189 0.07 0.434
v -0.151 0.07 0.434
v -0.124 0.07 0.464
usemtl Hoof
s off
f 922 921 920 919 918 917 916 915
f 923 924 925 926 927 928 929 930
f 915 916 924 923
f 916 917 925 924
f 917 918 926 925
f 918 919 927 926
f 919 920 928 927
f 920 921 929 928
f 921 922 930 929
f 922 915 923 930
o Leg.BL
v 0.208 0.892 -0.568
v 0.262 0.897 -0.622
v 0.262 0.903 -0.698
v 0.208 0.908 -0.752
v 0.132 0.908 -0.752
v 0.078 0.903 -0.698
v 0.078 0.897 -0.622
v 0.132 0.892 -0.568
v 0.187 0.417 -0.659
v 0.212 0.419 -0.683
v 0.212 0.421 -0.717
v 0.187 0.423 -0.741
v 0.153 0.423 -0.741
v 0.128 0.421 -0.717
v 0.128 0.419 -0.683
v 0.153 0.417 -0.659
usemtl CowWhite
s off
f 938 937 936 935 934 933 932 931
f 939 940 941 942 943 944 945 946
f 931 932 940 939
f 932 933 941 940
f 933 934 942 941
f 934 935 943 942
f 935 936 944 943
f 936 937 945 944
f 937 938 946 945
f 938 931 939 946
o Leg.BL.Shin
v 0.185 0.434 -0.663
v 0.207 0.432 -0.685
v 0.207 0.428 -0.715
v 0.185 0.426 -0.737
v 0.155 0.426 -0.737
v 0.133 0.428 -0.715
v 0.133 0.432 -0.685
v 0.155 0.434 -0.663
v 0.183 0.063 -0.628
v 0.202 0.061 -0.647
v 0.202 0.059 -0.673
v 0.183 0.057 -0.692
v 0.157 0.057 -0.692
v 0.138 0.059 -0.673
v 0.138 0.061 -0.647
v 0.157 0.063 -0.628
usemtl CowWhite
s off
f 954 953 952 951 950 949 948 947
f 955 956 957 958 959 960 961 962
f 947 948 956 955
f 948 949 957 956
f 949 950 958 957
f 950 951 959 958
f 951 952 960 959
f 952 953 961 960
f 953 954 962 961
f 954 947 955 962
o Leg.BL.Hoof
v 0.216 0 -0.634
v 0.189 0 -0.604
v 0.151 0 -0.604
v 0.124 0 -0.634
v 0.124 0 -0.676
v 0.151 0 -0.706
v 0.189 0 -0.706
v 0.216 0 -0.676
v 0.216 0.07 -0.634
v 0.189 0.07 -0.604
v 0.151 0.07 -0.604
v 0.124 0.07 -0.634
v 0.124 0.07 -0.676
v 0.151 0.07 -0.706
v 0.189 0.07 -0.706
v 0.216 0.07 -0.676
usemtl Hoof
s off
f 970 969 968 967 966 965 964 963
f 971 972 973 974 975 976 977 978
f 963 964 972 971
f 964 965 973 972
f 965 966 974 973
f 966 967 975 974
f 967 968 976 975
f 968 969 977 976
f 969 970 978 977
f 970 963 971 978
o Leg.BR
v -0.132 0.892 -0.568
v -0.078 0.897 -0.622
v -0.078 0.903 -0.698
v -0.132 0.908 -0.752
v -0.208 0.908 -0.752
v -0.262 0.903 -0.698
v -0.262 0.897 -0.622
v -0.208 0.892 -0.568
v -0.153 0.417 -0.659
v -0.128 0.419 -0.683
v -0.128 0.421 -0.717
v -0.153 0.423 -0.741
v -0.187 0.423 -0.741
v -0.212 0.421 -0.717
v -0.212 0.419 -0.683
v -0.187 0.417 -0.659
usemtl CowWhite
s off
f 986 985 984 983 982 981 980 979
f 987 988 989 990 991 992 993 994
f 979 980 988 987
f 980 981 989 988
f 981 982 990 989
f 982 983 991 990
f 983 984 992 991
f 984 985 993 992
f 985 986 994 993
f 986 979 987 994
o Leg.BR.Shin
v -0.155 0.434 -0.663
v -0.133 0.432 -0.685
v -0.133 0.428 -0.715
v -0.155 0.426 -0.737
v -0.185 0.426 -0.737
v -0.207 0.428 -0.715
v -0.207 0.432 -0.685
v -0.185 0.434 -0.663
v -0.157 0.063 -0.628
v -0.138 0.061 -0.647
v -0.138 0.059 -0.673
v -0.157 0.057 -0.692
v -0.183 0.057 -0.692
v -0.202 0.059 -0.673
v -0.202 0.061 -0.647
v -0.183 0.063 -0.628
usemtl CowWhite
s off
f 1002 1001 1000 999 998 997 996 995
f 1003 1004 1005 1006 1007 1008 1009 1010
f 995 996 1004 1003
f 996 997 1005 1004
f 997 998 1006 1005
f 998 999 1007 1006
f 999 1000 1008 1007
f 1000 1001 1009 1008
f 1001 1002 1010 1009
f 1002 995 1003 1010
o Leg.BR.Hoof
v -0.124 0 -0.634
v -0.151 0 -0.604
v -0.189 0 -0.604
v -0.216 0 -0.634
v -0.216 0 -0.676
v -0.189 0 -0.706
v -0.151 0 -0.706
v -0.124 0 -0.676
v -0.124 0.07 -0.634
v -0.151 0.07 -0.604
v -0.189 0.07 -0.604
v -0.216 0.07 -0.634
v -0.216 0.07 -0.676
v -0.189 0.07 -0.706
v -0.151 0.07 -0.706
v -0.124 0.07 -0.676
usemtl Hoof
s off
f 1018 1017 1016 1015 1014 1013 1012 1011
f 1019 1020 1021 1022 1023 1024 1025 1026
f 1011 1012 1020 1019
f 1012 1013 1021 1020
f 1013 1014 1022 1021
f 1014 1015 1023 1022
f 1015 1016 1024 1023
f 1016 1017 1025 1024
f 1017 1018 1026 1025
f 1018 1011 1019 1026
