# deer.obj - Rehbock, Blickrichtung +z (tools/models/animals.mjs)
mtllib deer.mtl
o Body
v 0 0.51 -0.03
v 0.075 0.531 -0.03
v 0.065 0.531 0.085
v 0.037 0.531 0.169
v 0 0.531 0.2
v -0.037 0.531 0.169
v -0.065 0.531 0.085
v -0.075 0.531 -0.03
v -0.065 0.531 -0.145
v -0.038 0.531 -0.229
v 0 0.531 -0.26
v 0.037 0.531 -0.229
v 0.065 0.531 -0.145
v 0.13 0.59 -0.03
v 0.112 0.59 0.169
v 0.065 0.59 0.315
v 0 0.59 0.368
v -0.065 0.59 0.315
v -0.112 0.59 0.169
v -0.13 0.59 -0.03
v -0.113 0.59 -0.229
v -0.065 0.59 -0.375
v 0 0.59 -0.428
v 0.065 0.59 -0.375
v 0.112 0.59 -0.229
v 0.15 0.67 -0.03
v 0.13 0.67 0.2
v 0.075 0.67 0.368
v 0 0.67 0.43
v -0.075 0.67 0.368
v -0.13 0.67 0.2
v -0.15 0.67 -0.03
v -0.13 0.67 -0.26
v -0.075 0.67 -0.428
v 0 0.67 -0.49
v 0.075 0.67 -0.428
v 0.13 0.67 -0.26
v 0.13 0.75 -0.03
v 0.113 0.75 0.169
v 0.065 0.75 0.315
v 0 0.75 0.368
v -0.065 0.75 0.315
v -0.113 0.75 0.169
v -0.13 0.75 -0.03
v -0.113 0.75 -0.229
v -0.065 0.75 -0.375
v 0 0.75 -0.428
v 0.065 0.75 -0.375
v 0.112 0.75 -0.229
v 0.075 0.809 -0.03
v 0.065 0.809 0.085
v 0.037 0.809 0.169
v 0 0.809 0.2
v -0.037 0.809 0.169
v -0.065 0.809 0.085
v -0.075 0.809 -0.03
v -0.065 0.809 -0.145
v -0.038 0.809 -0.229
v 0 0.809 -0.26
v 0.037 0.809 -0.229
v 0.065 0.809 -0.145
v 0 0.83 -0.03
usemtl Fur
s off
f 1 3 2
f 2 3 15 14
f 14 15 27 26
f 26 27 39 38
f 38 39 51 50
f 50 51 62
f 1 4 3
f 3 4 16 15
f 15 16 28 27
f 27 28 40 39
f 39 40 52 51
f 51 52 62
f 1 5 4
f 4 5 17 16
f 16 17 29 28
f 28 29 41 40
f 40 41 53 52
f 52 53 62
f 1 6 5
f 5 6 18 17
f 17 18 30 29
f 29 30 42 41
f 41 42 54 53
f 53 54 62
f 1 7 6
f 6 7 19 18
f 18 19 31 30
f 30 31 43 42
f 42 43 55 54
f 54 55 62
f 1 8 7
f 7 8 20 19
f 19 20 32 31
f 31 32 44 43
f 43 44 56 55
f 55 56 62
f 1 9 8
f 8 9 21 20
f 20 21 33 32
f 32 33 45 44
f 44 45 57 56
f 56 57 62
f 1 10 9
f 9 10 22 21
f 21 22 34 33
f 33 34 46 45
f 45 46 58 57
f 57 58 62
f 1 11 10
f 10 11 23 22
f 22 23 35 34
f 34 35 47 46
f 46 47 59 58
f 58 59 62
f 1 12 11
f 11 12 24 23
f 23 24 36 35
f 35 36 48 47
f 47 48 60 59
f 59 60 62
f 1 13 12
f 12 13 25 24
f 24 25 37 36
f 36 37 49 48
f 48 49 61 60
f 60 61 62
f 1 2 13
f 13 2 14 25
f 25 14 26 37
f 37 26 38 49
f 49 38 50 61
f 61 50 62
o Body.Withers
v 0 0.65 0.24
v 0.06 0.665 0.24
v 0.049 0.665 0.293
v 0.019 0.665 0.326
v -0.019 0.665 0.326
v -0.049 0.665 0.293
v -0.06 0.665 0.24
v -0.049 0.665 0.187
v -0.019 0.665 0.154
v 0.019 0.665 0.154
v 0.049 0.665 0.187
v 0.104 0.705 0.24
v 0.084 0.705 0.332
v 0.032 0.705 0.388
v -0.032 0.705 0.388
v -0.084 0.705 0.332
v -0.104 0.705 0.24
v -0.084 0.705 0.148
v -0.032 0.705 0.092
v 0.032 0.705 0.092
v 0.084 0.705 0.148
v 0.12 0.76 0.24
v 0.097 0.76 0.346
v 0.037 0.76 0.411
v -0.037 0.76 0.411
v -0.097 0.76 0.346
v -0.12 0.76 0.24
v -0.097 0.76 0.134
v -0.037 0.76 0.069
v 0.037 0.76 0.069
v 0.097 0.76 0.134
v 0.104 0.815 0.24
v 0.084 0.815 0.332
v 0.032 0.815 0.388
v -0.032 0.815 0.388
v -0.084 0.815 0.332
v -0.104 0.815 0.24
v -0.084 0.815 0.148
v -0.032 0.815 0.092
v 0.032 0.815 0.092
v 0.084 0.815 0.148
v 0.06 0.855 0.24
v 0.049 0.855 0.293
v 0.019 0.855 0.326
v -0.019 0.855 0.326
v -0.049 0.855 0.293
v -0.06 0.855 0.24
v -0.049 0.855 0.187
v -0.019 0.855 0.154
v 0.019 0.855 0.154
v 0.049 0.855 0.187
v 0 0.87 0.24
usemtl Fur
s off
f 63 65 64
f 64 65 75 74
f 74 75 85 84
f 84 85 95 94
f 94 95 105 104
f 104 105 114
f 63 66 65
f 65 66 76 75
f 75 76 86 85
f 85 86 96 95
f 95 96 106 105
f 105 106 114
f 63 67 66
f 66 67 77 76
f 76 77 87 86
f 86 87 97 96
f 96 97 107 106
f 106 107 114
f 63 68 67
f 67 68 78 77
f 77 78 88 87
f 87 88 98 97
f 97 98 108 107
f 107 108 114
f 63 69 68
f 68 69 79 78
f 78 79 89 88
f 88 89 99 98
f 98 99 109 108
f 108 109 114
f 63 70 69
f 69 70 80 79
f 79 80 90 89
f 89 90 100 99
f 99 100 110 109
f 109 110 114
f 63 71 70
f 70 71 81 80
f 80 81 91 90
f 90 91 101 100
f 100 101 111 110
f 110 111 114
f 63 72 71
f 71 72 82 81
f 81 82 92 91
f 91 92 102 101
f 101 102 112 111
f 111 112 114
f 63 73 72
f 72 73 83 82
f 82 83 93 92
f 92 93 103 102
f 102 103 113 112
f 112 113 114
f 63 64 73
f 73 64 74 83
f 83 74 84 93
f 93 84 94 103
f 103 94 104 113
f 113 104 114
o Body.Belly
v 0 0.5 -0.03
v 0.055 0.509 -0.03
v 0.044 0.509 0.07
v 0.017 0.509 0.132
v -0.017 0.509 0.132
v -0.044 0.509 0.07
v -0.055 0.509 -0.03
v -0.044 0.509 -0.13
v -0.017 0.509 -0.192
v 0.017 0.509 -0.192
v 0.044 0.509 -0.13
v 0.095 0.535 -0.03
v 0.077 0.535 0.143
v 0.029 0.535 0.25
v -0.029 0.535 0.25
v -0.077 0.535 0.143
v -0.095 0.535 -0.03
v -0.077 0.535 -0.203
v -0.029 0.535 -0.31
v 0.029 0.535 -0.31
v 0.077 0.535 -0.203
v 0.11 0.57 -0.03
v 0.089 0.57 0.17
v 0.034 0.57 0.293
v -0.034 0.57 0.293
v -0.089 0.57 0.17
v -0.11 0.57 -0.03
v -0.089 0.57 -0.23
v -0.034 0.57 -0.353
v 0.034 0.57 -0.353
v 0.089 0.57 -0.23
v 0.095 0.605 -0.03
v 0.077 0.605 0.143
v 0.029 0.605 0.25
v -0.029 0.605 0.25
v -0.077 0.605 0.143
v -0.095 0.605 -0.03
v -0.077 0.605 -0.203
v -0.029 0.605 -0.31
v 0.029 0.605 -0.31
v 0.077 0.605 -0.203
v 0.055 0.631 -0.03
v 0.044 0.631 0.07
v 0.017 0.631 0.132
v -0.017 0.631 0.132
v -0.044 0.631 0.07
v -0.055 0.631 -0.03
v -0.044 0.631 -0.13
v -0.017 0.631 -0.192
v 0.017 0.631 -0.192
v 0.044 0.631 -0.13
v 0 0.64 -0.03
usemtl FurLight
s off
f 115 117 116
f 116 117 127 126
f 126 127 137 136
f 136 137 147 146
f 146 147 157 156
f 156 157 166
f 115 118 117
f 117 118 128 127
f 127 128 138 137
f 137 138 148 147
f 147 148 158 157
f 157 158 166
f 115 119 118
f 118 119 129 128
f 128 129 139 138
f 138 139 149 148
f 148 149 159 158
f 158 159 166
f 115 120 119
f 119 120 130 129
f 129 130 140 139
f 139 140 150 149
f 149 150 160 159
f 159 160 166
f 115 121 120
f 120 121 131 130
f 130 131 141 140
f 140 141 151 150
f 150 151 161 160
f 160 161 166
f 115 122 121
f 121 122 132 131
f 131 132 142 141
f 141 142 152 151
f 151 152 162 161
f 161 162 166
f 115 123 122
f 122 123 133 132
f 132 133 143 142
f 142 143 153 152
f 152 153 163 162
f 162 163 166
f 115 124 123
f 123 124 134 133
f 133 134 144 143
f 143 144 154 153
f 153 154 164 163
f 163 164 166
f 115 125 124
f 124 125 135 134
f 134 135 145 144
f 144 145 155 154
f 154 155 165 164
f 164 165 166
f 115 116 125
f 125 116 126 135
f 135 126 136 145
f 145 136 146 155
f 155 146 156 165
f 165 156 166
o Body.Rump
v 0 0.58 -0.45
v 0.055 0.595 -0.45
v 0.044 0.595 -0.432
v 0.017 0.595 -0.421
v -0.017 0.595 -0.421
v -0.044 0.595 -0.432
v -0.055 0.595 -0.45
v -0.044 0.595 -0.468
v -0.017 0.595 -0.479
v 0.017 0.595 -0.479
v 0.044 0.595 -0.468
v 0.095 0.635 -0.45
v 0.077 0.635 -0.419
v 0.029 0.635 -0.401
v -0.029 0.635 -0.401
v -0.077 0.635 -0.419
v -0.095 0.635 -0.45
v -0.077 0.635 -0.481
v -0.029 0.635 -0.499
v 0.029 0.635 -0.499
v 0.077 0.635 -0.481
v 0.11 0.69 -0.45
v 0.089 0.69 -0.415
v 0.034 0.69 -0.393
v -0.034 0.69 -0.393
v -0.089 0.69 -0.415
v -0.11 0.69 -0.45
v -0.089 0.69 -0.485
v -0.034 0.69 -0.507
v 0.034 0.69 -0.507
v 0.089 0.69 -0.485
v 0.095 0.745 -0.45
v 0.077 0.745 -0.419
v 0.029 0.745 -0.401
v -0.029 0.745 -0.401
v -0.077 0.745 -0.419
v -0.095 0.745 -0.45
v -0.077 0.745 -0.481
v -0.029 0.745 -0.499
v 0.029 0.745 -0.499
v 0.077 0.745 -0.481
v 0.055 0.785 -0.45
v 0.044 0.785 -0.432
v 0.017 0.785 -0.421
v -0.017 0.785 -0.421
v -0.044 0.785 -0.432
v -0.055 0.785 -0.45
v -0.044 0.785 -0.468
v -0.017 0.785 -0.479
v 0.017 0.785 -0.479
v 0.044 0.785 -0.468
v 0 0.8 -0.45
usemtl Rump
s off
f 167 169 168
f 168 169 179 178
f 178 179 189 188
f 188 189 199 198
f 198 199 209 208
f 208 209 218
f 167 170 169
f 169 170 180 179
f 179 180 190 189
f 189 190 200 199
f 199 200 210 209
f 209 210 218
f 167 171 170
f 170 171 181 180
f 180 181 191 190
f 190 191 201 200
f 200 201 211 210
f 210 211 218
f 167 172 171
f 171 172 182 181
f 181 182 192 191
f 191 192 202 201
f 201 202 212 211
f 211 212 218
f 167 173 172
f 172 173 183 182
f 182 183 193 192
f 192 193 203 202
f 202 203 213 212
f 212 213 218
f 167 174 173
f 173 174 184 183
f 183 184 194 193
f 193 194 204 203
f 203 204 214 213
f 213 214 218
f 167 175 174
f 174 175 185 184
f 184 185 195 194
f 194 195 205 204
f 204 205 215 214
f 214 215 218
f 167 176 175
f 175 176 186 185
f 185 186 196 195
f 195 196 206 205
f 205 206 216 215
f 215 216 218
f 167 177 176
f 176 177 187 186
f 186 187 197 196
f 196 197 207 206
f 206 207 217 216
f 216 217 218
f 167 168 177
f 177 168 178 187
f 187 178 188 197
f 197 188 198 207
f 207 198 208 217
f 217 208 218
o Body.Tail
v 0 0.73 -0.5
v 0.021 0.742 -0.5
v 0.011 0.742 -0.482
v -0.011 0.742 -0.482
v -0.021 0.742 -0.5
v -0.011 0.742 -0.518
v 0.011 0.742 -0.518
v 0.03 0.77 -0.5
v 0.015 0.77 -0.474
v -0.015 0.77 -0.474
v -0.03 0.77 -0.5
v -0.015 0.77 -0.526
v 0.015 0.77 -0.526
v 0.021 0.798 -0.5
v 0.011 0.798 -0.482
v -0.011 0.798 -0.482
v -0.021 0.798 -0.5
v -0.011 0.798 -0.518
v 0.011 0.798 -0.518
v 0 0.81 -0.5
usemtl Rump
s off
f 219 221 220
f 220 221 227 226
f 226 227 233 232
f 232 233 238
f 219 222 221
f 221 222 228 227
f 227 228 234 233
f 233 234 238
f 219 223 222
f 222 223 229 228
f 228 229 235 234
f 234 235 238
f 219 224 223
f 223 224 230 229
f 229 230 236 235
f 235 236 238
f 219 225 224
f 224 225 231 230
f 230 231 237 236
f 236 237 238
f 219 220 225
f 225 220 226 231
f 231 226 232 237
f 237 232 238
o Head.Neck
v -0.069 0.715 0.296
v -0.029 0.737 0.261
v 0.029 0.737 0.261
v 0.069 0.715 0.296
v 0.069 0.685 0.344
v 0.029 0.663 0.379
v -0.029 0.663 0.379
v -0.069 0.685 0.344
v -0.046 1.03 0.504
v -0.019 1.044 0.481
v 0.019 1.044 0.481
v 0.046 1.03 0.504
v 0.046 1.01 0.536
v 0.019 0.996 0.559
v -0.019 0.996 0.559
v -0.046 1.01 0.536
usemtl Fur
s off
f 246 245 244 243 242 241 240 239
f 247 248 249 250 251 252 253 254
f 239 240 248 247
f 240 241 249 248
f 241 242 250 249
f 242 243 251 250
f 243 244 252 251
f 244 245 253 252
f 245 246 254 253
f 246 239 247 254
o Head.Skull
v 0 0.988 0.528
v 0.035 0.998 0.531
v 0.028 0.989 0.559
v 0.011 0.984 0.576
v -0.011 0.984 0.576
v -0.028 0.989 0.559
v -0.035 0.998 0.531
v -0.028 1.007 0.503
v -0.011 1.012 0.485
v 0.011 1.012 0.485
v 0.028 1.007 0.503
v 0.061 1.024 0.539
v 0.049 1.009 0.588
v 0.019 1 0.618
v -0.019 1 0.618
v -0.049 1.009 0.588
v -0.061 1.024 0.539
v -0.049 1.039 0.49
v -0.019 1.049 0.46
v 0.019 1.049 0.46
v 0.049 1.039 0.49
v 0.07 1.06 0.55
v 0.057 1.043 0.606
v 0.022 1.032 0.641
v -0.022 1.032 0.641
v -0.057 1.043 0.606
v -0.07 1.06 0.55
v -0.057 1.077 0.494
v -0.022 1.088 0.459
v 0.022 1.088 0.459
v 0.057 1.077 0.494
v 0.061 1.096 0.561
v 0.049 1.081 0.61
v 0.019 1.071 0.64
v -0.019 1.071 0.64
v -0.049 1.081 0.61
v -0.061 1.096 0.561
v -0.049 1.111 0.512
v -0.019 1.12 0.482
v 0.019 1.12 0.482
v 0.049 1.111 0.512
v 0.035 1.122 0.569
v 0.028 1.113 0.597
v 0.011 1.108 0.615
v -0.011 1.108 0.615
v -0.028 1.113 0.597
v -0.035 1.122 0.569
v -0.028 1.131 0.541
v -0.011 1.136 0.524
v 0.011 1.136 0.524
v 0.028 1.131 0.541
v 0 1.132 0.572
usemtl Fur
s off
f 255 257 256
f 256 257 267 266
f 266 267 277 276
f 276 277 287 286
f 286 287 297 296
f 296 297 306
f 255 258 257
f 257 258 268 267
f 267 268 278 277
f 277 278 288 287
f 287 288 298 297
f 297 298 306
f 255 259 258
f 258 259 269 268
f 268 269 279 278
f 278 279 289 288
f 288 289 299 298
f 298 299 306
f 255 260 259
f 259 260 270 269
f 269 270 280 279
f 279 280 290 289
f 289 290 300 299
f 299 300 306
f 255 261 260
f 260 261 271 270
f 270 271 281 280
f 280 281 291 290
f 290 291 301 300
f 300 301 306
f 255 262 261
f 261 262 272 271
f 271 272 282 281
f 281 282 292 291
f 291 292 302 301
f 301 302 306
f 255 263 262
f 262 263 273 272
f 272 273 283 282
f 282 283 293 292
f 292 293 303 302
f 302 303 306
f 255 264 263
f 263 264 274 273
f 273 274 284 283
f 283 284 294 293
f 293 294 304 303
f 303 304 306
f 255 265 264
f 264 265 275 274
f 274 275 285 284
f 284 285 295 294
f 294 295 305 304
f 304 305 306
f 255 256 265
f 265 256 266 275
f 275 266 276 285
f 285 276 286 295
f 295 286 296 305
f 305 296 306
o Head.Muzzle
v 0 0.975 0.68
v 0.022 0.981 0.68
v 0.016 0.981 0.708
v 0 0.981 0.72
v -0.016 0.981 0.708
v -0.022 0.981 0.68
v -0.016 0.981 0.652
v 0 0.981 0.64
v 0.016 0.981 0.652
v 0.039 0.998 0.68
v 0.028 0.998 0.729
v 0 0.998 0.749
v -0.028 0.998 0.729
v -0.039 0.998 0.68
v -0.028 0.998 0.631
v 0 0.998 0.611
v 0.028 0.998 0.631
v 0.045 1.02 0.68
v 0.032 1.02 0.737
v 0 1.02 0.76
v -0.032 1.02 0.737
v -0.045 1.02 0.68
v -0.032 1.02 0.623
v 0 1.02 0.6
v 0.032 1.02 0.623
v 0.039 1.042 0.68
v 0.028 1.042 0.729
v 0 1.042 0.749
v -0.028 1.042 0.729
v -0.039 1.042 0.68
v -0.028 1.042 0.631
v 0 1.042 0.611
v 0.028 1.042 0.631
v 0.022 1.059 0.68
v 0.016 1.059 0.708
v 0 1.059 0.72
v -0.016 1.059 0.708
v -0.022 1.059 0.68
v -0.016 1.059 0.652
v 0 1.059 0.64
v 0.016 1.059 0.652
v 0 1.065 0.68
usemtl FurDark
s off
f 307 309 308
f 308 309 317 316
f 316 317 325 324
f 324 325 333 332
f 332 333 341 340
f 340 341 348
f 307 310 309
f 309 310 318 317
f 317 318 326 325
f 325 326 334 333
f 333 334 342 341
f 341 342 348
f 307 311 310
f 310 311 319 318
f 318 319 327 326
f 326 327 335 334
f 334 335 343 342
f 342 343 348
f 307 312 311
f 311 312 320 319
f 319 320 328 327
f 327 328 336 335
f 335 336 344 343
f 343 344 348
f 307 313 312
f 312 313 321 320
f 320 321 329 328
f 328 329 337 336
f 336 337 345 344
f 344 345 348
f 307 314 313
f 313 314 322 321
f 321 322 330 329
f 329 330 338 337
f 337 338 346 345
f 345 346 348
f 307 315 314
f 314 315 323 322
f 322 323 331 330
f 330 331 339 338
f 338 339 347 346
f 346 347 348
f 307 308 315
f 315 308 316 323
f 323 316 324 331
f 331 324 332 339
f 339 332 340 347
f 347 340 348
o Head.Nose
v 0 1 0.755
v 0.021 1.007 0.755
v 0.011 1.007 0.767
v -0.011 1.007 0.767
v -0.021 1.007 0.755
v -0.011 1.007 0.743
v 0.011 1.007 0.743
v 0.03 1.025 0.755
v 0.015 1.025 0.772
v -0.015 1.025 0.772
v -0.03 1.025 0.755
v -0.015 1.025 0.738
v 0.015 1.025 0.738
v 0.021 1.043 0.755
v 0.011 1.043 0.767
v -0.011 1.043 0.767
v -0.021 1.043 0.755
v -0.011 1.043 0.743
v 0.011 1.043 0.743
v 0 1.05 0.755
usemtl Nose
s off
f 349 351 350
f 350 351 357 356
f 356 357 363 362
f 362 363 368
f 349 352 351
f 351 352 358 357
f 357 358 364 363
f 363 364 368
f 349 353 352
f 352 353 359 358
f 358 359 365 364
f 364 365 368
f 349 354 353
f 353 354 360 359
f 359 360 366 365
f 365 366 368
f 349 355 354
f 354 355 361 360
f 360 361 367 366
f 366 367 368
f 349 350 355
f 355 350 356 361
f 361 356 362 367
f 367 362 368
o Head.Eye
v -0.062 1.071 0.6
v -0.052 1.075 0.6
v -0.057 1.075 0.609
v -0.067 1.075 0.609
v -0.072 1.075 0.6
v -0.067 1.075 0.591
v -0.057 1.075 0.591
v -0.048 1.085 0.6
v -0.055 1.085 0.612
v -0.069 1.085 0.612
v -0.076 1.085 0.6
v -0.069 1.085 0.588
v -0.055 1.085 0.588
v -0.052 1.095 0.6
v -0.057 1.095 0.609
v -0.067 1.095 0.609
v -0.072 1.095 0.6
v -0.067 1.095 0.591
v -0.057 1.095 0.591
v -0.062 1.099 0.6
usemtl Eye
s off
f 369 371 370
f 370 371 377 376
f 376 377 383 382
f 382 383 388
f 369 372 371
f 371 372 378 377
f 377 378 384 383
f 383 384 388
f 369 373 372
f 372 373 379 378
f 378 379 385 384
f 384 385 388
f 369 374 373
f 373 374 380 379
f 379 380 386 385
f 385 386 388
f 369 375 374
f 374 375 381 380
f 380 381 387 386
f 386 387 388
f 369 370 375
f 375 370 376 381
f 381 376 382 387
f 387 382 388
o Head.Ear
v -0.027 1.122 0.477
v -0.026 1.133 0.51
v -0.049 1.122 0.533
v -0.073 1.098 0.523
v -0.074 1.087 0.49
v -0.051 1.098 0.467
v -0.14 1.235 0.45
v -0.14 1.24 0.464
v -0.15 1.235 0.474
v -0.16 1.225 0.47
v -0.16 1.22 0.456
v -0.15 1.225 0.446
usemtl Fur
s off
f 394 393 392 391 390 389
f 395 396 397 398 399 400
f 389 390 396 395
f 390 391 397 396
f 391 392 398 397
f 392 393 399 398
f 393 394 400 399
f 394 389 395 400
o Head.Antler
v -0.023 1.109 0.507
v -0.015 1.111 0.52
v -0.023 1.112 0.533
v -0.037 1.111 0.533
v -0.045 1.109 0.52
v -0.037 1.108 0.507
v -0.046 1.32 0.492
v -0.041 1.321 0.5
v -0.046 1.321 0.508
v -0.054 1.32 0.508
v -0.059 1.319 0.5
v -0.054 1.319 0.492
usemtl Antler
s off
f 406 405 404 403 402 401
f 407 408 409 410 411 412
f 401 402 408 407
f 402 403 409 408
f 403 404 410 409
f 404 405 411 410
f 405 406 412 411
f 406 401 407 412
o Head.Antler
v -0.053 1.224 0.506
v -0.045 1.228 0.504
v -0.036 1.224 0.507
v -0.037 1.216 0.514
v -0.045 1.212 0.516
v -0.054 1.216 0.513
v -0.055 1.282 0.578
v -0.05 1.285 0.576
v -0.045 1.282 0.578
v -0.045 1.278 0.582
v -0.05 1.275 0.584
v -0.055 1.278 0.582
usemtl Antler
s off
f 418 417 416 415 414 413
f 419 420 421 422 423 424
f 413 414 420 419
f 414 415 421 420
f 415 416 422 421
f 416 417 423 422
f 417 418 424 423
f 418 413 419 424
o Head.Eye
v 0.062 1.071 0.6
v 0.072 1.075 0.6
v 0.067 1.075 0.609
v 0.057 1.075 0.609
v 0.052 1.075 0.6
v 0.057 1.075 0.591
v 0.067 1.075 0.591
v 0.076 1.085 0.6
v 0.069 1.085 0.612
v 0.055 1.085 0.612
v 0.048 1.085 0.6
v 0.055 1.085 0.588
v 0.069 1.085 0.588
v 0.072 1.095 0.6
v 0.067 1.095 0.609
v 0.057 1.095 0.609
v 0.052 1.095 0.6
v 0.057 1.095 0.591
v 0.067 1.095 0.591
v 0.062 1.099 0.6
usemtl Eye
s off
f 425 427 426
f 426 427 433 432
f 432 433 439 438
f 438 439 444
f 425 428 427
f 427 428 434 433
f 433 434 440 439
f 439 440 444
f 425 429 428
f 428 429 435 434
f 434 435 441 440
f 440 441 444
f 425 430 429
f 429 430 436 435
f 435 436 442 441
f 441 442 444
f 425 431 430
f 430 431 437 436
f 436 437 443 442
f 442 443 444
f 425 426 431
f 431 426 432 437
f 437 432 438 443
f 443 438 444
o Head.Ear
v 0.049 1.122 0.533
v 0.026 1.133 0.51
v 0.027 1.122 0.477
v 0.051 1.098 0.467
v 0.074 1.087 0.49
v 0.073 1.098 0.523
v 0.15 1.235 0.474
v 0.14 1.24 0.464
v 0.14 1.235 0.45
v 0.15 1.225 0.446
v 0.16 1.22 0.456
v 0.16 1.225 0.47
usemtl Fur
s off
f 450 449 448 447 446 445
f 451 452 453 454 455 456
f 445 446 452 451
f 446 447 453 452
f 447 448 454 453
f 448 449 455 454
f 449 450 456 455
f 450 445 451 456
o Head.Antler
v 0.037 1.108 0.507
v 0.045 1.109 0.52
v 0.037 1.111 0.533
v 0.023 1.112 0.533
v 0.015 1.111 0.52
v 0.023 1.109 0.507
v 0.054 1.319 0.492
v 0.059 1.319 0.5
v 0.054 1.32 0.508
v 0.046 1.321 0.508
v 0.041 1.321 0.5
v 0.046 1.32 0.492
usemtl Antler
s off
f 462 461 460 459 458 457
f 463 464 465 466 467 468
f 457 458 464 463
f 458 459 465 464
f 459 460 466 465
f 460 461 467 466
f 461 462 468 467
f 462 457 463 468
o Head.Antler
v 0.036 1.224 0.507
v 0.045 1.228 0.504
v 0.053 1.224 0.506
v 0.054 1.216 0.513
v 0.045 1.212 0.516
v 0.037 1.216 0.514
v 0.045 1.282 0.578
v 0.05 1.285 0.576
v 0.055 1.282 0.578
v 0.055 1.278 0.582
v 0.05 1.275 0.584
v 0.045 1.278 0.582
usemtl Antler
s off
f 474 473 472 471 470 469
f 475 476 477 478 479 480
f 469 470 476 475
f 470 471 477 476
f 471 472 478 477
f 472 473 479 478
f 473 474 480 479
f 474 469 475 480
o Leg.FL
v 0.102 0.701 0.342
v 0.127 0.701 0.317
v 0.127 0.699 0.283
v 0.102 0.699 0.258
v 0.068 0.699 0.258
v 0.043 0.699 0.283
v 0.043 0.701 0.317
v 0.068 0.701 0.342
v 0.095 0.361 0.333
v 0.108 0.36 0.32
v 0.108 0.36 0.3
v 0.095 0.359 0.287
v 0.075 0.359 0.287
v 0.062 0.36 0.3
v 0.062 0.36 0.32
v 0.075 0.361 0.333
usemtl Fur
s off
f 488 487 486 485 484 483 482 481
f 489 490 491 492 493 494 495 496
f 481 482 490 489
f 482 483 491 490
f 483 484 492 491
f 484 485 493 492
f 485 486 494 493
f 486 487 495 494
f 487 488 496 495
f 488 481 489 496
o Leg.FL.Shin
v 0.096 0.371 0.329
v 0.108 0.37 0.31
v 0.096 0.369 0.291
v 0.074 0.369 0.291
v 0.063 0.37 0.31
v 0.074 0.371 0.329
v 0.094 0.05 0.335
v 0.103 0.05 0.32
v 0.094 0.05 0.305
v 0.076 0.05 0.305
v 0.068 0.05 0.32
v 0.076 0.05 0.335
usemtl Fur
s off
f 502 501 500 499 498 497
f 503 504 505 506 507 508
f 497 498 504 503
f 498 499 505 504
f 499 500 506 505
f 500 501 507 506
f 501 502 508 507
f 502 497 503 508
o Leg.FL.Hoof
v 0.107 0 0.332
v 0.085 0 0.35
v 0.063 0 0.333
v 0.063 0 0.298
v 0.085 0 0.28
v 0.107 0 0.298
v 0.107 0.06 0.332
v 0.085 0.06 0.35
v 0.063 0.06 0.333
v 0.063 0.06 0.298
v 0.085 0.06 0.28
v 0.107 0.06 0.298
usemtl Hoof
s off
f 514 513 512 511 510 509
f 515 516 517 518 519 520
f 509 510 516 515
f 510 511 517 516
f 511 512 518 517
f 512 513 519 518
f 513 514 520 519
f 514 509 515 520
o Leg.FR
v -0.068 0.701 0.342
v -0.043 0.701 0.317
v -0.043 0.699 0.283
v -0.068 0.699 0.258
v -0.102 0.699 0.258
v -0.127 0.699 0.283
v -0.127 0.701 0.317
v -0.102 0.701 0.342
v -0.075 0.361 0.333
v -0.062 0.36 0.32
v -0.062 0.36 0.3
v -0.075 0.359 0.287
v -0.095 0.359 0.287
v -0.108 0.36 0.3
v -0.108 0.36 0.32
v -0.095 0.361 0.333
usemtl Fur
s off
f 528 527 526 525 524 523 522 521
f 529 530 531 532 533 534 535 536
f 521 522 530 529
f 522 523 531 530
f 523 524 532 531
f 524 525 533 532
f 525 526 534 533
f 526 527 535 534
f 527 528 536 535
f 528 521 529 536
o Leg.FR.Shin
v -0.074 0.371 0.329
v -0.063 0.37 0.31
v -0.074 0.369 0.291
v -0.096 0.369 0.291
v -0.108 0.37 0.31
v -0.096 0.371 0.329
v -0.076 0.05 0.335
v -0.068 0.05 0.32
v -0.076 0.05 0.305
v -0.094 0.05 0.305
v -0.103 0.05 0.32
v -0.094 0.05 0.335
usemtl Fur
s off
f 542 541 540 539 538 537
f 543 544 545 546 547 548
f 537 538 544 543
f 538 539 545 544
f 539 540 546 545
f 540 541 547 546
f 541 542 548 547
f 542 537 543 548
o Leg.FR.Hoof
v -0.063 0 0.332
v -0.085 0 0.35
v -0.107 0 0.333
v -0.107 0 0.298
v -0.085 0 0.28
v -0.063 0 0.298
v -0.063 0.06 0.332
v -0.085 0.06 0.35
v -0.107 0.06 0.333
v -0.107 0.06 0.298
v -0.085 0.06 0.28
v -0.063 0.06 0.298
usemtl Hoof
s off
f 554 553 552 551 550 549
f 555 556 557 558 559 560
f 549 550 556 555
f 550 551 557 556
f 551 552 558 557
f 552 553 559 558
f 553 554 560 559
f 554 549 555 560
o Leg.BL
v 0.113 0.692 -0.305
v 0.145 0.697 -0.337
v 0.145 0.703 -0.383
v 0.113 0.708 -0.415
v 0.067 0.708 -0.415
v 0.035 0.703 -0.383
v 0.035 0.697 -0.337
v 0.067 0.692 -0.305
v 0.1 0.357 -0.387
v 0.113 0.359 -0.401
v 0.113 0.361 -0.419
v 0.1 0.363 -0.433
v 0.08 0.363 -0.433
v 0.067 0.361 -0.419
v 0.067 0.359 -0.401
v 0.08 0.357 -0.387
usemtl Fur
s off
f 568 567 566 565 564 563 562 561
f 569 570 571 572 573 574 575 576
f 561 562 570 569
f 562 563 571 570
f 563 564 572 571
f 564 565 573 572
f 565 566 574 573
f 566 567 575 574
f 567 568 576 575
f 568 561 569 576
o Leg.BL.Shin
v 0.101 0.372 -0.391
v 0.112 0.37 -0.41
v 0.101 0.368 -0.429
v 0.079 0.368 -0.429
v 0.068 0.37 -0.41
v 0.079 0.372 -0.391
v 0.099 0.051 -0.365
v 0.107 0.05 -0.38
v 0.099 0.049 -0.395
v 0.081 0.049 -0.395
v 0.072 0.05 -0.38
v 0.081 0.051 -0.365
usemtl Fur
s off
f 582 581 580 579 578 577
f 583 584 585 586 587 588
f 577 578 584 583
f 578 579 585 584
f 579 580 586 585
f 580 581 587 586
f 581 582 588 587
f 582 577 583 588
o Leg.BL.Hoof
v 0.112 0 -0.337
v 0.09 0 -0.32
v 0.068 0 -0.337
v 0.068 0 -0.372
v 0.09 0 -0.39
v 0.112 0 -0.372
v 0.112 0.06 -0.337
v 0.09 0.06 -0.32
v 0.068 0.06 -0.337
v 0.068 0.06 -0.372
v 0.09 0.06 -0.39
v 0.112 0.06 -0.372
usemtl Hoof
s off
f 594 593 592 591 590 589
f 595 596 597 598 599 600
f 589 590 596 595
f 590 591 597 596
f 591 592 598 597
f 592 593 599 598
f 593 594 600 599
f 594 589 595 600
o Leg.BR
v -0.067 0.692 -0.305
v -0.035 0.697 -0.337
v -0.035 0.703 -0.383
v -0.067 0.708 -0.415
v -0.113 0.708 -0.415
v -0.145 0.703 -0.383
v -0.145 0.697 -0.337
v -0.113 0.692 -0.305
v -0.08 0.357 -0.387
v -0.067 0.359 -0.401
v -0.067 0.361 -0.419
v -0.08 0.363 -0.433
v -0.1 0.363 -0.433
v -0.113 0.361 -0.419
v -0.113 0.359 -0.401
v -0.1 0.357 -0.387
usemtl Fur
s off
f 608 607 606 605 604 603 602 601
f 609 610 611 612 613 614 615 616
f 601 602 610 609
f 602 603 611 610
f 603 604 612 611
f 604 605 613 612
f 605 606 614 613
f 606 607 615 614
f 607 608 616 615
f 608 601 609 616
o Leg.BR.Shin
v -0.079 0.372 -0.391
v -0.068 0.37 -0.41
v -0.079 0.368 -0.429
v -0.101 0.368 -0.429
v -0.112 0.37 -0.41
v -0.101 0.372 -0.391
v -0.081 0.051 -0.365
v -0.072 0.05 -0.38
v -0.081 0.049 -0.395
v -0.099 0.049 -0.395
v -0.107 0.05 -0.38
v -0.099 0.051 -0.365
usemtl Fur
s off
f 622 621 620 619 618 617
f 623 624 625 626 627 628
f 617 618 624 623
f 618 619 625 624
f 619 620 626 625
f 620 621 627 626
f 621 622 628 627
f 622 617 623 628
o Leg.BR.Hoof
v -0.068 0 -0.337
v -0.09 0 -0.32
v -0.112 0 -0.337
v -0.112 0 -0.372
v -0.09 0 -0.39
v -0.068 0 -0.372
v -0.068 0.06 -0.337
v -0.09 0.06 -0.32
v -0.112 0.06 -0.337
v -0.112 0.06 -0.372
v -0.09 0.06 -0.39
v -0.068 0.06 -0.372
usemtl Hoof
s off
f 634 633 632 631 630 629
f 635 636 637 638 639 640
f 629 630 636 635
f 630 631 637 636
f 631 632 638 637
f 632 633 639 638
f 633 634 640 639
f 634 629 635 640
