# field_stake.obj - Pflock am Rand, Kopf in Spielerfarbe (Feld, docs/BLENDER.md)
mtllib field_stake.mtl
o Stake
v -0.05 0 -0.05
v -0.05 0 0.05
v 0.05 0 0.05
v 0.05 0 -0.05
v -0.03 0.5 -0.03
v -0.03 0.5 0.03
v 0.03 0.5 0.03
v 0.03 0.5 -0.03
usemtl Wood
s off
f 4 3 2 1
f 5 6 7 8
f 1 2 6 5
f 2 3 7 6
f 3 4 8 7
f 4 1 5 8
o Stake.Top
v -0.045 0.42 -0.045
v -0.045 0.42 0.045
v 0.045 0.42 0.045
v 0.045 0.42 -0.045
v -0.045 0.56 -0.045
v -0.045 0.56 0.045
v 0.045 0.56 0.045
v 0.045 0.56 -0.045
usemtl Paint
s off
f 12 11 10 9
f 13 14 15 16
f 9 10 14 13
f 10 11 15 14
f 11 12 16 15
f 12 9 13 16
