# field_wheat_stalk_light.obj - Weizenhalm mit Ähre (hell), Halm 1 m - das Spiel streckt auf 0,8 bis 1,05 m und neigt (Feld, docs/BLENDER.md)
mtllib field_wheat_stalk_light.mtl
o Stalk
v 0.013 0 -0.008
v 0 0 0.015
v -0.013 0 -0.007
v 0.013 1 -0.008
v 0 1 0.015
v -0.013 1 -0.007
usemtl WheatStem
s off
f 3 2 1
f 4 5 6
f 1 2 5 4
f 2 3 6 5
f 3 1 4 6
o Ear
v 0.03 1 -0.018
v 0 1 0.035
v -0.03 1 -0.017
v 0.013 1.13 -0.008
v 0 1.13 0.015
v -0.013 1.13 -0.007
usemtl WheatEar
s off
f 9 8 7
f 10 11 12
f 7 8 11 10
f 8 9 12 11
f 9 7 10 12
