# field_corn_1.obj - Maispflanze mit einem Kolben, 2,2 m - das Spiel dreht sie und streckt auf 2,0 bis 2,45 m (Feld, docs/BLENDER.md)
mtllib field_corn_1.mtl
o Stalk
v 0.035 0 -0.035
v 0.035 0 0.035
v -0.035 0 0.035
v -0.035 0 -0.035
v 0.02 2.2 -0.02
v 0.02 2.2 0.02
v -0.02 2.2 0.02
v -0.02 2.2 -0.02
usemtl CornStalk
s off
f 4 3 2 1
f 5 6 7 8
f 1 2 6 5
f 2 3 7 6
f 3 4 8 7
f 4 1 5 8
o Leaf
v -0.023 0.432 0.023
v 0 0.4 -0.045
v 0.023 0.368 0.022
v 0.372 0.705 0.018
v 0.39 0.68 -0.035
v 0.408 0.655 0.017
usemtl CornLeaf
s off
f 11 10 9
f 12 13 14
f 9 10 13 12
f 10 11 14 13
f 11 9 12 14
o Leaf
v 0.411 0.701 0.018
v 0.39 0.68 -0.035
v 0.369 0.659 0.017
v 0.655 0.425 0.004
v 0.65 0.42 -0.007
v 0.645 0.415 0.004
usemtl CornLeaf
s off
f 17 16 15
f 18 19 20
f 15 16 19 18
f 16 17 20 19
f 17 15 18 20
o Leaf
v 0.003 0.751 -0.033
v 0.03 0.72 0.033
v -0.033 0.689 0
v -0.259 1.024 0.214
v -0.237 1 0.265
v -0.287 0.976 0.239
usemtl CornLeaf
s off
f 23 22 21
f 24 25 26
f 21 22 25 24
f 22 23 26 25
f 23 21 24 26
o Leaf
v -0.289 1.02 0.241
v -0.237 1 0.265
v -0.256 0.98 0.211
v -0.441 0.744 0.399
v -0.43 0.74 0.404
v -0.434 0.736 0.393
usemtl CornLeaf
s off
f 29 28 27
f 30 31 32
f 27 28 31 30
f 28 29 32 31
f 29 27 30 32
o Leaf
v 0.02 1.069 0.028
v -0.045 1.04 -0.004
v 0.025 1.011 -0.024
v 0.044 1.343 -0.295
v -0.007 1.32 -0.32
v 0.047 1.297 -0.335
usemtl CornLeaf
s off
f 35 34 33
f 36 37 38
f 33 34 37 36
f 34 35 38 37
f 35 33 36 38
o Leaf
v 0.047 1.339 -0.339
v -0.007 1.32 -0.32
v 0.043 1.301 -0.292
v 0.051 1.064 -0.533
v 0.039 1.06 -0.529
v 0.05 1.056 -0.523
usemtl CornLeaf
s off
f 41 40 39
f 42 43 44
f 39 40 43 42
f 40 41 44 43
f 41 39 42 44
o Leaf
v -0.035 1.388 -0.008
v 0.036 1.36 -0.027
v -0.001 1.332 0.035
v 0.145 1.662 0.218
v 0.199 1.64 0.203
v 0.171 1.618 0.251
usemtl CornLeaf
s off
f 47 46 45
f 48 49 50
f 45 46 49 48
f 46 47 50 49
f 47 45 48 50
o Leaf
v 0.173 1.658 0.254
v 0.199 1.64 0.203
v 0.143 1.622 0.215
v 0.286 1.384 0.379
v 0.292 1.38 0.368
v 0.28 1.376 0.371
usemtl CornLeaf
s off
f 53 52 51
f 54 55 56
f 51 52 55 54
f 52 53 56 55
f 53 51 54 56
o Leaf
v 0.033 1.706 -0.017
v -0.008 1.68 0.044
v -0.025 1.654 -0.027
v -0.217 1.98 -0.056
v -0.248 1.96 -0.008
v -0.262 1.94 -0.064
usemtl CornLeaf
s off
f 59 58 57
f 60 61 62
f 57 58 61 60
f 58 59 62 61
f 59 57 60 62
o Leaf
v -0.264 1.976 -0.065
v -0.248 1.96 -0.008
v -0.214 1.944 -0.056
v -0.408 1.703 -0.076
v -0.405 1.7 -0.064
v -0.398 1.697 -0.074
usemtl CornLeaf
s off
f 65 64 63
f 66 67 68
f 63 64 67 66
f 64 65 68 67
f 65 63 66 68
o Cob.Husk
v -0.048 1.016 0.031
v -0.006 1.032 -0.015
v 0.057 1.016 -0.009
v 0.077 0.984 0.043
v 0.035 0.968 0.09
v -0.028 0.984 0.084
v -0.014 1.155 0.106
v 0.025 1.17 0.063
v 0.082 1.155 0.069
v 0.101 1.125 0.117
v 0.062 1.11 0.16
v 0.004 1.125 0.155
usemtl CornHusk
s off
f 74 73 72 71 70 69
f 75 76 77 78 79 80
f 69 70 76 75
f 70 71 77 76
f 71 72 78 77
f 72 73 79 78
f 73 74 80 79
f 74 69 75 80
o Cob
v -0.01 1.152 0.106
v 0.026 1.165 0.066
v 0.079 1.152 0.072
v 0.097 1.128 0.118
v 0.061 1.115 0.158
v 0.008 1.128 0.152
v 0.053 1.388 0.22
v 0.076 1.396 0.195
v 0.11 1.388 0.198
v 0.121 1.372 0.227
v 0.098 1.364 0.253
v 0.064 1.372 0.249
usemtl CornCob
s off
f 86 85 84 83 82 81
f 87 88 89 90 91 92
f 81 82 88 87
f 82 83 89 88
f 83 84 90 89
f 84 85 91 90
f 85 86 92 91
f 86 81 87 92
o Cob.Husk
v 0.024 1.16 0.133
v 0.037 1.14 0.077
v 0.069 1.12 0.125
v 0.141 1.263 0.097
v 0.143 1.26 0.089
v 0.148 1.257 0.096
usemtl CornHusk
s off
f 95 94 93
f 96 97 98
f 93 94 97 96
f 94 95 98 97
f 95 93 96 98
o Cob.Husk
v 0.054 1.16 0.085
v 0.062 1.14 0.141
v 0.015 1.12 0.11
v -0.041 1.263 0.163
v -0.04 1.26 0.171
v -0.047 1.257 0.166
usemtl CornHusk
s off
f 101 100 99
f 102 103 104
f 99 100 103 102
f 100 101 104 103
f 101 99 102 104
o Tassel
v -0.014 2.157 0.009
v 0 2.15 -0.018
v 0.014 2.143 0.009
v 0.155 2.482 0.003
v 0.16 2.48 -0.006
v 0.165 2.478 0.003
usemtl Tassel
s off
f 107 106 105
f 108 109 110
f 105 106 109 108
f 106 107 110 109
f 107 105 108 110
o Tassel
v -0.001 2.157 -0.016
v 0.015 2.15 0.009
v -0.014 2.143 0.007
v -0.081 2.482 0.133
v -0.076 2.48 0.141
v -0.086 2.478 0.141
usemtl Tassel
s off
f 113 112 111
f 114 115 116
f 111 112 115 114
f 112 113 116 115
f 113 111 114 116
o Tassel
v 0.014 2.157 0.008
v -0.015 2.15 0.009
v 0.001 2.143 -0.016
v -0.074 2.482 -0.137
v -0.084 2.48 -0.137
v -0.078 2.478 -0.145
usemtl Tassel
s off
f 119 118 117
f 120 121 122
f 117 118 121 120
f 118 119 122 121
f 119 117 120 122
