# goat.obj - Ziege, Blickrichtung +z (tools/models/animals.mjs)
mtllib goat.mtl
o Body
v 0 0.42 -0.04
v 0.065 0.44 -0.04
v 0.056 0.44 0.055
v 0.033 0.44 0.125
v 0 0.44 0.15
v -0.032 0.44 0.125
v -0.056 0.44 0.055
v -0.065 0.44 -0.04
v -0.056 0.44 -0.135
v -0.033 0.44 -0.205
v 0 0.44 -0.23
v 0.033 0.44 -0.205
v 0.056 0.44 -0.135
v 0.113 0.495 -0.04
v 0.098 0.495 0.125
v 0.056 0.495 0.245
v 0 0.495 0.289
v -0.056 0.495 0.245
v -0.098 0.495 0.125
v -0.113 0.495 -0.04
v -0.098 0.495 -0.205
v -0.056 0.495 -0.325
v 0 0.495 -0.369
v 0.056 0.495 -0.325
v 0.097 0.495 -0.205
v 0.13 0.57 -0.04
v 0.113 0.57 0.15
v 0.065 0.57 0.289
v 0 0.57 0.34
v -0.065 0.57 0.289
v -0.113 0.57 0.15
v -0.13 0.57 -0.04
v -0.113 0.57 -0.23
v -0.065 0.57 -0.369
v 0 0.57 -0.42
v 0.065 0.57 -0.369
v 0.113 0.57 -0.23
v 0.113 0.645 -0.04
v 0.098 0.645 0.125
v 0.056 0.645 0.245
v 0 0.645 0.289
v -0.056 0.645 0.245
v -0.098 0.645 0.125
v -0.113 0.645 -0.04
v -0.098 0.645 -0.205
v -0.056 0.645 -0.325
v 0 0.645 -0.369
v 0.056 0.645 -0.325
v 0.097 0.645 -0.205
v 0.065 0.7 -0.04
v 0.056 0.7 0.055
v 0.033 0.7 0.125
v 0 0.7 0.15
v -0.032 0.7 0.125
v -0.056 0.7 0.055
v -0.065 0.7 -0.04
v -0.056 0.7 -0.135
v -0.033 0.7 -0.205
v 0 0.7 -0.23
v 0.033 0.7 -0.205
v 0.056 0.7 -0.135
v 0 0.72 -0.04
usemtl GoatFur
s off
f 1 3 2
f 2 3 15 14
f 14 15 27 26
f 26 27 39 38
f 38 39 51 50
f 50 51 62
f 1 4 3
f 3 4 16 15
f 15 16 28 27
f 27 28 40 39
f 39 40 52 51
f 51 52 62
f 1 5 4
f 4 5 17 16
f 16 17 29 28
f 28 29 41 40
f 40 41 53 52
f 52 53 62
f 1 6 5
f 5 6 18 17
f 17 18 30 29
f 29 30 42 41
f 41 42 54 53
f 53 54 62
f 1 7 6
f 6 7 19 18
f 18 19 31 30
f 30 31 43 42
f 42 43 55 54
f 54 55 62
f 1 8 7
f 7 8 20 19
f 19 20 32 31
f 31 32 44 43
f 43 44 56 55
f 55 56 62
f 1 9 8
f 8 9 21 20
f 20 21 33 32
f 32 33 45 44
f 44 45 57 56
f 56 57 62
f 1 10 9
f 9 10 22 21
f 21 22 34 33
f 33 34 46 45
f 45 46 58 57
f 57 58 62
f 1 11 10
f 10 11 23 22
f 22 23 35 34
f 34 35 47 46
f 46 47 59 58
f 58 59 62
f 1 12 11
f 11 12 24 23
f 23 24 36 35
f 35 36 48 47
f 47 48 60 59
f 59 60 62
f 1 13 12
f 12 13 25 24
f 24 25 37 36
f 36 37 49 48
f 48 49 61 60
f 60 61 62
f 1 2 13
f 13 2 14 25
f 25 14 26 37
f 37 26 38 49
f 49 38 50 61
f 61 50 62
o Body.Belly
v 0 0.41 -0.03
v 0.05 0.418 -0.03
v 0.035 0.418 0.069
v 0 0.418 0.11
v -0.035 0.418 0.069
v -0.05 0.418 -0.03
v -0.035 0.418 -0.129
v 0 0.418 -0.17
v 0.035 0.418 -0.129
v 0.087 0.44 -0.03
v 0.061 0.44 0.141
v 0 0.44 0.212
v -0.061 0.44 0.141
v -0.087 0.44 -0.03
v -0.061 0.44 -0.201
v 0 0.44 -0.272
v 0.061 0.44 -0.201
v 0.1 0.47 -0.03
v 0.071 0.47 0.168
v 0 0.47 0.25
v -0.071 0.47 0.168
v -0.1 0.47 -0.03
v -0.071 0.47 -0.228
v 0 0.47 -0.31
v 0.071 0.47 -0.228
v 0.087 0.5 -0.03
v 0.061 0.5 0.141
v 0 0.5 0.212
v -0.061 0.5 0.141
v -0.087 0.5 -0.03
v -0.061 0.5 -0.201
v 0 0.5 -0.272
v 0.061 0.5 -0.201
v 0.05 0.522 -0.03
v 0.035 0.522 0.069
v 0 0.522 0.11
v -0.035 0.522 0.069
v -0.05 0.522 -0.03
v -0.035 0.522 -0.129
v 0 0.522 -0.17
v 0.035 0.522 -0.129
v 0 0.53 -0.03
usemtl GoatLight
s off
f 63 65 64
f 64 65 73 72
f 72 73 81 80
f 80 81 89 88
f 88 89 97 96
f 96 97 104
f 63 66 65
f 65 66 74 73
f 73 74 82 81
f 81 82 90 89
f 89 90 98 97
f 97 98 104
f 63 67 66
f 66 67 75 74
f 74 75 83 82
f 82 83 91 90
f 90 91 99 98
f 98 99 104
f 63 68 67
f 67 68 76 75
f 75 76 84 83
f 83 84 92 91
f 91 92 100 99
f 99 100 104
f 63 69 68
f 68 69 77 76
f 76 77 85 84
f 84 85 93 92
f 92 93 101 100
f 100 101 104
f 63 70 69
f 69 70 78 77
f 77 78 86 85
f 85 86 94 93
f 93 94 102 101
f 101 102 104
f 63 71 70
f 70 71 79 78
f 78 79 87 86
f 86 87 95 94
f 94 95 103 102
f 102 103 104
f 63 64 71
f 71 64 72 79
f 79 72 80 87
f 87 80 88 95
f 95 88 96 103
f 103 96 104
o Body.Stripe
v 0 0.415 -0.04
v 0.015 0.436 -0.04
v 0.011 0.436 0.091
v 0 0.436 0.145
v -0.011 0.436 0.091
v -0.015 0.436 -0.04
v -0.011 0.436 -0.171
v 0 0.436 -0.225
v 0.011 0.436 -0.171
v 0.026 0.492 -0.04
v 0.018 0.492 0.187
v 0 0.492 0.28
v -0.018 0.492 0.187
v -0.026 0.492 -0.04
v -0.018 0.492 -0.267
v 0 0.492 -0.36
v 0.018 0.492 -0.267
v 0.03 0.57 -0.04
v 0.021 0.57 0.222
v 0 0.57 0.33
v -0.021 0.57 0.222
v -0.03 0.57 -0.04
v -0.021 0.57 -0.302
v 0 0.57 -0.41
v 0.021 0.57 -0.302
v 0.026 0.647 -0.04
v 0.018 0.647 0.187
v 0 0.647 0.28
v -0.018 0.647 0.187
v -0.026 0.647 -0.04
v -0.018 0.647 -0.267
v 0 0.647 -0.36
v 0.018 0.647 -0.267
v 0.015 0.704 -0.04
v 0.011 0.704 0.091
v 0 0.704 0.145
v -0.011 0.704 0.091
v -0.015 0.704 -0.04
v -0.011 0.704 -0.171
v 0 0.704 -0.225
v 0.011 0.704 -0.171
v 0 0.725 -0.04
usemtl GoatDark
s off
f 105 107 106
f 106 107 115 114
f 114 115 123 122
f 122 123 131 130
f 130 131 139 138
f 138 139 146
f 105 108 107
f 107 108 116 115
f 115 116 124 123
f 123 124 132 131
f 131 132 140 139
f 139 140 146
f 105 109 108
f 108 109 117 116
f 116 117 125 124
f 124 125 133 132
f 132 133 141 140
f 140 141 146
f 105 110 109
f 109 110 118 117
f 117 118 126 125
f 125 126 134 133
f 133 134 142 141
f 141 142 146
f 105 111 110
f 110 111 119 118
f 118 119 127 126
f 126 127 135 134
f 134 135 143 142
f 142 143 146
f 105 112 111
f 111 112 120 119
f 119 120 128 127
f 127 128 136 135
f 135 136 144 143
f 143 144 146
f 105 113 112
f 112 113 121 120
f 120 121 129 128
f 128 129 137 136
f 136 137 145 144
f 144 145 146
f 105 106 113
f 113 106 114 121
f 121 114 122 129
f 129 122 130 137
f 137 130 138 145
f 145 138 146
o Body.Tail
v 0.022 0.666 -0.389
v 0 0.671 -0.378
v -0.022 0.666 -0.389
v -0.022 0.654 -0.411
v 0 0.649 -0.422
v 0.022 0.654 -0.411
v 0.009 0.802 -0.466
v 0 0.804 -0.461
v -0.009 0.802 -0.466
v -0.009 0.798 -0.474
v 0 0.796 -0.479
v 0.009 0.798 -0.474
usemtl GoatDark
s off
f 152 151 150 149 148 147
f 153 154 155 156 157 158
f 147 148 154 153
f 148 149 155 154
f 149 150 156 155
f 150 151 157 156
f 151 152 158 157
f 152 147 153 158
o Head.Neck
v -0.055 0.592 0.22
v -0.023 0.609 0.193
v 0.023 0.609 0.193
v 0.055 0.592 0.22
v 0.055 0.568 0.26
v 0.023 0.551 0.287
v -0.023 0.551 0.287
v -0.055 0.568 0.26
v -0.042 0.849 0.385
v -0.017 0.862 0.365
v 0.017 0.862 0.365
v 0.042 0.849 0.385
v 0.042 0.831 0.415
v 0.017 0.818 0.435
v -0.017 0.818 0.435
v -0.042 0.831 0.415
usemtl GoatFur
s off
f 166 165 164 163 162 161 160 159
f 167 168 169 170 171 172 173 174
f 159 160 168 167
f 160 161 169 168
f 161 162 170 169
f 162 163 171 170
f 163 164 172 171
f 164 165 173 172
f 165 166 174 173
f 166 159 167 174
o Head.Skull
v 0 0.804 0.426
v 0.03 0.813 0.429
v 0.024 0.804 0.454
v 0.009 0.798 0.469
v -0.009 0.798 0.469
v -0.024 0.804 0.454
v -0.03 0.813 0.429
v -0.024 0.822 0.404
v -0.009 0.828 0.389
v 0.009 0.828 0.389
v 0.024 0.822 0.404
v 0.052 0.837 0.438
v 0.042 0.821 0.481
v 0.016 0.812 0.508
v -0.016 0.812 0.508
v -0.042 0.821 0.481
v -0.052 0.837 0.438
v -0.042 0.853 0.395
v -0.016 0.863 0.368
v 0.016 0.863 0.368
v 0.042 0.853 0.395
v 0.06 0.87 0.45
v 0.049 0.852 0.5
v 0.019 0.841 0.53
v -0.019 0.841 0.53
v -0.049 0.852 0.5
v -0.06 0.87 0.45
v -0.049 0.888 0.4
v -0.019 0.899 0.37
v 0.019 0.899 0.37
v 0.049 0.888 0.4
v 0.052 0.903 0.462
v 0.042 0.887 0.505
v 0.016 0.877 0.532
v -0.016 0.877 0.532
v -0.042 0.887 0.505
v -0.052 0.903 0.462
v -0.042 0.919 0.419
v -0.016 0.928 0.392
v 0.016 0.928 0.392
v 0.042 0.919 0.419
v 0.03 0.927 0.471
v 0.024 0.918 0.496
v 0.009 0.912 0.511
v -0.009 0.912 0.511
v -0.024 0.918 0.496
v -0.03 0.927 0.471
v -0.024 0.936 0.446
v -0.009 0.942 0.431
v 0.009 0.942 0.431
v 0.024 0.936 0.446
v 0 0.936 0.474
usemtl GoatFur
s off
f 175 177 176
f 176 177 187 186
f 186 187 197 196
f 196 197 207 206
f 206 207 217 216
f 216 217 226
f 175 178 177
f 177 178 188 187
f 187 188 198 197
f 197 198 208 207
f 207 208 218 217
f 217 218 226
f 175 179 178
f 178 179 189 188
f 188 189 199 198
f 198 199 209 208
f 208 209 219 218
f 218 219 226
f 175 180 179
f 179 180 190 189
f 189 190 200 199
f 199 200 210 209
f 209 210 220 219
f 219 220 226
f 175 181 180
f 180 181 191 190
f 190 191 201 200
f 200 201 211 210
f 210 211 221 220
f 220 221 226
f 175 182 181
f 181 182 192 191
f 191 192 202 201
f 201 202 212 211
f 211 212 222 221
f 221 222 226
f 175 183 182
f 182 183 193 192
f 192 193 203 202
f 202 203 213 212
f 212 213 223 222
f 222 223 226
f 175 184 183
f 183 184 194 193
f 193 194 204 203
f 203 204 214 213
f 213 214 224 223
f 223 224 226
f 175 185 184
f 184 185 195 194
f 194 195 205 204
f 204 205 215 214
f 214 215 225 224
f 224 225 226
f 175 176 185
f 185 176 186 195
f 195 186 196 205
f 205 196 206 215
f 215 206 216 225
f 225 216 226
o Head.Muzzle
v 0 0.76 0.56
v 0.02 0.765 0.56
v 0.014 0.765 0.585
v 0 0.765 0.595
v -0.014 0.765 0.585
v -0.02 0.765 0.56
v -0.014 0.765 0.535
v 0 0.765 0.525
v 0.014 0.765 0.535
v 0.035 0.78 0.56
v 0.024 0.78 0.603
v 0 0.78 0.621
v -0.024 0.78 0.603
v -0.035 0.78 0.56
v -0.024 0.78 0.517
v 0 0.78 0.499
v 0.024 0.78 0.517
v 0.04 0.8 0.56
v 0.028 0.8 0.609
v 0 0.8 0.63
v -0.028 0.8 0.609
v -0.04 0.8 0.56
v -0.028 0.8 0.511
v 0 0.8 0.49
v 0.028 0.8 0.511
v 0.035 0.82 0.56
v 0.024 0.82 0.603
v 0 0.82 0.621
v -0.024 0.82 0.603
v -0.035 0.82 0.56
v -0.024 0.82 0.517
v 0 0.82 0.499
v 0.024 0.82 0.517
v 0.02 0.835 0.56
v 0.014 0.835 0.585
v 0 0.835 0.595
v -0.014 0.835 0.585
v -0.02 0.835 0.56
v -0.014 0.835 0.535
v 0 0.835 0.525
v 0.014 0.835 0.535
v 0 0.84 0.56
usemtl GoatLight
s off
f 227 229 228
f 228 229 237 236
f 236 237 245 244
f 244 245 253 252
f 252 253 261 260
f 260 261 268
f 227 230 229
f 229 230 238 237
f 237 238 246 245
f 245 246 254 253
f 253 254 262 261
f 261 262 268
f 227 231 230
f 230 231 239 238
f 238 239 247 246
f 246 247 255 254
f 254 255 263 262
f 262 263 268
f 227 232 231
f 231 232 240 239
f 239 240 248 247
f 247 248 256 255
f 255 256 264 263
f 263 264 268
f 227 233 232
f 232 233 241 240
f 240 241 249 248
f 248 249 257 256
f 256 257 265 264
f 264 265 268
f 227 234 233
f 233 234 242 241
f 241 242 250 249
f 249 250 258 257
f 257 258 266 265
f 265 266 268
f 227 235 234
f 234 235 243 242
f 242 243 251 250
f 250 251 259 258
f 258 259 267 266
f 266 267 268
f 227 228 235
f 235 228 236 243
f 243 236 244 251
f 251 244 252 259
f 259 252 260 267
f 267 260 268
o Head.Nose
v 0 0.79 0.625
v 0.018 0.796 0.625
v 0.009 0.796 0.631
v -0.009 0.796 0.631
v -0.018 0.796 0.625
v -0.009 0.796 0.619
v 0.009 0.796 0.619
v 0.025 0.81 0.625
v 0.013 0.81 0.634
v -0.012 0.81 0.634
v -0.025 0.81 0.625
v -0.013 0.81 0.616
v 0.013 0.81 0.616
v 0.018 0.824 0.625
v 0.009 0.824 0.631
v -0.009 0.824 0.631
v -0.018 0.824 0.625
v -0.009 0.824 0.619
v 0.009 0.824 0.619
v 0 0.83 0.625
usemtl Nose
s off
f 269 271 270
f 270 271 277 276
f 276 277 283 282
f 282 283 288
f 269 272 271
f 271 272 278 277
f 277 278 284 283
f 283 284 288
f 269 273 272
f 272 273 279 278
f 278 279 285 284
f 284 285 288
f 269 274 273
f 273 274 280 279
f 279 280 286 285
f 285 286 288
f 269 275 274
f 274 275 281 280
f 280 281 287 286
f 286 287 288
f 269 270 275
f 275 270 276 281
f 281 276 282 287
f 287 282 288
o Head.Beard
v 0.009 0.767 0.555
v 0.017 0.77 0.54
v 0.009 0.773 0.525
v -0.009 0.773 0.525
v -0.017 0.77 0.54
v -0.009 0.767 0.555
v 0.003 0.659 0.525
v 0.006 0.66 0.52
v 0.003 0.661 0.515
v -0.003 0.661 0.515
v -0.006 0.66 0.52
v -0.003 0.659 0.525
usemtl GoatDark
s off
f 294 293 292 291 290 289
f 295 296 297 298 299 300
f 289 290 296 295
f 290 291 297 296
f 291 292 298 297
f 292 293 299 298
f 293 294 300 299
f 294 289 295 300
o Head.Eye
v -0.052 0.878 0.49
v -0.044 0.882 0.49
v -0.048 0.882 0.497
v -0.056 0.882 0.497
v -0.06 0.882 0.49
v -0.056 0.882 0.483
v -0.048 0.882 0.483
v -0.04 0.89 0.49
v -0.046 0.89 0.5
v -0.058 0.89 0.5
v -0.064 0.89 0.49
v -0.058 0.89 0.48
v -0.046 0.89 0.48
v -0.044 0.898 0.49
v -0.048 0.898 0.497
v -0.056 0.898 0.497
v -0.06 0.898 0.49
v -0.056 0.898 0.483
v -0.048 0.898 0.483
v -0.052 0.902 0.49
usemtl Eye
s off
f 301 303 302
f 302 303 309 308
f 308 309 315 314
f 314 315 320
f 301 304 303
f 303 304 310 309
f 309 310 316 315
f 315 316 320
f 301 305 304
f 304 305 311 310
f 310 311 317 316
f 316 317 320
f 301 306 305
f 305 306 312 311
f 311 312 318 317
f 317 318 320
f 301 307 306
f 306 307 313 312
f 312 313 319 318
f 318 319 320
f 301 302 307
f 307 302 308 313
f 313 308 314 319
f 319 314 320
o Head.Ear
v -0.05 0.912 0.378
v -0.058 0.924 0.398
v -0.058 0.912 0.421
v -0.05 0.888 0.422
v -0.042 0.876 0.402
v -0.042 0.888 0.379
v -0.16 0.866 0.369
v -0.164 0.872 0.379
v -0.164 0.866 0.39
v -0.16 0.854 0.391
v -0.156 0.848 0.381
v -0.156 0.854 0.37
usemtl GoatFur
s off
f 326 325 324 323 322 321
f 327 328 329 330 331 332
f 321 322 328 327
f 322 323 329 328
f 323 324 330 329
f 324 325 331 330
f 325 326 332 331
f 326 321 327 332
o Head.Horn
v -0.016 0.923 0.442
v -0.026 0.927 0.453
v -0.04 0.923 0.45
v -0.044 0.917 0.438
v -0.034 0.913 0.427
v -0.02 0.917 0.43
v -0.039 1.043 0.382
v -0.047 1.045 0.389
v -0.057 1.043 0.388
v -0.061 1.037 0.378
v -0.053 1.035 0.371
v -0.043 1.037 0.372
usemtl Horn
s off
f 338 337 336 335 334 333
f 339 340 341 342 343 344
f 333 334 340 339
f 334 335 341 340
f 335 336 342 341
f 336 337 343 342
f 337 338 344 343
f 338 333 339 344
o Head.Horn
v -0.04 1.045 0.379
v -0.05 1.051 0.382
v -0.059 1.045 0.383
v -0.06 1.035 0.381
v -0.05 1.029 0.378
v -0.041 1.035 0.377
v -0.066 1.062 0.27
v -0.07 1.065 0.271
v -0.074 1.062 0.271
v -0.074 1.058 0.27
v -0.07 1.055 0.269
v -0.066 1.058 0.269
usemtl Horn
s off
f 350 349 348 347 346 345
f 351 352 353 354 355 356
f 345 346 352 351
f 346 347 353 352
f 347 348 354 353
f 348 349 355 354
f 349 350 356 355
f 350 345 351 356
o Head.Eye
v 0.052 0.878 0.49
v 0.06 0.882 0.49
v 0.056 0.882 0.497
v 0.048 0.882 0.497
v 0.044 0.882 0.49
v 0.048 0.882 0.483
v 0.056 0.882 0.483
v 0.064 0.89 0.49
v 0.058 0.89 0.5
v 0.046 0.89 0.5
v 0.04 0.89 0.49
v 0.046 0.89 0.48
v 0.058 0.89 0.48
v 0.06 0.898 0.49
v 0.056 0.898 0.497
v 0.048 0.898 0.497
v 0.044 0.898 0.49
v 0.048 0.898 0.483
v 0.056 0.898 0.483
v 0.052 0.902 0.49
usemtl Eye
s off
f 357 359 358
f 358 359 365 364
f 364 365 371 370
f 370 371 376
f 357 360 359
f 359 360 366 365
f 365 366 372 371
f 371 372 376
f 357 361 360
f 360 361 367 366
f 366 367 373 372
f 372 373 376
f 357 362 361
f 361 362 368 367
f 367 368 374 373
f 373 374 376
f 357 363 362
f 362 363 369 368
f 368 369 375 374
f 374 375 376
f 357 358 363
f 363 358 364 369
f 369 364 370 375
f 375 370 376
o Head.Ear
v 0.058 0.912 0.421
v 0.058 0.924 0.398
v 0.05 0.912 0.378
v 0.042 0.888 0.379
v 0.042 0.876 0.402
v 0.05 0.888 0.422
v 0.164 0.866 0.39
v 0.164 0.872 0.379
v 0.16 0.866 0.369
v 0.156 0.854 0.37
v 0.156 0.848 0.381
v 0.16 0.854 0.391
usemtl GoatFur
s off
f 382 381 380 379 378 377
f 383 384 385 386 387 388
f 377 378 384 383
f 378 379 385 384
f 379 380 386 385
f 380 381 387 386
f 381 382 388 387
f 382 377 383 388
o Head.Horn
v 0.04 0.923 0.45
v 0.026 0.927 0.453
v 0.016 0.923 0.442
v 0.02 0.917 0.43
v 0.034 0.913 0.427
v 0.044 0.917 0.438
v 0.057 1.043 0.388
v 0.047 1.045 0.389
v 0.039 1.043 0.382
v 0.043 1.037 0.372
v 0.053 1.035 0.371
v 0.061 1.037 0.378
usemtl Horn
s off
f 394 393 392 391 390 389
f 395 396 397 398 399 400
f 389 390 396 395
f 390 391 397 396
f 391 392 398 397
f 392 393 399 398
f 393 394 400 399
f 394 389 395 400
o Head.Horn
v 0.059 1.045 0.383
v 0.05 1.051 0.382
v 0.04 1.045 0.379
v 0.041 1.035 0.377
v 0.05 1.029 0.378
v 0.06 1.035 0.381
v 0.074 1.062 0.271
v 0.07 1.065 0.271
v 0.066 1.062 0.27
v 0.066 1.058 0.269
v 0.07 1.055 0.269
v 0.074 1.058 0.27
usemtl Horn
s off
f 406 405 404 403 402 401
f 407 408 409 410 411 412
f 401 402 408 407
f 402 403 409 408
f 403 404 410 409
f 404 405 411 410
f 405 406 412 411
f 406 401 407 412
o Leg.FL
v 0.088 0.561 0.272
v 0.107 0.56 0.253
v 0.107 0.56 0.227
v 0.088 0.559 0.208
v 0.062 0.559 0.208
v 0.043 0.56 0.227
v 0.043 0.56 0.253
v 0.062 0.561 0.272
v 0.083 0.281 0.268
v 0.093 0.28 0.258
v 0.093 0.28 0.242
v 0.083 0.279 0.232
v 0.067 0.279 0.232
v 0.057 0.28 0.242
v 0.057 0.28 0.258
v 0.067 0.281 0.268
usemtl GoatFur
s off
f 420 419 418 417 416 415 414 413
f 421 422 423 424 425 426 427 428
f 413 414 422 421
f 414 415 423 422
f 415 416 424 423
f 416 417 425 424
f 417 418 426 425
f 418 419 427 426
f 419 420 428 427
f 420 413 421 428
o Leg.FL.Shin
v 0.084 0.289 0.265
v 0.092 0.29 0.25
v 0.084 0.291 0.235
v 0.066 0.291 0.235
v 0.057 0.29 0.25
v 0.066 0.289 0.265
v 0.082 0.039 0.253
v 0.09 0.04 0.24
v 0.083 0.041 0.227
v 0.068 0.041 0.227
v 0.06 0.04 0.24
v 0.068 0.039 0.253
usemtl GoatLight
s off
f 434 433 432 431 430 429
f 435 436 437 438 439 440
f 429 430 436 435
f 430 431 437 436
f 431 432 438 437
f 432 433 439 438
f 433 434 440 439
f 434 429 435 440
o Leg.FL.Hoof
v 0.094 0 0.259
v 0.075 0 0.275
v 0.056 0 0.259
v 0.056 0 0.226
v 0.075 0 0.21
v 0.094 0 0.226
v 0.094 0.045 0.259
v 0.075 0.045 0.275
v 0.056 0.045 0.259
v 0.056 0.045 0.226
v 0.075 0.045 0.21
v 0.094 0.045 0.226
usemtl Hoof
s off
f 446 445 444 443 442 441
f 447 448 449 450 451 452
f 441 442 448 447
f 442 443 449 448
f 443 444 450 449
f 444 445 451 450
f 445 446 452 451
f 446 441 447 452
o Leg.FR
v -0.062 0.561 0.272
v -0.043 0.56 0.253
v -0.043 0.56 0.227
v -0.062 0.559 0.208
v -0.088 0.559 0.208
v -0.107 0.56 0.227
v -0.107 0.56 0.253
v -0.088 0.561 0.272
v -0.067 0.281 0.268
v -0.057 0.28 0.258
v -0.057 0.28 0.242
v -0.067 0.279 0.232
v -0.083 0.279 0.232
v -0.093 0.28 0.242
v -0.093 0.28 0.258
v -0.083 0.281 0.268
usemtl GoatFur
s off
f 460 459 458 457 456 455 454 453
f 461 462 463 464 465 466 467 468
f 453 454 462 461
f 454 455 463 462
f 455 456 464 463
f 456 457 465 464
f 457 458 466 465
f 458 459 467 466
f 459 460 468 467
f 460 453 461 468
o Leg.FR.Shin
v -0.066 0.289 0.265
v -0.057 0.29 0.25
v -0.066 0.291 0.235
v -0.084 0.291 0.235
v -0.092 0.29 0.25
v -0.084 0.289 0.265
v -0.068 0.039 0.253
v -0.06 0.04 0.24
v -0.067 0.041 0.227
v -0.082 0.041 0.227
v -0.09 0.04 0.24
v -0.082 0.039 0.253
usemtl GoatLight
s off
f 474 473 472 471 470 469
f 475 476 477 478 479 480
f 469 470 476 475
f 470 471 477 476
f 471 472 478 477
f 472 473 479 478
f 473 474 480 479
f 474 469 475 480
o Leg.FR.Hoof
v -0.056 0 0.259
v -0.075 0 0.275
v -0.094 0 0.259
v -0.094 0 0.226
v -0.075 0 0.21
v -0.056 0 0.226
v -0.056 0.045 0.259
v -0.075 0.045 0.275
v -0.094 0.045 0.259
v -0.094 0.045 0.226
v -0.075 0.045 0.21
v -0.056 0.045 0.226
usemtl Hoof
s off
f 486 485 484 483 482 481
f 487 488 489 490 491 492
f 481 482 488 487
f 482 483 489 488
f 483 484 490 489
f 484 485 491 490
f 485 486 492 491
f 486 481 487 492
o Leg.BL
v 0.097 0.554 -0.279
v 0.122 0.558 -0.303
v 0.122 0.562 -0.337
v 0.097 0.566 -0.361
v 0.063 0.566 -0.361
v 0.038 0.562 -0.337
v 0.038 0.558 -0.303
v 0.063 0.554 -0.279
v 0.088 0.277 -0.342
v 0.098 0.279 -0.352
v 0.098 0.281 -0.368
v 0.088 0.283 -0.378
v 0.072 0.283 -0.378
v 0.062 0.281 -0.368
v 0.062 0.279 -0.352
v 0.072 0.277 -0.342
usemtl GoatFur
s off
f 500 499 498 497 496 495 494 493
f 501 502 503 504 505 506 507 508
f 493 494 502 501
f 494 495 503 502
f 495 496 504 503
f 496 497 505 504
f 497 498 506 505
f 498 499 507 506
f 499 500 508 507
f 500 493 501 508
o Leg.BL.Shin
v 0.089 0.292 -0.345
v 0.098 0.29 -0.36
v 0.089 0.288 -0.375
v 0.071 0.288 -0.375
v 0.063 0.29 -0.36
v 0.071 0.292 -0.345
v 0.087 0.042 -0.307
v 0.095 0.04 -0.32
v 0.088 0.038 -0.333
v 0.073 0.038 -0.333
v 0.065 0.04 -0.32
v 0.073 0.042 -0.307
usemtl GoatLight
s off
f 514 513 512 511 510 509
f 515 516 517 518 519 520
f 509 510 516 515
f 510 511 517 516
f 511 512 518 517
f 512 513 519 518
f 513 514 520 519
f 514 509 515 520
o Leg.BL.Hoof
v 0.099 0 -0.301
v 0.08 0 -0.285
v 0.061 0 -0.301
v 0.061 0 -0.334
v 0.08 0 -0.35
v 0.099 0 -0.334
v 0.099 0.045 -0.301
v 0.08 0.045 -0.285
v 0.061 0.045 -0.301
v 0.061 0.045 -0.334
v 0.08 0.045 -0.35
v 0.099 0.045 -0.334
usemtl Hoof
s off
f 526 525 524 523 522 521
f 527 528 529 530 531 532
f 521 522 528 527
f 522 523 529 528
f 523 524 530 529
f 524 525 531 530
f 525 526 532 531
f 526 521 527 532
o Leg.BR
v -0.063 0.554 -0.279
v -0.038 0.558 -0.303
v -0.038 0.562 -0.337
v -0.063 0.566 -0.361
v -0.097 0.566 -0.361
v -0.122 0.562 -0.337
v -0.122 0.558 -0.303
v -0.097 0.554 -0.279
v -0.072 0.277 -0.342
v -0.062 0.279 -0.352
v -0.062 0.281 -0.368
v -0.072 0.283 -0.378
v -0.088 0.283 -0.378
v -0.098 0.281 -0.368
v -0.098 0.279 -0.352
v -0.088 0.277 -0.342
usemtl GoatFur
s off
f 540 539 538 537 536 535 534 533
f 541 542 543 544 545 546 547 548
f 533 534 542 541
f 534 535 543 542
f 535 536 544 543
f 536 537 545 544
f 537 538 546 545
f 538 539 547 546
f 539 540 548 547
f 540 533 541 548
o Leg.BR.Shin
v -0.071 0.292 -0.345
v -0.063 0.29 -0.36
v -0.071 0.288 -0.375
v -0.089 0.288 -0.375
v -0.098 0.29 -0.36
v -0.089 0.292 -0.345
v -0.073 0.042 -0.307
v -0.065 0.04 -0.32
v -0.072 0.038 -0.333
v -0.087 0.038 -0.333
v -0.095 0.04 -0.32
v -0.087 0.042 -0.307
usemtl GoatLight
s off
f 554 553 552 551 550 549
f 555 556 557 558 559 560
f 549 550 556 555
f 550 551 557 556
f 551 552 558 557
f 552 553 559 558
f 553 554 560 559
f 554 549 555 560
o Leg.BR.Hoof
v -0.061 0 -0.301
v -0.08 0 -0.285
v -0.099 0 -0.301
v -0.099 0 -0.334
v -0.08 0 -0.35
v -0.061 0 -0.334
v -0.061 0.045 -0.301
v -0.08 0.045 -0.285
v -0.099 0.045 -0.301
v -0.099 0.045 -0.334
v -0.08 0.045 -0.35
v -0.061 0.045 -0.334
usemtl Hoof
s off
f 566 565 564 563 562 561
f 567 568 569 570 571 572
f 561 562 568 567
f 562 563 569 568
f 563 564 570 569
f 564 565 571 570
f 565 566 572 571
f 566 561 567 572
