# gold_2.obj - Goldvorkommen fuer procedurally-generated-map
# Einheiten: Meter, Y oben, Vorderseite nach +Z - so wie Blender ein Modell
# exportiert, das in der Vorderansicht zum Betrachter schaut.
mtllib gold_2.mtl
o Boulder
v -0.72 0 0.422
v -1.168 0 0.093
v -0.963 0 -0.352
v -0.56 0 -0.586
v -0.031 0 -0.492
v 0.257 0 -0.022
v -0.091 0 0.463
v -0.804 0.39 0.518
v -1.33 0.39 0.131
v -1.09 0.39 -0.393
v -0.615 0.39 -0.668
v 0.007 0.39 -0.558
v 0.345 0.39 -0.005
v -0.064 0.39 0.566
usemtl Rock
s off
f 7 6 5 4 3 2 1
f 8 9 10 11 12 13 14
f 1 2 9 8
f 2 3 10 9
f 3 4 11 10
f 4 5 12 11
f 5 6 13 12
f 6 7 14 13
f 7 1 8 14
o Boulder
v -0.804 0.39 0.518
v -1.33 0.39 0.131
v -1.09 0.39 -0.393
v -0.615 0.39 -0.668
v 0.007 0.39 -0.558
v 0.345 0.39 -0.005
v -0.064 0.39 0.566
v -0.744 1 0.273
v -1.058 1 0.043
v -0.915 1 -0.269
v -0.632 1 -0.434
v -0.261 1 -0.368
v -0.059 1 -0.038
v -0.303 1 0.302
usemtl Rock
s off
f 21 20 19 18 17 16 15
f 22 23 24 25 26 27 28
f 15 16 23 22
f 16 17 24 23
f 17 18 25 24
f 18 19 26 25
f 19 20 27 26
f 20 21 28 27
f 21 15 22 28
o Boulder
v 0.272 0 -0.412
v 0.782 0 -0.386
v 1.147 0 -0.079
v 1.051 0 0.373
v 0.563 0 0.503
v 0.013 0 0.432
v 0.042 0 -0.038
v 0.219 0.458 -0.531
v 0.819 0.458 -0.501
v 1.248 0.458 -0.139
v 1.135 0.458 0.392
v 0.561 0.458 0.545
v -0.085 0.458 0.462
v -0.051 0.458 -0.091
usemtl RockDark
s off
f 35 34 33 32 31 30 29
f 36 37 38 39 40 41 42
f 29 30 37 36
f 30 31 38 37
f 31 32 39 38
f 32 33 40 39
f 33 34 41 40
f 34 35 42 41
f 35 29 36 42
o Boulder
v 0.219 0.458 -0.531
v 0.819 0.458 -0.501
v 1.248 0.458 -0.139
v 1.135 0.458 0.392
v 0.561 0.458 0.545
v -0.085 0.458 0.462
v -0.051 0.458 -0.091
v 0.378 1.25 -0.298
v 0.679 1.25 -0.283
v 0.894 1.25 -0.101
v 0.838 1.25 0.165
v 0.55 1.25 0.242
v 0.226 1.25 0.2
v 0.243 1.25 -0.077
usemtl RockDark
s off
f 49 48 47 46 45 44 43
f 50 51 52 53 54 55 56
f 43 44 51 50
f 44 45 52 51
f 45 46 53 52
f 46 47 54 53
f 47 48 55 54
f 48 49 56 55
f 49 43 50 56
o Boulder
v 0.221 0 0.594
v 0.357 0 0.82
v 0.23 0 1.081
v -0.085 0 1.043
v -0.415 0 0.942
v -0.344 0 0.635
v -0.051 0 0.53
v 0.271 0.209 0.556
v 0.431 0.209 0.822
v 0.282 0.209 1.13
v -0.089 0.209 1.085
v -0.477 0.209 0.966
v -0.393 0.209 0.605
v -0.049 0.209 0.482
usemtl Rock
s off
f 63 62 61 60 59 58 57
f 64 65 66 67 68 69 70
f 57 58 65 64
f 58 59 66 65
f 59 60 67 66
f 60 61 68 67
f 61 62 69 68
f 62 63 70 69
f 63 57 64 70
o Boulder
v 0.271 0.209 0.556
v 0.431 0.209 0.822
v 0.282 0.209 1.13
v -0.089 0.209 1.085
v -0.477 0.209 0.966
v -0.393 0.209 0.605
v -0.049 0.209 0.482
v 0.144 0.55 0.685
v 0.218 0.55 0.809
v 0.149 0.55 0.953
v -0.025 0.55 0.932
v -0.206 0.55 0.876
v -0.167 0.55 0.707
v -0.006 0.55 0.65
usemtl Rock
s off
f 77 76 75 74 73 72 71
f 78 79 80 81 82 83 84
f 71 72 79 78
f 72 73 80 79
f 73 74 81 80
f 74 75 82 81
f 75 76 83 82
f 76 77 84 83
f 77 71 78 84
o Boulder
v 0.018 0 -1.078
v 0.281 0 -0.935
v 0.173 0 -0.677
v -0.089 0 -0.574
v -0.393 0 -0.638
v -0.519 0 -0.919
v -0.298 0 -1.172
v 0.052 0.201 -1.147
v 0.361 0.201 -0.98
v 0.234 0.201 -0.676
v -0.075 0.201 -0.555
v -0.432 0.201 -0.63
v -0.58 0.201 -0.961
v -0.32 0.201 -1.259
usemtl RockDark
s off
f 91 90 89 88 87 86 85
f 92 93 94 95 96 97 98
f 85 86 93 92
f 86 87 94 93
f 87 88 95 94
f 88 89 96 95
f 89 90 97 96
f 90 91 98 97
f 91 85 92 98
o Boulder
v 0.052 0.201 -1.147
v 0.361 0.201 -0.98
v 0.234 0.201 -0.676
v -0.075 0.201 -0.555
v -0.432 0.201 -0.63
v -0.58 0.201 -0.961
v -0.32 0.201 -1.259
v 0.011 0.5 -1.074
v 0.202 0.5 -0.971
v 0.124 0.5 -0.784
v -0.067 0.5 -0.709
v -0.287 0.5 -0.755
v -0.378 0.5 -0.959
v -0.218 0.5 -1.143
usemtl RockDark
s off
f 105 104 103 102 101 100 99
f 106 107 108 109 110 111 112
f 99 100 107 106
f 100 101 108 107
f 101 102 109 108
f 102 103 110 109
f 103 104 111 110
f 104 105 112 111
f 105 99 106 112
o Vein
v -0.458 1.03 -0.438
v -0.38 1.03 -0.334
v -0.339 0.91 -0.365
v -0.417 0.91 -0.469
v -0.896 0.781 -0.097
v -0.831 0.781 -0.009
v -0.796 0.679 -0.035
v -0.862 0.679 -0.123
usemtl Gold
s off
f 116 115 114 113
f 117 118 119 120
f 113 114 118 117
f 114 115 119 118
f 115 116 120 119
f 116 113 117 120
o Vein
v -0.906 0.777 -0.079
v -0.821 0.777 -0.009
v -0.786 0.683 -0.053
v -0.871 0.683 -0.122
v -1.136 0.516 0.244
v -1.089 0.516 0.282
v -1.07 0.464 0.258
v -1.117 0.464 0.22
usemtl GoldLight
s off
f 124 123 122 121
f 125 126 127 128
f 121 122 126 125
f 122 123 127 126
f 123 124 128 127
f 124 121 125 128
o Nugget
v -0.37 0.873 -0.298
v -0.461 0.873 -0.214
v -0.578 0.873 -0.251
v -0.605 0.873 -0.371
v -0.515 0.873 -0.454
v -0.397 0.873 -0.417
v -0.429 1.033 -0.316
v -0.474 1.033 -0.274
v -0.533 1.033 -0.293
v -0.546 1.033 -0.353
v -0.501 1.033 -0.394
v -0.442 1.033 -0.376
usemtl Gold
s off
f 134 133 132 131 130 129
f 135 136 137 138 139 140
f 129 130 136 135
f 130 131 137 136
f 131 132 138 137
f 132 133 139 138
f 133 134 140 139
f 134 129 135 140
o Nugget.Shine
v -0.525 0.996 -0.31
v -0.525 0.996 -0.267
v -0.463 0.996 -0.267
v -0.463 0.996 -0.31
v -0.525 1.039 -0.31
v -0.525 1.039 -0.267
v -0.463 1.039 -0.267
v -0.463 1.039 -0.31
usemtl Shine
s off
f 144 143 142 141
f 145 146 147 148
f 141 142 146 145
f 142 143 147 146
f 143 144 148 147
f 144 141 145 148
o Nugget
v -0.819 0.742 -0.066
v -0.85 0.742 -0.187
v -0.76 0.742 -0.274
v -0.64 0.742 -0.24
v -0.61 0.742 -0.119
v -0.699 0.742 -0.032
v -0.775 0.905 -0.11
v -0.79 0.905 -0.17
v -0.745 0.905 -0.214
v -0.685 0.905 -0.196
v -0.67 0.905 -0.136
v -0.714 0.905 -0.092
usemtl GoldLight
s off
f 154 153 152 151 150 149
f 155 156 157 158 159 160
f 149 150 156 155
f 150 151 157 156
f 151 152 158 157
f 152 153 159 158
f 153 154 160 159
f 154 149 155 160
o Nugget.Shine
v -0.767 0.867 -0.128
v -0.767 0.867 -0.084
v -0.705 0.867 -0.084
v -0.705 0.867 -0.128
v -0.767 0.911 -0.128
v -0.767 0.911 -0.084
v -0.705 0.911 -0.084
v -0.705 0.911 -0.128
usemtl Shine
s off
f 164 163 162 161
f 165 166 167 168
f 161 162 166 165
f 162 163 167 166
f 163 164 168 167
f 164 161 165 168
o Nugget
v -0.793 0.613 0.03
v -0.862 0.613 0.135
v -0.987 0.613 0.128
v -1.043 0.613 0.016
v -0.974 0.613 -0.089
v -0.849 0.613 -0.082
v -0.856 0.776 0.027
v -0.89 0.776 0.079
v -0.953 0.776 0.075
v -0.981 0.776 0.019
v -0.946 0.776 -0.033
v -0.884 0.776 -0.029
usemtl Gold
s off
f 174 173 172 171 170 169
f 175 176 177 178 179 180
f 169 170 176 175
f 170 171 177 176
f 171 172 178 177
f 172 173 179 178
f 173 174 180 179
f 174 169 175 180
o Nugget.Shine
v -0.956 0.738 0.048
v -0.956 0.738 0.092
v -0.893 0.738 0.092
v -0.893 0.738 0.048
v -0.956 0.782 0.048
v -0.956 0.782 0.092
v -0.893 0.782 0.092
v -0.893 0.782 0.048
usemtl Shine
s off
f 184 183 182 181
f 185 186 187 188
f 181 182 186 185
f 182 183 187 186
f 183 184 188 187
f 184 181 185 188
o Nugget
v -1.201 0.47 0.259
v -1.185 0.47 0.102
v -1.041 0.47 0.037
v -0.913 0.47 0.129
v -0.929 0.47 0.286
v -1.072 0.47 0.351
v -1.129 0.675 0.227
v -1.121 0.675 0.148
v -1.049 0.675 0.116
v -0.985 0.675 0.162
v -0.993 0.675 0.24
v -1.065 0.675 0.273
usemtl GoldLight
s off
f 194 193 192 191 190 189
f 195 196 197 198 199 200
f 189 190 196 195
f 190 191 197 196
f 191 192 198 197
f 192 193 199 198
f 193 194 200 199
f 194 189 195 200
o Nugget.Shine
v -1.104 0.628 0.226
v -1.104 0.628 0.281
v -1.025 0.628 0.281
v -1.025 0.628 0.226
v -1.104 0.683 0.226
v -1.104 0.683 0.281
v -1.025 0.683 0.281
v -1.025 0.683 0.226
usemtl Shine
s off
f 204 203 202 201
f 205 206 207 208
f 201 202 206 205
f 202 203 207 206
f 203 204 208 207
f 204 201 205 208
o Vein
v -0.968 1.013 0.113
v -0.892 1.013 0.218
v -0.813 0.927 0.162
v -0.889 0.927 0.056
v -1.129 0.767 0.242
v -1.065 0.767 0.331
v -0.998 0.693 0.283
v -1.062 0.693 0.193
usemtl Gold
s off
f 212 211 210 209
f 213 214 215 216
f 209 210 214 213
f 210 211 215 214
f 211 212 216 215
f 212 209 213 216
o Vein
v -1.009 0.732 0.317
v -1.009 0.723 0.208
v -1.119 0.728 0.207
v -1.119 0.737 0.317
v -1.045 0.491 0.313
v -1.045 0.486 0.253
v -1.105 0.489 0.253
v -1.105 0.494 0.313
usemtl GoldLight
s off
f 220 219 218 217
f 221 222 223 224
f 217 218 222 221
f 218 219 223 222
f 219 220 224 223
f 220 217 221 224
o Nugget
v -1.041 0.865 0.245
v -1.055 0.865 0.104
v -0.939 0.865 0.021
v -0.81 0.865 0.079
v -0.796 0.865 0.221
v -0.911 0.865 0.304
v -0.983 1.05 0.204
v -0.99 1.05 0.133
v -0.932 1.05 0.092
v -0.867 1.05 0.121
v -0.86 1.05 0.192
v -0.918 1.05 0.233
usemtl Gold
s off
f 230 229 228 227 226 225
f 231 232 233 234 235 236
f 225 226 232 231
f 226 227 233 232
f 227 228 234 233
f 228 229 235 234
f 229 230 236 235
f 230 225 231 236
o Nugget.Shine
v -0.968 1.007 0.191
v -0.968 1.007 0.24
v -0.897 1.007 0.24
v -0.897 1.007 0.191
v -0.968 1.057 0.191
v -0.968 1.057 0.24
v -0.897 1.057 0.24
v -0.897 1.057 0.191
usemtl Shine
s off
f 240 239 238 237
f 241 242 243 244
f 237 238 242 241
f 238 239 243 242
f 239 240 244 243
f 240 237 241 244
o Nugget
v -1.138 0.743 0.263
v -1.107 0.743 0.143
v -0.988 0.743 0.11
v -0.899 0.743 0.196
v -0.93 0.743 0.316
v -1.049 0.743 0.35
v -1.078 0.904 0.246
v -1.063 0.904 0.186
v -1.003 0.904 0.17
v -0.959 0.904 0.213
v -0.974 0.904 0.273
v -1.034 0.904 0.29
usemtl GoldLight
s off
f 250 249 248 247 246 245
f 251 252 253 254 255 256
f 245 246 252 251
f 246 247 253 252
f 247 248 254 253
f 248 249 255 254
f 249 250 256 255
f 250 245 251 256
o Nugget.Shine
v -1.056 0.867 0.254
v -1.056 0.867 0.298
v -0.994 0.867 0.298
v -0.994 0.867 0.254
v -1.056 0.91 0.254
v -1.056 0.91 0.298
v -0.994 0.91 0.298
v -0.994 0.91 0.254
usemtl Shine
s off
f 260 259 258 257
f 261 262 263 264
f 257 258 262 261
f 258 259 263 262
f 259 260 264 263
f 260 257 261 264
o Nugget
v -0.985 0.612 0.366
v -1.111 0.612 0.388
v -1.193 0.612 0.29
v -1.149 0.612 0.17
v -1.023 0.612 0.148
v -0.941 0.612 0.246
v -1.026 0.778 0.317
v -1.089 0.778 0.328
v -1.13 0.778 0.279
v -1.108 0.778 0.219
v -1.045 0.778 0.208
v -1.004 0.778 0.257
usemtl Gold
s off
f 270 269 268 267 266 265
f 271 272 273 274 275 276
f 265 266 272 271
f 266 267 273 272
f 267 268 274 273
f 268 269 275 274
f 269 270 276 275
f 270 265 271 276
o Nugget.Shine
v -1.105 0.739 0.293
v -1.105 0.739 0.338
v -1.041 0.739 0.338
v -1.041 0.739 0.293
v -1.105 0.784 0.293
v -1.105 0.784 0.338
v -1.041 0.784 0.338
v -1.041 0.784 0.293
usemtl Shine
s off
f 280 279 278 277
f 281 282 283 284
f 277 278 282 281
f 278 279 283 282
f 279 280 284 283
f 280 277 281 284
o Nugget
v -0.949 0.482 0.305
v -1.033 0.482 0.4
v -1.157 0.482 0.374
v -1.197 0.482 0.254
v -1.113 0.482 0.159
v -0.989 0.482 0.184
v -1.011 0.647 0.292
v -1.053 0.647 0.339
v -1.115 0.647 0.327
v -1.135 0.647 0.267
v -1.093 0.647 0.219
v -1.031 0.647 0.232
usemtl GoldLight
s off
f 290 289 288 287 286 285
f 291 292 293 294 295 296
f 285 286 292 291
f 286 287 293 292
f 287 288 294 293
f 288 289 295 294
f 289 290 296 295
f 290 285 291 296
o Nugget.Shine
v -1.111 0.609 0.305
v -1.111 0.609 0.349
v -1.048 0.609 0.349
v -1.048 0.609 0.305
v -1.111 0.654 0.305
v -1.111 0.654 0.349
v -1.048 0.654 0.349
v -1.048 0.654 0.305
usemtl Shine
s off
f 300 299 298 297
f 301 302 303 304
f 297 298 302 301
f 298 299 303 302
f 299 300 304 303
f 300 297 301 304
o Crack
v -0.258 0.954 -0.295
v -0.257 0.954 -0.265
v -0.245 0.926 -0.265
v -0.246 0.926 -0.295
v -1.196 0.527 -0.258
v -1.196 0.527 -0.243
v -1.19 0.513 -0.243
v -1.19 0.513 -0.258
usemtl Soot
s off
f 308 307 306 305
f 309 310 311 312
f 305 306 310 309
f 306 307 311 310
f 307 308 312 311
f 308 305 309 312
o Nugget
v -0.171 0.744 0.228
v -0.237 0.744 0.128
v -0.183 0.744 0.022
v -0.064 0.744 0.015
v 0.001 0.744 0.115
v -0.053 0.744 0.221
v -0.145 0.899 0.175
v -0.177 0.899 0.125
v -0.151 0.899 0.072
v -0.091 0.899 0.068
v -0.058 0.899 0.118
v -0.085 0.899 0.171
usemtl Gold
s off
f 318 317 316 315 314 313
f 319 320 321 322 323 324
f 313 314 320 319
f 314 315 321 320
f 315 316 322 321
f 316 317 323 322
f 317 318 324 323
f 318 313 319 324
o Nugget.Shine
v -0.154 0.863 0.145
v -0.154 0.863 0.187
v -0.094 0.863 0.187
v -0.094 0.863 0.145
v -0.154 0.905 0.145
v -0.154 0.905 0.187
v -0.094 0.905 0.187
v -0.094 0.905 0.145
usemtl Shine
s off
f 328 327 326 325
f 329 330 331 332
f 325 326 330 329
f 326 327 331 330
f 327 328 332 331
f 328 325 329 332
o Nugget
v -0.585 0.958 -0.328
v -0.67 0.958 -0.359
v -0.686 0.958 -0.448
v -0.617 0.958 -0.506
v -0.532 0.958 -0.475
v -0.516 0.958 -0.386
v -0.593 1.076 -0.372
v -0.636 1.076 -0.388
v -0.643 1.076 -0.432
v -0.609 1.076 -0.462
v -0.566 1.076 -0.446
v -0.559 1.076 -0.402
usemtl GoldDark
s off
f 338 337 336 335 334 333
f 339 340 341 342 343 344
f 333 334 340 339
f 334 335 341 340
f 335 336 342 341
f 336 337 343 342
f 337 338 344 343
f 338 333 339 344
o Nugget.Shine
v -0.628 1.048 -0.399
v -0.628 1.048 -0.367
v -0.583 1.048 -0.367
v -0.583 1.048 -0.399
v -0.628 1.08 -0.399
v -0.628 1.08 -0.367
v -0.583 1.08 -0.367
v -0.583 1.08 -0.399
usemtl Shine
s off
f 348 347 346 345
f 349 350 351 352
f 345 346 350 349
f 346 347 351 350
f 347 348 352 351
f 348 345 349 352
o Nugget
v -0.915 0.635 -0.379
v -0.998 0.635 -0.47
v -0.96 0.635 -0.587
v -0.84 0.635 -0.613
v -0.758 0.635 -0.521
v -0.795 0.635 -0.404
v -0.897 0.795 -0.437
v -0.938 0.795 -0.483
v -0.919 0.795 -0.541
v -0.859 0.795 -0.554
v -0.818 0.795 -0.509
v -0.837 0.795 -0.45
usemtl Gold
s off
f 358 357 356 355 354 353
f 359 360 361 362 363 364
f 353 354 360 359
f 354 355 361 360
f 355 356 362 361
f 356 357 363 362
f 357 358 364 363
f 358 353 359 364
o Nugget.Shine
v -0.915 0.758 -0.471
v -0.915 0.758 -0.428
v -0.853 0.758 -0.428
v -0.853 0.758 -0.471
v -0.915 0.801 -0.471
v -0.915 0.801 -0.428
v -0.853 0.801 -0.428
v -0.853 0.801 -0.471
usemtl Shine
s off
f 368 367 366 365
f 369 370 371 372
f 365 366 370 369
f 366 367 371 370
f 367 368 372 371
f 368 365 369 372
o Nugget
v -1.061 0.561 -0.181
v -1.181 0.561 -0.191
v -1.233 0.561 -0.3
v -1.164 0.561 -0.4
v -1.044 0.561 -0.39
v -0.992 0.561 -0.28
v -1.087 0.719 -0.236
v -1.147 0.719 -0.24
v -1.173 0.719 -0.295
v -1.139 0.719 -0.345
v -1.078 0.719 -0.34
v -1.052 0.719 -0.285
usemtl GoldDark
s off
f 378 377 376 375 374 373
f 379 380 381 382 383 384
f 373 374 380 379
f 374 375 381 380
f 375 376 382 381
f 376 377 383 382
f 377 378 384 383
f 378 373 379 384
o Nugget.Shine
v -1.149 0.682 -0.266
v -1.149 0.682 -0.224
v -1.088 0.682 -0.224
v -1.088 0.682 -0.266
v -1.149 0.725 -0.266
v -1.149 0.725 -0.224
v -1.088 0.725 -0.224
v -1.088 0.725 -0.266
usemtl Shine
s off
f 388 387 386 385
f 389 390 391 392
f 385 386 390 389
f 386 387 391 390
f 387 388 392 391
f 388 385 389 392
o Nugget
v -0.027 0.692 0.029
v -0.149 0.692 -0.052
v -0.14 0.692 -0.198
v -0.009 0.692 -0.264
v 0.113 0.692 -0.183
v 0.104 0.692 -0.037
v -0.023 0.882 -0.044
v -0.084 0.882 -0.085
v -0.079 0.882 -0.158
v -0.014 0.882 -0.191
v 0.048 0.882 -0.15
v 0.043 0.882 -0.077
usemtl Gold
s off
f 398 397 396 395 394 393
f 399 400 401 402 403 404
f 393 394 400 399
f 394 395 401 400
f 395 396 402 401
f 396 397 403 402
f 397 398 404 403
f 398 393 399 404
o Nugget.Shine
v -0.062 0.839 -0.088
v -0.062 0.839 -0.037
v 0.011 0.839 -0.037
v 0.011 0.839 -0.088
v -0.062 0.89 -0.088
v -0.062 0.89 -0.037
v 0.011 0.89 -0.037
v 0.011 0.89 -0.088
usemtl Shine
s off
f 408 407 406 405
f 409 410 411 412
f 405 406 410 409
f 406 407 411 410
f 407 408 412 411
f 408 405 409 412
o Vein
v 0.824 1.271 -0.227
v 0.878 1.271 -0.108
v 0.931 1.154 -0.132
v 0.877 1.154 -0.251
v 0.281 0.962 0.033
v 0.327 0.962 0.133
v 0.371 0.863 0.113
v 0.325 0.863 0.013
usemtl Gold
s off
f 416 415 414 413
f 417 418 419 420
f 413 414 418 417
f 414 415 419 418
f 415 416 420 419
f 416 413 417 420
o Vein
v 0.27 0.958 0.043
v 0.329 0.958 0.136
v 0.381 0.867 0.103
v 0.323 0.867 0.01
v -0.077 0.637 0.291
v -0.045 0.637 0.342
v -0.017 0.588 0.324
v -0.048 0.588 0.273
usemtl GoldLight
s off
f 424 423 422 421
f 425 426 427 428
f 421 422 426 425
f 422 423 427 426
f 423 424 428 427
f 424 421 425 428
o Nugget
v 0.822 1.098 -0.003
v 0.686 1.098 -0.018
v 0.631 1.098 -0.144
v 0.712 1.098 -0.255
v 0.849 1.098 -0.239
v 0.904 1.098 -0.114
v 0.795 1.276 -0.066
v 0.726 1.276 -0.074
v 0.699 1.276 -0.137
v 0.74 1.276 -0.192
v 0.808 1.276 -0.184
v 0.835 1.276 -0.121
usemtl Gold
s off
f 434 433 432 431 430 429
f 435 436 437 438 439 440
f 429 430 436 435
f 430 431 437 436
f 431 432 438 437
f 432 433 439 438
f 433 434 440 439
f 434 429 435 440
o Nugget.Shine
v 0.726 1.235 -0.101
v 0.726 1.235 -0.053
v 0.795 1.235 -0.053
v 0.795 1.235 -0.101
v 0.726 1.283 -0.101
v 0.726 1.283 -0.053
v 0.795 1.283 -0.053
v 0.795 1.283 -0.101
usemtl Shine
s off
f 444 443 442 441
f 445 446 447 448
f 441 442 446 445
f 442 443 447 446
f 443 444 448 447
f 444 441 445 448
o Nugget
v 0.556 0.938 0.107
v 0.426 0.938 0.133
v 0.339 0.938 0.033
v 0.382 0.938 -0.092
v 0.512 0.938 -0.118
v 0.599 0.938 -0.018
v 0.513 1.11 0.057
v 0.448 1.11 0.07
v 0.404 1.11 0.02
v 0.426 1.11 -0.042
v 0.491 1.11 -0.055
v 0.534 1.11 -0.005
usemtl GoldLight
s off
f 454 453 452 451 450 449
f 455 456 457 458 459 460
f 449 450 456 455
f 450 451 457 456
f 451 452 458 457
f 452 453 459 458
f 453 454 460 459
f 454 449 455 460
o Nugget.Shine
v 0.43 1.07 0.034
v 0.43 1.07 0.08
v 0.496 1.07 0.08
v 0.496 1.07 0.034
v 0.43 1.116 0.034
v 0.43 1.116 0.08
v 0.496 1.116 0.08
v 0.496 1.116 0.034
usemtl Shine
s off
f 464 463 462 461
f 465 466 467 468
f 461 462 466 465
f 462 463 467 466
f 463 464 468 467
f 464 461 465 468
o Nugget
v 0.148 0.782 0.228
v 0.107 0.782 0.12
v 0.18 0.782 0.031
v 0.295 0.782 0.049
v 0.336 0.782 0.157
v 0.263 0.782 0.247
v 0.185 0.933 0.184
v 0.164 0.933 0.13
v 0.201 0.933 0.085
v 0.258 0.933 0.094
v 0.279 0.933 0.148
v 0.242 0.933 0.193
usemtl Gold
s off
f 474 473 472 471 470 469
f 475 476 477 478 479 480
f 469 470 476 475
f 470 471 477 476
f 471 472 478 477
f 472 473 479 478
f 473 474 480 479
f 474 469 475 480
o Nugget.Shine
v 0.187 0.898 0.162
v 0.187 0.898 0.202
v 0.245 0.898 0.202
v 0.245 0.898 0.162
v 0.187 0.938 0.162
v 0.187 0.938 0.202
v 0.245 0.938 0.202
v 0.245 0.938 0.162
usemtl Shine
s off
f 484 483 482 481
f 485 486 487 488
f 481 482 486 485
f 482 483 487 486
f 483 484 488 487
f 484 481 485 488
o Nugget
v 0.174 0.605 0.278
v 0.086 0.605 0.405
v -0.068 0.605 0.392
v -0.133 0.605 0.252
v -0.045 0.605 0.126
v 0.108 0.605 0.139
v 0.097 0.805 0.272
v 0.053 0.805 0.335
v -0.024 0.805 0.329
v -0.056 0.805 0.259
v -0.013 0.805 0.196
v 0.064 0.805 0.202
usemtl GoldLight
s off
f 494 493 492 491 490 489
f 495 496 497 498 499 500
f 489 490 496 495
f 490 491 497 496
f 491 492 498 497
f 492 493 499 498
f 493 494 500 499
f 494 489 495 500
o Nugget.Shine
v -0.026 0.759 0.296
v -0.026 0.759 0.35
v 0.051 0.759 0.35
v 0.051 0.759 0.296
v -0.026 0.813 0.296
v -0.026 0.813 0.35
v 0.051 0.813 0.35
v 0.051 0.813 0.296
usemtl Shine
s off
f 504 503 502 501
f 505 506 507 508
f 501 502 506 505
f 502 503 507 506
f 503 504 508 507
f 504 501 505 508
o Crack
v 0.864 1.188 -0.172
v 0.872 1.188 -0.144
v 0.885 1.162 -0.147
v 0.877 1.162 -0.176
v -0.107 0.657 0.111
v -0.103 0.657 0.126
v -0.097 0.643 0.124
v -0.101 0.643 0.109
usemtl Soot
s off
f 512 511 510 509
f 513 514 515 516
f 509 510 514 513
f 510 511 515 514
f 511 512 516 515
f 512 509 513 516
o Nugget
v 0.411 1.154 -0.232
v 0.321 1.154 -0.192
v 0.242 1.154 -0.25
v 0.253 1.154 -0.347
v 0.343 1.154 -0.387
v 0.422 1.154 -0.329
v 0.372 1.281 -0.261
v 0.327 1.281 -0.241
v 0.287 1.281 -0.27
v 0.292 1.281 -0.319
v 0.337 1.281 -0.338
v 0.377 1.281 -0.309
usemtl Gold
s off
f 522 521 520 519 518 517
f 523 524 525 526 527 528
f 517 518 524 523
f 518 519 525 524
f 519 520 526 525
f 520 521 527 526
f 521 522 528 527
f 522 517 523 528
o Nugget.Shine
v 0.303 1.252 -0.27
v 0.303 1.252 -0.236
v 0.352 1.252 -0.236
v 0.352 1.252 -0.27
v 0.303 1.286 -0.27
v 0.303 1.286 -0.236
v 0.352 1.286 -0.236
v 0.352 1.286 -0.27
usemtl Shine
s off
f 532 531 530 529
f 533 534 535 536
f 529 530 534 533
f 530 531 535 534
f 531 532 536 535
f 532 529 533 536
o Nugget
v 0.943 0.756 -0.199
v 0.802 0.756 -0.244
v 0.771 0.756 -0.388
v 0.88 0.756 -0.487
v 1.02 0.756 -0.442
v 1.052 0.756 -0.298
v 0.927 0.947 -0.271
v 0.857 0.947 -0.294
v 0.841 0.947 -0.365
v 0.896 0.947 -0.415
v 0.966 0.947 -0.393
v 0.981 0.947 -0.321
usemtl GoldDark
s off
f 542 541 540 539 538 537
f 543 544 545 546 547 548
f 537 538 544 543
f 538 539 545 544
f 539 540 546 545
f 540 541 547 546
f 541 542 548 547
f 542 537 543 548
o Nugget.Shine
v 0.867 0.903 -0.314
v 0.867 0.903 -0.262
v 0.941 0.903 -0.262
v 0.941 0.903 -0.314
v 0.867 0.955 -0.314
v 0.867 0.955 -0.262
v 0.941 0.955 -0.262
v 0.941 0.955 -0.314
usemtl Shine
s off
f 552 551 550 549
f 553 554 555 556
f 549 550 554 553
f 550 551 555 554
f 551 552 556 555
f 552 549 553 556
o Nugget
v 1.075 0.725 0.451
v 0.932 0.725 0.469
v 0.845 0.725 0.354
v 0.901 0.725 0.221
v 1.044 0.725 0.203
v 1.131 0.725 0.318
v 1.031 0.912 0.394
v 0.96 0.912 0.402
v 0.916 0.912 0.345
v 0.944 0.912 0.278
v 1.016 0.912 0.27
v 1.059 0.912 0.327
usemtl Gold
s off
f 562 561 560 559 558 557
f 563 564 565 566 567 568
f 557 558 564 563
f 558 559 565 564
f 559 560 566 565
f 560 561 567 566
f 561 562 568 567
f 562 557 563 568
o Nugget.Shine
v 0.945 0.869 0.365
v 0.945 0.869 0.415
v 1.017 0.869 0.415
v 1.017 0.869 0.365
v 0.945 0.919 0.365
v 0.945 0.919 0.415
v 1.017 0.919 0.415
v 1.017 0.919 0.365
usemtl Shine
s off
f 572 571 570 569
f 573 574 575 576
f 569 570 574 573
f 570 571 575 574
f 571 572 576 575
f 572 569 573 576
o Nugget
v 0.175 1.077 -0.157
v 0.124 1.077 -0.274
v 0.2 1.077 -0.377
v 0.327 1.077 -0.363
v 0.378 1.077 -0.246
v 0.302 1.077 -0.143
v 0.213 1.242 -0.209
v 0.188 1.242 -0.267
v 0.226 1.242 -0.319
v 0.289 1.242 -0.311
v 0.315 1.242 -0.253
v 0.277 1.242 -0.202
usemtl GoldDark
s off
f 582 581 580 579 578 577
f 583 584 585 586 587 588
f 577 578 584 583
f 578 579 585 584
f 579 580 586 585
f 580 581 587 586
f 581 582 588 587
f 582 577 583 588
o Nugget.Shine
v 0.213 1.204 -0.235
v 0.213 1.204 -0.19
v 0.277 1.204 -0.19
v 0.277 1.204 -0.235
v 0.213 1.249 -0.235
v 0.213 1.249 -0.19
v 0.277 1.249 -0.19
v 0.277 1.249 -0.235
usemtl Shine
s off
f 592 591 590 589
f 593 594 595 596
f 589 590 594 593
f 590 591 595 594
f 591 592 596 595
f 592 589 593 596
o Nugget
v 1.108 0.976 0.149
v 1.035 0.976 0.271
v 0.892 0.976 0.268
v 0.824 0.976 0.144
v 0.897 0.976 0.022
v 1.039 0.976 0.025
v 1.037 1.161 0.148
v 1 1.161 0.209
v 0.929 1.161 0.207
v 0.895 1.161 0.145
v 0.931 1.161 0.084
v 1.003 1.161 0.086
usemtl Gold
s off
f 602 601 600 599 598 597
f 603 604 605 606 607 608
f 597 598 604 603
f 598 599 605 604
f 599 600 606 605
f 600 601 607 606
f 601 602 608 607
f 602 597 603 608
o Nugget.Shine
v 0.923 1.119 0.175
v 0.923 1.119 0.225
v 0.994 1.119 0.225
v 0.994 1.119 0.175
v 0.923 1.169 0.175
v 0.923 1.169 0.225
v 0.994 1.169 0.225
v 0.994 1.169 0.175
usemtl Shine
s off
f 612 611 610 609
f 613 614 615 616
f 609 610 614 613
f 610 611 615 614
f 611 612 616 615
f 612 609 613 616
o Vein
v -0.135 0.59 0.811
v -0.261 0.59 0.777
v -0.277 0.477 0.838
v -0.152 0.477 0.872
v -0.083 0.45 0.585
v -0.189 0.45 0.556
v -0.203 0.353 0.607
v -0.097 0.353 0.637
usemtl Gold
s off
f 620 619 618 617
f 621 622 623 624
f 617 618 622 621
f 618 619 623 622
f 619 620 624 623
f 620 617 621 624
o Vein
v -0.081 0.446 0.609
v -0.163 0.446 0.536
v -0.205 0.357 0.583
v -0.123 0.357 0.656
v 0.016 0.294 0.463
v -0.029 0.294 0.423
v -0.052 0.245 0.449
v -0.007 0.245 0.489
usemtl GoldLight
s off
f 628 627 626 625
f 629 630 631 632
f 625 626 630 629
f 626 627 631 630
f 627 628 632 631
f 628 625 629 632
o Nugget
v -0.045 0.445 0.822
v -0.157 0.445 0.929
v -0.306 0.445 0.886
v -0.342 0.445 0.735
v -0.23 0.445 0.628
v -0.082 0.445 0.672
v -0.119 0.646 0.8
v -0.175 0.646 0.854
v -0.25 0.646 0.832
v -0.268 0.646 0.757
v -0.212 0.646 0.703
v -0.138 0.646 0.725
usemtl Gold
s off
f 638 637 636 635 634 633
f 639 640 641 642 643 644
f 633 634 640 639
f 634 635 641 640
f 635 636 642 641
f 636 637 643 642
f 637 638 644 643
f 638 633 639 644
o Nugget.Shine
v -0.24 0.6 0.81
v -0.24 0.6 0.864
v -0.163 0.6 0.864
v -0.163 0.6 0.81
v -0.24 0.654 0.81
v -0.24 0.654 0.864
v -0.163 0.654 0.864
v -0.163 0.654 0.81
usemtl Shine
s off
f 648 647 646 645
f 649 650 651 652
f 645 646 650 649
f 646 647 651 650
f 647 648 652 651
f 648 645 649 652
o Nugget
v -0.224 0.385 0.764
v -0.286 0.385 0.654
v -0.221 0.385 0.545
v -0.095 0.385 0.547
v -0.033 0.385 0.657
v -0.098 0.385 0.766
v -0.192 0.55 0.71
v -0.223 0.55 0.655
v -0.191 0.55 0.6
v -0.127 0.55 0.601
v -0.096 0.55 0.656
v -0.129 0.55 0.711
usemtl GoldLight
s off
f 658 657 656 655 654 653
f 659 660 661 662 663 664
f 653 654 660 659
f 654 655 661 660
f 655 656 662 661
f 656 657 663 662
f 657 658 664 663
f 658 653 659 664
o Nugget.Shine
v -0.198 0.512 0.681
v -0.198 0.512 0.725
v -0.134 0.512 0.725
v -0.134 0.512 0.681
v -0.198 0.556 0.681
v -0.198 0.556 0.725
v -0.134 0.556 0.725
v -0.134 0.556 0.681
usemtl Shine
s off
f 668 667 666 665
f 669 670 671 672
f 665 666 670 669
f 666 667 671 670
f 667 668 672 671
f 668 665 669 672
o Nugget
v 0.026 0.304 0.628
v -0.103 0.304 0.709
v -0.237 0.304 0.638
v -0.242 0.304 0.486
v -0.114 0.304 0.405
v 0.02 0.304 0.476
v -0.041 0.501 0.592
v -0.105 0.501 0.633
v -0.172 0.501 0.597
v -0.175 0.501 0.521
v -0.111 0.501 0.481
v -0.044 0.501 0.517
usemtl Gold
s off
f 678 677 676 675 674 673
f 679 680 681 682 683 684
f 673 674 680 679
f 674 675 681 680
f 675 676 682 681
f 676 677 683 682
f 677 678 684 683
f 678 673 679 684
o Nugget.Shine
v -0.154 0.456 0.587
v -0.154 0.456 0.64
v -0.078 0.456 0.64
v -0.078 0.456 0.587
v -0.154 0.509 0.587
v -0.154 0.509 0.64
v -0.078 0.509 0.64
v -0.078 0.509 0.587
usemtl Shine
s off
f 688 687 686 685
f 689 690 691 692
f 685 686 690 689
f 686 687 691 690
f 687 688 692 691
f 688 685 689 692
o Nugget
v -0.053 0.235 0.628
v -0.174 0.235 0.544
v -0.161 0.235 0.397
v -0.028 0.235 0.335
v 0.092 0.235 0.419
v 0.08 0.235 0.565
v -0.047 0.425 0.555
v -0.107 0.425 0.513
v -0.101 0.425 0.439
v -0.034 0.425 0.408
v 0.026 0.425 0.45
v 0.02 0.425 0.523
usemtl GoldLight
s off
f 698 697 696 695 694 693
f 699 700 701 702 703 704
f 693 694 700 699
f 694 695 701 700
f 695 696 702 701
f 696 697 703 702
f 697 698 704 703
f 698 693 699 704
o Nugget.Shine
v -0.085 0.381 0.511
v -0.085 0.381 0.562
v -0.011 0.381 0.562
v -0.011 0.381 0.511
v -0.085 0.433 0.511
v -0.085 0.433 0.562
v -0.011 0.433 0.562
v -0.011 0.433 0.511
usemtl Shine
s off
f 708 707 706 705
f 709 710 711 712
f 705 706 710 709
f 706 707 711 710
f 707 708 712 711
f 708 705 709 712
o Crack
v -0.205 0.531 0.821
v -0.19 0.531 0.796
v -0.2 0.503 0.79
v -0.215 0.503 0.815
v 0.26 0.293 1.09
v 0.267 0.293 1.077
v 0.262 0.279 1.074
v 0.255 0.279 1.087
usemtl Soot
s off
f 716 715 714 713
f 717 718 719 720
f 713 714 718 717
f 714 715 719 718
f 715 716 720 719
f 716 713 717 720
o Nugget
v 0.177 0.328 0.7
v 0.085 0.328 0.616
v 0.112 0.328 0.495
v 0.231 0.328 0.457
v 0.323 0.328 0.541
v 0.296 0.328 0.663
v 0.191 0.49 0.639
v 0.145 0.49 0.597
v 0.158 0.49 0.537
v 0.218 0.49 0.518
v 0.263 0.49 0.56
v 0.25 0.49 0.621
usemtl Gold
s off
f 726 725 724 723 722 721
f 727 728 729 730 731 732
f 721 722 728 727
f 722 723 729 728
f 723 724 730 729
f 724 725 731 730
f 725 726 732 731
f 726 721 727 732
o Nugget.Shine
v 0.167 0.453 0.604
v 0.167 0.453 0.647
v 0.229 0.453 0.647
v 0.229 0.453 0.604
v 0.167 0.496 0.604
v 0.167 0.496 0.647
v 0.229 0.496 0.647
v 0.229 0.496 0.604
usemtl Shine
s off
f 736 735 734 733
f 737 738 739 740
f 733 734 738 737
f 734 735 739 738
f 735 736 740 739
f 736 733 737 740
o Nugget
v 0.101 0.324 1.179
v 0.01 0.324 1.078
v 0.052 0.324 0.949
v 0.185 0.324 0.921
v 0.276 0.324 1.021
v 0.234 0.324 1.15
v 0.122 0.5 1.114
v 0.077 0.5 1.064
v 0.098 0.5 0.999
v 0.164 0.5 0.985
v 0.209 0.5 1.036
v 0.188 0.5 1.1
usemtl GoldDark
s off
f 746 745 744 743 742 741
f 747 748 749 750 751 752
f 741 742 748 747
f 742 743 749 748
f 743 744 750 749
f 744 745 751 750
f 745 746 752 751
f 746 741 747 752
o Nugget.Shine
v 0.102 0.46 1.077
v 0.102 0.46 1.124
v 0.17 0.46 1.124
v 0.17 0.46 1.077
v 0.102 0.507 1.077
v 0.102 0.507 1.124
v 0.17 0.507 1.124
v 0.17 0.507 1.077
usemtl Shine
s off
f 756 755 754 753
f 757 758 759 760
f 753 754 758 757
f 754 755 759 758
f 755 756 760 759
f 756 753 757 760
o Nugget
v 0.372 0.414 0.902
v 0.287 0.414 0.957
v 0.197 0.414 0.911
v 0.192 0.414 0.81
v 0.277 0.414 0.755
v 0.367 0.414 0.801
v 0.327 0.545 0.879
v 0.284 0.545 0.907
v 0.239 0.545 0.884
v 0.237 0.545 0.833
v 0.279 0.545 0.806
v 0.324 0.545 0.829
usemtl Gold
s off
f 766 765 764 763 762 761
f 767 768 769 770 771 772
f 761 762 768 767
f 762 763 769 768
f 763 764 770 769
f 764 765 771 770
f 765 766 772 771
f 766 761 767 772
o Nugget.Shine
v 0.251 0.515 0.876
v 0.251 0.515 0.912
v 0.302 0.515 0.912
v 0.302 0.515 0.876
v 0.251 0.55 0.876
v 0.251 0.55 0.912
v 0.302 0.55 0.912
v 0.302 0.55 0.876
usemtl Shine
s off
f 776 775 774 773
f 777 778 779 780
f 773 774 778 777
f 774 775 779 778
f 775 776 780 779
f 776 773 777 780
o Nugget
v 0.12 0.5 0.778
v 0.161 0.5 0.671
v 0.274 0.5 0.653
v 0.346 0.5 0.742
v 0.305 0.5 0.849
v 0.192 0.5 0.867
v 0.176 0.648 0.769
v 0.197 0.648 0.716
v 0.253 0.648 0.707
v 0.289 0.648 0.751
v 0.269 0.648 0.804
v 0.212 0.648 0.813
usemtl GoldDark
s off
f 786 785 784 783 782 781
f 787 788 789 790 791 792
f 781 782 788 787
f 782 783 789 788
f 783 784 790 789
f 784 785 791 790
f 785 786 792 791
f 786 781 787 792
o Nugget.Shine
v 0.199 0.614 0.783
v 0.199 0.614 0.823
v 0.256 0.614 0.823
v 0.256 0.614 0.783
v 0.199 0.654 0.783
v 0.199 0.654 0.823
v 0.256 0.654 0.823
v 0.256 0.654 0.783
usemtl Shine
s off
f 796 795 794 793
f 797 798 799 800
f 793 794 798 797
f 794 795 799 798
f 795 796 800 799
f 796 793 797 800
o Nugget
v 0.439 0.273 0.692
v 0.348 0.273 0.774
v 0.232 0.273 0.735
v 0.207 0.273 0.616
v 0.298 0.273 0.534
v 0.414 0.273 0.573
v 0.381 0.432 0.673
v 0.335 0.432 0.714
v 0.277 0.432 0.695
v 0.265 0.432 0.635
v 0.311 0.432 0.594
v 0.369 0.432 0.613
usemtl Gold
s off
f 806 805 804 803 802 801
f 807 808 809 810 811 812
f 801 802 808 807
f 802 803 809 808
f 803 804 810 809
f 804 805 811 810
f 805 806 812 811
f 806 801 807 812
o Nugget.Shine
v 0.286 0.395 0.678
v 0.286 0.395 0.721
v 0.347 0.395 0.721
v 0.347 0.395 0.678
v 0.286 0.438 0.678
v 0.286 0.438 0.721
v 0.347 0.438 0.721
v 0.347 0.438 0.678
usemtl Shine
s off
f 816 815 814 813
f 817 818 819 820
f 813 814 818 817
f 814 815 819 818
f 815 816 820 819
f 816 813 817 820
o Vein
v -0.206 0.546 -1.034
v -0.095 0.546 -1.103
v -0.118 0.424 -1.14
v -0.229 0.424 -1.071
v -0.021 0.417 -0.756
v 0.073 0.417 -0.814
v 0.053 0.313 -0.845
v -0.04 0.313 -0.787
usemtl Gold
s off
f 824 823 822 821
f 825 826 827 828
f 821 822 826 825
f 822 823 827 826
f 823 824 828 827
f 824 821 825 828
o Vein
v -0.029 0.415 -0.761
v 0.076 0.415 -0.795
v 0.061 0.315 -0.839
v -0.043 0.315 -0.806
v 0.07 0.272 -0.534
v 0.127 0.272 -0.553
v 0.12 0.218 -0.577
v 0.062 0.218 -0.559
usemtl GoldLight
s off
f 832 831 830 829
f 833 834 835 836
f 829 830 834 833
f 830 831 835 834
f 831 832 836 835
f 832 829 833 836
o Nugget
v 0.033 0.397 -1.007
v -0.066 0.397 -0.881
v -0.225 0.397 -0.903
v -0.285 0.397 -1.052
v -0.186 0.397 -1.179
v -0.027 0.397 -1.156
v -0.047 0.606 -1.019
v -0.096 0.606 -0.955
v -0.176 0.606 -0.967
v -0.206 0.606 -1.041
v -0.156 0.606 -1.104
v -0.077 0.606 -1.093
usemtl Gold
s off
f 842 841 840 839 838 837
f 843 844 845 846 847 848
f 837 838 844 843
f 838 839 845 844
f 839 840 846 845
f 840 841 847 846
f 841 842 848 847
f 842 837 843 848
o Nugget.Shine
v -0.174 0.557 -0.998
v -0.174 0.557 -0.941
v -0.094 0.557 -0.941
v -0.094 0.557 -0.998
v -0.174 0.614 -0.998
v -0.174 0.614 -0.941
v -0.094 0.614 -0.941
v -0.094 0.614 -0.998
usemtl Shine
s off
f 852 851 850 849
f 853 854 855 856
f 849 850 854 853
f 850 851 855 854
f 851 852 856 855
f 852 849 853 856
o Nugget
v 0.023 0.343 -0.753
v -0.109 0.343 -0.768
v -0.162 0.343 -0.889
v -0.084 0.343 -0.996
v 0.048 0.343 -0.982
v 0.102 0.343 -0.86
v -0.003 0.516 -0.814
v -0.069 0.516 -0.821
v -0.096 0.516 -0.882
v -0.057 0.516 -0.936
v 0.009 0.516 -0.928
v 0.036 0.516 -0.868
usemtl GoldLight
s off
f 862 861 860 859 858 857
f 863 864 865 866 867 868
f 857 858 864 863
f 858 859 865 864
f 859 860 866 865
f 860 861 867 866
f 861 862 868 867
f 862 857 863 868
o Nugget.Shine
v -0.07 0.476 -0.848
v -0.07 0.476 -0.802
v -0.004 0.476 -0.802
v -0.004 0.476 -0.848
v -0.07 0.522 -0.848
v -0.07 0.522 -0.802
v -0.004 0.522 -0.802
v -0.004 0.522 -0.848
usemtl Shine
s off
f 872 871 870 869
f 873 874 875 876
f 869 870 874 873
f 870 871 875 874
f 871 872 876 875
f 872 869 873 876
o Nugget
v -0.074 0.286 -0.71
v -0.037 0.286 -0.818
v 0.076 0.286 -0.84
v 0.151 0.286 -0.754
v 0.113 0.286 -0.645
v 0.001 0.286 -0.623
v -0.018 0.435 -0.721
v 0.001 0.435 -0.775
v 0.057 0.435 -0.786
v 0.094 0.435 -0.743
v 0.076 0.435 -0.688
v 0.019 0.435 -0.678
usemtl Gold
s off
f 882 881 880 879 878 877
f 883 884 885 886 887 888
f 877 878 884 883
f 878 879 885 884
f 879 880 886 885
f 880 881 887 886
f 881 882 888 887
f 882 877 883 888
o Nugget.Shine
v 0.004 0.4 -0.709
v 0.004 0.4 -0.669
v 0.061 0.4 -0.669
v 0.061 0.4 -0.709
v 0.004 0.44 -0.709
v 0.004 0.44 -0.669
v 0.061 0.44 -0.669
v 0.061 0.44 -0.709
usemtl Shine
s off
f 892 891 890 889
f 893 894 895 896
f 889 890 894 893
f 890 891 895 894
f 891 892 896 895
f 892 889 893 896
o Nugget
v -0.035 0.213 -0.531
v -0.037 0.213 -0.665
v 0.079 0.213 -0.734
v 0.196 0.213 -0.669
v 0.198 0.213 -0.534
v 0.083 0.213 -0.465
v 0.023 0.388 -0.565
v 0.022 0.388 -0.632
v 0.08 0.388 -0.667
v 0.138 0.388 -0.634
v 0.14 0.388 -0.567
v 0.082 0.388 -0.532
usemtl GoldLight
s off
f 902 901 900 899 898 897
f 903 904 905 906 907 908
f 897 898 904 903
f 898 899 905 904
f 899 900 906 905
f 900 901 907 906
f 901 902 908 907
f 902 897 903 908
o Nugget.Shine
v 0.04 0.347 -0.573
v 0.04 0.347 -0.526
v 0.108 0.347 -0.526
v 0.108 0.347 -0.573
v 0.04 0.394 -0.573
v 0.04 0.394 -0.526
v 0.108 0.394 -0.526
v 0.108 0.394 -0.573
usemtl Shine
s off
f 912 911 910 909
f 913 914 915 916
f 909 910 914 913
f 910 911 915 914
f 911 912 916 915
f 912 909 913 916
o Crack
v -0.043 0.484 -1.078
v -0.016 0.484 -1.09
v -0.02 0.456 -1.1
v -0.048 0.456 -1.088
v 0.184 0.267 -0.595
v 0.197 0.267 -0.601
v 0.195 0.253 -0.606
v 0.181 0.253 -0.6
usemtl Soot
s off
f 920 919 918 917
f 921 922 923 924
f 917 918 922 921
f 918 919 923 922
f 919 920 924 923
f 920 917 921 924
o Nugget
v -0.037 0.249 -0.481
v -0.093 0.249 -0.571
v -0.043 0.249 -0.665
v 0.063 0.249 -0.669
v 0.12 0.249 -0.579
v 0.07 0.249 -0.485
v -0.012 0.387 -0.528
v -0.04 0.387 -0.573
v -0.015 0.387 -0.62
v 0.038 0.387 -0.622
v 0.066 0.387 -0.577
v 0.041 0.387 -0.53
usemtl Gold
s off
f 930 929 928 927 926 925
f 931 932 933 934 935 936
f 925 926 932 931
f 926 927 933 932
f 927 928 934 933
f 928 929 935 934
f 929 930 936 935
f 930 925 931 936
o Nugget.Shine
v -0.019 0.355 -0.554
v -0.019 0.355 -0.517
v 0.034 0.355 -0.517
v 0.034 0.355 -0.554
v -0.019 0.393 -0.554
v -0.019 0.393 -0.517
v 0.034 0.393 -0.517
v 0.034 0.393 -0.554
usemtl Shine
s off
f 940 939 938 937
f 941 942 943 944
f 937 938 942 941
f 938 939 943 942
f 939 940 944 943
f 940 937 941 944
o Nugget
v 0.159 0.332 -0.628
v 0.063 0.332 -0.518
v -0.081 0.332 -0.545
v -0.129 0.332 -0.684
v -0.033 0.332 -0.794
v 0.111 0.332 -0.766
v 0.087 0.523 -0.642
v 0.039 0.523 -0.587
v -0.033 0.523 -0.601
v -0.057 0.523 -0.67
v -0.009 0.523 -0.725
v 0.063 0.523 -0.711
usemtl GoldDark
s off
f 950 949 948 947 946 945
f 951 952 953 954 955 956
f 945 946 952 951
f 946 947 953 952
f 947 948 954 953
f 948 949 955 954
f 949 950 956 955
f 950 945 951 956
o Nugget.Shine
v -0.029 0.479 -0.627
v -0.029 0.479 -0.575
v 0.044 0.479 -0.575
v 0.044 0.479 -0.627
v -0.029 0.53 -0.627
v -0.029 0.53 -0.575
v 0.044 0.53 -0.575
v 0.044 0.53 -0.627
usemtl Shine
s off
f 960 959 958 957
f 961 962 963 964
f 957 958 962 961
f 958 959 963 962
f 959 960 964 963
f 960 957 961 964
o Nugget
v 0.116 0.414 -0.902
v 0.046 0.414 -0.97
v 0.07 0.414 -1.064
v 0.164 0.414 -1.09
v 0.233 0.414 -1.023
v 0.21 0.414 -0.929
v 0.128 0.541 -0.949
v 0.093 0.541 -0.983
v 0.105 0.541 -1.03
v 0.152 0.541 -1.043
v 0.187 0.541 -1.01
v 0.175 0.541 -0.962
usemtl Gold
s off
f 970 969 968 967 966 965
f 971 972 973 974 975 976
f 965 966 972 971
f 966 967 973 972
f 967 968 974 973
f 968 969 975 974
f 969 970 976 975
f 970 965 971 976
o Nugget.Shine
v 0.111 0.511 -0.977
v 0.111 0.511 -0.943
v 0.159 0.511 -0.943
v 0.159 0.511 -0.977
v 0.111 0.545 -0.977
v 0.111 0.545 -0.943
v 0.159 0.545 -0.943
v 0.159 0.545 -0.977
usemtl Shine
s off
f 980 979 978 977
f 981 982 983 984
f 977 978 982 981
f 978 979 983 982
f 979 980 984 983
f 980 977 981 984
o Nugget
v 0.02 0.281 -1.048
v -0.076 0.281 -1.087
v -0.09 0.281 -1.189
v -0.008 0.281 -1.252
v 0.087 0.281 -1.214
v 0.102 0.281 -1.111
v 0.013 0.416 -1.099
v -0.035 0.416 -1.118
v -0.042 0.416 -1.17
v -0.001 0.416 -1.201
v 0.047 0.416 -1.182
v 0.054 0.416 -1.131
usemtl GoldDark
s off
f 990 989 988 987 986 985
f 991 992 993 994 995 996
f 985 986 992 991
f 986 987 993 992
f 987 988 994 993
f 988 989 995 994
f 989 990 996 995
f 990 985 991 996
o Nugget.Shine
v -0.025 0.385 -1.129
v -0.025 0.385 -1.093
v 0.027 0.385 -1.093
v 0.027 0.385 -1.129
v -0.025 0.421 -1.129
v -0.025 0.421 -1.093
v 0.027 0.421 -1.093
v 0.027 0.421 -1.129
usemtl Shine
s off
f 1000 999 998 997
f 1001 1002 1003 1004
f 997 998 1002 1001
f 998 999 1003 1002
f 999 1000 1004 1003
f 1000 997 1001 1004
o Nugget
v -0.42 0.277 -0.973
v -0.46 0.277 -1.097
v -0.372 0.277 -1.195
v -0.244 0.277 -1.167
v -0.204 0.277 -1.042
v -0.292 0.277 -0.945
v -0.376 0.447 -1.021
v -0.396 0.447 -1.084
v -0.352 0.447 -1.132
v -0.288 0.447 -1.118
v -0.268 0.447 -1.056
v -0.312 0.447 -1.007
usemtl Gold
s off
f 1010 1009 1008 1007 1006 1005
f 1011 1012 1013 1014 1015 1016
f 1005 1006 1012 1011
f 1006 1007 1013 1012
f 1007 1008 1014 1013
f 1008 1009 1015 1014
f 1009 1010 1016 1015
f 1010 1005 1011 1016
o Nugget.Shine
v -0.372 0.408 -1.043
v -0.372 0.408 -0.998
v -0.306 0.408 -0.998
v -0.306 0.408 -1.043
v -0.372 0.454 -1.043
v -0.372 0.454 -0.998
v -0.306 0.454 -0.998
v -0.306 0.454 -1.043
usemtl Shine
s off
f 1020 1019 1018 1017
f 1021 1022 1023 1024
f 1017 1018 1022 1021
f 1018 1019 1023 1022
f 1019 1020 1024 1023
f 1020 1017 1021 1024
o Nugget
v -0.764 0.03 0.617
v -0.829 0.03 0.724
v -0.954 0.03 0.721
v -1.014 0.03 0.611
v -0.949 0.03 0.505
v -0.824 0.03 0.507
v -0.827 0.192 0.615
v -0.859 0.192 0.669
v -0.921 0.192 0.667
v -0.951 0.192 0.613
v -0.919 0.192 0.559
v -0.857 0.192 0.561
usemtl Gold
s off
f 1030 1029 1028 1027 1026 1025
f 1031 1032 1033 1034 1035 1036
f 1025 1026 1032 1031
f 1026 1027 1033 1032
f 1027 1028 1034 1033
f 1028 1029 1035 1034
f 1029 1030 1036 1035
f 1030 1025 1031 1036
o Nugget.Shine
v -0.927 0.155 0.639
v -0.927 0.155 0.683
v -0.864 0.155 0.683
v -0.864 0.155 0.639
v -0.927 0.199 0.639
v -0.927 0.199 0.683
v -0.864 0.199 0.683
v -0.864 0.199 0.639
usemtl Shine
s off
f 1040 1039 1038 1037
f 1041 1042 1043 1044
f 1037 1038 1042 1041
f 1038 1039 1043 1042
f 1039 1040 1044 1043
f 1040 1037 1041 1044
o Nugget
v 0.499 0.033 1.175
v 0.385 0.033 1.208
v 0.299 0.033 1.127
v 0.327 0.033 1.011
v 0.44 0.033 0.978
v 0.526 0.033 1.059
v 0.456 0.187 1.134
v 0.399 0.187 1.151
v 0.356 0.187 1.11
v 0.37 0.187 1.052
v 0.427 0.187 1.035
v 0.47 0.187 1.076
usemtl GoldLight
s off
f 1050 1049 1048 1047 1046 1045
f 1051 1052 1053 1054 1055 1056
f 1045 1046 1052 1051
f 1046 1047 1053 1052
f 1047 1048 1054 1053
f 1048 1049 1055 1054
f 1049 1050 1056 1055
f 1050 1045 1051 1056
o Nugget.Shine
v 0.377 0.151 1.117
v 0.377 0.151 1.158
v 0.436 0.151 1.158
v 0.436 0.151 1.117
v 0.377 0.193 1.117
v 0.377 0.193 1.158
v 0.436 0.193 1.158
v 0.436 0.193 1.117
usemtl Shine
s off
f 1060 1059 1058 1057
f 1061 1062 1063 1064
f 1057 1058 1062 1061
f 1058 1059 1063 1062
f 1059 1060 1064 1063
f 1060 1057 1061 1064
o Nugget
v -0.696 0.038 1.205
v -0.796 0.038 1.231
v -0.869 0.038 1.157
v -0.842 0.038 1.057
v -0.741 0.038 1.031
v -0.668 0.038 1.105
v -0.732 0.173 1.168
v -0.783 0.173 1.181
v -0.819 0.173 1.144
v -0.805 0.173 1.094
v -0.755 0.173 1.081
v -0.719 0.173 1.118
usemtl GoldDark
s off
f 1070 1069 1068 1067 1066 1065
f 1071 1072 1073 1074 1075 1076
f 1065 1066 1072 1071
f 1066 1067 1073 1072
f 1067 1068 1074 1073
f 1068 1069 1075 1074
f 1069 1070 1076 1075
f 1070 1065 1071 1076
o Nugget.Shine
v -0.8 0.142 1.152
v -0.8 0.142 1.188
v -0.748 0.142 1.188
v -0.748 0.142 1.152
v -0.8 0.179 1.152
v -0.8 0.179 1.188
v -0.748 0.179 1.188
v -0.748 0.179 1.152
usemtl Shine
s off
f 1080 1079 1078 1077
f 1081 1082 1083 1084
f 1077 1078 1082 1081
f 1078 1079 1083 1082
f 1079 1080 1084 1083
f 1080 1077 1081 1084
o Nugget
v -1.043 0.035 0.649
v -1.135 0.035 0.715
v -1.238 0.035 0.668
v -1.249 0.035 0.556
v -1.158 0.035 0.49
v -1.054 0.035 0.537
v -1.095 0.182 0.626
v -1.141 0.182 0.659
v -1.192 0.182 0.635
v -1.198 0.182 0.579
v -1.152 0.182 0.546
v -1.1 0.182 0.57
usemtl Gold
s off
f 1090 1089 1088 1087 1086 1085
f 1091 1092 1093 1094 1095 1096
f 1085 1086 1092 1091
f 1086 1087 1093 1092
f 1087 1088 1094 1093
f 1088 1089 1095 1094
f 1089 1090 1096 1095
f 1090 1085 1091 1096
o Nugget.Shine
v -1.18 0.148 0.625
v -1.18 0.148 0.665
v -1.124 0.148 0.665
v -1.124 0.148 0.625
v -1.18 0.187 0.625
v -1.18 0.187 0.665
v -1.124 0.187 0.665
v -1.124 0.187 0.625
usemtl Shine
s off
f 1100 1099 1098 1097
f 1101 1102 1103 1104
f 1097 1098 1102 1101
f 1098 1099 1103 1102
f 1099 1100 1104 1103
f 1100 1097 1101 1104
o Nugget
v 0.263 0.029 1.115
v 0.147 0.029 1.167
v 0.045 0.029 1.092
v 0.058 0.029 0.967
v 0.174 0.029 0.916
v 0.276 0.029 0.99
v 0.212 0.194 1.078
v 0.154 0.194 1.104
v 0.103 0.194 1.067
v 0.109 0.194 1.004
v 0.167 0.194 0.978
v 0.218 0.194 1.015
usemtl GoldLight
s off
f 1110 1109 1108 1107 1106 1105
f 1111 1112 1113 1114 1115 1116
f 1105 1106 1112 1111
f 1106 1107 1113 1112
f 1107 1108 1114 1113
f 1108 1109 1115 1114
f 1109 1110 1116 1115
f 1110 1105 1111 1116
o Nugget.Shine
v 0.123 0.156 1.066
v 0.123 0.156 1.111
v 0.186 0.156 1.111
v 0.186 0.156 1.066
v 0.123 0.2 1.066
v 0.123 0.2 1.111
v 0.186 0.2 1.111
v 0.186 0.2 1.066
usemtl Shine
s off
f 1120 1119 1118 1117
f 1121 1122 1123 1124
f 1117 1118 1122 1121
f 1118 1119 1123 1122
f 1119 1120 1124 1123
f 1120 1117 1121 1124
o Nugget
v 0.499 0.029 1.193
v 0.506 0.029 1.066
v 0.62 0.029 1.008
v 0.727 0.029 1.078
v 0.72 0.029 1.205
v 0.606 0.029 1.263
v 0.556 0.195 1.164
v 0.559 0.195 1.101
v 0.616 0.195 1.072
v 0.67 0.195 1.107
v 0.666 0.195 1.17
v 0.609 0.195 1.199
usemtl GoldDark
s off
f 1130 1129 1128 1127 1126 1125
f 1131 1132 1133 1134 1135 1136
f 1125 1126 1132 1131
f 1126 1127 1133 1132
f 1127 1128 1134 1133
f 1128 1129 1135 1134
f 1129 1130 1136 1135
f 1130 1125 1131 1136
o Nugget.Shine
v 0.575 0.157 1.161
v 0.575 0.157 1.206
v 0.638 0.157 1.206
v 0.638 0.157 1.161
v 0.575 0.201 1.161
v 0.575 0.201 1.206
v 0.638 0.201 1.206
v 0.638 0.201 1.161
usemtl Shine
s off
f 1140 1139 1138 1137
f 1141 1142 1143 1144
f 1137 1138 1142 1141
f 1138 1139 1143 1142
f 1139 1140 1144 1143
f 1140 1137 1141 1144
o Nugget
v -0.802 0.022 0.519
v -0.911 0.022 0.613
v -1.047 0.022 0.566
v -1.074 0.022 0.424
v -0.965 0.022 0.33
v -0.829 0.022 0.378
v -0.87 0.21 0.496
v -0.924 0.21 0.543
v -0.992 0.21 0.519
v -1.006 0.21 0.448
v -0.951 0.21 0.401
v -0.883 0.21 0.425
usemtl Gold
s off
f 1150 1149 1148 1147 1146 1145
f 1151 1152 1153 1154 1155 1156
f 1145 1146 1152 1151
f 1146 1147 1153 1152
f 1147 1148 1154 1153
f 1148 1149 1155 1154
f 1149 1150 1156 1155
f 1150 1145 1151 1156
o Nugget.Shine
v -0.981 0.167 0.501
v -0.981 0.167 0.551
v -0.909 0.167 0.551
v -0.909 0.167 0.501
v -0.981 0.217 0.501
v -0.981 0.217 0.551
v -0.909 0.217 0.551
v -0.909 0.217 0.501
usemtl Shine
s off
f 1160 1159 1158 1157
f 1161 1162 1163 1164
f 1157 1158 1162 1161
f 1158 1159 1163 1162
f 1159 1160 1164 1163
f 1160 1157 1161 1164
o Nugget
v 0.083 0.027 1.313
v -0.051 0.027 1.309
v -0.114 0.027 1.191
v -0.044 0.027 1.077
v 0.09 0.027 1.082
v 0.153 0.027 1.199
v 0.051 0.2 1.254
v -0.016 0.2 1.252
v -0.047 0.2 1.193
v -0.012 0.2 1.136
v 0.055 0.2 1.138
v 0.086 0.2 1.197
usemtl GoldLight
s off
f 1170 1169 1168 1167 1166 1165
f 1171 1172 1173 1174 1175 1176
f 1165 1166 1172 1171
f 1166 1167 1173 1172
f 1167 1168 1174 1173
f 1168 1169 1175 1174
f 1169 1170 1176 1175
f 1170 1165 1171 1176
o Nugget.Shine
v -0.02 0.16 1.222
v -0.02 0.16 1.268
v 0.046 0.16 1.268
v 0.046 0.16 1.222
v -0.02 0.207 1.222
v -0.02 0.207 1.268
v 0.046 0.207 1.268
v 0.046 0.207 1.222
usemtl Shine
s off
f 1180 1179 1178 1177
f 1181 1182 1183 1184
f 1177 1178 1182 1181
f 1178 1179 1183 1182
f 1179 1180 1184 1183
f 1180 1177 1181 1184
o Nugget
v -0.578 0.039 1.281
v -0.68 0.039 1.274
v -0.725 0.039 1.181
v -0.667 0.039 1.095
v -0.565 0.039 1.103
v -0.52 0.039 1.196
v -0.6 0.173 1.235
v -0.651 0.173 1.231
v -0.674 0.173 1.185
v -0.645 0.173 1.142
v -0.593 0.173 1.146
v -0.571 0.173 1.192
usemtl GoldDark
s off
f 1190 1189 1188 1187 1186 1185
f 1191 1192 1193 1194 1195 1196
f 1185 1186 1192 1191
f 1186 1187 1193 1192
f 1187 1188 1194 1193
f 1188 1189 1195 1194
f 1189 1190 1196 1195
f 1190 1185 1191 1196
o Nugget.Shine
v -0.653 0.142 1.209
v -0.653 0.142 1.245
v -0.602 0.142 1.245
v -0.602 0.142 1.209
v -0.653 0.178 1.209
v -0.653 0.178 1.245
v -0.602 0.178 1.245
v -0.602 0.178 1.209
usemtl Shine
s off
f 1200 1199 1198 1197
f 1201 1202 1203 1204
f 1197 1198 1202 1201
f 1198 1199 1203 1202
f 1199 1200 1204 1203
f 1200 1197 1201 1204
o Nugget
v 0.287 0.019 1.255
v 0.301 0.019 1.103
v 0.441 0.019 1.039
v 0.566 0.019 1.127
v 0.551 0.019 1.28
v 0.412 0.019 1.344
v 0.357 0.218 1.223
v 0.364 0.218 1.147
v 0.434 0.218 1.115
v 0.496 0.218 1.159
v 0.489 0.218 1.236
v 0.419 0.218 1.268
usemtl Gold
s off
f 1210 1209 1208 1207 1206 1205
f 1211 1212 1213 1214 1215 1216
f 1205 1206 1212 1211
f 1206 1207 1213 1212
f 1207 1208 1214 1213
f 1208 1209 1215 1214
f 1209 1210 1216 1215
f 1210 1205 1211 1216
o Nugget.Shine
v 0.38 0.172 1.222
v 0.38 0.172 1.276
v 0.457 0.172 1.276
v 0.457 0.172 1.222
v 0.38 0.225 1.222
v 0.38 0.225 1.276
v 0.457 0.225 1.276
v 0.457 0.225 1.222
usemtl Shine
s off
f 1220 1219 1218 1217
f 1221 1222 1223 1224
f 1217 1218 1222 1221
f 1218 1219 1223 1222
f 1219 1220 1224 1223
f 1220 1217 1221 1224
o Pebble
v -0.906 0 -0.181
v -0.962 0 -0.139
v -1.029 0 -0.168
v -1.015 0 -0.228
v -0.939 0 -0.236
v -0.938 0.058 -0.185
v -0.966 0.058 -0.165
v -0.999 0.058 -0.179
v -0.992 0.058 -0.209
v -0.955 0.058 -0.213
usemtl Rock
s off
f 1229 1228 1227 1226 1225
f 1230 1231 1232 1233 1234
f 1225 1226 1231 1230
f 1226 1227 1232 1231
f 1227 1228 1233 1232
f 1228 1229 1234 1233
f 1229 1225 1230 1234
o Pebble
v -0.928 0 -0.786
v -1.094 0 -0.796
v -1.134 0 -0.925
v -0.993 0 -0.995
v -0.865 0 -0.909
v -0.966 0.128 -0.834
v -1.049 0.128 -0.839
v -1.069 0.128 -0.904
v -0.998 0.128 -0.939
v -0.934 0.128 -0.896
usemtl RockDark
s off
f 1239 1238 1237 1236 1235
f 1240 1241 1242 1243 1244
f 1235 1236 1241 1240
f 1236 1237 1242 1241
f 1237 1238 1243 1242
f 1238 1239 1244 1243
f 1239 1235 1240 1244
o Pebble
v 0.998 0 -0.511
v 0.96 0 -0.573
v 1.021 0 -0.62
v 1.097 0 -0.589
v 1.083 0 -0.521
v 1.015 0.066 -0.537
v 0.996 0.066 -0.568
v 1.026 0.066 -0.592
v 1.064 0.066 -0.576
v 1.057 0.066 -0.542
usemtl Stone
s off
f 1249 1248 1247 1246 1245
f 1250 1251 1252 1253 1254
f 1245 1246 1251 1250
f 1246 1247 1252 1251
f 1247 1248 1253 1252
f 1248 1249 1254 1253
f 1249 1245 1250 1254
o Pebble
v -0.533 0 0.821
v -0.596 0 0.739
v -0.518 0 0.667
v -0.408 0 0.704
v -0.417 0 0.799
v -0.514 0.091 0.783
v -0.545 0.091 0.743
v -0.506 0.091 0.706
v -0.451 0.091 0.725
v -0.456 0.091 0.772
usemtl Rock
s off
f 1259 1258 1257 1256 1255
f 1260 1261 1262 1263 1264
f 1255 1256 1261 1260
f 1256 1257 1262 1261
f 1257 1258 1263 1262
f 1258 1259 1264 1263
f 1259 1255 1260 1264
o Pebble
v 0.91 0 0.836
v 0.863 0 0.792
v 0.901 0 0.743
v 0.971 0 0.756
v 0.977 0 0.814
v 0.917 0.056 0.812
v 0.893 0.056 0.79
v 0.913 0.056 0.765
v 0.948 0.056 0.772
v 0.951 0.056 0.801
usemtl RockDark
s off
f 1269 1268 1267 1266 1265
f 1270 1271 1272 1273 1274
f 1265 1266 1271 1270
f 1266 1267 1272 1271
f 1267 1268 1273 1272
f 1268 1269 1274 1273
f 1269 1265 1270 1274
o Pebble
v 0.969 0 0.162
v 0.941 0 0.105
v 1 0 0.065
v 1.066 0 0.098
v 1.047 0 0.158
v 0.987 0.059 0.14
v 0.973 0.059 0.111
v 1.002 0.059 0.091
v 1.035 0.059 0.108
v 1.026 0.059 0.138
usemtl Stone
s off
f 1279 1278 1277 1276 1275
f 1280 1281 1282 1283 1284
f 1275 1276 1281 1280
f 1276 1277 1282 1281
f 1277 1278 1283 1282
f 1278 1279 1284 1283
f 1279 1275 1280 1284
o Pebble
v 0.491 0 0.846
v 0.362 0 0.901
v 0.256 0 0.82
v 0.32 0 0.715
v 0.465 0 0.731
v 0.435 0.112 0.824
v 0.37 0.112 0.852
v 0.317 0.112 0.811
v 0.349 0.112 0.759
v 0.422 0.112 0.766
usemtl Rock
s off
f 1289 1288 1287 1286 1285
f 1290 1291 1292 1293 1294
f 1285 1286 1291 1290
f 1286 1287 1292 1291
f 1287 1288 1293 1292
f 1288 1289 1294 1293
f 1289 1285 1290 1294
o Pebble
v 0.561 0 -1.174
v 0.455 0 -1.208
v 0.463 0 -1.299
v 0.573 0 -1.321
v 0.634 0 -1.244
v 0.549 0.087 -1.212
v 0.496 0.087 -1.228
v 0.5 0.087 -1.274
v 0.555 0.087 -1.285
v 0.586 0.087 -1.247
usemtl RockDark
s off
f 1299 1298 1297 1296 1295
f 1300 1301 1302 1303 1304
f 1295 1296 1301 1300
f 1296 1297 1302 1301
f 1297 1298 1303 1302
f 1298 1299 1304 1303
f 1299 1295 1300 1304
o Pebble
v -0.166 0 1.074
v -0.254 0 1.085
v -0.295 0 1.022
v -0.232 0 0.971
v -0.152 0 1.003
v -0.193 0.068 1.052
v -0.237 0.068 1.058
v -0.257 0.068 1.026
v -0.226 0.068 1.001
v -0.186 0.068 1.017
usemtl Stone
s off
f 1309 1308 1307 1306 1305
f 1310 1311 1312 1313 1314
f 1305 1306 1311 1310
f 1306 1307 1312 1311
f 1307 1308 1313 1312
f 1308 1309 1314 1313
f 1309 1305 1310 1314
o Pebble
v -0.835 0 -0.774
v -0.95 0 -0.735
v -1.031 0 -0.81
v -0.967 0 -0.895
v -0.846 0 -0.873
v -0.881 0.095 -0.796
v -0.938 0.095 -0.776
v -0.979 0.095 -0.814
v -0.947 0.095 -0.856
v -0.886 0.095 -0.845
usemtl Rock
s off
f 1319 1318 1317 1316 1315
f 1320 1321 1322 1323 1324
f 1315 1316 1321 1320
f 1316 1317 1322 1321
f 1317 1318 1323 1322
f 1318 1319 1324 1323
f 1319 1315 1320 1324
