# gold.obj - Goldvorkommen fuer procedurally-generated-map
# Einheiten: Meter, Y oben, Vorderseite nach +Z - so wie Blender ein Modell
# exportiert, das in der Vorderansicht zum Betrachter schaut.
mtllib gold.mtl
o Rocks
v 0.15447 0.00000 0.22483
v 0.21233 0.00000 -0.15064
v 0.01489 0.00000 -0.49515
v -0.42479 0.00000 -0.41851
v -0.49566 0.00000 -0.00015
v -0.23438 0.00000 0.27204
v 0.11119 0.63250 -0.02438
v 0.07377 0.48876 -0.20044
v -0.09742 0.62702 -0.25607
v -0.23119 0.52987 -0.13562
v -0.19377 0.61095 0.04044
v -0.02258 0.56683 0.09607
s off
usemtl Rock
f 1 2 8 7
f 2 3 9 8
f 3 4 10 9
f 4 5 11 10
f 5 6 12 11
f 6 1 7 12
f 7 8 9 10 11 12
f 6 5 4 3 2 1
v 0.54970 0.00000 0.08250
v 0.26870 0.00000 -0.04780
v 0.10454 0.00000 0.16271
v 0.17519 0.00000 0.42703
v 0.48784 0.00000 0.40003
v 0.38803 0.34500 0.10536
v 0.26207 0.26660 0.12127
v 0.23828 0.34201 0.24598
v 0.34954 0.28902 0.30715
v 0.44209 0.33325 0.22024
s off
usemtl Rock
f 13 14 19 18
f 14 15 20 19
f 15 16 21 20
f 16 17 22 21
f 17 13 18 22
f 18 19 20 21 22
f 17 16 15 14 13
o Gold
v 0.02053 0.37200 0.31708
v 0.06413 0.37200 0.18292
v -0.05000 0.37200 0.10000
v -0.16413 0.37200 0.18292
v -0.12053 0.37200 0.31708
v -0.05000 0.52800 0.22000
s off
usemtl Gold
f 23 24 28
f 24 25 28
f 25 26 28
f 26 27 28
f 27 23 28
f 27 26 25 24 23
v -0.27122 0.21000 0.20090
v -0.23489 0.21000 0.08910
v -0.33000 0.21000 0.02000
v -0.42511 0.21000 0.08910
v -0.38878 0.21000 0.20090
v -0.33000 0.34000 0.12000
s off
usemtl Gold
f 29 30 34
f 30 31 34
f 31 32 34
f 32 33 34
f 33 29 34
f 33 32 31 30 29
v 0.17878 0.26000 -0.16910
v 0.21511 0.26000 -0.28090
v 0.12000 0.26000 -0.35000
v 0.02489 0.26000 -0.28090
v 0.06122 0.26000 -0.16910
v 0.12000 0.39000 -0.25000
s off
usemtl Gold
f 35 36 40
f 36 37 40
f 37 38 40
f 38 39 40
f 39 35 40
f 39 38 37 36 35
v 0.47290 0.00400 -0.04719
v 0.50560 0.00400 -0.14781
v 0.42000 0.00400 -0.21000
v 0.33440 0.00400 -0.14781
v 0.36710 0.00400 -0.04719
v 0.42000 0.12100 -0.12000
s off
usemtl Gold
f 41 42 46
f 42 43 46
f 43 44 46
f 44 45 46
f 45 41 46
f 45 44 43 42 41
v 0.10878 0.00000 0.53090
v 0.14511 0.00000 0.41910
v 0.05000 0.00000 0.35000
v -0.04511 0.00000 0.41910
v -0.00878 0.00000 0.53090
v 0.05000 0.13000 0.45000
s off
usemtl Gold
f 47 48 52
f 48 49 52
f 49 50 52
f 50 51 52
f 51 47 52
f 51 50 49 48 47
v -0.37298 0.00800 0.38472
v -0.34392 0.00800 0.29528
v -0.42000 0.00800 0.24000
v -0.49608 0.00800 0.29528
v -0.46702 0.00800 0.38472
v -0.42000 0.11200 0.32000
s off
usemtl Gold
f 53 54 58
f 54 55 58
f 55 56 58
f 56 57 58
f 57 53 58
f 57 56 55 54 53
v 0.34702 0.26800 0.32472
v 0.37608 0.26800 0.23528
v 0.30000 0.26800 0.18000
v 0.22392 0.26800 0.23528
v 0.25298 0.26800 0.32472
v 0.30000 0.37200 0.26000
s off
usemtl Gold
f 59 60 64
f 60 61 64
f 61 62 64
f 62 63 64
f 63 59 64
f 63 62 61 60 59
