# gold_1.obj - Goldvorkommen fuer procedurally-generated-map
# Einheiten: Meter, Y oben, Vorderseite nach +Z - so wie Blender ein Modell
# exportiert, das in der Vorderansicht zum Betrachter schaut.
mtllib gold_1.mtl
o Boulder
v -0.331 0 0.849
v -0.967 0 0.303
v -0.845 0 -0.435
v -0.126 0 -0.826
v 0.66 0 -0.58
v 0.935 0 0.076
v 0.55 0 0.718
v -0.387 0.536 0.975
v -1.135 0.536 0.332
v -0.991 0.536 -0.536
v -0.145 0.536 -0.996
v 0.78 0.536 -0.707
v 1.103 0.536 0.066
v 0.65 0.536 0.82
usemtl Rock
s off
f 7 6 5 4 3 2 1
f 8 9 10 11 12 13 14
f 1 2 9 8
f 2 3 10 9
f 3 4 11 10
f 4 5 12 11
f 5 6 13 12
f 6 7 14 13
f 7 1 8 14
o Boulder
v -0.387 0.536 0.975
v -1.135 0.536 0.332
v -0.991 0.536 -0.536
v -0.145 0.536 -0.996
v 0.78 0.536 -0.707
v 1.103 0.536 0.066
v 0.65 0.536 0.82
v -0.176 1.5 0.419
v -0.526 1.5 0.118
v -0.459 1.5 -0.288
v -0.063 1.5 -0.503
v 0.37 1.5 -0.368
v 0.521 1.5 -0.007
v 0.309 1.5 0.347
usemtl Rock
s off
f 21 20 19 18 17 16 15
f 22 23 24 25 26 27 28
f 15 16 23 22
f 16 17 24 23
f 17 18 25 24
f 18 19 26 25
f 19 20 27 26
f 20 21 28 27
f 21 15 22 28
o Boulder
v -1.4 0 0.697
v -1.341 0 0.313
v -0.982 0 0.172
v -0.664 0 0.256
v -0.422 0 0.506
v -0.564 0 0.868
v -1.027 0 0.946
v -1.498 0.3 0.75
v -1.428 0.3 0.298
v -1.007 0.3 0.131
v -0.632 0.3 0.23
v -0.347 0.3 0.525
v -0.515 0.3 0.951
v -1.06 0.3 1.042
usemtl RockDark
s off
f 35 34 33 32 31 30 29
f 36 37 38 39 40 41 42
f 29 30 37 36
f 30 31 38 37
f 31 32 39 38
f 32 33 40 39
f 33 34 41 40
f 34 35 42 41
f 35 29 36 42
o Boulder
v -1.498 0.3 0.75
v -1.428 0.3 0.298
v -1.007 0.3 0.131
v -0.632 0.3 0.23
v -0.347 0.3 0.525
v -0.515 0.3 0.951
v -1.06 0.3 1.042
v -1.247 0.75 0.665
v -1.208 0.75 0.413
v -0.973 0.75 0.321
v -0.765 0.75 0.376
v -0.606 0.75 0.539
v -0.699 0.75 0.777
v -1.003 0.75 0.827
usemtl RockDark
s off
f 49 48 47 46 45 44 43
f 50 51 52 53 54 55 56
f 43 44 51 50
f 44 45 52 51
f 45 46 53 52
f 46 47 54 53
f 47 48 55 54
f 48 49 56 55
f 49 43 50 56
o Boulder
v 0.888 0 0.796
v 0.519 0 0.721
v 0.397 0 0.399
v 0.625 0 0.133
v 0.992 0 0.125
v 1.168 0 0.361
v 1.139 0 0.611
v 0.914 0.229 0.872
v 0.48 0.229 0.783
v 0.336 0.229 0.405
v 0.604 0.229 0.091
v 1.036 0.229 0.082
v 1.244 0.229 0.359
v 1.209 0.229 0.653
usemtl Rock
s off
f 63 62 61 60 59 58 57
f 64 65 66 67 68 69 70
f 57 58 65 64
f 58 59 66 65
f 59 60 67 66
f 60 61 68 67
f 61 62 69 68
f 62 63 70 69
f 63 57 64 70
o Boulder
v 0.914 0.229 0.872
v 0.48 0.229 0.783
v 0.336 0.229 0.405
v 0.604 0.229 0.091
v 1.036 0.229 0.082
v 1.244 0.229 0.359
v 1.209 0.229 0.653
v 0.914 0.65 0.71
v 0.667 0.65 0.66
v 0.585 0.65 0.445
v 0.738 0.65 0.266
v 0.983 0.65 0.261
v 1.101 0.65 0.419
v 1.081 0.65 0.586
usemtl Rock
s off
f 77 76 75 74 73 72 71
f 78 79 80 81 82 83 84
f 71 72 79 78
f 72 73 80 79
f 73 74 81 80
f 74 75 82 81
f 75 76 83 82
f 76 77 84 83
f 77 71 78 84
o Vein
v 0.543 1.5 0.051
v 0.617 1.5 -0.056
v 0.539 1.41 -0.109
v 0.466 1.41 -0.002
v 0.829 1.133 0.234
v 0.891 1.133 0.144
v 0.826 1.057 0.099
v 0.764 1.057 0.19
usemtl Gold
s off
f 88 87 86 85
f 89 90 91 92
f 85 86 90 89
f 86 87 91 90
f 87 88 92 91
f 88 85 89 92
o Vein
v 0.882 1.121 0.216
v 0.882 1.079 0.114
v 0.773 1.069 0.118
v 0.773 1.111 0.22
v 0.897 0.749 0.339
v 0.897 0.727 0.284
v 0.837 0.721 0.286
v 0.837 0.743 0.341
usemtl GoldLight
s off
f 96 95 94 93
f 97 98 99 100
f 93 94 98 97
f 94 95 99 98
f 95 96 100 99
f 96 93 97 100
o Nugget
v 0.53 1.318 0.158
v 0.436 1.318 0.025
v 0.505 1.318 -0.123
v 0.667 1.318 -0.138
v 0.761 1.318 -0.005
v 0.693 1.318 0.143
v 0.565 1.53 0.084
v 0.517 1.53 0.018
v 0.552 1.53 -0.056
v 0.633 1.53 -0.064
v 0.68 1.53 0.003
v 0.646 1.53 0.077
usemtl Gold
s off
f 106 105 104 103 102 101
f 107 108 109 110 111 112
f 101 102 108 107
f 102 103 109 108
f 103 104 110 109
f 104 105 111 110
f 105 106 112 111
f 106 101 107 112
o Nugget.Shine
v 0.55 1.481 0.043
v 0.55 1.481 0.1
v 0.631 1.481 0.1
v 0.631 1.481 0.043
v 0.55 1.538 0.043
v 0.55 1.538 0.1
v 0.631 1.538 0.1
v 0.631 1.538 0.043
usemtl Shine
s off
f 116 115 114 113
f 117 118 119 120
f 113 114 118 117
f 114 115 119 118
f 115 116 120 119
f 116 113 117 120
o Nugget
v 0.801 1.139 0.229
v 0.679 1.139 0.214
v 0.631 1.139 0.101
v 0.705 1.139 0.002
v 0.827 1.139 0.017
v 0.875 1.139 0.131
v 0.777 1.299 0.172
v 0.716 1.299 0.165
v 0.692 1.299 0.108
v 0.729 1.299 0.059
v 0.79 1.299 0.067
v 0.814 1.299 0.123
usemtl GoldLight
s off
f 126 125 124 123 122 121
f 127 128 129 130 131 132
f 121 122 128 127
f 122 123 129 128
f 123 124 130 129
f 124 125 131 130
f 125 126 132 131
f 126 121 127 132
o Nugget.Shine
v 0.716 1.262 0.14
v 0.716 1.262 0.184
v 0.778 1.262 0.184
v 0.778 1.262 0.14
v 0.716 1.306 0.14
v 0.716 1.306 0.184
v 0.778 1.306 0.184
v 0.778 1.306 0.14
usemtl Shine
s off
f 136 135 134 133
f 137 138 139 140
f 133 134 138 137
f 134 135 139 138
f 135 136 140 139
f 136 133 137 140
o Nugget
v 0.875 0.949 0.314
v 0.764 0.949 0.292
v 0.728 0.949 0.185
v 0.802 0.949 0.101
v 0.913 0.949 0.123
v 0.949 0.949 0.23
v 0.857 1.096 0.261
v 0.801 1.096 0.25
v 0.783 1.096 0.196
v 0.82 1.096 0.154
v 0.876 1.096 0.165
v 0.894 1.096 0.219
usemtl Gold
s off
f 146 145 144 143 142 141
f 147 148 149 150 151 152
f 141 142 148 147
f 142 143 149 148
f 143 144 150 149
f 144 145 151 150
f 145 146 152 151
f 146 141 147 152
o Nugget.Shine
v 0.805 1.062 0.23
v 0.805 1.062 0.27
v 0.861 1.062 0.27
v 0.861 1.062 0.23
v 0.805 1.101 0.23
v 0.805 1.101 0.27
v 0.861 1.101 0.27
v 0.861 1.101 0.23
usemtl Shine
s off
f 156 155 154 153
f 157 158 159 160
f 153 154 158 157
f 154 155 159 158
f 155 156 160 159
f 156 153 157 160
o Nugget
v 1.009 0.735 0.35
v 0.879 0.735 0.448
v 0.729 0.735 0.384
v 0.71 0.735 0.222
v 0.84 0.735 0.125
v 0.99 0.735 0.189
v 0.935 0.946 0.318
v 0.869 0.946 0.367
v 0.795 0.946 0.335
v 0.785 0.946 0.254
v 0.85 0.946 0.205
v 0.925 0.946 0.237
usemtl GoldLight
s off
f 166 165 164 163 162 161
f 167 168 169 170 171 172
f 161 162 168 167
f 162 163 169 168
f 163 164 170 169
f 164 165 171 170
f 165 166 172 171
f 166 161 167 172
o Nugget.Shine
v 0.811 0.897 0.319
v 0.811 0.897 0.376
v 0.892 0.897 0.376
v 0.892 0.897 0.319
v 0.811 0.954 0.319
v 0.811 0.954 0.376
v 0.892 0.954 0.376
v 0.892 0.954 0.319
usemtl Shine
s off
f 176 175 174 173
f 177 178 179 180
f 173 174 178 177
f 174 175 179 178
f 175 176 180 179
f 176 173 177 180
o Vein
v -0.216 1.513 -0.482
v -0.097 1.513 -0.43
v -0.073 1.397 -0.485
v -0.192 1.397 -0.537
v -0.48 1.144 0.149
v -0.379 1.144 0.193
v -0.359 1.046 0.146
v -0.46 1.046 0.102
usemtl Gold
s off
f 184 183 182 181
f 185 186 187 188
f 181 182 186 185
f 182 183 187 186
f 183 184 188 187
f 184 181 185 188
o Vein
v -0.477 1.141 0.174
v -0.367 1.141 0.181
v -0.363 1.049 0.121
v -0.472 1.049 0.113
v -0.488 0.76 0.709
v -0.428 0.76 0.713
v -0.426 0.71 0.68
v -0.486 0.71 0.676
usemtl GoldLight
s off
f 192 191 190 189
f 193 194 195 196
f 189 190 194 193
f 190 191 195 194
f 191 192 196 195
f 192 189 193 196
o Nugget
v -0.211 1.33 -0.225
v -0.32 1.33 -0.301
v -0.308 1.33 -0.433
v -0.188 1.33 -0.49
v -0.079 1.33 -0.414
v -0.09 1.33 -0.281
v -0.205 1.503 -0.291
v -0.26 1.503 -0.329
v -0.254 1.503 -0.395
v -0.194 1.503 -0.423
v -0.139 1.503 -0.385
v -0.145 1.503 -0.319
usemtl Gold
s off
f 202 201 200 199 198 197
f 203 204 205 206 207 208
f 197 198 204 203
f 198 199 205 204
f 199 200 206 205
f 200 201 207 206
f 201 202 208 207
f 202 197 203 208
o Nugget.Shine
v -0.239 1.463 -0.331
v -0.239 1.463 -0.284
v -0.173 1.463 -0.284
v -0.173 1.463 -0.331
v -0.239 1.509 -0.331
v -0.239 1.509 -0.284
v -0.173 1.509 -0.284
v -0.173 1.509 -0.331
usemtl Shine
s off
f 212 211 210 209
f 213 214 215 216
f 209 210 214 213
f 210 211 215 214
f 211 212 216 215
f 212 209 213 216
o Nugget
v -0.507 1.124 0.007
v -0.448 1.124 -0.142
v -0.289 1.124 -0.166
v -0.189 1.124 -0.04
v -0.248 1.124 0.109
v -0.407 1.124 0.132
v -0.427 1.333 -0.005
v -0.398 1.333 -0.08
v -0.319 1.333 -0.091
v -0.269 1.333 -0.028
v -0.298 1.333 0.046
v -0.378 1.333 0.058
usemtl GoldLight
s off
f 222 221 220 219 218 217
f 223 224 225 226 227 228
f 217 218 224 223
f 218 219 225 224
f 219 220 226 225
f 220 221 227 226
f 221 222 228 227
f 222 217 223 228
o Nugget.Shine
v -0.396 1.285 0.015
v -0.396 1.285 0.071
v -0.316 1.285 0.071
v -0.316 1.285 0.015
v -0.396 1.341 0.015
v -0.396 1.341 0.071
v -0.316 1.341 0.071
v -0.316 1.341 0.015
usemtl Shine
s off
f 232 231 230 229
f 233 234 235 236
f 229 230 234 233
f 230 231 235 234
f 231 232 236 235
f 232 229 233 236
o Nugget
v -0.444 0.945 0.422
v -0.542 0.945 0.349
v -0.528 0.945 0.228
v -0.417 0.945 0.179
v -0.318 0.945 0.252
v -0.332 0.945 0.373
v -0.437 1.104 0.361
v -0.486 1.104 0.325
v -0.479 1.104 0.264
v -0.423 1.104 0.24
v -0.374 1.104 0.276
v -0.381 1.104 0.337
usemtl Gold
s off
f 242 241 240 239 238 237
f 243 244 245 246 247 248
f 237 238 244 243
f 238 239 245 244
f 239 240 246 245
f 240 241 247 246
f 241 242 248 247
f 242 237 243 248
o Nugget.Shine
v -0.467 1.067 0.325
v -0.467 1.067 0.367
v -0.406 1.067 0.367
v -0.406 1.067 0.325
v -0.467 1.11 0.325
v -0.467 1.11 0.367
v -0.406 1.11 0.367
v -0.406 1.11 0.325
usemtl Shine
s off
f 252 251 250 249
f 253 254 255 256
f 249 250 254 253
f 250 251 255 254
f 251 252 256 255
f 252 249 253 256
o Nugget
v -0.504 0.734 0.752
v -0.612 0.734 0.627
v -0.558 0.734 0.471
v -0.396 0.734 0.44
v -0.289 0.734 0.565
v -0.342 0.734 0.72
v -0.477 0.948 0.674
v -0.531 0.948 0.611
v -0.504 0.948 0.534
v -0.423 0.948 0.518
v -0.369 0.948 0.58
v -0.396 0.948 0.658
usemtl GoldLight
s off
f 262 261 260 259 258 257
f 263 264 265 266 267 268
f 257 258 264 263
f 258 259 265 264
f 259 260 266 265
f 260 261 267 266
f 261 262 268 267
f 262 257 263 268
o Nugget.Shine
v -0.5 0.899 0.629
v -0.5 0.899 0.687
v -0.417 0.899 0.687
v -0.417 0.899 0.629
v -0.5 0.956 0.629
v -0.5 0.956 0.687
v -0.417 0.956 0.687
v -0.417 0.956 0.629
usemtl Shine
s off
f 272 271 270 269
f 273 274 275 276
f 269 270 274 273
f 270 271 275 274
f 271 272 276 275
f 272 269 273 276
o Crack
v 0.54 1.42 -0.09
v 0.51 1.42 -0.093
v 0.508 1.4 -0.07
v 0.537 1.4 -0.068
v 0.582 0.785 -0.611
v 0.567 0.785 -0.612
v 0.566 0.775 -0.601
v 0.581 0.775 -0.6
usemtl Soot
s off
f 280 279 278 277
f 281 282 283 284
f 277 278 282 281
f 278 279 283 282
f 279 280 284 283
f 280 277 281 284
o Nugget
v -0.017 1.19 0.613
v -0.074 1.19 0.502
v -0.007 1.19 0.397
v 0.118 1.19 0.402
v 0.175 1.19 0.513
v 0.108 1.19 0.618
v 0.017 1.352 0.56
v -0.012 1.352 0.505
v 0.022 1.352 0.452
v 0.084 1.352 0.455
v 0.113 1.352 0.51
v 0.079 1.352 0.563
usemtl Gold
s off
f 290 289 288 287 286 285
f 291 292 293 294 295 296
f 285 286 292 291
f 286 287 293 292
f 287 288 294 293
f 288 289 295 294
f 289 290 296 295
f 290 285 291 296
o Nugget.Shine
v 0.013 1.315 0.533
v 0.013 1.315 0.576
v 0.075 1.315 0.576
v 0.075 1.315 0.533
v 0.013 1.359 0.533
v 0.013 1.359 0.576
v 0.075 1.359 0.576
v 0.075 1.359 0.533
usemtl Shine
s off
f 300 299 298 297
f 301 302 303 304
f 297 298 302 301
f 298 299 303 302
f 299 300 304 303
f 300 297 301 304
o Nugget
v 0.917 0.822 0.042
v 0.761 0.822 0.049
v 0.676 0.822 -0.083
v 0.749 0.822 -0.222
v 0.905 0.822 -0.229
v 0.989 0.822 -0.097
v 0.875 1.025 -0.024
v 0.797 1.025 -0.021
v 0.755 1.025 -0.087
v 0.791 1.025 -0.156
v 0.869 1.025 -0.16
v 0.911 1.025 -0.094
usemtl GoldDark
s off
f 310 309 308 307 306 305
f 311 312 313 314 315 316
f 305 306 312 311
f 306 307 313 312
f 307 308 314 313
f 308 309 315 314
f 309 310 316 315
f 310 305 311 316
o Nugget.Shine
v 0.786 0.978 -0.059
v 0.786 0.978 -0.004
v 0.864 0.978 -0.004
v 0.864 0.978 -0.059
v 0.786 1.033 -0.059
v 0.786 1.033 -0.004
v 0.864 1.033 -0.004
v 0.864 1.033 -0.059
usemtl Shine
s off
f 320 319 318 317
f 321 322 323 324
f 317 318 322 321
f 318 319 323 322
f 319 320 324 323
f 320 317 321 324
o Nugget
v -0.111 1.35 -0.372
v -0.249 1.35 -0.315
v -0.367 1.35 -0.405
v -0.347 1.35 -0.553
v -0.21 1.35 -0.61
v -0.092 1.35 -0.519
v -0.17 1.544 -0.417
v -0.239 1.544 -0.389
v -0.298 1.544 -0.434
v -0.288 1.544 -0.508
v -0.22 1.544 -0.536
v -0.161 1.544 -0.491
usemtl Gold
s off
f 330 329 328 327 326 325
f 331 332 333 334 335 336
f 325 326 332 331
f 326 327 333 332
f 327 328 334 333
f 328 329 335 334
f 329 330 336 335
f 330 325 331 336
o Nugget.Shine
v -0.274 1.499 -0.433
v -0.274 1.499 -0.381
v -0.2 1.499 -0.381
v -0.2 1.499 -0.433
v -0.274 1.551 -0.433
v -0.274 1.551 -0.381
v -0.2 1.551 -0.381
v -0.2 1.551 -0.433
usemtl Shine
s off
f 340 339 338 337
f 341 342 343 344
f 337 338 342 341
f 338 339 343 342
f 339 340 344 343
f 340 337 341 344
o Nugget
v 0.28 0.851 -0.527
v 0.26 0.851 -0.683
v 0.384 0.851 -0.779
v 0.53 0.851 -0.719
v 0.551 0.851 -0.563
v 0.426 0.851 -0.467
v 0.343 1.055 -0.575
v 0.332 1.055 -0.653
v 0.395 1.055 -0.701
v 0.468 1.055 -0.671
v 0.478 1.055 -0.593
v 0.416 1.055 -0.545
usemtl GoldDark
s off
f 350 349 348 347 346 345
f 351 352 353 354 355 356
f 345 346 352 351
f 346 347 353 352
f 347 348 354 353
f 348 349 355 354
f 349 350 356 355
f 350 345 351 356
o Nugget.Shine
v 0.358 1.008 -0.592
v 0.358 1.008 -0.537
v 0.437 1.008 -0.537
v 0.437 1.008 -0.592
v 0.358 1.063 -0.592
v 0.358 1.063 -0.537
v 0.437 1.063 -0.537
v 0.437 1.063 -0.592
usemtl Shine
s off
f 360 359 358 357
f 361 362 363 364
f 357 358 362 361
f 358 359 363 362
f 359 360 364 363
f 360 357 361 364
o Nugget
v 0.473 1.241 -0.258
v 0.386 1.241 -0.321
v 0.397 1.241 -0.428
v 0.495 1.241 -0.472
v 0.582 1.241 -0.409
v 0.572 1.241 -0.302
v 0.479 1.381 -0.311
v 0.435 1.381 -0.343
v 0.441 1.381 -0.396
v 0.49 1.381 -0.418
v 0.533 1.381 -0.387
v 0.528 1.381 -0.333
usemtl Gold
s off
f 370 369 368 367 366 365
f 371 372 373 374 375 376
f 365 366 372 371
f 366 367 373 372
f 367 368 374 373
f 368 369 375 374
f 369 370 376 375
f 370 365 371 376
o Nugget.Shine
v 0.452 1.348 -0.343
v 0.452 1.348 -0.306
v 0.506 1.348 -0.306
v 0.506 1.348 -0.343
v 0.452 1.386 -0.343
v 0.452 1.386 -0.306
v 0.506 1.386 -0.306
v 0.506 1.386 -0.343
usemtl Shine
s off
f 380 379 378 377
f 381 382 383 384
f 377 378 382 381
f 378 379 383 382
f 379 380 384 383
f 380 377 381 384
o Vein
v -0.837 0.787 0.713
v -0.947 0.787 0.781
v -0.918 0.668 0.827
v -0.808 0.668 0.759
v -1.049 0.597 0.389
v -1.142 0.597 0.447
v -1.118 0.498 0.487
v -1.024 0.498 0.429
usemtl Gold
s off
f 388 387 386 385
f 389 390 391 392
f 385 386 390 389
f 386 387 391 390
f 387 388 392 391
f 388 385 389 392
o Vein
v -1.038 0.595 0.396
v -1.144 0.595 0.426
v -1.129 0.5 0.48
v -1.023 0.5 0.45
v -1.139 0.393 0.125
v -1.197 0.393 0.142
v -1.189 0.342 0.171
v -1.131 0.342 0.155
usemtl GoldLight
s off
f 396 395 394 393
f 397 398 399 400
f 393 394 398 397
f 394 395 399 398
f 395 396 400 399
f 396 393 397 400
o Nugget
v -0.893 0.643 0.821
v -1.008 0.643 0.784
v -1.033 0.643 0.666
v -0.944 0.643 0.586
v -0.829 0.643 0.623
v -0.804 0.643 0.741
v -0.906 0.8 0.763
v -0.963 0.8 0.744
v -0.976 0.8 0.685
v -0.931 0.8 0.645
v -0.874 0.8 0.663
v -0.861 0.8 0.722
usemtl Gold
s off
f 406 405 404 403 402 401
f 407 408 409 410 411 412
f 401 402 408 407
f 402 403 409 408
f 403 404 410 409
f 404 405 411 410
f 405 406 412 411
f 406 401 407 412
o Nugget.Shine
v -0.955 0.764 0.728
v -0.955 0.764 0.77
v -0.895 0.764 0.77
v -0.895 0.764 0.728
v -0.955 0.806 0.728
v -0.955 0.806 0.77
v -0.895 0.806 0.77
v -0.895 0.806 0.728
usemtl Shine
s off
f 416 415 414 413
f 417 418 419 420
f 413 414 418 417
f 414 415 419 418
f 415 416 420 419
f 416 413 417 420
o Nugget
v -1.136 0.532 0.638
v -1.181 0.532 0.489
v -1.075 0.532 0.375
v -0.923 0.532 0.411
v -0.878 0.532 0.56
v -0.985 0.532 0.673
v -1.083 0.734 0.581
v -1.105 0.734 0.506
v -1.052 0.734 0.45
v -0.976 0.734 0.468
v -0.954 0.734 0.542
v -1.007 0.734 0.599
usemtl GoldLight
s off
f 426 425 424 423 422 421
f 427 428 429 430 431 432
f 421 422 428 427
f 422 423 429 428
f 423 424 430 429
f 424 425 431 430
f 425 426 432 431
f 426 421 427 432
o Nugget.Shine
v -1.076 0.688 0.555
v -1.076 0.688 0.61
v -0.999 0.688 0.61
v -0.999 0.688 0.555
v -1.076 0.742 0.555
v -1.076 0.742 0.61
v -0.999 0.742 0.61
v -0.999 0.742 0.555
usemtl Shine
s off
f 436 435 434 433
f 437 438 439 440
f 433 434 438 437
f 434 435 439 438
f 435 436 440 439
f 436 433 437 440
o Nugget
v -1.204 0.449 0.428
v -1.216 0.449 0.308
v -1.118 0.449 0.237
v -1.008 0.449 0.286
v -0.996 0.449 0.406
v -1.093 0.449 0.477
v -1.155 0.606 0.392
v -1.161 0.606 0.332
v -1.112 0.606 0.297
v -1.057 0.606 0.321
v -1.051 0.606 0.381
v -1.1 0.606 0.417
usemtl Gold
s off
f 446 445 444 443 442 441
f 447 448 449 450 451 452
f 441 442 448 447
f 442 443 449 448
f 443 444 450 449
f 444 445 451 450
f 445 446 452 451
f 446 441 447 452
o Nugget.Shine
v -1.142 0.569 0.381
v -1.142 0.569 0.423
v -1.082 0.569 0.423
v -1.082 0.569 0.381
v -1.142 0.612 0.381
v -1.142 0.612 0.423
v -1.082 0.612 0.423
v -1.082 0.612 0.381
usemtl Shine
s off
f 456 455 454 453
f 457 458 459 460
f 453 454 458 457
f 454 455 459 458
f 455 456 460 459
f 456 453 457 460
o Nugget
v -1.171 0.344 0.338
v -1.28 0.344 0.25
v -1.258 0.344 0.113
v -1.128 0.344 0.063
v -1.019 0.344 0.151
v -1.041 0.344 0.288
v -1.16 0.525 0.269
v -1.214 0.525 0.225
v -1.204 0.525 0.157
v -1.138 0.525 0.132
v -1.084 0.525 0.175
v -1.095 0.525 0.244
usemtl GoldLight
s off
f 466 465 464 463 462 461
f 467 468 469 470 471 472
f 461 462 468 467
f 462 463 469 468
f 463 464 470 469
f 464 465 471 470
f 465 466 472 471
f 466 461 467 472
o Nugget.Shine
v -1.191 0.484 0.228
v -1.191 0.484 0.277
v -1.121 0.484 0.277
v -1.121 0.484 0.228
v -1.191 0.532 0.228
v -1.191 0.532 0.277
v -1.121 0.532 0.277
v -1.121 0.532 0.228
usemtl Shine
s off
f 476 475 474 473
f 477 478 479 480
f 473 474 478 477
f 474 475 479 478
f 475 476 480 479
f 476 473 477 480
o Crack
v -0.974 0.718 0.323
v -0.972 0.718 0.293
v -0.987 0.692 0.291
v -0.989 0.692 0.321
v -0.44 0.396 0.357
v -0.439 0.396 0.342
v -0.447 0.384 0.342
v -0.448 0.384 0.357
usemtl Soot
s off
f 484 483 482 481
f 485 486 487 488
f 481 482 486 485
f 482 483 487 486
f 483 484 488 487
f 484 481 485 488
o Nugget
v -1.304 0.568 0.44
v -1.303 0.568 0.34
v -1.216 0.568 0.29
v -1.129 0.568 0.341
v -1.13 0.568 0.441
v -1.217 0.568 0.491
v -1.26 0.698 0.415
v -1.26 0.698 0.365
v -1.216 0.698 0.34
v -1.173 0.698 0.366
v -1.173 0.698 0.416
v -1.217 0.698 0.441
usemtl Gold
s off
f 494 493 492 491 490 489
f 495 496 497 498 499 500
f 489 490 496 495
f 490 491 497 496
f 491 492 498 497
f 492 493 499 498
f 493 494 500 499
f 494 489 495 500
o Nugget.Shine
v -1.247 0.668 0.411
v -1.247 0.668 0.446
v -1.196 0.668 0.446
v -1.196 0.668 0.411
v -1.247 0.703 0.411
v -1.247 0.703 0.446
v -1.196 0.703 0.446
v -1.196 0.703 0.411
usemtl Shine
s off
f 504 503 502 501
f 505 506 507 508
f 501 502 506 505
f 502 503 507 506
f 503 504 508 507
f 504 501 505 508
o Nugget
v -0.831 0.691 0.833
v -0.958 0.691 0.898
v -1.078 0.691 0.821
v -1.071 0.691 0.678
v -0.944 0.691 0.613
v -0.824 0.691 0.69
v -0.891 0.877 0.794
v -0.955 0.877 0.827
v -1.015 0.877 0.788
v -1.011 0.877 0.717
v -0.948 0.877 0.684
v -0.888 0.877 0.723
usemtl GoldDark
s off
f 514 513 512 511 510 509
f 515 516 517 518 519 520
f 509 510 516 515
f 510 511 517 516
f 511 512 518 517
f 512 513 519 518
f 513 514 520 519
f 514 509 515 520
o Nugget.Shine
v -0.994 0.834 0.784
v -0.994 0.834 0.834
v -0.923 0.834 0.834
v -0.923 0.834 0.784
v -0.994 0.884 0.784
v -0.994 0.884 0.834
v -0.923 0.884 0.834
v -0.923 0.884 0.784
usemtl Shine
s off
f 524 523 522 521
f 525 526 527 528
f 521 522 526 525
f 522 523 527 526
f 523 524 528 527
f 524 521 525 528
o Nugget
v -0.802 0.619 0.386
v -0.885 0.619 0.328
v -0.877 0.619 0.227
v -0.785 0.619 0.183
v -0.702 0.619 0.241
v -0.71 0.619 0.342
v -0.798 0.751 0.335
v -0.839 0.751 0.306
v -0.835 0.751 0.256
v -0.789 0.751 0.234
v -0.748 0.751 0.263
v -0.752 0.751 0.313
usemtl Gold
s off
f 534 533 532 531 530 529
f 535 536 537 538 539 540
f 529 530 536 535
f 530 531 537 536
f 531 532 538 537
f 532 533 539 538
f 533 534 540 539
f 534 529 535 540
o Nugget.Shine
v -0.824 0.721 0.305
v -0.824 0.721 0.34
v -0.773 0.721 0.34
v -0.773 0.721 0.305
v -0.824 0.756 0.305
v -0.824 0.756 0.34
v -0.773 0.756 0.34
v -0.773 0.756 0.305
usemtl Shine
s off
f 544 543 542 541
f 545 546 547 548
f 541 542 546 545
f 542 543 547 546
f 543 544 548 547
f 544 541 545 548
o Nugget
v -0.893 0.616 0.769
v -0.963 0.616 0.89
v -1.103 0.616 0.89
v -1.172 0.616 0.769
v -1.102 0.616 0.648
v -0.962 0.616 0.648
v -0.963 0.798 0.769
v -0.998 0.798 0.83
v -1.067 0.798 0.829
v -1.102 0.798 0.769
v -1.067 0.798 0.708
v -0.997 0.798 0.709
usemtl GoldDark
s off
f 554 553 552 551 550 549
f 555 556 557 558 559 560
f 549 550 556 555
f 550 551 557 556
f 551 552 558 557
f 552 553 559 558
f 553 554 560 559
f 554 549 555 560
o Nugget.Shine
v -1.074 0.756 0.797
v -1.074 0.756 0.846
v -1.004 0.756 0.846
v -1.004 0.756 0.797
v -1.074 0.805 0.797
v -1.074 0.805 0.846
v -1.004 0.805 0.846
v -1.004 0.805 0.797
usemtl Shine
s off
f 564 563 562 561
f 565 566 567 568
f 561 562 566 565
f 562 563 567 566
f 563 564 568 567
f 564 561 565 568
o Nugget
v -0.763 0.403 0.194
v -0.849 0.403 0.242
v -0.934 0.403 0.191
v -0.933 0.403 0.092
v -0.846 0.403 0.044
v -0.761 0.403 0.095
v -0.805 0.532 0.168
v -0.848 0.532 0.192
v -0.891 0.532 0.167
v -0.89 0.532 0.118
v -0.847 0.532 0.093
v -0.804 0.532 0.119
usemtl Gold
s off
f 574 573 572 571 570 569
f 575 576 577 578 579 580
f 569 570 576 575
f 570 571 577 576
f 571 572 578 577
f 572 573 579 578
f 573 574 580 579
f 574 569 575 580
o Nugget.Shine
v -0.877 0.502 0.163
v -0.877 0.502 0.197
v -0.828 0.502 0.197
v -0.828 0.502 0.163
v -0.877 0.537 0.163
v -0.877 0.537 0.197
v -0.828 0.537 0.197
v -0.828 0.537 0.163
usemtl Shine
s off
f 584 583 582 581
f 585 586 587 588
f 581 582 586 585
f 582 583 587 586
f 583 584 588 587
f 584 581 585 588
o Vein
v 0.575 0.678 0.425
v 0.601 0.678 0.552
v 0.687 0.583 0.535
v 0.661 0.583 0.407
v 0.416 0.515 0.468
v 0.438 0.515 0.576
v 0.511 0.434 0.561
v 0.489 0.434 0.453
usemtl Gold
s off
f 592 591 590 589
f 593 594 595 596
f 589 590 594 593
f 590 591 595 594
f 591 592 596 595
f 592 589 593 596
o Vein
v 0.516 0.463 0.57
v 0.516 0.453 0.461
v 0.411 0.486 0.458
v 0.411 0.496 0.567
v 0.443 0.312 0.56
v 0.443 0.307 0.5
v 0.386 0.325 0.498
v 0.386 0.33 0.558
usemtl GoldLight
s off
f 600 599 598 597
f 601 602 603 604
f 597 598 602 601
f 598 599 603 602
f 599 600 604 603
f 600 597 601 604
o Nugget
v 0.532 0.534 0.637
v 0.435 0.534 0.505
v 0.501 0.534 0.354
v 0.664 0.534 0.337
v 0.761 0.534 0.469
v 0.695 0.534 0.619
v 0.565 0.747 0.562
v 0.516 0.747 0.496
v 0.549 0.747 0.421
v 0.631 0.747 0.412
v 0.679 0.747 0.478
v 0.646 0.747 0.553
usemtl Gold
s off
f 610 609 608 607 606 605
f 611 612 613 614 615 616
f 605 606 612 611
f 606 607 613 612
f 607 608 614 613
f 608 609 615 614
f 609 610 616 615
f 610 605 611 616
o Nugget.Shine
v 0.548 0.698 0.52
v 0.548 0.698 0.577
v 0.63 0.698 0.577
v 0.63 0.698 0.52
v 0.548 0.755 0.52
v 0.548 0.755 0.577
v 0.63 0.755 0.577
v 0.63 0.755 0.52
usemtl Shine
s off
f 620 619 618 617
f 621 622 623 624
f 617 618 622 621
f 618 619 623 622
f 619 620 624 623
f 620 617 621 624
o Nugget
v 0.372 0.459 0.547
v 0.404 0.459 0.409
v 0.539 0.459 0.367
v 0.642 0.459 0.463
v 0.611 0.459 0.601
v 0.476 0.459 0.643
v 0.44 0.642 0.526
v 0.455 0.642 0.457
v 0.523 0.642 0.436
v 0.575 0.642 0.484
v 0.559 0.642 0.553
v 0.492 0.642 0.574
usemtl GoldLight
s off
f 630 629 628 627 626 625
f 631 632 633 634 635 636
f 625 626 632 631
f 626 627 633 632
f 627 628 634 633
f 628 629 635 634
f 629 630 636 635
f 630 625 631 636
o Nugget.Shine
v 0.465 0.6 0.534
v 0.465 0.6 0.583
v 0.536 0.6 0.583
v 0.536 0.6 0.534
v 0.465 0.649 0.534
v 0.465 0.649 0.583
v 0.536 0.649 0.583
v 0.536 0.649 0.534
usemtl Shine
s off
f 640 639 638 637
f 641 642 643 644
f 637 638 642 641
f 638 639 643 642
f 639 640 644 643
f 640 637 641 644
o Nugget
v 0.317 0.367 0.607
v 0.306 0.367 0.447
v 0.44 0.367 0.358
v 0.584 0.367 0.43
v 0.594 0.367 0.59
v 0.46 0.367 0.678
v 0.383 0.575 0.563
v 0.378 0.575 0.483
v 0.445 0.575 0.438
v 0.517 0.575 0.474
v 0.522 0.575 0.554
v 0.455 0.575 0.598
usemtl Gold
s off
f 650 649 648 647 646 645
f 651 652 653 654 655 656
f 645 646 652 651
f 646 647 653 652
f 647 648 654 653
f 648 649 655 654
f 649 650 656 655
f 650 645 651 656
o Nugget.Shine
v 0.402 0.527 0.55
v 0.402 0.527 0.606
v 0.482 0.527 0.606
v 0.482 0.527 0.55
v 0.402 0.583 0.55
v 0.402 0.583 0.606
v 0.482 0.583 0.606
v 0.482 0.583 0.55
usemtl Shine
s off
f 660 659 658 657
f 661 662 663 664
f 657 658 662 661
f 658 659 663 662
f 659 660 664 663
f 660 657 661 664
o Nugget
v 0.306 0.294 0.585
v 0.314 0.294 0.454
v 0.432 0.294 0.395
v 0.541 0.294 0.468
v 0.533 0.294 0.599
v 0.416 0.294 0.657
v 0.365 0.465 0.555
v 0.369 0.465 0.49
v 0.428 0.465 0.461
v 0.482 0.465 0.497
v 0.478 0.465 0.562
v 0.42 0.465 0.592
usemtl GoldLight
s off
f 670 669 668 667 666 665
f 671 672 673 674 675 676
f 665 666 672 671
f 666 667 673 672
f 667 668 674 673
f 668 669 675 674
f 669 670 676 675
f 670 665 671 676
o Nugget.Shine
v 0.384 0.425 0.552
v 0.384 0.425 0.598
v 0.45 0.425 0.598
v 0.45 0.425 0.552
v 0.384 0.471 0.552
v 0.384 0.471 0.598
v 0.45 0.471 0.598
v 0.45 0.471 0.552
usemtl Shine
s off
f 680 679 678 677
f 681 682 683 684
f 677 678 682 681
f 678 679 683 682
f 679 680 684 683
f 680 677 681 684
o Crack
v 1 0.624 0.308
v 1.022 0.624 0.288
v 1.011 0.598 0.276
v 0.989 0.598 0.296
v 1.279 0.344 0.606
v 1.29 0.344 0.596
v 1.285 0.332 0.59
v 1.274 0.332 0.6
usemtl Soot
s off
f 688 687 686 685
f 689 690 691 692
f 685 686 690 689
f 686 687 691 690
f 687 688 692 691
f 688 685 689 692
o Nugget
v 1.156 0.367 0.498
v 1.175 0.367 0.403
v 1.267 0.367 0.371
v 1.341 0.367 0.436
v 1.321 0.367 0.531
v 1.229 0.367 0.563
v 1.202 0.494 0.483
v 1.211 0.494 0.435
v 1.258 0.494 0.419
v 1.294 0.494 0.451
v 1.285 0.494 0.499
v 1.239 0.494 0.515
usemtl Gold
s off
f 698 697 696 695 694 693
f 699 700 701 702 703 704
f 693 694 700 699
f 694 695 701 700
f 695 696 702 701
f 696 697 703 702
f 697 698 704 703
f 698 693 699 704
o Nugget.Shine
v 1.219 0.465 0.487
v 1.219 0.465 0.521
v 1.268 0.465 0.521
v 1.268 0.465 0.487
v 1.219 0.499 0.487
v 1.219 0.499 0.521
v 1.268 0.499 0.521
v 1.268 0.499 0.487
usemtl Shine
s off
f 708 707 706 705
f 709 710 711 712
f 705 706 710 709
f 706 707 711 710
f 707 708 712 711
f 708 705 709 712
o Nugget
v 0.6 0.363 0.698
v 0.476 0.363 0.716
v 0.399 0.363 0.618
v 0.445 0.363 0.502
v 0.568 0.363 0.484
v 0.646 0.363 0.582
v 0.561 0.525 0.649
v 0.499 0.525 0.658
v 0.461 0.525 0.609
v 0.484 0.525 0.551
v 0.545 0.525 0.542
v 0.584 0.525 0.591
usemtl GoldDark
s off
f 718 717 716 715 714 713
f 719 720 721 722 723 724
f 713 714 720 719
f 714 715 721 720
f 715 716 722 721
f 716 717 723 722
f 717 718 724 723
f 718 713 719 724
o Nugget.Shine
v 0.485 0.488 0.625
v 0.485 0.488 0.669
v 0.547 0.488 0.669
v 0.547 0.488 0.625
v 0.485 0.532 0.625
v 0.485 0.532 0.669
v 0.547 0.532 0.669
v 0.547 0.532 0.625
usemtl Shine
s off
f 728 727 726 725
f 729 730 731 732
f 725 726 730 729
f 726 727 731 730
f 727 728 732 731
f 728 725 729 732
o Nugget
v 0.935 0.4 0.84
v 0.817 0.4 0.894
v 0.712 0.4 0.819
v 0.724 0.4 0.69
v 0.841 0.4 0.636
v 0.946 0.4 0.711
v 0.882 0.568 0.802
v 0.823 0.568 0.829
v 0.77 0.568 0.792
v 0.776 0.568 0.728
v 0.835 0.568 0.701
v 0.888 0.568 0.738
usemtl Gold
s off
f 738 737 736 735 734 733
f 739 740 741 742 743 744
f 733 734 740 739
f 734 735 741 740
f 735 736 742 741
f 736 737 743 742
f 737 738 744 743
f 738 733 739 744
o Nugget.Shine
v 0.79 0.529 0.791
v 0.79 0.529 0.836
v 0.855 0.529 0.836
v 0.855 0.529 0.791
v 0.79 0.575 0.791
v 0.79 0.575 0.836
v 0.855 0.575 0.836
v 0.855 0.575 0.791
usemtl Shine
s off
f 748 747 746 745
f 749 750 751 752
f 745 746 750 749
f 746 747 751 750
f 747 748 752 751
f 748 745 749 752
o Nugget
v 1.211 0.439 0.577
v 1.111 0.439 0.523
v 1.109 0.439 0.409
v 1.206 0.439 0.35
v 1.306 0.439 0.405
v 1.308 0.439 0.519
v 1.209 0.587 0.521
v 1.16 0.587 0.493
v 1.159 0.587 0.436
v 1.207 0.587 0.407
v 1.257 0.587 0.435
v 1.258 0.587 0.491
usemtl GoldDark
s off
f 758 757 756 755 754 753
f 759 760 761 762 763 764
f 753 754 760 759
f 754 755 761 760
f 755 756 762 761
f 756 757 763 762
f 757 758 764 763
f 758 753 759 764
o Nugget.Shine
v 1.174 0.553 0.487
v 1.174 0.553 0.526
v 1.231 0.553 0.526
v 1.231 0.553 0.487
v 1.174 0.593 0.487
v 1.174 0.593 0.526
v 1.231 0.593 0.526
v 1.231 0.593 0.487
usemtl Shine
s off
f 768 767 766 765
f 769 770 771 772
f 765 766 770 769
f 766 767 771 770
f 767 768 772 771
f 768 765 769 772
o Nugget
v 0.766 0.578 0.778
v 0.696 0.578 0.703
v 0.726 0.578 0.604
v 0.827 0.578 0.581
v 0.897 0.578 0.656
v 0.867 0.578 0.755
v 0.781 0.712 0.729
v 0.746 0.712 0.691
v 0.761 0.712 0.642
v 0.811 0.712 0.63
v 0.847 0.712 0.668
v 0.832 0.712 0.717
usemtl Gold
s off
f 778 777 776 775 774 773
f 779 780 781 782 783 784
f 773 774 780 779
f 774 775 781 780
f 775 776 782 781
f 776 777 783 782
f 777 778 784 783
f 778 773 779 784
o Nugget.Shine
v 0.765 0.681 0.7
v 0.765 0.681 0.736
v 0.817 0.681 0.736
v 0.817 0.681 0.7
v 0.765 0.717 0.7
v 0.765 0.717 0.736
v 0.817 0.717 0.736
v 0.817 0.717 0.7
usemtl Shine
s off
f 788 787 786 785
f 789 790 791 792
f 785 786 790 789
f 786 787 791 790
f 787 788 792 791
f 788 785 789 792
o Nugget
v -0.526 0.042 1.031
v -0.501 0.042 0.94
v -0.41 0.042 0.917
v -0.344 0.042 0.984
v -0.37 0.042 1.074
v -0.46 0.042 1.098
v -0.481 0.164 1.019
v -0.468 0.164 0.974
v -0.423 0.164 0.962
v -0.39 0.164 0.996
v -0.402 0.164 1.041
v -0.448 0.164 1.053
usemtl Gold
s off
f 798 797 796 795 794 793
f 799 800 801 802 803 804
f 793 794 800 799
f 794 795 801 800
f 795 796 802 801
f 796 797 803 802
f 797 798 804 803
f 798 793 799 804
o Nugget.Shine
v -0.463 0.136 1.026
v -0.463 0.136 1.059
v -0.416 0.136 1.059
v -0.416 0.136 1.026
v -0.463 0.169 1.026
v -0.463 0.169 1.059
v -0.416 0.169 1.059
v -0.416 0.169 1.026
usemtl Shine
s off
f 808 807 806 805
f 809 810 811 812
f 805 806 810 809
f 806 807 811 810
f 807 808 812 811
f 808 805 809 812
o Nugget
v 0.066 0.04 1.067
v 0.038 0.04 0.97
v 0.108 0.04 0.898
v 0.205 0.04 0.922
v 0.233 0.04 1.018
v 0.164 0.04 1.09
v 0.101 0.17 1.03
v 0.087 0.17 0.982
v 0.122 0.17 0.946
v 0.17 0.17 0.958
v 0.184 0.17 1.006
v 0.15 0.17 1.042
usemtl GoldLight
s off
f 818 817 816 815 814 813
f 819 820 821 822 823 824
f 813 814 820 819
f 814 815 821 820
f 815 816 822 821
f 816 817 823 822
f 817 818 824 823
f 818 813 819 824
o Nugget.Shine
v 0.106 0.14 1.014
v 0.106 0.14 1.049
v 0.156 0.14 1.049
v 0.156 0.14 1.014
v 0.106 0.175 1.014
v 0.106 0.175 1.049
v 0.156 0.175 1.049
v 0.156 0.175 1.014
usemtl Shine
s off
f 828 827 826 825
f 829 830 831 832
f 825 826 830 829
f 826 827 831 830
f 827 828 832 831
f 828 825 829 832
o Nugget
v -0.899 0.039 0.975
v -0.901 0.039 0.872
v -0.813 0.039 0.819
v -0.723 0.039 0.868
v -0.721 0.039 0.971
v -0.809 0.039 1.025
v -0.855 0.173 0.949
v -0.856 0.173 0.897
v -0.812 0.173 0.87
v -0.767 0.173 0.895
v -0.766 0.173 0.947
v -0.81 0.173 0.973
usemtl GoldDark
s off
f 838 837 836 835 834 833
f 839 840 841 842 843 844
f 833 834 840 839
f 834 835 841 840
f 835 836 842 841
f 836 837 843 842
f 837 838 844 843
f 838 833 839 844
o Nugget.Shine
v -0.842 0.142 0.942
v -0.842 0.142 0.979
v -0.79 0.142 0.979
v -0.79 0.142 0.942
v -0.842 0.178 0.942
v -0.842 0.178 0.979
v -0.79 0.178 0.979
v -0.79 0.178 0.942
usemtl Shine
s off
f 848 847 846 845
f 849 850 851 852
f 845 846 850 849
f 846 847 851 850
f 847 848 852 851
f 848 845 849 852
o Nugget
v -1.118 0.029 0.627
v -1.21 0.029 0.538
v -1.178 0.029 0.413
v -1.055 0.029 0.379
v -0.963 0.029 0.468
v -0.995 0.029 0.593
v -1.102 0.195 0.565
v -1.148 0.195 0.52
v -1.133 0.195 0.458
v -1.071 0.195 0.441
v -1.025 0.195 0.486
v -1.041 0.195 0.548
usemtl Gold
s off
f 858 857 856 855 854 853
f 859 860 861 862 863 864
f 853 854 860 859
f 854 855 861 860
f 855 856 862 861
f 856 857 863 862
f 857 858 864 863
f 858 853 859 864
o Nugget.Shine
v -1.125 0.157 0.529
v -1.125 0.157 0.574
v -1.061 0.157 0.574
v -1.061 0.157 0.529
v -1.125 0.202 0.529
v -1.125 0.202 0.574
v -1.061 0.202 0.574
v -1.061 0.202 0.529
usemtl Shine
s off
f 868 867 866 865
f 869 870 871 872
f 865 866 870 869
f 866 867 871 870
f 867 868 872 871
f 868 865 869 872
o Nugget
v -0.65 0.031 1.223
v -0.713 0.031 1.328
v -0.835 0.031 1.325
v -0.894 0.031 1.218
v -0.83 0.031 1.113
v -0.708 0.031 1.116
v -0.711 0.19 1.222
v -0.742 0.19 1.274
v -0.803 0.19 1.273
v -0.833 0.19 1.219
v -0.801 0.19 1.167
v -0.74 0.19 1.168
usemtl GoldLight
s off
f 878 877 876 875 874 873
f 879 880 881 882 883 884
f 873 874 880 879
f 874 875 881 880
f 875 876 882 881
f 876 877 883 882
f 877 878 884 883
f 878 873 879 884
o Nugget.Shine
v -0.808 0.153 1.245
v -0.808 0.153 1.288
v -0.747 0.153 1.288
v -0.747 0.153 1.245
v -0.808 0.196 1.245
v -0.808 0.196 1.288
v -0.747 0.196 1.288
v -0.747 0.196 1.245
usemtl Shine
s off
f 888 887 886 885
f 889 890 891 892
f 885 886 890 889
f 886 887 891 890
f 887 888 892 891
f 888 885 889 892
o Nugget
v -0.112 0.017 1.164
v -0.207 0.017 1.289
v -0.363 0.017 1.27
v -0.424 0.017 1.125
v -0.329 0.017 1
v -0.173 0.017 1.019
v -0.19 0.221 1.154
v -0.238 0.221 1.217
v -0.315 0.221 1.207
v -0.346 0.221 1.135
v -0.299 0.221 1.072
v -0.221 0.221 1.082
usemtl GoldDark
s off
f 898 897 896 895 894 893
f 899 900 901 902 903 904
f 893 894 900 899
f 894 895 901 900
f 895 896 902 901
f 896 897 903 902
f 897 898 904 903
f 898 893 899 904
o Nugget.Shine
v -0.315 0.174 1.176
v -0.315 0.174 1.231
v -0.237 0.174 1.231
v -0.237 0.174 1.176
v -0.315 0.229 1.176
v -0.315 0.229 1.231
v -0.237 0.229 1.231
v -0.237 0.229 1.176
usemtl Shine
s off
f 908 907 906 905
f 909 910 911 912
f 905 906 910 909
f 906 907 911 910
f 907 908 912 911
f 908 905 909 912
o Nugget
v 0.31 0.024 1.063
v 0.28 0.024 0.926
v 0.383 0.024 0.832
v 0.516 0.024 0.874
v 0.546 0.024 1.011
v 0.443 0.024 1.105
v 0.361 0.206 1.016
v 0.346 0.206 0.947
v 0.398 0.206 0.9
v 0.464 0.206 0.921
v 0.479 0.206 0.99
v 0.428 0.206 1.037
usemtl Gold
s off
f 918 917 916 915 914 913
f 919 920 921 922 923 924
f 913 914 920 919
f 914 915 921 920
f 915 916 922 921
f 916 917 923 922
f 917 918 924 923
f 918 913 919 924
o Nugget.Shine
v 0.371 0.164 0.996
v 0.371 0.164 1.045
v 0.441 0.164 1.045
v 0.441 0.164 0.996
v 0.371 0.213 0.996
v 0.371 0.213 1.045
v 0.441 0.213 1.045
v 0.441 0.213 0.996
usemtl Shine
s off
f 928 927 926 925
f 929 930 931 932
f 925 926 930 929
f 926 927 931 930
f 927 928 932 931
f 928 925 929 932
o Nugget
v -0.674 0.034 0.918
v -0.668 0.034 0.803
v -0.566 0.034 0.751
v -0.47 0.034 0.814
v -0.476 0.034 0.928
v -0.578 0.034 0.98
v -0.623 0.183 0.892
v -0.62 0.183 0.834
v -0.569 0.183 0.808
v -0.521 0.183 0.84
v -0.524 0.183 0.897
v -0.575 0.183 0.923
usemtl GoldLight
s off
f 938 937 936 935 934 933
f 939 940 941 942 943 944
f 933 934 940 939
f 934 935 941 940
f 935 936 942 941
f 936 937 943 942
f 937 938 944 943
f 938 933 939 944
o Nugget.Shine
v -0.606 0.149 0.889
v -0.606 0.149 0.929
v -0.549 0.149 0.929
v -0.549 0.149 0.889
v -0.606 0.189 0.889
v -0.606 0.189 0.929
v -0.549 0.189 0.929
v -0.549 0.189 0.889
usemtl Shine
s off
f 948 947 946 945
f 949 950 951 952
f 945 946 950 949
f 946 947 951 950
f 947 948 952 951
f 948 945 949 952
o Nugget
v -0.32 0.026 1.083
v -0.38 0.026 0.963
v -0.307 0.026 0.851
v -0.173 0.026 0.859
v -0.112 0.026 0.979
v -0.186 0.026 1.091
v -0.283 0.201 1.027
v -0.313 0.201 0.967
v -0.276 0.201 0.911
v -0.209 0.201 0.915
v -0.179 0.201 0.975
v -0.216 0.201 1.031
usemtl GoldDark
s off
f 958 957 956 955 954 953
f 959 960 961 962 963 964
f 953 954 960 959
f 954 955 961 960
f 955 956 962 961
f 956 957 963 962
f 957 958 964 963
f 958 953 959 964
o Nugget.Shine
v -0.287 0.16 0.998
v -0.287 0.16 1.045
v -0.219 0.16 1.045
v -0.219 0.16 0.998
v -0.287 0.207 0.998
v -0.287 0.207 1.045
v -0.219 0.207 1.045
v -0.219 0.207 0.998
usemtl Shine
s off
f 968 967 966 965
f 969 970 971 972
f 965 966 970 969
f 966 967 971 970
f 967 968 972 971
f 968 965 969 972
o Nugget
v -0.712 0.017 1.107
v -0.754 0.017 0.955
v -0.643 0.017 0.843
v -0.491 0.017 0.883
v -0.449 0.017 1.035
v -0.56 0.017 1.147
v -0.657 0.222 1.051
v -0.678 0.222 0.975
v -0.623 0.222 0.919
v -0.546 0.222 0.939
v -0.526 0.222 1.015
v -0.581 0.222 1.071
usemtl Gold
s off
f 978 977 976 975 974 973
f 979 980 981 982 983 984
f 973 974 980 979
f 974 975 981 980
f 975 976 982 981
f 976 977 983 982
f 977 978 984 983
f 978 973 979 984
o Nugget.Shine
v -0.649 0.174 1.026
v -0.649 0.174 1.082
v -0.57 0.174 1.082
v -0.57 0.174 1.026
v -0.649 0.23 1.026
v -0.649 0.23 1.082
v -0.57 0.23 1.082
v -0.57 0.23 1.026
usemtl Shine
s off
f 988 987 986 985
f 989 990 991 992
f 985 986 990 989
f 986 987 991 990
f 987 988 992 991
f 988 985 989 992
o Pebble
v -0.737 0 -0.901
v -0.79 0 -0.861
v -0.853 0 -0.889
v -0.839 0 -0.946
v -0.768 0 -0.953
v -0.767 0.055 -0.905
v -0.793 0.055 -0.886
v -0.825 0.055 -0.899
v -0.818 0.055 -0.928
v -0.783 0.055 -0.931
usemtl Rock
s off
f 997 996 995 994 993
f 998 999 1000 1001 1002
f 993 994 999 998
f 994 995 1000 999
f 995 996 1001 1000
f 996 997 1002 1001
f 997 993 998 1002
o Pebble
v 0.951 0 0.808
v 0.859 0 0.833
v 0.801 0 0.77
v 0.858 0 0.707
v 0.95 0 0.731
v 0.917 0.074 0.789
v 0.871 0.074 0.801
v 0.842 0.074 0.77
v 0.871 0.074 0.738
v 0.917 0.074 0.75
usemtl RockDark
s off
f 1007 1006 1005 1004 1003
f 1008 1009 1010 1011 1012
f 1003 1004 1009 1008
f 1004 1005 1010 1009
f 1005 1006 1011 1010
f 1006 1007 1012 1011
f 1007 1003 1008 1012
o Pebble
v -1.008 0 -0.756
v -1.05 0 -0.836
v -0.967 0 -0.893
v -0.874 0 -0.848
v -0.899 0 -0.763
v -0.984 0.083 -0.787
v -1.005 0.083 -0.828
v -0.964 0.083 -0.856
v -0.917 0.083 -0.833
v -0.93 0.083 -0.791
usemtl Stone
s off
f 1017 1016 1015 1014 1013
f 1018 1019 1020 1021 1022
f 1013 1014 1019 1018
f 1014 1015 1020 1019
f 1015 1016 1021 1020
f 1016 1017 1022 1021
f 1017 1013 1018 1022
o Pebble
v -0.341 0 -0.876
v -0.441 0 -0.86
v -0.492 0 -0.932
v -0.422 0 -0.992
v -0.329 0 -0.958
v -0.373 0.079 -0.9
v -0.423 0.079 -0.892
v -0.448 0.079 -0.928
v -0.413 0.079 -0.958
v -0.367 0.079 -0.941
usemtl Rock
s off
f 1027 1026 1025 1024 1023
f 1028 1029 1030 1031 1032
f 1023 1024 1029 1028
f 1024 1025 1030 1029
f 1025 1026 1031 1030
f 1026 1027 1032 1031
f 1027 1023 1028 1032
o Pebble
v -0.008 0 1.158
v -0.155 0 1.114
v -0.148 0 0.989
v 0.003 0 0.956
v 0.089 0 1.06
v -0.026 0.12 1.107
v -0.099 0.12 1.085
v -0.096 0.12 1.022
v -0.021 0.12 1.005
v 0.023 0.12 1.058
usemtl RockDark
s off
f 1037 1036 1035 1034 1033
f 1038 1039 1040 1041 1042
f 1033 1034 1039 1038
f 1034 1035 1040 1039
f 1035 1036 1041 1040
f 1036 1037 1042 1041
f 1037 1033 1038 1042
o Pebble
v -0.205 0 -0.945
v -0.314 0 -1.008
v -0.274 0 -1.111
v -0.138 0 -1.112
v -0.096 0 -1.01
v -0.205 0.103 -0.991
v -0.26 0.103 -1.023
v -0.239 0.103 -1.074
v -0.172 0.103 -1.075
v -0.151 0.103 -1.023
usemtl Stone
s off
f 1047 1046 1045 1044 1043
f 1048 1049 1050 1051 1052
f 1043 1044 1049 1048
f 1044 1045 1050 1049
f 1045 1046 1051 1050
f 1046 1047 1052 1051
f 1047 1043 1048 1052
o Pebble
v 0.072 0 1.002
v 0.056 0 0.879
v 0.198 0 0.829
v 0.301 0 0.922
v 0.223 0 1.028
v 0.121 0.118 0.967
v 0.113 0.118 0.906
v 0.184 0.118 0.881
v 0.236 0.118 0.927
v 0.197 0.118 0.98
usemtl Rock
s off
f 1057 1056 1055 1054 1053
f 1058 1059 1060 1061 1062
f 1053 1054 1059 1058
f 1054 1055 1060 1059
f 1055 1056 1061 1060
f 1056 1057 1062 1061
f 1057 1053 1058 1062
o Pebble
v 0.144 0 -0.734
v -0.008 0 -0.774
v -0.008 0 -0.901
v 0.143 0 -0.94
v 0.237 0 -0.838
v 0.123 0.122 -0.786
v 0.047 0.122 -0.806
v 0.047 0.122 -0.869
v 0.123 0.122 -0.889
v 0.169 0.122 -0.837
usemtl RockDark
s off
f 1067 1066 1065 1064 1063
f 1068 1069 1070 1071 1072
f 1063 1064 1069 1068
f 1064 1065 1070 1069
f 1065 1066 1071 1070
f 1066 1067 1072 1071
f 1067 1063 1068 1072
o Pebble
v -0.718 0 0.211
v -0.831 0 0.279
v -0.946 0 0.213
v -0.904 0 0.105
v -0.763 0 0.104
v -0.775 0.108 0.197
v -0.832 0.108 0.231
v -0.889 0.108 0.198
v -0.868 0.108 0.144
v -0.798 0.108 0.143
usemtl Stone
s off
f 1077 1076 1075 1074 1073
f 1078 1079 1080 1081 1082
f 1073 1074 1079 1078
f 1074 1075 1080 1079
f 1075 1076 1081 1080
f 1076 1077 1082 1081
f 1077 1073 1078 1082
o Pebble
v -0.277 0 1.415
v -0.408 0 1.488
v -0.534 0 1.41
v -0.481 0 1.29
v -0.322 0 1.293
v -0.34 0.122 1.397
v -0.406 0.122 1.433
v -0.469 0.122 1.395
v -0.443 0.122 1.335
v -0.363 0.122 1.336
usemtl Rock
s off
f 1087 1086 1085 1084 1083
f 1088 1089 1090 1091 1092
f 1083 1084 1089 1088
f 1084 1085 1090 1089
f 1085 1086 1091 1090
f 1086 1087 1092 1091
f 1087 1083 1088 1092
