# hare.obj - Feldhase, Blickrichtung +z (tools/models/animals.mjs)
mtllib hare.mtl
o Body
v 0 0.075 -0.05
v 0.042 0.086 -0.05
v 0.034 0.086 -0.003
v 0.013 0.086 0.026
v -0.013 0.086 0.026
v -0.034 0.086 -0.003
v -0.042 0.086 -0.05
v -0.034 0.086 -0.097
v -0.013 0.086 -0.126
v 0.013 0.086 -0.126
v 0.034 0.086 -0.097
v 0.074 0.117 -0.05
v 0.06 0.117 0.031
v 0.023 0.117 0.082
v -0.023 0.117 0.082
v -0.06 0.117 0.031
v -0.074 0.117 -0.05
v -0.06 0.117 -0.131
v -0.023 0.117 -0.182
v 0.023 0.117 -0.182
v 0.06 0.117 -0.131
v 0.085 0.16 -0.05
v 0.069 0.16 0.044
v 0.026 0.16 0.102
v -0.026 0.16 0.102
v -0.069 0.16 0.044
v -0.085 0.16 -0.05
v -0.069 0.16 -0.144
v -0.026 0.16 -0.202
v 0.026 0.16 -0.202
v 0.069 0.16 -0.144
v 0.074 0.202 -0.05
v 0.06 0.202 0.031
v 0.023 0.202 0.082
v -0.023 0.202 0.082
v -0.06 0.202 0.031
v -0.074 0.202 -0.05
v -0.06 0.202 -0.131
v -0.023 0.202 -0.182
v 0.023 0.202 -0.182
v 0.06 0.202 -0.131
v 0.042 0.234 -0.05
v 0.034 0.234 -0.003
v 0.013 0.234 0.026
v -0.013 0.234 0.026
v -0.034 0.234 -0.003
v -0.042 0.234 -0.05
v -0.034 0.234 -0.097
v -0.013 0.234 -0.126
v 0.013 0.234 -0.126
v 0.034 0.234 -0.097
v 0 0.245 -0.05
usemtl HareFur
s off
f 1 3 2
f 2 3 13 12
f 12 13 23 22
f 22 23 33 32
f 32 33 43 42
f 42 43 52
f 1 4 3
f 3 4 14 13
f 13 14 24 23
f 23 24 34 33
f 33 34 44 43
f 43 44 52
f 1 5 4
f 4 5 15 14
f 14 15 25 24
f 24 25 35 34
f 34 35 45 44
f 44 45 52
f 1 6 5
f 5 6 16 15
f 15 16 26 25
f 25 26 36 35
f 35 36 46 45
f 45 46 52
f 1 7 6
f 6 7 17 16
f 16 17 27 26
f 26 27 37 36
f 36 37 47 46
f 46 47 52
f 1 8 7
f 7 8 18 17
f 17 18 28 27
f 27 28 38 37
f 37 38 48 47
f 47 48 52
f 1 9 8
f 8 9 19 18
f 18 19 29 28
f 28 29 39 38
f 38 39 49 48
f 48 49 52
f 1 10 9
f 9 10 20 19
f 19 20 30 29
f 29 30 40 39
f 39 40 50 49
f 49 50 52
f 1 11 10
f 10 11 21 20
f 20 21 31 30
f 30 31 41 40
f 40 41 51 50
f 50 51 52
f 1 2 11
f 11 2 12 21
f 21 12 22 31
f 31 22 32 41
f 41 32 42 51
f 51 42 52
o Body.Haunch
v 0 0.055 -0.14
v 0.05 0.066 -0.14
v 0.04 0.066 -0.111
v 0.015 0.066 -0.092
v -0.015 0.066 -0.092
v -0.04 0.066 -0.111
v -0.05 0.066 -0.14
v -0.04 0.066 -0.169
v -0.015 0.066 -0.188
v 0.015 0.066 -0.188
v 0.04 0.066 -0.169
v 0.087 0.098 -0.14
v 0.07 0.098 -0.089
v 0.027 0.098 -0.058
v -0.027 0.098 -0.058
v -0.07 0.098 -0.089
v -0.087 0.098 -0.14
v -0.07 0.098 -0.191
v -0.027 0.098 -0.222
v 0.027 0.098 -0.222
v 0.07 0.098 -0.191
v 0.1 0.14 -0.14
v 0.081 0.14 -0.081
v 0.031 0.14 -0.045
v -0.031 0.14 -0.045
v -0.081 0.14 -0.081
v -0.1 0.14 -0.14
v -0.081 0.14 -0.199
v -0.031 0.14 -0.235
v 0.031 0.14 -0.235
v 0.081 0.14 -0.199
v 0.087 0.182 -0.14
v 0.07 0.182 -0.089
v 0.027 0.182 -0.058
v -0.027 0.182 -0.058
v -0.07 0.182 -0.089
v -0.087 0.182 -0.14
v -0.07 0.182 -0.191
v -0.027 0.182 -0.222
v 0.027 0.182 -0.222
v 0.07 0.182 -0.191
v 0.05 0.214 -0.14
v 0.04 0.214 -0.111
v 0.015 0.214 -0.092
v -0.015 0.214 -0.092
v -0.04 0.214 -0.111
v -0.05 0.214 -0.14
v -0.04 0.214 -0.169
v -0.015 0.214 -0.188
v 0.015 0.214 -0.188
v 0.04 0.214 -0.169
v 0 0.225 -0.14
usemtl HareFur
s off
f 53 55 54
f 54 55 65 64
f 64 65 75 74
f 74 75 85 84
f 84 85 95 94
f 94 95 104
f 53 56 55
f 55 56 66 65
f 65 66 76 75
f 75 76 86 85
f 85 86 96 95
f 95 96 104
f 53 57 56
f 56 57 67 66
f 66 67 77 76
f 76 77 87 86
f 86 87 97 96
f 96 97 104
f 53 58 57
f 57 58 68 67
f 67 68 78 77
f 77 78 88 87
f 87 88 98 97
f 97 98 104
f 53 59 58
f 58 59 69 68
f 68 69 79 78
f 78 79 89 88
f 88 89 99 98
f 98 99 104
f 53 60 59
f 59 60 70 69
f 69 70 80 79
f 79 80 90 89
f 89 90 100 99
f 99 100 104
f 53 61 60
f 60 61 71 70
f 70 71 81 80
f 80 81 91 90
f 90 91 101 100
f 100 101 104
f 53 62 61
f 61 62 72 71
f 71 72 82 81
f 81 82 92 91
f 91 92 102 101
f 101 102 104
f 53 63 62
f 62 63 73 72
f 72 73 83 82
f 82 83 93 92
f 92 93 103 102
f 102 103 104
f 53 54 63
f 63 54 64 73
f 73 64 74 83
f 83 74 84 93
f 93 84 94 103
f 103 94 104
o Body.Belly
v 0 0.06 -0.03
v 0.03 0.065 -0.03
v 0.021 0.065 0.009
v 0 0.065 0.025
v -0.021 0.065 0.009
v -0.03 0.065 -0.03
v -0.021 0.065 -0.069
v 0 0.065 -0.085
v 0.021 0.065 -0.069
v 0.052 0.08 -0.03
v 0.037 0.08 0.037
v 0 0.08 0.065
v -0.037 0.08 0.037
v -0.052 0.08 -0.03
v -0.037 0.08 -0.097
v 0 0.08 -0.125
v 0.037 0.08 -0.097
v 0.06 0.1 -0.03
v 0.042 0.1 0.048
v 0 0.1 0.08
v -0.042 0.1 0.048
v -0.06 0.1 -0.03
v -0.042 0.1 -0.108
v 0 0.1 -0.14
v 0.042 0.1 -0.108
v 0.052 0.12 -0.03
v 0.037 0.12 0.037
v 0 0.12 0.065
v -0.037 0.12 0.037
v -0.052 0.12 -0.03
v -0.037 0.12 -0.097
v 0 0.12 -0.125
v 0.037 0.12 -0.097
v 0.03 0.135 -0.03
v 0.021 0.135 0.009
v 0 0.135 0.025
v -0.021 0.135 0.009
v -0.03 0.135 -0.03
v -0.021 0.135 -0.069
v 0 0.135 -0.085
v 0.021 0.135 -0.069
v 0 0.14 -0.03
usemtl HareLight
s off
f 105 107 106
f 106 107 115 114
f 114 115 123 122
f 122 123 131 130
f 130 131 139 138
f 138 139 146
f 105 108 107
f 107 108 116 115
f 115 116 124 123
f 123 124 132 131
f 131 132 140 139
f 139 140 146
f 105 109 108
f 108 109 117 116
f 116 117 125 124
f 124 125 133 132
f 132 133 141 140
f 140 141 146
f 105 110 109
f 109 110 118 117
f 117 118 126 125
f 125 126 134 133
f 133 134 142 141
f 141 142 146
f 105 111 110
f 110 111 119 118
f 118 119 127 126
f 126 127 135 134
f 134 135 143 142
f 142 143 146
f 105 112 111
f 111 112 120 119
f 119 120 128 127
f 127 128 136 135
f 135 136 144 143
f 143 144 146
f 105 113 112
f 112 113 121 120
f 120 121 129 128
f 128 129 137 136
f 136 137 145 144
f 144 145 146
f 105 106 113
f 113 106 114 121
f 121 114 122 129
f 129 122 130 137
f 137 130 138 145
f 145 138 146
o Body.Tail
v 0 0.14 -0.24
v 0.021 0.149 -0.24
v 0.011 0.149 -0.222
v -0.011 0.149 -0.222
v -0.021 0.149 -0.24
v -0.011 0.149 -0.258
v 0.011 0.149 -0.258
v 0.03 0.17 -0.24
v 0.015 0.17 -0.214
v -0.015 0.17 -0.214
v -0.03 0.17 -0.24
v -0.015 0.17 -0.266
v 0.015 0.17 -0.266
v 0.021 0.191 -0.24
v 0.011 0.191 -0.222
v -0.011 0.191 -0.222
v -0.021 0.191 -0.24
v -0.011 0.191 -0.258
v 0.011 0.191 -0.258
v 0 0.2 -0.24
usemtl HareLight
s off
f 147 149 148
f 148 149 155 154
f 154 155 161 160
f 160 161 166
f 147 150 149
f 149 150 156 155
f 155 156 162 161
f 161 162 166
f 147 151 150
f 150 151 157 156
f 156 157 163 162
f 162 163 166
f 147 152 151
f 151 152 158 157
f 157 158 164 163
f 163 164 166
f 147 153 152
f 152 153 159 158
f 158 159 165 164
f 164 165 166
f 147 148 153
f 153 148 154 159
f 159 154 160 165
f 165 160 166
o Head.Neck
v -0.037 0.171 0.029
v -0.015 0.186 0.014
v 0.015 0.186 0.014
v 0.037 0.171 0.029
v 0.037 0.149 0.051
v 0.015 0.134 0.066
v -0.015 0.134 0.066
v -0.037 0.149 0.051
v -0.032 0.239 0.101
v -0.013 0.253 0.087
v 0.013 0.253 0.087
v 0.032 0.239 0.101
v 0.032 0.221 0.119
v 0.013 0.207 0.133
v -0.013 0.207 0.133
v -0.032 0.221 0.119
usemtl HareFur
s off
f 174 173 172 171 170 169 168 167
f 175 176 177 178 179 180 181 182
f 167 168 176 175
f 168 169 177 176
f 169 170 178 177
f 170 171 179 178
f 171 172 180 179
f 172 173 181 180
f 173 174 182 181
f 174 167 175 182
o Head.Skull
v 0 0.192 0.136
v 0.026 0.199 0.138
v 0.021 0.193 0.16
v 0.008 0.19 0.173
v -0.008 0.19 0.173
v -0.021 0.193 0.16
v -0.026 0.199 0.138
v -0.021 0.204 0.117
v -0.008 0.208 0.104
v 0.008 0.208 0.104
v 0.021 0.204 0.117
v 0.045 0.218 0.143
v 0.036 0.209 0.18
v 0.014 0.203 0.203
v -0.014 0.203 0.203
v -0.036 0.209 0.18
v -0.045 0.218 0.143
v -0.036 0.228 0.106
v -0.014 0.234 0.083
v 0.014 0.234 0.083
v 0.036 0.228 0.106
v 0.052 0.245 0.15
v 0.042 0.234 0.193
v 0.016 0.227 0.219
v -0.016 0.227 0.219
v -0.042 0.234 0.193
v -0.052 0.245 0.15
v -0.042 0.256 0.107
v -0.016 0.263 0.081
v 0.016 0.263 0.081
v 0.042 0.256 0.107
v 0.045 0.272 0.157
v 0.036 0.262 0.194
v 0.014 0.256 0.217
v -0.014 0.256 0.217
v -0.036 0.262 0.194
v -0.045 0.272 0.157
v -0.036 0.281 0.12
v -0.014 0.287 0.097
v 0.014 0.287 0.097
v 0.036 0.281 0.12
v 0.026 0.291 0.162
v 0.021 0.286 0.183
v 0.008 0.282 0.196
v -0.008 0.282 0.196
v -0.021 0.286 0.183
v -0.026 0.291 0.162
v -0.021 0.297 0.14
v -0.008 0.3 0.127
v 0.008 0.3 0.127
v 0.021 0.297 0.14
v 0 0.298 0.164
usemtl HareFur
s off
f 183 185 184
f 184 185 195 194
f 194 195 205 204
f 204 205 215 214
f 214 215 225 224
f 224 225 234
f 183 186 185
f 185 186 196 195
f 195 196 206 205
f 205 206 216 215
f 215 216 226 225
f 225 226 234
f 183 187 186
f 186 187 197 196
f 196 197 207 206
f 206 207 217 216
f 216 217 227 226
f 226 227 234
f 183 188 187
f 187 188 198 197
f 197 198 208 207
f 207 208 218 217
f 217 218 228 227
f 227 228 234
f 183 189 188
f 188 189 199 198
f 198 199 209 208
f 208 209 219 218
f 218 219 229 228
f 228 229 234
f 183 190 189
f 189 190 200 199
f 199 200 210 209
f 209 210 220 219
f 219 220 230 229
f 229 230 234
f 183 191 190
f 190 191 201 200
f 200 201 211 210
f 210 211 221 220
f 220 221 231 230
f 230 231 234
f 183 192 191
f 191 192 202 201
f 201 202 212 211
f 211 212 222 221
f 221 222 232 231
f 231 232 234
f 183 193 192
f 192 193 203 202
f 202 203 213 212
f 212 213 223 222
f 222 223 233 232
f 232 233 234
f 183 184 193
f 193 184 194 203
f 203 194 204 213
f 213 204 214 223
f 223 214 224 233
f 233 224 234
o Head.Muzzle
v 0 0.192 0.21
v 0.015 0.196 0.21
v 0.011 0.196 0.222
v 0 0.196 0.227
v -0.011 0.196 0.222
v -0.015 0.196 0.21
v -0.011 0.196 0.198
v 0 0.196 0.193
v 0.011 0.196 0.198
v 0.026 0.206 0.21
v 0.018 0.206 0.231
v 0 0.206 0.24
v -0.018 0.206 0.231
v -0.026 0.206 0.21
v -0.018 0.206 0.189
v 0 0.206 0.18
v 0.018 0.206 0.189
v 0.03 0.22 0.21
v 0.021 0.22 0.235
v 0 0.22 0.245
v -0.021 0.22 0.235
v -0.03 0.22 0.21
v -0.021 0.22 0.185
v 0 0.22 0.175
v 0.021 0.22 0.185
v 0.026 0.234 0.21
v 0.018 0.234 0.231
v 0 0.234 0.24
v -0.018 0.234 0.231
v -0.026 0.234 0.21
v -0.018 0.234 0.189
v 0 0.234 0.18
v 0.018 0.234 0.189
v 0.015 0.244 0.21
v 0.011 0.244 0.222
v 0 0.244 0.227
v -0.011 0.244 0.222
v -0.015 0.244 0.21
v -0.011 0.244 0.198
v 0 0.244 0.193
v 0.011 0.244 0.198
v 0 0.248 0.21
usemtl HareLight
s off
f 235 237 236
f 236 237 245 244
f 244 245 253 252
f 252 253 261 260
f 260 261 269 268
f 268 269 276
f 235 238 237
f 237 238 246 245
f 245 246 254 253
f 253 254 262 261
f 261 262 270 269
f 269 270 276
f 235 239 238
f 238 239 247 246
f 246 247 255 254
f 254 255 263 262
f 262 263 271 270
f 270 271 276
f 235 240 239
f 239 240 248 247
f 247 248 256 255
f 255 256 264 263
f 263 264 272 271
f 271 272 276
f 235 241 240
f 240 241 249 248
f 248 249 257 256
f 256 257 265 264
f 264 265 273 272
f 272 273 276
f 235 242 241
f 241 242 250 249
f 249 250 258 257
f 257 258 266 265
f 265 266 274 273
f 273 274 276
f 235 243 242
f 242 243 251 250
f 250 251 259 258
f 258 259 267 266
f 266 267 275 274
f 274 275 276
f 235 236 243
f 243 236 244 251
f 251 244 252 259
f 259 252 260 267
f 267 260 268 275
f 275 268 276
o Head.Nose
v 0 0.223 0.243
v 0.008 0.226 0.243
v 0.004 0.226 0.247
v -0.004 0.226 0.247
v -0.008 0.226 0.243
v -0.004 0.226 0.239
v 0.004 0.226 0.239
v 0.012 0.232 0.243
v 0.006 0.232 0.248
v -0.006 0.232 0.248
v -0.012 0.232 0.243
v -0.006 0.232 0.238
v 0.006 0.232 0.238
v 0.008 0.238 0.243
v 0.004 0.238 0.247
v -0.004 0.238 0.247
v -0.008 0.238 0.243
v -0.004 0.238 0.239
v 0.004 0.238 0.239
v 0 0.241 0.243
usemtl Nose
s off
f 277 279 278
f 278 279 285 284
f 284 285 291 290
f 290 291 296
f 277 280 279
f 279 280 286 285
f 285 286 292 291
f 291 292 296
f 277 281 280
f 280 281 287 286
f 286 287 293 292
f 292 293 296
f 277 282 281
f 281 282 288 287
f 287 288 294 293
f 293 294 296
f 277 283 282
f 282 283 289 288
f 288 289 295 294
f 294 295 296
f 277 278 283
f 283 278 284 289
f 289 284 290 295
f 295 290 296
o Head.Eye
v -0.048 0.248 0.17
v -0.04 0.252 0.17
v -0.044 0.252 0.177
v -0.052 0.252 0.177
v -0.056 0.252 0.17
v -0.052 0.252 0.163
v -0.044 0.252 0.163
v -0.037 0.26 0.17
v -0.043 0.26 0.18
v -0.053 0.26 0.18
v -0.059 0.26 0.17
v -0.054 0.26 0.16
v -0.043 0.26 0.16
v -0.04 0.268 0.17
v -0.044 0.268 0.177
v -0.052 0.268 0.177
v -0.056 0.268 0.17
v -0.052 0.268 0.163
v -0.044 0.268 0.163
v -0.048 0.272 0.17
usemtl Eye
s off
f 297 299 298
f 298 299 305 304
f 304 305 311 310
f 310 311 316
f 297 300 299
f 299 300 306 305
f 305 306 312 311
f 311 312 316
f 297 301 300
f 300 301 307 306
f 306 307 313 312
f 312 313 316
f 297 302 301
f 301 302 308 307
f 307 308 314 313
f 313 314 316
f 297 303 302
f 302 303 309 308
f 308 309 315 314
f 314 315 316
f 297 298 303
f 303 298 304 309
f 309 304 310 315
f 315 310 316
o Head.Ear
v -0.015 0.275 0.113
v -0.005 0.283 0.129
v -0.015 0.288 0.146
v -0.035 0.285 0.147
v -0.045 0.277 0.131
v -0.035 0.272 0.114
v -0.043 0.426 0.058
v -0.035 0.432 0.069
v -0.043 0.436 0.082
v -0.057 0.434 0.082
v -0.065 0.428 0.071
v -0.057 0.424 0.058
usemtl HareFur
s off
f 322 321 320 319 318 317
f 323 324 325 326 327 328
f 317 318 324 323
f 318 319 325 324
f 319 320 326 325
f 320 321 327 326
f 321 322 328 327
f 322 317 323 328
o Head.Ear.Tip
v -0.043 0.427 0.057
v -0.035 0.431 0.07
v -0.043 0.435 0.082
v -0.057 0.433 0.083
v -0.065 0.429 0.07
v -0.057 0.425 0.058
v -0.051 0.459 0.056
v -0.048 0.46 0.06
v -0.051 0.462 0.064
v -0.055 0.461 0.064
v -0.058 0.46 0.06
v -0.055 0.458 0.056
usemtl EarTip
s off
f 334 333 332 331 330 329
f 335 336 337 338 339 340
f 329 330 336 335
f 330 331 337 336
f 331 332 338 337
f 332 333 339 338
f 333 334 340 339
f 334 329 335 340
o Head.Eye
v 0.048 0.248 0.17
v 0.056 0.252 0.17
v 0.052 0.252 0.177
v 0.044 0.252 0.177
v 0.04 0.252 0.17
v 0.044 0.252 0.163
v 0.052 0.252 0.163
v 0.059 0.26 0.17
v 0.053 0.26 0.18
v 0.043 0.26 0.18
v 0.037 0.26 0.17
v 0.042 0.26 0.16
v 0.053 0.26 0.16
v 0.056 0.268 0.17
v 0.052 0.268 0.177
v 0.044 0.268 0.177
v 0.04 0.268 0.17
v 0.044 0.268 0.163
v 0.052 0.268 0.163
v 0.048 0.272 0.17
usemtl Eye
s off
f 341 343 342
f 342 343 349 348
f 348 349 355 354
f 354 355 360
f 341 344 343
f 343 344 350 349
f 349 350 356 355
f 355 356 360
f 341 345 344
f 344 345 351 350
f 350 351 357 356
f 356 357 360
f 341 346 345
f 345 346 352 351
f 351 352 358 357
f 357 358 360
f 341 347 346
f 346 347 353 352
f 352 353 359 358
f 358 359 360
f 341 342 347
f 347 342 348 353
f 353 348 354 359
f 359 354 360
o Head.Ear
v 0.035 0.272 0.114
v 0.045 0.277 0.131
v 0.035 0.285 0.147
v 0.015 0.288 0.146
v 0.005 0.283 0.129
v 0.015 0.275 0.113
v 0.057 0.424 0.058
v 0.065 0.428 0.071
v 0.057 0.434 0.082
v 0.043 0.436 0.082
v 0.035 0.432 0.069
v 0.043 0.426 0.058
usemtl HareFur
s off
f 366 365 364 363 362 361
f 367 368 369 370 371 372
f 361 362 368 367
f 362 363 369 368
f 363 364 370 369
f 364 365 371 370
f 365 366 372 371
f 366 361 367 372
o Head.Ear.Tip
v 0.057 0.425 0.058
v 0.065 0.429 0.07
v 0.057 0.433 0.083
v 0.043 0.435 0.082
v 0.035 0.431 0.07
v 0.043 0.427 0.057
v 0.055 0.458 0.056
v 0.058 0.46 0.06
v 0.055 0.461 0.064
v 0.051 0.462 0.064
v 0.048 0.46 0.06
v 0.051 0.459 0.056
usemtl EarTip
s off
f 378 377 376 375 374 373
f 379 380 381 382 383 384
f 373 374 380 379
f 374 375 381 380
f 375 376 382 381
f 376 377 383 382
f 377 378 384 383
f 378 373 379 384
o Leg.FL
v 0.047 0.132 0.092
v 0.054 0.13 0.08
v 0.047 0.128 0.068
v 0.033 0.128 0.068
v 0.026 0.13 0.08
v 0.033 0.132 0.092
v 0.045 0.001 0.109
v 0.05 0 0.1
v 0.045 -0.001 0.091
v 0.035 -0.001 0.091
v 0.03 0 0.1
v 0.035 0.001 0.109
usemtl HareFur
s off
f 390 389 388 387 386 385
f 391 392 393 394 395 396
f 385 386 392 391
f 386 387 393 392
f 387 388 394 393
f 388 389 395 394
f 389 390 396 395
f 390 385 391 396
o Leg.FR
v -0.033 0.132 0.092
v -0.026 0.13 0.08
v -0.033 0.128 0.068
v -0.047 0.128 0.068
v -0.054 0.13 0.08
v -0.047 0.132 0.092
v -0.035 0.001 0.109
v -0.03 0 0.1
v -0.035 -0.001 0.091
v -0.045 -0.001 0.091
v -0.05 0 0.1
v -0.045 0.001 0.109
usemtl HareFur
s off
f 402 401 400 399 398 397
f 403 404 405 406 407 408
f 397 398 404 403
f 398 399 405 404
f 399 400 406 405
f 400 401 407 406
f 401 402 408 407
f 402 397 403 408
o Leg.BL
v 0.097 0.146 -0.151
v 0.075 0.152 -0.162
v 0.053 0.146 -0.151
v 0.053 0.134 -0.129
v 0.075 0.128 -0.118
v 0.097 0.134 -0.129
v 0.09 0.034 -0.208
v 0.075 0.038 -0.215
v 0.06 0.034 -0.208
v 0.06 0.026 -0.192
v 0.075 0.022 -0.185
v 0.09 0.026 -0.192
usemtl HareFur
s off
f 414 413 412 411 410 409
f 415 416 417 418 419 420
f 409 410 416 415
f 410 411 417 416
f 411 412 418 417
f 412 413 419 418
f 413 414 420 419
f 414 409 415 420
o Leg.BL.Foot
v 0.075 0 -0.15
v 0.089 0.004 -0.15
v 0.082 0.004 -0.107
v 0.068 0.004 -0.107
v 0.061 0.004 -0.15
v 0.068 0.004 -0.193
v 0.082 0.004 -0.193
v 0.095 0.015 -0.15
v 0.085 0.015 -0.089
v 0.065 0.015 -0.089
v 0.055 0.015 -0.15
v 0.065 0.015 -0.211
v 0.085 0.015 -0.211
v 0.089 0.026 -0.15
v 0.082 0.026 -0.107
v 0.068 0.026 -0.107
v 0.061 0.026 -0.15
v 0.068 0.026 -0.193
v 0.082 0.026 -0.193
v 0.075 0.03 -0.15
usemtl HareDark
s off
f 421 423 422
f 422 423 429 428
f 428 429 435 434
f 434 435 440
f 421 424 423
f 423 424 430 429
f 429 430 436 435
f 435 436 440
f 421 425 424
f 424 425 431 430
f 430 431 437 436
f 436 437 440
f 421 426 425
f 425 426 432 431
f 431 432 438 437
f 437 438 440
f 421 427 426
f 426 427 433 432
f 432 433 439 438
f 438 439 440
f 421 422 427
f 427 422 428 433
f 433 428 434 439
f 439 434 440
o Leg.BR
v -0.053 0.146 -0.151
v -0.075 0.152 -0.162
v -0.097 0.146 -0.151
v -0.097 0.134 -0.129
v -0.075 0.128 -0.118
v -0.053 0.134 -0.129
v -0.06 0.034 -0.208
v -0.075 0.038 -0.215
v -0.09 0.034 -0.208
v -0.09 0.026 -0.192
v -0.075 0.022 -0.185
v -0.06 0.026 -0.192
usemtl HareFur
s off
f 446 445 444 443 442 441
f 447 448 449 450 451 452
f 441 442 448 447
f 442 443 449 448
f 443 444 450 449
f 444 445 451 450
f 445 446 452 451
f 446 441 447 452
o Leg.BR.Foot
v -0.075 0 -0.15
v -0.061 0.004 -0.15
v -0.068 0.004 -0.107
v -0.082 0.004 -0.107
v -0.089 0.004 -0.15
v -0.082 0.004 -0.193
v -0.068 0.004 -0.193
v -0.055 0.015 -0.15
v -0.065 0.015 -0.089
v -0.085 0.015 -0.089
v -0.095 0.015 -0.15
v -0.085 0.015 -0.211
v -0.065 0.015 -0.211
v -0.061 0.026 -0.15
v -0.068 0.026 -0.107
v -0.082 0.026 -0.107
v -0.089 0.026 -0.15
v -0.082 0.026 -0.193
v -0.068 0.026 -0.193
v -0.075 0.03 -0.15
usemtl HareDark
s off
f 453 455 454
f 454 455 461 460
f 460 461 467 466
f 466 467 472
f 453 456 455
f 455 456 462 461
f 461 462 468 467
f 467 468 472
f 453 457 456
f 456 457 463 462
f 462 463 469 468
f 468 469 472
f 453 458 457
f 457 458 464 463
f 463 464 470 469
f 469 470 472
f 453 459 458
f 458 459 465 464
f 464 465 471 470
f 470 471 472
f 453 454 459
f 459 454 460 465
f 465 460 466 471
f 471 466 472
