# house_3.obj - Haus fuer procedurally-generated-map
# Einheiten: Meter (1 Tile = 5 m, Tueren 2.1 m, ein Dorfbewohner 1.75 m), Y oben,
# Vorderseite nach +Z - so wie Blender ein Modell exportiert, das in der
# Vorderansicht zum Betrachter schaut.
# Material Paint (Band und Wappen) bekommt die Gebaeudefarbe aus dem Spiel.
mtllib house_3.mtl
o Ground
v 0.988 0 1.75
v 2 0 0.875
v 2 0 -0.875
v 0.988 0 -1.75
v -1.037 0 -1.75
v -2.05 0 -0.875
v -2.05 0 0.875
v -1.037 0 1.75
v 0.988 0.03 1.75
v 2 0.03 0.875
v 2 0.03 -0.875
v 0.988 0.03 -1.75
v -1.037 0.03 -1.75
v -2.05 0.03 -0.875
v -2.05 0.03 0.875
v -1.037 0.03 1.75
usemtl Dirt
s off
f 8 7 6 5 4 3 2 1
f 9 10 11 12 13 14 15 16
f 1 2 10 9
f 2 3 11 10
f 3 4 12 11
f 4 5 13 12
f 5 6 14 13
f 6 7 15 14
f 7 8 16 15
f 8 1 9 16
o Plinth
v 1.53 0 1.33
v 1.53 0 -1.33
v -1.53 0 -1.33
v -1.53 0 1.33
v 1.53 0.35 1.33
v 1.53 0.35 -1.33
v -1.53 0.35 -1.33
v -1.53 0.35 1.33
usemtl Stone
s off
f 20 19 18 17
f 21 22 23 24
f 17 18 22 21
f 18 19 23 22
f 19 20 24 23
f 20 17 21 24
o Plinth.Stone
v 1.45 0.05 -1.32
v 1.45 0.05 -1.36
v 1.07 0.05 -1.36
v 1.07 0.05 -1.32
v 1.45 0.3 -1.32
v 1.45 0.3 -1.36
v 1.07 0.3 -1.36
v 1.07 0.3 -1.32
usemtl StoneDark
s off
f 28 27 26 25
f 29 30 31 32
f 25 26 30 29
f 26 27 31 30
f 27 28 32 31
f 28 25 29 32
o Plinth.Stone
v 0.93 0.1 -1.32
v 0.93 0.1 -1.36
v 0.55 0.1 -1.36
v 0.55 0.1 -1.32
v 0.93 0.27 -1.32
v 0.93 0.27 -1.36
v 0.55 0.27 -1.36
v 0.55 0.27 -1.32
usemtl StoneDark
s off
f 36 35 34 33
f 37 38 39 40
f 33 34 38 37
f 34 35 39 38
f 35 36 40 39
f 36 33 37 40
o Plinth.Stone
v 0.41 0.05 -1.32
v 0.41 0.05 -1.36
v 0.03 0.05 -1.36
v 0.03 0.05 -1.32
v 0.41 0.24 -1.32
v 0.41 0.24 -1.36
v 0.03 0.24 -1.36
v 0.03 0.24 -1.32
usemtl StoneDark
s off
f 44 43 42 41
f 45 46 47 48
f 41 42 46 45
f 42 43 47 46
f 43 44 48 47
f 44 41 45 48
o Plinth.Stone
v -0.11 0.1 -1.32
v -0.11 0.1 -1.36
v -0.49 0.1 -1.36
v -0.49 0.1 -1.32
v -0.11 0.3 -1.32
v -0.11 0.3 -1.36
v -0.49 0.3 -1.36
v -0.49 0.3 -1.32
usemtl StoneDark
s off
f 52 51 50 49
f 53 54 55 56
f 49 50 54 53
f 50 51 55 54
f 51 52 56 55
f 52 49 53 56
o Plinth.Stone
v -0.63 0.05 -1.32
v -0.63 0.05 -1.36
v -1.01 0.05 -1.36
v -1.01 0.05 -1.32
v -0.63 0.27 -1.32
v -0.63 0.27 -1.36
v -1.01 0.27 -1.36
v -1.01 0.27 -1.32
usemtl StoneDark
s off
f 60 59 58 57
f 61 62 63 64
f 57 58 62 61
f 58 59 63 62
f 59 60 64 63
f 60 57 61 64
o Plinth.Stone
v -1.15 0.1 -1.32
v -1.15 0.1 -1.36
v -1.53 0.1 -1.36
v -1.53 0.1 -1.32
v -1.15 0.24 -1.32
v -1.15 0.24 -1.36
v -1.53 0.24 -1.36
v -1.53 0.24 -1.32
usemtl StoneDark
s off
f 68 67 66 65
f 69 70 71 72
f 65 66 70 69
f 66 67 71 70
f 67 68 72 71
f 68 65 69 72
o Walls
v 1.45 0.35 1.25
v 1.45 0.35 -1.25
v -1.45 0.35 -1.25
v -1.45 0.35 1.25
v 1.45 2.2 1.25
v 1.45 2.2 -1.25
v -1.45 2.2 -1.25
v -1.45 2.2 1.25
usemtl PlasterGrey
s off
f 76 75 74 73
f 77 78 79 80
f 73 74 78 77
f 74 75 79 78
f 75 76 80 79
f 76 73 77 80
o Timber.Post
v 1.53 0.35 -1.25
v 1.53 0.35 -1.31
v 1.37 0.35 -1.31
v 1.37 0.35 -1.25
v 1.53 2.2 -1.25
v 1.53 2.2 -1.31
v 1.37 2.2 -1.31
v 1.37 2.2 -1.25
usemtl Timber
s off
f 84 83 82 81
f 85 86 87 88
f 81 82 86 85
f 82 83 87 86
f 83 84 88 87
f 84 81 85 88
o Timber.Post
v 0.08 0.35 -1.25
v 0.08 0.35 -1.31
v -0.08 0.35 -1.31
v -0.08 0.35 -1.25
v 0.08 2.2 -1.25
v 0.08 2.2 -1.31
v -0.08 2.2 -1.31
v -0.08 2.2 -1.25
usemtl Timber
s off
f 92 91 90 89
f 93 94 95 96
f 89 90 94 93
f 90 91 95 94
f 91 92 96 95
f 92 89 93 96
o Timber.Post
v -1.37 0.35 -1.25
v -1.37 0.35 -1.31
v -1.53 0.35 -1.31
v -1.53 0.35 -1.25
v -1.37 2.2 -1.25
v -1.37 2.2 -1.31
v -1.53 2.2 -1.31
v -1.53 2.2 -1.25
usemtl Timber
s off
f 100 99 98 97
f 101 102 103 104
f 97 98 102 101
f 98 99 103 102
f 99 100 104 103
f 100 97 101 104
o Timber.Sill
v 1.45 0.35 -1.25
v 1.45 0.35 -1.31
v -1.45 0.35 -1.31
v -1.45 0.35 -1.25
v 1.45 0.47 -1.25
v 1.45 0.47 -1.31
v -1.45 0.47 -1.31
v -1.45 0.47 -1.25
usemtl Timber
s off
f 108 107 106 105
f 109 110 111 112
f 105 106 110 109
f 106 107 111 110
f 107 108 112 111
f 108 105 109 112
o Timber.Post
v -1.37 0.35 1.31
v -1.37 0.35 1.25
v -1.53 0.35 1.25
v -1.53 0.35 1.31
v -1.37 2.2 1.31
v -1.37 2.2 1.25
v -1.53 2.2 1.25
v -1.53 2.2 1.31
usemtl Timber
s off
f 116 115 114 113
f 117 118 119 120
f 113 114 118 117
f 114 115 119 118
f 115 116 120 119
f 116 113 117 120
o Timber.Post
v 0.08 0.35 1.31
v 0.08 0.35 1.25
v -0.08 0.35 1.25
v -0.08 0.35 1.31
v 0.08 2.2 1.31
v 0.08 2.2 1.25
v -0.08 2.2 1.25
v -0.08 2.2 1.31
usemtl Timber
s off
f 124 123 122 121
f 125 126 127 128
f 121 122 126 125
f 122 123 127 126
f 123 124 128 127
f 124 121 125 128
o Timber.Post
v 1.53 0.35 1.31
v 1.53 0.35 1.25
v 1.37 0.35 1.25
v 1.37 0.35 1.31
v 1.53 2.2 1.31
v 1.53 2.2 1.25
v 1.37 2.2 1.25
v 1.37 2.2 1.31
usemtl Timber
s off
f 132 131 130 129
f 133 134 135 136
f 129 130 134 133
f 130 131 135 134
f 131 132 136 135
f 132 129 133 136
o Timber.Sill
v 1.45 0.35 1.31
v 1.45 0.35 1.25
v -1.45 0.35 1.25
v -1.45 0.35 1.31
v 1.45 0.47 1.31
v 1.45 0.47 1.25
v -1.45 0.47 1.25
v -1.45 0.47 1.31
usemtl Timber
s off
f 140 139 138 137
f 141 142 143 144
f 137 138 142 141
f 138 139 143 142
f 139 140 144 143
f 140 137 141 144
o Timber.Post
v 1.51 0.35 1.33
v 1.51 0.35 1.17
v 1.45 0.35 1.17
v 1.45 0.35 1.33
v 1.51 2.2 1.33
v 1.51 2.2 1.17
v 1.45 2.2 1.17
v 1.45 2.2 1.33
usemtl Timber
s off
f 148 147 146 145
f 149 150 151 152
f 145 146 150 149
f 146 147 151 150
f 147 148 152 151
f 148 145 149 152
o Timber.Post
v 1.51 0.35 0.08
v 1.51 0.35 -0.08
v 1.45 0.35 -0.08
v 1.45 0.35 0.08
v 1.51 2.2 0.08
v 1.51 2.2 -0.08
v 1.45 2.2 -0.08
v 1.45 2.2 0.08
usemtl Timber
s off
f 156 155 154 153
f 157 158 159 160
f 153 154 158 157
f 154 155 159 158
f 155 156 160 159
f 156 153 157 160
o Timber.Post
v 1.51 0.35 -1.17
v 1.51 0.35 -1.33
v 1.45 0.35 -1.33
v 1.45 0.35 -1.17
v 1.51 2.2 -1.17
v 1.51 2.2 -1.33
v 1.45 2.2 -1.33
v 1.45 2.2 -1.17
usemtl Timber
s off
f 164 163 162 161
f 165 166 167 168
f 161 162 166 165
f 162 163 167 166
f 163 164 168 167
f 164 161 165 168
o Timber.Sill
v 1.51 0.35 1.25
v 1.51 0.35 -1.25
v 1.45 0.35 -1.25
v 1.45 0.35 1.25
v 1.51 0.47 1.25
v 1.51 0.47 -1.25
v 1.45 0.47 -1.25
v 1.45 0.47 1.25
usemtl Timber
s off
f 172 171 170 169
f 173 174 175 176
f 169 170 174 173
f 170 171 175 174
f 171 172 176 175
f 172 169 173 176
o Timber.Post
v -1.45 0.35 -1.17
v -1.45 0.35 -1.33
v -1.51 0.35 -1.33
v -1.51 0.35 -1.17
v -1.45 2.2 -1.17
v -1.45 2.2 -1.33
v -1.51 2.2 -1.33
v -1.51 2.2 -1.17
usemtl Timber
s off
f 180 179 178 177
f 181 182 183 184
f 177 178 182 181
f 178 179 183 182
f 179 180 184 183
f 180 177 181 184
o Timber.Post
v -1.45 0.35 0.08
v -1.45 0.35 -0.08
v -1.51 0.35 -0.08
v -1.51 0.35 0.08
v -1.45 2.2 0.08
v -1.45 2.2 -0.08
v -1.51 2.2 -0.08
v -1.51 2.2 0.08
usemtl Timber
s off
f 188 187 186 185
f 189 190 191 192
f 185 186 190 189
f 186 187 191 190
f 187 188 192 191
f 188 185 189 192
o Timber.Post
v -1.45 0.35 1.33
v -1.45 0.35 1.17
v -1.51 0.35 1.17
v -1.51 0.35 1.33
v -1.45 2.2 1.33
v -1.45 2.2 1.17
v -1.51 2.2 1.17
v -1.51 2.2 1.33
usemtl Timber
s off
f 196 195 194 193
f 197 198 199 200
f 193 194 198 197
f 194 195 199 198
f 195 196 200 199
f 196 193 197 200
o Timber.Sill
v -1.45 0.35 1.25
v -1.45 0.35 -1.25
v -1.51 0.35 -1.25
v -1.51 0.35 1.25
v -1.45 0.47 1.25
v -1.45 0.47 -1.25
v -1.51 0.47 -1.25
v -1.51 0.47 1.25
usemtl Timber
s off
f 204 203 202 201
f 205 206 207 208
f 201 202 206 205
f 202 203 207 206
f 203 204 208 207
f 204 201 205 208
o Band
v 1.59 2.2 1.39
v 1.59 2.2 -1.39
v -1.59 2.2 -1.39
v -1.59 2.2 1.39
v 1.59 2.4 1.39
v 1.59 2.4 -1.39
v -1.59 2.4 -1.39
v -1.59 2.4 1.39
usemtl Paint
s off
f 212 211 210 209
f 213 214 215 216
f 209 210 214 213
f 210 211 215 214
f 211 212 216 215
f 212 209 213 216
o Band.Edge
v 1.61 2.4 1.41
v 1.61 2.4 -1.41
v -1.61 2.4 -1.41
v -1.61 2.4 1.41
v 1.61 2.46 1.41
v 1.61 2.46 -1.41
v -1.61 2.46 -1.41
v -1.61 2.46 1.41
usemtl Timber
s off
f 220 219 218 217
f 221 222 223 224
f 217 218 222 221
f 218 219 223 222
f 219 220 224 223
f 220 217 221 224
o Joist
v 1.22 2.1 -1.25
v 1.22 2.1 -1.39
v 1.08 2.1 -1.39
v 1.08 2.1 -1.25
v 1.22 2.2 -1.25
v 1.22 2.2 -1.39
v 1.08 2.2 -1.39
v 1.08 2.2 -1.25
usemtl Timber
s off
f 228 227 226 225
f 229 230 231 232
f 225 226 230 229
f 226 227 231 230
f 227 228 232 231
f 228 225 229 232
o Joist
v 1.22 2.1 1.39
v 1.22 2.1 1.25
v 1.08 2.1 1.25
v 1.08 2.1 1.39
v 1.22 2.2 1.39
v 1.22 2.2 1.25
v 1.08 2.2 1.25
v 1.08 2.2 1.39
usemtl Timber
s off
f 236 235 234 233
f 237 238 239 240
f 233 234 238 237
f 234 235 239 238
f 235 236 240 239
f 236 233 237 240
o Joist
v 0.07 2.1 -1.25
v 0.07 2.1 -1.39
v -0.07 2.1 -1.39
v -0.07 2.1 -1.25
v 0.07 2.2 -1.25
v 0.07 2.2 -1.39
v -0.07 2.2 -1.39
v -0.07 2.2 -1.25
usemtl Timber
s off
f 244 243 242 241
f 245 246 247 248
f 241 242 246 245
f 242 243 247 246
f 243 244 248 247
f 244 241 245 248
o Joist
v 0.07 2.1 1.39
v 0.07 2.1 1.25
v -0.07 2.1 1.25
v -0.07 2.1 1.39
v 0.07 2.2 1.39
v 0.07 2.2 1.25
v -0.07 2.2 1.25
v -0.07 2.2 1.39
usemtl Timber
s off
f 252 251 250 249
f 253 254 255 256
f 249 250 254 253
f 250 251 255 254
f 251 252 256 255
f 252 249 253 256
o Joist
v -1.08 2.1 -1.25
v -1.08 2.1 -1.39
v -1.22 2.1 -1.39
v -1.22 2.1 -1.25
v -1.08 2.2 -1.25
v -1.08 2.2 -1.39
v -1.22 2.2 -1.39
v -1.22 2.2 -1.25
usemtl Timber
s off
f 260 259 258 257
f 261 262 263 264
f 257 258 262 261
f 258 259 263 262
f 259 260 264 263
f 260 257 261 264
o Joist
v -1.08 2.1 1.39
v -1.08 2.1 1.25
v -1.22 2.1 1.25
v -1.22 2.1 1.39
v -1.08 2.2 1.39
v -1.08 2.2 1.25
v -1.22 2.2 1.25
v -1.22 2.2 1.39
usemtl Timber
s off
f 268 267 266 265
f 269 270 271 272
f 265 266 270 269
f 266 267 271 270
f 267 268 272 271
f 268 265 269 272
o Window.Light
v 1.07 1 -1.25
v 1.07 1 -1.28
v 0.63 1 -1.28
v 0.63 1 -1.25
v 1.07 1.6 -1.25
v 1.07 1.6 -1.28
v 0.63 1.6 -1.28
v 0.63 1.6 -1.25
usemtl WindowLit
s off
f 276 275 274 273
f 277 278 279 280
f 273 274 278 277
f 274 275 279 278
f 275 276 280 279
f 276 273 277 280
o Window.Bar
v 0.87 1 -1.28
v 0.87 1 -1.31
v 0.83 1 -1.31
v 0.83 1 -1.28
v 0.87 1.6 -1.28
v 0.87 1.6 -1.31
v 0.83 1.6 -1.31
v 0.83 1.6 -1.28
usemtl Timber
s off
f 284 283 282 281
f 285 286 287 288
f 281 282 286 285
f 282 283 287 286
f 283 284 288 287
f 284 281 285 288
o Window.Bar
v 1.07 1.28 -1.28
v 1.07 1.28 -1.31
v 0.63 1.28 -1.31
v 0.63 1.28 -1.28
v 1.07 1.32 -1.28
v 1.07 1.32 -1.31
v 0.63 1.32 -1.31
v 0.63 1.32 -1.28
usemtl Timber
s off
f 292 291 290 289
f 293 294 295 296
f 289 290 294 293
f 290 291 295 294
f 291 292 296 295
f 292 289 293 296
o Window.Sill
v 1.15 0.93 -1.25
v 1.15 0.93 -1.37
v 0.55 0.93 -1.37
v 0.55 0.93 -1.25
v 1.15 1 -1.25
v 1.15 1 -1.37
v 0.55 1 -1.37
v 0.55 1 -1.25
usemtl Timber
s off
f 300 299 298 297
f 301 302 303 304
f 297 298 302 301
f 298 299 303 302
f 299 300 304 303
f 300 297 301 304
o Window.Lintel
v 1.14 1.6 -1.25
v 1.14 1.6 -1.33
v 0.56 1.6 -1.33
v 0.56 1.6 -1.25
v 1.14 1.67 -1.25
v 1.14 1.67 -1.33
v 0.56 1.67 -1.33
v 0.56 1.67 -1.25
usemtl Timber
s off
f 308 307 306 305
f 309 310 311 312
f 305 306 310 309
f 306 307 311 310
f 307 308 312 311
f 308 305 309 312
o Window.Shutter
v 1.35 1 -1.25
v 1.35 1 -1.29
v 1.13 1 -1.29
v 1.13 1 -1.25
v 1.35 1.6 -1.25
v 1.35 1.6 -1.29
v 1.13 1.6 -1.29
v 1.13 1.6 -1.25
usemtl Wood
s off
f 316 315 314 313
f 317 318 319 320
f 313 314 318 317
f 314 315 319 318
f 315 316 320 319
f 316 313 317 320
o Window.Shutter.Band
v 1.35 1.1 -1.29
v 1.35 1.1 -1.305
v 1.13 1.1 -1.305
v 1.13 1.1 -1.29
v 1.35 1.14 -1.29
v 1.35 1.14 -1.305
v 1.13 1.14 -1.305
v 1.13 1.14 -1.29
usemtl Timber
s off
f 324 323 322 321
f 325 326 327 328
f 321 322 326 325
f 322 323 327 326
f 323 324 328 327
f 324 321 325 328
o Window.Shutter.Band
v 1.35 1.46 -1.29
v 1.35 1.46 -1.305
v 1.13 1.46 -1.305
v 1.13 1.46 -1.29
v 1.35 1.5 -1.29
v 1.35 1.5 -1.305
v 1.13 1.5 -1.305
v 1.13 1.5 -1.29
usemtl Timber
s off
f 332 331 330 329
f 333 334 335 336
f 329 330 334 333
f 330 331 335 334
f 331 332 336 335
f 332 329 333 336
o Window.Shutter
v 0.57 1 -1.25
v 0.57 1 -1.29
v 0.35 1 -1.29
v 0.35 1 -1.25
v 0.57 1.6 -1.25
v 0.57 1.6 -1.29
v 0.35 1.6 -1.29
v 0.35 1.6 -1.25
usemtl Wood
s off
f 340 339 338 337
f 341 342 343 344
f 337 338 342 341
f 338 339 343 342
f 339 340 344 343
f 340 337 341 344
o Window.Shutter.Band
v 0.57 1.1 -1.29
v 0.57 1.1 -1.305
v 0.35 1.1 -1.305
v 0.35 1.1 -1.29
v 0.57 1.14 -1.29
v 0.57 1.14 -1.305
v 0.35 1.14 -1.305
v 0.35 1.14 -1.29
usemtl Timber
s off
f 348 347 346 345
f 349 350 351 352
f 345 346 350 349
f 346 347 351 350
f 347 348 352 351
f 348 345 349 352
o Window.Shutter.Band
v 0.57 1.46 -1.29
v 0.57 1.46 -1.305
v 0.35 1.46 -1.305
v 0.35 1.46 -1.29
v 0.57 1.5 -1.29
v 0.57 1.5 -1.305
v 0.35 1.5 -1.305
v 0.35 1.5 -1.29
usemtl Timber
s off
f 356 355 354 353
f 357 358 359 360
f 353 354 358 357
f 354 355 359 358
f 355 356 360 359
f 356 353 357 360
o Window.Light
v 1.48 1 0.22
v 1.48 1 -0.22
v 1.45 1 -0.22
v 1.45 1 0.22
v 1.48 1.6 0.22
v 1.48 1.6 -0.22
v 1.45 1.6 -0.22
v 1.45 1.6 0.22
usemtl WindowLit
s off
f 364 363 362 361
f 365 366 367 368
f 361 362 366 365
f 362 363 367 366
f 363 364 368 367
f 364 361 365 368
o Window.Bar
v 1.51 1 0.02
v 1.51 1 -0.02
v 1.48 1 -0.02
v 1.48 1 0.02
v 1.51 1.6 0.02
v 1.51 1.6 -0.02
v 1.48 1.6 -0.02
v 1.48 1.6 0.02
usemtl Timber
s off
f 372 371 370 369
f 373 374 375 376
f 369 370 374 373
f 370 371 375 374
f 371 372 376 375
f 372 369 373 376
o Window.Bar
v 1.51 1.28 0.22
v 1.51 1.28 -0.22
v 1.48 1.28 -0.22
v 1.48 1.28 0.22
v 1.51 1.32 0.22
v 1.51 1.32 -0.22
v 1.48 1.32 -0.22
v 1.48 1.32 0.22
usemtl Timber
s off
f 380 379 378 377
f 381 382 383 384
f 377 378 382 381
f 378 379 383 382
f 379 380 384 383
f 380 377 381 384
o Window.Sill
v 1.57 0.93 0.3
v 1.57 0.93 -0.3
v 1.45 0.93 -0.3
v 1.45 0.93 0.3
v 1.57 1 0.3
v 1.57 1 -0.3
v 1.45 1 -0.3
v 1.45 1 0.3
usemtl Timber
s off
f 388 387 386 385
f 389 390 391 392
f 385 386 390 389
f 386 387 391 390
f 387 388 392 391
f 388 385 389 392
o Window.Lintel
v 1.53 1.6 0.29
v 1.53 1.6 -0.29
v 1.45 1.6 -0.29
v 1.45 1.6 0.29
v 1.53 1.67 0.29
v 1.53 1.67 -0.29
v 1.45 1.67 -0.29
v 1.45 1.67 0.29
usemtl Timber
s off
f 396 395 394 393
f 397 398 399 400
f 393 394 398 397
f 394 395 399 398
f 395 396 400 399
f 396 393 397 400
o Window.Shutter
v 1.49 1 0.5
v 1.49 1 0.28
v 1.45 1 0.28
v 1.45 1 0.5
v 1.49 1.6 0.5
v 1.49 1.6 0.28
v 1.45 1.6 0.28
v 1.45 1.6 0.5
usemtl Wood
s off
f 404 403 402 401
f 405 406 407 408
f 401 402 406 405
f 402 403 407 406
f 403 404 408 407
f 404 401 405 408
o Window.Shutter.Band
v 1.505 1.1 0.5
v 1.505 1.1 0.28
v 1.49 1.1 0.28
v 1.49 1.1 0.5
v 1.505 1.14 0.5
v 1.505 1.14 0.28
v 1.49 1.14 0.28
v 1.49 1.14 0.5
usemtl Timber
s off
f 412 411 410 409
f 413 414 415 416
f 409 410 414 413
f 410 411 415 414
f 411 412 416 415
f 412 409 413 416
o Window.Shutter.Band
v 1.505 1.46 0.5
v 1.505 1.46 0.28
v 1.49 1.46 0.28
v 1.49 1.46 0.5
v 1.505 1.5 0.5
v 1.505 1.5 0.28
v 1.49 1.5 0.28
v 1.49 1.5 0.5
usemtl Timber
s off
f 420 419 418 417
f 421 422 423 424
f 417 418 422 421
f 418 419 423 422
f 419 420 424 423
f 420 417 421 424
o Window.Shutter
v 1.49 1 -0.28
v 1.49 1 -0.5
v 1.45 1 -0.5
v 1.45 1 -0.28
v 1.49 1.6 -0.28
v 1.49 1.6 -0.5
v 1.45 1.6 -0.5
v 1.45 1.6 -0.28
usemtl Wood
s off
f 428 427 426 425
f 429 430 431 432
f 425 426 430 429
f 426 427 431 430
f 427 428 432 431
f 428 425 429 432
o Window.Shutter.Band
v 1.505 1.1 -0.28
v 1.505 1.1 -0.5
v 1.49 1.1 -0.5
v 1.49 1.1 -0.28
v 1.505 1.14 -0.28
v 1.505 1.14 -0.5
v 1.49 1.14 -0.5
v 1.49 1.14 -0.28
usemtl Timber
s off
f 436 435 434 433
f 437 438 439 440
f 433 434 438 437
f 434 435 439 438
f 435 436 440 439
f 436 433 437 440
o Window.Shutter.Band
v 1.505 1.46 -0.28
v 1.505 1.46 -0.5
v 1.49 1.46 -0.5
v 1.49 1.46 -0.28
v 1.505 1.5 -0.28
v 1.505 1.5 -0.5
v 1.49 1.5 -0.5
v 1.49 1.5 -0.28
usemtl Timber
s off
f 444 443 442 441
f 445 446 447 448
f 441 442 446 445
f 442 443 447 446
f 443 444 448 447
f 444 441 445 448
o Window.Light
v 0.72 1 1.28
v 0.72 1 1.25
v 0.28 1 1.25
v 0.28 1 1.28
v 0.72 1.6 1.28
v 0.72 1.6 1.25
v 0.28 1.6 1.25
v 0.28 1.6 1.28
usemtl WindowLit
s off
f 452 451 450 449
f 453 454 455 456
f 449 450 454 453
f 450 451 455 454
f 451 452 456 455
f 452 449 453 456
o Window.Bar
v 0.52 1 1.31
v 0.52 1 1.28
v 0.48 1 1.28
v 0.48 1 1.31
v 0.52 1.6 1.31
v 0.52 1.6 1.28
v 0.48 1.6 1.28
v 0.48 1.6 1.31
usemtl Timber
s off
f 460 459 458 457
f 461 462 463 464
f 457 458 462 461
f 458 459 463 462
f 459 460 464 463
f 460 457 461 464
o Window.Bar
v 0.72 1.28 1.31
v 0.72 1.28 1.28
v 0.28 1.28 1.28
v 0.28 1.28 1.31
v 0.72 1.32 1.31
v 0.72 1.32 1.28
v 0.28 1.32 1.28
v 0.28 1.32 1.31
usemtl Timber
s off
f 468 467 466 465
f 469 470 471 472
f 465 466 470 469
f 466 467 471 470
f 467 468 472 471
f 468 465 469 472
o Window.Sill
v 0.8 0.93 1.37
v 0.8 0.93 1.25
v 0.2 0.93 1.25
v 0.2 0.93 1.37
v 0.8 1 1.37
v 0.8 1 1.25
v 0.2 1 1.25
v 0.2 1 1.37
usemtl Timber
s off
f 476 475 474 473
f 477 478 479 480
f 473 474 478 477
f 474 475 479 478
f 475 476 480 479
f 476 473 477 480
o Window.Lintel
v 0.79 1.6 1.33
v 0.79 1.6 1.25
v 0.21 1.6 1.25
v 0.21 1.6 1.33
v 0.79 1.67 1.33
v 0.79 1.67 1.25
v 0.21 1.67 1.25
v 0.21 1.67 1.33
usemtl Timber
s off
f 484 483 482 481
f 485 486 487 488
f 481 482 486 485
f 482 483 487 486
f 483 484 488 487
f 484 481 485 488
o Window.Shutter
v 0.22 1 1.29
v 0.22 1 1.25
v 0 1 1.25
v 0 1 1.29
v 0.22 1.6 1.29
v 0.22 1.6 1.25
v 0 1.6 1.25
v 0 1.6 1.29
usemtl Wood
s off
f 492 491 490 489
f 493 494 495 496
f 489 490 494 493
f 490 491 495 494
f 491 492 496 495
f 492 489 493 496
o Window.Shutter.Band
v 0.22 1.1 1.305
v 0.22 1.1 1.29
v 0 1.1 1.29
v 0 1.1 1.305
v 0.22 1.14 1.305
v 0.22 1.14 1.29
v 0 1.14 1.29
v 0 1.14 1.305
usemtl Timber
s off
f 500 499 498 497
f 501 502 503 504
f 497 498 502 501
f 498 499 503 502
f 499 500 504 503
f 500 497 501 504
o Window.Shutter.Band
v 0.22 1.46 1.305
v 0.22 1.46 1.29
v 0 1.46 1.29
v 0 1.46 1.305
v 0.22 1.5 1.305
v 0.22 1.5 1.29
v 0 1.5 1.29
v 0 1.5 1.305
usemtl Timber
s off
f 508 507 506 505
f 509 510 511 512
f 505 506 510 509
f 506 507 511 510
f 507 508 512 511
f 508 505 509 512
o Window.Shutter
v 1 1 1.29
v 1 1 1.25
v 0.78 1 1.25
v 0.78 1 1.29
v 1 1.6 1.29
v 1 1.6 1.25
v 0.78 1.6 1.25
v 0.78 1.6 1.29
usemtl Wood
s off
f 516 515 514 513
f 517 518 519 520
f 513 514 518 517
f 514 515 519 518
f 515 516 520 519
f 516 513 517 520
o Window.Shutter.Band
v 1 1.1 1.305
v 1 1.1 1.29
v 0.78 1.1 1.29
v 0.78 1.1 1.305
v 1 1.14 1.305
v 1 1.14 1.29
v 0.78 1.14 1.29
v 0.78 1.14 1.305
usemtl Timber
s off
f 524 523 522 521
f 525 526 527 528
f 521 522 526 525
f 522 523 527 526
f 523 524 528 527
f 524 521 525 528
o Window.Shutter.Band
v 1 1.46 1.305
v 1 1.46 1.29
v 0.78 1.46 1.29
v 0.78 1.46 1.305
v 1 1.5 1.305
v 1 1.5 1.29
v 0.78 1.5 1.29
v 0.78 1.5 1.305
usemtl Timber
s off
f 532 531 530 529
f 533 534 535 536
f 529 530 534 533
f 530 531 535 534
f 531 532 536 535
f 532 529 533 536
o Window.Light
v -1.45 1 -0.18
v -1.45 1 -0.62
v -1.48 1 -0.62
v -1.48 1 -0.18
v -1.45 1.6 -0.18
v -1.45 1.6 -0.62
v -1.48 1.6 -0.62
v -1.48 1.6 -0.18
usemtl WindowLit
s off
f 540 539 538 537
f 541 542 543 544
f 537 538 542 541
f 538 539 543 542
f 539 540 544 543
f 540 537 541 544
o Window.Bar
v -1.48 1 -0.38
v -1.48 1 -0.42
v -1.51 1 -0.42
v -1.51 1 -0.38
v -1.48 1.6 -0.38
v -1.48 1.6 -0.42
v -1.51 1.6 -0.42
v -1.51 1.6 -0.38
usemtl Timber
s off
f 548 547 546 545
f 549 550 551 552
f 545 546 550 549
f 546 547 551 550
f 547 548 552 551
f 548 545 549 552
o Window.Bar
v -1.48 1.28 -0.18
v -1.48 1.28 -0.62
v -1.51 1.28 -0.62
v -1.51 1.28 -0.18
v -1.48 1.32 -0.18
v -1.48 1.32 -0.62
v -1.51 1.32 -0.62
v -1.51 1.32 -0.18
usemtl Timber
s off
f 556 555 554 553
f 557 558 559 560
f 553 554 558 557
f 554 555 559 558
f 555 556 560 559
f 556 553 557 560
o Window.Sill
v -1.45 0.93 -0.1
v -1.45 0.93 -0.7
v -1.57 0.93 -0.7
v -1.57 0.93 -0.1
v -1.45 1 -0.1
v -1.45 1 -0.7
v -1.57 1 -0.7
v -1.57 1 -0.1
usemtl Timber
s off
f 564 563 562 561
f 565 566 567 568
f 561 562 566 565
f 562 563 567 566
f 563 564 568 567
f 564 561 565 568
o Window.Lintel
v -1.45 1.6 -0.11
v -1.45 1.6 -0.69
v -1.53 1.6 -0.69
v -1.53 1.6 -0.11
v -1.45 1.67 -0.11
v -1.45 1.67 -0.69
v -1.53 1.67 -0.69
v -1.53 1.67 -0.11
usemtl Timber
s off
f 572 571 570 569
f 573 574 575 576
f 569 570 574 573
f 570 571 575 574
f 571 572 576 575
f 572 569 573 576
o Window.Shutter
v -1.45 1 -0.68
v -1.45 1 -0.9
v -1.49 1 -0.9
v -1.49 1 -0.68
v -1.45 1.6 -0.68
v -1.45 1.6 -0.9
v -1.49 1.6 -0.9
v -1.49 1.6 -0.68
usemtl Wood
s off
f 580 579 578 577
f 581 582 583 584
f 577 578 582 581
f 578 579 583 582
f 579 580 584 583
f 580 577 581 584
o Window.Shutter.Band
v -1.49 1.1 -0.68
v -1.49 1.1 -0.9
v -1.505 1.1 -0.9
v -1.505 1.1 -0.68
v -1.49 1.14 -0.68
v -1.49 1.14 -0.9
v -1.505 1.14 -0.9
v -1.505 1.14 -0.68
usemtl Timber
s off
f 588 587 586 585
f 589 590 591 592
f 585 586 590 589
f 586 587 591 590
f 587 588 592 591
f 588 585 589 592
o Window.Shutter.Band
v -1.49 1.46 -0.68
v -1.49 1.46 -0.9
v -1.505 1.46 -0.9
v -1.505 1.46 -0.68
v -1.49 1.5 -0.68
v -1.49 1.5 -0.9
v -1.505 1.5 -0.9
v -1.505 1.5 -0.68
usemtl Timber
s off
f 596 595 594 593
f 597 598 599 600
f 593 594 598 597
f 594 595 599 598
f 595 596 600 599
f 596 593 597 600
o Window.Shutter
v -1.45 1 0.1
v -1.45 1 -0.12
v -1.49 1 -0.12
v -1.49 1 0.1
v -1.45 1.6 0.1
v -1.45 1.6 -0.12
v -1.49 1.6 -0.12
v -1.49 1.6 0.1
usemtl Wood
s off
f 604 603 602 601
f 605 606 607 608
f 601 602 606 605
f 602 603 607 606
f 603 604 608 607
f 604 601 605 608
o Window.Shutter.Band
v -1.49 1.1 0.1
v -1.49 1.1 -0.12
v -1.505 1.1 -0.12
v -1.505 1.1 0.1
v -1.49 1.14 0.1
v -1.49 1.14 -0.12
v -1.505 1.14 -0.12
v -1.505 1.14 0.1
usemtl Timber
s off
f 612 611 610 609
f 613 614 615 616
f 609 610 614 613
f 610 611 615 614
f 611 612 616 615
f 612 609 613 616
o Window.Shutter.Band
v -1.49 1.46 0.1
v -1.49 1.46 -0.12
v -1.505 1.46 -0.12
v -1.505 1.46 0.1
v -1.49 1.5 0.1
v -1.49 1.5 -0.12
v -1.505 1.5 -0.12
v -1.505 1.5 0.1
usemtl Timber
s off
f 620 619 618 617
f 621 622 623 624
f 617 618 622 621
f 618 619 623 622
f 619 620 624 623
f 620 617 621 624
o Window.Box
v 1.15 0.8 -1.27
v 1.15 0.8 -1.45
v 0.55 0.8 -1.45
v 0.55 0.8 -1.27
v 1.15 0.92 -1.27
v 1.15 0.92 -1.45
v 0.55 0.92 -1.45
v 0.55 0.92 -1.27
usemtl Wood
s off
f 628 627 626 625
f 629 630 631 632
f 625 626 630 629
f 626 627 631 630
f 627 628 632 631
f 628 625 629 632
o Window.Leaf
v 1.104 0.92 -1.3
v 1.14 0.92 -1.339
v 1.14 0.92 -1.391
v 1.104 0.92 -1.43
v 1.056 0.92 -1.43
v 1.02 0.92 -1.391
v 1.02 0.92 -1.339
v 1.056 0.92 -1.3
v 1.104 1 -1.3
v 1.14 1 -1.339
v 1.14 1 -1.391
v 1.104 1 -1.43
v 1.056 1 -1.43
v 1.02 1 -1.391
v 1.02 1 -1.339
v 1.056 1 -1.3
usemtl Ivy
s off
f 640 639 638 637 636 635 634 633
f 641 642 643 644 645 646 647 648
f 633 634 642 641
f 634 635 643 642
f 635 636 644 643
f 636 637 645 644
f 637 638 646 645
f 638 639 647 646
f 639 640 648 647
f 640 633 641 648
o Window.Flower
v 1.092 0.98 -1.34
v 1.11 0.98 -1.358
v 1.11 0.98 -1.382
v 1.092 0.98 -1.4
v 1.068 0.98 -1.4
v 1.05 0.98 -1.382
v 1.05 0.98 -1.358
v 1.068 0.98 -1.34
v 1.092 1.04 -1.34
v 1.11 1.04 -1.358
v 1.11 1.04 -1.382
v 1.092 1.04 -1.4
v 1.068 1.04 -1.4
v 1.05 1.04 -1.382
v 1.05 1.04 -1.358
v 1.068 1.04 -1.34
usemtl Flower
s off
f 656 655 654 653 652 651 650 649
f 657 658 659 660 661 662 663 664
f 649 650 658 657
f 650 651 659 658
f 651 652 660 659
f 652 653 661 660
f 653 654 662 661
f 654 655 663 662
f 655 656 664 663
f 656 649 657 664
o Window.Leaf
v 0.954 0.92 -1.3
v 0.99 0.92 -1.339
v 0.99 0.92 -1.391
v 0.954 0.92 -1.43
v 0.906 0.92 -1.43
v 0.87 0.92 -1.391
v 0.87 0.92 -1.339
v 0.906 0.92 -1.3
v 0.954 1 -1.3
v 0.99 1 -1.339
v 0.99 1 -1.391
v 0.954 1 -1.43
v 0.906 1 -1.43
v 0.87 1 -1.391
v 0.87 1 -1.339
v 0.906 1 -1.3
usemtl Ivy
s off
f 672 671 670 669 668 667 666 665
f 673 674 675 676 677 678 679 680
f 665 666 674 673
f 666 667 675 674
f 667 668 676 675
f 668 669 677 676
f 669 670 678 677
f 670 671 679 678
f 671 672 680 679
f 672 665 673 680
o Window.Flower
v 0.942 0.98 -1.34
v 0.96 0.98 -1.358
v 0.96 0.98 -1.382
v 0.942 0.98 -1.4
v 0.918 0.98 -1.4
v 0.9 0.98 -1.382
v 0.9 0.98 -1.358
v 0.918 0.98 -1.34
v 0.942 1.04 -1.34
v 0.96 1.04 -1.358
v 0.96 1.04 -1.382
v 0.942 1.04 -1.4
v 0.918 1.04 -1.4
v 0.9 1.04 -1.382
v 0.9 1.04 -1.358
v 0.918 1.04 -1.34
usemtl Flower
s off
f 688 687 686 685 684 683 682 681
f 689 690 691 692 693 694 695 696
f 681 682 690 689
f 682 683 691 690
f 683 684 692 691
f 684 685 693 692
f 685 686 694 693
f 686 687 695 694
f 687 688 696 695
f 688 681 689 696
o Window.Leaf
v 0.804 0.92 -1.3
v 0.84 0.92 -1.339
v 0.84 0.92 -1.391
v 0.804 0.92 -1.43
v 0.756 0.92 -1.43
v 0.72 0.92 -1.391
v 0.72 0.92 -1.339
v 0.756 0.92 -1.3
v 0.804 1 -1.3
v 0.84 1 -1.339
v 0.84 1 -1.391
v 0.804 1 -1.43
v 0.756 1 -1.43
v 0.72 1 -1.391
v 0.72 1 -1.339
v 0.756 1 -1.3
usemtl Ivy
s off
f 704 703 702 701 700 699 698 697
f 705 706 707 708 709 710 711 712
f 697 698 706 705
f 698 699 707 706
f 699 700 708 707
f 700 701 709 708
f 701 702 710 709
f 702 703 711 710
f 703 704 712 711
f 704 697 705 712
o Window.Flower
v 0.792 0.98 -1.34
v 0.81 0.98 -1.358
v 0.81 0.98 -1.382
v 0.792 0.98 -1.4
v 0.768 0.98 -1.4
v 0.75 0.98 -1.382
v 0.75 0.98 -1.358
v 0.768 0.98 -1.34
v 0.792 1.04 -1.34
v 0.81 1.04 -1.358
v 0.81 1.04 -1.382
v 0.792 1.04 -1.4
v 0.768 1.04 -1.4
v 0.75 1.04 -1.382
v 0.75 1.04 -1.358
v 0.768 1.04 -1.34
usemtl Flower
s off
f 720 719 718 717 716 715 714 713
f 721 722 723 724 725 726 727 728
f 713 714 722 721
f 714 715 723 722
f 715 716 724 723
f 716 717 725 724
f 717 718 726 725
f 718 719 727 726
f 719 720 728 727
f 720 713 721 728
o Window.Leaf
v 0.654 0.92 -1.3
v 0.69 0.92 -1.339
v 0.69 0.92 -1.391
v 0.654 0.92 -1.43
v 0.606 0.92 -1.43
v 0.57 0.92 -1.391
v 0.57 0.92 -1.339
v 0.606 0.92 -1.3
v 0.654 1 -1.3
v 0.69 1 -1.339
v 0.69 1 -1.391
v 0.654 1 -1.43
v 0.606 1 -1.43
v 0.57 1 -1.391
v 0.57 1 -1.339
v 0.606 1 -1.3
usemtl Ivy
s off
f 736 735 734 733 732 731 730 729
f 737 738 739 740 741 742 743 744
f 729 730 738 737
f 730 731 739 738
f 731 732 740 739
f 732 733 741 740
f 733 734 742 741
f 734 735 743 742
f 735 736 744 743
f 736 729 737 744
o Window.Flower
v 0.642 0.98 -1.34
v 0.66 0.98 -1.358
v 0.66 0.98 -1.382
v 0.642 0.98 -1.4
v 0.618 0.98 -1.4
v 0.6 0.98 -1.382
v 0.6 0.98 -1.358
v 0.618 0.98 -1.34
v 0.642 1.04 -1.34
v 0.66 1.04 -1.358
v 0.66 1.04 -1.382
v 0.642 1.04 -1.4
v 0.618 1.04 -1.4
v 0.6 1.04 -1.382
v 0.6 1.04 -1.358
v 0.618 1.04 -1.34
usemtl Flower
s off
f 752 751 750 749 748 747 746 745
f 753 754 755 756 757 758 759 760
f 745 746 754 753
f 746 747 755 754
f 747 748 756 755
f 748 749 757 756
f 749 750 758 757
f 750 751 759 758
f 751 752 760 759
f 752 745 753 760
o Door
v -0.16 0.35 -1.25
v -0.16 0.35 -1.31
v -0.94 0.35 -1.31
v -0.94 0.35 -1.25
v -0.16 2.1 -1.25
v -0.16 2.1 -1.31
v -0.94 2.1 -1.31
v -0.94 2.1 -1.25
usemtl Wood
s off
f 764 763 762 761
f 765 766 767 768
f 761 762 766 765
f 762 763 767 766
f 763 764 768 767
f 764 761 765 768
o Door.Seam
v -0.343 0.39 -1.31
v -0.343 0.39 -1.318
v -0.367 0.39 -1.318
v -0.367 0.39 -1.31
v -0.343 2.06 -1.31
v -0.343 2.06 -1.318
v -0.367 2.06 -1.318
v -0.367 2.06 -1.31
usemtl WoodDark
s off
f 772 771 770 769
f 773 774 775 776
f 769 770 774 773
f 770 771 775 774
f 771 772 776 775
f 772 769 773 776
o Door.Seam
v -0.538 0.39 -1.31
v -0.538 0.39 -1.318
v -0.562 0.39 -1.318
v -0.562 0.39 -1.31
v -0.538 2.06 -1.31
v -0.538 2.06 -1.318
v -0.562 2.06 -1.318
v -0.562 2.06 -1.31
usemtl WoodDark
s off
f 780 779 778 777
f 781 782 783 784
f 777 778 782 781
f 778 779 783 782
f 779 780 784 783
f 780 777 781 784
o Door.Seam
v -0.733 0.39 -1.31
v -0.733 0.39 -1.318
v -0.757 0.39 -1.318
v -0.757 0.39 -1.31
v -0.733 2.06 -1.31
v -0.733 2.06 -1.318
v -0.757 2.06 -1.318
v -0.757 2.06 -1.31
usemtl WoodDark
s off
f 788 787 786 785
f 789 790 791 792
f 785 786 790 789
f 786 787 791 790
f 787 788 792 791
f 788 785 789 792
o Door.Hinge
v -0.19 0.7 -1.31
v -0.19 0.7 -1.325
v -0.706 0.7 -1.325
v -0.706 0.7 -1.31
v -0.19 0.76 -1.31
v -0.19 0.76 -1.325
v -0.706 0.76 -1.325
v -0.706 0.76 -1.31
usemtl Iron
s off
f 796 795 794 793
f 797 798 799 800
f 793 794 798 797
f 794 795 799 798
f 795 796 800 799
f 796 793 797 800
o Door.Hinge
v -0.19 1.65 -1.31
v -0.19 1.65 -1.325
v -0.706 1.65 -1.325
v -0.706 1.65 -1.31
v -0.19 1.71 -1.31
v -0.19 1.71 -1.325
v -0.706 1.71 -1.325
v -0.706 1.71 -1.31
usemtl Iron
s off
f 804 803 802 801
f 805 806 807 808
f 801 802 806 805
f 802 803 807 806
f 803 804 808 807
f 804 801 805 808
o Door.Handle
v -0.805 1.172 -1.31
v -0.784 1.172 -1.322
v -0.784 1.172 -1.338
v -0.805 1.172 -1.35
v -0.833 1.172 -1.35
v -0.854 1.172 -1.338
v -0.854 1.172 -1.322
v -0.833 1.172 -1.31
v -0.805 1.262 -1.31
v -0.784 1.262 -1.322
v -0.784 1.262 -1.338
v -0.805 1.262 -1.35
v -0.833 1.262 -1.35
v -0.854 1.262 -1.338
v -0.854 1.262 -1.322
v -0.833 1.262 -1.31
usemtl Iron
s off
f 816 815 814 813 812 811 810 809
f 817 818 819 820 821 822 823 824
f 809 810 818 817
f 810 811 819 818
f 811 812 820 819
f 812 813 821 820
f 813 814 822 821
f 814 815 823 822
f 815 816 824 823
f 816 809 817 824
o Door.Frame
v -0.03 0.35 -1.25
v -0.03 0.35 -1.34
v -0.16 0.35 -1.34
v -0.16 0.35 -1.25
v -0.03 2.25 -1.25
v -0.03 2.25 -1.34
v -0.16 2.25 -1.34
v -0.16 2.25 -1.25
usemtl Timber
s off
f 828 827 826 825
f 829 830 831 832
f 825 826 830 829
f 826 827 831 830
f 827 828 832 831
f 828 825 829 832
o Door.Frame
v -0.94 0.35 -1.25
v -0.94 0.35 -1.34
v -1.07 0.35 -1.34
v -1.07 0.35 -1.25
v -0.94 2.25 -1.25
v -0.94 2.25 -1.34
v -1.07 2.25 -1.34
v -1.07 2.25 -1.25
usemtl Timber
s off
f 836 835 834 833
f 837 838 839 840
f 833 834 838 837
f 834 835 839 838
f 835 836 840 839
f 836 833 837 840
o Door.Frame
v -0.03 2.1 -1.25
v -0.03 2.1 -1.35
v -1.07 2.1 -1.35
v -1.07 2.1 -1.25
v -0.03 2.25 -1.25
v -0.03 2.25 -1.35
v -1.07 2.25 -1.35
v -1.07 2.25 -1.25
usemtl Timber
s off
f 844 843 842 841
f 845 846 847 848
f 841 842 846 845
f 842 843 847 846
f 843 844 848 847
f 844 841 845 848
o Step
v -0.15 0 -1.27
v -0.05 0 -1.31
v -0.05 0 -1.63
v -0.15 0 -1.67
v -0.95 0 -1.67
v -1.05 0 -1.63
v -1.05 0 -1.31
v -0.95 0 -1.27
v -0.15 0.35 -1.27
v -0.05 0.35 -1.31
v -0.05 0.35 -1.63
v -0.15 0.35 -1.67
v -0.95 0.35 -1.67
v -1.05 0.35 -1.63
v -1.05 0.35 -1.31
v -0.95 0.35 -1.27
usemtl StoneLight
s off
f 856 855 854 853 852 851 850 849
f 857 858 859 860 861 862 863 864
f 849 850 858 857
f 850 851 859 858
f 851 852 860 859
f 852 853 861 860
f 853 854 862 861
f 854 855 863 862
f 855 856 864 863
f 856 849 857 864
o Lantern
v -1.05 1.88 -1.34
v -1.05 1.88 -1.48
v -1.19 1.88 -1.48
v -1.19 1.88 -1.34
v -1.05 1.9 -1.34
v -1.05 1.9 -1.48
v -1.19 1.9 -1.48
v -1.19 1.9 -1.34
usemtl Iron
s off
f 868 867 866 865
f 869 870 871 872
f 865 866 870 869
f 866 867 871 870
f 867 868 872 871
f 868 865 869 872
o Lantern.Flame
v -1.07 1.9 -1.36
v -1.07 1.9 -1.46
v -1.17 1.9 -1.46
v -1.17 1.9 -1.36
v -1.07 2.04 -1.36
v -1.07 2.04 -1.46
v -1.17 2.04 -1.46
v -1.17 2.04 -1.36
usemtl Flame
s off
f 876 875 874 873
f 877 878 879 880
f 873 874 878 877
f 874 875 879 878
f 875 876 880 879
f 876 873 877 880
o Lantern.Cap
v -1.04 2.04 -1.33
v -1.04 2.04 -1.49
v -1.2 2.04 -1.49
v -1.2 2.04 -1.33
v -1.1 2.1 -1.39
v -1.1 2.1 -1.43
v -1.14 2.1 -1.43
v -1.14 2.1 -1.39
usemtl Iron
s off
f 884 883 882 881
f 885 886 887 888
f 881 882 886 885
f 882 883 887 886
f 883 884 888 887
f 884 881 885 888
o Lantern.Bracket
v -1.1 2.08 -1.25
v -1.1 2.08 -1.43
v -1.14 2.08 -1.43
v -1.14 2.08 -1.25
v -1.1 2.12 -1.25
v -1.1 2.12 -1.43
v -1.14 2.12 -1.43
v -1.14 2.12 -1.25
usemtl Iron
s off
f 892 891 890 889
f 893 894 895 896
f 889 890 894 893
f 890 891 895 894
f 891 892 896 895
f 892 889 893 896
o Shield
v 1.7 3.21 0.21
v 1.7 3.21 -0.21
v 1.7 2.93 -0.21
v 1.7 2.63 0
v 1.7 2.93 0.21
v 1.65 3.21 0.21
v 1.65 3.21 -0.21
v 1.65 2.93 -0.21
v 1.65 2.63 0
v 1.65 2.93 0.21
usemtl Paint
s off
f 901 900 899 898 897
f 902 903 904 905 906
f 897 898 903 902
f 898 899 904 903
f 899 900 905 904
f 900 901 906 905
f 901 897 902 906
o Shield.Stripe
v 1.74 3.195 0.145
v 1.67 3.195 0.145
v 1.67 3.145 0.195
v 1.74 3.145 0.195
v 1.74 2.855 -0.195
v 1.67 2.855 -0.195
v 1.67 2.805 -0.145
v 1.74 2.805 -0.145
usemtl Canvas
s off
f 910 909 908 907
f 911 912 913 914
f 907 908 912 911
f 908 909 913 912
f 909 910 914 913
f 910 907 911 914
o Roof
v 1.87 2.36 -1.79
v 1.87 2.609 -1.566
v 1.87 2.729 -1.566
v 1.87 2.552 -1.79
v -1.87 2.36 -1.79
v -1.87 2.609 -1.566
v -1.87 2.729 -1.566
v -1.87 2.552 -1.79
usemtl Shingle
s off
f 918 917 916 915
f 919 920 921 922
f 915 916 920 919
f 916 917 921 920
f 917 918 922 921
f 918 915 919 922
o Roof
v 1.87 2.609 -1.566
v 1.87 2.857 -1.343
v 1.87 2.978 -1.343
v 1.87 2.801 -1.566
v -1.87 2.609 -1.566
v -1.87 2.857 -1.343
v -1.87 2.978 -1.343
v -1.87 2.801 -1.566
usemtl Shingle
s off
f 926 925 924 923
f 927 928 929 930
f 923 924 928 927
f 924 925 929 928
f 925 926 930 929
f 926 923 927 930
o Roof
v 1.87 2.857 -1.343
v 1.87 3.106 -1.119
v 1.87 3.226 -1.119
v 1.87 3.05 -1.343
v -1.87 2.857 -1.343
v -1.87 3.106 -1.119
v -1.87 3.226 -1.119
v -1.87 3.05 -1.343
usemtl Shingle
s off
f 934 933 932 931
f 935 936 937 938
f 931 932 936 935
f 932 933 937 936
f 933 934 938 937
f 934 931 935 938
o Roof
v 1.87 3.106 -1.119
v 1.87 3.355 -0.895
v 1.87 3.475 -0.895
v 1.87 3.298 -1.119
v -1.87 3.106 -1.119
v -1.87 3.355 -0.895
v -1.87 3.475 -0.895
v -1.87 3.298 -1.119
usemtl Shingle
s off
f 942 941 940 939
f 943 944 945 946
f 939 940 944 943
f 940 941 945 944
f 941 942 946 945
f 942 939 943 946
o Roof
v 1.87 3.355 -0.895
v 1.87 3.604 -0.671
v 1.87 3.724 -0.671
v 1.87 3.547 -0.895
v -1.87 3.355 -0.895
v -1.87 3.604 -0.671
v -1.87 3.724 -0.671
v -1.87 3.547 -0.895
usemtl Shingle
s off
f 950 949 948 947
f 951 952 953 954
f 947 948 952 951
f 948 949 953 952
f 949 950 954 953
f 950 947 951 954
o Roof
v 1.87 3.604 -0.671
v 1.87 3.852 -0.448
v 1.87 3.972 -0.448
v 1.87 3.796 -0.671
v -1.87 3.604 -0.671
v -1.87 3.852 -0.448
v -1.87 3.972 -0.448
v -1.87 3.796 -0.671
usemtl Shingle
s off
f 958 957 956 955
f 959 960 961 962
f 955 956 960 959
f 956 957 961 960
f 957 958 962 961
f 958 955 959 962
o Roof
v 1.87 3.852 -0.448
v 1.87 4.101 -0.224
v 1.87 4.221 -0.224
v 1.87 4.044 -0.448
v -1.87 3.852 -0.448
v -1.87 4.101 -0.224
v -1.87 4.221 -0.224
v -1.87 4.044 -0.448
usemtl Shingle
s off
f 966 965 964 963
f 967 968 969 970
f 963 964 968 967
f 964 965 969 968
f 965 966 970 969
f 966 963 967 970
o Roof
v 1.87 4.101 -0.224
v 1.87 4.35 0
v 1.87 4.47 0
v 1.87 4.221 -0.224
v -1.87 4.101 -0.224
v -1.87 4.35 0
v -1.87 4.47 0
v -1.87 4.221 -0.224
usemtl Shingle
s off
f 974 973 972 971
f 975 976 977 978
f 971 972 976 975
f 972 973 977 976
f 973 974 978 977
f 974 971 975 978
o Roof
v 1.87 2.36 1.79
v 1.87 2.609 1.566
v 1.87 2.729 1.566
v 1.87 2.552 1.79
v -1.87 2.36 1.79
v -1.87 2.609 1.566
v -1.87 2.729 1.566
v -1.87 2.552 1.79
usemtl Shingle
s off
f 982 981 980 979
f 983 984 985 986
f 979 980 984 983
f 980 981 985 984
f 981 982 986 985
f 982 979 983 986
o Roof
v 1.87 2.609 1.566
v 1.87 2.857 1.343
v 1.87 2.978 1.343
v 1.87 2.801 1.566
v -1.87 2.609 1.566
v -1.87 2.857 1.343
v -1.87 2.978 1.343
v -1.87 2.801 1.566
usemtl Shingle
s off
f 990 989 988 987
f 991 992 993 994
f 987 988 992 991
f 988 989 993 992
f 989 990 994 993
f 990 987 991 994
o Roof
v 1.87 2.857 1.343
v 1.87 3.106 1.119
v 1.87 3.226 1.119
v 1.87 3.05 1.343
v -1.87 2.857 1.343
v -1.87 3.106 1.119
v -1.87 3.226 1.119
v -1.87 3.05 1.343
usemtl Shingle
s off
f 998 997 996 995
f 999 1000 1001 1002
f 995 996 1000 999
f 996 997 1001 1000
f 997 998 1002 1001
f 998 995 999 1002
o Roof
v 1.87 3.106 1.119
v 1.87 3.355 0.895
v 1.87 3.475 0.895
v 1.87 3.298 1.119
v -1.87 3.106 1.119
v -1.87 3.355 0.895
v -1.87 3.475 0.895
v -1.87 3.298 1.119
usemtl Shingle
s off
f 1006 1005 1004 1003
f 1007 1008 1009 1010
f 1003 1004 1008 1007
f 1004 1005 1009 1008
f 1005 1006 1010 1009
f 1006 1003 1007 1010
o Roof
v 1.87 3.355 0.895
v 1.87 3.604 0.671
v 1.87 3.724 0.671
v 1.87 3.547 0.895
v -1.87 3.355 0.895
v -1.87 3.604 0.671
v -1.87 3.724 0.671
v -1.87 3.547 0.895
usemtl Shingle
s off
f 1014 1013 1012 1011
f 1015 1016 1017 1018
f 1011 1012 1016 1015
f 1012 1013 1017 1016
f 1013 1014 1018 1017
f 1014 1011 1015 1018
o Roof
v 1.87 3.604 0.671
v 1.87 3.852 0.448
v 1.87 3.972 0.448
v 1.87 3.796 0.671
v -1.87 3.604 0.671
v -1.87 3.852 0.448
v -1.87 3.972 0.448
v -1.87 3.796 0.671
usemtl Shingle
s off
f 1022 1021 1020 1019
f 1023 1024 1025 1026
f 1019 1020 1024 1023
f 1020 1021 1025 1024
f 1021 1022 1026 1025
f 1022 1019 1023 1026
o Roof
v 1.87 3.852 0.448
v 1.87 4.101 0.224
v 1.87 4.221 0.224
v 1.87 4.044 0.448
v -1.87 3.852 0.448
v -1.87 4.101 0.224
v -1.87 4.221 0.224
v -1.87 4.044 0.448
usemtl Shingle
s off
f 1030 1029 1028 1027
f 1031 1032 1033 1034
f 1027 1028 1032 1031
f 1028 1029 1033 1032
f 1029 1030 1034 1033
f 1030 1027 1031 1034
o Roof
v 1.87 4.101 0.224
v 1.87 4.35 0
v 1.87 4.47 0
v 1.87 4.221 0.224
v -1.87 4.101 0.224
v -1.87 4.35 0
v -1.87 4.47 0
v -1.87 4.221 0.224
usemtl Shingle
s off
f 1038 1037 1036 1035
f 1039 1040 1041 1042
f 1035 1036 1040 1039
f 1036 1037 1041 1040
f 1037 1038 1042 1041
f 1038 1035 1039 1042
o Roof.Ridge
v 1.91 4.457 -0.104
v 1.91 4.5 0
v 1.91 4.458 0.104
v 1.91 4.373 0.104
v 1.91 4.33 0
v 1.91 4.373 -0.104
v -1.91 4.457 -0.104
v -1.91 4.5 0
v -1.91 4.458 0.104
v -1.91 4.373 0.104
v -1.91 4.33 0
v -1.91 4.373 -0.104
usemtl ShingleDark
s off
f 1048 1047 1046 1045 1044 1043
f 1049 1050 1051 1052 1053 1054
f 1043 1044 1050 1049
f 1044 1045 1051 1050
f 1045 1046 1052 1051
f 1046 1047 1053 1052
f 1047 1048 1054 1053
f 1048 1043 1049 1054
o Gable
v 1.57 2.46 1.37
v 1.57 2.46 -1.37
v 1.57 4.25 0
v -1.57 2.46 1.37
v -1.57 2.46 -1.37
v -1.57 4.25 0
usemtl PlasterGrey
s off
f 1057 1056 1055
f 1058 1059 1060
f 1055 1056 1059 1058
f 1056 1057 1060 1059
f 1057 1055 1058 1060
o Gable.KingPost
v 1.555 2.46 0.045
v 1.555 2.46 -0.045
v 1.645 2.46 -0.045
v 1.645 2.46 0.045
v 1.555 4.15 0.045
v 1.555 4.15 -0.045
v 1.645 4.15 -0.045
v 1.645 4.15 0.045
usemtl Timber
s off
f 1064 1063 1062 1061
f 1065 1066 1067 1068
f 1061 1062 1066 1065
f 1062 1063 1067 1066
f 1063 1064 1068 1067
f 1064 1061 1065 1068
o Gable.Collar
v 1.645 3.45 0.75
v 1.555 3.45 0.75
v 1.555 3.36 0.75
v 1.645 3.36 0.75
v 1.645 3.45 -0.75
v 1.555 3.45 -0.75
v 1.555 3.36 -0.75
v 1.645 3.36 -0.75
usemtl Timber
s off
f 1072 1071 1070 1069
f 1073 1074 1075 1076
f 1069 1070 1074 1073
f 1070 1071 1075 1074
f 1071 1072 1076 1075
f 1072 1069 1073 1076
o Gable.Brace
v 1.64 2.487 1.299
v 1.56 2.487 1.299
v 1.56 2.433 1.241
v 1.64 2.433 1.241
v 1.64 3.432 0.429
v 1.56 3.432 0.429
v 1.56 3.378 0.371
v 1.64 3.378 0.371
usemtl Timber
s off
f 1080 1079 1078 1077
f 1081 1082 1083 1084
f 1077 1078 1082 1081
f 1078 1079 1083 1082
f 1079 1080 1084 1083
f 1080 1077 1081 1084
o Gable.Barge
v 1.95 2.439 1.796
v 1.83 2.439 1.796
v 1.83 2.361 1.704
v 1.95 2.361 1.704
v 1.95 4.489 0.046
v 1.83 4.489 0.046
v 1.83 4.411 -0.046
v 1.95 4.411 -0.046
usemtl Timber
s off
f 1088 1087 1086 1085
f 1089 1090 1091 1092
f 1085 1086 1090 1089
f 1086 1087 1091 1090
f 1087 1088 1092 1091
f 1088 1085 1089 1092
o Gable.Brace
v 1.56 2.487 -1.299
v 1.64 2.487 -1.299
v 1.64 2.433 -1.241
v 1.56 2.433 -1.241
v 1.56 3.432 -0.429
v 1.64 3.432 -0.429
v 1.64 3.378 -0.371
v 1.56 3.378 -0.371
usemtl Timber
s off
f 1096 1095 1094 1093
f 1097 1098 1099 1100
f 1093 1094 1098 1097
f 1094 1095 1099 1098
f 1095 1096 1100 1099
f 1096 1093 1097 1100
o Gable.Barge
v 1.83 2.439 -1.796
v 1.95 2.439 -1.796
v 1.95 2.361 -1.704
v 1.83 2.361 -1.704
v 1.83 4.489 -0.046
v 1.95 4.489 -0.046
v 1.95 4.411 0.046
v 1.83 4.411 0.046
usemtl Timber
s off
f 1104 1103 1102 1101
f 1105 1106 1107 1108
f 1101 1102 1106 1105
f 1102 1103 1107 1106
f 1103 1104 1108 1107
f 1104 1101 1105 1108
o Gable.KingPost
v -1.645 2.46 0.045
v -1.645 2.46 -0.045
v -1.555 2.46 -0.045
v -1.555 2.46 0.045
v -1.645 4.15 0.045
v -1.645 4.15 -0.045
v -1.555 4.15 -0.045
v -1.555 4.15 0.045
usemtl Timber
s off
f 1112 1111 1110 1109
f 1113 1114 1115 1116
f 1109 1110 1114 1113
f 1110 1111 1115 1114
f 1111 1112 1116 1115
f 1112 1109 1113 1116
o Gable.Collar
v -1.555 3.45 0.75
v -1.645 3.45 0.75
v -1.645 3.36 0.75
v -1.555 3.36 0.75
v -1.555 3.45 -0.75
v -1.645 3.45 -0.75
v -1.645 3.36 -0.75
v -1.555 3.36 -0.75
usemtl Timber
s off
f 1120 1119 1118 1117
f 1121 1122 1123 1124
f 1117 1118 1122 1121
f 1118 1119 1123 1122
f 1119 1120 1124 1123
f 1120 1117 1121 1124
o Gable.Brace
v -1.56 2.487 1.299
v -1.64 2.487 1.299
v -1.64 2.433 1.241
v -1.56 2.433 1.241
v -1.56 3.432 0.429
v -1.64 3.432 0.429
v -1.64 3.378 0.371
v -1.56 3.378 0.371
usemtl Timber
s off
f 1128 1127 1126 1125
f 1129 1130 1131 1132
f 1125 1126 1130 1129
f 1126 1127 1131 1130
f 1127 1128 1132 1131
f 1128 1125 1129 1132
o Gable.Barge
v -1.83 2.439 1.796
v -1.95 2.439 1.796
v -1.95 2.361 1.704
v -1.83 2.361 1.704
v -1.83 4.489 0.046
v -1.95 4.489 0.046
v -1.95 4.411 -0.046
v -1.83 4.411 -0.046
usemtl Timber
s off
f 1136 1135 1134 1133
f 1137 1138 1139 1140
f 1133 1134 1138 1137
f 1134 1135 1139 1138
f 1135 1136 1140 1139
f 1136 1133 1137 1140
o Gable.Brace
v -1.64 2.487 -1.299
v -1.56 2.487 -1.299
v -1.56 2.433 -1.241
v -1.64 2.433 -1.241
v -1.64 3.432 -0.429
v -1.56 3.432 -0.429
v -1.56 3.378 -0.371
v -1.64 3.378 -0.371
usemtl Timber
s off
f 1144 1143 1142 1141
f 1145 1146 1147 1148
f 1141 1142 1146 1145
f 1142 1143 1147 1146
f 1143 1144 1148 1147
f 1144 1141 1145 1148
o Gable.Barge
v -1.95 2.439 -1.796
v -1.83 2.439 -1.796
v -1.83 2.361 -1.704
v -1.95 2.361 -1.704
v -1.95 4.489 -0.046
v -1.83 4.489 -0.046
v -1.83 4.411 0.046
v -1.95 4.411 0.046
usemtl Timber
s off
f 1152 1151 1150 1149
f 1153 1154 1155 1156
f 1149 1150 1154 1153
f 1150 1151 1155 1154
f 1151 1152 1156 1155
f 1152 1149 1153 1156
o Chimney
v 1.124 2.26 1
v 1.15 2.26 0.974
v 1.15 2.26 0.596
v 1.124 2.26 0.57
v 0.746 2.26 0.57
v 0.72 2.26 0.596
v 0.72 2.26 0.974
v 0.746 2.26 1
v 1.124 4.9 1
v 1.15 4.9 0.974
v 1.15 4.9 0.596
v 1.124 4.9 0.57
v 0.746 4.9 0.57
v 0.72 4.9 0.596
v 0.72 4.9 0.974
v 0.746 4.9 1
usemtl Stone
s off
f 1164 1163 1162 1161 1160 1159 1158 1157
f 1165 1166 1167 1168 1169 1170 1171 1172
f 1157 1158 1166 1165
f 1158 1159 1167 1166
f 1159 1160 1168 1167
f 1160 1161 1169 1168
f 1161 1162 1170 1169
f 1162 1163 1171 1170
f 1163 1164 1172 1171
f 1164 1157 1165 1172
o Chimney.Cap
v 1.22 4.9 1.07
v 1.22 4.9 0.5
v 0.65 4.9 0.5
v 0.65 4.9 1.07
v 1.22 5.01 1.07
v 1.22 5.01 0.5
v 0.65 5.01 0.5
v 0.65 5.01 1.07
usemtl StoneDark
s off
f 1176 1175 1174 1173
f 1177 1178 1179 1180
f 1173 1174 1178 1177
f 1174 1175 1179 1178
f 1175 1176 1180 1179
f 1176 1173 1177 1180
o Chimney.Flue
v 1.05 5.01 0.9
v 1.05 5.01 0.67
v 0.82 5.01 0.67
v 0.82 5.01 0.9
v 1.05 5.02 0.9
v 1.05 5.02 0.67
v 0.82 5.02 0.67
v 0.82 5.02 0.9
usemtl Soot
s off
f 1184 1183 1182 1181
f 1185 1186 1187 1188
f 1181 1182 1186 1185
f 1182 1183 1187 1186
f 1183 1184 1188 1187
f 1184 1181 1185 1188
o Shed.Post
v -2.31 0 1.19
v -2.31 0 1.01
v -2.49 0 1.01
v -2.49 0 1.19
v -2.31 1.9 1.19
v -2.31 1.9 1.01
v -2.49 1.9 1.01
v -2.49 1.9 1.19
usemtl Timber
s off
f 1192 1191 1190 1189
f 1193 1194 1195 1196
f 1189 1190 1194 1193
f 1190 1191 1195 1194
f 1191 1192 1196 1195
f 1192 1189 1193 1196
o Shed.Brace
v -2.424 1.475 1.135
v -2.424 1.475 1.065
v -2.376 1.425 1.065
v -2.376 1.425 1.135
v -1.974 1.905 1.135
v -1.974 1.905 1.065
v -1.926 1.855 1.065
v -1.926 1.855 1.135
usemtl Timber
s off
f 1200 1199 1198 1197
f 1201 1202 1203 1204
f 1197 1198 1202 1201
f 1198 1199 1203 1202
f 1199 1200 1204 1203
f 1200 1197 1201 1204
o Shed.Post
v -2.31 0 -1.01
v -2.31 0 -1.19
v -2.49 0 -1.19
v -2.49 0 -1.01
v -2.31 1.9 -1.01
v -2.31 1.9 -1.19
v -2.49 1.9 -1.19
v -2.49 1.9 -1.01
usemtl Timber
s off
f 1208 1207 1206 1205
f 1209 1210 1211 1212
f 1205 1206 1210 1209
f 1206 1207 1211 1210
f 1207 1208 1212 1211
f 1208 1205 1209 1212
o Shed.Brace
v -2.424 1.475 -1.065
v -2.424 1.475 -1.135
v -2.376 1.425 -1.135
v -2.376 1.425 -1.065
v -1.974 1.905 -1.065
v -1.974 1.905 -1.135
v -1.926 1.855 -1.135
v -1.926 1.855 -1.065
usemtl Timber
s off
f 1216 1215 1214 1213
f 1217 1218 1219 1220
f 1213 1214 1218 1217
f 1214 1215 1219 1218
f 1215 1216 1220 1219
f 1216 1213 1217 1220
o Shed.Beam
v -2.32 1.85 1.35
v -2.32 1.85 -1.35
v -2.48 1.85 -1.35
v -2.48 1.85 1.35
v -2.32 1.98 1.35
v -2.32 1.98 -1.35
v -2.48 1.98 -1.35
v -2.48 1.98 1.35
usemtl Timber
s off
f 1224 1223 1222 1221
f 1225 1226 1227 1228
f 1221 1222 1226 1225
f 1222 1223 1227 1226
f 1223 1224 1228 1227
f 1224 1221 1225 1228
o Shed.Roof
v -2.65 1.9 1.5
v -2.25 2.05 1.5
v -2.25 2.15 1.5
v -2.65 2.06 1.5
v -2.65 1.9 -1.5
v -2.25 2.05 -1.5
v -2.25 2.15 -1.5
v -2.65 2.06 -1.5
usemtl Shingle
s off
f 1232 1231 1230 1229
f 1233 1234 1235 1236
f 1229 1230 1234 1233
f 1230 1231 1235 1234
f 1231 1232 1236 1235
f 1232 1229 1233 1236
o Shed.Roof
v -2.25 2.05 1.5
v -1.85 2.2 1.5
v -1.85 2.3 1.5
v -2.25 2.21 1.5
v -2.25 2.05 -1.5
v -1.85 2.2 -1.5
v -1.85 2.3 -1.5
v -2.25 2.21 -1.5
usemtl Shingle
s off
f 1240 1239 1238 1237
f 1241 1242 1243 1244
f 1237 1238 1242 1241
f 1238 1239 1243 1242
f 1239 1240 1244 1243
f 1240 1237 1241 1244
o Shed.Roof
v -1.85 2.2 1.5
v -1.45 2.35 1.5
v -1.45 2.45 1.5
v -1.85 2.3 1.5
v -1.85 2.2 -1.5
v -1.45 2.35 -1.5
v -1.45 2.45 -1.5
v -1.85 2.3 -1.5
usemtl Shingle
s off
f 1248 1247 1246 1245
f 1249 1250 1251 1252
f 1245 1246 1250 1249
f 1246 1247 1251 1250
f 1247 1248 1252 1251
f 1248 1245 1249 1252
o Firewood
v -1.57 0.163 0.86
v -1.57 0.217 0.928
v -1.57 0.198 1.012
v -1.57 0.12 1.05
v -1.57 0.042 1.012
v -1.57 0.023 0.928
v -1.57 0.077 0.86
v -2.17 0.163 0.86
v -2.17 0.217 0.928
v -2.17 0.198 1.012
v -2.17 0.12 1.05
v -2.17 0.042 1.012
v -2.17 0.023 0.928
v -2.17 0.077 0.86
usemtl Bark
s off
f 1259 1258 1257 1256 1255 1254 1253
f 1260 1261 1262 1263 1264 1265 1266
f 1253 1254 1261 1260
f 1254 1255 1262 1261
f 1255 1256 1263 1262
f 1256 1257 1264 1263
f 1257 1258 1265 1264
f 1258 1259 1266 1265
f 1259 1253 1260 1266
o Firewood.End
v -2.17 0.157 0.873
v -2.17 0.203 0.931
v -2.17 0.186 1.003
v -2.17 0.12 1.035
v -2.17 0.054 1.003
v -2.17 0.037 0.931
v -2.17 0.083 0.873
v -2.18 0.157 0.873
v -2.18 0.203 0.931
v -2.18 0.186 1.003
v -2.18 0.12 1.035
v -2.18 0.054 1.003
v -2.18 0.037 0.931
v -2.18 0.083 0.873
usemtl LogEnd
s off
f 1273 1272 1271 1270 1269 1268 1267
f 1274 1275 1276 1277 1278 1279 1280
f 1267 1268 1275 1274
f 1268 1269 1276 1275
f 1269 1270 1277 1276
f 1270 1271 1278 1277
f 1271 1272 1279 1278
f 1272 1273 1280 1279
f 1273 1267 1274 1280
o Firewood
v -1.57 0.163 0.62
v -1.57 0.217 0.688
v -1.57 0.198 0.772
v -1.57 0.12 0.81
v -1.57 0.042 0.772
v -1.57 0.023 0.688
v -1.57 0.077 0.62
v -2.17 0.163 0.62
v -2.17 0.217 0.688
v -2.17 0.198 0.772
v -2.17 0.12 0.81
v -2.17 0.042 0.772
v -2.17 0.023 0.688
v -2.17 0.077 0.62
usemtl Bark
s off
f 1287 1286 1285 1284 1283 1282 1281
f 1288 1289 1290 1291 1292 1293 1294
f 1281 1282 1289 1288
f 1282 1283 1290 1289
f 1283 1284 1291 1290
f 1284 1285 1292 1291
f 1285 1286 1293 1292
f 1286 1287 1294 1293
f 1287 1281 1288 1294
o Firewood.End
v -2.17 0.157 0.633
v -2.17 0.203 0.691
v -2.17 0.186 0.763
v -2.17 0.12 0.795
v -2.17 0.054 0.763
v -2.17 0.037 0.691
v -2.17 0.083 0.633
v -2.18 0.157 0.633
v -2.18 0.203 0.691
v -2.18 0.186 0.763
v -2.18 0.12 0.795
v -2.18 0.054 0.763
v -2.18 0.037 0.691
v -2.18 0.083 0.633
usemtl LogEnd
s off
f 1301 1300 1299 1298 1297 1296 1295
f 1302 1303 1304 1305 1306 1307 1308
f 1295 1296 1303 1302
f 1296 1297 1304 1303
f 1297 1298 1305 1304
f 1298 1299 1306 1305
f 1299 1300 1307 1306
f 1300 1301 1308 1307
f 1301 1295 1302 1308
o Firewood
v -1.57 0.163 0.38
v -1.57 0.217 0.448
v -1.57 0.198 0.532
v -1.57 0.12 0.57
v -1.57 0.042 0.532
v -1.57 0.023 0.448
v -1.57 0.077 0.38
v -2.17 0.163 0.38
v -2.17 0.217 0.448
v -2.17 0.198 0.532
v -2.17 0.12 0.57
v -2.17 0.042 0.532
v -2.17 0.023 0.448
v -2.17 0.077 0.38
usemtl Bark
s off
f 1315 1314 1313 1312 1311 1310 1309
f 1316 1317 1318 1319 1320 1321 1322
f 1309 1310 1317 1316
f 1310 1311 1318 1317
f 1311 1312 1319 1318
f 1312 1313 1320 1319
f 1313 1314 1321 1320
f 1314 1315 1322 1321
f 1315 1309 1316 1322
o Firewood.End
v -2.17 0.157 0.393
v -2.17 0.203 0.451
v -2.17 0.186 0.523
v -2.17 0.12 0.555
v -2.17 0.054 0.523
v -2.17 0.037 0.451
v -2.17 0.083 0.393
v -2.18 0.157 0.393
v -2.18 0.203 0.451
v -2.18 0.186 0.523
v -2.18 0.12 0.555
v -2.18 0.054 0.523
v -2.18 0.037 0.451
v -2.18 0.083 0.393
usemtl LogEnd
s off
f 1329 1328 1327 1326 1325 1324 1323
f 1330 1331 1332 1333 1334 1335 1336
f 1323 1324 1331 1330
f 1324 1325 1332 1331
f 1325 1326 1333 1332
f 1326 1327 1334 1333
f 1327 1328 1335 1334
f 1328 1329 1336 1335
f 1329 1323 1330 1336
o Firewood
v -1.57 0.163 0.14
v -1.57 0.217 0.208
v -1.57 0.198 0.292
v -1.57 0.12 0.33
v -1.57 0.042 0.292
v -1.57 0.023 0.208
v -1.57 0.077 0.14
v -2.17 0.163 0.14
v -2.17 0.217 0.208
v -2.17 0.198 0.292
v -2.17 0.12 0.33
v -2.17 0.042 0.292
v -2.17 0.023 0.208
v -2.17 0.077 0.14
usemtl Bark
s off
f 1343 1342 1341 1340 1339 1338 1337
f 1344 1345 1346 1347 1348 1349 1350
f 1337 1338 1345 1344
f 1338 1339 1346 1345
f 1339 1340 1347 1346
f 1340 1341 1348 1347
f 1341 1342 1349 1348
f 1342 1343 1350 1349
f 1343 1337 1344 1350
o Firewood.End
v -2.17 0.157 0.153
v -2.17 0.203 0.211
v -2.17 0.186 0.283
v -2.17 0.12 0.315
v -2.17 0.054 0.283
v -2.17 0.037 0.211
v -2.17 0.083 0.153
v -2.18 0.157 0.153
v -2.18 0.203 0.211
v -2.18 0.186 0.283
v -2.18 0.12 0.315
v -2.18 0.054 0.283
v -2.18 0.037 0.211
v -2.18 0.083 0.153
usemtl LogEnd
s off
f 1357 1356 1355 1354 1353 1352 1351
f 1358 1359 1360 1361 1362 1363 1364
f 1351 1352 1359 1358
f 1352 1353 1360 1359
f 1353 1354 1361 1360
f 1354 1355 1362 1361
f 1355 1356 1363 1362
f 1356 1357 1364 1363
f 1357 1351 1358 1364
o Firewood
v -1.57 0.163 -0.1
v -1.57 0.217 -0.032
v -1.57 0.198 0.052
v -1.57 0.12 0.09
v -1.57 0.042 0.052
v -1.57 0.023 -0.032
v -1.57 0.077 -0.1
v -2.17 0.163 -0.1
v -2.17 0.217 -0.032
v -2.17 0.198 0.052
v -2.17 0.12 0.09
v -2.17 0.042 0.052
v -2.17 0.023 -0.032
v -2.17 0.077 -0.1
usemtl Bark
s off
f 1371 1370 1369 1368 1367 1366 1365
f 1372 1373 1374 1375 1376 1377 1378
f 1365 1366 1373 1372
f 1366 1367 1374 1373
f 1367 1368 1375 1374
f 1368 1369 1376 1375
f 1369 1370 1377 1376
f 1370 1371 1378 1377
f 1371 1365 1372 1378
o Firewood.End
v -2.17 0.157 -0.087
v -2.17 0.203 -0.029
v -2.17 0.186 0.043
v -2.17 0.12 0.075
v -2.17 0.054 0.043
v -2.17 0.037 -0.029
v -2.17 0.083 -0.087
v -2.18 0.157 -0.087
v -2.18 0.203 -0.029
v -2.18 0.186 0.043
v -2.18 0.12 0.075
v -2.18 0.054 0.043
v -2.18 0.037 -0.029
v -2.18 0.083 -0.087
usemtl LogEnd
s off
f 1385 1384 1383 1382 1381 1380 1379
f 1386 1387 1388 1389 1390 1391 1392
f 1379 1380 1387 1386
f 1380 1381 1388 1387
f 1381 1382 1389 1388
f 1382 1383 1390 1389
f 1383 1384 1391 1390
f 1384 1385 1392 1391
f 1385 1379 1386 1392
o Firewood
v -1.57 0.363 0.74
v -1.57 0.417 0.808
v -1.57 0.398 0.892
v -1.57 0.32 0.93
v -1.57 0.242 0.892
v -1.57 0.223 0.808
v -1.57 0.277 0.74
v -2.17 0.363 0.74
v -2.17 0.417 0.808
v -2.17 0.398 0.892
v -2.17 0.32 0.93
v -2.17 0.242 0.892
v -2.17 0.223 0.808
v -2.17 0.277 0.74
usemtl Bark
s off
f 1399 1398 1397 1396 1395 1394 1393
f 1400 1401 1402 1403 1404 1405 1406
f 1393 1394 1401 1400
f 1394 1395 1402 1401
f 1395 1396 1403 1402
f 1396 1397 1404 1403
f 1397 1398 1405 1404
f 1398 1399 1406 1405
f 1399 1393 1400 1406
o Firewood.End
v -2.17 0.357 0.753
v -2.17 0.403 0.811
v -2.17 0.386 0.883
v -2.17 0.32 0.915
v -2.17 0.254 0.883
v -2.17 0.237 0.811
v -2.17 0.283 0.753
v -2.18 0.357 0.753
v -2.18 0.403 0.811
v -2.18 0.386 0.883
v -2.18 0.32 0.915
v -2.18 0.254 0.883
v -2.18 0.237 0.811
v -2.18 0.283 0.753
usemtl LogEnd
s off
f 1413 1412 1411 1410 1409 1408 1407
f 1414 1415 1416 1417 1418 1419 1420
f 1407 1408 1415 1414
f 1408 1409 1416 1415
f 1409 1410 1417 1416
f 1410 1411 1418 1417
f 1411 1412 1419 1418
f 1412 1413 1420 1419
f 1413 1407 1414 1420
o Firewood
v -1.57 0.363 0.5
v -1.57 0.417 0.568
v -1.57 0.398 0.652
v -1.57 0.32 0.69
v -1.57 0.242 0.652
v -1.57 0.223 0.568
v -1.57 0.277 0.5
v -2.17 0.363 0.5
v -2.17 0.417 0.568
v -2.17 0.398 0.652
v -2.17 0.32 0.69
v -2.17 0.242 0.652
v -2.17 0.223 0.568
v -2.17 0.277 0.5
usemtl Bark
s off
f 1427 1426 1425 1424 1423 1422 1421
f 1428 1429 1430 1431 1432 1433 1434
f 1421 1422 1429 1428
f 1422 1423 1430 1429
f 1423 1424 1431 1430
f 1424 1425 1432 1431
f 1425 1426 1433 1432
f 1426 1427 1434 1433
f 1427 1421 1428 1434
o Firewood.End
v -2.17 0.357 0.513
v -2.17 0.403 0.571
v -2.17 0.386 0.643
v -2.17 0.32 0.675
v -2.17 0.254 0.643
v -2.17 0.237 0.571
v -2.17 0.283 0.513
v -2.18 0.357 0.513
v -2.18 0.403 0.571
v -2.18 0.386 0.643
v -2.18 0.32 0.675
v -2.18 0.254 0.643
v -2.18 0.237 0.571
v -2.18 0.283 0.513
usemtl LogEnd
s off
f 1441 1440 1439 1438 1437 1436 1435
f 1442 1443 1444 1445 1446 1447 1448
f 1435 1436 1443 1442
f 1436 1437 1444 1443
f 1437 1438 1445 1444
f 1438 1439 1446 1445
f 1439 1440 1447 1446
f 1440 1441 1448 1447
f 1441 1435 1442 1448
o Firewood
v -1.57 0.363 0.26
v -1.57 0.417 0.328
v -1.57 0.398 0.412
v -1.57 0.32 0.45
v -1.57 0.242 0.412
v -1.57 0.223 0.328
v -1.57 0.277 0.26
v -2.17 0.363 0.26
v -2.17 0.417 0.328
v -2.17 0.398 0.412
v -2.17 0.32 0.45
v -2.17 0.242 0.412
v -2.17 0.223 0.328
v -2.17 0.277 0.26
usemtl Bark
s off
f 1455 1454 1453 1452 1451 1450 1449
f 1456 1457 1458 1459 1460 1461 1462
f 1449 1450 1457 1456
f 1450 1451 1458 1457
f 1451 1452 1459 1458
f 1452 1453 1460 1459
f 1453 1454 1461 1460
f 1454 1455 1462 1461
f 1455 1449 1456 1462
o Firewood.End
v -2.17 0.357 0.273
v -2.17 0.403 0.331
v -2.17 0.386 0.403
v -2.17 0.32 0.435
v -2.17 0.254 0.403
v -2.17 0.237 0.331
v -2.17 0.283 0.273
v -2.18 0.357 0.273
v -2.18 0.403 0.331
v -2.18 0.386 0.403
v -2.18 0.32 0.435
v -2.18 0.254 0.403
v -2.18 0.237 0.331
v -2.18 0.283 0.273
usemtl LogEnd
s off
f 1469 1468 1467 1466 1465 1464 1463
f 1470 1471 1472 1473 1474 1475 1476
f 1463 1464 1471 1470
f 1464 1465 1472 1471
f 1465 1466 1473 1472
f 1466 1467 1474 1473
f 1467 1468 1475 1474
f 1468 1469 1476 1475
f 1469 1463 1470 1476
o Firewood
v -1.57 0.363 0.02
v -1.57 0.417 0.088
v -1.57 0.398 0.172
v -1.57 0.32 0.21
v -1.57 0.242 0.172
v -1.57 0.223 0.088
v -1.57 0.277 0.02
v -2.17 0.363 0.02
v -2.17 0.417 0.088
v -2.17 0.398 0.172
v -2.17 0.32 0.21
v -2.17 0.242 0.172
v -2.17 0.223 0.088
v -2.17 0.277 0.02
usemtl Bark
s off
f 1483 1482 1481 1480 1479 1478 1477
f 1484 1485 1486 1487 1488 1489 1490
f 1477 1478 1485 1484
f 1478 1479 1486 1485
f 1479 1480 1487 1486
f 1480 1481 1488 1487
f 1481 1482 1489 1488
f 1482 1483 1490 1489
f 1483 1477 1484 1490
o Firewood.End
v -2.17 0.357 0.033
v -2.17 0.403 0.091
v -2.17 0.386 0.163
v -2.17 0.32 0.195
v -2.17 0.254 0.163
v -2.17 0.237 0.091
v -2.17 0.283 0.033
v -2.18 0.357 0.033
v -2.18 0.403 0.091
v -2.18 0.386 0.163
v -2.18 0.32 0.195
v -2.18 0.254 0.163
v -2.18 0.237 0.091
v -2.18 0.283 0.033
usemtl LogEnd
s off
f 1497 1496 1495 1494 1493 1492 1491
f 1498 1499 1500 1501 1502 1503 1504
f 1491 1492 1499 1498
f 1492 1493 1500 1499
f 1493 1494 1501 1500
f 1494 1495 1502 1501
f 1495 1496 1503 1502
f 1496 1497 1504 1503
f 1497 1491 1498 1504
o Firewood
v -1.57 0.563 0.62
v -1.57 0.617 0.688
v -1.57 0.598 0.772
v -1.57 0.52 0.81
v -1.57 0.442 0.772
v -1.57 0.423 0.688
v -1.57 0.477 0.62
v -2.17 0.563 0.62
v -2.17 0.617 0.688
v -2.17 0.598 0.772
v -2.17 0.52 0.81
v -2.17 0.442 0.772
v -2.17 0.423 0.688
v -2.17 0.477 0.62
usemtl Bark
s off
f 1511 1510 1509 1508 1507 1506 1505
f 1512 1513 1514 1515 1516 1517 1518
f 1505 1506 1513 1512
f 1506 1507 1514 1513
f 1507 1508 1515 1514
f 1508 1509 1516 1515
f 1509 1510 1517 1516
f 1510 1511 1518 1517
f 1511 1505 1512 1518
o Firewood.End
v -2.17 0.557 0.633
v -2.17 0.603 0.691
v -2.17 0.586 0.763
v -2.17 0.52 0.795
v -2.17 0.454 0.763
v -2.17 0.437 0.691
v -2.17 0.483 0.633
v -2.18 0.557 0.633
v -2.18 0.603 0.691
v -2.18 0.586 0.763
v -2.18 0.52 0.795
v -2.18 0.454 0.763
v -2.18 0.437 0.691
v -2.18 0.483 0.633
usemtl LogEnd
s off
f 1525 1524 1523 1522 1521 1520 1519
f 1526 1527 1528 1529 1530 1531 1532
f 1519 1520 1527 1526
f 1520 1521 1528 1527
f 1521 1522 1529 1528
f 1522 1523 1530 1529
f 1523 1524 1531 1530
f 1524 1525 1532 1531
f 1525 1519 1526 1532
o Firewood
v -1.57 0.563 0.38
v -1.57 0.617 0.448
v -1.57 0.598 0.532
v -1.57 0.52 0.57
v -1.57 0.442 0.532
v -1.57 0.423 0.448
v -1.57 0.477 0.38
v -2.17 0.563 0.38
v -2.17 0.617 0.448
v -2.17 0.598 0.532
v -2.17 0.52 0.57
v -2.17 0.442 0.532
v -2.17 0.423 0.448
v -2.17 0.477 0.38
usemtl Bark
s off
f 1539 1538 1537 1536 1535 1534 1533
f 1540 1541 1542 1543 1544 1545 1546
f 1533 1534 1541 1540
f 1534 1535 1542 1541
f 1535 1536 1543 1542
f 1536 1537 1544 1543
f 1537 1538 1545 1544
f 1538 1539 1546 1545
f 1539 1533 1540 1546
o Firewood.End
v -2.17 0.557 0.393
v -2.17 0.603 0.451
v -2.17 0.586 0.523
v -2.17 0.52 0.555
v -2.17 0.454 0.523
v -2.17 0.437 0.451
v -2.17 0.483 0.393
v -2.18 0.557 0.393
v -2.18 0.603 0.451
v -2.18 0.586 0.523
v -2.18 0.52 0.555
v -2.18 0.454 0.523
v -2.18 0.437 0.451
v -2.18 0.483 0.393
usemtl LogEnd
s off
f 1553 1552 1551 1550 1549 1548 1547
f 1554 1555 1556 1557 1558 1559 1560
f 1547 1548 1555 1554
f 1548 1549 1556 1555
f 1549 1550 1557 1556
f 1550 1551 1558 1557
f 1551 1552 1559 1558
f 1552 1553 1560 1559
f 1553 1547 1554 1560
o Firewood
v -1.57 0.563 0.14
v -1.57 0.617 0.208
v -1.57 0.598 0.292
v -1.57 0.52 0.33
v -1.57 0.442 0.292
v -1.57 0.423 0.208
v -1.57 0.477 0.14
v -2.17 0.563 0.14
v -2.17 0.617 0.208
v -2.17 0.598 0.292
v -2.17 0.52 0.33
v -2.17 0.442 0.292
v -2.17 0.423 0.208
v -2.17 0.477 0.14
usemtl Bark
s off
f 1567 1566 1565 1564 1563 1562 1561
f 1568 1569 1570 1571 1572 1573 1574
f 1561 1562 1569 1568
f 1562 1563 1570 1569
f 1563 1564 1571 1570
f 1564 1565 1572 1571
f 1565 1566 1573 1572
f 1566 1567 1574 1573
f 1567 1561 1568 1574
o Firewood.End
v -2.17 0.557 0.153
v -2.17 0.603 0.211
v -2.17 0.586 0.283
v -2.17 0.52 0.315
v -2.17 0.454 0.283
v -2.17 0.437 0.211
v -2.17 0.483 0.153
v -2.18 0.557 0.153
v -2.18 0.603 0.211
v -2.18 0.586 0.283
v -2.18 0.52 0.315
v -2.18 0.454 0.283
v -2.18 0.437 0.211
v -2.18 0.483 0.153
usemtl LogEnd
s off
f 1581 1580 1579 1578 1577 1576 1575
f 1582 1583 1584 1585 1586 1587 1588
f 1575 1576 1583 1582
f 1576 1577 1584 1583
f 1577 1578 1585 1584
f 1578 1579 1586 1585
f 1579 1580 1587 1586
f 1580 1581 1588 1587
f 1581 1575 1582 1588
o Firewood
v -1.57 0.763 0.5
v -1.57 0.817 0.568
v -1.57 0.798 0.652
v -1.57 0.72 0.69
v -1.57 0.642 0.652
v -1.57 0.623 0.568
v -1.57 0.677 0.5
v -2.17 0.763 0.5
v -2.17 0.817 0.568
v -2.17 0.798 0.652
v -2.17 0.72 0.69
v -2.17 0.642 0.652
v -2.17 0.623 0.568
v -2.17 0.677 0.5
usemtl Bark
s off
f 1595 1594 1593 1592 1591 1590 1589
f 1596 1597 1598 1599 1600 1601 1602
f 1589 1590 1597 1596
f 1590 1591 1598 1597
f 1591 1592 1599 1598
f 1592 1593 1600 1599
f 1593 1594 1601 1600
f 1594 1595 1602 1601
f 1595 1589 1596 1602
o Firewood.End
v -2.17 0.757 0.513
v -2.17 0.803 0.571
v -2.17 0.786 0.643
v -2.17 0.72 0.675
v -2.17 0.654 0.643
v -2.17 0.637 0.571
v -2.17 0.683 0.513
v -2.18 0.757 0.513
v -2.18 0.803 0.571
v -2.18 0.786 0.643
v -2.18 0.72 0.675
v -2.18 0.654 0.643
v -2.18 0.637 0.571
v -2.18 0.683 0.513
usemtl LogEnd
s off
f 1609 1608 1607 1606 1605 1604 1603
f 1610 1611 1612 1613 1614 1615 1616
f 1603 1604 1611 1610
f 1604 1605 1612 1611
f 1605 1606 1613 1612
f 1606 1607 1614 1613
f 1607 1608 1615 1614
f 1608 1609 1616 1615
f 1609 1603 1610 1616
o Firewood
v -1.57 0.763 0.26
v -1.57 0.817 0.328
v -1.57 0.798 0.412
v -1.57 0.72 0.45
v -1.57 0.642 0.412
v -1.57 0.623 0.328
v -1.57 0.677 0.26
v -2.17 0.763 0.26
v -2.17 0.817 0.328
v -2.17 0.798 0.412
v -2.17 0.72 0.45
v -2.17 0.642 0.412
v -2.17 0.623 0.328
v -2.17 0.677 0.26
usemtl Bark
s off
f 1623 1622 1621 1620 1619 1618 1617
f 1624 1625 1626 1627 1628 1629 1630
f 1617 1618 1625 1624
f 1618 1619 1626 1625
f 1619 1620 1627 1626
f 1620 1621 1628 1627
f 1621 1622 1629 1628
f 1622 1623 1630 1629
f 1623 1617 1624 1630
o Firewood.End
v -2.17 0.757 0.273
v -2.17 0.803 0.331
v -2.17 0.786 0.403
v -2.17 0.72 0.435
v -2.17 0.654 0.403
v -2.17 0.637 0.331
v -2.17 0.683 0.273
v -2.18 0.757 0.273
v -2.18 0.803 0.331
v -2.18 0.786 0.403
v -2.18 0.72 0.435
v -2.18 0.654 0.403
v -2.18 0.637 0.331
v -2.18 0.683 0.273
usemtl LogEnd
s off
f 1637 1636 1635 1634 1633 1632 1631
f 1638 1639 1640 1641 1642 1643 1644
f 1631 1632 1639 1638
f 1632 1633 1640 1639
f 1633 1634 1641 1640
f 1634 1635 1642 1641
f 1635 1636 1643 1642
f 1636 1637 1644 1643
f 1637 1631 1638 1644
o Block
v -2.738 0 -1.468
v -2.65 0 -1.573
v -2.515 0 -1.597
v -2.397 0 -1.529
v -2.35 0 -1.4
v -2.397 0 -1.271
v -2.515 0 -1.203
v -2.65 0 -1.227
v -2.738 0 -1.332
v -2.738 0.4 -1.468
v -2.65 0.4 -1.573
v -2.515 0.4 -1.597
v -2.397 0.4 -1.529
v -2.35 0.4 -1.4
v -2.397 0.4 -1.271
v -2.515 0.4 -1.203
v -2.65 0.4 -1.227
v -2.738 0.4 -1.332
usemtl Bark
s off
f 1653 1652 1651 1650 1649 1648 1647 1646 1645
f 1654 1655 1656 1657 1658 1659 1660 1661 1662
f 1645 1646 1655 1654
f 1646 1647 1656 1655
f 1647 1648 1657 1656
f 1648 1649 1658 1657
f 1649 1650 1659 1658
f 1650 1651 1660 1659
f 1651 1652 1661 1660
f 1652 1653 1662 1661
f 1653 1645 1654 1662
o Block.Top
v -2.719 0.4 -1.462
v -2.64 0.4 -1.556
v -2.519 0.4 -1.577
v -2.412 0.4 -1.516
v -2.37 0.4 -1.4
v -2.412 0.4 -1.284
v -2.519 0.4 -1.223
v -2.64 0.4 -1.244
v -2.719 0.4 -1.338
v -2.719 0.41 -1.462
v -2.64 0.41 -1.556
v -2.519 0.41 -1.577
v -2.412 0.41 -1.516
v -2.37 0.41 -1.4
v -2.412 0.41 -1.284
v -2.519 0.41 -1.223
v -2.64 0.41 -1.244
v -2.719 0.41 -1.338
usemtl LogEnd
s off
f 1671 1670 1669 1668 1667 1666 1665 1664 1663
f 1672 1673 1674 1675 1676 1677 1678 1679 1680
f 1663 1664 1673 1672
f 1664 1665 1674 1673
f 1665 1666 1675 1674
f 1666 1667 1676 1675
f 1667 1668 1677 1676
f 1668 1669 1678 1677
f 1669 1670 1679 1678
f 1670 1671 1680 1679
f 1671 1663 1672 1680
o Axe.Handle
v -2.506 0.412 -1.41
v -2.526 0.412 -1.375
v -2.554 0.388 -1.39
v -2.534 0.388 -1.425
v -2.776 0.812 -1.56
v -2.796 0.812 -1.525
v -2.824 0.788 -1.54
v -2.804 0.788 -1.575
usemtl WoodLight
s off
f 1684 1683 1682 1681
f 1685 1686 1687 1688
f 1681 1682 1686 1685
f 1682 1683 1687 1686
f 1683 1684 1688 1687
f 1684 1681 1685 1688
o Axe.Head
v -2.45 0.38 -1.37
v -2.45 0.38 -1.43
v -2.6 0.38 -1.43
v -2.6 0.38 -1.37
v -2.48 0.5 -1.37
v -2.48 0.5 -1.43
v -2.57 0.5 -1.43
v -2.57 0.5 -1.37
usemtl Iron
s off
f 1692 1691 1690 1689
f 1693 1694 1695 1696
f 1689 1690 1694 1693
f 1690 1691 1695 1694
f 1691 1692 1696 1695
f 1692 1689 1693 1696
o Barrel
v 1.54 0 -1.568
v 1.62 0 -1.679
v 1.75 0 -1.721
v 1.88 0 -1.679
v 1.96 0 -1.568
v 1.96 0 -1.432
v 1.88 0 -1.321
v 1.75 0 -1.279
v 1.62 0 -1.321
v 1.54 0 -1.432
v 1.503 0.375 -1.58
v 1.597 0.375 -1.71
v 1.75 0.375 -1.76
v 1.903 0.375 -1.71
v 1.997 0.375 -1.58
v 1.997 0.375 -1.42
v 1.903 0.375 -1.29
v 1.75 0.375 -1.24
v 1.597 0.375 -1.29
v 1.503 0.375 -1.42
usemtl Wood
s off
f 1706 1705 1704 1703 1702 1701 1700 1699 1698 1697
f 1707 1708 1709 1710 1711 1712 1713 1714 1715 1716
f 1697 1698 1708 1707
f 1698 1699 1709 1708
f 1699 1700 1710 1709
f 1700 1701 1711 1710
f 1701 1702 1712 1711
f 1702 1703 1713 1712
f 1703 1704 1714 1713
f 1704 1705 1715 1714
f 1705 1706 1716 1715
f 1706 1697 1707 1716
o Barrel
v 1.503 0.375 -1.58
v 1.597 0.375 -1.71
v 1.75 0.375 -1.76
v 1.903 0.375 -1.71
v 1.997 0.375 -1.58
v 1.997 0.375 -1.42
v 1.903 0.375 -1.29
v 1.75 0.375 -1.24
v 1.597 0.375 -1.29
v 1.503 0.375 -1.42
v 1.54 0.75 -1.568
v 1.62 0.75 -1.679
v 1.75 0.75 -1.721
v 1.88 0.75 -1.679
v 1.96 0.75 -1.568
v 1.96 0.75 -1.432
v 1.88 0.75 -1.321
v 1.75 0.75 -1.279
v 1.62 0.75 -1.321
v 1.54 0.75 -1.432
usemtl Wood
s off
f 1726 1725 1724 1723 1722 1721 1720 1719 1718 1717
f 1727 1728 1729 1730 1731 1732 1733 1734 1735 1736
f 1717 1718 1728 1727
f 1718 1719 1729 1728
f 1719 1720 1730 1729
f 1720 1721 1731 1730
f 1721 1722 1732 1731
f 1722 1723 1733 1732
f 1723 1724 1734 1733
f 1724 1725 1735 1734
f 1725 1726 1736 1735
f 1726 1717 1727 1736
o Barrel.Hoop
v 1.505 0.112 -1.58
v 1.598 0.112 -1.709
v 1.75 0.112 -1.758
v 1.902 0.112 -1.709
v 1.995 0.112 -1.58
v 1.995 0.112 -1.42
v 1.902 0.112 -1.291
v 1.75 0.112 -1.242
v 1.598 0.112 -1.291
v 1.505 0.112 -1.42
v 1.505 0.162 -1.58
v 1.598 0.162 -1.709
v 1.75 0.162 -1.758
v 1.902 0.162 -1.709
v 1.995 0.162 -1.58
v 1.995 0.162 -1.42
v 1.902 0.162 -1.291
v 1.75 0.162 -1.242
v 1.598 0.162 -1.291
v 1.505 0.162 -1.42
usemtl Iron
s off
f 1746 1745 1744 1743 1742 1741 1740 1739 1738 1737
f 1747 1748 1749 1750 1751 1752 1753 1754 1755 1756
f 1737 1738 1748 1747
f 1738 1739 1749 1748
f 1739 1740 1750 1749
f 1740 1741 1751 1750
f 1741 1742 1752 1751
f 1742 1743 1753 1752
f 1743 1744 1754 1753
f 1744 1745 1755 1754
f 1745 1746 1756 1755
f 1746 1737 1747 1756
o Barrel.Hoop
v 1.502 0.6 -1.581
v 1.596 0.6 -1.711
v 1.75 0.6 -1.761
v 1.904 0.6 -1.711
v 1.998 0.6 -1.581
v 1.998 0.6 -1.419
v 1.904 0.6 -1.289
v 1.75 0.6 -1.239
v 1.596 0.6 -1.289
v 1.502 0.6 -1.419
v 1.502 0.65 -1.581
v 1.596 0.65 -1.711
v 1.75 0.65 -1.761
v 1.904 0.65 -1.711
v 1.998 0.65 -1.581
v 1.998 0.65 -1.419
v 1.904 0.65 -1.289
v 1.75 0.65 -1.239
v 1.596 0.65 -1.289
v 1.502 0.65 -1.419
usemtl Iron
s off
f 1766 1765 1764 1763 1762 1761 1760 1759 1758 1757
f 1767 1768 1769 1770 1771 1772 1773 1774 1775 1776
f 1757 1758 1768 1767
f 1758 1759 1769 1768
f 1759 1760 1770 1769
f 1760 1761 1771 1770
f 1761 1762 1772 1771
f 1762 1763 1773 1772
f 1763 1764 1774 1773
f 1764 1765 1775 1774
f 1765 1766 1776 1775
f 1766 1757 1767 1776
o Barrel.Lid
v 1.557 0.75 -1.563
v 1.631 0.75 -1.664
v 1.75 0.75 -1.703
v 1.869 0.75 -1.664
v 1.943 0.75 -1.563
v 1.943 0.75 -1.437
v 1.869 0.75 -1.336
v 1.75 0.75 -1.297
v 1.631 0.75 -1.336
v 1.557 0.75 -1.437
v 1.557 0.77 -1.563
v 1.631 0.77 -1.664
v 1.75 0.77 -1.703
v 1.869 0.77 -1.664
v 1.943 0.77 -1.563
v 1.943 0.77 -1.437
v 1.869 0.77 -1.336
v 1.75 0.77 -1.297
v 1.631 0.77 -1.336
v 1.557 0.77 -1.437
usemtl WoodDark
s off
f 1786 1785 1784 1783 1782 1781 1780 1779 1778 1777
f 1787 1788 1789 1790 1791 1792 1793 1794 1795 1796
f 1777 1778 1788 1787
f 1778 1779 1789 1788
f 1779 1780 1790 1789
f 1780 1781 1791 1790
f 1781 1782 1792 1791
f 1782 1783 1793 1792
f 1783 1784 1794 1793
f 1784 1785 1795 1794
f 1785 1786 1796 1795
f 1786 1777 1787 1796
o Ivy
v 1.442 0.1 -1.21
v 1.49 0.1 -1.258
v 1.49 0.1 -1.322
v 1.442 0.1 -1.37
v 1.378 0.1 -1.37
v 1.33 0.1 -1.322
v 1.33 0.1 -1.258
v 1.378 0.1 -1.21
v 1.442 0.212 -1.21
v 1.49 0.212 -1.258
v 1.49 0.212 -1.322
v 1.442 0.212 -1.37
v 1.378 0.212 -1.37
v 1.33 0.212 -1.322
v 1.33 0.212 -1.258
v 1.378 0.212 -1.21
usemtl IvyDark
s off
f 1804 1803 1802 1801 1800 1799 1798 1797
f 1805 1806 1807 1808 1809 1810 1811 1812
f 1797 1798 1806 1805
f 1798 1799 1807 1806
f 1799 1800 1808 1807
f 1800 1801 1809 1808
f 1801 1802 1810 1809
f 1802 1803 1811 1810
f 1803 1804 1812 1811
f 1804 1797 1805 1812
o Ivy
v 1.556 0.27 -1.266
v 1.616 0.27 -1.326
v 1.616 0.27 -1.406
v 1.556 0.27 -1.466
v 1.476 0.27 -1.466
v 1.416 0.27 -1.406
v 1.416 0.27 -1.326
v 1.476 0.27 -1.266
v 1.556 0.41 -1.266
v 1.616 0.41 -1.326
v 1.616 0.41 -1.406
v 1.556 0.41 -1.466
v 1.476 0.41 -1.466
v 1.416 0.41 -1.406
v 1.416 0.41 -1.326
v 1.476 0.41 -1.266
usemtl Ivy
s off
f 1820 1819 1818 1817 1816 1815 1814 1813
f 1821 1822 1823 1824 1825 1826 1827 1828
f 1813 1814 1822 1821
f 1814 1815 1823 1822
f 1815 1816 1824 1823
f 1816 1817 1825 1824
f 1817 1818 1826 1825
f 1818 1819 1827 1826
f 1819 1820 1828 1827
f 1820 1813 1821 1828
o Ivy
v 1.601 0.44 -1.121
v 1.673 0.44 -1.193
v 1.673 0.44 -1.289
v 1.601 0.44 -1.361
v 1.505 0.44 -1.361
v 1.433 0.44 -1.289
v 1.433 0.44 -1.193
v 1.505 0.44 -1.121
v 1.601 0.608 -1.121
v 1.673 0.608 -1.193
v 1.673 0.608 -1.289
v 1.601 0.608 -1.361
v 1.505 0.608 -1.361
v 1.433 0.608 -1.289
v 1.433 0.608 -1.193
v 1.505 0.608 -1.121
usemtl IvyDark
s off
f 1836 1835 1834 1833 1832 1831 1830 1829
f 1837 1838 1839 1840 1841 1842 1843 1844
f 1829 1830 1838 1837
f 1830 1831 1839 1838
f 1831 1832 1840 1839
f 1832 1833 1841 1840
f 1833 1834 1842 1841
f 1834 1835 1843 1842
f 1835 1836 1844 1843
f 1836 1829 1837 1844
o Ivy
v 1.455 0.61 -1.166
v 1.503 0.61 -1.214
v 1.503 0.61 -1.278
v 1.455 0.61 -1.326
v 1.391 0.61 -1.326
v 1.343 0.61 -1.278
v 1.343 0.61 -1.214
v 1.391 0.61 -1.166
v 1.455 0.722 -1.166
v 1.503 0.722 -1.214
v 1.503 0.722 -1.278
v 1.455 0.722 -1.326
v 1.391 0.722 -1.326
v 1.343 0.722 -1.278
v 1.343 0.722 -1.214
v 1.391 0.722 -1.166
usemtl Ivy
s off
f 1852 1851 1850 1849 1848 1847 1846 1845
f 1853 1854 1855 1856 1857 1858 1859 1860
f 1845 1846 1854 1853
f 1846 1847 1855 1854
f 1847 1848 1856 1855
f 1848 1849 1857 1856
f 1849 1850 1858 1857
f 1850 1851 1859 1858
f 1851 1852 1860 1859
f 1852 1845 1853 1860
o Ivy
v 1.51 0.78 -1.267
v 1.57 0.78 -1.327
v 1.57 0.78 -1.407
v 1.51 0.78 -1.467
v 1.43 0.78 -1.467
v 1.37 0.78 -1.407
v 1.37 0.78 -1.327
v 1.43 0.78 -1.267
v 1.51 0.92 -1.267
v 1.57 0.92 -1.327
v 1.57 0.92 -1.407
v 1.51 0.92 -1.467
v 1.43 0.92 -1.467
v 1.37 0.92 -1.407
v 1.37 0.92 -1.327
v 1.43 0.92 -1.267
usemtl IvyDark
s off
f 1868 1867 1866 1865 1864 1863 1862 1861
f 1869 1870 1871 1872 1873 1874 1875 1876
f 1861 1862 1870 1869
f 1862 1863 1871 1870
f 1863 1864 1872 1871
f 1864 1865 1873 1872
f 1865 1866 1874 1873
f 1866 1867 1875 1874
f 1867 1868 1876 1875
f 1868 1861 1869 1876
o Ivy
v 1.618 0.95 -1.164
v 1.69 0.95 -1.236
v 1.69 0.95 -1.332
v 1.618 0.95 -1.404
v 1.522 0.95 -1.404
v 1.45 0.95 -1.332
v 1.45 0.95 -1.236
v 1.522 0.95 -1.164
v 1.618 1.118 -1.164
v 1.69 1.118 -1.236
v 1.69 1.118 -1.332
v 1.618 1.118 -1.404
v 1.522 1.118 -1.404
v 1.45 1.118 -1.332
v 1.45 1.118 -1.236
v 1.522 1.118 -1.164
usemtl Ivy
s off
f 1884 1883 1882 1881 1880 1879 1878 1877
f 1885 1886 1887 1888 1889 1890 1891 1892
f 1877 1878 1886 1885
f 1878 1879 1887 1886
f 1879 1880 1888 1887
f 1880 1881 1889 1888
f 1881 1882 1890 1889
f 1882 1883 1891 1890
f 1883 1884 1892 1891
f 1884 1877 1885 1892
o Ivy
v 1.491 1.12 -1.136
v 1.539 1.12 -1.184
v 1.539 1.12 -1.248
v 1.491 1.12 -1.296
v 1.427 1.12 -1.296
v 1.379 1.12 -1.248
v 1.379 1.12 -1.184
v 1.427 1.12 -1.136
v 1.491 1.232 -1.136
v 1.539 1.232 -1.184
v 1.539 1.232 -1.248
v 1.491 1.232 -1.296
v 1.427 1.232 -1.296
v 1.379 1.232 -1.248
v 1.379 1.232 -1.184
v 1.427 1.232 -1.136
usemtl IvyDark
s off
f 1900 1899 1898 1897 1896 1895 1894 1893
f 1901 1902 1903 1904 1905 1906 1907 1908
f 1893 1894 1902 1901
f 1894 1895 1903 1902
f 1895 1896 1904 1903
f 1896 1897 1905 1904
f 1897 1898 1906 1905
f 1898 1899 1907 1906
f 1899 1900 1908 1907
f 1900 1893 1901 1908
o Ivy
v 1.471 1.29 -1.244
v 1.531 1.29 -1.304
v 1.531 1.29 -1.384
v 1.471 1.29 -1.444
v 1.391 1.29 -1.444
v 1.331 1.29 -1.384
v 1.331 1.29 -1.304
v 1.391 1.29 -1.244
v 1.471 1.43 -1.244
v 1.531 1.43 -1.304
v 1.531 1.43 -1.384
v 1.471 1.43 -1.444
v 1.391 1.43 -1.444
v 1.331 1.43 -1.384
v 1.331 1.43 -1.304
v 1.391 1.43 -1.244
usemtl Ivy
s off
f 1916 1915 1914 1913 1912 1911 1910 1909
f 1917 1918 1919 1920 1921 1922 1923 1924
f 1909 1910 1918 1917
f 1910 1911 1919 1918
f 1911 1912 1920 1919
f 1912 1913 1921 1920
f 1913 1914 1922 1921
f 1914 1915 1923 1922
f 1915 1916 1924 1923
f 1916 1909 1917 1924
o Ivy
v 1.608 1.46 -1.209
v 1.68 1.46 -1.281
v 1.68 1.46 -1.377
v 1.608 1.46 -1.449
v 1.512 1.46 -1.449
v 1.44 1.46 -1.377
v 1.44 1.46 -1.281
v 1.512 1.46 -1.209
v 1.608 1.628 -1.209
v 1.68 1.628 -1.281
v 1.68 1.628 -1.377
v 1.608 1.628 -1.449
v 1.512 1.628 -1.449
v 1.44 1.628 -1.377
v 1.44 1.628 -1.281
v 1.512 1.628 -1.209
usemtl IvyDark
s off
f 1932 1931 1930 1929 1928 1927 1926 1925
f 1933 1934 1935 1936 1937 1938 1939 1940
f 1925 1926 1934 1933
f 1926 1927 1935 1934
f 1927 1928 1936 1935
f 1928 1929 1937 1936
f 1929 1930 1938 1937
f 1930 1931 1939 1938
f 1931 1932 1940 1939
f 1932 1925 1933 1940
o Ivy
v 1.536 1.63 -1.131
v 1.584 1.63 -1.179
v 1.584 1.63 -1.243
v 1.536 1.63 -1.291
v 1.472 1.63 -1.291
v 1.424 1.63 -1.243
v 1.424 1.63 -1.179
v 1.472 1.63 -1.131
v 1.536 1.742 -1.131
v 1.584 1.742 -1.179
v 1.584 1.742 -1.243
v 1.536 1.742 -1.291
v 1.472 1.742 -1.291
v 1.424 1.742 -1.243
v 1.424 1.742 -1.179
v 1.472 1.742 -1.131
usemtl Ivy
s off
f 1948 1947 1946 1945 1944 1943 1942 1941
f 1949 1950 1951 1952 1953 1954 1955 1956
f 1941 1942 1950 1949
f 1942 1943 1951 1950
f 1943 1944 1952 1951
f 1944 1945 1953 1952
f 1945 1946 1954 1953
f 1946 1947 1955 1954
f 1947 1948 1956 1955
f 1948 1941 1949 1956
o Ivy
v 1.451 1.8 -1.202
v 1.511 1.8 -1.262
v 1.511 1.8 -1.342
v 1.451 1.8 -1.402
v 1.371 1.8 -1.402
v 1.311 1.8 -1.342
v 1.311 1.8 -1.262
v 1.371 1.8 -1.202
v 1.451 1.94 -1.202
v 1.511 1.94 -1.262
v 1.511 1.94 -1.342
v 1.451 1.94 -1.402
v 1.371 1.94 -1.402
v 1.311 1.94 -1.342
v 1.311 1.94 -1.262
v 1.371 1.94 -1.202
usemtl IvyDark
s off
f 1964 1963 1962 1961 1960 1959 1958 1957
f 1965 1966 1967 1968 1969 1970 1971 1972
f 1957 1958 1966 1965
f 1958 1959 1967 1966
f 1959 1960 1968 1967
f 1960 1961 1969 1968
f 1961 1962 1970 1969
f 1962 1963 1971 1970
f 1963 1964 1972 1971
f 1964 1957 1965 1972
o Ivy
v 1.575 1.97 -1.241
v 1.647 1.97 -1.313
v 1.647 1.97 -1.409
v 1.575 1.97 -1.481
v 1.479 1.97 -1.481
v 1.407 1.97 -1.409
v 1.407 1.97 -1.313
v 1.479 1.97 -1.241
v 1.575 2.138 -1.241
v 1.647 2.138 -1.313
v 1.647 2.138 -1.409
v 1.575 2.138 -1.481
v 1.479 2.138 -1.481
v 1.407 2.138 -1.409
v 1.407 2.138 -1.313
v 1.479 2.138 -1.241
usemtl Ivy
s off
f 1980 1979 1978 1977 1976 1975 1974 1973
f 1981 1982 1983 1984 1985 1986 1987 1988
f 1973 1974 1982 1981
f 1974 1975 1983 1982
f 1975 1976 1984 1983
f 1976 1977 1985 1984
f 1977 1978 1986 1985
f 1978 1979 1987 1986
f 1979 1980 1988 1987
f 1980 1973 1981 1988
