# house.obj - Haus fuer procedurally-generated-map
# Einheiten: Meter (1 Tile = 5 m, Tueren 2.1 m, ein Dorfbewohner 1.75 m), Y oben,
# Vorderseite nach +Z - so wie Blender ein Modell exportiert, das in der
# Vorderansicht zum Betrachter schaut.
# Material Paint (das Dach) bekommt die Gebaeudefarbe aus dem Spiel.
mtllib house.mtl
o Plinth
v -1.7800 0.0000 -1.4800
v -1.7800 0.0000 1.4800
v 1.7800 0.0000 1.4800
v 1.7800 0.0000 -1.4800
v -1.7800 0.3500 -1.4800
v -1.7800 0.3500 1.4800
v 1.7800 0.3500 1.4800
v 1.7800 0.3500 -1.4800
usemtl Stone
s off
f 4 3 2 1
f 5 6 7 8
f 1 2 6 5
f 2 3 7 6
f 3 4 8 7
f 4 1 5 8
o Plinth.Stone
v -1.7500 0.0400 1.4700
v -1.7500 0.0400 1.5100
v -1.3700 0.0400 1.5100
v -1.3700 0.0400 1.4700
v -1.7500 0.2800 1.4700
v -1.7500 0.2800 1.5100
v -1.3700 0.2800 1.5100
v -1.3700 0.2800 1.4700
usemtl StoneDark
s off
f 12 11 10 9
f 13 14 15 16
f 9 10 14 13
f 10 11 15 14
f 11 12 16 15
f 12 9 13 16
o Plinth.Stone
v -1.2300 0.0900 1.4700
v -1.2300 0.0900 1.5100
v -0.8500 0.0900 1.5100
v -0.8500 0.0900 1.4700
v -1.2300 0.2500 1.4700
v -1.2300 0.2500 1.5100
v -0.8500 0.2500 1.5100
v -0.8500 0.2500 1.4700
usemtl StoneDark
s off
f 20 19 18 17
f 21 22 23 24
f 17 18 22 21
f 18 19 23 22
f 19 20 24 23
f 20 17 21 24
o Plinth.Stone
v -0.7100 0.0400 1.4700
v -0.7100 0.0400 1.5100
v -0.3300 0.0400 1.5100
v -0.3300 0.0400 1.4700
v -0.7100 0.2200 1.4700
v -0.7100 0.2200 1.5100
v -0.3300 0.2200 1.5100
v -0.3300 0.2200 1.4700
usemtl StoneDark
s off
f 28 27 26 25
f 29 30 31 32
f 25 26 30 29
f 26 27 31 30
f 27 28 32 31
f 28 25 29 32
o Plinth.Stone
v -0.1900 0.0900 1.4700
v -0.1900 0.0900 1.5100
v 0.1900 0.0900 1.5100
v 0.1900 0.0900 1.4700
v -0.1900 0.2800 1.4700
v -0.1900 0.2800 1.5100
v 0.1900 0.2800 1.5100
v 0.1900 0.2800 1.4700
usemtl StoneDark
s off
f 36 35 34 33
f 37 38 39 40
f 33 34 38 37
f 34 35 39 38
f 35 36 40 39
f 36 33 37 40
o Plinth.Stone
v 0.3300 0.0400 1.4700
v 0.3300 0.0400 1.5100
v 0.7100 0.0400 1.5100
v 0.7100 0.0400 1.4700
v 0.3300 0.2500 1.4700
v 0.3300 0.2500 1.5100
v 0.7100 0.2500 1.5100
v 0.7100 0.2500 1.4700
usemtl StoneDark
s off
f 44 43 42 41
f 45 46 47 48
f 41 42 46 45
f 42 43 47 46
f 43 44 48 47
f 44 41 45 48
o Plinth.Stone
v 0.8500 0.0900 1.4700
v 0.8500 0.0900 1.5100
v 1.2300 0.0900 1.5100
v 1.2300 0.0900 1.4700
v 0.8500 0.2200 1.4700
v 0.8500 0.2200 1.5100
v 1.2300 0.2200 1.5100
v 1.2300 0.2200 1.4700
usemtl StoneDark
s off
f 52 51 50 49
f 53 54 55 56
f 49 50 54 53
f 50 51 55 54
f 51 52 56 55
f 52 49 53 56
o Plinth.Stone
v 1.3700 0.0400 1.4700
v 1.3700 0.0400 1.5100
v 1.7500 0.0400 1.5100
v 1.7500 0.0400 1.4700
v 1.3700 0.2800 1.4700
v 1.3700 0.2800 1.5100
v 1.7500 0.2800 1.5100
v 1.7500 0.2800 1.4700
usemtl StoneDark
s off
f 60 59 58 57
f 61 62 63 64
f 57 58 62 61
f 58 59 63 62
f 59 60 64 63
f 60 57 61 64
o Walls
v -1.7000 0.3500 -1.4000
v -1.7000 0.3500 1.4000
v 1.7000 0.3500 1.4000
v 1.7000 0.3500 -1.4000
v -1.7000 2.7800 -1.4000
v -1.7000 2.7800 1.4000
v 1.7000 2.7800 1.4000
v 1.7000 2.7800 -1.4000
usemtl Plaster
s off
f 68 67 66 65
f 69 70 71 72
f 65 66 70 69
f 66 67 71 70
f 67 68 72 71
f 68 65 69 72
o Timber.Post
v -1.7500 0.3500 -1.4500
v -1.7500 0.3500 -1.3200
v -1.6200 0.3500 -1.3200
v -1.6200 0.3500 -1.4500
v -1.7500 2.7800 -1.4500
v -1.7500 2.7800 -1.3200
v -1.6200 2.7800 -1.3200
v -1.6200 2.7800 -1.4500
usemtl Timber
s off
f 76 75 74 73
f 77 78 79 80
f 73 74 78 77
f 74 75 79 78
f 75 76 80 79
f 76 73 77 80
o Timber.Post
v -1.7500 0.3500 1.3200
v -1.7500 0.3500 1.4500
v -1.6200 0.3500 1.4500
v -1.6200 0.3500 1.3200
v -1.7500 2.7800 1.3200
v -1.7500 2.7800 1.4500
v -1.6200 2.7800 1.4500
v -1.6200 2.7800 1.3200
usemtl Timber
s off
f 84 83 82 81
f 85 86 87 88
f 81 82 86 85
f 82 83 87 86
f 83 84 88 87
f 84 81 85 88
o Timber.Post
v 1.6200 0.3500 -1.4500
v 1.6200 0.3500 -1.3200
v 1.7500 0.3500 -1.3200
v 1.7500 0.3500 -1.4500
v 1.6200 2.7800 -1.4500
v 1.6200 2.7800 -1.3200
v 1.7500 2.7800 -1.3200
v 1.7500 2.7800 -1.4500
usemtl Timber
s off
f 92 91 90 89
f 93 94 95 96
f 89 90 94 93
f 90 91 95 94
f 91 92 96 95
f 92 89 93 96
o Timber.Post
v 1.6200 0.3500 1.3200
v 1.6200 0.3500 1.4500
v 1.7500 0.3500 1.4500
v 1.7500 0.3500 1.3200
v 1.6200 2.7800 1.3200
v 1.6200 2.7800 1.4500
v 1.7500 2.7800 1.4500
v 1.7500 2.7800 1.3200
usemtl Timber
s off
f 100 99 98 97
f 101 102 103 104
f 97 98 102 101
f 98 99 103 102
f 99 100 104 103
f 100 97 101 104
o Timber.Sill
v -1.7000 0.3500 1.4000
v -1.7000 0.3500 1.4500
v 1.7000 0.3500 1.4500
v 1.7000 0.3500 1.4000
v -1.7000 0.4900 1.4000
v -1.7000 0.4900 1.4500
v 1.7000 0.4900 1.4500
v 1.7000 0.4900 1.4000
usemtl Timber
s off
f 108 107 106 105
f 109 110 111 112
f 105 106 110 109
f 106 107 111 110
f 107 108 112 111
f 108 105 109 112
o Timber.Plate
v -1.7000 2.6200 1.4000
v -1.7000 2.6200 1.4500
v 1.7000 2.6200 1.4500
v 1.7000 2.6200 1.4000
v -1.7000 2.7800 1.4000
v -1.7000 2.7800 1.4500
v 1.7000 2.7800 1.4500
v 1.7000 2.7800 1.4000
usemtl Timber
s off
f 116 115 114 113
f 117 118 119 120
f 113 114 118 117
f 114 115 119 118
f 115 116 120 119
f 116 113 117 120
o Timber.Sill
v -1.7000 0.3500 -1.4500
v -1.7000 0.3500 -1.4000
v 1.7000 0.3500 -1.4000
v 1.7000 0.3500 -1.4500
v -1.7000 0.4900 -1.4500
v -1.7000 0.4900 -1.4000
v 1.7000 0.4900 -1.4000
v 1.7000 0.4900 -1.4500
usemtl Timber
s off
f 124 123 122 121
f 125 126 127 128
f 121 122 126 125
f 122 123 127 126
f 123 124 128 127
f 124 121 125 128
o Timber.Plate
v -1.7000 2.6200 -1.4500
v -1.7000 2.6200 -1.4000
v 1.7000 2.6200 -1.4000
v 1.7000 2.6200 -1.4500
v -1.7000 2.7800 -1.4500
v -1.7000 2.7800 -1.4000
v 1.7000 2.7800 -1.4000
v 1.7000 2.7800 -1.4500
usemtl Timber
s off
f 132 131 130 129
f 133 134 135 136
f 129 130 134 133
f 130 131 135 134
f 131 132 136 135
f 132 129 133 136
o Timber.Sill
v -1.7500 0.3500 -1.4000
v -1.7500 0.3500 1.4000
v -1.7000 0.3500 1.4000
v -1.7000 0.3500 -1.4000
v -1.7500 0.4900 -1.4000
v -1.7500 0.4900 1.4000
v -1.7000 0.4900 1.4000
v -1.7000 0.4900 -1.4000
usemtl Timber
s off
f 140 139 138 137
f 141 142 143 144
f 137 138 142 141
f 138 139 143 142
f 139 140 144 143
f 140 137 141 144
o Timber.Plate
v -1.7500 2.6200 -1.4000
v -1.7500 2.6200 1.4000
v -1.7000 2.6200 1.4000
v -1.7000 2.6200 -1.4000
v -1.7500 2.7800 -1.4000
v -1.7500 2.7800 1.4000
v -1.7000 2.7800 1.4000
v -1.7000 2.7800 -1.4000
usemtl Timber
s off
f 148 147 146 145
f 149 150 151 152
f 145 146 150 149
f 146 147 151 150
f 147 148 152 151
f 148 145 149 152
o Timber.Rail
v -1.7500 1.6600 -1.4000
v -1.7500 1.6600 1.4000
v -1.7000 1.6600 1.4000
v -1.7000 1.6600 -1.4000
v -1.7500 1.7800 -1.4000
v -1.7500 1.7800 1.4000
v -1.7000 1.7800 1.4000
v -1.7000 1.7800 -1.4000
usemtl Timber
s off
f 156 155 154 153
f 157 158 159 160
f 153 154 158 157
f 154 155 159 158
f 155 156 160 159
f 156 153 157 160
o Timber.Stud
v -1.7500 0.3500 -0.0600
v -1.7500 0.3500 0.0600
v -1.7000 0.3500 0.0600
v -1.7000 0.3500 -0.0600
v -1.7500 2.7800 -0.0600
v -1.7500 2.7800 0.0600
v -1.7000 2.7800 0.0600
v -1.7000 2.7800 -0.0600
usemtl Timber
s off
f 164 163 162 161
f 165 166 167 168
f 161 162 166 165
f 162 163 167 166
f 163 164 168 167
f 164 161 165 168
o Timber.Sill
v 1.7000 0.3500 -1.4000
v 1.7000 0.3500 1.4000
v 1.7500 0.3500 1.4000
v 1.7500 0.3500 -1.4000
v 1.7000 0.4900 -1.4000
v 1.7000 0.4900 1.4000
v 1.7500 0.4900 1.4000
v 1.7500 0.4900 -1.4000
usemtl Timber
s off
f 172 171 170 169
f 173 174 175 176
f 169 170 174 173
f 170 171 175 174
f 171 172 176 175
f 172 169 173 176
o Timber.Plate
v 1.7000 2.6200 -1.4000
v 1.7000 2.6200 1.4000
v 1.7500 2.6200 1.4000
v 1.7500 2.6200 -1.4000
v 1.7000 2.7800 -1.4000
v 1.7000 2.7800 1.4000
v 1.7500 2.7800 1.4000
v 1.7500 2.7800 -1.4000
usemtl Timber
s off
f 180 179 178 177
f 181 182 183 184
f 177 178 182 181
f 178 179 183 182
f 179 180 184 183
f 180 177 181 184
o Timber.Rail
v 1.7000 1.6600 -1.4000
v 1.7000 1.6600 1.4000
v 1.7500 1.6600 1.4000
v 1.7500 1.6600 -1.4000
v 1.7000 1.7800 -1.4000
v 1.7000 1.7800 1.4000
v 1.7500 1.7800 1.4000
v 1.7500 1.7800 -1.4000
usemtl Timber
s off
f 188 187 186 185
f 189 190 191 192
f 185 186 190 189
f 186 187 191 190
f 187 188 192 191
f 188 185 189 192
o Timber.Stud
v 1.7000 0.3500 -0.0600
v 1.7000 0.3500 0.0600
v 1.7500 0.3500 0.0600
v 1.7500 0.3500 -0.0600
v 1.7000 2.7800 -0.0600
v 1.7000 2.7800 0.0600
v 1.7500 2.7800 0.0600
v 1.7500 2.7800 -0.0600
usemtl Timber
s off
f 196 195 194 193
f 197 198 199 200
f 193 194 198 197
f 194 195 199 198
f 195 196 200 199
f 196 193 197 200
o Timber.Rail
v -1.7000 1.6600 1.4000
v -1.7000 1.6600 1.4500
v -0.5800 1.6600 1.4500
v -0.5800 1.6600 1.4000
v -1.7000 1.7800 1.4000
v -1.7000 1.7800 1.4500
v -0.5800 1.7800 1.4500
v -0.5800 1.7800 1.4000
usemtl Timber
s off
f 204 203 202 201
f 205 206 207 208
f 201 202 206 205
f 202 203 207 206
f 203 204 208 207
f 204 201 205 208
o Timber.Rail
v 0.5800 1.6600 1.4000
v 0.5800 1.6600 1.4500
v 1.7000 1.6600 1.4500
v 1.7000 1.6600 1.4000
v 0.5800 1.7800 1.4000
v 0.5800 1.7800 1.4500
v 1.7000 1.7800 1.4500
v 1.7000 1.7800 1.4000
usemtl Timber
s off
f 212 211 210 209
f 213 214 215 216
f 209 210 214 213
f 210 211 215 214
f 211 212 216 215
f 212 209 213 216
o Timber.Rail
v -1.7000 1.6600 -1.4500
v -1.7000 1.6600 -1.4000
v 1.7000 1.6600 -1.4000
v 1.7000 1.6600 -1.4500
v -1.7000 1.7800 -1.4500
v -1.7000 1.7800 -1.4000
v 1.7000 1.7800 -1.4000
v 1.7000 1.7800 -1.4500
usemtl Timber
s off
f 220 219 218 217
f 221 222 223 224
f 217 218 222 221
f 218 219 223 222
f 219 220 224 223
f 220 217 221 224
o Timber.Brace
v -1.6425 1.8063 1.4750
v -1.6425 1.8063 1.3750
v -1.5575 1.7537 1.3750
v -1.5575 1.7537 1.4750
v -1.1225 2.6463 1.4750
v -1.1225 2.6463 1.3750
v -1.0375 2.5937 1.3750
v -1.0375 2.5937 1.4750
usemtl Timber
s off
f 228 227 226 225
f 229 230 231 232
f 225 226 230 229
f 226 227 231 230
f 227 228 232 231
f 228 225 229 232
o Timber.Brace
v -0.5761 1.8040 1.3750
v -0.5761 1.8040 1.4750
v -0.6639 1.7560 1.4750
v -0.6639 1.7560 1.3750
v -1.0361 2.6440 1.3750
v -1.0361 2.6440 1.4750
v -1.1239 2.5960 1.4750
v -1.1239 2.5960 1.3750
usemtl Timber
s off
f 236 235 234 233
f 237 238 239 240
f 233 234 238 237
f 234 235 239 238
f 235 236 240 239
f 236 233 237 240
o Timber.Brace
v -1.6425 1.8063 -1.3750
v -1.6425 1.8063 -1.4750
v -1.5575 1.7537 -1.4750
v -1.5575 1.7537 -1.3750
v -1.1225 2.6463 -1.3750
v -1.1225 2.6463 -1.4750
v -1.0375 2.5937 -1.4750
v -1.0375 2.5937 -1.3750
usemtl Timber
s off
f 244 243 242 241
f 245 246 247 248
f 241 242 246 245
f 242 243 247 246
f 243 244 248 247
f 244 241 245 248
o Timber.Brace
v -0.5761 1.8040 -1.4750
v -0.5761 1.8040 -1.3750
v -0.6639 1.7560 -1.3750
v -0.6639 1.7560 -1.4750
v -1.0361 2.6440 -1.4750
v -1.0361 2.6440 -1.3750
v -1.1239 2.5960 -1.3750
v -1.1239 2.5960 -1.4750
usemtl Timber
s off
f 252 251 250 249
f 253 254 255 256
f 249 250 254 253
f 250 251 255 254
f 251 252 256 255
f 252 249 253 256
o Timber.Brace
v -1.7750 0.5168 -1.3922
v -1.6750 0.5168 -1.3922
v -1.6750 0.4632 -1.3078
v -1.7750 0.4632 -1.3078
v -1.7750 1.6868 -0.6497
v -1.6750 1.6868 -0.6497
v -1.6750 1.6332 -0.5653
v -1.7750 1.6332 -0.5653
usemtl Timber
s off
f 260 259 258 257
f 261 262 263 264
f 257 258 262 261
f 258 259 263 262
f 259 260 264 263
f 260 257 261 264
o Timber.Brace
v -1.6750 0.5168 1.3922
v -1.7750 0.5168 1.3922
v -1.7750 0.4632 1.3078
v -1.6750 0.4632 1.3078
v -1.6750 1.6868 0.6497
v -1.7750 1.6868 0.6497
v -1.7750 1.6332 0.5653
v -1.6750 1.6332 0.5653
usemtl Timber
s off
f 268 267 266 265
f 269 270 271 272
f 265 266 270 269
f 266 267 271 270
f 267 268 272 271
f 268 265 269 272
o Timber.Brace
v 1.6425 1.8063 1.3750
v 1.6425 1.8063 1.4750
v 1.5575 1.7537 1.4750
v 1.5575 1.7537 1.3750
v 1.1225 2.6463 1.3750
v 1.1225 2.6463 1.4750
v 1.0375 2.5937 1.4750
v 1.0375 2.5937 1.3750
usemtl Timber
s off
f 276 275 274 273
f 277 278 279 280
f 273 274 278 277
f 274 275 279 278
f 275 276 280 279
f 276 273 277 280
o Timber.Brace
v 0.5761 1.8040 1.4750
v 0.5761 1.8040 1.3750
v 0.6639 1.7560 1.3750
v 0.6639 1.7560 1.4750
v 1.0361 2.6440 1.4750
v 1.0361 2.6440 1.3750
v 1.1239 2.5960 1.3750
v 1.1239 2.5960 1.4750
usemtl Timber
s off
f 284 283 282 281
f 285 286 287 288
f 281 282 286 285
f 282 283 287 286
f 283 284 288 287
f 284 281 285 288
o Timber.Brace
v 1.6425 1.8063 -1.4750
v 1.6425 1.8063 -1.3750
v 1.5575 1.7537 -1.3750
v 1.5575 1.7537 -1.4750
v 1.1225 2.6463 -1.4750
v 1.1225 2.6463 -1.3750
v 1.0375 2.5937 -1.3750
v 1.0375 2.5937 -1.4750
usemtl Timber
s off
f 292 291 290 289
f 293 294 295 296
f 289 290 294 293
f 290 291 295 294
f 291 292 296 295
f 292 289 293 296
o Timber.Brace
v 0.5761 1.8040 -1.3750
v 0.5761 1.8040 -1.4750
v 0.6639 1.7560 -1.4750
v 0.6639 1.7560 -1.3750
v 1.0361 2.6440 -1.3750
v 1.0361 2.6440 -1.4750
v 1.1239 2.5960 -1.4750
v 1.1239 2.5960 -1.3750
usemtl Timber
s off
f 300 299 298 297
f 301 302 303 304
f 297 298 302 301
f 298 299 303 302
f 299 300 304 303
f 300 297 301 304
o Timber.Brace
v 1.6750 0.5168 -1.3922
v 1.7750 0.5168 -1.3922
v 1.7750 0.4632 -1.3078
v 1.6750 0.4632 -1.3078
v 1.6750 1.6868 -0.6497
v 1.7750 1.6868 -0.6497
v 1.7750 1.6332 -0.5653
v 1.6750 1.6332 -0.5653
usemtl Timber
s off
f 308 307 306 305
f 309 310 311 312
f 305 306 310 309
f 306 307 311 310
f 307 308 312 311
f 308 305 309 312
o Timber.Brace
v 1.7750 0.5168 1.3922
v 1.6750 0.5168 1.3922
v 1.6750 0.4632 1.3078
v 1.7750 0.4632 1.3078
v 1.7750 1.6868 0.6497
v 1.6750 1.6868 0.6497
v 1.6750 1.6332 0.5653
v 1.7750 1.6332 0.5653
usemtl Timber
s off
f 316 315 314 313
f 317 318 319 320
f 313 314 318 317
f 314 315 319 318
f 315 316 320 319
f 316 313 317 320
o Door
v -0.4500 0.3500 1.4000
v -0.4500 0.3500 1.4600
v 0.4500 0.3500 1.4600
v 0.4500 0.3500 1.4000
v -0.4500 2.4500 1.4000
v -0.4500 2.4500 1.4600
v 0.4500 2.4500 1.4600
v 0.4500 2.4500 1.4000
usemtl Wood
s off
f 324 323 322 321
f 325 326 327 328
f 321 322 326 325
f 322 323 327 326
f 323 324 328 327
f 324 321 325 328
o Door.Seam
v -0.2370 0.3900 1.4600
v -0.2370 0.3900 1.4680
v -0.2130 0.3900 1.4680
v -0.2130 0.3900 1.4600
v -0.2370 2.4100 1.4600
v -0.2370 2.4100 1.4680
v -0.2130 2.4100 1.4680
v -0.2130 2.4100 1.4600
usemtl WoodDark
s off
f 332 331 330 329
f 333 334 335 336
f 329 330 334 333
f 330 331 335 334
f 331 332 336 335
f 332 329 333 336
o Door.Seam
v -0.0120 0.3900 1.4600
v -0.0120 0.3900 1.4680
v 0.0120 0.3900 1.4680
v 0.0120 0.3900 1.4600
v -0.0120 2.4100 1.4600
v -0.0120 2.4100 1.4680
v 0.0120 2.4100 1.4680
v 0.0120 2.4100 1.4600
usemtl WoodDark
s off
f 340 339 338 337
f 341 342 343 344
f 337 338 342 341
f 338 339 343 342
f 339 340 344 343
f 340 337 341 344
o Door.Seam
v 0.2130 0.3900 1.4600
v 0.2130 0.3900 1.4680
v 0.2370 0.3900 1.4680
v 0.2370 0.3900 1.4600
v 0.2130 2.4100 1.4600
v 0.2130 2.4100 1.4680
v 0.2370 2.4100 1.4680
v 0.2370 2.4100 1.4600
usemtl WoodDark
s off
f 348 347 346 345
f 349 350 351 352
f 345 346 350 349
f 346 347 351 350
f 347 348 352 351
f 348 345 349 352
o Door.Hinge
v -0.4200 0.7000 1.4600
v -0.4200 0.7000 1.4750
v 0.1800 0.7000 1.4750
v 0.1800 0.7000 1.4600
v -0.4200 0.7600 1.4600
v -0.4200 0.7600 1.4750
v 0.1800 0.7600 1.4750
v 0.1800 0.7600 1.4600
usemtl Iron
s off
f 356 355 354 353
f 357 358 359 360
f 353 354 358 357
f 354 355 359 358
f 355 356 360 359
f 356 353 357 360
o Door.Hinge
v -0.4200 2.0000 1.4600
v -0.4200 2.0000 1.4750
v 0.1800 2.0000 1.4750
v 0.1800 2.0000 1.4600
v -0.4200 2.0600 1.4600
v -0.4200 2.0600 1.4750
v 0.1800 2.0600 1.4750
v 0.1800 2.0600 1.4600
usemtl Iron
s off
f 364 363 362 361
f 365 366 367 368
f 361 362 366 365
f 362 363 367 366
f 363 364 368 367
f 364 361 365 368
o Door.Handle
v 0.2910 1.3370 1.4600
v 0.2700 1.3370 1.4720
v 0.2700 1.3370 1.4880
v 0.2910 1.3370 1.5000
v 0.3190 1.3370 1.5000
v 0.3400 1.3370 1.4880
v 0.3400 1.3370 1.4720
v 0.3190 1.3370 1.4600
v 0.2910 1.4270 1.4600
v 0.2700 1.4270 1.4720
v 0.2700 1.4270 1.4880
v 0.2910 1.4270 1.5000
v 0.3190 1.4270 1.5000
v 0.3400 1.4270 1.4880
v 0.3400 1.4270 1.4720
v 0.3190 1.4270 1.4600
usemtl Iron
s off
f 376 375 374 373 372 371 370 369
f 377 378 379 380 381 382 383 384
f 369 370 378 377
f 370 371 379 378
f 371 372 380 379
f 372 373 381 380
f 373 374 382 381
f 374 375 383 382
f 375 376 384 383
f 376 369 377 384
o Door.Frame
v -0.5800 0.3500 1.4000
v -0.5800 0.3500 1.4900
v -0.4500 0.3500 1.4900
v -0.4500 0.3500 1.4000
v -0.5800 2.6000 1.4000
v -0.5800 2.6000 1.4900
v -0.4500 2.6000 1.4900
v -0.4500 2.6000 1.4000
usemtl Timber
s off
f 388 387 386 385
f 389 390 391 392
f 385 386 390 389
f 386 387 391 390
f 387 388 392 391
f 388 385 389 392
o Door.Frame
v 0.4500 0.3500 1.4000
v 0.4500 0.3500 1.4900
v 0.5800 0.3500 1.4900
v 0.5800 0.3500 1.4000
v 0.4500 2.6000 1.4000
v 0.4500 2.6000 1.4900
v 0.5800 2.6000 1.4900
v 0.5800 2.6000 1.4000
usemtl Timber
s off
f 396 395 394 393
f 397 398 399 400
f 393 394 398 397
f 394 395 399 398
f 395 396 400 399
f 396 393 397 400
o Door.Frame
v -0.5800 2.4500 1.4000
v -0.5800 2.4500 1.5000
v 0.5800 2.4500 1.5000
v 0.5800 2.4500 1.4000
v -0.5800 2.6000 1.4000
v -0.5800 2.6000 1.5000
v 0.5800 2.6000 1.5000
v 0.5800 2.6000 1.4000
usemtl Timber
s off
f 404 403 402 401
f 405 406 407 408
f 401 402 406 405
f 402 403 407 406
f 403 404 408 407
f 404 401 405 408
o Step
v -0.5280 0.0000 1.4800
v -0.6600 0.0000 1.5270
v -0.6600 0.0000 1.9030
v -0.5280 0.0000 1.9500
v 0.5280 0.0000 1.9500
v 0.6600 0.0000 1.9030
v 0.6600 0.0000 1.5270
v 0.5280 0.0000 1.4800
v -0.5280 0.2000 1.4800
v -0.6600 0.2000 1.5270
v -0.6600 0.2000 1.9030
v -0.5280 0.2000 1.9500
v 0.5280 0.2000 1.9500
v 0.6600 0.2000 1.9030
v 0.6600 0.2000 1.5270
v 0.5280 0.2000 1.4800
usemtl Stone
s off
f 416 415 414 413 412 411 410 409
f 417 418 419 420 421 422 423 424
f 409 410 418 417
f 410 411 419 418
f 411 412 420 419
f 412 413 421 420
f 413 414 422 421
f 414 415 423 422
f 415 416 424 423
f 416 409 417 424
o Window.Glass
v -1.3800 1.0200 1.4000
v -1.3800 1.0200 1.4200
v -0.9200 1.0200 1.4200
v -0.9200 1.0200 1.4000
v -1.3800 1.5600 1.4000
v -1.3800 1.5600 1.4200
v -0.9200 1.5600 1.4200
v -0.9200 1.5600 1.4000
usemtl Glass
s off
f 428 427 426 425
f 429 430 431 432
f 425 426 430 429
f 426 427 431 430
f 427 428 432 431
f 428 425 429 432
o Window.Frame
v -1.4500 1.0200 1.4000
v -1.4500 1.0200 1.4700
v -1.3800 1.0200 1.4700
v -1.3800 1.0200 1.4000
v -1.4500 1.5600 1.4000
v -1.4500 1.5600 1.4700
v -1.3800 1.5600 1.4700
v -1.3800 1.5600 1.4000
usemtl Timber
s off
f 436 435 434 433
f 437 438 439 440
f 433 434 438 437
f 434 435 439 438
f 435 436 440 439
f 436 433 437 440
o Window.Frame
v -0.9200 1.0200 1.4000
v -0.9200 1.0200 1.4700
v -0.8500 1.0200 1.4700
v -0.8500 1.0200 1.4000
v -0.9200 1.5600 1.4000
v -0.9200 1.5600 1.4700
v -0.8500 1.5600 1.4700
v -0.8500 1.5600 1.4000
usemtl Timber
s off
f 444 443 442 441
f 445 446 447 448
f 441 442 446 445
f 442 443 447 446
f 443 444 448 447
f 444 441 445 448
o Window.Frame
v -1.4500 1.5600 1.4000
v -1.4500 1.5600 1.4800
v -0.8500 1.5600 1.4800
v -0.8500 1.5600 1.4000
v -1.4500 1.6400 1.4000
v -1.4500 1.6400 1.4800
v -0.8500 1.6400 1.4800
v -0.8500 1.6400 1.4000
usemtl Timber
s off
f 452 451 450 449
f 453 454 455 456
f 449 450 454 453
f 450 451 455 454
f 451 452 456 455
f 452 449 453 456
o Window.Bar
v -1.1700 1.0200 1.4200
v -1.1700 1.0200 1.4500
v -1.1300 1.0200 1.4500
v -1.1300 1.0200 1.4200
v -1.1700 1.5600 1.4200
v -1.1700 1.5600 1.4500
v -1.1300 1.5600 1.4500
v -1.1300 1.5600 1.4200
usemtl Timber
s off
f 460 459 458 457
f 461 462 463 464
f 457 458 462 461
f 458 459 463 462
f 459 460 464 463
f 460 457 461 464
o Window.Bar
v -1.3800 1.2700 1.4200
v -1.3800 1.2700 1.4500
v -0.9200 1.2700 1.4500
v -0.9200 1.2700 1.4200
v -1.3800 1.3100 1.4200
v -1.3800 1.3100 1.4500
v -0.9200 1.3100 1.4500
v -0.9200 1.3100 1.4200
usemtl Timber
s off
f 468 467 466 465
f 469 470 471 472
f 465 466 470 469
f 466 467 471 470
f 467 468 472 471
f 468 465 469 472
o Window.Sill
v -1.4800 0.9500 1.4000
v -1.4800 0.9500 1.5400
v -0.8200 0.9500 1.5400
v -0.8200 0.9500 1.4000
v -1.4800 1.0200 1.4000
v -1.4800 1.0200 1.5400
v -0.8200 1.0200 1.5400
v -0.8200 1.0200 1.4000
usemtl Wood
s off
f 476 475 474 473
f 477 478 479 480
f 473 474 478 477
f 474 475 479 478
f 475 476 480 479
f 476 473 477 480
o Window.Shutter
v -1.6800 1.0200 1.4000
v -1.6800 1.0200 1.4400
v -1.4500 1.0200 1.4400
v -1.4500 1.0200 1.4000
v -1.6800 1.5600 1.4000
v -1.6800 1.5600 1.4400
v -1.4500 1.5600 1.4400
v -1.4500 1.5600 1.4000
usemtl Shutter
s off
f 484 483 482 481
f 485 486 487 488
f 481 482 486 485
f 482 483 487 486
f 483 484 488 487
f 484 481 485 488
o Window.Shutter.Seam
v -1.5750 1.0500 1.4400
v -1.5750 1.0500 1.4500
v -1.5550 1.0500 1.4500
v -1.5550 1.0500 1.4400
v -1.5750 1.5300 1.4400
v -1.5750 1.5300 1.4500
v -1.5550 1.5300 1.4500
v -1.5550 1.5300 1.4400
usemtl Timber
s off
f 492 491 490 489
f 493 494 495 496
f 489 490 494 493
f 490 491 495 494
f 491 492 496 495
f 492 489 493 496
o Window.Shutter
v -0.8500 1.0200 1.4000
v -0.8500 1.0200 1.4400
v -0.6200 1.0200 1.4400
v -0.6200 1.0200 1.4000
v -0.8500 1.5600 1.4000
v -0.8500 1.5600 1.4400
v -0.6200 1.5600 1.4400
v -0.6200 1.5600 1.4000
usemtl Shutter
s off
f 500 499 498 497
f 501 502 503 504
f 497 498 502 501
f 498 499 503 502
f 499 500 504 503
f 500 497 501 504
o Window.Shutter.Seam
v -0.7450 1.0500 1.4400
v -0.7450 1.0500 1.4500
v -0.7250 1.0500 1.4500
v -0.7250 1.0500 1.4400
v -0.7450 1.5300 1.4400
v -0.7450 1.5300 1.4500
v -0.7250 1.5300 1.4500
v -0.7250 1.5300 1.4400
usemtl Timber
s off
f 508 507 506 505
f 509 510 511 512
f 505 506 510 509
f 506 507 511 510
f 507 508 512 511
f 508 505 509 512
o Window.Box
v -1.4300 0.8300 1.4200
v -1.4300 0.8300 1.6000
v -0.8700 0.8300 1.6000
v -0.8700 0.8300 1.4200
v -1.4300 0.9500 1.4200
v -1.4300 0.9500 1.6000
v -0.8700 0.9500 1.6000
v -0.8700 0.9500 1.4200
usemtl Wood
s off
f 516 515 514 513
f 517 518 519 520
f 513 514 518 517
f 514 515 519 518
f 515 516 520 519
f 516 513 517 520
o Window.Leaf
v -1.3500 0.9500 1.4600
v -1.3800 0.9500 1.4930
v -1.3800 0.9500 1.5370
v -1.3500 0.9500 1.5700
v -1.3100 0.9500 1.5700
v -1.2800 0.9500 1.5370
v -1.2800 0.9500 1.4930
v -1.3100 0.9500 1.4600
v -1.3500 1.0400 1.4600
v -1.3800 1.0400 1.4930
v -1.3800 1.0400 1.5370
v -1.3500 1.0400 1.5700
v -1.3100 1.0400 1.5700
v -1.2800 1.0400 1.5370
v -1.2800 1.0400 1.4930
v -1.3100 1.0400 1.4600
usemtl Leaf
s off
f 528 527 526 525 524 523 522 521
f 529 530 531 532 533 534 535 536
f 521 522 530 529
f 522 523 531 530
f 523 524 532 531
f 524 525 533 532
f 525 526 534 533
f 526 527 535 534
f 527 528 536 535
f 528 521 529 536
o Window.Flower
v -1.3420 1.0200 1.4900
v -1.3600 1.0200 1.5080
v -1.3600 1.0200 1.5320
v -1.3420 1.0200 1.5500
v -1.3180 1.0200 1.5500
v -1.3000 1.0200 1.5320
v -1.3000 1.0200 1.5080
v -1.3180 1.0200 1.4900
v -1.3420 1.0800 1.4900
v -1.3600 1.0800 1.5080
v -1.3600 1.0800 1.5320
v -1.3420 1.0800 1.5500
v -1.3180 1.0800 1.5500
v -1.3000 1.0800 1.5320
v -1.3000 1.0800 1.5080
v -1.3180 1.0800 1.4900
usemtl Flower
s off
f 544 543 542 541 540 539 538 537
f 545 546 547 548 549 550 551 552
f 537 538 546 545
f 538 539 547 546
f 539 540 548 547
f 540 541 549 548
f 541 542 550 549
f 542 543 551 550
f 543 544 552 551
f 544 537 545 552
o Window.Leaf
v -1.2300 0.9500 1.4600
v -1.2600 0.9500 1.4930
v -1.2600 0.9500 1.5370
v -1.2300 0.9500 1.5700
v -1.1900 0.9500 1.5700
v -1.1600 0.9500 1.5370
v -1.1600 0.9500 1.4930
v -1.1900 0.9500 1.4600
v -1.2300 1.0400 1.4600
v -1.2600 1.0400 1.4930
v -1.2600 1.0400 1.5370
v -1.2300 1.0400 1.5700
v -1.1900 1.0400 1.5700
v -1.1600 1.0400 1.5370
v -1.1600 1.0400 1.4930
v -1.1900 1.0400 1.4600
usemtl Leaf
s off
f 560 559 558 557 556 555 554 553
f 561 562 563 564 565 566 567 568
f 553 554 562 561
f 554 555 563 562
f 555 556 564 563
f 556 557 565 564
f 557 558 566 565
f 558 559 567 566
f 559 560 568 567
f 560 553 561 568
o Window.Flower
v -1.2220 1.0200 1.4900
v -1.2400 1.0200 1.5080
v -1.2400 1.0200 1.5320
v -1.2220 1.0200 1.5500
v -1.1980 1.0200 1.5500
v -1.1800 1.0200 1.5320
v -1.1800 1.0200 1.5080
v -1.1980 1.0200 1.4900
v -1.2220 1.0800 1.4900
v -1.2400 1.0800 1.5080
v -1.2400 1.0800 1.5320
v -1.2220 1.0800 1.5500
v -1.1980 1.0800 1.5500
v -1.1800 1.0800 1.5320
v -1.1800 1.0800 1.5080
v -1.1980 1.0800 1.4900
usemtl Flower
s off
f 576 575 574 573 572 571 570 569
f 577 578 579 580 581 582 583 584
f 569 570 578 577
f 570 571 579 578
f 571 572 580 579
f 572 573 581 580
f 573 574 582 581
f 574 575 583 582
f 575 576 584 583
f 576 569 577 584
o Window.Leaf
v -1.1100 0.9500 1.4600
v -1.1400 0.9500 1.4930
v -1.1400 0.9500 1.5370
v -1.1100 0.9500 1.5700
v -1.0700 0.9500 1.5700
v -1.0400 0.9500 1.5370
v -1.0400 0.9500 1.4930
v -1.0700 0.9500 1.4600
v -1.1100 1.0400 1.4600
v -1.1400 1.0400 1.4930
v -1.1400 1.0400 1.5370
v -1.1100 1.0400 1.5700
v -1.0700 1.0400 1.5700
v -1.0400 1.0400 1.5370
v -1.0400 1.0400 1.4930
v -1.0700 1.0400 1.4600
usemtl Leaf
s off
f 592 591 590 589 588 587 586 585
f 593 594 595 596 597 598 599 600
f 585 586 594 593
f 586 587 595 594
f 587 588 596 595
f 588 589 597 596
f 589 590 598 597
f 590 591 599 598
f 591 592 600 599
f 592 585 593 600
o Window.Flower
v -1.1020 1.0200 1.4900
v -1.1200 1.0200 1.5080
v -1.1200 1.0200 1.5320
v -1.1020 1.0200 1.5500
v -1.0780 1.0200 1.5500
v -1.0600 1.0200 1.5320
v -1.0600 1.0200 1.5080
v -1.0780 1.0200 1.4900
v -1.1020 1.0800 1.4900
v -1.1200 1.0800 1.5080
v -1.1200 1.0800 1.5320
v -1.1020 1.0800 1.5500
v -1.0780 1.0800 1.5500
v -1.0600 1.0800 1.5320
v -1.0600 1.0800 1.5080
v -1.0780 1.0800 1.4900
usemtl Flower
s off
f 608 607 606 605 604 603 602 601
f 609 610 611 612 613 614 615 616
f 601 602 610 609
f 602 603 611 610
f 603 604 612 611
f 604 605 613 612
f 605 606 614 613
f 606 607 615 614
f 607 608 616 615
f 608 601 609 616
o Window.Leaf
v -0.9900 0.9500 1.4600
v -1.0200 0.9500 1.4930
v -1.0200 0.9500 1.5370
v -0.9900 0.9500 1.5700
v -0.9500 0.9500 1.5700
v -0.9200 0.9500 1.5370
v -0.9200 0.9500 1.4930
v -0.9500 0.9500 1.4600
v -0.9900 1.0400 1.4600
v -1.0200 1.0400 1.4930
v -1.0200 1.0400 1.5370
v -0.9900 1.0400 1.5700
v -0.9500 1.0400 1.5700
v -0.9200 1.0400 1.5370
v -0.9200 1.0400 1.4930
v -0.9500 1.0400 1.4600
usemtl Leaf
s off
f 624 623 622 621 620 619 618 617
f 625 626 627 628 629 630 631 632
f 617 618 626 625
f 618 619 627 626
f 619 620 628 627
f 620 621 629 628
f 621 622 630 629
f 622 623 631 630
f 623 624 632 631
f 624 617 625 632
o Window.Flower
v -0.9820 1.0200 1.4900
v -1.0000 1.0200 1.5080
v -1.0000 1.0200 1.5320
v -0.9820 1.0200 1.5500
v -0.9580 1.0200 1.5500
v -0.9400 1.0200 1.5320
v -0.9400 1.0200 1.5080
v -0.9580 1.0200 1.4900
v -0.9820 1.0800 1.4900
v -1.0000 1.0800 1.5080
v -1.0000 1.0800 1.5320
v -0.9820 1.0800 1.5500
v -0.9580 1.0800 1.5500
v -0.9400 1.0800 1.5320
v -0.9400 1.0800 1.5080
v -0.9580 1.0800 1.4900
usemtl Flower
s off
f 640 639 638 637 636 635 634 633
f 641 642 643 644 645 646 647 648
f 633 634 642 641
f 634 635 643 642
f 635 636 644 643
f 636 637 645 644
f 637 638 646 645
f 638 639 647 646
f 639 640 648 647
f 640 633 641 648
o Window.Glass
v 0.9200 1.0200 1.4000
v 0.9200 1.0200 1.4200
v 1.3800 1.0200 1.4200
v 1.3800 1.0200 1.4000
v 0.9200 1.5600 1.4000
v 0.9200 1.5600 1.4200
v 1.3800 1.5600 1.4200
v 1.3800 1.5600 1.4000
usemtl Glass
s off
f 652 651 650 649
f 653 654 655 656
f 649 650 654 653
f 650 651 655 654
f 651 652 656 655
f 652 649 653 656
o Window.Frame
v 0.8500 1.0200 1.4000
v 0.8500 1.0200 1.4700
v 0.9200 1.0200 1.4700
v 0.9200 1.0200 1.4000
v 0.8500 1.5600 1.4000
v 0.8500 1.5600 1.4700
v 0.9200 1.5600 1.4700
v 0.9200 1.5600 1.4000
usemtl Timber
s off
f 660 659 658 657
f 661 662 663 664
f 657 658 662 661
f 658 659 663 662
f 659 660 664 663
f 660 657 661 664
o Window.Frame
v 1.3800 1.0200 1.4000
v 1.3800 1.0200 1.4700
v 1.4500 1.0200 1.4700
v 1.4500 1.0200 1.4000
v 1.3800 1.5600 1.4000
v 1.3800 1.5600 1.4700
v 1.4500 1.5600 1.4700
v 1.4500 1.5600 1.4000
usemtl Timber
s off
f 668 667 666 665
f 669 670 671 672
f 665 666 670 669
f 666 667 671 670
f 667 668 672 671
f 668 665 669 672
o Window.Frame
v 0.8500 1.5600 1.4000
v 0.8500 1.5600 1.4800
v 1.4500 1.5600 1.4800
v 1.4500 1.5600 1.4000
v 0.8500 1.6400 1.4000
v 0.8500 1.6400 1.4800
v 1.4500 1.6400 1.4800
v 1.4500 1.6400 1.4000
usemtl Timber
s off
f 676 675 674 673
f 677 678 679 680
f 673 674 678 677
f 674 675 679 678
f 675 676 680 679
f 676 673 677 680
o Window.Bar
v 1.1300 1.0200 1.4200
v 1.1300 1.0200 1.4500
v 1.1700 1.0200 1.4500
v 1.1700 1.0200 1.4200
v 1.1300 1.5600 1.4200
v 1.1300 1.5600 1.4500
v 1.1700 1.5600 1.4500
v 1.1700 1.5600 1.4200
usemtl Timber
s off
f 684 683 682 681
f 685 686 687 688
f 681 682 686 685
f 682 683 687 686
f 683 684 688 687
f 684 681 685 688
o Window.Bar
v 0.9200 1.2700 1.4200
v 0.9200 1.2700 1.4500
v 1.3800 1.2700 1.4500
v 1.3800 1.2700 1.4200
v 0.9200 1.3100 1.4200
v 0.9200 1.3100 1.4500
v 1.3800 1.3100 1.4500
v 1.3800 1.3100 1.4200
usemtl Timber
s off
f 692 691 690 689
f 693 694 695 696
f 689 690 694 693
f 690 691 695 694
f 691 692 696 695
f 692 689 693 696
o Window.Sill
v 0.8200 0.9500 1.4000
v 0.8200 0.9500 1.5400
v 1.4800 0.9500 1.5400
v 1.4800 0.9500 1.4000
v 0.8200 1.0200 1.4000
v 0.8200 1.0200 1.5400
v 1.4800 1.0200 1.5400
v 1.4800 1.0200 1.4000
usemtl Wood
s off
f 700 699 698 697
f 701 702 703 704
f 697 698 702 701
f 698 699 703 702
f 699 700 704 703
f 700 697 701 704
o Window.Shutter
v 0.6200 1.0200 1.4000
v 0.6200 1.0200 1.4400
v 0.8500 1.0200 1.4400
v 0.8500 1.0200 1.4000
v 0.6200 1.5600 1.4000
v 0.6200 1.5600 1.4400
v 0.8500 1.5600 1.4400
v 0.8500 1.5600 1.4000
usemtl Shutter
s off
f 708 707 706 705
f 709 710 711 712
f 705 706 710 709
f 706 707 711 710
f 707 708 712 711
f 708 705 709 712
o Window.Shutter.Seam
v 0.7250 1.0500 1.4400
v 0.7250 1.0500 1.4500
v 0.7450 1.0500 1.4500
v 0.7450 1.0500 1.4400
v 0.7250 1.5300 1.4400
v 0.7250 1.5300 1.4500
v 0.7450 1.5300 1.4500
v 0.7450 1.5300 1.4400
usemtl Timber
s off
f 716 715 714 713
f 717 718 719 720
f 713 714 718 717
f 714 715 719 718
f 715 716 720 719
f 716 713 717 720
o Window.Shutter
v 1.4500 1.0200 1.4000
v 1.4500 1.0200 1.4400
v 1.6800 1.0200 1.4400
v 1.6800 1.0200 1.4000
v 1.4500 1.5600 1.4000
v 1.4500 1.5600 1.4400
v 1.6800 1.5600 1.4400
v 1.6800 1.5600 1.4000
usemtl Shutter
s off
f 724 723 722 721
f 725 726 727 728
f 721 722 726 725
f 722 723 727 726
f 723 724 728 727
f 724 721 725 728
o Window.Shutter.Seam
v 1.5550 1.0500 1.4400
v 1.5550 1.0500 1.4500
v 1.5750 1.0500 1.4500
v 1.5750 1.0500 1.4400
v 1.5550 1.5300 1.4400
v 1.5550 1.5300 1.4500
v 1.5750 1.5300 1.4500
v 1.5750 1.5300 1.4400
usemtl Timber
s off
f 732 731 730 729
f 733 734 735 736
f 729 730 734 733
f 730 731 735 734
f 731 732 736 735
f 732 729 733 736
o Window.Box
v 0.8700 0.8300 1.4200
v 0.8700 0.8300 1.6000
v 1.4300 0.8300 1.6000
v 1.4300 0.8300 1.4200
v 0.8700 0.9500 1.4200
v 0.8700 0.9500 1.6000
v 1.4300 0.9500 1.6000
v 1.4300 0.9500 1.4200
usemtl Wood
s off
f 740 739 738 737
f 741 742 743 744
f 737 738 742 741
f 738 739 743 742
f 739 740 744 743
f 740 737 741 744
o Window.Leaf
v 0.9500 0.9500 1.4600
v 0.9200 0.9500 1.4930
v 0.9200 0.9500 1.5370
v 0.9500 0.9500 1.5700
v 0.9900 0.9500 1.5700
v 1.0200 0.9500 1.5370
v 1.0200 0.9500 1.4930
v 0.9900 0.9500 1.4600
v 0.9500 1.0400 1.4600
v 0.9200 1.0400 1.4930
v 0.9200 1.0400 1.5370
v 0.9500 1.0400 1.5700
v 0.9900 1.0400 1.5700
v 1.0200 1.0400 1.5370
v 1.0200 1.0400 1.4930
v 0.9900 1.0400 1.4600
usemtl Leaf
s off
f 752 751 750 749 748 747 746 745
f 753 754 755 756 757 758 759 760
f 745 746 754 753
f 746 747 755 754
f 747 748 756 755
f 748 749 757 756
f 749 750 758 757
f 750 751 759 758
f 751 752 760 759
f 752 745 753 760
o Window.Flower
v 0.9580 1.0200 1.4900
v 0.9400 1.0200 1.5080
v 0.9400 1.0200 1.5320
v 0.9580 1.0200 1.5500
v 0.9820 1.0200 1.5500
v 1.0000 1.0200 1.5320
v 1.0000 1.0200 1.5080
v 0.9820 1.0200 1.4900
v 0.9580 1.0800 1.4900
v 0.9400 1.0800 1.5080
v 0.9400 1.0800 1.5320
v 0.9580 1.0800 1.5500
v 0.9820 1.0800 1.5500
v 1.0000 1.0800 1.5320
v 1.0000 1.0800 1.5080
v 0.9820 1.0800 1.4900
usemtl Flower
s off
f 768 767 766 765 764 763 762 761
f 769 770 771 772 773 774 775 776
f 761 762 770 769
f 762 763 771 770
f 763 764 772 771
f 764 765 773 772
f 765 766 774 773
f 766 767 775 774
f 767 768 776 775
f 768 761 769 776
o Window.Leaf
v 1.0700 0.9500 1.4600
v 1.0400 0.9500 1.4930
v 1.0400 0.9500 1.5370
v 1.0700 0.9500 1.5700
v 1.1100 0.9500 1.5700
v 1.1400 0.9500 1.5370
v 1.1400 0.9500 1.4930
v 1.1100 0.9500 1.4600
v 1.0700 1.0400 1.4600
v 1.0400 1.0400 1.4930
v 1.0400 1.0400 1.5370
v 1.0700 1.0400 1.5700
v 1.1100 1.0400 1.5700
v 1.1400 1.0400 1.5370
v 1.1400 1.0400 1.4930
v 1.1100 1.0400 1.4600
usemtl Leaf
s off
f 784 783 782 781 780 779 778 777
f 785 786 787 788 789 790 791 792
f 777 778 786 785
f 778 779 787 786
f 779 780 788 787
f 780 781 789 788
f 781 782 790 789
f 782 783 791 790
f 783 784 792 791
f 784 777 785 792
o Window.Flower
v 1.0780 1.0200 1.4900
v 1.0600 1.0200 1.5080
v 1.0600 1.0200 1.5320
v 1.0780 1.0200 1.5500
v 1.1020 1.0200 1.5500
v 1.1200 1.0200 1.5320
v 1.1200 1.0200 1.5080
v 1.1020 1.0200 1.4900
v 1.0780 1.0800 1.4900
v 1.0600 1.0800 1.5080
v 1.0600 1.0800 1.5320
v 1.0780 1.0800 1.5500
v 1.1020 1.0800 1.5500
v 1.1200 1.0800 1.5320
v 1.1200 1.0800 1.5080
v 1.1020 1.0800 1.4900
usemtl Flower
s off
f 800 799 798 797 796 795 794 793
f 801 802 803 804 805 806 807 808
f 793 794 802 801
f 794 795 803 802
f 795 796 804 803
f 796 797 805 804
f 797 798 806 805
f 798 799 807 806
f 799 800 808 807
f 800 793 801 808
o Window.Leaf
v 1.1900 0.9500 1.4600
v 1.1600 0.9500 1.4930
v 1.1600 0.9500 1.5370
v 1.1900 0.9500 1.5700
v 1.2300 0.9500 1.5700
v 1.2600 0.9500 1.5370
v 1.2600 0.9500 1.4930
v 1.2300 0.9500 1.4600
v 1.1900 1.0400 1.4600
v 1.1600 1.0400 1.4930
v 1.1600 1.0400 1.5370
v 1.1900 1.0400 1.5700
v 1.2300 1.0400 1.5700
v 1.2600 1.0400 1.5370
v 1.2600 1.0400 1.4930
v 1.2300 1.0400 1.4600
usemtl Leaf
s off
f 816 815 814 813 812 811 810 809
f 817 818 819 820 821 822 823 824
f 809 810 818 817
f 810 811 819 818
f 811 812 820 819
f 812 813 821 820
f 813 814 822 821
f 814 815 823 822
f 815 816 824 823
f 816 809 817 824
o Window.Flower
v 1.1980 1.0200 1.4900
v 1.1800 1.0200 1.5080
v 1.1800 1.0200 1.5320
v 1.1980 1.0200 1.5500
v 1.2220 1.0200 1.5500
v 1.2400 1.0200 1.5320
v 1.2400 1.0200 1.5080
v 1.2220 1.0200 1.4900
v 1.1980 1.0800 1.4900
v 1.1800 1.0800 1.5080
v 1.1800 1.0800 1.5320
v 1.1980 1.0800 1.5500
v 1.2220 1.0800 1.5500
v 1.2400 1.0800 1.5320
v 1.2400 1.0800 1.5080
v 1.2220 1.0800 1.4900
usemtl Flower
s off
f 832 831 830 829 828 827 826 825
f 833 834 835 836 837 838 839 840
f 825 826 834 833
f 826 827 835 834
f 827 828 836 835
f 828 829 837 836
f 829 830 838 837
f 830 831 839 838
f 831 832 840 839
f 832 825 833 840
o Window.Leaf
v 1.3100 0.9500 1.4600
v 1.2800 0.9500 1.4930
v 1.2800 0.9500 1.5370
v 1.3100 0.9500 1.5700
v 1.3500 0.9500 1.5700
v 1.3800 0.9500 1.5370
v 1.3800 0.9500 1.4930
v 1.3500 0.9500 1.4600
v 1.3100 1.0400 1.4600
v 1.2800 1.0400 1.4930
v 1.2800 1.0400 1.5370
v 1.3100 1.0400 1.5700
v 1.3500 1.0400 1.5700
v 1.3800 1.0400 1.5370
v 1.3800 1.0400 1.4930
v 1.3500 1.0400 1.4600
usemtl Leaf
s off
f 848 847 846 845 844 843 842 841
f 849 850 851 852 853 854 855 856
f 841 842 850 849
f 842 843 851 850
f 843 844 852 851
f 844 845 853 852
f 845 846 854 853
f 846 847 855 854
f 847 848 856 855
f 848 841 849 856
o Window.Flower
v 1.3180 1.0200 1.4900
v 1.3000 1.0200 1.5080
v 1.3000 1.0200 1.5320
v 1.3180 1.0200 1.5500
v 1.3420 1.0200 1.5500
v 1.3600 1.0200 1.5320
v 1.3600 1.0200 1.5080
v 1.3420 1.0200 1.4900
v 1.3180 1.0800 1.4900
v 1.3000 1.0800 1.5080
v 1.3000 1.0800 1.5320
v 1.3180 1.0800 1.5500
v 1.3420 1.0800 1.5500
v 1.3600 1.0800 1.5320
v 1.3600 1.0800 1.5080
v 1.3420 1.0800 1.4900
usemtl Flower
s off
f 864 863 862 861 860 859 858 857
f 865 866 867 868 869 870 871 872
f 857 858 866 865
f 858 859 867 866
f 859 860 868 867
f 860 861 869 868
f 861 862 870 869
f 862 863 871 870
f 863 864 872 871
f 864 857 865 872
o Window.Glass
v -1.7200 1.0200 0.3000
v -1.7200 1.0200 0.8000
v -1.7000 1.0200 0.8000
v -1.7000 1.0200 0.3000
v -1.7200 1.5600 0.3000
v -1.7200 1.5600 0.8000
v -1.7000 1.5600 0.8000
v -1.7000 1.5600 0.3000
usemtl Glass
s off
f 876 875 874 873
f 877 878 879 880
f 873 874 878 877
f 874 875 879 878
f 875 876 880 879
f 876 873 877 880
o Window.Frame
v -1.7700 1.0200 0.2300
v -1.7700 1.0200 0.3000
v -1.7000 1.0200 0.3000
v -1.7000 1.0200 0.2300
v -1.7700 1.5600 0.2300
v -1.7700 1.5600 0.3000
v -1.7000 1.5600 0.3000
v -1.7000 1.5600 0.2300
usemtl Timber
s off
f 884 883 882 881
f 885 886 887 888
f 881 882 886 885
f 882 883 887 886
f 883 884 888 887
f 884 881 885 888
o Window.Frame
v -1.7700 1.0200 0.8000
v -1.7700 1.0200 0.8700
v -1.7000 1.0200 0.8700
v -1.7000 1.0200 0.8000
v -1.7700 1.5600 0.8000
v -1.7700 1.5600 0.8700
v -1.7000 1.5600 0.8700
v -1.7000 1.5600 0.8000
usemtl Timber
s off
f 892 891 890 889
f 893 894 895 896
f 889 890 894 893
f 890 891 895 894
f 891 892 896 895
f 892 889 893 896
o Window.Frame
v -1.7800 1.5600 0.2300
v -1.7800 1.5600 0.8700
v -1.7000 1.5600 0.8700
v -1.7000 1.5600 0.2300
v -1.7800 1.6400 0.2300
v -1.7800 1.6400 0.8700
v -1.7000 1.6400 0.8700
v -1.7000 1.6400 0.2300
usemtl Timber
s off
f 900 899 898 897
f 901 902 903 904
f 897 898 902 901
f 898 899 903 902
f 899 900 904 903
f 900 897 901 904
o Window.Bar
v -1.7500 1.0200 0.5300
v -1.7500 1.0200 0.5700
v -1.7200 1.0200 0.5700
v -1.7200 1.0200 0.5300
v -1.7500 1.5600 0.5300
v -1.7500 1.5600 0.5700
v -1.7200 1.5600 0.5700
v -1.7200 1.5600 0.5300
usemtl Timber
s off
f 908 907 906 905
f 909 910 911 912
f 905 906 910 909
f 906 907 911 910
f 907 908 912 911
f 908 905 909 912
o Window.Bar
v -1.7500 1.2700 0.3000
v -1.7500 1.2700 0.8000
v -1.7200 1.2700 0.8000
v -1.7200 1.2700 0.3000
v -1.7500 1.3100 0.3000
v -1.7500 1.3100 0.8000
v -1.7200 1.3100 0.8000
v -1.7200 1.3100 0.3000
usemtl Timber
s off
f 916 915 914 913
f 917 918 919 920
f 913 914 918 917
f 914 915 919 918
f 915 916 920 919
f 916 913 917 920
o Window.Sill
v -1.8400 0.9500 0.2000
v -1.8400 0.9500 0.9000
v -1.7000 0.9500 0.9000
v -1.7000 0.9500 0.2000
v -1.8400 1.0200 0.2000
v -1.8400 1.0200 0.9000
v -1.7000 1.0200 0.9000
v -1.7000 1.0200 0.2000
usemtl Wood
s off
f 924 923 922 921
f 925 926 927 928
f 921 922 926 925
f 922 923 927 926
f 923 924 928 927
f 924 921 925 928
o Window.Shutter
v -1.7400 1.0200 -0.0200
v -1.7400 1.0200 0.2300
v -1.7000 1.0200 0.2300
v -1.7000 1.0200 -0.0200
v -1.7400 1.5600 -0.0200
v -1.7400 1.5600 0.2300
v -1.7000 1.5600 0.2300
v -1.7000 1.5600 -0.0200
usemtl Shutter
s off
f 932 931 930 929
f 933 934 935 936
f 929 930 934 933
f 930 931 935 934
f 931 932 936 935
f 932 929 933 936
o Window.Shutter.Seam
v -1.7500 1.0500 0.0950
v -1.7500 1.0500 0.1150
v -1.7400 1.0500 0.1150
v -1.7400 1.0500 0.0950
v -1.7500 1.5300 0.0950
v -1.7500 1.5300 0.1150
v -1.7400 1.5300 0.1150
v -1.7400 1.5300 0.0950
usemtl Timber
s off
f 940 939 938 937
f 941 942 943 944
f 937 938 942 941
f 938 939 943 942
f 939 940 944 943
f 940 937 941 944
o Window.Shutter
v -1.7400 1.0200 0.8700
v -1.7400 1.0200 1.1200
v -1.7000 1.0200 1.1200
v -1.7000 1.0200 0.8700
v -1.7400 1.5600 0.8700
v -1.7400 1.5600 1.1200
v -1.7000 1.5600 1.1200
v -1.7000 1.5600 0.8700
usemtl Shutter
s off
f 948 947 946 945
f 949 950 951 952
f 945 946 950 949
f 946 947 951 950
f 947 948 952 951
f 948 945 949 952
o Window.Shutter.Seam
v -1.7500 1.0500 0.9850
v -1.7500 1.0500 1.0050
v -1.7400 1.0500 1.0050
v -1.7400 1.0500 0.9850
v -1.7500 1.5300 0.9850
v -1.7500 1.5300 1.0050
v -1.7400 1.5300 1.0050
v -1.7400 1.5300 0.9850
usemtl Timber
s off
f 956 955 954 953
f 957 958 959 960
f 953 954 958 957
f 954 955 959 958
f 955 956 960 959
f 956 953 957 960
o Window.Glass
v 1.7000 1.0200 -0.9500
v 1.7000 1.0200 -0.4500
v 1.7200 1.0200 -0.4500
v 1.7200 1.0200 -0.9500
v 1.7000 1.5600 -0.9500
v 1.7000 1.5600 -0.4500
v 1.7200 1.5600 -0.4500
v 1.7200 1.5600 -0.9500
usemtl Glass
s off
f 964 963 962 961
f 965 966 967 968
f 961 962 966 965
f 962 963 967 966
f 963 964 968 967
f 964 961 965 968
o Window.Frame
v 1.7000 1.0200 -0.4500
v 1.7000 1.0200 -0.3800
v 1.7700 1.0200 -0.3800
v 1.7700 1.0200 -0.4500
v 1.7000 1.5600 -0.4500
v 1.7000 1.5600 -0.3800
v 1.7700 1.5600 -0.3800
v 1.7700 1.5600 -0.4500
usemtl Timber
s off
f 972 971 970 969
f 973 974 975 976
f 969 970 974 973
f 970 971 975 974
f 971 972 976 975
f 972 969 973 976
o Window.Frame
v 1.7000 1.0200 -1.0200
v 1.7000 1.0200 -0.9500
v 1.7700 1.0200 -0.9500
v 1.7700 1.0200 -1.0200
v 1.7000 1.5600 -1.0200
v 1.7000 1.5600 -0.9500
v 1.7700 1.5600 -0.9500
v 1.7700 1.5600 -1.0200
usemtl Timber
s off
f 980 979 978 977
f 981 982 983 984
f 977 978 982 981
f 978 979 983 982
f 979 980 984 983
f 980 977 981 984
o Window.Frame
v 1.7000 1.5600 -1.0200
v 1.7000 1.5600 -0.3800
v 1.7800 1.5600 -0.3800
v 1.7800 1.5600 -1.0200
v 1.7000 1.6400 -1.0200
v 1.7000 1.6400 -0.3800
v 1.7800 1.6400 -0.3800
v 1.7800 1.6400 -1.0200
usemtl Timber
s off
f 988 987 986 985
f 989 990 991 992
f 985 986 990 989
f 986 987 991 990
f 987 988 992 991
f 988 985 989 992
o Window.Bar
v 1.7200 1.0200 -0.7200
v 1.7200 1.0200 -0.6800
v 1.7500 1.0200 -0.6800
v 1.7500 1.0200 -0.7200
v 1.7200 1.5600 -0.7200
v 1.7200 1.5600 -0.6800
v 1.7500 1.5600 -0.6800
v 1.7500 1.5600 -0.7200
usemtl Timber
s off
f 996 995 994 993
f 997 998 999 1000
f 993 994 998 997
f 994 995 999 998
f 995 996 1000 999
f 996 993 997 1000
o Window.Bar
v 1.7200 1.2700 -0.9500
v 1.7200 1.2700 -0.4500
v 1.7500 1.2700 -0.4500
v 1.7500 1.2700 -0.9500
v 1.7200 1.3100 -0.9500
v 1.7200 1.3100 -0.4500
v 1.7500 1.3100 -0.4500
v 1.7500 1.3100 -0.9500
usemtl Timber
s off
f 1004 1003 1002 1001
f 1005 1006 1007 1008
f 1001 1002 1006 1005
f 1002 1003 1007 1006
f 1003 1004 1008 1007
f 1004 1001 1005 1008
o Window.Sill
v 1.7000 0.9500 -1.0500
v 1.7000 0.9500 -0.3500
v 1.8400 0.9500 -0.3500
v 1.8400 0.9500 -1.0500
v 1.7000 1.0200 -1.0500
v 1.7000 1.0200 -0.3500
v 1.8400 1.0200 -0.3500
v 1.8400 1.0200 -1.0500
usemtl Wood
s off
f 1012 1011 1010 1009
f 1013 1014 1015 1016
f 1009 1010 1014 1013
f 1010 1011 1015 1014
f 1011 1012 1016 1015
f 1012 1009 1013 1016
o Window.Shutter
v 1.7000 1.0200 -0.3800
v 1.7000 1.0200 -0.1300
v 1.7400 1.0200 -0.1300
v 1.7400 1.0200 -0.3800
v 1.7000 1.5600 -0.3800
v 1.7000 1.5600 -0.1300
v 1.7400 1.5600 -0.1300
v 1.7400 1.5600 -0.3800
usemtl Shutter
s off
f 1020 1019 1018 1017
f 1021 1022 1023 1024
f 1017 1018 1022 1021
f 1018 1019 1023 1022
f 1019 1020 1024 1023
f 1020 1017 1021 1024
o Window.Shutter.Seam
v 1.7400 1.0500 -0.2650
v 1.7400 1.0500 -0.2450
v 1.7500 1.0500 -0.2450
v 1.7500 1.0500 -0.2650
v 1.7400 1.5300 -0.2650
v 1.7400 1.5300 -0.2450
v 1.7500 1.5300 -0.2450
v 1.7500 1.5300 -0.2650
usemtl Timber
s off
f 1028 1027 1026 1025
f 1029 1030 1031 1032
f 1025 1026 1030 1029
f 1026 1027 1031 1030
f 1027 1028 1032 1031
f 1028 1025 1029 1032
o Window.Shutter
v 1.7000 1.0200 -1.2700
v 1.7000 1.0200 -1.0200
v 1.7400 1.0200 -1.0200
v 1.7400 1.0200 -1.2700
v 1.7000 1.5600 -1.2700
v 1.7000 1.5600 -1.0200
v 1.7400 1.5600 -1.0200
v 1.7400 1.5600 -1.2700
usemtl Shutter
s off
f 1036 1035 1034 1033
f 1037 1038 1039 1040
f 1033 1034 1038 1037
f 1034 1035 1039 1038
f 1035 1036 1040 1039
f 1036 1033 1037 1040
o Window.Shutter.Seam
v 1.7400 1.0500 -1.1550
v 1.7400 1.0500 -1.1350
v 1.7500 1.0500 -1.1350
v 1.7500 1.0500 -1.1550
v 1.7400 1.5300 -1.1550
v 1.7400 1.5300 -1.1350
v 1.7500 1.5300 -1.1350
v 1.7500 1.5300 -1.1550
usemtl Timber
s off
f 1044 1043 1042 1041
f 1045 1046 1047 1048
f 1041 1042 1046 1045
f 1042 1043 1047 1046
f 1043 1044 1048 1047
f 1044 1041 1045 1048
o Window.Glass
v 0.3500 1.0200 -1.4200
v 0.3500 1.0200 -1.4000
v 0.8500 1.0200 -1.4000
v 0.8500 1.0200 -1.4200
v 0.3500 1.5600 -1.4200
v 0.3500 1.5600 -1.4000
v 0.8500 1.5600 -1.4000
v 0.8500 1.5600 -1.4200
usemtl Glass
s off
f 1052 1051 1050 1049
f 1053 1054 1055 1056
f 1049 1050 1054 1053
f 1050 1051 1055 1054
f 1051 1052 1056 1055
f 1052 1049 1053 1056
o Window.Frame
v 0.8500 1.0200 -1.4700
v 0.8500 1.0200 -1.4000
v 0.9200 1.0200 -1.4000
v 0.9200 1.0200 -1.4700
v 0.8500 1.5600 -1.4700
v 0.8500 1.5600 -1.4000
v 0.9200 1.5600 -1.4000
v 0.9200 1.5600 -1.4700
usemtl Timber
s off
f 1060 1059 1058 1057
f 1061 1062 1063 1064
f 1057 1058 1062 1061
f 1058 1059 1063 1062
f 1059 1060 1064 1063
f 1060 1057 1061 1064
o Window.Frame
v 0.2800 1.0200 -1.4700
v 0.2800 1.0200 -1.4000
v 0.3500 1.0200 -1.4000
v 0.3500 1.0200 -1.4700
v 0.2800 1.5600 -1.4700
v 0.2800 1.5600 -1.4000
v 0.3500 1.5600 -1.4000
v 0.3500 1.5600 -1.4700
usemtl Timber
s off
f 1068 1067 1066 1065
f 1069 1070 1071 1072
f 1065 1066 1070 1069
f 1066 1067 1071 1070
f 1067 1068 1072 1071
f 1068 1065 1069 1072
o Window.Frame
v 0.2800 1.5600 -1.4800
v 0.2800 1.5600 -1.4000
v 0.9200 1.5600 -1.4000
v 0.9200 1.5600 -1.4800
v 0.2800 1.6400 -1.4800
v 0.2800 1.6400 -1.4000
v 0.9200 1.6400 -1.4000
v 0.9200 1.6400 -1.4800
usemtl Timber
s off
f 1076 1075 1074 1073
f 1077 1078 1079 1080
f 1073 1074 1078 1077
f 1074 1075 1079 1078
f 1075 1076 1080 1079
f 1076 1073 1077 1080
o Window.Bar
v 0.5800 1.0200 -1.4500
v 0.5800 1.0200 -1.4200
v 0.6200 1.0200 -1.4200
v 0.6200 1.0200 -1.4500
v 0.5800 1.5600 -1.4500
v 0.5800 1.5600 -1.4200
v 0.6200 1.5600 -1.4200
v 0.6200 1.5600 -1.4500
usemtl Timber
s off
f 1084 1083 1082 1081
f 1085 1086 1087 1088
f 1081 1082 1086 1085
f 1082 1083 1087 1086
f 1083 1084 1088 1087
f 1084 1081 1085 1088
o Window.Bar
v 0.3500 1.2700 -1.4500
v 0.3500 1.2700 -1.4200
v 0.8500 1.2700 -1.4200
v 0.8500 1.2700 -1.4500
v 0.3500 1.3100 -1.4500
v 0.3500 1.3100 -1.4200
v 0.8500 1.3100 -1.4200
v 0.8500 1.3100 -1.4500
usemtl Timber
s off
f 1092 1091 1090 1089
f 1093 1094 1095 1096
f 1089 1090 1094 1093
f 1090 1091 1095 1094
f 1091 1092 1096 1095
f 1092 1089 1093 1096
o Window.Sill
v 0.2500 0.9500 -1.5400
v 0.2500 0.9500 -1.4000
v 0.9500 0.9500 -1.4000
v 0.9500 0.9500 -1.5400
v 0.2500 1.0200 -1.5400
v 0.2500 1.0200 -1.4000
v 0.9500 1.0200 -1.4000
v 0.9500 1.0200 -1.5400
usemtl Wood
s off
f 1100 1099 1098 1097
f 1101 1102 1103 1104
f 1097 1098 1102 1101
f 1098 1099 1103 1102
f 1099 1100 1104 1103
f 1100 1097 1101 1104
o Lantern
v 0.6500 2.2300 1.5100
v 0.6500 2.2300 1.6500
v 0.7900 2.2300 1.6500
v 0.7900 2.2300 1.5100
v 0.6500 2.2500 1.5100
v 0.6500 2.2500 1.6500
v 0.7900 2.2500 1.6500
v 0.7900 2.2500 1.5100
usemtl Iron
s off
f 1108 1107 1106 1105
f 1109 1110 1111 1112
f 1105 1106 1110 1109
f 1106 1107 1111 1110
f 1107 1108 1112 1111
f 1108 1105 1109 1112
o Lantern.Flame
v 0.6700 2.2500 1.5300
v 0.6700 2.2500 1.6300
v 0.7700 2.2500 1.6300
v 0.7700 2.2500 1.5300
v 0.6700 2.3900 1.5300
v 0.6700 2.3900 1.6300
v 0.7700 2.3900 1.6300
v 0.7700 2.3900 1.5300
usemtl Flame
s off
f 1116 1115 1114 1113
f 1117 1118 1119 1120
f 1113 1114 1118 1117
f 1114 1115 1119 1118
f 1115 1116 1120 1119
f 1116 1113 1117 1120
o Lantern.Cap
v 0.6400 2.3900 1.5000
v 0.6400 2.3900 1.6600
v 0.8000 2.3900 1.6600
v 0.8000 2.3900 1.5000
v 0.7000 2.4500 1.5600
v 0.7000 2.4500 1.6000
v 0.7400 2.4500 1.6000
v 0.7400 2.4500 1.5600
usemtl Iron
s off
f 1124 1123 1122 1121
f 1125 1126 1127 1128
f 1121 1122 1126 1125
f 1122 1123 1127 1126
f 1123 1124 1128 1127
f 1124 1121 1125 1128
o Lantern.Bracket
v 0.7000 2.4200 1.4000
v 0.7000 2.4200 1.6000
v 0.7400 2.4200 1.6000
v 0.7400 2.4200 1.4000
v 0.7000 2.4600 1.4000
v 0.7000 2.4600 1.6000
v 0.7400 2.4600 1.6000
v 0.7400 2.4600 1.4000
usemtl Iron
s off
f 1132 1131 1130 1129
f 1133 1134 1135 1136
f 1129 1130 1134 1133
f 1130 1131 1135 1134
f 1131 1132 1136 1135
f 1132 1129 1133 1136
o Roof
v -1.9800 2.6200 1.7500
v -1.9800 2.9560 1.4000
v -1.9800 3.0960 1.4000
v -1.9800 2.8440 1.7500
v 1.9800 2.6200 1.7500
v 1.9800 2.9560 1.4000
v 1.9800 3.0960 1.4000
v 1.9800 2.8440 1.7500
usemtl Paint
s off
f 1140 1139 1138 1137
f 1141 1142 1143 1144
f 1137 1138 1142 1141
f 1138 1139 1143 1142
f 1139 1140 1144 1143
f 1140 1137 1141 1144
o Roof
v -1.9800 2.9560 1.4000
v -1.9800 3.2920 1.0500
v -1.9800 3.4320 1.0500
v -1.9800 3.1800 1.4000
v 1.9800 2.9560 1.4000
v 1.9800 3.2920 1.0500
v 1.9800 3.4320 1.0500
v 1.9800 3.1800 1.4000
usemtl Paint
s off
f 1148 1147 1146 1145
f 1149 1150 1151 1152
f 1145 1146 1150 1149
f 1146 1147 1151 1150
f 1147 1148 1152 1151
f 1148 1145 1149 1152
o Roof
v -1.9800 3.2920 1.0500
v -1.9800 3.6280 0.7000
v -1.9800 3.7680 0.7000
v -1.9800 3.5160 1.0500
v 1.9800 3.2920 1.0500
v 1.9800 3.6280 0.7000
v 1.9800 3.7680 0.7000
v 1.9800 3.5160 1.0500
usemtl Paint
s off
f 1156 1155 1154 1153
f 1157 1158 1159 1160
f 1153 1154 1158 1157
f 1154 1155 1159 1158
f 1155 1156 1160 1159
f 1156 1153 1157 1160
o Roof
v -1.9800 3.6280 0.7000
v -1.9800 3.9640 0.3500
v -1.9800 4.1040 0.3500
v -1.9800 3.8520 0.7000
v 1.9800 3.6280 0.7000
v 1.9800 3.9640 0.3500
v 1.9800 4.1040 0.3500
v 1.9800 3.8520 0.7000
usemtl Paint
s off
f 1164 1163 1162 1161
f 1165 1166 1167 1168
f 1161 1162 1166 1165
f 1162 1163 1167 1166
f 1163 1164 1168 1167
f 1164 1161 1165 1168
o Roof
v -1.9800 3.9640 0.3500
v -1.9800 4.3000 0.0000
v -1.9800 4.4400 0.0000
v -1.9800 4.1040 0.3500
v 1.9800 3.9640 0.3500
v 1.9800 4.3000 0.0000
v 1.9800 4.4400 0.0000
v 1.9800 4.1040 0.3500
usemtl Paint
s off
f 1172 1171 1170 1169
f 1173 1174 1175 1176
f 1169 1170 1174 1173
f 1170 1171 1175 1174
f 1171 1172 1176 1175
f 1172 1169 1173 1176
o Roof
v -1.9800 2.6200 -1.7500
v -1.9800 2.9560 -1.4000
v -1.9800 3.0960 -1.4000
v -1.9800 2.8440 -1.7500
v 1.9800 2.6200 -1.7500
v 1.9800 2.9560 -1.4000
v 1.9800 3.0960 -1.4000
v 1.9800 2.8440 -1.7500
usemtl Paint
s off
f 1180 1179 1178 1177
f 1181 1182 1183 1184
f 1177 1178 1182 1181
f 1178 1179 1183 1182
f 1179 1180 1184 1183
f 1180 1177 1181 1184
o Roof
v -1.9800 2.9560 -1.4000
v -1.9800 3.2920 -1.0500
v -1.9800 3.4320 -1.0500
v -1.9800 3.1800 -1.4000
v 1.9800 2.9560 -1.4000
v 1.9800 3.2920 -1.0500
v 1.9800 3.4320 -1.0500
v 1.9800 3.1800 -1.4000
usemtl Paint
s off
f 1188 1187 1186 1185
f 1189 1190 1191 1192
f 1185 1186 1190 1189
f 1186 1187 1191 1190
f 1187 1188 1192 1191
f 1188 1185 1189 1192
o Roof
v -1.9800 3.2920 -1.0500
v -1.9800 3.6280 -0.7000
v -1.9800 3.7680 -0.7000
v -1.9800 3.5160 -1.0500
v 1.9800 3.2920 -1.0500
v 1.9800 3.6280 -0.7000
v 1.9800 3.7680 -0.7000
v 1.9800 3.5160 -1.0500
usemtl Paint
s off
f 1196 1195 1194 1193
f 1197 1198 1199 1200
f 1193 1194 1198 1197
f 1194 1195 1199 1198
f 1195 1196 1200 1199
f 1196 1193 1197 1200
o Roof
v -1.9800 3.6280 -0.7000
v -1.9800 3.9640 -0.3500
v -1.9800 4.1040 -0.3500
v -1.9800 3.8520 -0.7000
v 1.9800 3.6280 -0.7000
v 1.9800 3.9640 -0.3500
v 1.9800 4.1040 -0.3500
v 1.9800 3.8520 -0.7000
usemtl Paint
s off
f 1204 1203 1202 1201
f 1205 1206 1207 1208
f 1201 1202 1206 1205
f 1202 1203 1207 1206
f 1203 1204 1208 1207
f 1204 1201 1205 1208
o Roof
v -1.9800 3.9640 -0.3500
v -1.9800 4.3000 0.0000
v -1.9800 4.4400 0.0000
v -1.9800 4.1040 -0.3500
v 1.9800 3.9640 -0.3500
v 1.9800 4.3000 0.0000
v 1.9800 4.4400 0.0000
v 1.9800 4.1040 -0.3500
usemtl Paint
s off
f 1212 1211 1210 1209
f 1213 1214 1215 1216
f 1209 1210 1214 1213
f 1210 1211 1215 1214
f 1211 1212 1216 1215
f 1212 1209 1213 1216
o Roof.Ridge
v -2.0300 4.4900 0.1126
v -2.0300 4.5400 0.0000
v -2.0300 4.4900 -0.1126
v -2.0300 4.3900 -0.1126
v -2.0300 4.3400 -0.0000
v -2.0300 4.3900 0.1126
v 2.0300 4.4900 0.1126
v 2.0300 4.5400 0.0000
v 2.0300 4.4900 -0.1126
v 2.0300 4.3900 -0.1126
v 2.0300 4.3400 -0.0000
v 2.0300 4.3900 0.1126
usemtl RoofDark
s off
f 1222 1221 1220 1219 1218 1217
f 1223 1224 1225 1226 1227 1228
f 1217 1218 1224 1223
f 1218 1219 1225 1224
f 1219 1220 1226 1225
f 1220 1221 1227 1226
f 1221 1222 1228 1227
f 1222 1217 1223 1228
o Gable
v -1.7000 2.7800 -1.4000
v -1.7000 2.7800 1.4000
v -1.7000 4.1800 0.0000
v 1.7000 2.7800 -1.4000
v 1.7000 2.7800 1.4000
v 1.7000 4.1800 0.0000
usemtl Plaster
s off
f 1231 1230 1229
f 1232 1233 1234
f 1229 1230 1233 1232
f 1230 1231 1234 1233
f 1231 1229 1232 1234
o Gable.KingPost
v -1.7550 2.7800 -0.0600
v -1.7550 2.7800 0.0600
v -1.6950 2.7800 0.0600
v -1.6950 2.7800 -0.0600
v -1.7550 4.1000 -0.0600
v -1.7550 4.1000 0.0600
v -1.6950 4.1000 0.0600
v -1.6950 4.1000 -0.0600
usemtl Timber
s off
f 1238 1237 1236 1235
f 1239 1240 1241 1242
f 1235 1236 1240 1239
f 1236 1237 1241 1240
f 1237 1238 1242 1241
f 1238 1235 1239 1242
o Gable.Collar
v -1.7550 3.3000 -0.8500
v -1.7550 3.3000 0.8500
v -1.6950 3.3000 0.8500
v -1.6950 3.3000 -0.8500
v -1.7550 3.4200 -0.8500
v -1.7550 3.4200 0.8500
v -1.6950 3.4200 0.8500
v -1.6950 3.4200 -0.8500
usemtl Timber
s off
f 1246 1245 1244 1243
f 1247 1248 1249 1250
f 1243 1244 1248 1247
f 1244 1245 1249 1248
f 1245 1246 1250 1249
f 1246 1243 1247 1250
o Gable.Window
v -1.7450 3.5200 -0.3400
v -1.7450 3.5200 -0.1000
v -1.7050 3.5200 -0.1000
v -1.7050 3.5200 -0.3400
v -1.7450 3.8600 -0.3400
v -1.7450 3.8600 -0.1000
v -1.7050 3.8600 -0.1000
v -1.7050 3.8600 -0.3400
usemtl Glass
s off
f 1254 1253 1252 1251
f 1255 1256 1257 1258
f 1251 1252 1256 1255
f 1252 1253 1257 1256
f 1253 1254 1258 1257
f 1254 1251 1255 1258
o Gable.Window
v -1.7450 3.5200 0.1000
v -1.7450 3.5200 0.3400
v -1.7050 3.5200 0.3400
v -1.7050 3.5200 0.1000
v -1.7450 3.8600 0.1000
v -1.7450 3.8600 0.3400
v -1.7050 3.8600 0.3400
v -1.7050 3.8600 0.1000
usemtl Glass
s off
f 1262 1261 1260 1259
f 1263 1264 1265 1266
f 1259 1260 1264 1263
f 1260 1261 1265 1264
f 1261 1262 1266 1265
f 1262 1259 1263 1266
o Gable.Barge
v -1.9450 2.8073 1.8246
v -2.0750 2.8073 1.8246
v -2.0750 2.7127 1.7354
v -1.9450 2.7127 1.7354
v -1.9450 4.4873 0.0446
v -2.0750 4.4873 0.0446
v -2.0750 4.3927 -0.0446
v -1.9450 4.3927 -0.0446
usemtl Timber
s off
f 1270 1269 1268 1267
f 1271 1272 1273 1274
f 1267 1268 1272 1271
f 1268 1269 1273 1272
f 1269 1270 1274 1273
f 1270 1267 1271 1274
o Gable.Barge
v -2.0750 2.8073 -1.8246
v -1.9450 2.8073 -1.8246
v -1.9450 2.7127 -1.7354
v -2.0750 2.7127 -1.7354
v -2.0750 4.4873 -0.0446
v -1.9450 4.4873 -0.0446
v -1.9450 4.3927 0.0446
v -2.0750 4.3927 0.0446
usemtl Timber
s off
f 1278 1277 1276 1275
f 1279 1280 1281 1282
f 1275 1276 1280 1279
f 1276 1277 1281 1280
f 1277 1278 1282 1281
f 1278 1275 1279 1282
o Gable.KingPost
v 1.6950 2.7800 -0.0600
v 1.6950 2.7800 0.0600
v 1.7550 2.7800 0.0600
v 1.7550 2.7800 -0.0600
v 1.6950 4.1000 -0.0600
v 1.6950 4.1000 0.0600
v 1.7550 4.1000 0.0600
v 1.7550 4.1000 -0.0600
usemtl Timber
s off
f 1286 1285 1284 1283
f 1287 1288 1289 1290
f 1283 1284 1288 1287
f 1284 1285 1289 1288
f 1285 1286 1290 1289
f 1286 1283 1287 1290
o Gable.Collar
v 1.6950 3.3000 -0.8500
v 1.6950 3.3000 0.8500
v 1.7550 3.3000 0.8500
v 1.7550 3.3000 -0.8500
v 1.6950 3.4200 -0.8500
v 1.6950 3.4200 0.8500
v 1.7550 3.4200 0.8500
v 1.7550 3.4200 -0.8500
usemtl Timber
s off
f 1294 1293 1292 1291
f 1295 1296 1297 1298
f 1291 1292 1296 1295
f 1292 1293 1297 1296
f 1293 1294 1298 1297
f 1294 1291 1295 1298
o Gable.Window
v 1.7050 3.5200 -0.3400
v 1.7050 3.5200 -0.1000
v 1.7450 3.5200 -0.1000
v 1.7450 3.5200 -0.3400
v 1.7050 3.8600 -0.3400
v 1.7050 3.8600 -0.1000
v 1.7450 3.8600 -0.1000
v 1.7450 3.8600 -0.3400
usemtl Glass
s off
f 1302 1301 1300 1299
f 1303 1304 1305 1306
f 1299 1300 1304 1303
f 1300 1301 1305 1304
f 1301 1302 1306 1305
f 1302 1299 1303 1306
o Gable.Window
v 1.7050 3.5200 0.1000
v 1.7050 3.5200 0.3400
v 1.7450 3.5200 0.3400
v 1.7450 3.5200 0.1000
v 1.7050 3.8600 0.1000
v 1.7050 3.8600 0.3400
v 1.7450 3.8600 0.3400
v 1.7450 3.8600 0.1000
usemtl Glass
s off
f 1310 1309 1308 1307
f 1311 1312 1313 1314
f 1307 1308 1312 1311
f 1308 1309 1313 1312
f 1309 1310 1314 1313
f 1310 1307 1311 1314
o Gable.Barge
v 2.0750 2.8073 1.8246
v 1.9450 2.8073 1.8246
v 1.9450 2.7127 1.7354
v 2.0750 2.7127 1.7354
v 2.0750 4.4873 0.0446
v 1.9450 4.4873 0.0446
v 1.9450 4.3927 -0.0446
v 2.0750 4.3927 -0.0446
usemtl Timber
s off
f 1318 1317 1316 1315
f 1319 1320 1321 1322
f 1315 1316 1320 1319
f 1316 1317 1321 1320
f 1317 1318 1322 1321
f 1318 1315 1319 1322
o Gable.Barge
v 1.9450 2.8073 -1.8246
v 2.0750 2.8073 -1.8246
v 2.0750 2.7127 -1.7354
v 1.9450 2.7127 -1.7354
v 1.9450 4.4873 -0.0446
v 2.0750 4.4873 -0.0446
v 2.0750 4.3927 0.0446
v 1.9450 4.3927 0.0446
usemtl Timber
s off
f 1326 1325 1324 1323
f 1327 1328 1329 1330
f 1323 1324 1328 1327
f 1324 1325 1329 1328
f 1325 1326 1330 1329
f 1326 1323 1327 1330
o Chimney
v 0.7770 2.6000 -0.9000
v 0.7500 2.6000 -0.8730
v 0.7500 2.6000 -0.4770
v 0.7770 2.6000 -0.4500
v 1.1730 2.6000 -0.4500
v 1.2000 2.6000 -0.4770
v 1.2000 2.6000 -0.8730
v 1.1730 2.6000 -0.9000
v 0.7770 5.0000 -0.9000
v 0.7500 5.0000 -0.8730
v 0.7500 5.0000 -0.4770
v 0.7770 5.0000 -0.4500
v 1.1730 5.0000 -0.4500
v 1.2000 5.0000 -0.4770
v 1.2000 5.0000 -0.8730
v 1.1730 5.0000 -0.9000
usemtl Stone
s off
f 1338 1337 1336 1335 1334 1333 1332 1331
f 1339 1340 1341 1342 1343 1344 1345 1346
f 1331 1332 1340 1339
f 1332 1333 1341 1340
f 1333 1334 1342 1341
f 1334 1335 1343 1342
f 1335 1336 1344 1343
f 1336 1337 1345 1344
f 1337 1338 1346 1345
f 1338 1331 1339 1346
o Chimney.Band
v 0.7300 3.9000 -0.9200
v 0.7300 3.9000 -0.4300
v 1.2200 3.9000 -0.4300
v 1.2200 3.9000 -0.9200
v 0.7300 3.9600 -0.9200
v 0.7300 3.9600 -0.4300
v 1.2200 3.9600 -0.4300
v 1.2200 3.9600 -0.9200
usemtl StoneDark
s off
f 1350 1349 1348 1347
f 1351 1352 1353 1354
f 1347 1348 1352 1351
f 1348 1349 1353 1352
f 1349 1350 1354 1353
f 1350 1347 1351 1354
o Chimney.Band
v 0.7300 4.4000 -0.9200
v 0.7300 4.4000 -0.4300
v 1.2200 4.4000 -0.4300
v 1.2200 4.4000 -0.9200
v 0.7300 4.4600 -0.9200
v 0.7300 4.4600 -0.4300
v 1.2200 4.4600 -0.4300
v 1.2200 4.4600 -0.9200
usemtl StoneDark
s off
f 1358 1357 1356 1355
f 1359 1360 1361 1362
f 1355 1356 1360 1359
f 1356 1357 1361 1360
f 1357 1358 1362 1361
f 1358 1355 1359 1362
o Chimney.Cap
v 0.6900 5.0000 -0.9600
v 0.6900 5.0000 -0.3900
v 1.2600 5.0000 -0.3900
v 1.2600 5.0000 -0.9600
v 0.6900 5.1200 -0.9600
v 0.6900 5.1200 -0.3900
v 1.2600 5.1200 -0.3900
v 1.2600 5.1200 -0.9600
usemtl StoneDark
s off
f 1366 1365 1364 1363
f 1367 1368 1369 1370
f 1363 1364 1368 1367
f 1364 1365 1369 1368
f 1365 1366 1370 1369
f 1366 1363 1367 1370
o Chimney.Flue
v 0.8300 5.1200 -0.8200
v 0.8300 5.1200 -0.5300
v 1.1200 5.1200 -0.5300
v 1.1200 5.1200 -0.8200
v 0.8300 5.1300 -0.8200
v 0.8300 5.1300 -0.5300
v 1.1200 5.1300 -0.5300
v 1.1200 5.1300 -0.8200
usemtl Soot
s off
f 1374 1373 1372 1371
f 1375 1376 1377 1378
f 1371 1372 1376 1375
f 1372 1373 1377 1376
f 1373 1374 1378 1377
f 1374 1371 1375 1378
o Barrel
v -1.1236 0.0000 1.8735
v -1.2101 0.0000 1.9925
v -1.3500 0.0000 2.0380
v -1.4899 0.0000 1.9925
v -1.5764 0.0000 1.8735
v -1.5764 0.0000 1.7265
v -1.4899 0.0000 1.6075
v -1.3500 0.0000 1.5620
v -1.2101 0.0000 1.6075
v -1.1236 0.0000 1.7265
v -1.0837 0.4000 1.8865
v -1.1854 0.4000 2.0265
v -1.3500 0.4000 2.0800
v -1.5146 0.4000 2.0265
v -1.6163 0.4000 1.8865
v -1.6163 0.4000 1.7135
v -1.5146 0.4000 1.5735
v -1.3500 0.4000 1.5200
v -1.1854 0.4000 1.5735
v -1.0837 0.4000 1.7135
usemtl Wood
s off
f 1388 1387 1386 1385 1384 1383 1382 1381 1380 1379
f 1389 1390 1391 1392 1393 1394 1395 1396 1397 1398
f 1379 1380 1390 1389
f 1380 1381 1391 1390
f 1381 1382 1392 1391
f 1382 1383 1393 1392
f 1383 1384 1394 1393
f 1384 1385 1395 1394
f 1385 1386 1396 1395
f 1386 1387 1397 1396
f 1387 1388 1398 1397
f 1388 1379 1389 1398
o Barrel
v -1.0837 0.4000 1.8865
v -1.1854 0.4000 2.0265
v -1.3500 0.4000 2.0800
v -1.5146 0.4000 2.0265
v -1.6163 0.4000 1.8865
v -1.6163 0.4000 1.7135
v -1.5146 0.4000 1.5735
v -1.3500 0.4000 1.5200
v -1.1854 0.4000 1.5735
v -1.0837 0.4000 1.7135
v -1.1236 0.8000 1.8735
v -1.2101 0.8000 1.9925
v -1.3500 0.8000 2.0380
v -1.4899 0.8000 1.9925
v -1.5764 0.8000 1.8735
v -1.5764 0.8000 1.7265
v -1.4899 0.8000 1.6075
v -1.3500 0.8000 1.5620
v -1.2101 0.8000 1.6075
v -1.1236 0.8000 1.7265
usemtl Wood
s off
f 1408 1407 1406 1405 1404 1403 1402 1401 1400 1399
f 1409 1410 1411 1412 1413 1414 1415 1416 1417 1418
f 1399 1400 1410 1409
f 1400 1401 1411 1410
f 1401 1402 1412 1411
f 1402 1403 1413 1412
f 1403 1404 1414 1413
f 1404 1405 1415 1414
f 1405 1406 1416 1415
f 1406 1407 1417 1416
f 1407 1408 1418 1417
f 1408 1399 1409 1418
o Barrel.Hoop
v -1.0868 0.1200 1.8855
v -1.1874 0.1200 2.0239
v -1.3500 0.1200 2.0767
v -1.5126 0.1200 2.0239
v -1.6132 0.1200 1.8855
v -1.6132 0.1200 1.7145
v -1.5126 0.1200 1.5761
v -1.3500 0.1200 1.5233
v -1.1874 0.1200 1.5761
v -1.0868 0.1200 1.7145
v -1.0868 0.1700 1.8855
v -1.1874 0.1700 2.0239
v -1.3500 0.1700 2.0767
v -1.5126 0.1700 2.0239
v -1.6132 0.1700 1.8855
v -1.6132 0.1700 1.7145
v -1.5126 0.1700 1.5761
v -1.3500 0.1700 1.5233
v -1.1874 0.1700 1.5761
v -1.0868 0.1700 1.7145
usemtl Iron
s off
f 1428 1427 1426 1425 1424 1423 1422 1421 1420 1419
f 1429 1430 1431 1432 1433 1434 1435 1436 1437 1438
f 1419 1420 1430 1429
f 1420 1421 1431 1430
f 1421 1422 1432 1431
f 1422 1423 1433 1432
f 1423 1424 1434 1433
f 1424 1425 1435 1434
f 1425 1426 1436 1435
f 1426 1427 1437 1436
f 1427 1428 1438 1437
f 1428 1419 1429 1438
o Barrel.Hoop
v -1.0833 0.6400 1.8867
v -1.1852 0.6400 2.0269
v -1.3500 0.6400 2.0805
v -1.5148 0.6400 2.0269
v -1.6167 0.6400 1.8867
v -1.6167 0.6400 1.7133
v -1.5148 0.6400 1.5731
v -1.3500 0.6400 1.5195
v -1.1852 0.6400 1.5731
v -1.0833 0.6400 1.7133
v -1.0833 0.6900 1.8867
v -1.1852 0.6900 2.0269
v -1.3500 0.6900 2.0805
v -1.5148 0.6900 2.0269
v -1.6167 0.6900 1.8867
v -1.6167 0.6900 1.7133
v -1.5148 0.6900 1.5731
v -1.3500 0.6900 1.5195
v -1.1852 0.6900 1.5731
v -1.0833 0.6900 1.7133
usemtl Iron
s off
f 1448 1447 1446 1445 1444 1443 1442 1441 1440 1439
f 1449 1450 1451 1452 1453 1454 1455 1456 1457 1458
f 1439 1440 1450 1449
f 1440 1441 1451 1450
f 1441 1442 1452 1451
f 1442 1443 1453 1452
f 1443 1444 1454 1453
f 1444 1445 1455 1454
f 1445 1446 1456 1455
f 1446 1447 1457 1456
f 1447 1448 1458 1457
f 1448 1439 1449 1458
o Barrel.Lid
v -1.1423 0.8000 1.8675
v -1.2216 0.8000 1.9767
v -1.3500 0.8000 2.0184
v -1.4784 0.8000 1.9767
v -1.5577 0.8000 1.8675
v -1.5577 0.8000 1.7325
v -1.4784 0.8000 1.6233
v -1.3500 0.8000 1.5816
v -1.2216 0.8000 1.6233
v -1.1423 0.8000 1.7325
v -1.1423 0.8200 1.8675
v -1.2216 0.8200 1.9767
v -1.3500 0.8200 2.0184
v -1.4784 0.8200 1.9767
v -1.5577 0.8200 1.8675
v -1.5577 0.8200 1.7325
v -1.4784 0.8200 1.6233
v -1.3500 0.8200 1.5816
v -1.2216 0.8200 1.6233
v -1.1423 0.8200 1.7325
usemtl WoodDark
s off
f 1468 1467 1466 1465 1464 1463 1462 1461 1460 1459
f 1469 1470 1471 1472 1473 1474 1475 1476 1477 1478
f 1459 1460 1470 1469
f 1460 1461 1471 1470
f 1461 1462 1472 1471
f 1462 1463 1473 1472
f 1463 1464 1474 1473
f 1464 1465 1475 1474
f 1465 1466 1476 1475
f 1466 1467 1477 1476
f 1467 1468 1478 1477
f 1468 1459 1469 1478
o Firewood
v 1.8631 0.1104 -1.3000
v 1.8156 0.1482 -1.3000
v 1.7564 0.1347 -1.3000
v 1.7300 0.0800 -1.3000
v 1.7564 0.0253 -1.3000
v 1.8156 0.0118 -1.3000
v 1.8631 0.0496 -1.3000
v 1.8631 0.1104 -0.2500
v 1.8156 0.1482 -0.2500
v 1.7564 0.1347 -0.2500
v 1.7300 0.0800 -0.2500
v 1.7564 0.0253 -0.2500
v 1.8156 0.0118 -0.2500
v 1.8631 0.0496 -0.2500
usemtl Bark
s off
f 1485 1484 1483 1482 1481 1480 1479
f 1486 1487 1488 1489 1490 1491 1492
f 1479 1480 1487 1486
f 1480 1481 1488 1487
f 1481 1482 1489 1488
f 1482 1483 1490 1489
f 1483 1484 1491 1490
f 1484 1485 1492 1491
f 1485 1479 1486 1492
o Firewood.End
v 1.8541 0.1060 -1.3120
v 1.8134 0.1385 -1.3120
v 1.7626 0.1269 -1.3120
v 1.7400 0.0800 -1.3120
v 1.7626 0.0331 -1.3120
v 1.8134 0.0215 -1.3120
v 1.8541 0.0540 -1.3120
v 1.8541 0.1060 -1.3000
v 1.8134 0.1385 -1.3000
v 1.7626 0.1269 -1.3000
v 1.7400 0.0800 -1.3000
v 1.7626 0.0331 -1.3000
v 1.8134 0.0215 -1.3000
v 1.8541 0.0540 -1.3000
usemtl LogEnd
s off
f 1499 1498 1497 1496 1495 1494 1493
f 1500 1501 1502 1503 1504 1505 1506
f 1493 1494 1501 1500
f 1494 1495 1502 1501
f 1495 1496 1503 1502
f 1496 1497 1504 1503
f 1497 1498 1505 1504
f 1498 1499 1506 1505
f 1499 1493 1500 1506
o Firewood.End
v 1.8541 0.1060 -0.2500
v 1.8134 0.1385 -0.2500
v 1.7626 0.1269 -0.2500
v 1.7400 0.0800 -0.2500
v 1.7626 0.0331 -0.2500
v 1.8134 0.0215 -0.2500
v 1.8541 0.0540 -0.2500
v 1.8541 0.1060 -0.2380
v 1.8134 0.1385 -0.2380
v 1.7626 0.1269 -0.2380
v 1.7400 0.0800 -0.2380
v 1.7626 0.0331 -0.2380
v 1.8134 0.0215 -0.2380
v 1.8541 0.0540 -0.2380
usemtl LogEnd
s off
f 1513 1512 1511 1510 1509 1508 1507
f 1514 1515 1516 1517 1518 1519 1520
f 1507 1508 1515 1514
f 1508 1509 1516 1515
f 1509 1510 1517 1516
f 1510 1511 1518 1517
f 1511 1512 1519 1518
f 1512 1513 1520 1519
f 1513 1507 1514 1520
o Firewood
v 2.0031 0.1104 -1.3000
v 1.9556 0.1482 -1.3000
v 1.8964 0.1347 -1.3000
v 1.8700 0.0800 -1.3000
v 1.8964 0.0253 -1.3000
v 1.9556 0.0118 -1.3000
v 2.0031 0.0496 -1.3000
v 2.0031 0.1104 -0.2500
v 1.9556 0.1482 -0.2500
v 1.8964 0.1347 -0.2500
v 1.8700 0.0800 -0.2500
v 1.8964 0.0253 -0.2500
v 1.9556 0.0118 -0.2500
v 2.0031 0.0496 -0.2500
usemtl Bark
s off
f 1527 1526 1525 1524 1523 1522 1521
f 1528 1529 1530 1531 1532 1533 1534
f 1521 1522 1529 1528
f 1522 1523 1530 1529
f 1523 1524 1531 1530
f 1524 1525 1532 1531
f 1525 1526 1533 1532
f 1526 1527 1534 1533
f 1527 1521 1528 1534
o Firewood.End
v 1.9941 0.1060 -1.3120
v 1.9534 0.1385 -1.3120
v 1.9026 0.1269 -1.3120
v 1.8800 0.0800 -1.3120
v 1.9026 0.0331 -1.3120
v 1.9534 0.0215 -1.3120
v 1.9941 0.0540 -1.3120
v 1.9941 0.1060 -1.3000
v 1.9534 0.1385 -1.3000
v 1.9026 0.1269 -1.3000
v 1.8800 0.0800 -1.3000
v 1.9026 0.0331 -1.3000
v 1.9534 0.0215 -1.3000
v 1.9941 0.0540 -1.3000
usemtl LogEnd
s off
f 1541 1540 1539 1538 1537 1536 1535
f 1542 1543 1544 1545 1546 1547 1548
f 1535 1536 1543 1542
f 1536 1537 1544 1543
f 1537 1538 1545 1544
f 1538 1539 1546 1545
f 1539 1540 1547 1546
f 1540 1541 1548 1547
f 1541 1535 1542 1548
o Firewood.End
v 1.9941 0.1060 -0.2500
v 1.9534 0.1385 -0.2500
v 1.9026 0.1269 -0.2500
v 1.8800 0.0800 -0.2500
v 1.9026 0.0331 -0.2500
v 1.9534 0.0215 -0.2500
v 1.9941 0.0540 -0.2500
v 1.9941 0.1060 -0.2380
v 1.9534 0.1385 -0.2380
v 1.9026 0.1269 -0.2380
v 1.8800 0.0800 -0.2380
v 1.9026 0.0331 -0.2380
v 1.9534 0.0215 -0.2380
v 1.9941 0.0540 -0.2380
usemtl LogEnd
s off
f 1555 1554 1553 1552 1551 1550 1549
f 1556 1557 1558 1559 1560 1561 1562
f 1549 1550 1557 1556
f 1550 1551 1558 1557
f 1551 1552 1559 1558
f 1552 1553 1560 1559
f 1553 1554 1561 1560
f 1554 1555 1562 1561
f 1555 1549 1556 1562
o Firewood
v 1.9331 0.2404 -1.3000
v 1.8856 0.2782 -1.3000
v 1.8264 0.2647 -1.3000
v 1.8000 0.2100 -1.3000
v 1.8264 0.1553 -1.3000
v 1.8856 0.1418 -1.3000
v 1.9331 0.1796 -1.3000
v 1.9331 0.2404 -0.2500
v 1.8856 0.2782 -0.2500
v 1.8264 0.2647 -0.2500
v 1.8000 0.2100 -0.2500
v 1.8264 0.1553 -0.2500
v 1.8856 0.1418 -0.2500
v 1.9331 0.1796 -0.2500
usemtl Bark
s off
f 1569 1568 1567 1566 1565 1564 1563
f 1570 1571 1572 1573 1574 1575 1576
f 1563 1564 1571 1570
f 1564 1565 1572 1571
f 1565 1566 1573 1572
f 1566 1567 1574 1573
f 1567 1568 1575 1574
f 1568 1569 1576 1575
f 1569 1563 1570 1576
o Firewood.End
v 1.9241 0.2360 -1.3120
v 1.8834 0.2685 -1.3120
v 1.8326 0.2569 -1.3120
v 1.8100 0.2100 -1.3120
v 1.8326 0.1631 -1.3120
v 1.8834 0.1515 -1.3120
v 1.9241 0.1840 -1.3120
v 1.9241 0.2360 -1.3000
v 1.8834 0.2685 -1.3000
v 1.8326 0.2569 -1.3000
v 1.8100 0.2100 -1.3000
v 1.8326 0.1631 -1.3000
v 1.8834 0.1515 -1.3000
v 1.9241 0.1840 -1.3000
usemtl LogEnd
s off
f 1583 1582 1581 1580 1579 1578 1577
f 1584 1585 1586 1587 1588 1589 1590
f 1577 1578 1585 1584
f 1578 1579 1586 1585
f 1579 1580 1587 1586
f 1580 1581 1588 1587
f 1581 1582 1589 1588
f 1582 1583 1590 1589
f 1583 1577 1584 1590
o Firewood.End
v 1.9241 0.2360 -0.2500
v 1.8834 0.2685 -0.2500
v 1.8326 0.2569 -0.2500
v 1.8100 0.2100 -0.2500
v 1.8326 0.1631 -0.2500
v 1.8834 0.1515 -0.2500
v 1.9241 0.1840 -0.2500
v 1.9241 0.2360 -0.2380
v 1.8834 0.2685 -0.2380
v 1.8326 0.2569 -0.2380
v 1.8100 0.2100 -0.2380
v 1.8326 0.1631 -0.2380
v 1.8834 0.1515 -0.2380
v 1.9241 0.1840 -0.2380
usemtl LogEnd
s off
f 1597 1596 1595 1594 1593 1592 1591
f 1598 1599 1600 1601 1602 1603 1604
f 1591 1592 1599 1598
f 1592 1593 1600 1599
f 1593 1594 1601 1600
f 1594 1595 1602 1601
f 1595 1596 1603 1602
f 1596 1597 1604 1603
f 1597 1591 1598 1604
o Firewood
v 2.0731 0.2404 -1.3000
v 2.0256 0.2782 -1.3000
v 1.9664 0.2647 -1.3000
v 1.9400 0.2100 -1.3000
v 1.9664 0.1553 -1.3000
v 2.0256 0.1418 -1.3000
v 2.0731 0.1796 -1.3000
v 2.0731 0.2404 -0.2500
v 2.0256 0.2782 -0.2500
v 1.9664 0.2647 -0.2500
v 1.9400 0.2100 -0.2500
v 1.9664 0.1553 -0.2500
v 2.0256 0.1418 -0.2500
v 2.0731 0.1796 -0.2500
usemtl Bark
s off
f 1611 1610 1609 1608 1607 1606 1605
f 1612 1613 1614 1615 1616 1617 1618
f 1605 1606 1613 1612
f 1606 1607 1614 1613
f 1607 1608 1615 1614
f 1608 1609 1616 1615
f 1609 1610 1617 1616
f 1610 1611 1618 1617
f 1611 1605 1612 1618
o Firewood.End
v 2.0641 0.2360 -1.3120
v 2.0234 0.2685 -1.3120
v 1.9726 0.2569 -1.3120
v 1.9500 0.2100 -1.3120
v 1.9726 0.1631 -1.3120
v 2.0234 0.1515 -1.3120
v 2.0641 0.1840 -1.3120
v 2.0641 0.2360 -1.3000
v 2.0234 0.2685 -1.3000
v 1.9726 0.2569 -1.3000
v 1.9500 0.2100 -1.3000
v 1.9726 0.1631 -1.3000
v 2.0234 0.1515 -1.3000
v 2.0641 0.1840 -1.3000
usemtl LogEnd
s off
f 1625 1624 1623 1622 1621 1620 1619
f 1626 1627 1628 1629 1630 1631 1632
f 1619 1620 1627 1626
f 1620 1621 1628 1627
f 1621 1622 1629 1628
f 1622 1623 1630 1629
f 1623 1624 1631 1630
f 1624 1625 1632 1631
f 1625 1619 1626 1632
o Firewood.End
v 2.0641 0.2360 -0.2500
v 2.0234 0.2685 -0.2500
v 1.9726 0.2569 -0.2500
v 1.9500 0.2100 -0.2500
v 1.9726 0.1631 -0.2500
v 2.0234 0.1515 -0.2500
v 2.0641 0.1840 -0.2500
v 2.0641 0.2360 -0.2380
v 2.0234 0.2685 -0.2380
v 1.9726 0.2569 -0.2380
v 1.9500 0.2100 -0.2380
v 1.9726 0.1631 -0.2380
v 2.0234 0.1515 -0.2380
v 2.0641 0.1840 -0.2380
usemtl LogEnd
s off
f 1639 1638 1637 1636 1635 1634 1633
f 1640 1641 1642 1643 1644 1645 1646
f 1633 1634 1641 1640
f 1634 1635 1642 1641
f 1635 1636 1643 1642
f 1636 1637 1644 1643
f 1637 1638 1645 1644
f 1638 1639 1646 1645
f 1639 1633 1640 1646
o Firewood
v 1.8631 0.3704 -1.3000
v 1.8156 0.4082 -1.3000
v 1.7564 0.3947 -1.3000
v 1.7300 0.3400 -1.3000
v 1.7564 0.2853 -1.3000
v 1.8156 0.2718 -1.3000
v 1.8631 0.3096 -1.3000
v 1.8631 0.3704 -0.2500
v 1.8156 0.4082 -0.2500
v 1.7564 0.3947 -0.2500
v 1.7300 0.3400 -0.2500
v 1.7564 0.2853 -0.2500
v 1.8156 0.2718 -0.2500
v 1.8631 0.3096 -0.2500
usemtl Bark
s off
f 1653 1652 1651 1650 1649 1648 1647
f 1654 1655 1656 1657 1658 1659 1660
f 1647 1648 1655 1654
f 1648 1649 1656 1655
f 1649 1650 1657 1656
f 1650 1651 1658 1657
f 1651 1652 1659 1658
f 1652 1653 1660 1659
f 1653 1647 1654 1660
o Firewood.End
v 1.8541 0.3660 -1.3120
v 1.8134 0.3985 -1.3120
v 1.7626 0.3869 -1.3120
v 1.7400 0.3400 -1.3120
v 1.7626 0.2931 -1.3120
v 1.8134 0.2815 -1.3120
v 1.8541 0.3140 -1.3120
v 1.8541 0.3660 -1.3000
v 1.8134 0.3985 -1.3000
v 1.7626 0.3869 -1.3000
v 1.7400 0.3400 -1.3000
v 1.7626 0.2931 -1.3000
v 1.8134 0.2815 -1.3000
v 1.8541 0.3140 -1.3000
usemtl LogEnd
s off
f 1667 1666 1665 1664 1663 1662 1661
f 1668 1669 1670 1671 1672 1673 1674
f 1661 1662 1669 1668
f 1662 1663 1670 1669
f 1663 1664 1671 1670
f 1664 1665 1672 1671
f 1665 1666 1673 1672
f 1666 1667 1674 1673
f 1667 1661 1668 1674
o Firewood.End
v 1.8541 0.3660 -0.2500
v 1.8134 0.3985 -0.2500
v 1.7626 0.3869 -0.2500
v 1.7400 0.3400 -0.2500
v 1.7626 0.2931 -0.2500
v 1.8134 0.2815 -0.2500
v 1.8541 0.3140 -0.2500
v 1.8541 0.3660 -0.2380
v 1.8134 0.3985 -0.2380
v 1.7626 0.3869 -0.2380
v 1.7400 0.3400 -0.2380
v 1.7626 0.2931 -0.2380
v 1.8134 0.2815 -0.2380
v 1.8541 0.3140 -0.2380
usemtl LogEnd
s off
f 1681 1680 1679 1678 1677 1676 1675
f 1682 1683 1684 1685 1686 1687 1688
f 1675 1676 1683 1682
f 1676 1677 1684 1683
f 1677 1678 1685 1684
f 1678 1679 1686 1685
f 1679 1680 1687 1686
f 1680 1681 1688 1687
f 1681 1675 1682 1688
