# lumber_camp.obj - Holzlager fuer procedurally-generated-map
# Einheiten: Meter (1 Tile = 5 m, Tueren 2.1 m, ein Dorfbewohner 1.75 m), Y oben,
# Vorderseite nach +Z - so wie Blender ein Modell exportiert, das in der
# Vorderansicht zum Betrachter schaut.
# Material Paint (das Dach) bekommt die Gebaeudefarbe aus dem Spiel.
mtllib lumber_camp.mtl
o Post
v -2.255 0 1.34
v -2.31 0 1.395
v -2.31 0 1.505
v -2.255 0 1.56
v -2.145 0 1.56
v -2.09 0 1.505
v -2.09 0 1.395
v -2.145 0 1.34
v -2.255 2.9 1.34
v -2.31 2.9 1.395
v -2.31 2.9 1.505
v -2.255 2.9 1.56
v -2.145 2.9 1.56
v -2.09 2.9 1.505
v -2.09 2.9 1.395
v -2.145 2.9 1.34
usemtl Wood
s off
f 8 7 6 5 4 3 2 1
f 9 10 11 12 13 14 15 16
f 1 2 10 9
f 2 3 11 10
f 3 4 12 11
f 4 5 13 12
f 5 6 14 13
f 6 7 15 14
f 7 8 16 15
f 8 1 9 16
o Post
v -2.255 0 -1.61
v -2.31 0 -1.555
v -2.31 0 -1.445
v -2.255 0 -1.39
v -2.145 0 -1.39
v -2.09 0 -1.445
v -2.09 0 -1.555
v -2.145 0 -1.61
v -2.255 2.35 -1.61
v -2.31 2.35 -1.555
v -2.31 2.35 -1.445
v -2.255 2.35 -1.39
v -2.145 2.35 -1.39
v -2.09 2.35 -1.445
v -2.09 2.35 -1.555
v -2.145 2.35 -1.61
usemtl Wood
s off
f 24 23 22 21 20 19 18 17
f 25 26 27 28 29 30 31 32
f 17 18 26 25
f 18 19 27 26
f 19 20 28 27
f 20 21 29 28
f 21 22 30 29
f 22 23 31 30
f 23 24 32 31
f 24 17 25 32
o Post.Foot
v -2.302 0 1.28
v -2.37 0 1.348
v -2.37 0 1.552
v -2.302 0 1.62
v -2.098 0 1.62
v -2.03 0 1.552
v -2.03 0 1.348
v -2.098 0 1.28
v -2.302 0.12 1.28
v -2.37 0.12 1.348
v -2.37 0.12 1.552
v -2.302 0.12 1.62
v -2.098 0.12 1.62
v -2.03 0.12 1.552
v -2.03 0.12 1.348
v -2.098 0.12 1.28
usemtl Stone
s off
f 40 39 38 37 36 35 34 33
f 41 42 43 44 45 46 47 48
f 33 34 42 41
f 34 35 43 42
f 35 36 44 43
f 36 37 45 44
f 37 38 46 45
f 38 39 47 46
f 39 40 48 47
f 40 33 41 48
o Beam.Side
v -2.29 2.15 -1.65
v -2.29 2.15 1.6
v -2.11 2.15 1.6
v -2.11 2.15 -1.65
v -2.29 2.35 -1.65
v -2.29 2.35 1.6
v -2.11 2.35 1.6
v -2.11 2.35 -1.65
usemtl Timber
s off
f 52 51 50 49
f 53 54 55 56
f 49 50 54 53
f 50 51 55 54
f 51 52 56 55
f 52 49 53 56
o Brace
v -2.155 2.132 1.482
v -2.245 2.132 1.482
v -2.245 2.068 1.418
v -2.155 2.068 1.418
v -2.155 2.732 0.882
v -2.245 2.732 0.882
v -2.245 2.668 0.818
v -2.155 2.668 0.818
usemtl Timber
s off
f 60 59 58 57
f 61 62 63 64
f 57 58 62 61
f 58 59 63 62
f 59 60 64 63
f 60 57 61 64
o Post
v 2.145 0 1.34
v 2.09 0 1.395
v 2.09 0 1.505
v 2.145 0 1.56
v 2.255 0 1.56
v 2.31 0 1.505
v 2.31 0 1.395
v 2.255 0 1.34
v 2.145 2.9 1.34
v 2.09 2.9 1.395
v 2.09 2.9 1.505
v 2.145 2.9 1.56
v 2.255 2.9 1.56
v 2.31 2.9 1.505
v 2.31 2.9 1.395
v 2.255 2.9 1.34
usemtl Wood
s off
f 72 71 70 69 68 67 66 65
f 73 74 75 76 77 78 79 80
f 65 66 74 73
f 66 67 75 74
f 67 68 76 75
f 68 69 77 76
f 69 70 78 77
f 70 71 79 78
f 71 72 80 79
f 72 65 73 80
o Post
v 2.145 0 -1.61
v 2.09 0 -1.555
v 2.09 0 -1.445
v 2.145 0 -1.39
v 2.255 0 -1.39
v 2.31 0 -1.445
v 2.31 0 -1.555
v 2.255 0 -1.61
v 2.145 2.35 -1.61
v 2.09 2.35 -1.555
v 2.09 2.35 -1.445
v 2.145 2.35 -1.39
v 2.255 2.35 -1.39
v 2.31 2.35 -1.445
v 2.31 2.35 -1.555
v 2.255 2.35 -1.61
usemtl Wood
s off
f 88 87 86 85 84 83 82 81
f 89 90 91 92 93 94 95 96
f 81 82 90 89
f 82 83 91 90
f 83 84 92 91
f 84 85 93 92
f 85 86 94 93
f 86 87 95 94
f 87 88 96 95
f 88 81 89 96
o Post.Foot
v 2.098 0 1.28
v 2.03 0 1.348
v 2.03 0 1.552
v 2.098 0 1.62
v 2.302 0 1.62
v 2.37 0 1.552
v 2.37 0 1.348
v 2.302 0 1.28
v 2.098 0.12 1.28
v 2.03 0.12 1.348
v 2.03 0.12 1.552
v 2.098 0.12 1.62
v 2.302 0.12 1.62
v 2.37 0.12 1.552
v 2.37 0.12 1.348
v 2.302 0.12 1.28
usemtl Stone
s off
f 104 103 102 101 100 99 98 97
f 105 106 107 108 109 110 111 112
f 97 98 106 105
f 98 99 107 106
f 99 100 108 107
f 100 101 109 108
f 101 102 110 109
f 102 103 111 110
f 103 104 112 111
f 104 97 105 112
o Beam.Side
v 2.11 2.15 -1.65
v 2.11 2.15 1.6
v 2.29 2.15 1.6
v 2.29 2.15 -1.65
v 2.11 2.35 -1.65
v 2.11 2.35 1.6
v 2.29 2.35 1.6
v 2.29 2.35 -1.65
usemtl Timber
s off
f 116 115 114 113
f 117 118 119 120
f 113 114 118 117
f 114 115 119 118
f 115 116 120 119
f 116 113 117 120
o Brace
v 2.245 2.132 1.482
v 2.155 2.132 1.482
v 2.155 2.068 1.418
v 2.245 2.068 1.418
v 2.245 2.732 0.882
v 2.155 2.732 0.882
v 2.155 2.668 0.818
v 2.245 2.668 0.818
usemtl Timber
s off
f 124 123 122 121
f 125 126 127 128
f 121 122 126 125
f 122 123 127 126
f 123 124 128 127
f 124 121 125 128
o Beam.Front
v -2.4 2.66 1.33
v -2.4 2.66 1.57
v 2.4 2.66 1.57
v 2.4 2.66 1.33
v -2.4 2.9 1.33
v -2.4 2.9 1.57
v 2.4 2.9 1.57
v 2.4 2.9 1.33
usemtl Timber
s off
f 132 131 130 129
f 133 134 135 136
f 129 130 134 133
f 130 131 135 134
f 131 132 136 135
f 132 129 133 136
o Beam.Back
v -2.4 2.11 -1.62
v -2.4 2.11 -1.38
v 2.4 2.11 -1.38
v 2.4 2.11 -1.62
v -2.4 2.35 -1.62
v -2.4 2.35 -1.38
v 2.4 2.35 -1.38
v 2.4 2.35 -1.62
usemtl Timber
s off
f 140 139 138 137
f 141 142 143 144
f 137 138 142 141
f 138 139 143 142
f 139 140 144 143
f 140 137 141 144
o Brace
v -1.633 2.69 1.405
v -1.633 2.69 1.495
v -1.567 2.63 1.495
v -1.567 2.63 1.405
v -2.233 2.03 1.405
v -2.233 2.03 1.495
v -2.167 1.97 1.495
v -2.167 1.97 1.405
usemtl Timber
s off
f 148 147 146 145
f 149 150 151 152
f 145 146 150 149
f 146 147 151 150
f 147 148 152 151
f 148 145 149 152
o Brace
v 1.633 2.69 1.495
v 1.633 2.69 1.405
v 1.567 2.63 1.405
v 1.567 2.63 1.495
v 2.233 2.03 1.495
v 2.233 2.03 1.405
v 2.167 1.97 1.405
v 2.167 1.97 1.495
usemtl Timber
s off
f 156 155 154 153
f 157 158 159 160
f 153 154 158 157
f 154 155 159 158
f 155 156 160 159
f 156 153 157 160
o Wall.Plank
v -2.2 0 -1.56
v -2.2 0 -1.48
v -1.971 0 -1.48
v -1.971 0 -1.56
v -2.2 2.11 -1.56
v -2.2 2.11 -1.48
v -1.971 2.11 -1.48
v -1.971 2.11 -1.56
usemtl Wood
s off
f 164 163 162 161
f 165 166 167 168
f 161 162 166 165
f 162 163 167 166
f 163 164 168 167
f 164 161 165 168
o Wall.Plank
v -1.956 0 -1.56
v -1.956 0 -1.48
v -1.726 0 -1.48
v -1.726 0 -1.56
v -1.956 2.08 -1.56
v -1.956 2.08 -1.48
v -1.726 2.08 -1.48
v -1.726 2.08 -1.56
usemtl WoodLight
s off
f 172 171 170 169
f 173 174 175 176
f 169 170 174 173
f 170 171 175 174
f 171 172 176 175
f 172 169 173 176
o Wall.Plank
v -1.711 0 -1.56
v -1.711 0 -1.48
v -1.482 0 -1.48
v -1.482 0 -1.56
v -1.711 2.11 -1.56
v -1.711 2.11 -1.48
v -1.482 2.11 -1.48
v -1.482 2.11 -1.56
usemtl Wood
s off
f 180 179 178 177
f 181 182 183 184
f 177 178 182 181
f 178 179 183 182
f 179 180 184 183
f 180 177 181 184
o Wall.Plank
v -1.467 0 -1.56
v -1.467 0 -1.48
v -1.237 0 -1.48
v -1.237 0 -1.56
v -1.467 2.08 -1.56
v -1.467 2.08 -1.48
v -1.237 2.08 -1.48
v -1.237 2.08 -1.56
usemtl Wood
s off
f 188 187 186 185
f 189 190 191 192
f 185 186 190 189
f 186 187 191 190
f 187 188 192 191
f 188 185 189 192
o Wall.Plank
v -1.222 0 -1.56
v -1.222 0 -1.48
v -0.993 0 -1.48
v -0.993 0 -1.56
v -1.222 2.11 -1.56
v -1.222 2.11 -1.48
v -0.993 2.11 -1.48
v -0.993 2.11 -1.56
usemtl WoodLight
s off
f 196 195 194 193
f 197 198 199 200
f 193 194 198 197
f 194 195 199 198
f 195 196 200 199
f 196 193 197 200
o Wall.Plank
v -0.978 0 -1.56
v -0.978 0 -1.48
v -0.748 0 -1.48
v -0.748 0 -1.56
v -0.978 2.08 -1.56
v -0.978 2.08 -1.48
v -0.748 2.08 -1.48
v -0.748 2.08 -1.56
usemtl Wood
s off
f 204 203 202 201
f 205 206 207 208
f 201 202 206 205
f 202 203 207 206
f 203 204 208 207
f 204 201 205 208
o Wall.Plank
v -0.733 0 -1.56
v -0.733 0 -1.48
v -0.504 0 -1.48
v -0.504 0 -1.56
v -0.733 2.11 -1.56
v -0.733 2.11 -1.48
v -0.504 2.11 -1.48
v -0.504 2.11 -1.56
usemtl Wood
s off
f 212 211 210 209
f 213 214 215 216
f 209 210 214 213
f 210 211 215 214
f 211 212 216 215
f 212 209 213 216
o Wall.Plank
v -0.489 0 -1.56
v -0.489 0 -1.48
v -0.259 0 -1.48
v -0.259 0 -1.56
v -0.489 2.08 -1.56
v -0.489 2.08 -1.48
v -0.259 2.08 -1.48
v -0.259 2.08 -1.56
usemtl WoodLight
s off
f 220 219 218 217
f 221 222 223 224
f 217 218 222 221
f 218 219 223 222
f 219 220 224 223
f 220 217 221 224
o Wall.Plank
v -0.244 0 -1.56
v -0.244 0 -1.48
v -0.015 0 -1.48
v -0.015 0 -1.56
v -0.244 2.11 -1.56
v -0.244 2.11 -1.48
v -0.015 2.11 -1.48
v -0.015 2.11 -1.56
usemtl Wood
s off
f 228 227 226 225
f 229 230 231 232
f 225 226 230 229
f 226 227 231 230
f 227 228 232 231
f 228 225 229 232
o Wall.Plank
v 0 0 -1.56
v 0 0 -1.48
v 0.229 0 -1.48
v 0.229 0 -1.56
v 0 2.08 -1.56
v 0 2.08 -1.48
v 0.229 2.08 -1.48
v 0.229 2.08 -1.56
usemtl Wood
s off
f 236 235 234 233
f 237 238 239 240
f 233 234 238 237
f 234 235 239 238
f 235 236 240 239
f 236 233 237 240
o Wall.Plank
v 0.244 0 -1.56
v 0.244 0 -1.48
v 0.474 0 -1.48
v 0.474 0 -1.56
v 0.244 2.11 -1.56
v 0.244 2.11 -1.48
v 0.474 2.11 -1.48
v 0.474 2.11 -1.56
usemtl WoodLight
s off
f 244 243 242 241
f 245 246 247 248
f 241 242 246 245
f 242 243 247 246
f 243 244 248 247
f 244 241 245 248
o Wall.Plank
v 0.489 0 -1.56
v 0.489 0 -1.48
v 0.718 0 -1.48
v 0.718 0 -1.56
v 0.489 2.08 -1.56
v 0.489 2.08 -1.48
v 0.718 2.08 -1.48
v 0.718 2.08 -1.56
usemtl Wood
s off
f 252 251 250 249
f 253 254 255 256
f 249 250 254 253
f 250 251 255 254
f 251 252 256 255
f 252 249 253 256
o Wall.Plank
v 0.733 0 -1.56
v 0.733 0 -1.48
v 0.963 0 -1.48
v 0.963 0 -1.56
v 0.733 2.11 -1.56
v 0.733 2.11 -1.48
v 0.963 2.11 -1.48
v 0.963 2.11 -1.56
usemtl Wood
s off
f 260 259 258 257
f 261 262 263 264
f 257 258 262 261
f 258 259 263 262
f 259 260 264 263
f 260 257 261 264
o Wall.Plank
v 0.978 0 -1.56
v 0.978 0 -1.48
v 1.207 0 -1.48
v 1.207 0 -1.56
v 0.978 2.08 -1.56
v 0.978 2.08 -1.48
v 1.207 2.08 -1.48
v 1.207 2.08 -1.56
usemtl WoodLight
s off
f 268 267 266 265
f 269 270 271 272
f 265 266 270 269
f 266 267 271 270
f 267 268 272 271
f 268 265 269 272
o Wall.Plank
v 1.222 0 -1.56
v 1.222 0 -1.48
v 1.452 0 -1.48
v 1.452 0 -1.56
v 1.222 2.11 -1.56
v 1.222 2.11 -1.48
v 1.452 2.11 -1.48
v 1.452 2.11 -1.56
usemtl Wood
s off
f 276 275 274 273
f 277 278 279 280
f 273 274 278 277
f 274 275 279 278
f 275 276 280 279
f 276 273 277 280
o Wall.Plank
v 1.467 0 -1.56
v 1.467 0 -1.48
v 1.696 0 -1.48
v 1.696 0 -1.56
v 1.467 2.08 -1.56
v 1.467 2.08 -1.48
v 1.696 2.08 -1.48
v 1.696 2.08 -1.56
usemtl Wood
s off
f 284 283 282 281
f 285 286 287 288
f 281 282 286 285
f 282 283 287 286
f 283 284 288 287
f 284 281 285 288
o Wall.Plank
v 1.711 0 -1.56
v 1.711 0 -1.48
v 1.941 0 -1.48
v 1.941 0 -1.56
v 1.711 2.11 -1.56
v 1.711 2.11 -1.48
v 1.941 2.11 -1.48
v 1.941 2.11 -1.56
usemtl WoodLight
s off
f 292 291 290 289
f 293 294 295 296
f 289 290 294 293
f 290 291 295 294
f 291 292 296 295
f 292 289 293 296
o Wall.Plank
v 1.956 0 -1.56
v 1.956 0 -1.48
v 2.185 0 -1.48
v 2.185 0 -1.56
v 1.956 2.08 -1.56
v 1.956 2.08 -1.48
v 2.185 2.08 -1.48
v 2.185 2.08 -1.56
usemtl Wood
s off
f 300 299 298 297
f 301 302 303 304
f 297 298 302 301
f 298 299 303 302
f 299 300 304 303
f 300 297 301 304
o Wall.Board
v -2.24 0 -1.5
v -2.24 0 0.85
v -2.16 0 0.85
v -2.16 0 -1.5
v -2.24 0.24 -1.5
v -2.24 0.24 0.85
v -2.16 0.24 0.85
v -2.16 0.24 -1.5
usemtl Wood
s off
f 308 307 306 305
f 309 310 311 312
f 305 306 310 309
f 306 307 311 310
f 307 308 312 311
f 308 305 309 312
o Wall.Board
v -2.24 0.26 -1.5
v -2.24 0.26 0.85
v -2.16 0.26 0.85
v -2.16 0.26 -1.5
v -2.24 0.5 -1.5
v -2.24 0.5 0.85
v -2.16 0.5 0.85
v -2.16 0.5 -1.5
usemtl WoodLight
s off
f 316 315 314 313
f 317 318 319 320
f 313 314 318 317
f 314 315 319 318
f 315 316 320 319
f 316 313 317 320
o Wall.Board
v -2.24 0.52 -1.5
v -2.24 0.52 0.85
v -2.16 0.52 0.85
v -2.16 0.52 -1.5
v -2.24 0.76 -1.5
v -2.24 0.76 0.85
v -2.16 0.76 0.85
v -2.16 0.76 -1.5
usemtl Wood
s off
f 324 323 322 321
f 325 326 327 328
f 321 322 326 325
f 322 323 327 326
f 323 324 328 327
f 324 321 325 328
o Wall.Board
v -2.24 0.78 -1.5
v -2.24 0.78 0.85
v -2.16 0.78 0.85
v -2.16 0.78 -1.5
v -2.24 1.02 -1.5
v -2.24 1.02 0.85
v -2.16 1.02 0.85
v -2.16 1.02 -1.5
usemtl WoodLight
s off
f 332 331 330 329
f 333 334 335 336
f 329 330 334 333
f 330 331 335 334
f 331 332 336 335
f 332 329 333 336
o Wall.Board
v 2.16 0 -1.5
v 2.16 0 0.85
v 2.24 0 0.85
v 2.24 0 -1.5
v 2.16 0.24 -1.5
v 2.16 0.24 0.85
v 2.24 0.24 0.85
v 2.24 0.24 -1.5
usemtl Wood
s off
f 340 339 338 337
f 341 342 343 344
f 337 338 342 341
f 338 339 343 342
f 339 340 344 343
f 340 337 341 344
o Wall.Board
v 2.16 0.26 -1.5
v 2.16 0.26 0.85
v 2.24 0.26 0.85
v 2.24 0.26 -1.5
v 2.16 0.5 -1.5
v 2.16 0.5 0.85
v 2.24 0.5 0.85
v 2.24 0.5 -1.5
usemtl WoodLight
s off
f 348 347 346 345
f 349 350 351 352
f 345 346 350 349
f 346 347 351 350
f 347 348 352 351
f 348 345 349 352
o Wall.Board
v 2.16 0.52 -1.5
v 2.16 0.52 0.85
v 2.24 0.52 0.85
v 2.24 0.52 -1.5
v 2.16 0.76 -1.5
v 2.16 0.76 0.85
v 2.24 0.76 0.85
v 2.24 0.76 -1.5
usemtl Wood
s off
f 356 355 354 353
f 357 358 359 360
f 353 354 358 357
f 354 355 359 358
f 355 356 360 359
f 356 353 357 360
o Wall.Board
v 2.16 0.78 -1.5
v 2.16 0.78 0.85
v 2.24 0.78 0.85
v 2.24 0.78 -1.5
v 2.16 1.02 -1.5
v 2.16 1.02 0.85
v 2.24 1.02 0.85
v 2.24 1.02 -1.5
usemtl WoodLight
s off
f 364 363 362 361
f 365 366 367 368
f 361 362 366 365
f 362 363 367 366
f 363 364 368 367
f 364 361 365 368
o Roof
v -2.5 2.266 -1.95
v -2.5 2.993 1.95
v -2.5 3.113 1.95
v -2.5 2.386 -1.95
v 2.5 2.266 -1.95
v 2.5 2.993 1.95
v 2.5 3.113 1.95
v 2.5 2.386 -1.95
usemtl Paint
s off
f 372 371 370 369
f 373 374 375 376
f 369 370 374 373
f 370 371 375 374
f 371 372 376 375
f 372 369 373 376
o Roof.Seam
v -2.417 2.413 -1.953
v -2.382 2.413 -1.953
v -2.382 2.379 -1.947
v -2.417 2.379 -1.947
v -2.417 3.14 1.947
v -2.382 3.14 1.947
v -2.382 3.106 1.953
v -2.417 3.106 1.953
usemtl Timber
s off
f 380 379 378 377
f 381 382 383 384
f 377 378 382 381
f 378 379 383 382
f 379 380 384 383
f 380 377 381 384
o Roof.Seam
v -1.938 2.413 -1.953
v -1.902 2.413 -1.953
v -1.902 2.379 -1.947
v -1.938 2.379 -1.947
v -1.938 3.14 1.947
v -1.902 3.14 1.947
v -1.902 3.106 1.953
v -1.938 3.106 1.953
usemtl Timber
s off
f 388 387 386 385
f 389 390 391 392
f 385 386 390 389
f 386 387 391 390
f 387 388 392 391
f 388 385 389 392
o Roof.Seam
v -1.458 2.413 -1.953
v -1.422 2.413 -1.953
v -1.422 2.379 -1.947
v -1.458 2.379 -1.947
v -1.458 3.14 1.947
v -1.422 3.14 1.947
v -1.422 3.106 1.953
v -1.458 3.106 1.953
usemtl Timber
s off
f 396 395 394 393
f 397 398 399 400
f 393 394 398 397
f 394 395 399 398
f 395 396 400 399
f 396 393 397 400
o Roof.Seam
v -0.977 2.413 -1.953
v -0.943 2.413 -1.953
v -0.943 2.379 -1.947
v -0.977 2.379 -1.947
v -0.977 3.14 1.947
v -0.943 3.14 1.947
v -0.943 3.106 1.953
v -0.977 3.106 1.953
usemtl Timber
s off
f 404 403 402 401
f 405 406 407 408
f 401 402 406 405
f 402 403 407 406
f 403 404 408 407
f 404 401 405 408
o Roof.Seam
v -0.497 2.413 -1.953
v -0.462 2.413 -1.953
v -0.462 2.379 -1.947
v -0.497 2.379 -1.947
v -0.497 3.14 1.947
v -0.462 3.14 1.947
v -0.462 3.106 1.953
v -0.497 3.106 1.953
usemtl Timber
s off
f 412 411 410 409
f 413 414 415 416
f 409 410 414 413
f 410 411 415 414
f 411 412 416 415
f 412 409 413 416
o Roof.Seam
v -0.018 2.413 -1.953
v 0.018 2.413 -1.953
v 0.018 2.379 -1.947
v -0.017 2.379 -1.947
v -0.018 3.14 1.947
v 0.018 3.14 1.947
v 0.018 3.106 1.953
v -0.017 3.106 1.953
usemtl Timber
s off
f 420 419 418 417
f 421 422 423 424
f 417 418 422 421
f 418 419 423 422
f 419 420 424 423
f 420 417 421 424
o Roof.Seam
v 0.462 2.413 -1.953
v 0.497 2.413 -1.953
v 0.497 2.379 -1.947
v 0.462 2.379 -1.947
v 0.462 3.14 1.947
v 0.497 3.14 1.947
v 0.497 3.106 1.953
v 0.462 3.106 1.953
usemtl Timber
s off
f 428 427 426 425
f 429 430 431 432
f 425 426 430 429
f 426 427 431 430
f 427 428 432 431
f 428 425 429 432
o Roof.Seam
v 0.943 2.413 -1.953
v 0.977 2.413 -1.953
v 0.977 2.379 -1.947
v 0.943 2.379 -1.947
v 0.943 3.14 1.947
v 0.977 3.14 1.947
v 0.977 3.106 1.953
v 0.943 3.106 1.953
usemtl Timber
s off
f 436 435 434 433
f 437 438 439 440
f 433 434 438 437
f 434 435 439 438
f 435 436 440 439
f 436 433 437 440
o Roof.Seam
v 1.422 2.413 -1.953
v 1.458 2.413 -1.953
v 1.458 2.379 -1.947
v 1.422 2.379 -1.947
v 1.422 3.14 1.947
v 1.458 3.14 1.947
v 1.458 3.106 1.953
v 1.422 3.106 1.953
usemtl Timber
s off
f 444 443 442 441
f 445 446 447 448
f 441 442 446 445
f 442 443 447 446
f 443 444 448 447
f 444 441 445 448
o Roof.Seam
v 1.903 2.413 -1.953
v 1.938 2.413 -1.953
v 1.938 2.379 -1.947
v 1.903 2.379 -1.947
v 1.903 3.14 1.947
v 1.938 3.14 1.947
v 1.938 3.106 1.953
v 1.903 3.106 1.953
usemtl Timber
s off
f 452 451 450 449
f 453 454 455 456
f 449 450 454 453
f 450 451 455 454
f 451 452 456 455
f 452 449 453 456
o Roof.Seam
v 2.382 2.413 -1.953
v 2.417 2.413 -1.953
v 2.417 2.379 -1.947
v 2.382 2.379 -1.947
v 2.382 3.14 1.947
v 2.417 3.14 1.947
v 2.417 3.106 1.953
v 2.382 3.106 1.953
usemtl Timber
s off
f 460 459 458 457
f 461 462 463 464
f 457 458 462 461
f 458 459 463 462
f 459 460 464 463
f 460 457 461 464
o Roof.Edge
v -2.52 2.255 -1.95
v -2.52 2.255 -1.85
v 2.52 2.255 -1.85
v 2.52 2.255 -1.95
v -2.52 2.435 -1.95
v -2.52 2.435 -1.85
v 2.52 2.435 -1.85
v 2.52 2.435 -1.95
usemtl Timber
s off
f 468 467 466 465
f 469 470 471 472
f 465 466 470 469
f 466 467 471 470
f 467 468 472 471
f 468 465 469 472
o Roof.Edge
v -2.52 2.964 1.85
v -2.52 2.964 1.95
v 2.52 2.964 1.95
v 2.52 2.964 1.85
v -2.52 3.144 1.85
v -2.52 3.144 1.95
v 2.52 3.144 1.95
v 2.52 3.144 1.85
usemtl Timber
s off
f 476 475 474 473
f 477 478 479 480
f 473 474 478 477
f 474 475 479 478
f 475 476 480 479
f 476 473 477 480
o Log
v -1.72 0.273 -1.024
v -1.72 0.376 -1.127
v -1.72 0.376 -1.273
v -1.72 0.273 -1.376
v -1.72 0.127 -1.376
v -1.72 0.024 -1.273
v -1.72 0.024 -1.127
v -1.72 0.127 -1.024
v 1.67 0.273 -1.024
v 1.67 0.376 -1.127
v 1.67 0.376 -1.273
v 1.67 0.273 -1.376
v 1.67 0.127 -1.376
v 1.67 0.024 -1.273
v 1.67 0.024 -1.127
v 1.67 0.127 -1.024
usemtl Bark
s off
f 488 487 486 485 484 483 482 481
f 489 490 491 492 493 494 495 496
f 481 482 490 489
f 482 483 491 490
f 483 484 492 491
f 484 485 493 492
f 485 486 494 493
f 486 487 495 494
f 487 488 496 495
f 488 481 489 496
o Log.End
v -1.732 0.264 -1.046
v -1.732 0.354 -1.136
v -1.732 0.354 -1.264
v -1.732 0.264 -1.354
v -1.732 0.136 -1.354
v -1.732 0.046 -1.264
v -1.732 0.046 -1.136
v -1.732 0.136 -1.046
v -1.72 0.264 -1.046
v -1.72 0.354 -1.136
v -1.72 0.354 -1.264
v -1.72 0.264 -1.354
v -1.72 0.136 -1.354
v -1.72 0.046 -1.264
v -1.72 0.046 -1.136
v -1.72 0.136 -1.046
usemtl LogEnd
s off
f 504 503 502 501 500 499 498 497
f 505 506 507 508 509 510 511 512
f 497 498 506 505
f 498 499 507 506
f 499 500 508 507
f 500 501 509 508
f 501 502 510 509
f 502 503 511 510
f 503 504 512 511
f 504 497 505 512
o Log.End
v 1.67 0.264 -1.046
v 1.67 0.354 -1.136
v 1.67 0.354 -1.264
v 1.67 0.264 -1.354
v 1.67 0.136 -1.354
v 1.67 0.046 -1.264
v 1.67 0.046 -1.136
v 1.67 0.136 -1.046
v 1.682 0.264 -1.046
v 1.682 0.354 -1.136
v 1.682 0.354 -1.264
v 1.682 0.264 -1.354
v 1.682 0.136 -1.354
v 1.682 0.046 -1.264
v 1.682 0.046 -1.136
v 1.682 0.136 -1.046
usemtl LogEnd
s off
f 520 519 518 517 516 515 514 513
f 521 522 523 524 525 526 527 528
f 513 514 522 521
f 514 515 523 522
f 515 516 524 523
f 516 517 525 524
f 517 518 526 525
f 518 519 527 526
f 519 520 528 527
f 520 513 521 528
o Log
v -1.54 0.273 -0.624
v -1.54 0.376 -0.727
v -1.54 0.376 -0.873
v -1.54 0.273 -0.976
v -1.54 0.127 -0.976
v -1.54 0.024 -0.873
v -1.54 0.024 -0.727
v -1.54 0.127 -0.624
v 1.49 0.273 -0.624
v 1.49 0.376 -0.727
v 1.49 0.376 -0.873
v 1.49 0.273 -0.976
v 1.49 0.127 -0.976
v 1.49 0.024 -0.873
v 1.49 0.024 -0.727
v 1.49 0.127 -0.624
usemtl Bark
s off
f 536 535 534 533 532 531 530 529
f 537 538 539 540 541 542 543 544
f 529 530 538 537
f 530 531 539 538
f 531 532 540 539
f 532 533 541 540
f 533 534 542 541
f 534 535 543 542
f 535 536 544 543
f 536 529 537 544
o Log.End
v -1.552 0.264 -0.646
v -1.552 0.354 -0.736
v -1.552 0.354 -0.864
v -1.552 0.264 -0.954
v -1.552 0.136 -0.954
v -1.552 0.046 -0.864
v -1.552 0.046 -0.736
v -1.552 0.136 -0.646
v -1.54 0.264 -0.646
v -1.54 0.354 -0.736
v -1.54 0.354 -0.864
v -1.54 0.264 -0.954
v -1.54 0.136 -0.954
v -1.54 0.046 -0.864
v -1.54 0.046 -0.736
v -1.54 0.136 -0.646
usemtl LogEnd
s off
f 552 551 550 549 548 547 546 545
f 553 554 555 556 557 558 559 560
f 545 546 554 553
f 546 547 555 554
f 547 548 556 555
f 548 549 557 556
f 549 550 558 557
f 550 551 559 558
f 551 552 560 559
f 552 545 553 560
o Log.End
v 1.49 0.264 -0.646
v 1.49 0.354 -0.736
v 1.49 0.354 -0.864
v 1.49 0.264 -0.954
v 1.49 0.136 -0.954
v 1.49 0.046 -0.864
v 1.49 0.046 -0.736
v 1.49 0.136 -0.646
v 1.502 0.264 -0.646
v 1.502 0.354 -0.736
v 1.502 0.354 -0.864
v 1.502 0.264 -0.954
v 1.502 0.136 -0.954
v 1.502 0.046 -0.864
v 1.502 0.046 -0.736
v 1.502 0.136 -0.646
usemtl LogEnd
s off
f 568 567 566 565 564 563 562 561
f 569 570 571 572 573 574 575 576
f 561 562 570 569
f 562 563 571 570
f 563 564 572 571
f 564 565 573 572
f 565 566 574 573
f 566 567 575 574
f 567 568 576 575
f 568 561 569 576
o Log
v -1.66 0.273 -0.224
v -1.66 0.376 -0.327
v -1.66 0.376 -0.473
v -1.66 0.273 -0.576
v -1.66 0.127 -0.576
v -1.66 0.024 -0.473
v -1.66 0.024 -0.327
v -1.66 0.127 -0.224
v 1.61 0.273 -0.224
v 1.61 0.376 -0.327
v 1.61 0.376 -0.473
v 1.61 0.273 -0.576
v 1.61 0.127 -0.576
v 1.61 0.024 -0.473
v 1.61 0.024 -0.327
v 1.61 0.127 -0.224
usemtl Bark
s off
f 584 583 582 581 580 579 578 577
f 585 586 587 588 589 590 591 592
f 577 578 586 585
f 578 579 587 586
f 579 580 588 587
f 580 581 589 588
f 581 582 590 589
f 582 583 591 590
f 583 584 592 591
f 584 577 585 592
o Log.End
v -1.672 0.264 -0.246
v -1.672 0.354 -0.336
v -1.672 0.354 -0.464
v -1.672 0.264 -0.554
v -1.672 0.136 -0.554
v -1.672 0.046 -0.464
v -1.672 0.046 -0.336
v -1.672 0.136 -0.246
v -1.66 0.264 -0.246
v -1.66 0.354 -0.336
v -1.66 0.354 -0.464
v -1.66 0.264 -0.554
v -1.66 0.136 -0.554
v -1.66 0.046 -0.464
v -1.66 0.046 -0.336
v -1.66 0.136 -0.246
usemtl LogEnd
s off
f 600 599 598 597 596 595 594 593
f 601 602 603 604 605 606 607 608
f 593 594 602 601
f 594 595 603 602
f 595 596 604 603
f 596 597 605 604
f 597 598 606 605
f 598 599 607 606
f 599 600 608 607
f 600 593 601 608
o Log.End
v 1.61 0.264 -0.246
v 1.61 0.354 -0.336
v 1.61 0.354 -0.464
v 1.61 0.264 -0.554
v 1.61 0.136 -0.554
v 1.61 0.046 -0.464
v 1.61 0.046 -0.336
v 1.61 0.136 -0.246
v 1.622 0.264 -0.246
v 1.622 0.354 -0.336
v 1.622 0.354 -0.464
v 1.622 0.264 -0.554
v 1.622 0.136 -0.554
v 1.622 0.046 -0.464
v 1.622 0.046 -0.336
v 1.622 0.136 -0.246
usemtl LogEnd
s off
f 616 615 614 613 612 611 610 609
f 617 618 619 620 621 622 623 624
f 609 610 618 617
f 610 611 619 618
f 611 612 620 619
f 612 613 621 620
f 613 614 622 621
f 614 615 623 622
f 615 616 624 623
f 616 609 617 624
o Log
v -1.48 0.273 0.176
v -1.48 0.376 0.073
v -1.48 0.376 -0.073
v -1.48 0.273 -0.176
v -1.48 0.127 -0.176
v -1.48 0.024 -0.073
v -1.48 0.024 0.073
v -1.48 0.127 0.176
v 1.43 0.273 0.176
v 1.43 0.376 0.073
v 1.43 0.376 -0.073
v 1.43 0.273 -0.176
v 1.43 0.127 -0.176
v 1.43 0.024 -0.073
v 1.43 0.024 0.073
v 1.43 0.127 0.176
usemtl Bark
s off
f 632 631 630 629 628 627 626 625
f 633 634 635 636 637 638 639 640
f 625 626 634 633
f 626 627 635 634
f 627 628 636 635
f 628 629 637 636
f 629 630 638 637
f 630 631 639 638
f 631 632 640 639
f 632 625 633 640
o Log.End
v -1.492 0.264 0.154
v -1.492 0.354 0.064
v -1.492 0.354 -0.064
v -1.492 0.264 -0.154
v -1.492 0.136 -0.154
v -1.492 0.046 -0.064
v -1.492 0.046 0.064
v -1.492 0.136 0.154
v -1.48 0.264 0.154
v -1.48 0.354 0.064
v -1.48 0.354 -0.064
v -1.48 0.264 -0.154
v -1.48 0.136 -0.154
v -1.48 0.046 -0.064
v -1.48 0.046 0.064
v -1.48 0.136 0.154
usemtl LogEnd
s off
f 648 647 646 645 644 643 642 641
f 649 650 651 652 653 654 655 656
f 641 642 650 649
f 642 643 651 650
f 643 644 652 651
f 644 645 653 652
f 645 646 654 653
f 646 647 655 654
f 647 648 656 655
f 648 641 649 656
o Log.End
v 1.43 0.264 0.154
v 1.43 0.354 0.064
v 1.43 0.354 -0.064
v 1.43 0.264 -0.154
v 1.43 0.136 -0.154
v 1.43 0.046 -0.064
v 1.43 0.046 0.064
v 1.43 0.136 0.154
v 1.442 0.264 0.154
v 1.442 0.354 0.064
v 1.442 0.354 -0.064
v 1.442 0.264 -0.154
v 1.442 0.136 -0.154
v 1.442 0.046 -0.064
v 1.442 0.046 0.064
v 1.442 0.136 0.154
usemtl LogEnd
s off
f 664 663 662 661 660 659 658 657
f 665 666 667 668 669 670 671 672
f 657 658 666 665
f 658 659 667 666
f 659 660 668 667
f 660 661 669 668
f 661 662 670 669
f 662 663 671 670
f 663 664 672 671
f 664 657 665 672
o Log
v -1.6 0.273 0.576
v -1.6 0.376 0.473
v -1.6 0.376 0.327
v -1.6 0.273 0.224
v -1.6 0.127 0.224
v -1.6 0.024 0.327
v -1.6 0.024 0.473
v -1.6 0.127 0.576
v 1.55 0.273 0.576
v 1.55 0.376 0.473
v 1.55 0.376 0.327
v 1.55 0.273 0.224
v 1.55 0.127 0.224
v 1.55 0.024 0.327
v 1.55 0.024 0.473
v 1.55 0.127 0.576
usemtl Bark
s off
f 680 679 678 677 676 675 674 673
f 681 682 683 684 685 686 687 688
f 673 674 682 681
f 674 675 683 682
f 675 676 684 683
f 676 677 685 684
f 677 678 686 685
f 678 679 687 686
f 679 680 688 687
f 680 673 681 688
o Log.End
v -1.612 0.264 0.554
v -1.612 0.354 0.464
v -1.612 0.354 0.336
v -1.612 0.264 0.246
v -1.612 0.136 0.246
v -1.612 0.046 0.336
v -1.612 0.046 0.464
v -1.612 0.136 0.554
v -1.6 0.264 0.554
v -1.6 0.354 0.464
v -1.6 0.354 0.336
v -1.6 0.264 0.246
v -1.6 0.136 0.246
v -1.6 0.046 0.336
v -1.6 0.046 0.464
v -1.6 0.136 0.554
usemtl LogEnd
s off
f 696 695 694 693 692 691 690 689
f 697 698 699 700 701 702 703 704
f 689 690 698 697
f 690 691 699 698
f 691 692 700 699
f 692 693 701 700
f 693 694 702 701
f 694 695 703 702
f 695 696 704 703
f 696 689 697 704
o Log.End
v 1.55 0.264 0.554
v 1.55 0.354 0.464
v 1.55 0.354 0.336
v 1.55 0.264 0.246
v 1.55 0.136 0.246
v 1.55 0.046 0.336
v 1.55 0.046 0.464
v 1.55 0.136 0.554
v 1.562 0.264 0.554
v 1.562 0.354 0.464
v 1.562 0.354 0.336
v 1.562 0.264 0.246
v 1.562 0.136 0.246
v 1.562 0.046 0.336
v 1.562 0.046 0.464
v 1.562 0.136 0.554
usemtl LogEnd
s off
f 712 711 710 709 708 707 706 705
f 713 714 715 716 717 718 719 720
f 705 706 714 713
f 706 707 715 714
f 707 708 716 715
f 708 709 717 716
f 709 710 718 717
f 710 711 719 718
f 711 712 720 719
f 712 705 713 720
o Log
v -1.6 0.613 -0.824
v -1.6 0.716 -0.927
v -1.6 0.716 -1.073
v -1.6 0.613 -1.176
v -1.6 0.467 -1.176
v -1.6 0.364 -1.073
v -1.6 0.364 -0.927
v -1.6 0.467 -0.824
v 1.55 0.613 -0.824
v 1.55 0.716 -0.927
v 1.55 0.716 -1.073
v 1.55 0.613 -1.176
v 1.55 0.467 -1.176
v 1.55 0.364 -1.073
v 1.55 0.364 -0.927
v 1.55 0.467 -0.824
usemtl Bark
s off
f 728 727 726 725 724 723 722 721
f 729 730 731 732 733 734 735 736
f 721 722 730 729
f 722 723 731 730
f 723 724 732 731
f 724 725 733 732
f 725 726 734 733
f 726 727 735 734
f 727 728 736 735
f 728 721 729 736
o Log.End
v -1.612 0.604 -0.846
v -1.612 0.694 -0.936
v -1.612 0.694 -1.064
v -1.612 0.604 -1.154
v -1.612 0.476 -1.154
v -1.612 0.386 -1.064
v -1.612 0.386 -0.936
v -1.612 0.476 -0.846
v -1.6 0.604 -0.846
v -1.6 0.694 -0.936
v -1.6 0.694 -1.064
v -1.6 0.604 -1.154
v -1.6 0.476 -1.154
v -1.6 0.386 -1.064
v -1.6 0.386 -0.936
v -1.6 0.476 -0.846
usemtl LogEnd
s off
f 744 743 742 741 740 739 738 737
f 745 746 747 748 749 750 751 752
f 737 738 746 745
f 738 739 747 746
f 739 740 748 747
f 740 741 749 748
f 741 742 750 749
f 742 743 751 750
f 743 744 752 751
f 744 737 745 752
o Log.End
v 1.55 0.604 -0.846
v 1.55 0.694 -0.936
v 1.55 0.694 -1.064
v 1.55 0.604 -1.154
v 1.55 0.476 -1.154
v 1.55 0.386 -1.064
v 1.55 0.386 -0.936
v 1.55 0.476 -0.846
v 1.562 0.604 -0.846
v 1.562 0.694 -0.936
v 1.562 0.694 -1.064
v 1.562 0.604 -1.154
v 1.562 0.476 -1.154
v 1.562 0.386 -1.064
v 1.562 0.386 -0.936
v 1.562 0.476 -0.846
usemtl LogEnd
s off
f 760 759 758 757 756 755 754 753
f 761 762 763 764 765 766 767 768
f 753 754 762 761
f 754 755 763 762
f 755 756 764 763
f 756 757 765 764
f 757 758 766 765
f 758 759 767 766
f 759 760 768 767
f 760 753 761 768
o Log
v -1.72 0.613 -0.424
v -1.72 0.716 -0.527
v -1.72 0.716 -0.673
v -1.72 0.613 -0.776
v -1.72 0.467 -0.776
v -1.72 0.364 -0.673
v -1.72 0.364 -0.527
v -1.72 0.467 -0.424
v 1.67 0.613 -0.424
v 1.67 0.716 -0.527
v 1.67 0.716 -0.673
v 1.67 0.613 -0.776
v 1.67 0.467 -0.776
v 1.67 0.364 -0.673
v 1.67 0.364 -0.527
v 1.67 0.467 -0.424
usemtl Bark
s off
f 776 775 774 773 772 771 770 769
f 777 778 779 780 781 782 783 784
f 769 770 778 777
f 770 771 779 778
f 771 772 780 779
f 772 773 781 780
f 773 774 782 781
f 774 775 783 782
f 775 776 784 783
f 776 769 777 784
o Log.End
v -1.732 0.604 -0.446
v -1.732 0.694 -0.536
v -1.732 0.694 -0.664
v -1.732 0.604 -0.754
v -1.732 0.476 -0.754
v -1.732 0.386 -0.664
v -1.732 0.386 -0.536
v -1.732 0.476 -0.446
v -1.72 0.604 -0.446
v -1.72 0.694 -0.536
v -1.72 0.694 -0.664
v -1.72 0.604 -0.754
v -1.72 0.476 -0.754
v -1.72 0.386 -0.664
v -1.72 0.386 -0.536
v -1.72 0.476 -0.446
usemtl LogEnd
s off
f 792 791 790 789 788 787 786 785
f 793 794 795 796 797 798 799 800
f 785 786 794 793
f 786 787 795 794
f 787 788 796 795
f 788 789 797 796
f 789 790 798 797
f 790 791 799 798
f 791 792 800 799
f 792 785 793 800
o Log.End
v 1.67 0.604 -0.446
v 1.67 0.694 -0.536
v 1.67 0.694 -0.664
v 1.67 0.604 -0.754
v 1.67 0.476 -0.754
v 1.67 0.386 -0.664
v 1.67 0.386 -0.536
v 1.67 0.476 -0.446
v 1.682 0.604 -0.446
v 1.682 0.694 -0.536
v 1.682 0.694 -0.664
v 1.682 0.604 -0.754
v 1.682 0.476 -0.754
v 1.682 0.386 -0.664
v 1.682 0.386 -0.536
v 1.682 0.476 -0.446
usemtl LogEnd
s off
f 808 807 806 805 804 803 802 801
f 809 810 811 812 813 814 815 816
f 801 802 810 809
f 802 803 811 810
f 803 804 812 811
f 804 805 813 812
f 805 806 814 813
f 806 807 815 814
f 807 808 816 815
f 808 801 809 816
o Log
v -1.54 0.613 -0.024
v -1.54 0.716 -0.127
v -1.54 0.716 -0.273
v -1.54 0.613 -0.376
v -1.54 0.467 -0.376
v -1.54 0.364 -0.273
v -1.54 0.364 -0.127
v -1.54 0.467 -0.024
v 1.49 0.613 -0.024
v 1.49 0.716 -0.127
v 1.49 0.716 -0.273
v 1.49 0.613 -0.376
v 1.49 0.467 -0.376
v 1.49 0.364 -0.273
v 1.49 0.364 -0.127
v 1.49 0.467 -0.024
usemtl Bark
s off
f 824 823 822 821 820 819 818 817
f 825 826 827 828 829 830 831 832
f 817 818 826 825
f 818 819 827 826
f 819 820 828 827
f 820 821 829 828
f 821 822 830 829
f 822 823 831 830
f 823 824 832 831
f 824 817 825 832
o Log.End
v -1.552 0.604 -0.046
v -1.552 0.694 -0.136
v -1.552 0.694 -0.264
v -1.552 0.604 -0.354
v -1.552 0.476 -0.354
v -1.552 0.386 -0.264
v -1.552 0.386 -0.136
v -1.552 0.476 -0.046
v -1.54 0.604 -0.046
v -1.54 0.694 -0.136
v -1.54 0.694 -0.264
v -1.54 0.604 -0.354
v -1.54 0.476 -0.354
v -1.54 0.386 -0.264
v -1.54 0.386 -0.136
v -1.54 0.476 -0.046
usemtl LogEnd
s off
f 840 839 838 837 836 835 834 833
f 841 842 843 844 845 846 847 848
f 833 834 842 841
f 834 835 843 842
f 835 836 844 843
f 836 837 845 844
f 837 838 846 845
f 838 839 847 846
f 839 840 848 847
f 840 833 841 848
o Log.End
v 1.49 0.604 -0.046
v 1.49 0.694 -0.136
v 1.49 0.694 -0.264
v 1.49 0.604 -0.354
v 1.49 0.476 -0.354
v 1.49 0.386 -0.264
v 1.49 0.386 -0.136
v 1.49 0.476 -0.046
v 1.502 0.604 -0.046
v 1.502 0.694 -0.136
v 1.502 0.694 -0.264
v 1.502 0.604 -0.354
v 1.502 0.476 -0.354
v 1.502 0.386 -0.264
v 1.502 0.386 -0.136
v 1.502 0.476 -0.046
usemtl LogEnd
s off
f 856 855 854 853 852 851 850 849
f 857 858 859 860 861 862 863 864
f 849 850 858 857
f 850 851 859 858
f 851 852 860 859
f 852 853 861 860
f 853 854 862 861
f 854 855 863 862
f 855 856 864 863
f 856 849 857 864
o Log
v -1.66 0.613 0.376
v -1.66 0.716 0.273
v -1.66 0.716 0.127
v -1.66 0.613 0.024
v -1.66 0.467 0.024
v -1.66 0.364 0.127
v -1.66 0.364 0.273
v -1.66 0.467 0.376
v 1.61 0.613 0.376
v 1.61 0.716 0.273
v 1.61 0.716 0.127
v 1.61 0.613 0.024
v 1.61 0.467 0.024
v 1.61 0.364 0.127
v 1.61 0.364 0.273
v 1.61 0.467 0.376
usemtl Bark
s off
f 872 871 870 869 868 867 866 865
f 873 874 875 876 877 878 879 880
f 865 866 874 873
f 866 867 875 874
f 867 868 876 875
f 868 869 877 876
f 869 870 878 877
f 870 871 879 878
f 871 872 880 879
f 872 865 873 880
o Log.End
v -1.672 0.604 0.354
v -1.672 0.694 0.264
v -1.672 0.694 0.136
v -1.672 0.604 0.046
v -1.672 0.476 0.046
v -1.672 0.386 0.136
v -1.672 0.386 0.264
v -1.672 0.476 0.354
v -1.66 0.604 0.354
v -1.66 0.694 0.264
v -1.66 0.694 0.136
v -1.66 0.604 0.046
v -1.66 0.476 0.046
v -1.66 0.386 0.136
v -1.66 0.386 0.264
v -1.66 0.476 0.354
usemtl LogEnd
s off
f 888 887 886 885 884 883 882 881
f 889 890 891 892 893 894 895 896
f 881 882 890 889
f 882 883 891 890
f 883 884 892 891
f 884 885 893 892
f 885 886 894 893
f 886 887 895 894
f 887 888 896 895
f 888 881 889 896
o Log.End
v 1.61 0.604 0.354
v 1.61 0.694 0.264
v 1.61 0.694 0.136
v 1.61 0.604 0.046
v 1.61 0.476 0.046
v 1.61 0.386 0.136
v 1.61 0.386 0.264
v 1.61 0.476 0.354
v 1.622 0.604 0.354
v 1.622 0.694 0.264
v 1.622 0.694 0.136
v 1.622 0.604 0.046
v 1.622 0.476 0.046
v 1.622 0.386 0.136
v 1.622 0.386 0.264
v 1.622 0.476 0.354
usemtl LogEnd
s off
f 904 903 902 901 900 899 898 897
f 905 906 907 908 909 910 911 912
f 897 898 906 905
f 898 899 907 906
f 899 900 908 907
f 900 901 909 908
f 901 902 910 909
f 902 903 911 910
f 903 904 912 911
f 904 897 905 912
o Log
v -1.48 0.953 -0.624
v -1.48 1.056 -0.727
v -1.48 1.056 -0.873
v -1.48 0.953 -0.976
v -1.48 0.807 -0.976
v -1.48 0.704 -0.873
v -1.48 0.704 -0.727
v -1.48 0.807 -0.624
v 1.43 0.953 -0.624
v 1.43 1.056 -0.727
v 1.43 1.056 -0.873
v 1.43 0.953 -0.976
v 1.43 0.807 -0.976
v 1.43 0.704 -0.873
v 1.43 0.704 -0.727
v 1.43 0.807 -0.624
usemtl Bark
s off
f 920 919 918 917 916 915 914 913
f 921 922 923 924 925 926 927 928
f 913 914 922 921
f 914 915 923 922
f 915 916 924 923
f 916 917 925 924
f 917 918 926 925
f 918 919 927 926
f 919 920 928 927
f 920 913 921 928
o Log.End
v -1.492 0.944 -0.646
v -1.492 1.034 -0.736
v -1.492 1.034 -0.864
v -1.492 0.944 -0.954
v -1.492 0.816 -0.954
v -1.492 0.726 -0.864
v -1.492 0.726 -0.736
v -1.492 0.816 -0.646
v -1.48 0.944 -0.646
v -1.48 1.034 -0.736
v -1.48 1.034 -0.864
v -1.48 0.944 -0.954
v -1.48 0.816 -0.954
v -1.48 0.726 -0.864
v -1.48 0.726 -0.736
v -1.48 0.816 -0.646
usemtl LogEnd
s off
f 936 935 934 933 932 931 930 929
f 937 938 939 940 941 942 943 944
f 929 930 938 937
f 930 931 939 938
f 931 932 940 939
f 932 933 941 940
f 933 934 942 941
f 934 935 943 942
f 935 936 944 943
f 936 929 937 944
o Log.End
v 1.43 0.944 -0.646
v 1.43 1.034 -0.736
v 1.43 1.034 -0.864
v 1.43 0.944 -0.954
v 1.43 0.816 -0.954
v 1.43 0.726 -0.864
v 1.43 0.726 -0.736
v 1.43 0.816 -0.646
v 1.442 0.944 -0.646
v 1.442 1.034 -0.736
v 1.442 1.034 -0.864
v 1.442 0.944 -0.954
v 1.442 0.816 -0.954
v 1.442 0.726 -0.864
v 1.442 0.726 -0.736
v 1.442 0.816 -0.646
usemtl LogEnd
s off
f 952 951 950 949 948 947 946 945
f 953 954 955 956 957 958 959 960
f 945 946 954 953
f 946 947 955 954
f 947 948 956 955
f 948 949 957 956
f 949 950 958 957
f 950 951 959 958
f 951 952 960 959
f 952 945 953 960
o Log
v -1.6 0.953 -0.224
v -1.6 1.056 -0.327
v -1.6 1.056 -0.473
v -1.6 0.953 -0.576
v -1.6 0.807 -0.576
v -1.6 0.704 -0.473
v -1.6 0.704 -0.327
v -1.6 0.807 -0.224
v 1.55 0.953 -0.224
v 1.55 1.056 -0.327
v 1.55 1.056 -0.473
v 1.55 0.953 -0.576
v 1.55 0.807 -0.576
v 1.55 0.704 -0.473
v 1.55 0.704 -0.327
v 1.55 0.807 -0.224
usemtl Bark
s off
f 968 967 966 965 964 963 962 961
f 969 970 971 972 973 974 975 976
f 961 962 970 969
f 962 963 971 970
f 963 964 972 971
f 964 965 973 972
f 965 966 974 973
f 966 967 975 974
f 967 968 976 975
f 968 961 969 976
o Log.End
v -1.612 0.944 -0.246
v -1.612 1.034 -0.336
v -1.612 1.034 -0.464
v -1.612 0.944 -0.554
v -1.612 0.816 -0.554
v -1.612 0.726 -0.464
v -1.612 0.726 -0.336
v -1.612 0.816 -0.246
v -1.6 0.944 -0.246
v -1.6 1.034 -0.336
v -1.6 1.034 -0.464
v -1.6 0.944 -0.554
v -1.6 0.816 -0.554
v -1.6 0.726 -0.464
v -1.6 0.726 -0.336
v -1.6 0.816 -0.246
usemtl LogEnd
s off
f 984 983 982 981 980 979 978 977
f 985 986 987 988 989 990 991 992
f 977 978 986 985
f 978 979 987 986
f 979 980 988 987
f 980 981 989 988
f 981 982 990 989
f 982 983 991 990
f 983 984 992 991
f 984 977 985 992
o Log.End
v 1.55 0.944 -0.246
v 1.55 1.034 -0.336
v 1.55 1.034 -0.464
v 1.55 0.944 -0.554
v 1.55 0.816 -0.554
v 1.55 0.726 -0.464
v 1.55 0.726 -0.336
v 1.55 0.816 -0.246
v 1.562 0.944 -0.246
v 1.562 1.034 -0.336
v 1.562 1.034 -0.464
v 1.562 0.944 -0.554
v 1.562 0.816 -0.554
v 1.562 0.726 -0.464
v 1.562 0.726 -0.336
v 1.562 0.816 -0.246
usemtl LogEnd
s off
f 1000 999 998 997 996 995 994 993
f 1001 1002 1003 1004 1005 1006 1007 1008
f 993 994 1002 1001
f 994 995 1003 1002
f 995 996 1004 1003
f 996 997 1005 1004
f 997 998 1006 1005
f 998 999 1007 1006
f 999 1000 1008 1007
f 1000 993 1001 1008
o Log
v -1.72 0.953 0.176
v -1.72 1.056 0.073
v -1.72 1.056 -0.073
v -1.72 0.953 -0.176
v -1.72 0.807 -0.176
v -1.72 0.704 -0.073
v -1.72 0.704 0.073
v -1.72 0.807 0.176
v 1.67 0.953 0.176
v 1.67 1.056 0.073
v 1.67 1.056 -0.073
v 1.67 0.953 -0.176
v 1.67 0.807 -0.176
v 1.67 0.704 -0.073
v 1.67 0.704 0.073
v 1.67 0.807 0.176
usemtl Bark
s off
f 1016 1015 1014 1013 1012 1011 1010 1009
f 1017 1018 1019 1020 1021 1022 1023 1024
f 1009 1010 1018 1017
f 1010 1011 1019 1018
f 1011 1012 1020 1019
f 1012 1013 1021 1020
f 1013 1014 1022 1021
f 1014 1015 1023 1022
f 1015 1016 1024 1023
f 1016 1009 1017 1024
o Log.End
v -1.732 0.944 0.154
v -1.732 1.034 0.064
v -1.732 1.034 -0.064
v -1.732 0.944 -0.154
v -1.732 0.816 -0.154
v -1.732 0.726 -0.064
v -1.732 0.726 0.064
v -1.732 0.816 0.154
v -1.72 0.944 0.154
v -1.72 1.034 0.064
v -1.72 1.034 -0.064
v -1.72 0.944 -0.154
v -1.72 0.816 -0.154
v -1.72 0.726 -0.064
v -1.72 0.726 0.064
v -1.72 0.816 0.154
usemtl LogEnd
s off
f 1032 1031 1030 1029 1028 1027 1026 1025
f 1033 1034 1035 1036 1037 1038 1039 1040
f 1025 1026 1034 1033
f 1026 1027 1035 1034
f 1027 1028 1036 1035
f 1028 1029 1037 1036
f 1029 1030 1038 1037
f 1030 1031 1039 1038
f 1031 1032 1040 1039
f 1032 1025 1033 1040
o Log.End
v 1.67 0.944 0.154
v 1.67 1.034 0.064
v 1.67 1.034 -0.064
v 1.67 0.944 -0.154
v 1.67 0.816 -0.154
v 1.67 0.726 -0.064
v 1.67 0.726 0.064
v 1.67 0.816 0.154
v 1.682 0.944 0.154
v 1.682 1.034 0.064
v 1.682 1.034 -0.064
v 1.682 0.944 -0.154
v 1.682 0.816 -0.154
v 1.682 0.726 -0.064
v 1.682 0.726 0.064
v 1.682 0.816 0.154
usemtl LogEnd
s off
f 1048 1047 1046 1045 1044 1043 1042 1041
f 1049 1050 1051 1052 1053 1054 1055 1056
f 1041 1042 1050 1049
f 1042 1043 1051 1050
f 1043 1044 1052 1051
f 1044 1045 1053 1052
f 1045 1046 1054 1053
f 1046 1047 1055 1054
f 1047 1048 1056 1055
f 1048 1041 1049 1056
o Log
v -1.66 1.293 -0.424
v -1.66 1.396 -0.527
v -1.66 1.396 -0.673
v -1.66 1.293 -0.776
v -1.66 1.147 -0.776
v -1.66 1.044 -0.673
v -1.66 1.044 -0.527
v -1.66 1.147 -0.424
v 1.61 1.293 -0.424
v 1.61 1.396 -0.527
v 1.61 1.396 -0.673
v 1.61 1.293 -0.776
v 1.61 1.147 -0.776
v 1.61 1.044 -0.673
v 1.61 1.044 -0.527
v 1.61 1.147 -0.424
usemtl Bark
s off
f 1064 1063 1062 1061 1060 1059 1058 1057
f 1065 1066 1067 1068 1069 1070 1071 1072
f 1057 1058 1066 1065
f 1058 1059 1067 1066
f 1059 1060 1068 1067
f 1060 1061 1069 1068
f 1061 1062 1070 1069
f 1062 1063 1071 1070
f 1063 1064 1072 1071
f 1064 1057 1065 1072
o Log.End
v -1.672 1.284 -0.446
v -1.672 1.374 -0.536
v -1.672 1.374 -0.664
v -1.672 1.284 -0.754
v -1.672 1.156 -0.754
v -1.672 1.066 -0.664
v -1.672 1.066 -0.536
v -1.672 1.156 -0.446
v -1.66 1.284 -0.446
v -1.66 1.374 -0.536
v -1.66 1.374 -0.664
v -1.66 1.284 -0.754
v -1.66 1.156 -0.754
v -1.66 1.066 -0.664
v -1.66 1.066 -0.536
v -1.66 1.156 -0.446
usemtl LogEnd
s off
f 1080 1079 1078 1077 1076 1075 1074 1073
f 1081 1082 1083 1084 1085 1086 1087 1088
f 1073 1074 1082 1081
f 1074 1075 1083 1082
f 1075 1076 1084 1083
f 1076 1077 1085 1084
f 1077 1078 1086 1085
f 1078 1079 1087 1086
f 1079 1080 1088 1087
f 1080 1073 1081 1088
o Log.End
v 1.61 1.284 -0.446
v 1.61 1.374 -0.536
v 1.61 1.374 -0.664
v 1.61 1.284 -0.754
v 1.61 1.156 -0.754
v 1.61 1.066 -0.664
v 1.61 1.066 -0.536
v 1.61 1.156 -0.446
v 1.622 1.284 -0.446
v 1.622 1.374 -0.536
v 1.622 1.374 -0.664
v 1.622 1.284 -0.754
v 1.622 1.156 -0.754
v 1.622 1.066 -0.664
v 1.622 1.066 -0.536
v 1.622 1.156 -0.446
usemtl LogEnd
s off
f 1096 1095 1094 1093 1092 1091 1090 1089
f 1097 1098 1099 1100 1101 1102 1103 1104
f 1089 1090 1098 1097
f 1090 1091 1099 1098
f 1091 1092 1100 1099
f 1092 1093 1101 1100
f 1093 1094 1102 1101
f 1094 1095 1103 1102
f 1095 1096 1104 1103
f 1096 1089 1097 1104
o Log
v -1.48 1.293 -0.024
v -1.48 1.396 -0.127
v -1.48 1.396 -0.273
v -1.48 1.293 -0.376
v -1.48 1.147 -0.376
v -1.48 1.044 -0.273
v -1.48 1.044 -0.127
v -1.48 1.147 -0.024
v 1.43 1.293 -0.024
v 1.43 1.396 -0.127
v 1.43 1.396 -0.273
v 1.43 1.293 -0.376
v 1.43 1.147 -0.376
v 1.43 1.044 -0.273
v 1.43 1.044 -0.127
v 1.43 1.147 -0.024
usemtl Bark
s off
f 1112 1111 1110 1109 1108 1107 1106 1105
f 1113 1114 1115 1116 1117 1118 1119 1120
f 1105 1106 1114 1113
f 1106 1107 1115 1114
f 1107 1108 1116 1115
f 1108 1109 1117 1116
f 1109 1110 1118 1117
f 1110 1111 1119 1118
f 1111 1112 1120 1119
f 1112 1105 1113 1120
o Log.End
v -1.492 1.284 -0.046
v -1.492 1.374 -0.136
v -1.492 1.374 -0.264
v -1.492 1.284 -0.354
v -1.492 1.156 -0.354
v -1.492 1.066 -0.264
v -1.492 1.066 -0.136
v -1.492 1.156 -0.046
v -1.48 1.284 -0.046
v -1.48 1.374 -0.136
v -1.48 1.374 -0.264
v -1.48 1.284 -0.354
v -1.48 1.156 -0.354
v -1.48 1.066 -0.264
v -1.48 1.066 -0.136
v -1.48 1.156 -0.046
usemtl LogEnd
s off
f 1128 1127 1126 1125 1124 1123 1122 1121
f 1129 1130 1131 1132 1133 1134 1135 1136
f 1121 1122 1130 1129
f 1122 1123 1131 1130
f 1123 1124 1132 1131
f 1124 1125 1133 1132
f 1125 1126 1134 1133
f 1126 1127 1135 1134
f 1127 1128 1136 1135
f 1128 1121 1129 1136
o Log.End
v 1.43 1.284 -0.046
v 1.43 1.374 -0.136
v 1.43 1.374 -0.264
v 1.43 1.284 -0.354
v 1.43 1.156 -0.354
v 1.43 1.066 -0.264
v 1.43 1.066 -0.136
v 1.43 1.156 -0.046
v 1.442 1.284 -0.046
v 1.442 1.374 -0.136
v 1.442 1.374 -0.264
v 1.442 1.284 -0.354
v 1.442 1.156 -0.354
v 1.442 1.066 -0.264
v 1.442 1.066 -0.136
v 1.442 1.156 -0.046
usemtl LogEnd
s off
f 1144 1143 1142 1141 1140 1139 1138 1137
f 1145 1146 1147 1148 1149 1150 1151 1152
f 1137 1138 1146 1145
f 1138 1139 1147 1146
f 1139 1140 1148 1147
f 1140 1141 1149 1148
f 1141 1142 1150 1149
f 1142 1143 1151 1150
f 1143 1144 1152 1151
f 1144 1137 1145 1152
o Pile.Stake
v -1.72 0 0.52
v -1.72 0 0.6
v -1.64 0 0.6
v -1.64 0 0.52
v -1.72 1.2 0.52
v -1.72 1.2 0.6
v -1.64 1.2 0.6
v -1.64 1.2 0.52
usemtl Wood
s off
f 1156 1155 1154 1153
f 1157 1158 1159 1160
f 1153 1154 1158 1157
f 1154 1155 1159 1158
f 1155 1156 1160 1159
f 1156 1153 1157 1160
o Pile.Stake
v 1.62 0 0.52
v 1.62 0 0.6
v 1.7 0 0.6
v 1.7 0 0.52
v 1.62 1.2 0.52
v 1.62 1.2 0.6
v 1.7 1.2 0.6
v 1.7 1.2 0.52
usemtl Wood
s off
f 1164 1163 1162 1161
f 1165 1166 1167 1168
f 1161 1162 1166 1165
f 1162 1163 1167 1166
f 1163 1164 1168 1167
f 1164 1161 1165 1168
o Planks
v 1.72 0.06 -1.35
v 1.72 0.06 0.6
v 2.12 0.06 0.6
v 2.12 0.06 -1.35
v 1.72 0.13 -1.35
v 1.72 0.13 0.6
v 2.12 0.13 0.6
v 2.12 0.13 -1.35
usemtl LogEnd
s off
f 1172 1171 1170 1169
f 1173 1174 1175 1176
f 1169 1170 1174 1173
f 1170 1171 1175 1174
f 1171 1172 1176 1175
f 1172 1169 1173 1176
o Planks
v 1.72 0.14 -1.35
v 1.72 0.14 0.6
v 2.12 0.14 0.6
v 2.12 0.14 -1.35
v 1.72 0.21 -1.35
v 1.72 0.21 0.6
v 2.12 0.21 0.6
v 2.12 0.21 -1.35
usemtl WoodLight
s off
f 1180 1179 1178 1177
f 1181 1182 1183 1184
f 1177 1178 1182 1181
f 1178 1179 1183 1182
f 1179 1180 1184 1183
f 1180 1177 1181 1184
o Planks
v 1.72 0.22 -1.35
v 1.72 0.22 0.6
v 2.12 0.22 0.6
v 2.12 0.22 -1.35
v 1.72 0.29 -1.35
v 1.72 0.29 0.6
v 2.12 0.29 0.6
v 2.12 0.29 -1.35
usemtl LogEnd
s off
f 1188 1187 1186 1185
f 1189 1190 1191 1192
f 1185 1186 1190 1189
f 1186 1187 1191 1190
f 1187 1188 1192 1191
f 1188 1185 1189 1192
o Planks
v 1.72 0.3 -1.35
v 1.72 0.3 0.6
v 2.12 0.3 0.6
v 2.12 0.3 -1.35
v 1.72 0.37 -1.35
v 1.72 0.37 0.6
v 2.12 0.37 0.6
v 2.12 0.37 -1.35
usemtl WoodLight
s off
f 1196 1195 1194 1193
f 1197 1198 1199 1200
f 1193 1194 1198 1197
f 1194 1195 1199 1198
f 1195 1196 1200 1199
f 1196 1193 1197 1200
o Planks
v 1.72 0.38 -1.35
v 1.72 0.38 0.6
v 2.12 0.38 0.6
v 2.12 0.38 -1.35
v 1.72 0.45 -1.35
v 1.72 0.45 0.6
v 2.12 0.45 0.6
v 2.12 0.45 -1.35
usemtl LogEnd
s off
f 1204 1203 1202 1201
f 1205 1206 1207 1208
f 1201 1202 1206 1205
f 1202 1203 1207 1206
f 1203 1204 1208 1207
f 1204 1201 1205 1208
o Planks
v 1.72 0.46 -1.35
v 1.72 0.46 0.6
v 2.12 0.46 0.6
v 2.12 0.46 -1.35
v 1.72 0.53 -1.35
v 1.72 0.53 0.6
v 2.12 0.53 0.6
v 2.12 0.53 -1.35
usemtl WoodLight
s off
f 1212 1211 1210 1209
f 1213 1214 1215 1216
f 1209 1210 1214 1213
f 1210 1211 1215 1214
f 1211 1212 1216 1215
f 1212 1209 1213 1216
o Planks.Spacer
v 1.72 0 -1.2
v 1.72 0 -1.1
v 2.12 0 -1.1
v 2.12 0 -1.2
v 1.72 0.06 -1.2
v 1.72 0.06 -1.1
v 2.12 0.06 -1.1
v 2.12 0.06 -1.2
usemtl Wood
s off
f 1220 1219 1218 1217
f 1221 1222 1223 1224
f 1217 1218 1222 1221
f 1218 1219 1223 1222
f 1219 1220 1224 1223
f 1220 1217 1221 1224
o Planks.Spacer
v 1.72 0 0.35
v 1.72 0 0.45
v 2.12 0 0.45
v 2.12 0 0.35
v 1.72 0.06 0.35
v 1.72 0.06 0.45
v 2.12 0.06 0.45
v 2.12 0.06 0.35
usemtl Wood
s off
f 1228 1227 1226 1225
f 1229 1230 1231 1232
f 1225 1226 1230 1229
f 1226 1227 1231 1230
f 1227 1228 1232 1231
f 1228 1225 1229 1232
o Tool.Handle
v -1.97 1.2 -1.47
v -1.97 1.2 -1.43
v -1.93 1.2 -1.43
v -1.93 1.2 -1.47
v -1.97 2 -1.47
v -1.97 2 -1.43
v -1.93 2 -1.43
v -1.93 2 -1.47
usemtl WoodLight
s off
f 1236 1235 1234 1233
f 1237 1238 1239 1240
f 1233 1234 1238 1237
f 1234 1235 1239 1238
f 1235 1236 1240 1239
f 1236 1233 1237 1240
o Tool.Head
v -1.98 1.2 -1.47
v -1.98 1.2 -1.42
v -1.85 1.2 -1.42
v -1.85 1.2 -1.47
v -1.98 1.33 -1.47
v -1.98 1.33 -1.42
v -1.92 1.33 -1.42
v -1.92 1.33 -1.47
usemtl Iron
s off
f 1244 1243 1242 1241
f 1245 1246 1247 1248
f 1241 1242 1246 1245
f 1242 1243 1247 1246
f 1243 1244 1248 1247
f 1244 1241 1245 1248
o Tool.Handle
v -1.77 1.2 -1.47
v -1.77 1.2 -1.43
v -1.73 1.2 -1.43
v -1.73 1.2 -1.47
v -1.77 2 -1.47
v -1.77 2 -1.43
v -1.73 2 -1.43
v -1.73 2 -1.47
usemtl WoodLight
s off
f 1252 1251 1250 1249
f 1253 1254 1255 1256
f 1249 1250 1254 1253
f 1250 1251 1255 1254
f 1251 1252 1256 1255
f 1252 1249 1253 1256
o Tool.Head
v -1.78 1.2 -1.47
v -1.78 1.2 -1.42
v -1.65 1.2 -1.42
v -1.65 1.2 -1.47
v -1.78 1.33 -1.47
v -1.78 1.33 -1.42
v -1.72 1.33 -1.42
v -1.72 1.33 -1.47
usemtl Iron
s off
f 1260 1259 1258 1257
f 1261 1262 1263 1264
f 1257 1258 1262 1261
f 1258 1259 1263 1262
f 1259 1260 1264 1263
f 1260 1257 1261 1264
o Saw.Blade
v 0.3 1.6 -1.47
v 0.3 1.6 -1.45
v 1.2 1.6 -1.45
v 1.2 1.6 -1.47
v 0.3 1.72 -1.47
v 0.3 1.72 -1.45
v 1.1 1.72 -1.45
v 1.1 1.72 -1.47
usemtl Iron
s off
f 1268 1267 1266 1265
f 1269 1270 1271 1272
f 1265 1266 1270 1269
f 1266 1267 1271 1270
f 1267 1268 1272 1271
f 1268 1265 1269 1272
o Saw.Handle
v 1.2 1.6 -1.47
v 1.2 1.6 -1.43
v 1.35 1.6 -1.43
v 1.35 1.6 -1.47
v 1.2 1.8 -1.47
v 1.2 1.8 -1.43
v 1.35 1.8 -1.43
v 1.35 1.8 -1.47
usemtl WoodLight
s off
f 1276 1275 1274 1273
f 1277 1278 1279 1280
f 1273 1274 1278 1277
f 1274 1275 1279 1278
f 1275 1276 1280 1279
f 1276 1273 1277 1280
o Block
v 1.535 0 2.093
v 1.426 0 2.243
v 1.25 0 2.3
v 1.074 0 2.243
v 0.965 0 2.093
v 0.965 0 1.907
v 1.074 0 1.757
v 1.25 0 1.7
v 1.426 0 1.757
v 1.535 0 1.907
v 1.535 0.5 2.093
v 1.426 0.5 2.243
v 1.25 0.5 2.3
v 1.074 0.5 2.243
v 0.965 0.5 2.093
v 0.965 0.5 1.907
v 1.074 0.5 1.757
v 1.25 0.5 1.7
v 1.426 0.5 1.757
v 1.535 0.5 1.907
usemtl Bark
s off
f 1290 1289 1288 1287 1286 1285 1284 1283 1282 1281
f 1291 1292 1293 1294 1295 1296 1297 1298 1299 1300
f 1281 1282 1292 1291
f 1282 1283 1293 1292
f 1283 1284 1294 1293
f 1284 1285 1295 1294
f 1285 1286 1296 1295
f 1286 1287 1297 1296
f 1287 1288 1298 1297
f 1288 1289 1299 1298
f 1289 1290 1300 1299
f 1290 1281 1291 1300
o Block.Top
v 1.516 0.5 2.087
v 1.415 0.5 2.227
v 1.25 0.5 2.28
v 1.085 0.5 2.227
v 0.984 0.5 2.087
v 0.984 0.5 1.913
v 1.085 0.5 1.773
v 1.25 0.5 1.72
v 1.415 0.5 1.773
v 1.516 0.5 1.913
v 1.516 0.52 2.087
v 1.415 0.52 2.227
v 1.25 0.52 2.28
v 1.085 0.52 2.227
v 0.984 0.52 2.087
v 0.984 0.52 1.913
v 1.085 0.52 1.773
v 1.25 0.52 1.72
v 1.415 0.52 1.773
v 1.516 0.52 1.913
usemtl LogEnd
s off
f 1310 1309 1308 1307 1306 1305 1304 1303 1302 1301
f 1311 1312 1313 1314 1315 1316 1317 1318 1319 1320
f 1301 1302 1312 1311
f 1302 1303 1313 1312
f 1303 1304 1314 1313
f 1304 1305 1315 1314
f 1305 1306 1316 1315
f 1306 1307 1317 1316
f 1307 1308 1318 1317
f 1308 1309 1319 1318
f 1309 1310 1320 1319
f 1310 1301 1311 1320
o Axe.Handle
v 1.169 0.517 1.955
v 1.205 0.517 1.919
v 1.231 0.483 1.945
v 1.195 0.483 1.981
v 1.519 1.067 2.305
v 1.555 1.067 2.269
v 1.581 1.033 2.295
v 1.545 1.033 2.331
usemtl WoodLight
s off
f 1324 1323 1322 1321
f 1325 1326 1327 1328
f 1321 1322 1326 1325
f 1322 1323 1327 1326
f 1323 1324 1328 1327
f 1324 1321 1325 1328
o Axe.Head
v 1.1 0.47 1.9
v 1.1 0.47 1.98
v 1.3 0.47 1.98
v 1.3 0.47 1.9
v 1.14 0.6 1.9
v 1.14 0.6 1.98
v 1.26 0.6 1.98
v 1.26 0.6 1.9
usemtl Iron
s off
f 1332 1331 1330 1329
f 1333 1334 1335 1336
f 1329 1330 1334 1333
f 1330 1331 1335 1334
f 1331 1332 1336 1335
f 1332 1329 1333 1336
o Firewood
v 1.83 0 1.75
v 1.71 0 1.811
v 1.71 0 1.689
v 1.83 0.14 1.75
v 1.71 0.14 1.811
v 1.71 0.14 1.689
usemtl Bark
s off
f 1339 1338 1337
f 1340 1341 1342
f 1337 1338 1341 1340
f 1338 1339 1342 1341
f 1339 1337 1340 1342
o Firewood
v 1.973 0 1.809
v 1.85 0 1.753
v 1.967 0 1.688
v 1.973 0.14 1.809
v 1.85 0.14 1.753
v 1.967 0.14 1.688
usemtl LogEnd
s off
f 1345 1344 1343
f 1346 1347 1348
f 1343 1344 1347 1346
f 1344 1345 1348 1347
f 1345 1343 1346 1348
o Firewood
v 2.077 0 1.814
v 2.064 0 1.693
v 2.19 0 1.743
v 2.077 0.14 1.814
v 2.064 0.14 1.693
v 2.19 0.14 1.743
usemtl Bark
s off
f 1351 1350 1349
f 1352 1353 1354
f 1349 1350 1353 1352
f 1350 1351 1354 1353
f 1351 1349 1352 1354
o Firewood
v 1.671 0 1.96
v 1.78 0 1.885
v 1.799 0 2.005
v 1.671 0.14 1.96
v 1.78 0.14 1.885
v 1.799 0.14 2.005
usemtl LogEnd
s off
f 1357 1356 1355
f 1358 1359 1360
f 1355 1356 1359 1358
f 1356 1357 1360 1359
f 1357 1355 1358 1360
o Firewood
v 1.878 0 1.897
v 2.009 0 1.937
v 1.904 0 2.016
v 1.878 0.14 1.897
v 2.009 0.14 1.937
v 1.904 0.14 2.016
usemtl Bark
s off
f 1363 1362 1361
f 1364 1365 1366
f 1361 1362 1365 1364
f 1362 1363 1366 1365
f 1363 1361 1364 1366
o Firewood
v 2.133 0 1.883
v 2.165 0 2.001
v 2.032 0 1.966
v 2.133 0.14 1.883
v 2.165 0.14 2.001
v 2.032 0.14 1.966
usemtl LogEnd
s off
f 1369 1368 1367
f 1370 1371 1372
f 1367 1368 1371 1370
f 1368 1369 1372 1371
f 1369 1367 1370 1372
o Firewood
v 1.827 0.14 2.13
v 1.731 0.14 2.218
v 1.692 0.14 2.102
v 1.827 0.28 2.13
v 1.731 0.28 2.218
v 1.692 0.28 2.102
usemtl Bark
s off
f 1375 1374 1373
f 1376 1377 1378
f 1373 1374 1377 1376
f 1374 1375 1378 1377
f 1375 1373 1376 1378
o Sawhorse.Leg
v -1.285 0.017 1.719
v -1.215 0.017 1.719
v -1.215 -0.017 1.781
v -1.285 -0.017 1.781
v -1.285 0.817 2.169
v -1.215 0.817 2.169
v -1.215 0.783 2.231
v -1.285 0.783 2.231
usemtl Wood
s off
f 1382 1381 1380 1379
f 1383 1384 1385 1386
f 1379 1380 1384 1383
f 1380 1381 1385 1384
f 1381 1382 1386 1385
f 1382 1379 1383 1386
o Sawhorse.Leg
v -1.215 0.017 2.281
v -1.285 0.017 2.281
v -1.285 -0.017 2.219
v -1.215 -0.017 2.219
v -1.215 0.817 1.831
v -1.285 0.817 1.831
v -1.285 0.783 1.769
v -1.215 0.783 1.769
usemtl Wood
s off
f 1390 1389 1388 1387
f 1391 1392 1393 1394
f 1387 1388 1392 1391
f 1388 1389 1393 1392
f 1389 1390 1394 1393
f 1390 1387 1391 1394
o Sawhorse.Leg
v -0.585 0.017 1.719
v -0.515 0.017 1.719
v -0.515 -0.017 1.781
v -0.585 -0.017 1.781
v -0.585 0.817 2.169
v -0.515 0.817 2.169
v -0.515 0.783 2.231
v -0.585 0.783 2.231
usemtl Wood
s off
f 1398 1397 1396 1395
f 1399 1400 1401 1402
f 1395 1396 1400 1399
f 1396 1397 1401 1400
f 1397 1398 1402 1401
f 1398 1395 1399 1402
o Sawhorse.Leg
v -0.515 0.017 2.281
v -0.585 0.017 2.281
v -0.585 -0.017 2.219
v -0.515 -0.017 2.219
v -0.515 0.817 1.831
v -0.585 0.817 1.831
v -0.585 0.783 1.769
v -0.515 0.783 1.769
usemtl Wood
s off
f 1406 1405 1404 1403
f 1407 1408 1409 1410
f 1403 1404 1408 1407
f 1404 1405 1409 1408
f 1405 1406 1410 1409
f 1406 1403 1407 1410
o Log
v -1.7 0.954 2.129
v -1.7 1.029 2.054
v -1.7 1.029 1.946
v -1.7 0.954 1.871
v -1.7 0.846 1.871
v -1.7 0.771 1.946
v -1.7 0.771 2.054
v -1.7 0.846 2.129
v -0.05 0.954 2.129
v -0.05 1.029 2.054
v -0.05 1.029 1.946
v -0.05 0.954 1.871
v -0.05 0.846 1.871
v -0.05 0.771 1.946
v -0.05 0.771 2.054
v -0.05 0.846 2.129
usemtl Bark
s off
f 1418 1417 1416 1415 1414 1413 1412 1411
f 1419 1420 1421 1422 1423 1424 1425 1426
f 1411 1412 1420 1419
f 1412 1413 1421 1420
f 1413 1414 1422 1421
f 1414 1415 1423 1422
f 1415 1416 1424 1423
f 1416 1417 1425 1424
f 1417 1418 1426 1425
f 1418 1411 1419 1426
o Log.End
v -1.712 0.947 2.114
v -1.712 1.014 2.047
v -1.712 1.014 1.953
v -1.712 0.947 1.886
v -1.712 0.853 1.886
v -1.712 0.786 1.953
v -1.712 0.786 2.047
v -1.712 0.853 2.114
v -1.7 0.947 2.114
v -1.7 1.014 2.047
v -1.7 1.014 1.953
v -1.7 0.947 1.886
v -1.7 0.853 1.886
v -1.7 0.786 1.953
v -1.7 0.786 2.047
v -1.7 0.853 2.114
usemtl LogEnd
s off
f 1434 1433 1432 1431 1430 1429 1428 1427
f 1435 1436 1437 1438 1439 1440 1441 1442
f 1427 1428 1436 1435
f 1428 1429 1437 1436
f 1429 1430 1438 1437
f 1430 1431 1439 1438
f 1431 1432 1440 1439
f 1432 1433 1441 1440
f 1433 1434 1442 1441
f 1434 1427 1435 1442
o Log.End
v -0.05 0.947 2.114
v -0.05 1.014 2.047
v -0.05 1.014 1.953
v -0.05 0.947 1.886
v -0.05 0.853 1.886
v -0.05 0.786 1.953
v -0.05 0.786 2.047
v -0.05 0.853 2.114
v -0.038 0.947 2.114
v -0.038 1.014 2.047
v -0.038 1.014 1.953
v -0.038 0.947 1.886
v -0.038 0.853 1.886
v -0.038 0.786 1.953
v -0.038 0.786 2.047
v -0.038 0.853 2.114
usemtl LogEnd
s off
f 1450 1449 1448 1447 1446 1445 1444 1443
f 1451 1452 1453 1454 1455 1456 1457 1458
f 1443 1444 1452 1451
f 1444 1445 1453 1452
f 1445 1446 1454 1453
f 1446 1447 1455 1454
f 1447 1448 1456 1455
f 1448 1449 1457 1456
f 1449 1450 1458 1457
f 1450 1443 1451 1458
o Saw.Bow
v -0.9 1.05 1.9
v -0.9 1.05 2.1
v -0.85 1.05 2.1
v -0.85 1.05 1.9
v -0.9 1.5 1.9
v -0.9 1.5 2.1
v -0.85 1.5 2.1
v -0.85 1.5 1.9
usemtl Wood
s off
f 1462 1461 1460 1459
f 1463 1464 1465 1466
f 1459 1460 1464 1463
f 1460 1461 1465 1464
f 1461 1462 1466 1465
f 1462 1459 1463 1466
o Lantern
v -0.07 2.28 1.4
v -0.07 2.28 1.54
v 0.07 2.28 1.54
v 0.07 2.28 1.4
v -0.07 2.3 1.4
v -0.07 2.3 1.54
v 0.07 2.3 1.54
v 0.07 2.3 1.4
usemtl Iron
s off
f 1470 1469 1468 1467
f 1471 1472 1473 1474
f 1467 1468 1472 1471
f 1468 1469 1473 1472
f 1469 1470 1474 1473
f 1470 1467 1471 1474
o Lantern.Flame
v -0.05 2.3 1.42
v -0.05 2.3 1.52
v 0.05 2.3 1.52
v 0.05 2.3 1.42
v -0.05 2.44 1.42
v -0.05 2.44 1.52
v 0.05 2.44 1.52
v 0.05 2.44 1.42
usemtl Flame
s off
f 1478 1477 1476 1475
f 1479 1480 1481 1482
f 1475 1476 1480 1479
f 1476 1477 1481 1480
f 1477 1478 1482 1481
f 1478 1475 1479 1482
o Lantern.Cap
v -0.08 2.44 1.39
v -0.08 2.44 1.55
v 0.08 2.44 1.55
v 0.08 2.44 1.39
v -0.02 2.5 1.45
v -0.02 2.5 1.49
v 0.02 2.5 1.49
v 0.02 2.5 1.45
usemtl Iron
s off
f 1486 1485 1484 1483
f 1487 1488 1489 1490
f 1483 1484 1488 1487
f 1484 1485 1489 1488
f 1485 1486 1490 1489
f 1486 1483 1487 1490
o Lantern.Chain
v -0.01 2.5 1.45
v -0.01 2.5 1.49
v 0.01 2.5 1.49
v 0.01 2.5 1.45
v -0.01 2.66 1.45
v -0.01 2.66 1.49
v 0.01 2.66 1.49
v 0.01 2.66 1.45
usemtl Iron
s off
f 1494 1493 1492 1491
f 1495 1496 1497 1498
f 1491 1492 1496 1495
f 1492 1493 1497 1496
f 1493 1494 1498 1497
f 1494 1491 1495 1498
