# lumber_camp_2.obj - Holzlager fuer procedurally-generated-map
# Einheiten: Meter (1 Tile = 5 m, Tueren 2.1 m, ein Dorfbewohner 1.75 m), Y oben,
# Vorderseite nach +Z - so wie Blender ein Modell exportiert, das in der
# Vorderansicht zum Betrachter schaut.
# Material Paint (Band und Wappen) bekommt die Gebaeudefarbe aus dem Spiel.
# Das Objekt Entry markiert den Eingang und wird nicht gezeichnet.
mtllib lumber_camp_2.mtl
o Ground
v 1.5 0 -1.9
v 2.5 0 -1.03
v 2.5 0 1.58
v 1.5 0 2.45
v -1.5 0 2.45
v -2.5 0 1.58
v -2.5 0 -1.03
v -1.5 0 -1.9
v 1.5 0.03 -1.9
v 2.5 0.03 -1.03
v 2.5 0.03 1.58
v 1.5 0.03 2.45
v -1.5 0.03 2.45
v -2.5 0.03 1.58
v -2.5 0.03 -1.03
v -1.5 0.03 -1.9
usemtl Dirt
s off
f 8 7 6 5 4 3 2 1
f 9 10 11 12 13 14 15 16
f 1 2 10 9
f 2 3 11 10
f 3 4 12 11
f 4 5 13 12
f 5 6 14 13
f 6 7 15 14
f 7 8 16 15
f 8 1 9 16
o Post.Foot
v 2.396 0 0.99
v 2.46 0 1.054
v 2.46 0 1.246
v 2.396 0 1.31
v 2.204 0 1.31
v 2.14 0 1.246
v 2.14 0 1.054
v 2.204 0 0.99
v 2.396 0.14 0.99
v 2.46 0.14 1.054
v 2.46 0.14 1.246
v 2.396 0.14 1.31
v 2.204 0.14 1.31
v 2.14 0.14 1.246
v 2.14 0.14 1.054
v 2.204 0.14 0.99
usemtl Stone
s off
f 24 23 22 21 20 19 18 17
f 25 26 27 28 29 30 31 32
f 17 18 26 25
f 18 19 27 26
f 19 20 28 27
f 20 21 29 28
f 21 22 30 29
f 22 23 31 30
f 23 24 32 31
f 24 17 25 32
o Post
v 2.41 0 1.04
v 2.41 0 1.26
v 2.19 0 1.26
v 2.19 0 1.04
v 2.41 2.45 1.04
v 2.41 2.45 1.26
v 2.19 2.45 1.26
v 2.19 2.45 1.04
usemtl Timber
s off
f 36 35 34 33
f 37 38 39 40
f 33 34 38 37
f 34 35 39 38
f 35 36 40 39
f 36 33 37 40
o Post.Foot
v 2.396 0 -1.71
v 2.46 0 -1.646
v 2.46 0 -1.454
v 2.396 0 -1.39
v 2.204 0 -1.39
v 2.14 0 -1.454
v 2.14 0 -1.646
v 2.204 0 -1.71
v 2.396 0.14 -1.71
v 2.46 0.14 -1.646
v 2.46 0.14 -1.454
v 2.396 0.14 -1.39
v 2.204 0.14 -1.39
v 2.14 0.14 -1.454
v 2.14 0.14 -1.646
v 2.204 0.14 -1.71
usemtl Stone
s off
f 48 47 46 45 44 43 42 41
f 49 50 51 52 53 54 55 56
f 41 42 50 49
f 42 43 51 50
f 43 44 52 51
f 44 45 53 52
f 45 46 54 53
f 46 47 55 54
f 47 48 56 55
f 48 41 49 56
o Post
v 2.41 0 -1.66
v 2.41 0 -1.44
v 2.19 0 -1.44
v 2.19 0 -1.66
v 2.41 2.45 -1.66
v 2.41 2.45 -1.44
v 2.19 2.45 -1.44
v 2.19 2.45 -1.66
usemtl Timber
s off
f 60 59 58 57
f 61 62 63 64
f 57 58 62 61
f 58 59 63 62
f 59 60 64 63
f 60 57 61 64
o Brace
v 2.26 1.778 1.178
v 2.34 1.778 1.178
v 2.34 1.722 1.122
v 2.26 1.722 1.122
v 2.26 2.328 0.628
v 2.34 2.328 0.628
v 2.34 2.272 0.572
v 2.26 2.272 0.572
usemtl Timber
s off
f 68 67 66 65
f 69 70 71 72
f 65 66 70 69
f 66 67 71 70
f 67 68 72 71
f 68 65 69 72
o Brace
v 2.34 1.778 -1.578
v 2.26 1.778 -1.578
v 2.26 1.722 -1.522
v 2.34 1.722 -1.522
v 2.34 2.328 -1.028
v 2.26 2.328 -1.028
v 2.26 2.272 -0.972
v 2.34 2.272 -0.972
usemtl Timber
s off
f 76 75 74 73
f 77 78 79 80
f 73 74 78 77
f 74 75 79 78
f 75 76 80 79
f 76 73 77 80
o Post.Foot
v 0.096 0 0.99
v 0.16 0 1.054
v 0.16 0 1.246
v 0.096 0 1.31
v -0.096 0 1.31
v -0.16 0 1.246
v -0.16 0 1.054
v -0.096 0 0.99
v 0.096 0.14 0.99
v 0.16 0.14 1.054
v 0.16 0.14 1.246
v 0.096 0.14 1.31
v -0.096 0.14 1.31
v -0.16 0.14 1.246
v -0.16 0.14 1.054
v -0.096 0.14 0.99
usemtl Stone
s off
f 88 87 86 85 84 83 82 81
f 89 90 91 92 93 94 95 96
f 81 82 90 89
f 82 83 91 90
f 83 84 92 91
f 84 85 93 92
f 85 86 94 93
f 86 87 95 94
f 87 88 96 95
f 88 81 89 96
o Post
v 0.11 0 1.04
v 0.11 0 1.26
v -0.11 0 1.26
v -0.11 0 1.04
v 0.11 2.45 1.04
v 0.11 2.45 1.26
v -0.11 2.45 1.26
v -0.11 2.45 1.04
usemtl Timber
s off
f 100 99 98 97
f 101 102 103 104
f 97 98 102 101
f 98 99 103 102
f 99 100 104 103
f 100 97 101 104
o Post.Foot
v 0.096 0 -1.71
v 0.16 0 -1.646
v 0.16 0 -1.454
v 0.096 0 -1.39
v -0.096 0 -1.39
v -0.16 0 -1.454
v -0.16 0 -1.646
v -0.096 0 -1.71
v 0.096 0.14 -1.71
v 0.16 0.14 -1.646
v 0.16 0.14 -1.454
v 0.096 0.14 -1.39
v -0.096 0.14 -1.39
v -0.16 0.14 -1.454
v -0.16 0.14 -1.646
v -0.096 0.14 -1.71
usemtl Stone
s off
f 112 111 110 109 108 107 106 105
f 113 114 115 116 117 118 119 120
f 105 106 114 113
f 106 107 115 114
f 107 108 116 115
f 108 109 117 116
f 109 110 118 117
f 110 111 119 118
f 111 112 120 119
f 112 105 113 120
o Post
v 0.11 0 -1.66
v 0.11 0 -1.44
v -0.11 0 -1.44
v -0.11 0 -1.66
v 0.11 2.45 -1.66
v 0.11 2.45 -1.44
v -0.11 2.45 -1.44
v -0.11 2.45 -1.66
usemtl Timber
s off
f 124 123 122 121
f 125 126 127 128
f 121 122 126 125
f 122 123 127 126
f 123 124 128 127
f 124 121 125 128
o Brace
v -0.04 1.778 1.178
v 0.04 1.778 1.178
v 0.04 1.722 1.122
v -0.04 1.722 1.122
v -0.04 2.328 0.628
v 0.04 2.328 0.628
v 0.04 2.272 0.572
v -0.04 2.272 0.572
usemtl Timber
s off
f 132 131 130 129
f 133 134 135 136
f 129 130 134 133
f 130 131 135 134
f 131 132 136 135
f 132 129 133 136
o Brace
v 0.04 1.778 -1.578
v -0.04 1.778 -1.578
v -0.04 1.722 -1.522
v 0.04 1.722 -1.522
v 0.04 2.328 -1.028
v -0.04 2.328 -1.028
v -0.04 2.272 -0.972
v 0.04 2.272 -0.972
usemtl Timber
s off
f 140 139 138 137
f 141 142 143 144
f 137 138 142 141
f 138 139 143 142
f 139 140 144 143
f 140 137 141 144
o Post.Foot
v -2.204 0 0.99
v -2.14 0 1.054
v -2.14 0 1.246
v -2.204 0 1.31
v -2.396 0 1.31
v -2.46 0 1.246
v -2.46 0 1.054
v -2.396 0 0.99
v -2.204 0.14 0.99
v -2.14 0.14 1.054
v -2.14 0.14 1.246
v -2.204 0.14 1.31
v -2.396 0.14 1.31
v -2.46 0.14 1.246
v -2.46 0.14 1.054
v -2.396 0.14 0.99
usemtl Stone
s off
f 152 151 150 149 148 147 146 145
f 153 154 155 156 157 158 159 160
f 145 146 154 153
f 146 147 155 154
f 147 148 156 155
f 148 149 157 156
f 149 150 158 157
f 150 151 159 158
f 151 152 160 159
f 152 145 153 160
o Post
v -2.19 0 1.04
v -2.19 0 1.26
v -2.41 0 1.26
v -2.41 0 1.04
v -2.19 2.45 1.04
v -2.19 2.45 1.26
v -2.41 2.45 1.26
v -2.41 2.45 1.04
usemtl Timber
s off
f 164 163 162 161
f 165 166 167 168
f 161 162 166 165
f 162 163 167 166
f 163 164 168 167
f 164 161 165 168
o Post.Foot
v -2.204 0 -1.71
v -2.14 0 -1.646
v -2.14 0 -1.454
v -2.204 0 -1.39
v -2.396 0 -1.39
v -2.46 0 -1.454
v -2.46 0 -1.646
v -2.396 0 -1.71
v -2.204 0.14 -1.71
v -2.14 0.14 -1.646
v -2.14 0.14 -1.454
v -2.204 0.14 -1.39
v -2.396 0.14 -1.39
v -2.46 0.14 -1.454
v -2.46 0.14 -1.646
v -2.396 0.14 -1.71
usemtl Stone
s off
f 176 175 174 173 172 171 170 169
f 177 178 179 180 181 182 183 184
f 169 170 178 177
f 170 171 179 178
f 171 172 180 179
f 172 173 181 180
f 173 174 182 181
f 174 175 183 182
f 175 176 184 183
f 176 169 177 184
o Post
v -2.19 0 -1.66
v -2.19 0 -1.44
v -2.41 0 -1.44
v -2.41 0 -1.66
v -2.19 2.45 -1.66
v -2.19 2.45 -1.44
v -2.41 2.45 -1.44
v -2.41 2.45 -1.66
usemtl Timber
s off
f 188 187 186 185
f 189 190 191 192
f 185 186 190 189
f 186 187 191 190
f 187 188 192 191
f 188 185 189 192
o Brace
v -2.34 1.778 1.178
v -2.26 1.778 1.178
v -2.26 1.722 1.122
v -2.34 1.722 1.122
v -2.34 2.328 0.628
v -2.26 2.328 0.628
v -2.26 2.272 0.572
v -2.34 2.272 0.572
usemtl Timber
s off
f 196 195 194 193
f 197 198 199 200
f 193 194 198 197
f 194 195 199 198
f 195 196 200 199
f 196 193 197 200
o Brace
v -2.26 1.778 -1.578
v -2.34 1.778 -1.578
v -2.34 1.722 -1.522
v -2.26 1.722 -1.522
v -2.26 2.328 -1.028
v -2.34 2.328 -1.028
v -2.34 2.272 -0.972
v -2.26 2.272 -0.972
usemtl Timber
s off
f 204 203 202 201
f 205 206 207 208
f 201 202 206 205
f 202 203 207 206
f 203 204 208 207
f 204 201 205 208
o Brace
v 1.728 2.278 1.11
v 1.728 2.278 1.19
v 1.672 2.222 1.19
v 1.672 2.222 1.11
v 2.328 1.678 1.11
v 2.328 1.678 1.19
v 2.272 1.622 1.19
v 2.272 1.622 1.11
usemtl Timber
s off
f 212 211 210 209
f 213 214 215 216
f 209 210 214 213
f 210 211 215 214
f 211 212 216 215
f 212 209 213 216
o Brace
v -1.728 2.278 1.19
v -1.728 2.278 1.11
v -1.672 2.222 1.11
v -1.672 2.222 1.19
v -2.328 1.678 1.19
v -2.328 1.678 1.11
v -2.272 1.622 1.11
v -2.272 1.622 1.19
usemtl Timber
s off
f 220 219 218 217
f 221 222 223 224
f 217 218 222 221
f 218 219 223 222
f 219 220 224 223
f 220 217 221 224
o Beam.Front
v 2.45 2.21 1.03
v 2.45 2.21 1.27
v -2.45 2.21 1.27
v -2.45 2.21 1.03
v 2.45 2.45 1.03
v 2.45 2.45 1.27
v -2.45 2.45 1.27
v -2.45 2.45 1.03
usemtl Timber
s off
f 228 227 226 225
f 229 230 231 232
f 225 226 230 229
f 226 227 231 230
f 227 228 232 231
f 228 225 229 232
o Beam.Back
v 2.45 2.21 -1.67
v 2.45 2.21 -1.43
v -2.45 2.21 -1.43
v -2.45 2.21 -1.67
v 2.45 2.45 -1.67
v 2.45 2.45 -1.43
v -2.45 2.45 -1.43
v -2.45 2.45 -1.67
usemtl Timber
s off
f 236 235 234 233
f 237 238 239 240
f 233 234 238 237
f 234 235 239 238
f 235 236 240 239
f 236 233 237 240
o Beam.Side
v 2.39 2.25 -1.65
v 2.39 2.25 1.25
v 2.21 2.25 1.25
v 2.21 2.25 -1.65
v 2.39 2.45 -1.65
v 2.39 2.45 1.25
v 2.21 2.45 1.25
v 2.21 2.45 -1.65
usemtl Timber
s off
f 244 243 242 241
f 245 246 247 248
f 241 242 246 245
f 242 243 247 246
f 243 244 248 247
f 244 241 245 248
o Beam.Side
v 0.09 2.25 -1.65
v 0.09 2.25 1.25
v -0.09 2.25 1.25
v -0.09 2.25 -1.65
v 0.09 2.45 -1.65
v 0.09 2.45 1.25
v -0.09 2.45 1.25
v -0.09 2.45 -1.65
usemtl Timber
s off
f 252 251 250 249
f 253 254 255 256
f 249 250 254 253
f 250 251 255 254
f 251 252 256 255
f 252 249 253 256
o Beam.Side
v -2.21 2.25 -1.65
v -2.21 2.25 1.25
v -2.39 2.25 1.25
v -2.39 2.25 -1.65
v -2.21 2.45 -1.65
v -2.21 2.45 1.25
v -2.39 2.45 1.25
v -2.39 2.45 -1.65
usemtl Timber
s off
f 260 259 258 257
f 261 262 263 264
f 257 258 262 261
f 258 259 263 262
f 259 260 264 263
f 260 257 261 264
o Band
v 2.47 2.19 1.27
v 2.47 2.19 1.32
v -2.47 2.19 1.32
v -2.47 2.19 1.27
v 2.47 2.43 1.27
v 2.47 2.43 1.32
v -2.47 2.43 1.32
v -2.47 2.43 1.27
usemtl Paint
s off
f 268 267 266 265
f 269 270 271 272
f 265 266 270 269
f 266 267 271 270
f 267 268 272 271
f 268 265 269 272
o Pennant
v -0.97 2.19 1.32
v -1.53 2.19 1.32
v -1.53 1.5 1.32
v -1.25 1.25 1.32
v -0.97 1.5 1.32
v -0.97 2.19 1.35
v -1.53 2.19 1.35
v -1.53 1.5 1.35
v -1.25 1.25 1.35
v -0.97 1.5 1.35
usemtl Paint
s off
f 277 276 275 274 273
f 278 279 280 281 282
f 273 274 279 278
f 274 275 280 279
f 275 276 281 280
f 276 277 282 281
f 277 273 278 282
o Pennant.Stripe
v -0.97 1.9 1.35
v -0.97 1.9 1.36
v -1.53 1.9 1.36
v -1.53 1.9 1.35
v -0.97 2 1.35
v -0.97 2 1.36
v -1.53 2 1.36
v -1.53 2 1.35
usemtl Canvas
s off
f 286 285 284 283
f 287 288 289 290
f 283 284 288 287
f 284 285 289 288
f 285 286 290 289
f 286 283 287 290
o Pennant.Rod
v -0.91 2.195 1.356
v -0.91 2.21 1.33
v -0.91 2.195 1.304
v -0.91 2.165 1.304
v -0.91 2.15 1.33
v -0.91 2.165 1.356
v -1.59 2.195 1.356
v -1.59 2.21 1.33
v -1.59 2.195 1.304
v -1.59 2.165 1.304
v -1.59 2.15 1.33
v -1.59 2.165 1.356
usemtl Wood
s off
f 296 295 294 293 292 291
f 297 298 299 300 301 302
f 291 292 298 297
f 292 293 299 298
f 293 294 300 299
f 294 295 301 300
f 295 296 302 301
f 296 291 297 302
o Roof
v 2.65 2.37 1.6
v 2.65 2.6 1.3
v 2.65 2.71 1.3
v 2.65 2.546 1.6
v -2.65 2.37 1.6
v -2.65 2.6 1.3
v -2.65 2.71 1.3
v -2.65 2.546 1.6
usemtl Shingle
s off
f 306 305 304 303
f 307 308 309 310
f 303 304 308 307
f 304 305 309 308
f 305 306 310 309
f 306 303 307 310
o Roof
v 2.65 2.6 1.3
v 2.65 2.83 1
v 2.65 2.94 1
v 2.65 2.776 1.3
v -2.65 2.6 1.3
v -2.65 2.83 1
v -2.65 2.94 1
v -2.65 2.776 1.3
usemtl Shingle
s off
f 314 313 312 311
f 315 316 317 318
f 311 312 316 315
f 312 313 317 316
f 313 314 318 317
f 314 311 315 318
o Roof
v 2.65 2.83 1
v 2.65 3.06 0.7
v 2.65 3.17 0.7
v 2.65 3.006 1
v -2.65 2.83 1
v -2.65 3.06 0.7
v -2.65 3.17 0.7
v -2.65 3.006 1
usemtl Shingle
s off
f 322 321 320 319
f 323 324 325 326
f 319 320 324 323
f 320 321 325 324
f 321 322 326 325
f 322 319 323 326
o Roof
v 2.65 3.06 0.7
v 2.65 3.29 0.4
v 2.65 3.4 0.4
v 2.65 3.236 0.7
v -2.65 3.06 0.7
v -2.65 3.29 0.4
v -2.65 3.4 0.4
v -2.65 3.236 0.7
usemtl Shingle
s off
f 330 329 328 327
f 331 332 333 334
f 327 328 332 331
f 328 329 333 332
f 329 330 334 333
f 330 327 331 334
o Roof
v 2.65 3.29 0.4
v 2.65 3.52 0.1
v 2.65 3.63 0.1
v 2.65 3.466 0.4
v -2.65 3.29 0.4
v -2.65 3.52 0.1
v -2.65 3.63 0.1
v -2.65 3.466 0.4
usemtl Shingle
s off
f 338 337 336 335
f 339 340 341 342
f 335 336 340 339
f 336 337 341 340
f 337 338 342 341
f 338 335 339 342
o Roof
v 2.65 3.52 0.1
v 2.65 3.75 -0.2
v 2.65 3.86 -0.2
v 2.65 3.63 0.1
v -2.65 3.52 0.1
v -2.65 3.75 -0.2
v -2.65 3.86 -0.2
v -2.65 3.63 0.1
usemtl Shingle
s off
f 346 345 344 343
f 347 348 349 350
f 343 344 348 347
f 344 345 349 348
f 345 346 350 349
f 346 343 347 350
o Roof
v 2.65 2.37 -2
v 2.65 2.6 -1.7
v 2.65 2.71 -1.7
v 2.65 2.546 -2
v -2.65 2.37 -2
v -2.65 2.6 -1.7
v -2.65 2.71 -1.7
v -2.65 2.546 -2
usemtl Shingle
s off
f 354 353 352 351
f 355 356 357 358
f 351 352 356 355
f 352 353 357 356
f 353 354 358 357
f 354 351 355 358
o Roof
v 2.65 2.6 -1.7
v 2.65 2.83 -1.4
v 2.65 2.94 -1.4
v 2.65 2.776 -1.7
v -2.65 2.6 -1.7
v -2.65 2.83 -1.4
v -2.65 2.94 -1.4
v -2.65 2.776 -1.7
usemtl Shingle
s off
f 362 361 360 359
f 363 364 365 366
f 359 360 364 363
f 360 361 365 364
f 361 362 366 365
f 362 359 363 366
o Roof
v 2.65 2.83 -1.4
v 2.65 3.06 -1.1
v 2.65 3.17 -1.1
v 2.65 3.006 -1.4
v -2.65 2.83 -1.4
v -2.65 3.06 -1.1
v -2.65 3.17 -1.1
v -2.65 3.006 -1.4
usemtl Shingle
s off
f 370 369 368 367
f 371 372 373 374
f 367 368 372 371
f 368 369 373 372
f 369 370 374 373
f 370 367 371 374
o Roof
v 2.65 3.06 -1.1
v 2.65 3.29 -0.8
v 2.65 3.4 -0.8
v 2.65 3.236 -1.1
v -2.65 3.06 -1.1
v -2.65 3.29 -0.8
v -2.65 3.4 -0.8
v -2.65 3.236 -1.1
usemtl Shingle
s off
f 378 377 376 375
f 379 380 381 382
f 375 376 380 379
f 376 377 381 380
f 377 378 382 381
f 378 375 379 382
o Roof
v 2.65 3.29 -0.8
v 2.65 3.52 -0.5
v 2.65 3.63 -0.5
v 2.65 3.466 -0.8
v -2.65 3.29 -0.8
v -2.65 3.52 -0.5
v -2.65 3.63 -0.5
v -2.65 3.466 -0.8
usemtl Shingle
s off
f 386 385 384 383
f 387 388 389 390
f 383 384 388 387
f 384 385 389 388
f 385 386 390 389
f 386 383 387 390
o Roof
v 2.65 3.52 -0.5
v 2.65 3.75 -0.2
v 2.65 3.86 -0.2
v 2.65 3.63 -0.5
v -2.65 3.52 -0.5
v -2.65 3.75 -0.2
v -2.65 3.86 -0.2
v -2.65 3.63 -0.5
usemtl Shingle
s off
f 394 393 392 391
f 395 396 397 398
f 391 392 396 395
f 392 393 397 396
f 393 394 398 397
f 394 391 395 398
o Roof.Ridge
v 2.69 3.85 -0.096
v 2.69 3.89 -0.2
v 2.69 3.85 -0.304
v 2.69 3.77 -0.304
v 2.69 3.73 -0.2
v 2.69 3.77 -0.096
v -2.69 3.85 -0.096
v -2.69 3.89 -0.2
v -2.69 3.85 -0.304
v -2.69 3.77 -0.304
v -2.69 3.73 -0.2
v -2.69 3.77 -0.096
usemtl ShingleDark
s off
f 404 403 402 401 400 399
f 405 406 407 408 409 410
f 399 400 406 405
f 400 401 407 406
f 401 402 408 407
f 402 403 409 408
f 403 404 410 409
f 404 399 405 410
o Gable
v 2.39 2.45 -1.55
v 2.39 2.45 1.15
v 2.39 3.65 -0.2
v 2.31 2.45 -1.55
v 2.31 2.45 1.15
v 2.31 3.65 -0.2
usemtl WoodLight
s off
f 413 412 411
f 414 415 416
f 411 412 415 414
f 412 413 416 415
f 413 411 414 416
o Gable.Seam
v 2.4 2.45 -1.022
v 2.4 2.45 -0.998
v 2.3 2.45 -0.998
v 2.3 2.45 -1.022
v 2.4 2.88 -1.022
v 2.4 2.88 -0.998
v 2.3 2.88 -0.998
v 2.3 2.88 -1.022
usemtl WoodDark
s off
f 420 419 418 417
f 421 422 423 424
f 417 418 422 421
f 418 419 423 422
f 419 420 424 423
f 420 417 421 424
o Gable.Seam
v 2.4 2.45 -0.482
v 2.4 2.45 -0.458
v 2.3 2.45 -0.458
v 2.3 2.45 -0.482
v 2.4 3.36 -0.482
v 2.4 3.36 -0.458
v 2.3 3.36 -0.458
v 2.3 3.36 -0.482
usemtl WoodDark
s off
f 428 427 426 425
f 429 430 431 432
f 425 426 430 429
f 426 427 431 430
f 427 428 432 431
f 428 425 429 432
o Gable.Seam
v 2.4 2.45 0.058
v 2.4 2.45 0.082
v 2.3 2.45 0.082
v 2.3 2.45 0.058
v 2.4 3.36 0.058
v 2.4 3.36 0.082
v 2.3 3.36 0.082
v 2.3 3.36 0.058
usemtl WoodDark
s off
f 436 435 434 433
f 437 438 439 440
f 433 434 438 437
f 434 435 439 438
f 435 436 440 439
f 436 433 437 440
o Gable.Seam
v 2.4 2.45 0.598
v 2.4 2.45 0.622
v 2.3 2.45 0.622
v 2.3 2.45 0.598
v 2.4 2.88 0.598
v 2.4 2.88 0.622
v 2.3 2.88 0.622
v 2.3 2.88 0.598
usemtl WoodDark
s off
f 444 443 442 441
f 445 446 447 448
f 441 442 446 445
f 442 443 447 446
f 443 444 448 447
f 444 441 445 448
o Gable.Barge
v 2.61 2.396 1.638
v 2.73 2.396 1.638
v 2.73 2.304 1.562
v 2.61 2.304 1.562
v 2.61 3.876 -0.162
v 2.73 3.876 -0.162
v 2.73 3.784 -0.238
v 2.61 3.784 -0.238
usemtl Timber
s off
f 452 451 450 449
f 453 454 455 456
f 449 450 454 453
f 450 451 455 454
f 451 452 456 455
f 452 449 453 456
o Gable.Barge
v 2.73 2.396 -2.038
v 2.61 2.396 -2.038
v 2.61 2.304 -1.962
v 2.73 2.304 -1.962
v 2.73 3.876 -0.238
v 2.61 3.876 -0.238
v 2.61 3.784 -0.162
v 2.73 3.784 -0.162
usemtl Timber
s off
f 460 459 458 457
f 461 462 463 464
f 457 458 462 461
f 458 459 463 462
f 459 460 464 463
f 460 457 461 464
o Shield
v 2.45 3.2 -0.44
v 2.45 3.2 0.04
v 2.45 2.92 0.04
v 2.45 2.62 -0.2
v 2.45 2.92 -0.44
v 2.4 3.2 -0.44
v 2.4 3.2 0.04
v 2.4 2.92 0.04
v 2.4 2.62 -0.2
v 2.4 2.92 -0.44
usemtl Paint
s off
f 469 468 467 466 465
f 470 471 472 473 474
f 465 466 471 470
f 466 467 472 471
f 467 468 473 472
f 468 469 474 473
f 469 465 470 474
o Shield.Stripe
v 2.49 3.185 -0.376
v 2.42 3.185 -0.376
v 2.42 3.135 -0.424
v 2.49 3.135 -0.424
v 2.49 2.795 0.024
v 2.42 2.795 0.024
v 2.42 2.745 -0.024
v 2.49 2.745 -0.024
usemtl Canvas
s off
f 478 477 476 475
f 479 480 481 482
f 475 476 480 479
f 476 477 481 480
f 477 478 482 481
f 478 475 479 482
o Gable
v -2.31 2.45 -1.55
v -2.31 2.45 1.15
v -2.31 3.65 -0.2
v -2.39 2.45 -1.55
v -2.39 2.45 1.15
v -2.39 3.65 -0.2
usemtl WoodLight
s off
f 485 484 483
f 486 487 488
f 483 484 487 486
f 484 485 488 487
f 485 483 486 488
o Gable.Seam
v -2.3 2.45 -1.022
v -2.3 2.45 -0.998
v -2.4 2.45 -0.998
v -2.4 2.45 -1.022
v -2.3 2.88 -1.022
v -2.3 2.88 -0.998
v -2.4 2.88 -0.998
v -2.4 2.88 -1.022
usemtl WoodDark
s off
f 492 491 490 489
f 493 494 495 496
f 489 490 494 493
f 490 491 495 494
f 491 492 496 495
f 492 489 493 496
o Gable.Seam
v -2.3 2.45 -0.482
v -2.3 2.45 -0.458
v -2.4 2.45 -0.458
v -2.4 2.45 -0.482
v -2.3 3.36 -0.482
v -2.3 3.36 -0.458
v -2.4 3.36 -0.458
v -2.4 3.36 -0.482
usemtl WoodDark
s off
f 500 499 498 497
f 501 502 503 504
f 497 498 502 501
f 498 499 503 502
f 499 500 504 503
f 500 497 501 504
o Gable.Seam
v -2.3 2.45 0.058
v -2.3 2.45 0.082
v -2.4 2.45 0.082
v -2.4 2.45 0.058
v -2.3 3.36 0.058
v -2.3 3.36 0.082
v -2.4 3.36 0.082
v -2.4 3.36 0.058
usemtl WoodDark
s off
f 508 507 506 505
f 509 510 511 512
f 505 506 510 509
f 506 507 511 510
f 507 508 512 511
f 508 505 509 512
o Gable.Seam
v -2.3 2.45 0.598
v -2.3 2.45 0.622
v -2.4 2.45 0.622
v -2.4 2.45 0.598
v -2.3 2.88 0.598
v -2.3 2.88 0.622
v -2.4 2.88 0.622
v -2.4 2.88 0.598
usemtl WoodDark
s off
f 516 515 514 513
f 517 518 519 520
f 513 514 518 517
f 514 515 519 518
f 515 516 520 519
f 516 513 517 520
o Gable.Barge
v -2.73 2.396 1.638
v -2.61 2.396 1.638
v -2.61 2.304 1.562
v -2.73 2.304 1.562
v -2.73 3.876 -0.162
v -2.61 3.876 -0.162
v -2.61 3.784 -0.238
v -2.73 3.784 -0.238
usemtl Timber
s off
f 524 523 522 521
f 525 526 527 528
f 521 522 526 525
f 522 523 527 526
f 523 524 528 527
f 524 521 525 528
o Gable.Barge
v -2.61 2.396 -2.038
v -2.73 2.396 -2.038
v -2.73 2.304 -1.962
v -2.61 2.304 -1.962
v -2.61 3.876 -0.238
v -2.73 3.876 -0.238
v -2.73 3.784 -0.162
v -2.61 3.784 -0.162
usemtl Timber
s off
f 532 531 530 529
f 533 534 535 536
f 529 530 534 533
f 530 531 535 534
f 531 532 536 535
f 532 529 533 536
o Shield
v -2.4 3.2 -0.44
v -2.4 3.2 0.04
v -2.4 2.92 0.04
v -2.4 2.62 -0.2
v -2.4 2.92 -0.44
v -2.45 3.2 -0.44
v -2.45 3.2 0.04
v -2.45 2.92 0.04
v -2.45 2.62 -0.2
v -2.45 2.92 -0.44
usemtl Paint
s off
f 541 540 539 538 537
f 542 543 544 545 546
f 537 538 543 542
f 538 539 544 543
f 539 540 545 544
f 540 541 546 545
f 541 537 542 546
o Shield.Stripe
v -2.42 3.185 -0.376
v -2.49 3.185 -0.376
v -2.49 3.135 -0.424
v -2.42 3.135 -0.424
v -2.42 2.795 0.024
v -2.49 2.795 0.024
v -2.49 2.745 -0.024
v -2.42 2.745 -0.024
usemtl Canvas
s off
f 550 549 548 547
f 551 552 553 554
f 547 548 552 551
f 548 549 553 552
f 549 550 554 553
f 550 547 551 554
o Room.Plinth
v 2.29 0 -1.54
v 2.29 0 -0.11
v 0.06 0 -0.11
v 0.06 0 -1.54
v 2.29 0.3 -1.54
v 2.29 0.3 -0.11
v 0.06 0.3 -0.11
v 0.06 0.3 -1.54
usemtl Stone
s off
f 558 557 556 555
f 559 560 561 562
f 555 556 560 559
f 556 557 561 560
f 557 558 562 561
f 558 555 559 562
o Room
v 2.25 0.3 -1.5
v 2.25 0.3 -0.15
v 0.1 0.3 -0.15
v 0.1 0.3 -1.5
v 2.25 2.21 -1.5
v 2.25 2.21 -0.15
v 0.1 2.21 -0.15
v 0.1 2.21 -1.5
usemtl Stone
s off
f 566 565 564 563
f 567 568 569 570
f 563 564 568 567
f 564 565 569 568
f 565 566 570 569
f 566 563 567 570
o Room.Stone
v 2.17 0.35 -0.15
v 2.17 0.35 -0.12
v 1.75 0.35 -0.12
v 1.75 0.35 -0.15
v 2.17 0.6 -0.15
v 2.17 0.6 -0.12
v 1.75 0.6 -0.12
v 1.75 0.6 -0.15
usemtl StoneLight
s off
f 574 573 572 571
f 575 576 577 578
f 571 572 576 575
f 572 573 577 576
f 573 574 578 577
f 574 571 575 578
o Room.Stone
v 1.62 0.35 -0.15
v 1.62 0.35 -0.12
v 1.2 0.35 -0.12
v 1.2 0.35 -0.15
v 1.62 0.6 -0.15
v 1.62 0.6 -0.12
v 1.2 0.6 -0.12
v 1.2 0.6 -0.15
usemtl StoneDark
s off
f 582 581 580 579
f 583 584 585 586
f 579 580 584 583
f 580 581 585 584
f 581 582 586 585
f 582 579 583 586
o Room.Stone
v 1.07 0.35 -0.15
v 1.07 0.35 -0.12
v 0.65 0.35 -0.12
v 0.65 0.35 -0.15
v 1.07 0.6 -0.15
v 1.07 0.6 -0.12
v 0.65 0.6 -0.12
v 0.65 0.6 -0.15
usemtl StoneDark
s off
f 590 589 588 587
f 591 592 593 594
f 587 588 592 591
f 588 589 593 592
f 589 590 594 593
f 590 587 591 594
o Room.Stone
v 1.9 0.65 -0.15
v 1.9 0.65 -0.12
v 1.48 0.65 -0.12
v 1.48 0.65 -0.15
v 1.9 0.9 -0.15
v 1.9 0.9 -0.12
v 1.48 0.9 -0.12
v 1.48 0.9 -0.15
usemtl StoneDark
s off
f 598 597 596 595
f 599 600 601 602
f 595 596 600 599
f 596 597 601 600
f 597 598 602 601
f 598 595 599 602
o Room.Stone
v 1.35 0.65 -0.15
v 1.35 0.65 -0.12
v 0.93 0.65 -0.12
v 0.93 0.65 -0.15
v 1.35 0.9 -0.15
v 1.35 0.9 -0.12
v 0.93 0.9 -0.12
v 0.93 0.9 -0.15
usemtl StoneDark
s off
f 606 605 604 603
f 607 608 609 610
f 603 604 608 607
f 604 605 609 608
f 605 606 610 609
f 606 603 607 610
o Room.Stone
v 0.8 0.65 -0.15
v 0.8 0.65 -0.12
v 0.38 0.65 -0.12
v 0.38 0.65 -0.15
v 0.8 0.9 -0.15
v 0.8 0.9 -0.12
v 0.38 0.9 -0.12
v 0.38 0.9 -0.15
usemtl StoneLight
s off
f 614 613 612 611
f 615 616 617 618
f 611 612 616 615
f 612 613 617 616
f 613 614 618 617
f 614 611 615 618
o Room.Stone
v 2.17 0.95 -0.15
v 2.17 0.95 -0.12
v 1.75 0.95 -0.12
v 1.75 0.95 -0.15
v 2.17 1.2 -0.15
v 2.17 1.2 -0.12
v 1.75 1.2 -0.12
v 1.75 1.2 -0.15
usemtl StoneDark
s off
f 622 621 620 619
f 623 624 625 626
f 619 620 624 623
f 620 621 625 624
f 621 622 626 625
f 622 619 623 626
o Room.Stone
v 1.62 0.95 -0.15
v 1.62 0.95 -0.12
v 1.2 0.95 -0.12
v 1.2 0.95 -0.15
v 1.62 1.2 -0.15
v 1.62 1.2 -0.12
v 1.2 1.2 -0.12
v 1.2 1.2 -0.15
usemtl StoneLight
s off
f 630 629 628 627
f 631 632 633 634
f 627 628 632 631
f 628 629 633 632
f 629 630 634 633
f 630 627 631 634
o Room.Stone
v 1.07 0.95 -0.15
v 1.07 0.95 -0.12
v 0.65 0.95 -0.12
v 0.65 0.95 -0.15
v 1.07 1.2 -0.15
v 1.07 1.2 -0.12
v 0.65 1.2 -0.12
v 0.65 1.2 -0.15
usemtl StoneDark
s off
f 638 637 636 635
f 639 640 641 642
f 635 636 640 639
f 636 637 641 640
f 637 638 642 641
f 638 635 639 642
o Room.Stone
v 1.9 1.25 -0.15
v 1.9 1.25 -0.12
v 1.48 1.25 -0.12
v 1.48 1.25 -0.15
v 1.9 1.5 -0.15
v 1.9 1.5 -0.12
v 1.48 1.5 -0.12
v 1.48 1.5 -0.15
usemtl StoneLight
s off
f 646 645 644 643
f 647 648 649 650
f 643 644 648 647
f 644 645 649 648
f 645 646 650 649
f 646 643 647 650
o Room.Stone
v 1.35 1.25 -0.15
v 1.35 1.25 -0.12
v 0.93 1.25 -0.12
v 0.93 1.25 -0.15
v 1.35 1.5 -0.15
v 1.35 1.5 -0.12
v 0.93 1.5 -0.12
v 0.93 1.5 -0.15
usemtl StoneDark
s off
f 654 653 652 651
f 655 656 657 658
f 651 652 656 655
f 652 653 657 656
f 653 654 658 657
f 654 651 655 658
o Room.Stone
v 0.8 1.25 -0.15
v 0.8 1.25 -0.12
v 0.38 1.25 -0.12
v 0.38 1.25 -0.15
v 0.8 1.5 -0.15
v 0.8 1.5 -0.12
v 0.38 1.5 -0.12
v 0.38 1.5 -0.15
usemtl StoneDark
s off
f 662 661 660 659
f 663 664 665 666
f 659 660 664 663
f 660 661 665 664
f 661 662 666 665
f 662 659 663 666
o Room.Stone
v 2.17 1.55 -0.15
v 2.17 1.55 -0.12
v 1.75 1.55 -0.12
v 1.75 1.55 -0.15
v 2.17 1.8 -0.15
v 2.17 1.8 -0.12
v 1.75 1.8 -0.12
v 1.75 1.8 -0.15
usemtl StoneDark
s off
f 670 669 668 667
f 671 672 673 674
f 667 668 672 671
f 668 669 673 672
f 669 670 674 673
f 670 667 671 674
o Room.Stone
v 1.62 1.55 -0.15
v 1.62 1.55 -0.12
v 1.2 1.55 -0.12
v 1.2 1.55 -0.15
v 1.62 1.8 -0.15
v 1.62 1.8 -0.12
v 1.2 1.8 -0.12
v 1.2 1.8 -0.15
usemtl StoneDark
s off
f 678 677 676 675
f 679 680 681 682
f 675 676 680 679
f 676 677 681 680
f 677 678 682 681
f 678 675 679 682
o Room.Stone
v 1.07 1.55 -0.15
v 1.07 1.55 -0.12
v 0.65 1.55 -0.12
v 0.65 1.55 -0.15
v 1.07 1.8 -0.15
v 1.07 1.8 -0.12
v 0.65 1.8 -0.12
v 0.65 1.8 -0.15
usemtl StoneLight
s off
f 686 685 684 683
f 687 688 689 690
f 683 684 688 687
f 684 685 689 688
f 685 686 690 689
f 686 683 687 690
o Room.Stone
v 1.9 1.85 -0.15
v 1.9 1.85 -0.12
v 1.48 1.85 -0.12
v 1.48 1.85 -0.15
v 1.9 2.1 -0.15
v 1.9 2.1 -0.12
v 1.48 2.1 -0.12
v 1.48 2.1 -0.15
usemtl StoneDark
s off
f 694 693 692 691
f 695 696 697 698
f 691 692 696 695
f 692 693 697 696
f 693 694 698 697
f 694 691 695 698
o Room.Stone
v 1.35 1.85 -0.15
v 1.35 1.85 -0.12
v 0.93 1.85 -0.12
v 0.93 1.85 -0.15
v 1.35 2.1 -0.15
v 1.35 2.1 -0.12
v 0.93 2.1 -0.12
v 0.93 2.1 -0.15
usemtl StoneLight
s off
f 702 701 700 699
f 703 704 705 706
f 699 700 704 703
f 700 701 705 704
f 701 702 706 705
f 702 699 703 706
o Room.Stone
v 0.8 1.85 -0.15
v 0.8 1.85 -0.12
v 0.38 1.85 -0.12
v 0.38 1.85 -0.15
v 0.8 2.1 -0.15
v 0.8 2.1 -0.12
v 0.38 2.1 -0.12
v 0.38 2.1 -0.15
usemtl StoneDark
s off
f 710 709 708 707
f 711 712 713 714
f 707 708 712 711
f 708 709 713 712
f 709 710 714 713
f 710 707 711 714
o Room.Window
v 1.97 1 -0.15
v 1.97 1 -0.12
v 1.53 1 -0.12
v 1.53 1 -0.15
v 1.97 1.45 -0.15
v 1.97 1.45 -0.12
v 1.53 1.45 -0.12
v 1.53 1.45 -0.15
usemtl WindowLit
s off
f 718 717 716 715
f 719 720 721 722
f 715 716 720 719
f 716 717 721 720
f 717 718 722 721
f 718 715 719 722
o Room.Window.Bar
v 1.77 1 -0.12
v 1.77 1 -0.09
v 1.73 1 -0.09
v 1.73 1 -0.12
v 1.77 1.45 -0.12
v 1.77 1.45 -0.09
v 1.73 1.45 -0.09
v 1.73 1.45 -0.12
usemtl Timber
s off
f 726 725 724 723
f 727 728 729 730
f 723 724 728 727
f 724 725 729 728
f 725 726 730 729
f 726 723 727 730
o Room.Window.Frame
v 2.04 0.93 -0.15
v 2.04 0.93 -0.03
v 1.46 0.93 -0.03
v 1.46 0.93 -0.15
v 2.04 1 -0.15
v 2.04 1 -0.03
v 1.46 1 -0.03
v 1.46 1 -0.15
usemtl Timber
s off
f 734 733 732 731
f 735 736 737 738
f 731 732 736 735
f 732 733 737 736
f 733 734 738 737
f 734 731 735 738
o Room.Window.Shutter
v 2.25 1 -0.15
v 2.25 1 -0.11
v 2.01 1 -0.11
v 2.01 1 -0.15
v 2.25 1.45 -0.15
v 2.25 1.45 -0.11
v 2.01 1.45 -0.11
v 2.01 1.45 -0.15
usemtl Wood
s off
f 742 741 740 739
f 743 744 745 746
f 739 740 744 743
f 740 741 745 744
f 741 742 746 745
f 742 739 743 746
o Room.Window.Shutter
v 1.49 1 -0.15
v 1.49 1 -0.11
v 1.25 1 -0.11
v 1.25 1 -0.15
v 1.49 1.45 -0.15
v 1.49 1.45 -0.11
v 1.25 1.45 -0.11
v 1.25 1.45 -0.15
usemtl Wood
s off
f 750 749 748 747
f 751 752 753 754
f 747 748 752 751
f 748 749 753 752
f 749 750 754 753
f 750 747 751 754
o Room.Door
v 1 0.3 -0.15
v 1 0.3 -0.1
v 0.3 0.3 -0.1
v 0.3 0.3 -0.15
v 1 1.95 -0.15
v 1 1.95 -0.1
v 0.3 1.95 -0.1
v 0.3 1.95 -0.15
usemtl Wood
s off
f 758 757 756 755
f 759 760 761 762
f 755 756 760 759
f 756 757 761 760
f 757 758 762 761
f 758 755 759 762
o Room.Door.Seam
v 0.835 0.35 -0.1
v 0.835 0.35 -0.09
v 0.815 0.35 -0.09
v 0.815 0.35 -0.1
v 0.835 1.9 -0.1
v 0.835 1.9 -0.09
v 0.815 1.9 -0.09
v 0.815 1.9 -0.1
usemtl WoodDark
s off
f 766 765 764 763
f 767 768 769 770
f 763 764 768 767
f 764 765 769 768
f 765 766 770 769
f 766 763 767 770
o Room.Door.Seam
v 0.66 0.35 -0.1
v 0.66 0.35 -0.09
v 0.64 0.35 -0.09
v 0.64 0.35 -0.1
v 0.66 1.9 -0.1
v 0.66 1.9 -0.09
v 0.64 1.9 -0.09
v 0.64 1.9 -0.1
usemtl WoodDark
s off
f 774 773 772 771
f 775 776 777 778
f 771 772 776 775
f 772 773 777 776
f 773 774 778 777
f 774 771 775 778
o Room.Door.Seam
v 0.485 0.35 -0.1
v 0.485 0.35 -0.09
v 0.465 0.35 -0.09
v 0.465 0.35 -0.1
v 0.485 1.9 -0.1
v 0.485 1.9 -0.09
v 0.465 1.9 -0.09
v 0.465 1.9 -0.1
usemtl WoodDark
s off
f 782 781 780 779
f 783 784 785 786
f 779 780 784 783
f 780 781 785 784
f 781 782 786 785
f 782 779 783 786
o Room.Door.Frame
v 1.1 1.95 -0.15
v 1.1 1.95 -0.07
v 0.2 1.95 -0.07
v 0.2 1.95 -0.15
v 1.1 2.07 -0.15
v 1.1 2.07 -0.07
v 0.2 2.07 -0.07
v 0.2 2.07 -0.15
usemtl Timber
s off
f 790 789 788 787
f 791 792 793 794
f 787 788 792 791
f 788 789 793 792
f 789 790 794 793
f 790 787 791 794
o Shield
v 1.95 2.05 -0.1
v 1.55 2.05 -0.1
v 1.55 1.8 -0.1
v 1.75 1.55 -0.1
v 1.95 1.8 -0.1
v 1.95 2.05 -0.05
v 1.55 2.05 -0.05
v 1.55 1.8 -0.05
v 1.75 1.55 -0.05
v 1.95 1.8 -0.05
usemtl Paint
s off
f 799 798 797 796 795
f 800 801 802 803 804
f 795 796 801 800
f 796 797 802 801
f 797 798 803 802
f 798 799 804 803
f 799 795 800 804
o Shield.Stripe
v 1.888 2.03 -0.015
v 1.888 2.03 -0.075
v 1.932 1.99 -0.075
v 1.932 1.99 -0.015
v 1.568 1.68 -0.015
v 1.568 1.68 -0.075
v 1.612 1.64 -0.075
v 1.612 1.64 -0.015
usemtl Canvas
s off
f 808 807 806 805
f 809 810 811 812
f 805 806 810 809
f 806 807 811 810
f 807 808 812 811
f 808 805 809 812
o Log
v -0.05 0.265 -1.043
v -0.05 0.357 -1.135
v -0.05 0.357 -1.265
v -0.05 0.265 -1.357
v -0.05 0.135 -1.357
v -0.05 0.043 -1.265
v -0.05 0.043 -1.135
v -0.05 0.135 -1.043
v -2.2 0.265 -1.043
v -2.2 0.357 -1.135
v -2.2 0.357 -1.265
v -2.2 0.265 -1.357
v -2.2 0.135 -1.357
v -2.2 0.043 -1.265
v -2.2 0.043 -1.135
v -2.2 0.135 -1.043
usemtl Bark
s off
f 820 819 818 817 816 815 814 813
f 821 822 823 824 825 826 827 828
f 813 814 822 821
f 814 815 823 822
f 815 816 824 823
f 816 817 825 824
f 817 818 826 825
f 818 819 827 826
f 819 820 828 827
f 820 813 821 828
o Log.End
v -0.038 0.257 -1.062
v -0.038 0.338 -1.143
v -0.038 0.338 -1.257
v -0.038 0.257 -1.338
v -0.038 0.143 -1.338
v -0.038 0.062 -1.257
v -0.038 0.062 -1.143
v -0.038 0.143 -1.062
v -0.05 0.257 -1.062
v -0.05 0.338 -1.143
v -0.05 0.338 -1.257
v -0.05 0.257 -1.338
v -0.05 0.143 -1.338
v -0.05 0.062 -1.257
v -0.05 0.062 -1.143
v -0.05 0.143 -1.062
usemtl LogEnd
s off
f 836 835 834 833 832 831 830 829
f 837 838 839 840 841 842 843 844
f 829 830 838 837
f 830 831 839 838
f 831 832 840 839
f 832 833 841 840
f 833 834 842 841
f 834 835 843 842
f 835 836 844 843
f 836 829 837 844
o Log.End
v -2.2 0.257 -1.062
v -2.2 0.338 -1.143
v -2.2 0.338 -1.257
v -2.2 0.257 -1.338
v -2.2 0.143 -1.338
v -2.2 0.062 -1.257
v -2.2 0.062 -1.143
v -2.2 0.143 -1.062
v -2.212 0.257 -1.062
v -2.212 0.338 -1.143
v -2.212 0.338 -1.257
v -2.212 0.257 -1.338
v -2.212 0.143 -1.338
v -2.212 0.062 -1.257
v -2.212 0.062 -1.143
v -2.212 0.143 -1.062
usemtl LogEnd
s off
f 852 851 850 849 848 847 846 845
f 853 854 855 856 857 858 859 860
f 845 846 854 853
f 846 847 855 854
f 847 848 856 855
f 848 849 857 856
f 849 850 858 857
f 850 851 859 858
f 851 852 860 859
f 852 845 853 860
o Log
v -0.2 0.265 -0.663
v -0.2 0.357 -0.755
v -0.2 0.357 -0.885
v -0.2 0.265 -0.977
v -0.2 0.135 -0.977
v -0.2 0.043 -0.885
v -0.2 0.043 -0.755
v -0.2 0.135 -0.663
v -2.05 0.265 -0.663
v -2.05 0.357 -0.755
v -2.05 0.357 -0.885
v -2.05 0.265 -0.977
v -2.05 0.135 -0.977
v -2.05 0.043 -0.885
v -2.05 0.043 -0.755
v -2.05 0.135 -0.663
usemtl Bark
s off
f 868 867 866 865 864 863 862 861
f 869 870 871 872 873 874 875 876
f 861 862 870 869
f 862 863 871 870
f 863 864 872 871
f 864 865 873 872
f 865 866 874 873
f 866 867 875 874
f 867 868 876 875
f 868 861 869 876
o Log.End
v -0.188 0.257 -0.682
v -0.188 0.338 -0.763
v -0.188 0.338 -0.877
v -0.188 0.257 -0.958
v -0.188 0.143 -0.958
v -0.188 0.062 -0.877
v -0.188 0.062 -0.763
v -0.188 0.143 -0.682
v -0.2 0.257 -0.682
v -0.2 0.338 -0.763
v -0.2 0.338 -0.877
v -0.2 0.257 -0.958
v -0.2 0.143 -0.958
v -0.2 0.062 -0.877
v -0.2 0.062 -0.763
v -0.2 0.143 -0.682
usemtl LogEnd
s off
f 884 883 882 881 880 879 878 877
f 885 886 887 888 889 890 891 892
f 877 878 886 885
f 878 879 887 886
f 879 880 888 887
f 880 881 889 888
f 881 882 890 889
f 882 883 891 890
f 883 884 892 891
f 884 877 885 892
o Log.End
v -2.05 0.257 -0.682
v -2.05 0.338 -0.763
v -2.05 0.338 -0.877
v -2.05 0.257 -0.958
v -2.05 0.143 -0.958
v -2.05 0.062 -0.877
v -2.05 0.062 -0.763
v -2.05 0.143 -0.682
v -2.062 0.257 -0.682
v -2.062 0.338 -0.763
v -2.062 0.338 -0.877
v -2.062 0.257 -0.958
v -2.062 0.143 -0.958
v -2.062 0.062 -0.877
v -2.062 0.062 -0.763
v -2.062 0.143 -0.682
usemtl LogEnd
s off
f 900 899 898 897 896 895 894 893
f 901 902 903 904 905 906 907 908
f 893 894 902 901
f 894 895 903 902
f 895 896 904 903
f 896 897 905 904
f 897 898 906 905
f 898 899 907 906
f 899 900 908 907
f 900 893 901 908
o Log
v -0.1 0.265 -0.283
v -0.1 0.357 -0.375
v -0.1 0.357 -0.505
v -0.1 0.265 -0.597
v -0.1 0.135 -0.597
v -0.1 0.043 -0.505
v -0.1 0.043 -0.375
v -0.1 0.135 -0.283
v -2.15 0.265 -0.283
v -2.15 0.357 -0.375
v -2.15 0.357 -0.505
v -2.15 0.265 -0.597
v -2.15 0.135 -0.597
v -2.15 0.043 -0.505
v -2.15 0.043 -0.375
v -2.15 0.135 -0.283
usemtl Bark
s off
f 916 915 914 913 912 911 910 909
f 917 918 919 920 921 922 923 924
f 909 910 918 917
f 910 911 919 918
f 911 912 920 919
f 912 913 921 920
f 913 914 922 921
f 914 915 923 922
f 915 916 924 923
f 916 909 917 924
o Log.End
v -0.088 0.257 -0.302
v -0.088 0.338 -0.383
v -0.088 0.338 -0.497
v -0.088 0.257 -0.578
v -0.088 0.143 -0.578
v -0.088 0.062 -0.497
v -0.088 0.062 -0.383
v -0.088 0.143 -0.302
v -0.1 0.257 -0.302
v -0.1 0.338 -0.383
v -0.1 0.338 -0.497
v -0.1 0.257 -0.578
v -0.1 0.143 -0.578
v -0.1 0.062 -0.497
v -0.1 0.062 -0.383
v -0.1 0.143 -0.302
usemtl LogEnd
s off
f 932 931 930 929 928 927 926 925
f 933 934 935 936 937 938 939 940
f 925 926 934 933
f 926 927 935 934
f 927 928 936 935
f 928 929 937 936
f 929 930 938 937
f 930 931 939 938
f 931 932 940 939
f 932 925 933 940
o Log.End
v -2.15 0.257 -0.302
v -2.15 0.338 -0.383
v -2.15 0.338 -0.497
v -2.15 0.257 -0.578
v -2.15 0.143 -0.578
v -2.15 0.062 -0.497
v -2.15 0.062 -0.383
v -2.15 0.143 -0.302
v -2.162 0.257 -0.302
v -2.162 0.338 -0.383
v -2.162 0.338 -0.497
v -2.162 0.257 -0.578
v -2.162 0.143 -0.578
v -2.162 0.062 -0.497
v -2.162 0.062 -0.383
v -2.162 0.143 -0.302
usemtl LogEnd
s off
f 948 947 946 945 944 943 942 941
f 949 950 951 952 953 954 955 956
f 941 942 950 949
f 942 943 951 950
f 943 944 952 951
f 944 945 953 952
f 945 946 954 953
f 946 947 955 954
f 947 948 956 955
f 948 941 949 956
o Log
v -0.25 0.265 0.097
v -0.25 0.357 0.005
v -0.25 0.357 -0.125
v -0.25 0.265 -0.217
v -0.25 0.135 -0.217
v -0.25 0.043 -0.125
v -0.25 0.043 0.005
v -0.25 0.135 0.097
v -2 0.265 0.097
v -2 0.357 0.005
v -2 0.357 -0.125
v -2 0.265 -0.217
v -2 0.135 -0.217
v -2 0.043 -0.125
v -2 0.043 0.005
v -2 0.135 0.097
usemtl Bark
s off
f 964 963 962 961 960 959 958 957
f 965 966 967 968 969 970 971 972
f 957 958 966 965
f 958 959 967 966
f 959 960 968 967
f 960 961 969 968
f 961 962 970 969
f 962 963 971 970
f 963 964 972 971
f 964 957 965 972
o Log.End
v -0.238 0.257 0.078
v -0.238 0.338 -0.003
v -0.238 0.338 -0.117
v -0.238 0.257 -0.198
v -0.238 0.143 -0.198
v -0.238 0.062 -0.117
v -0.238 0.062 -0.003
v -0.238 0.143 0.078
v -0.25 0.257 0.078
v -0.25 0.338 -0.003
v -0.25 0.338 -0.117
v -0.25 0.257 -0.198
v -0.25 0.143 -0.198
v -0.25 0.062 -0.117
v -0.25 0.062 -0.003
v -0.25 0.143 0.078
usemtl LogEnd
s off
f 980 979 978 977 976 975 974 973
f 981 982 983 984 985 986 987 988
f 973 974 982 981
f 974 975 983 982
f 975 976 984 983
f 976 977 985 984
f 977 978 986 985
f 978 979 987 986
f 979 980 988 987
f 980 973 981 988
o Log.End
v -2 0.257 0.078
v -2 0.338 -0.003
v -2 0.338 -0.117
v -2 0.257 -0.198
v -2 0.143 -0.198
v -2 0.062 -0.117
v -2 0.062 -0.003
v -2 0.143 0.078
v -2.012 0.257 0.078
v -2.012 0.338 -0.003
v -2.012 0.338 -0.117
v -2.012 0.257 -0.198
v -2.012 0.143 -0.198
v -2.012 0.062 -0.117
v -2.012 0.062 -0.003
v -2.012 0.143 0.078
usemtl LogEnd
s off
f 996 995 994 993 992 991 990 989
f 997 998 999 1000 1001 1002 1003 1004
f 989 990 998 997
f 990 991 999 998
f 991 992 1000 999
f 992 993 1001 1000
f 993 994 1002 1001
f 994 995 1003 1002
f 995 996 1004 1003
f 996 989 997 1004
o Log
v -0.15 0.265 0.477
v -0.15 0.357 0.385
v -0.15 0.357 0.255
v -0.15 0.265 0.163
v -0.15 0.135 0.163
v -0.15 0.043 0.255
v -0.15 0.043 0.385
v -0.15 0.135 0.477
v -2.1 0.265 0.477
v -2.1 0.357 0.385
v -2.1 0.357 0.255
v -2.1 0.265 0.163
v -2.1 0.135 0.163
v -2.1 0.043 0.255
v -2.1 0.043 0.385
v -2.1 0.135 0.477
usemtl Bark
s off
f 1012 1011 1010 1009 1008 1007 1006 1005
f 1013 1014 1015 1016 1017 1018 1019 1020
f 1005 1006 1014 1013
f 1006 1007 1015 1014
f 1007 1008 1016 1015
f 1008 1009 1017 1016
f 1009 1010 1018 1017
f 1010 1011 1019 1018
f 1011 1012 1020 1019
f 1012 1005 1013 1020
o Log.End
v -0.138 0.257 0.458
v -0.138 0.338 0.377
v -0.138 0.338 0.263
v -0.138 0.257 0.182
v -0.138 0.143 0.182
v -0.138 0.062 0.263
v -0.138 0.062 0.377
v -0.138 0.143 0.458
v -0.15 0.257 0.458
v -0.15 0.338 0.377
v -0.15 0.338 0.263
v -0.15 0.257 0.182
v -0.15 0.143 0.182
v -0.15 0.062 0.263
v -0.15 0.062 0.377
v -0.15 0.143 0.458
usemtl LogEnd
s off
f 1028 1027 1026 1025 1024 1023 1022 1021
f 1029 1030 1031 1032 1033 1034 1035 1036
f 1021 1022 1030 1029
f 1022 1023 1031 1030
f 1023 1024 1032 1031
f 1024 1025 1033 1032
f 1025 1026 1034 1033
f 1026 1027 1035 1034
f 1027 1028 1036 1035
f 1028 1021 1029 1036
o Log.End
v -2.1 0.257 0.458
v -2.1 0.338 0.377
v -2.1 0.338 0.263
v -2.1 0.257 0.182
v -2.1 0.143 0.182
v -2.1 0.062 0.263
v -2.1 0.062 0.377
v -2.1 0.143 0.458
v -2.112 0.257 0.458
v -2.112 0.338 0.377
v -2.112 0.338 0.263
v -2.112 0.257 0.182
v -2.112 0.143 0.182
v -2.112 0.062 0.263
v -2.112 0.062 0.377
v -2.112 0.143 0.458
usemtl LogEnd
s off
f 1044 1043 1042 1041 1040 1039 1038 1037
f 1045 1046 1047 1048 1049 1050 1051 1052
f 1037 1038 1046 1045
f 1038 1039 1047 1046
f 1039 1040 1048 1047
f 1040 1041 1049 1048
f 1041 1042 1050 1049
f 1042 1043 1051 1050
f 1043 1044 1052 1051
f 1044 1037 1045 1052
o Log
v -0.15 0.595 -0.863
v -0.15 0.687 -0.955
v -0.15 0.687 -1.085
v -0.15 0.595 -1.177
v -0.15 0.465 -1.177
v -0.15 0.373 -1.085
v -0.15 0.373 -0.955
v -0.15 0.465 -0.863
v -2.1 0.595 -0.863
v -2.1 0.687 -0.955
v -2.1 0.687 -1.085
v -2.1 0.595 -1.177
v -2.1 0.465 -1.177
v -2.1 0.373 -1.085
v -2.1 0.373 -0.955
v -2.1 0.465 -0.863
usemtl Bark
s off
f 1060 1059 1058 1057 1056 1055 1054 1053
f 1061 1062 1063 1064 1065 1066 1067 1068
f 1053 1054 1062 1061
f 1054 1055 1063 1062
f 1055 1056 1064 1063
f 1056 1057 1065 1064
f 1057 1058 1066 1065
f 1058 1059 1067 1066
f 1059 1060 1068 1067
f 1060 1053 1061 1068
o Log.End
v -0.138 0.587 -0.882
v -0.138 0.668 -0.963
v -0.138 0.668 -1.077
v -0.138 0.587 -1.158
v -0.138 0.473 -1.158
v -0.138 0.392 -1.077
v -0.138 0.392 -0.963
v -0.138 0.473 -0.882
v -0.15 0.587 -0.882
v -0.15 0.668 -0.963
v -0.15 0.668 -1.077
v -0.15 0.587 -1.158
v -0.15 0.473 -1.158
v -0.15 0.392 -1.077
v -0.15 0.392 -0.963
v -0.15 0.473 -0.882
usemtl LogEnd
s off
f 1076 1075 1074 1073 1072 1071 1070 1069
f 1077 1078 1079 1080 1081 1082 1083 1084
f 1069 1070 1078 1077
f 1070 1071 1079 1078
f 1071 1072 1080 1079
f 1072 1073 1081 1080
f 1073 1074 1082 1081
f 1074 1075 1083 1082
f 1075 1076 1084 1083
f 1076 1069 1077 1084
o Log.End
v -2.1 0.587 -0.882
v -2.1 0.668 -0.963
v -2.1 0.668 -1.077
v -2.1 0.587 -1.158
v -2.1 0.473 -1.158
v -2.1 0.392 -1.077
v -2.1 0.392 -0.963
v -2.1 0.473 -0.882
v -2.112 0.587 -0.882
v -2.112 0.668 -0.963
v -2.112 0.668 -1.077
v -2.112 0.587 -1.158
v -2.112 0.473 -1.158
v -2.112 0.392 -1.077
v -2.112 0.392 -0.963
v -2.112 0.473 -0.882
usemtl LogEnd
s off
f 1092 1091 1090 1089 1088 1087 1086 1085
f 1093 1094 1095 1096 1097 1098 1099 1100
f 1085 1086 1094 1093
f 1086 1087 1095 1094
f 1087 1088 1096 1095
f 1088 1089 1097 1096
f 1089 1090 1098 1097
f 1090 1091 1099 1098
f 1091 1092 1100 1099
f 1092 1085 1093 1100
o Log
v -0.05 0.595 -0.483
v -0.05 0.687 -0.575
v -0.05 0.687 -0.705
v -0.05 0.595 -0.797
v -0.05 0.465 -0.797
v -0.05 0.373 -0.705
v -0.05 0.373 -0.575
v -0.05 0.465 -0.483
v -2.2 0.595 -0.483
v -2.2 0.687 -0.575
v -2.2 0.687 -0.705
v -2.2 0.595 -0.797
v -2.2 0.465 -0.797
v -2.2 0.373 -0.705
v -2.2 0.373 -0.575
v -2.2 0.465 -0.483
usemtl Bark
s off
f 1108 1107 1106 1105 1104 1103 1102 1101
f 1109 1110 1111 1112 1113 1114 1115 1116
f 1101 1102 1110 1109
f 1102 1103 1111 1110
f 1103 1104 1112 1111
f 1104 1105 1113 1112
f 1105 1106 1114 1113
f 1106 1107 1115 1114
f 1107 1108 1116 1115
f 1108 1101 1109 1116
o Log.End
v -0.038 0.587 -0.502
v -0.038 0.668 -0.583
v -0.038 0.668 -0.697
v -0.038 0.587 -0.778
v -0.038 0.473 -0.778
v -0.038 0.392 -0.697
v -0.038 0.392 -0.583
v -0.038 0.473 -0.502
v -0.05 0.587 -0.502
v -0.05 0.668 -0.583
v -0.05 0.668 -0.697
v -0.05 0.587 -0.778
v -0.05 0.473 -0.778
v -0.05 0.392 -0.697
v -0.05 0.392 -0.583
v -0.05 0.473 -0.502
usemtl LogEnd
s off
f 1124 1123 1122 1121 1120 1119 1118 1117
f 1125 1126 1127 1128 1129 1130 1131 1132
f 1117 1118 1126 1125
f 1118 1119 1127 1126
f 1119 1120 1128 1127
f 1120 1121 1129 1128
f 1121 1122 1130 1129
f 1122 1123 1131 1130
f 1123 1124 1132 1131
f 1124 1117 1125 1132
o Log.End
v -2.2 0.587 -0.502
v -2.2 0.668 -0.583
v -2.2 0.668 -0.697
v -2.2 0.587 -0.778
v -2.2 0.473 -0.778
v -2.2 0.392 -0.697
v -2.2 0.392 -0.583
v -2.2 0.473 -0.502
v -2.212 0.587 -0.502
v -2.212 0.668 -0.583
v -2.212 0.668 -0.697
v -2.212 0.587 -0.778
v -2.212 0.473 -0.778
v -2.212 0.392 -0.697
v -2.212 0.392 -0.583
v -2.212 0.473 -0.502
usemtl LogEnd
s off
f 1140 1139 1138 1137 1136 1135 1134 1133
f 1141 1142 1143 1144 1145 1146 1147 1148
f 1133 1134 1142 1141
f 1134 1135 1143 1142
f 1135 1136 1144 1143
f 1136 1137 1145 1144
f 1137 1138 1146 1145
f 1138 1139 1147 1146
f 1139 1140 1148 1147
f 1140 1133 1141 1148
o Log
v -0.2 0.595 -0.103
v -0.2 0.687 -0.195
v -0.2 0.687 -0.325
v -0.2 0.595 -0.417
v -0.2 0.465 -0.417
v -0.2 0.373 -0.325
v -0.2 0.373 -0.195
v -0.2 0.465 -0.103
v -2.05 0.595 -0.103
v -2.05 0.687 -0.195
v -2.05 0.687 -0.325
v -2.05 0.595 -0.417
v -2.05 0.465 -0.417
v -2.05 0.373 -0.325
v -2.05 0.373 -0.195
v -2.05 0.465 -0.103
usemtl Bark
s off
f 1156 1155 1154 1153 1152 1151 1150 1149
f 1157 1158 1159 1160 1161 1162 1163 1164
f 1149 1150 1158 1157
f 1150 1151 1159 1158
f 1151 1152 1160 1159
f 1152 1153 1161 1160
f 1153 1154 1162 1161
f 1154 1155 1163 1162
f 1155 1156 1164 1163
f 1156 1149 1157 1164
o Log.End
v -0.188 0.587 -0.122
v -0.188 0.668 -0.203
v -0.188 0.668 -0.317
v -0.188 0.587 -0.398
v -0.188 0.473 -0.398
v -0.188 0.392 -0.317
v -0.188 0.392 -0.203
v -0.188 0.473 -0.122
v -0.2 0.587 -0.122
v -0.2 0.668 -0.203
v -0.2 0.668 -0.317
v -0.2 0.587 -0.398
v -0.2 0.473 -0.398
v -0.2 0.392 -0.317
v -0.2 0.392 -0.203
v -0.2 0.473 -0.122
usemtl LogEnd
s off
f 1172 1171 1170 1169 1168 1167 1166 1165
f 1173 1174 1175 1176 1177 1178 1179 1180
f 1165 1166 1174 1173
f 1166 1167 1175 1174
f 1167 1168 1176 1175
f 1168 1169 1177 1176
f 1169 1170 1178 1177
f 1170 1171 1179 1178
f 1171 1172 1180 1179
f 1172 1165 1173 1180
o Log.End
v -2.05 0.587 -0.122
v -2.05 0.668 -0.203
v -2.05 0.668 -0.317
v -2.05 0.587 -0.398
v -2.05 0.473 -0.398
v -2.05 0.392 -0.317
v -2.05 0.392 -0.203
v -2.05 0.473 -0.122
v -2.062 0.587 -0.122
v -2.062 0.668 -0.203
v -2.062 0.668 -0.317
v -2.062 0.587 -0.398
v -2.062 0.473 -0.398
v -2.062 0.392 -0.317
v -2.062 0.392 -0.203
v -2.062 0.473 -0.122
usemtl LogEnd
s off
f 1188 1187 1186 1185 1184 1183 1182 1181
f 1189 1190 1191 1192 1193 1194 1195 1196
f 1181 1182 1190 1189
f 1182 1183 1191 1190
f 1183 1184 1192 1191
f 1184 1185 1193 1192
f 1185 1186 1194 1193
f 1186 1187 1195 1194
f 1187 1188 1196 1195
f 1188 1181 1189 1196
o Log
v -0.1 0.595 0.277
v -0.1 0.687 0.185
v -0.1 0.687 0.055
v -0.1 0.595 -0.037
v -0.1 0.465 -0.037
v -0.1 0.373 0.055
v -0.1 0.373 0.185
v -0.1 0.465 0.277
v -2.15 0.595 0.277
v -2.15 0.687 0.185
v -2.15 0.687 0.055
v -2.15 0.595 -0.037
v -2.15 0.465 -0.037
v -2.15 0.373 0.055
v -2.15 0.373 0.185
v -2.15 0.465 0.277
usemtl Bark
s off
f 1204 1203 1202 1201 1200 1199 1198 1197
f 1205 1206 1207 1208 1209 1210 1211 1212
f 1197 1198 1206 1205
f 1198 1199 1207 1206
f 1199 1200 1208 1207
f 1200 1201 1209 1208
f 1201 1202 1210 1209
f 1202 1203 1211 1210
f 1203 1204 1212 1211
f 1204 1197 1205 1212
o Log.End
v -0.088 0.587 0.258
v -0.088 0.668 0.177
v -0.088 0.668 0.063
v -0.088 0.587 -0.018
v -0.088 0.473 -0.018
v -0.088 0.392 0.063
v -0.088 0.392 0.177
v -0.088 0.473 0.258
v -0.1 0.587 0.258
v -0.1 0.668 0.177
v -0.1 0.668 0.063
v -0.1 0.587 -0.018
v -0.1 0.473 -0.018
v -0.1 0.392 0.063
v -0.1 0.392 0.177
v -0.1 0.473 0.258
usemtl LogEnd
s off
f 1220 1219 1218 1217 1216 1215 1214 1213
f 1221 1222 1223 1224 1225 1226 1227 1228
f 1213 1214 1222 1221
f 1214 1215 1223 1222
f 1215 1216 1224 1223
f 1216 1217 1225 1224
f 1217 1218 1226 1225
f 1218 1219 1227 1226
f 1219 1220 1228 1227
f 1220 1213 1221 1228
o Log.End
v -2.15 0.587 0.258
v -2.15 0.668 0.177
v -2.15 0.668 0.063
v -2.15 0.587 -0.018
v -2.15 0.473 -0.018
v -2.15 0.392 0.063
v -2.15 0.392 0.177
v -2.15 0.473 0.258
v -2.162 0.587 0.258
v -2.162 0.668 0.177
v -2.162 0.668 0.063
v -2.162 0.587 -0.018
v -2.162 0.473 -0.018
v -2.162 0.392 0.063
v -2.162 0.392 0.177
v -2.162 0.473 0.258
usemtl LogEnd
s off
f 1236 1235 1234 1233 1232 1231 1230 1229
f 1237 1238 1239 1240 1241 1242 1243 1244
f 1229 1230 1238 1237
f 1230 1231 1239 1238
f 1231 1232 1240 1239
f 1232 1233 1241 1240
f 1233 1234 1242 1241
f 1234 1235 1243 1242
f 1235 1236 1244 1243
f 1236 1229 1237 1244
o Log
v -0.25 0.595 0.657
v -0.25 0.687 0.565
v -0.25 0.687 0.435
v -0.25 0.595 0.343
v -0.25 0.465 0.343
v -0.25 0.373 0.435
v -0.25 0.373 0.565
v -0.25 0.465 0.657
v -2 0.595 0.657
v -2 0.687 0.565
v -2 0.687 0.435
v -2 0.595 0.343
v -2 0.465 0.343
v -2 0.373 0.435
v -2 0.373 0.565
v -2 0.465 0.657
usemtl Bark
s off
f 1252 1251 1250 1249 1248 1247 1246 1245
f 1253 1254 1255 1256 1257 1258 1259 1260
f 1245 1246 1254 1253
f 1246 1247 1255 1254
f 1247 1248 1256 1255
f 1248 1249 1257 1256
f 1249 1250 1258 1257
f 1250 1251 1259 1258
f 1251 1252 1260 1259
f 1252 1245 1253 1260
o Log.End
v -0.238 0.587 0.638
v -0.238 0.668 0.557
v -0.238 0.668 0.443
v -0.238 0.587 0.362
v -0.238 0.473 0.362
v -0.238 0.392 0.443
v -0.238 0.392 0.557
v -0.238 0.473 0.638
v -0.25 0.587 0.638
v -0.25 0.668 0.557
v -0.25 0.668 0.443
v -0.25 0.587 0.362
v -0.25 0.473 0.362
v -0.25 0.392 0.443
v -0.25 0.392 0.557
v -0.25 0.473 0.638
usemtl LogEnd
s off
f 1268 1267 1266 1265 1264 1263 1262 1261
f 1269 1270 1271 1272 1273 1274 1275 1276
f 1261 1262 1270 1269
f 1262 1263 1271 1270
f 1263 1264 1272 1271
f 1264 1265 1273 1272
f 1265 1266 1274 1273
f 1266 1267 1275 1274
f 1267 1268 1276 1275
f 1268 1261 1269 1276
o Log.End
v -2 0.587 0.638
v -2 0.668 0.557
v -2 0.668 0.443
v -2 0.587 0.362
v -2 0.473 0.362
v -2 0.392 0.443
v -2 0.392 0.557
v -2 0.473 0.638
v -2.012 0.587 0.638
v -2.012 0.668 0.557
v -2.012 0.668 0.443
v -2.012 0.587 0.362
v -2.012 0.473 0.362
v -2.012 0.392 0.443
v -2.012 0.392 0.557
v -2.012 0.473 0.638
usemtl LogEnd
s off
f 1284 1283 1282 1281 1280 1279 1278 1277
f 1285 1286 1287 1288 1289 1290 1291 1292
f 1277 1278 1286 1285
f 1278 1279 1287 1286
f 1279 1280 1288 1287
f 1280 1281 1289 1288
f 1281 1282 1290 1289
f 1282 1283 1291 1290
f 1283 1284 1292 1291
f 1284 1277 1285 1292
o Log
v -0.25 0.925 -0.683
v -0.25 1.017 -0.775
v -0.25 1.017 -0.905
v -0.25 0.925 -0.997
v -0.25 0.795 -0.997
v -0.25 0.703 -0.905
v -0.25 0.703 -0.775
v -0.25 0.795 -0.683
v -2 0.925 -0.683
v -2 1.017 -0.775
v -2 1.017 -0.905
v -2 0.925 -0.997
v -2 0.795 -0.997
v -2 0.703 -0.905
v -2 0.703 -0.775
v -2 0.795 -0.683
usemtl Bark
s off
f 1300 1299 1298 1297 1296 1295 1294 1293
f 1301 1302 1303 1304 1305 1306 1307 1308
f 1293 1294 1302 1301
f 1294 1295 1303 1302
f 1295 1296 1304 1303
f 1296 1297 1305 1304
f 1297 1298 1306 1305
f 1298 1299 1307 1306
f 1299 1300 1308 1307
f 1300 1293 1301 1308
o Log.End
v -0.238 0.917 -0.702
v -0.238 0.998 -0.783
v -0.238 0.998 -0.897
v -0.238 0.917 -0.978
v -0.238 0.803 -0.978
v -0.238 0.722 -0.897
v -0.238 0.722 -0.783
v -0.238 0.803 -0.702
v -0.25 0.917 -0.702
v -0.25 0.998 -0.783
v -0.25 0.998 -0.897
v -0.25 0.917 -0.978
v -0.25 0.803 -0.978
v -0.25 0.722 -0.897
v -0.25 0.722 -0.783
v -0.25 0.803 -0.702
usemtl LogEnd
s off
f 1316 1315 1314 1313 1312 1311 1310 1309
f 1317 1318 1319 1320 1321 1322 1323 1324
f 1309 1310 1318 1317
f 1310 1311 1319 1318
f 1311 1312 1320 1319
f 1312 1313 1321 1320
f 1313 1314 1322 1321
f 1314 1315 1323 1322
f 1315 1316 1324 1323
f 1316 1309 1317 1324
o Log.End
v -2 0.917 -0.702
v -2 0.998 -0.783
v -2 0.998 -0.897
v -2 0.917 -0.978
v -2 0.803 -0.978
v -2 0.722 -0.897
v -2 0.722 -0.783
v -2 0.803 -0.702
v -2.012 0.917 -0.702
v -2.012 0.998 -0.783
v -2.012 0.998 -0.897
v -2.012 0.917 -0.978
v -2.012 0.803 -0.978
v -2.012 0.722 -0.897
v -2.012 0.722 -0.783
v -2.012 0.803 -0.702
usemtl LogEnd
s off
f 1332 1331 1330 1329 1328 1327 1326 1325
f 1333 1334 1335 1336 1337 1338 1339 1340
f 1325 1326 1334 1333
f 1326 1327 1335 1334
f 1327 1328 1336 1335
f 1328 1329 1337 1336
f 1329 1330 1338 1337
f 1330 1331 1339 1338
f 1331 1332 1340 1339
f 1332 1325 1333 1340
o Log
v -0.15 0.925 -0.303
v -0.15 1.017 -0.395
v -0.15 1.017 -0.525
v -0.15 0.925 -0.617
v -0.15 0.795 -0.617
v -0.15 0.703 -0.525
v -0.15 0.703 -0.395
v -0.15 0.795 -0.303
v -2.1 0.925 -0.303
v -2.1 1.017 -0.395
v -2.1 1.017 -0.525
v -2.1 0.925 -0.617
v -2.1 0.795 -0.617
v -2.1 0.703 -0.525
v -2.1 0.703 -0.395
v -2.1 0.795 -0.303
usemtl Bark
s off
f 1348 1347 1346 1345 1344 1343 1342 1341
f 1349 1350 1351 1352 1353 1354 1355 1356
f 1341 1342 1350 1349
f 1342 1343 1351 1350
f 1343 1344 1352 1351
f 1344 1345 1353 1352
f 1345 1346 1354 1353
f 1346 1347 1355 1354
f 1347 1348 1356 1355
f 1348 1341 1349 1356
o Log.End
v -0.138 0.917 -0.322
v -0.138 0.998 -0.403
v -0.138 0.998 -0.517
v -0.138 0.917 -0.598
v -0.138 0.803 -0.598
v -0.138 0.722 -0.517
v -0.138 0.722 -0.403
v -0.138 0.803 -0.322
v -0.15 0.917 -0.322
v -0.15 0.998 -0.403
v -0.15 0.998 -0.517
v -0.15 0.917 -0.598
v -0.15 0.803 -0.598
v -0.15 0.722 -0.517
v -0.15 0.722 -0.403
v -0.15 0.803 -0.322
usemtl LogEnd
s off
f 1364 1363 1362 1361 1360 1359 1358 1357
f 1365 1366 1367 1368 1369 1370 1371 1372
f 1357 1358 1366 1365
f 1358 1359 1367 1366
f 1359 1360 1368 1367
f 1360 1361 1369 1368
f 1361 1362 1370 1369
f 1362 1363 1371 1370
f 1363 1364 1372 1371
f 1364 1357 1365 1372
o Log.End
v -2.1 0.917 -0.322
v -2.1 0.998 -0.403
v -2.1 0.998 -0.517
v -2.1 0.917 -0.598
v -2.1 0.803 -0.598
v -2.1 0.722 -0.517
v -2.1 0.722 -0.403
v -2.1 0.803 -0.322
v -2.112 0.917 -0.322
v -2.112 0.998 -0.403
v -2.112 0.998 -0.517
v -2.112 0.917 -0.598
v -2.112 0.803 -0.598
v -2.112 0.722 -0.517
v -2.112 0.722 -0.403
v -2.112 0.803 -0.322
usemtl LogEnd
s off
f 1380 1379 1378 1377 1376 1375 1374 1373
f 1381 1382 1383 1384 1385 1386 1387 1388
f 1373 1374 1382 1381
f 1374 1375 1383 1382
f 1375 1376 1384 1383
f 1376 1377 1385 1384
f 1377 1378 1386 1385
f 1378 1379 1387 1386
f 1379 1380 1388 1387
f 1380 1373 1381 1388
o Log
v -0.05 0.925 0.077
v -0.05 1.017 -0.015
v -0.05 1.017 -0.145
v -0.05 0.925 -0.237
v -0.05 0.795 -0.237
v -0.05 0.703 -0.145
v -0.05 0.703 -0.015
v -0.05 0.795 0.077
v -2.2 0.925 0.077
v -2.2 1.017 -0.015
v -2.2 1.017 -0.145
v -2.2 0.925 -0.237
v -2.2 0.795 -0.237
v -2.2 0.703 -0.145
v -2.2 0.703 -0.015
v -2.2 0.795 0.077
usemtl Bark
s off
f 1396 1395 1394 1393 1392 1391 1390 1389
f 1397 1398 1399 1400 1401 1402 1403 1404
f 1389 1390 1398 1397
f 1390 1391 1399 1398
f 1391 1392 1400 1399
f 1392 1393 1401 1400
f 1393 1394 1402 1401
f 1394 1395 1403 1402
f 1395 1396 1404 1403
f 1396 1389 1397 1404
o Log.End
v -0.038 0.917 0.058
v -0.038 0.998 -0.023
v -0.038 0.998 -0.137
v -0.038 0.917 -0.218
v -0.038 0.803 -0.218
v -0.038 0.722 -0.137
v -0.038 0.722 -0.023
v -0.038 0.803 0.058
v -0.05 0.917 0.058
v -0.05 0.998 -0.023
v -0.05 0.998 -0.137
v -0.05 0.917 -0.218
v -0.05 0.803 -0.218
v -0.05 0.722 -0.137
v -0.05 0.722 -0.023
v -0.05 0.803 0.058
usemtl LogEnd
s off
f 1412 1411 1410 1409 1408 1407 1406 1405
f 1413 1414 1415 1416 1417 1418 1419 1420
f 1405 1406 1414 1413
f 1406 1407 1415 1414
f 1407 1408 1416 1415
f 1408 1409 1417 1416
f 1409 1410 1418 1417
f 1410 1411 1419 1418
f 1411 1412 1420 1419
f 1412 1405 1413 1420
o Log.End
v -2.2 0.917 0.058
v -2.2 0.998 -0.023
v -2.2 0.998 -0.137
v -2.2 0.917 -0.218
v -2.2 0.803 -0.218
v -2.2 0.722 -0.137
v -2.2 0.722 -0.023
v -2.2 0.803 0.058
v -2.212 0.917 0.058
v -2.212 0.998 -0.023
v -2.212 0.998 -0.137
v -2.212 0.917 -0.218
v -2.212 0.803 -0.218
v -2.212 0.722 -0.137
v -2.212 0.722 -0.023
v -2.212 0.803 0.058
usemtl LogEnd
s off
f 1428 1427 1426 1425 1424 1423 1422 1421
f 1429 1430 1431 1432 1433 1434 1435 1436
f 1421 1422 1430 1429
f 1422 1423 1431 1430
f 1423 1424 1432 1431
f 1424 1425 1433 1432
f 1425 1426 1434 1433
f 1426 1427 1435 1434
f 1427 1428 1436 1435
f 1428 1421 1429 1436
o Log
v -0.2 0.925 0.457
v -0.2 1.017 0.365
v -0.2 1.017 0.235
v -0.2 0.925 0.143
v -0.2 0.795 0.143
v -0.2 0.703 0.235
v -0.2 0.703 0.365
v -0.2 0.795 0.457
v -2.05 0.925 0.457
v -2.05 1.017 0.365
v -2.05 1.017 0.235
v -2.05 0.925 0.143
v -2.05 0.795 0.143
v -2.05 0.703 0.235
v -2.05 0.703 0.365
v -2.05 0.795 0.457
usemtl Bark
s off
f 1444 1443 1442 1441 1440 1439 1438 1437
f 1445 1446 1447 1448 1449 1450 1451 1452
f 1437 1438 1446 1445
f 1438 1439 1447 1446
f 1439 1440 1448 1447
f 1440 1441 1449 1448
f 1441 1442 1450 1449
f 1442 1443 1451 1450
f 1443 1444 1452 1451
f 1444 1437 1445 1452
o Log.End
v -0.188 0.917 0.438
v -0.188 0.998 0.357
v -0.188 0.998 0.243
v -0.188 0.917 0.162
v -0.188 0.803 0.162
v -0.188 0.722 0.243
v -0.188 0.722 0.357
v -0.188 0.803 0.438
v -0.2 0.917 0.438
v -0.2 0.998 0.357
v -0.2 0.998 0.243
v -0.2 0.917 0.162
v -0.2 0.803 0.162
v -0.2 0.722 0.243
v -0.2 0.722 0.357
v -0.2 0.803 0.438
usemtl LogEnd
s off
f 1460 1459 1458 1457 1456 1455 1454 1453
f 1461 1462 1463 1464 1465 1466 1467 1468
f 1453 1454 1462 1461
f 1454 1455 1463 1462
f 1455 1456 1464 1463
f 1456 1457 1465 1464
f 1457 1458 1466 1465
f 1458 1459 1467 1466
f 1459 1460 1468 1467
f 1460 1453 1461 1468
o Log.End
v -2.05 0.917 0.438
v -2.05 0.998 0.357
v -2.05 0.998 0.243
v -2.05 0.917 0.162
v -2.05 0.803 0.162
v -2.05 0.722 0.243
v -2.05 0.722 0.357
v -2.05 0.803 0.438
v -2.062 0.917 0.438
v -2.062 0.998 0.357
v -2.062 0.998 0.243
v -2.062 0.917 0.162
v -2.062 0.803 0.162
v -2.062 0.722 0.243
v -2.062 0.722 0.357
v -2.062 0.803 0.438
usemtl LogEnd
s off
f 1476 1475 1474 1473 1472 1471 1470 1469
f 1477 1478 1479 1480 1481 1482 1483 1484
f 1469 1470 1478 1477
f 1470 1471 1479 1478
f 1471 1472 1480 1479
f 1472 1473 1481 1480
f 1473 1474 1482 1481
f 1474 1475 1483 1482
f 1475 1476 1484 1483
f 1476 1469 1477 1484
o Log
v -0.1 1.255 -0.503
v -0.1 1.347 -0.595
v -0.1 1.347 -0.725
v -0.1 1.255 -0.817
v -0.1 1.125 -0.817
v -0.1 1.033 -0.725
v -0.1 1.033 -0.595
v -0.1 1.125 -0.503
v -2.15 1.255 -0.503
v -2.15 1.347 -0.595
v -2.15 1.347 -0.725
v -2.15 1.255 -0.817
v -2.15 1.125 -0.817
v -2.15 1.033 -0.725
v -2.15 1.033 -0.595
v -2.15 1.125 -0.503
usemtl Bark
s off
f 1492 1491 1490 1489 1488 1487 1486 1485
f 1493 1494 1495 1496 1497 1498 1499 1500
f 1485 1486 1494 1493
f 1486 1487 1495 1494
f 1487 1488 1496 1495
f 1488 1489 1497 1496
f 1489 1490 1498 1497
f 1490 1491 1499 1498
f 1491 1492 1500 1499
f 1492 1485 1493 1500
o Log.End
v -0.088 1.247 -0.522
v -0.088 1.328 -0.603
v -0.088 1.328 -0.717
v -0.088 1.247 -0.798
v -0.088 1.133 -0.798
v -0.088 1.052 -0.717
v -0.088 1.052 -0.603
v -0.088 1.133 -0.522
v -0.1 1.247 -0.522
v -0.1 1.328 -0.603
v -0.1 1.328 -0.717
v -0.1 1.247 -0.798
v -0.1 1.133 -0.798
v -0.1 1.052 -0.717
v -0.1 1.052 -0.603
v -0.1 1.133 -0.522
usemtl LogEnd
s off
f 1508 1507 1506 1505 1504 1503 1502 1501
f 1509 1510 1511 1512 1513 1514 1515 1516
f 1501 1502 1510 1509
f 1502 1503 1511 1510
f 1503 1504 1512 1511
f 1504 1505 1513 1512
f 1505 1506 1514 1513
f 1506 1507 1515 1514
f 1507 1508 1516 1515
f 1508 1501 1509 1516
o Log.End
v -2.15 1.247 -0.522
v -2.15 1.328 -0.603
v -2.15 1.328 -0.717
v -2.15 1.247 -0.798
v -2.15 1.133 -0.798
v -2.15 1.052 -0.717
v -2.15 1.052 -0.603
v -2.15 1.133 -0.522
v -2.162 1.247 -0.522
v -2.162 1.328 -0.603
v -2.162 1.328 -0.717
v -2.162 1.247 -0.798
v -2.162 1.133 -0.798
v -2.162 1.052 -0.717
v -2.162 1.052 -0.603
v -2.162 1.133 -0.522
usemtl LogEnd
s off
f 1524 1523 1522 1521 1520 1519 1518 1517
f 1525 1526 1527 1528 1529 1530 1531 1532
f 1517 1518 1526 1525
f 1518 1519 1527 1526
f 1519 1520 1528 1527
f 1520 1521 1529 1528
f 1521 1522 1530 1529
f 1522 1523 1531 1530
f 1523 1524 1532 1531
f 1524 1517 1525 1532
o Log
v -0.25 1.255 -0.123
v -0.25 1.347 -0.215
v -0.25 1.347 -0.345
v -0.25 1.255 -0.437
v -0.25 1.125 -0.437
v -0.25 1.033 -0.345
v -0.25 1.033 -0.215
v -0.25 1.125 -0.123
v -2 1.255 -0.123
v -2 1.347 -0.215
v -2 1.347 -0.345
v -2 1.255 -0.437
v -2 1.125 -0.437
v -2 1.033 -0.345
v -2 1.033 -0.215
v -2 1.125 -0.123
usemtl Bark
s off
f 1540 1539 1538 1537 1536 1535 1534 1533
f 1541 1542 1543 1544 1545 1546 1547 1548
f 1533 1534 1542 1541
f 1534 1535 1543 1542
f 1535 1536 1544 1543
f 1536 1537 1545 1544
f 1537 1538 1546 1545
f 1538 1539 1547 1546
f 1539 1540 1548 1547
f 1540 1533 1541 1548
o Log.End
v -0.238 1.247 -0.142
v -0.238 1.328 -0.223
v -0.238 1.328 -0.337
v -0.238 1.247 -0.418
v -0.238 1.133 -0.418
v -0.238 1.052 -0.337
v -0.238 1.052 -0.223
v -0.238 1.133 -0.142
v -0.25 1.247 -0.142
v -0.25 1.328 -0.223
v -0.25 1.328 -0.337
v -0.25 1.247 -0.418
v -0.25 1.133 -0.418
v -0.25 1.052 -0.337
v -0.25 1.052 -0.223
v -0.25 1.133 -0.142
usemtl LogEnd
s off
f 1556 1555 1554 1553 1552 1551 1550 1549
f 1557 1558 1559 1560 1561 1562 1563 1564
f 1549 1550 1558 1557
f 1550 1551 1559 1558
f 1551 1552 1560 1559
f 1552 1553 1561 1560
f 1553 1554 1562 1561
f 1554 1555 1563 1562
f 1555 1556 1564 1563
f 1556 1549 1557 1564
o Log.End
v -2 1.247 -0.142
v -2 1.328 -0.223
v -2 1.328 -0.337
v -2 1.247 -0.418
v -2 1.133 -0.418
v -2 1.052 -0.337
v -2 1.052 -0.223
v -2 1.133 -0.142
v -2.012 1.247 -0.142
v -2.012 1.328 -0.223
v -2.012 1.328 -0.337
v -2.012 1.247 -0.418
v -2.012 1.133 -0.418
v -2.012 1.052 -0.337
v -2.012 1.052 -0.223
v -2.012 1.133 -0.142
usemtl LogEnd
s off
f 1572 1571 1570 1569 1568 1567 1566 1565
f 1573 1574 1575 1576 1577 1578 1579 1580
f 1565 1566 1574 1573
f 1566 1567 1575 1574
f 1567 1568 1576 1575
f 1568 1569 1577 1576
f 1569 1570 1578 1577
f 1570 1571 1579 1578
f 1571 1572 1580 1579
f 1572 1565 1573 1580
o Log
v -0.15 1.255 0.257
v -0.15 1.347 0.165
v -0.15 1.347 0.035
v -0.15 1.255 -0.057
v -0.15 1.125 -0.057
v -0.15 1.033 0.035
v -0.15 1.033 0.165
v -0.15 1.125 0.257
v -2.1 1.255 0.257
v -2.1 1.347 0.165
v -2.1 1.347 0.035
v -2.1 1.255 -0.057
v -2.1 1.125 -0.057
v -2.1 1.033 0.035
v -2.1 1.033 0.165
v -2.1 1.125 0.257
usemtl Bark
s off
f 1588 1587 1586 1585 1584 1583 1582 1581
f 1589 1590 1591 1592 1593 1594 1595 1596
f 1581 1582 1590 1589
f 1582 1583 1591 1590
f 1583 1584 1592 1591
f 1584 1585 1593 1592
f 1585 1586 1594 1593
f 1586 1587 1595 1594
f 1587 1588 1596 1595
f 1588 1581 1589 1596
o Log.End
v -0.138 1.247 0.238
v -0.138 1.328 0.157
v -0.138 1.328 0.043
v -0.138 1.247 -0.038
v -0.138 1.133 -0.038
v -0.138 1.052 0.043
v -0.138 1.052 0.157
v -0.138 1.133 0.238
v -0.15 1.247 0.238
v -0.15 1.328 0.157
v -0.15 1.328 0.043
v -0.15 1.247 -0.038
v -0.15 1.133 -0.038
v -0.15 1.052 0.043
v -0.15 1.052 0.157
v -0.15 1.133 0.238
usemtl LogEnd
s off
f 1604 1603 1602 1601 1600 1599 1598 1597
f 1605 1606 1607 1608 1609 1610 1611 1612
f 1597 1598 1606 1605
f 1598 1599 1607 1606
f 1599 1600 1608 1607
f 1600 1601 1609 1608
f 1601 1602 1610 1609
f 1602 1603 1611 1610
f 1603 1604 1612 1611
f 1604 1597 1605 1612
o Log.End
v -2.1 1.247 0.238
v -2.1 1.328 0.157
v -2.1 1.328 0.043
v -2.1 1.247 -0.038
v -2.1 1.133 -0.038
v -2.1 1.052 0.043
v -2.1 1.052 0.157
v -2.1 1.133 0.238
v -2.112 1.247 0.238
v -2.112 1.328 0.157
v -2.112 1.328 0.043
v -2.112 1.247 -0.038
v -2.112 1.133 -0.038
v -2.112 1.052 0.043
v -2.112 1.052 0.157
v -2.112 1.133 0.238
usemtl LogEnd
s off
f 1620 1619 1618 1617 1616 1615 1614 1613
f 1621 1622 1623 1624 1625 1626 1627 1628
f 1613 1614 1622 1621
f 1614 1615 1623 1622
f 1615 1616 1624 1623
f 1616 1617 1625 1624
f 1617 1618 1626 1625
f 1618 1619 1627 1626
f 1619 1620 1628 1627
f 1620 1613 1621 1628
o Pile.Stake
v -0.01 0 -1.35
v -0.01 0 -1.27
v -0.09 0 -1.27
v -0.09 0 -1.35
v -0.01 1.2 -1.35
v -0.01 1.2 -1.27
v -0.09 1.2 -1.27
v -0.09 1.2 -1.35
usemtl Wood
s off
f 1632 1631 1630 1629
f 1633 1634 1635 1636
f 1629 1630 1634 1633
f 1630 1631 1635 1634
f 1631 1632 1636 1635
f 1632 1629 1633 1636
o Pile.Stake
v -2.16 0 -1.35
v -2.16 0 -1.27
v -2.24 0 -1.27
v -2.24 0 -1.35
v -2.16 1.2 -1.35
v -2.16 1.2 -1.27
v -2.24 1.2 -1.27
v -2.24 1.2 -1.35
usemtl Wood
s off
f 1640 1639 1638 1637
f 1641 1642 1643 1644
f 1637 1638 1642 1641
f 1638 1639 1643 1642
f 1639 1640 1644 1643
f 1640 1637 1641 1644
o Planks
v 2.15 0.06 0.05
v 2.15 0.06 0.45
v 0.35 0.06 0.45
v 0.35 0.06 0.05
v 2.15 0.13 0.05
v 2.15 0.13 0.45
v 0.35 0.13 0.45
v 0.35 0.13 0.05
usemtl LogEnd
s off
f 1648 1647 1646 1645
f 1649 1650 1651 1652
f 1645 1646 1650 1649
f 1646 1647 1651 1650
f 1647 1648 1652 1651
f 1648 1645 1649 1652
o Planks
v 2.15 0.14 0.05
v 2.15 0.14 0.45
v 0.35 0.14 0.45
v 0.35 0.14 0.05
v 2.15 0.21 0.05
v 2.15 0.21 0.45
v 0.35 0.21 0.45
v 0.35 0.21 0.05
usemtl WoodLight
s off
f 1656 1655 1654 1653
f 1657 1658 1659 1660
f 1653 1654 1658 1657
f 1654 1655 1659 1658
f 1655 1656 1660 1659
f 1656 1653 1657 1660
o Planks
v 2.15 0.22 0.05
v 2.15 0.22 0.45
v 0.35 0.22 0.45
v 0.35 0.22 0.05
v 2.15 0.29 0.05
v 2.15 0.29 0.45
v 0.35 0.29 0.45
v 0.35 0.29 0.05
usemtl LogEnd
s off
f 1664 1663 1662 1661
f 1665 1666 1667 1668
f 1661 1662 1666 1665
f 1662 1663 1667 1666
f 1663 1664 1668 1667
f 1664 1661 1665 1668
o Planks
v 2.15 0.3 0.05
v 2.15 0.3 0.45
v 0.35 0.3 0.45
v 0.35 0.3 0.05
v 2.15 0.37 0.05
v 2.15 0.37 0.45
v 0.35 0.37 0.45
v 0.35 0.37 0.05
usemtl WoodLight
s off
f 1672 1671 1670 1669
f 1673 1674 1675 1676
f 1669 1670 1674 1673
f 1670 1671 1675 1674
f 1671 1672 1676 1675
f 1672 1669 1673 1676
o Planks
v 2.15 0.38 0.05
v 2.15 0.38 0.45
v 0.35 0.38 0.45
v 0.35 0.38 0.05
v 2.15 0.45 0.05
v 2.15 0.45 0.45
v 0.35 0.45 0.45
v 0.35 0.45 0.05
usemtl LogEnd
s off
f 1680 1679 1678 1677
f 1681 1682 1683 1684
f 1677 1678 1682 1681
f 1678 1679 1683 1682
f 1679 1680 1684 1683
f 1680 1677 1681 1684
o Planks.Spacer
v 1.9 0 0.05
v 1.9 0 0.45
v 1.8 0 0.45
v 1.8 0 0.05
v 1.9 0.06 0.05
v 1.9 0.06 0.45
v 1.8 0.06 0.45
v 1.8 0.06 0.05
usemtl Wood
s off
f 1688 1687 1686 1685
f 1689 1690 1691 1692
f 1685 1686 1690 1689
f 1686 1687 1691 1690
f 1687 1688 1692 1691
f 1688 1685 1689 1692
o Planks.Spacer
v 0.7 0 0.05
v 0.7 0 0.45
v 0.6 0 0.45
v 0.6 0 0.05
v 0.7 0.06 0.05
v 0.7 0.06 0.45
v 0.6 0.06 0.45
v 0.6 0.06 0.05
usemtl Wood
s off
f 1696 1695 1694 1693
f 1697 1698 1699 1700
f 1693 1694 1698 1697
f 1694 1695 1699 1698
f 1695 1696 1700 1699
f 1696 1693 1697 1700
o Tool.Handle
v -0.05 1 0.99
v -0.05 1 1.03
v -0.09 1 1.03
v -0.09 1 0.99
v -0.05 1.8 0.99
v -0.05 1.8 1.03
v -0.09 1.8 1.03
v -0.09 1.8 0.99
usemtl WoodLight
s off
f 1704 1703 1702 1701
f 1705 1706 1707 1708
f 1701 1702 1706 1705
f 1702 1703 1707 1706
f 1703 1704 1708 1707
f 1704 1701 1705 1708
o Tool.Head
v -0.04 1 0.98
v -0.04 1 1.03
v -0.19 1 1.03
v -0.19 1 0.98
v -0.04 1.13 0.98
v -0.04 1.13 1.03
v -0.1 1.13 1.03
v -0.1 1.13 0.98
usemtl Iron
s off
f 1712 1711 1710 1709
f 1713 1714 1715 1716
f 1709 1710 1714 1713
f 1710 1711 1715 1714
f 1711 1712 1716 1715
f 1712 1709 1713 1716
o Tool.Handle
v -0.1 1.25 0.99
v -0.1 1.25 1.03
v -0.14 1.25 1.03
v -0.14 1.25 0.99
v -0.1 2.05 0.99
v -0.1 2.05 1.03
v -0.14 2.05 1.03
v -0.14 2.05 0.99
usemtl WoodLight
s off
f 1720 1719 1718 1717
f 1721 1722 1723 1724
f 1717 1718 1722 1721
f 1718 1719 1723 1722
f 1719 1720 1724 1723
f 1720 1717 1721 1724
o Tool.Head
v -0.09 1.25 0.98
v -0.09 1.25 1.03
v -0.24 1.25 1.03
v -0.24 1.25 0.98
v -0.09 1.38 0.98
v -0.09 1.38 1.03
v -0.15 1.38 1.03
v -0.15 1.38 0.98
usemtl Iron
s off
f 1728 1727 1726 1725
f 1729 1730 1731 1732
f 1725 1726 1730 1729
f 1726 1727 1731 1730
f 1727 1728 1732 1731
f 1728 1725 1729 1732
o Saw.Blade
v 0.95 1.6 1.01
v 0.95 1.6 1.03
v 0.2 1.6 1.03
v 0.2 1.6 1.01
v 0.95 1.7 1.01
v 0.95 1.7 1.03
v 0.35 1.7 1.03
v 0.35 1.7 1.01
usemtl Iron
s off
f 1736 1735 1734 1733
f 1737 1738 1739 1740
f 1733 1734 1738 1737
f 1734 1735 1739 1738
f 1735 1736 1740 1739
f 1736 1733 1737 1740
o Saw.Handle
v 0.2 1.6 1
v 0.2 1.6 1.04
v 0.08 1.6 1.04
v 0.08 1.6 1
v 0.2 1.78 1
v 0.2 1.78 1.04
v 0.08 1.78 1.04
v 0.08 1.78 1
usemtl WoodLight
s off
f 1744 1743 1742 1741
f 1745 1746 1747 1748
f 1741 1742 1746 1745
f 1742 1743 1747 1746
f 1743 1744 1748 1747
f 1744 1741 1745 1748
o Block
v -1.535 0 1.943
v -1.426 0 2.093
v -1.25 0 2.15
v -1.074 0 2.093
v -0.965 0 1.943
v -0.965 0 1.757
v -1.074 0 1.607
v -1.25 0 1.55
v -1.426 0 1.607
v -1.535 0 1.757
v -1.535 0.5 1.943
v -1.426 0.5 2.093
v -1.25 0.5 2.15
v -1.074 0.5 2.093
v -0.965 0.5 1.943
v -0.965 0.5 1.757
v -1.074 0.5 1.607
v -1.25 0.5 1.55
v -1.426 0.5 1.607
v -1.535 0.5 1.757
usemtl Bark
s off
f 1758 1757 1756 1755 1754 1753 1752 1751 1750 1749
f 1759 1760 1761 1762 1763 1764 1765 1766 1767 1768
f 1749 1750 1760 1759
f 1750 1751 1761 1760
f 1751 1752 1762 1761
f 1752 1753 1763 1762
f 1753 1754 1764 1763
f 1754 1755 1765 1764
f 1755 1756 1766 1765
f 1756 1757 1767 1766
f 1757 1758 1768 1767
f 1758 1749 1759 1768
o Block.Top
v -1.516 0.5 1.937
v -1.415 0.5 2.077
v -1.25 0.5 2.13
v -1.085 0.5 2.077
v -0.984 0.5 1.937
v -0.984 0.5 1.763
v -1.085 0.5 1.623
v -1.25 0.5 1.57
v -1.415 0.5 1.623
v -1.516 0.5 1.763
v -1.516 0.52 1.937
v -1.415 0.52 2.077
v -1.25 0.52 2.13
v -1.085 0.52 2.077
v -0.984 0.52 1.937
v -0.984 0.52 1.763
v -1.085 0.52 1.623
v -1.25 0.52 1.57
v -1.415 0.52 1.623
v -1.516 0.52 1.763
usemtl LogEnd
s off
f 1778 1777 1776 1775 1774 1773 1772 1771 1770 1769
f 1779 1780 1781 1782 1783 1784 1785 1786 1787 1788
f 1769 1770 1780 1779
f 1770 1771 1781 1780
f 1771 1772 1782 1781
f 1772 1773 1783 1782
f 1773 1774 1784 1783
f 1774 1775 1785 1784
f 1775 1776 1786 1785
f 1776 1777 1787 1786
f 1777 1778 1788 1787
f 1778 1769 1779 1788
o Axe.Handle
v -1.169 0.517 1.805
v -1.205 0.517 1.769
v -1.231 0.483 1.795
v -1.195 0.483 1.831
v -1.519 1.067 2.155
v -1.555 1.067 2.119
v -1.581 1.033 2.145
v -1.545 1.033 2.181
usemtl WoodLight
s off
f 1792 1791 1790 1789
f 1793 1794 1795 1796
f 1789 1790 1794 1793
f 1790 1791 1795 1794
f 1791 1792 1796 1795
f 1792 1789 1793 1796
o Axe.Head
v -1.1 0.47 1.75
v -1.1 0.47 1.83
v -1.3 0.47 1.83
v -1.3 0.47 1.75
v -1.14 0.6 1.75
v -1.14 0.6 1.83
v -1.26 0.6 1.83
v -1.26 0.6 1.75
usemtl Iron
s off
f 1800 1799 1798 1797
f 1801 1802 1803 1804
f 1797 1798 1802 1801
f 1798 1799 1803 1802
f 1799 1800 1804 1803
f 1800 1797 1801 1804
o Firewood
v -1.83 0 1.6
v -1.71 0 1.661
v -1.71 0 1.539
v -1.83 0.14 1.6
v -1.71 0.14 1.661
v -1.71 0.14 1.539
usemtl Bark
s off
f 1807 1806 1805
f 1808 1809 1810
f 1805 1806 1809 1808
f 1806 1807 1810 1809
f 1807 1805 1808 1810
o Firewood
v -1.973 0 1.659
v -1.85 0 1.603
v -1.967 0 1.538
v -1.973 0.14 1.659
v -1.85 0.14 1.603
v -1.967 0.14 1.538
usemtl LogEnd
s off
f 1813 1812 1811
f 1814 1815 1816
f 1811 1812 1815 1814
f 1812 1813 1816 1815
f 1813 1811 1814 1816
o Firewood
v -2.077 0 1.664
v -2.064 0 1.543
v -2.19 0 1.593
v -2.077 0.14 1.664
v -2.064 0.14 1.543
v -2.19 0.14 1.593
usemtl Bark
s off
f 1819 1818 1817
f 1820 1821 1822
f 1817 1818 1821 1820
f 1818 1819 1822 1821
f 1819 1817 1820 1822
o Firewood
v -1.671 0 1.81
v -1.78 0 1.735
v -1.799 0 1.855
v -1.671 0.14 1.81
v -1.78 0.14 1.735
v -1.799 0.14 1.855
usemtl LogEnd
s off
f 1825 1824 1823
f 1826 1827 1828
f 1823 1824 1827 1826
f 1824 1825 1828 1827
f 1825 1823 1826 1828
o Firewood
v -1.878 0 1.747
v -2.009 0 1.787
v -1.904 0 1.866
v -1.878 0.14 1.747
v -2.009 0.14 1.787
v -1.904 0.14 1.866
usemtl Bark
s off
f 1831 1830 1829
f 1832 1833 1834
f 1829 1830 1833 1832
f 1830 1831 1834 1833
f 1831 1829 1832 1834
o Firewood
v -2.133 0 1.733
v -2.165 0 1.851
v -2.032 0 1.816
v -2.133 0.14 1.733
v -2.165 0.14 1.851
v -2.032 0.14 1.816
usemtl LogEnd
s off
f 1837 1836 1835
f 1838 1839 1840
f 1835 1836 1839 1838
f 1836 1837 1840 1839
f 1837 1835 1838 1840
o Firewood
v -1.827 0.14 1.98
v -1.731 0.14 2.068
v -1.692 0.14 1.952
v -1.827 0.28 1.98
v -1.731 0.28 2.068
v -1.692 0.28 1.952
usemtl Bark
s off
f 1843 1842 1841
f 1844 1845 1846
f 1841 1842 1845 1844
f 1842 1843 1846 1845
f 1843 1841 1844 1846
o Sawhorse.Leg
v 1.285 0.017 1.569
v 1.215 0.017 1.569
v 1.215 -0.017 1.631
v 1.285 -0.017 1.631
v 1.285 0.817 2.019
v 1.215 0.817 2.019
v 1.215 0.783 2.081
v 1.285 0.783 2.081
usemtl Wood
s off
f 1850 1849 1848 1847
f 1851 1852 1853 1854
f 1847 1848 1852 1851
f 1848 1849 1853 1852
f 1849 1850 1854 1853
f 1850 1847 1851 1854
o Sawhorse.Leg
v 1.215 0.017 2.131
v 1.285 0.017 2.131
v 1.285 -0.017 2.069
v 1.215 -0.017 2.069
v 1.215 0.817 1.681
v 1.285 0.817 1.681
v 1.285 0.783 1.619
v 1.215 0.783 1.619
usemtl Wood
s off
f 1858 1857 1856 1855
f 1859 1860 1861 1862
f 1855 1856 1860 1859
f 1856 1857 1861 1860
f 1857 1858 1862 1861
f 1858 1855 1859 1862
o Sawhorse.Leg
v 0.585 0.017 1.569
v 0.515 0.017 1.569
v 0.515 -0.017 1.631
v 0.585 -0.017 1.631
v 0.585 0.817 2.019
v 0.515 0.817 2.019
v 0.515 0.783 2.081
v 0.585 0.783 2.081
usemtl Wood
s off
f 1866 1865 1864 1863
f 1867 1868 1869 1870
f 1863 1864 1868 1867
f 1864 1865 1869 1868
f 1865 1866 1870 1869
f 1866 1863 1867 1870
o Sawhorse.Leg
v 0.515 0.017 2.131
v 0.585 0.017 2.131
v 0.585 -0.017 2.069
v 0.515 -0.017 2.069
v 0.515 0.817 1.681
v 0.585 0.817 1.681
v 0.585 0.783 1.619
v 0.515 0.783 1.619
usemtl Wood
s off
f 1874 1873 1872 1871
f 1875 1876 1877 1878
f 1871 1872 1876 1875
f 1872 1873 1877 1876
f 1873 1874 1878 1877
f 1874 1871 1875 1878
o Log
v 1.7 0.954 1.979
v 1.7 1.029 1.904
v 1.7 1.029 1.796
v 1.7 0.954 1.721
v 1.7 0.846 1.721
v 1.7 0.771 1.796
v 1.7 0.771 1.904
v 1.7 0.846 1.979
v 0.05 0.954 1.979
v 0.05 1.029 1.904
v 0.05 1.029 1.796
v 0.05 0.954 1.721
v 0.05 0.846 1.721
v 0.05 0.771 1.796
v 0.05 0.771 1.904
v 0.05 0.846 1.979
usemtl Bark
s off
f 1886 1885 1884 1883 1882 1881 1880 1879
f 1887 1888 1889 1890 1891 1892 1893 1894
f 1879 1880 1888 1887
f 1880 1881 1889 1888
f 1881 1882 1890 1889
f 1882 1883 1891 1890
f 1883 1884 1892 1891
f 1884 1885 1893 1892
f 1885 1886 1894 1893
f 1886 1879 1887 1894
o Log.End
v 1.712 0.947 1.964
v 1.712 1.014 1.897
v 1.712 1.014 1.803
v 1.712 0.947 1.736
v 1.712 0.853 1.736
v 1.712 0.786 1.803
v 1.712 0.786 1.897
v 1.712 0.853 1.964
v 1.7 0.947 1.964
v 1.7 1.014 1.897
v 1.7 1.014 1.803
v 1.7 0.947 1.736
v 1.7 0.853 1.736
v 1.7 0.786 1.803
v 1.7 0.786 1.897
v 1.7 0.853 1.964
usemtl LogEnd
s off
f 1902 1901 1900 1899 1898 1897 1896 1895
f 1903 1904 1905 1906 1907 1908 1909 1910
f 1895 1896 1904 1903
f 1896 1897 1905 1904
f 1897 1898 1906 1905
f 1898 1899 1907 1906
f 1899 1900 1908 1907
f 1900 1901 1909 1908
f 1901 1902 1910 1909
f 1902 1895 1903 1910
o Log.End
v 0.05 0.947 1.964
v 0.05 1.014 1.897
v 0.05 1.014 1.803
v 0.05 0.947 1.736
v 0.05 0.853 1.736
v 0.05 0.786 1.803
v 0.05 0.786 1.897
v 0.05 0.853 1.964
v 0.038 0.947 1.964
v 0.038 1.014 1.897
v 0.038 1.014 1.803
v 0.038 0.947 1.736
v 0.038 0.853 1.736
v 0.038 0.786 1.803
v 0.038 0.786 1.897
v 0.038 0.853 1.964
usemtl LogEnd
s off
f 1918 1917 1916 1915 1914 1913 1912 1911
f 1919 1920 1921 1922 1923 1924 1925 1926
f 1911 1912 1920 1919
f 1912 1913 1921 1920
f 1913 1914 1922 1921
f 1914 1915 1923 1922
f 1915 1916 1924 1923
f 1916 1917 1925 1924
f 1917 1918 1926 1925
f 1918 1911 1919 1926
o Lantern
v 0.07 1.83 1.1
v 0.07 1.83 1.24
v -0.07 1.83 1.24
v -0.07 1.83 1.1
v 0.07 1.85 1.1
v 0.07 1.85 1.24
v -0.07 1.85 1.24
v -0.07 1.85 1.1
usemtl Iron
s off
f 1930 1929 1928 1927
f 1931 1932 1933 1934
f 1927 1928 1932 1931
f 1928 1929 1933 1932
f 1929 1930 1934 1933
f 1930 1927 1931 1934
o Lantern.Flame
v 0.05 1.85 1.12
v 0.05 1.85 1.22
v -0.05 1.85 1.22
v -0.05 1.85 1.12
v 0.05 1.99 1.12
v 0.05 1.99 1.22
v -0.05 1.99 1.22
v -0.05 1.99 1.12
usemtl Flame
s off
f 1938 1937 1936 1935
f 1939 1940 1941 1942
f 1935 1936 1940 1939
f 1936 1937 1941 1940
f 1937 1938 1942 1941
f 1938 1935 1939 1942
o Lantern.Cap
v 0.08 1.99 1.09
v 0.08 1.99 1.25
v -0.08 1.99 1.25
v -0.08 1.99 1.09
v 0.02 2.05 1.15
v 0.02 2.05 1.19
v -0.02 2.05 1.19
v -0.02 2.05 1.15
usemtl Iron
s off
f 1946 1945 1944 1943
f 1947 1948 1949 1950
f 1943 1944 1948 1947
f 1944 1945 1949 1948
f 1945 1946 1950 1949
f 1946 1943 1947 1950
o Lantern.Chain
v 0.01 2.05 1.15
v 0.01 2.05 1.19
v -0.01 2.05 1.19
v -0.01 2.05 1.15
v 0.01 2.21 1.15
v 0.01 2.21 1.19
v -0.01 2.21 1.19
v -0.01 2.21 1.15
usemtl Iron
s off
f 1954 1953 1952 1951
f 1955 1956 1957 1958
f 1951 1952 1956 1955
f 1952 1953 1957 1956
f 1953 1954 1958 1957
f 1954 1951 1955 1958
o Ivy
v -2.412 0.1 1.08
v -2.37 0.1 1.122
v -2.37 0.1 1.178
v -2.412 0.1 1.22
v -2.468 0.1 1.22
v -2.51 0.1 1.178
v -2.51 0.1 1.122
v -2.468 0.1 1.08
v -2.412 0.198 1.08
v -2.37 0.198 1.122
v -2.37 0.198 1.178
v -2.412 0.198 1.22
v -2.468 0.198 1.22
v -2.51 0.198 1.178
v -2.51 0.198 1.122
v -2.468 0.198 1.08
usemtl IvyDark
s off
f 1966 1965 1964 1963 1962 1961 1960 1959
f 1967 1968 1969 1970 1971 1972 1973 1974
f 1959 1960 1968 1967
f 1960 1961 1969 1968
f 1961 1962 1970 1969
f 1962 1963 1971 1970
f 1963 1964 1972 1971
f 1964 1965 1973 1972
f 1965 1966 1974 1973
f 1966 1959 1967 1974
o Ivy
v -2.219 0.28 1.192
v -2.165 0.28 1.246
v -2.165 0.28 1.318
v -2.219 0.28 1.372
v -2.291 0.28 1.372
v -2.345 0.28 1.318
v -2.345 0.28 1.246
v -2.291 0.28 1.192
v -2.219 0.406 1.192
v -2.165 0.406 1.246
v -2.165 0.406 1.318
v -2.219 0.406 1.372
v -2.291 0.406 1.372
v -2.345 0.406 1.318
v -2.345 0.406 1.246
v -2.291 0.406 1.192
usemtl Ivy
s off
f 1982 1981 1980 1979 1978 1977 1976 1975
f 1983 1984 1985 1986 1987 1988 1989 1990
f 1975 1976 1984 1983
f 1976 1977 1985 1984
f 1977 1978 1986 1985
f 1978 1979 1987 1986
f 1979 1980 1988 1987
f 1980 1981 1989 1988
f 1981 1982 1990 1989
f 1982 1975 1983 1990
o Ivy
v -2.145 0.46 0.954
v -2.079 0.46 1.02
v -2.079 0.46 1.108
v -2.145 0.46 1.174
v -2.233 0.46 1.174
v -2.299 0.46 1.108
v -2.299 0.46 1.02
v -2.233 0.46 0.954
v -2.145 0.614 0.954
v -2.079 0.614 1.02
v -2.079 0.614 1.108
v -2.145 0.614 1.174
v -2.233 0.614 1.174
v -2.299 0.614 1.108
v -2.299 0.614 1.02
v -2.233 0.614 0.954
usemtl IvyDark
s off
f 1998 1997 1996 1995 1994 1993 1992 1991
f 1999 2000 2001 2002 2003 2004 2005 2006
f 1991 1992 2000 1999
f 1992 1993 2001 2000
f 1993 1994 2002 2001
f 1994 1995 2003 2002
f 1995 1996 2004 2003
f 1996 1997 2005 2004
f 1997 1998 2006 2005
f 1998 1991 1999 2006
o Ivy
v -2.389 0.64 1.003
v -2.347 0.64 1.045
v -2.347 0.64 1.101
v -2.389 0.64 1.143
v -2.445 0.64 1.143
v -2.487 0.64 1.101
v -2.487 0.64 1.045
v -2.445 0.64 1.003
v -2.389 0.738 1.003
v -2.347 0.738 1.045
v -2.347 0.738 1.101
v -2.389 0.738 1.143
v -2.445 0.738 1.143
v -2.487 0.738 1.101
v -2.487 0.738 1.045
v -2.445 0.738 1.003
usemtl Ivy
s off
f 2014 2013 2012 2011 2010 2009 2008 2007
f 2015 2016 2017 2018 2019 2020 2021 2022
f 2007 2008 2016 2015
f 2008 2009 2017 2016
f 2009 2010 2018 2017
f 2010 2011 2019 2018
f 2011 2012 2020 2019
f 2012 2013 2021 2020
f 2013 2014 2022 2021
f 2014 2007 2015 2022
o Ivy
v -2.299 0.82 1.196
v -2.245 0.82 1.25
v -2.245 0.82 1.322
v -2.299 0.82 1.376
v -2.371 0.82 1.376
v -2.425 0.82 1.322
v -2.425 0.82 1.25
v -2.371 0.82 1.196
v -2.299 0.946 1.196
v -2.245 0.946 1.25
v -2.245 0.946 1.322
v -2.299 0.946 1.376
v -2.371 0.946 1.376
v -2.425 0.946 1.322
v -2.425 0.946 1.25
v -2.371 0.946 1.196
usemtl IvyDark
s off
f 2030 2029 2028 2027 2026 2025 2024 2023
f 2031 2032 2033 2034 2035 2036 2037 2038
f 2023 2024 2032 2031
f 2024 2025 2033 2032
f 2025 2026 2034 2033
f 2026 2027 2035 2034
f 2027 2028 2036 2035
f 2028 2029 2037 2036
f 2029 2030 2038 2037
f 2030 2023 2031 2038
o Ivy
v -2.116 1 1.029
v -2.05 1 1.095
v -2.05 1 1.183
v -2.116 1 1.249
v -2.204 1 1.249
v -2.27 1 1.183
v -2.27 1 1.095
v -2.204 1 1.029
v -2.116 1.154 1.029
v -2.05 1.154 1.095
v -2.05 1.154 1.183
v -2.116 1.154 1.249
v -2.204 1.154 1.249
v -2.27 1.154 1.183
v -2.27 1.154 1.095
v -2.204 1.154 1.029
usemtl Ivy
s off
f 2046 2045 2044 2043 2042 2041 2040 2039
f 2047 2048 2049 2050 2051 2052 2053 2054
f 2039 2040 2048 2047
f 2040 2041 2049 2048
f 2041 2042 2050 2049
f 2042 2043 2051 2050
f 2043 2044 2052 2051
f 2044 2045 2053 2052
f 2045 2046 2054 2053
f 2046 2039 2047 2054
o Ivy
v -2.327 1.18 0.951
v -2.285 1.18 0.993
v -2.285 1.18 1.049
v -2.327 1.18 1.091
v -2.383 1.18 1.091
v -2.425 1.18 1.049
v -2.425 1.18 0.993
v -2.383 1.18 0.951
v -2.327 1.278 0.951
v -2.285 1.278 0.993
v -2.285 1.278 1.049
v -2.327 1.278 1.091
v -2.383 1.278 1.091
v -2.425 1.278 1.049
v -2.425 1.278 0.993
v -2.383 1.278 0.951
usemtl IvyDark
s off
f 2062 2061 2060 2059 2058 2057 2056 2055
f 2063 2064 2065 2066 2067 2068 2069 2070
f 2055 2056 2064 2063
f 2056 2057 2065 2064
f 2057 2058 2066 2065
f 2058 2059 2067 2066
f 2059 2060 2068 2067
f 2060 2061 2069 2068
f 2061 2062 2070 2069
f 2062 2055 2063 2070
o Ivy
v -2.368 1.36 1.154
v -2.314 1.36 1.208
v -2.314 1.36 1.28
v -2.368 1.36 1.334
v -2.44 1.36 1.334
v -2.494 1.36 1.28
v -2.494 1.36 1.208
v -2.44 1.36 1.154
v -2.368 1.486 1.154
v -2.314 1.486 1.208
v -2.314 1.486 1.28
v -2.368 1.486 1.334
v -2.44 1.486 1.334
v -2.494 1.486 1.28
v -2.494 1.486 1.208
v -2.44 1.486 1.154
usemtl Ivy
s off
f 2078 2077 2076 2075 2074 2073 2072 2071
f 2079 2080 2081 2082 2083 2084 2085 2086
f 2071 2072 2080 2079
f 2072 2073 2081 2080
f 2073 2074 2082 2081
f 2074 2075 2083 2082
f 2075 2076 2084 2083
f 2076 2077 2085 2084
f 2077 2078 2086 2085
f 2078 2071 2079 2086
o Ivy
v -2.134 1.54 1.108
v -2.068 1.54 1.174
v -2.068 1.54 1.262
v -2.134 1.54 1.328
v -2.222 1.54 1.328
v -2.288 1.54 1.262
v -2.288 1.54 1.174
v -2.222 1.54 1.108
v -2.134 1.694 1.108
v -2.068 1.694 1.174
v -2.068 1.694 1.262
v -2.134 1.694 1.328
v -2.222 1.694 1.328
v -2.288 1.694 1.262
v -2.288 1.694 1.174
v -2.222 1.694 1.108
usemtl IvyDark
s off
f 2094 2093 2092 2091 2090 2089 2088 2087
f 2095 2096 2097 2098 2099 2100 2101 2102
f 2087 2088 2096 2095
f 2088 2089 2097 2096
f 2089 2090 2098 2097
f 2090 2091 2099 2098
f 2091 2092 2100 2099
f 2092 2093 2101 2100
f 2093 2094 2102 2101
f 2094 2087 2095 2102
o Ivy
v -2.247 1.72 0.942
v -2.205 1.72 0.984
v -2.205 1.72 1.04
v -2.247 1.72 1.082
v -2.303 1.72 1.082
v -2.345 1.72 1.04
v -2.345 1.72 0.984
v -2.303 1.72 0.942
v -2.247 1.818 0.942
v -2.205 1.818 0.984
v -2.205 1.818 1.04
v -2.247 1.818 1.082
v -2.303 1.818 1.082
v -2.345 1.818 1.04
v -2.345 1.818 0.984
v -2.303 1.818 0.942
usemtl Ivy
s off
f 2110 2109 2108 2107 2106 2105 2104 2103
f 2111 2112 2113 2114 2115 2116 2117 2118
f 2103 2104 2112 2111
f 2104 2105 2113 2112
f 2105 2106 2114 2113
f 2106 2107 2115 2114
f 2107 2108 2116 2115
f 2108 2109 2117 2116
f 2109 2110 2118 2117
f 2110 2103 2111 2118
o Ivy
v -2.402 1.9 1.081
v -2.348 1.9 1.135
v -2.348 1.9 1.207
v -2.402 1.9 1.261
v -2.474 1.9 1.261
v -2.528 1.9 1.207
v -2.528 1.9 1.135
v -2.474 1.9 1.081
v -2.402 2.026 1.081
v -2.348 2.026 1.135
v -2.348 2.026 1.207
v -2.402 2.026 1.261
v -2.474 2.026 1.261
v -2.528 2.026 1.207
v -2.528 2.026 1.135
v -2.474 2.026 1.081
usemtl IvyDark
s off
f 2126 2125 2124 2123 2122 2121 2120 2119
f 2127 2128 2129 2130 2131 2132 2133 2134
f 2119 2120 2128 2127
f 2120 2121 2129 2128
f 2121 2122 2130 2129
f 2122 2123 2131 2130
f 2123 2124 2132 2131
f 2124 2125 2133 2132
f 2125 2126 2134 2133
f 2126 2119 2127 2134
o Ivy
v -2.191 2.08 1.164
v -2.125 2.08 1.23
v -2.125 2.08 1.318
v -2.191 2.08 1.384
v -2.279 2.08 1.384
v -2.345 2.08 1.318
v -2.345 2.08 1.23
v -2.279 2.08 1.164
v -2.191 2.234 1.164
v -2.125 2.234 1.23
v -2.125 2.234 1.318
v -2.191 2.234 1.384
v -2.279 2.234 1.384
v -2.345 2.234 1.318
v -2.345 2.234 1.23
v -2.279 2.234 1.164
usemtl Ivy
s off
f 2142 2141 2140 2139 2138 2137 2136 2135
f 2143 2144 2145 2146 2147 2148 2149 2150
f 2135 2136 2144 2143
f 2136 2137 2145 2144
f 2137 2138 2146 2145
f 2138 2139 2147 2146
f 2139 2140 2148 2147
f 2140 2141 2149 2148
f 2141 2142 2150 2149
f 2142 2135 2143 2150
o Entry
v -0.32 0 1.5
v -0.32 0 1.55
v -0.38 0 1.55
v -0.38 0 1.5
v -0.32 0.05 1.5
v -0.32 0.05 1.55
v -0.38 0.05 1.55
v -0.38 0.05 1.5
usemtl Soot
s off
f 2154 2153 2152 2151
f 2155 2156 2157 2158
f 2151 2152 2156 2155
f 2152 2153 2157 2156
f 2153 2154 2158 2157
f 2154 2151 2155 2158
