# lumber_camp_3.obj - Holzlager fuer procedurally-generated-map
# Einheiten: Meter (1 Tile = 5 m, Tueren 2.1 m, ein Dorfbewohner 1.75 m), Y oben,
# Vorderseite nach +Z - so wie Blender ein Modell exportiert, das in der
# Vorderansicht zum Betrachter schaut.
# Material Paint (Band und Wappen) bekommt die Gebaeudefarbe aus dem Spiel.
# Das Objekt Entry markiert den Eingang und wird nicht gezeichnet.
mtllib lumber_camp_3.mtl
o Ground
v -1.5 0 -1.9
v -2.5 0 -1.03
v -2.5 0 1.58
v -1.5 0 2.45
v 1.5 0 2.45
v 2.5 0 1.58
v 2.5 0 -1.03
v 1.5 0 -1.9
v -1.5 0.03 -1.9
v -2.5 0.03 -1.03
v -2.5 0.03 1.58
v -1.5 0.03 2.45
v 1.5 0.03 2.45
v 2.5 0.03 1.58
v 2.5 0.03 -1.03
v 1.5 0.03 -1.9
usemtl Dirt
s off
f 8 7 6 5 4 3 2 1
f 9 10 11 12 13 14 15 16
f 1 2 10 9
f 2 3 11 10
f 3 4 12 11
f 4 5 13 12
f 5 6 14 13
f 6 7 15 14
f 7 8 16 15
f 8 1 9 16
o Post.Foot
v -2.396 0 0.99
v -2.46 0 1.054
v -2.46 0 1.246
v -2.396 0 1.31
v -2.204 0 1.31
v -2.14 0 1.246
v -2.14 0 1.054
v -2.204 0 0.99
v -2.396 0.14 0.99
v -2.46 0.14 1.054
v -2.46 0.14 1.246
v -2.396 0.14 1.31
v -2.204 0.14 1.31
v -2.14 0.14 1.246
v -2.14 0.14 1.054
v -2.204 0.14 0.99
usemtl Stone
s off
f 24 23 22 21 20 19 18 17
f 25 26 27 28 29 30 31 32
f 17 18 26 25
f 18 19 27 26
f 19 20 28 27
f 20 21 29 28
f 21 22 30 29
f 22 23 31 30
f 23 24 32 31
f 24 17 25 32
o Post
v -2.41 0 1.04
v -2.41 0 1.26
v -2.19 0 1.26
v -2.19 0 1.04
v -2.41 2.45 1.04
v -2.41 2.45 1.26
v -2.19 2.45 1.26
v -2.19 2.45 1.04
usemtl Timber
s off
f 36 35 34 33
f 37 38 39 40
f 33 34 38 37
f 34 35 39 38
f 35 36 40 39
f 36 33 37 40
o Post.Foot
v -2.396 0 -1.71
v -2.46 0 -1.646
v -2.46 0 -1.454
v -2.396 0 -1.39
v -2.204 0 -1.39
v -2.14 0 -1.454
v -2.14 0 -1.646
v -2.204 0 -1.71
v -2.396 0.14 -1.71
v -2.46 0.14 -1.646
v -2.46 0.14 -1.454
v -2.396 0.14 -1.39
v -2.204 0.14 -1.39
v -2.14 0.14 -1.454
v -2.14 0.14 -1.646
v -2.204 0.14 -1.71
usemtl Stone
s off
f 48 47 46 45 44 43 42 41
f 49 50 51 52 53 54 55 56
f 41 42 50 49
f 42 43 51 50
f 43 44 52 51
f 44 45 53 52
f 45 46 54 53
f 46 47 55 54
f 47 48 56 55
f 48 41 49 56
o Post
v -2.41 0 -1.66
v -2.41 0 -1.44
v -2.19 0 -1.44
v -2.19 0 -1.66
v -2.41 2.45 -1.66
v -2.41 2.45 -1.44
v -2.19 2.45 -1.44
v -2.19 2.45 -1.66
usemtl Timber
s off
f 60 59 58 57
f 61 62 63 64
f 57 58 62 61
f 58 59 63 62
f 59 60 64 63
f 60 57 61 64
o Brace
v -2.26 1.778 1.178
v -2.34 1.778 1.178
v -2.34 1.722 1.122
v -2.26 1.722 1.122
v -2.26 2.328 0.628
v -2.34 2.328 0.628
v -2.34 2.272 0.572
v -2.26 2.272 0.572
usemtl Timber
s off
f 68 67 66 65
f 69 70 71 72
f 65 66 70 69
f 66 67 71 70
f 67 68 72 71
f 68 65 69 72
o Brace
v -2.34 1.778 -1.578
v -2.26 1.778 -1.578
v -2.26 1.722 -1.522
v -2.34 1.722 -1.522
v -2.34 2.328 -1.028
v -2.26 2.328 -1.028
v -2.26 2.272 -0.972
v -2.34 2.272 -0.972
usemtl Timber
s off
f 76 75 74 73
f 77 78 79 80
f 73 74 78 77
f 74 75 79 78
f 75 76 80 79
f 76 73 77 80
o Post.Foot
v -0.096 0 0.99
v -0.16 0 1.054
v -0.16 0 1.246
v -0.096 0 1.31
v 0.096 0 1.31
v 0.16 0 1.246
v 0.16 0 1.054
v 0.096 0 0.99
v -0.096 0.14 0.99
v -0.16 0.14 1.054
v -0.16 0.14 1.246
v -0.096 0.14 1.31
v 0.096 0.14 1.31
v 0.16 0.14 1.246
v 0.16 0.14 1.054
v 0.096 0.14 0.99
usemtl Stone
s off
f 88 87 86 85 84 83 82 81
f 89 90 91 92 93 94 95 96
f 81 82 90 89
f 82 83 91 90
f 83 84 92 91
f 84 85 93 92
f 85 86 94 93
f 86 87 95 94
f 87 88 96 95
f 88 81 89 96
o Post
v -0.11 0 1.04
v -0.11 0 1.26
v 0.11 0 1.26
v 0.11 0 1.04
v -0.11 2.45 1.04
v -0.11 2.45 1.26
v 0.11 2.45 1.26
v 0.11 2.45 1.04
usemtl Timber
s off
f 100 99 98 97
f 101 102 103 104
f 97 98 102 101
f 98 99 103 102
f 99 100 104 103
f 100 97 101 104
o Post.Foot
v -0.096 0 -1.71
v -0.16 0 -1.646
v -0.16 0 -1.454
v -0.096 0 -1.39
v 0.096 0 -1.39
v 0.16 0 -1.454
v 0.16 0 -1.646
v 0.096 0 -1.71
v -0.096 0.14 -1.71
v -0.16 0.14 -1.646
v -0.16 0.14 -1.454
v -0.096 0.14 -1.39
v 0.096 0.14 -1.39
v 0.16 0.14 -1.454
v 0.16 0.14 -1.646
v 0.096 0.14 -1.71
usemtl Stone
s off
f 112 111 110 109 108 107 106 105
f 113 114 115 116 117 118 119 120
f 105 106 114 113
f 106 107 115 114
f 107 108 116 115
f 108 109 117 116
f 109 110 118 117
f 110 111 119 118
f 111 112 120 119
f 112 105 113 120
o Post
v -0.11 0 -1.66
v -0.11 0 -1.44
v 0.11 0 -1.44
v 0.11 0 -1.66
v -0.11 2.45 -1.66
v -0.11 2.45 -1.44
v 0.11 2.45 -1.44
v 0.11 2.45 -1.66
usemtl Timber
s off
f 124 123 122 121
f 125 126 127 128
f 121 122 126 125
f 122 123 127 126
f 123 124 128 127
f 124 121 125 128
o Brace
v 0.04 1.778 1.178
v -0.04 1.778 1.178
v -0.04 1.722 1.122
v 0.04 1.722 1.122
v 0.04 2.328 0.628
v -0.04 2.328 0.628
v -0.04 2.272 0.572
v 0.04 2.272 0.572
usemtl Timber
s off
f 132 131 130 129
f 133 134 135 136
f 129 130 134 133
f 130 131 135 134
f 131 132 136 135
f 132 129 133 136
o Brace
v -0.04 1.778 -1.578
v 0.04 1.778 -1.578
v 0.04 1.722 -1.522
v -0.04 1.722 -1.522
v -0.04 2.328 -1.028
v 0.04 2.328 -1.028
v 0.04 2.272 -0.972
v -0.04 2.272 -0.972
usemtl Timber
s off
f 140 139 138 137
f 141 142 143 144
f 137 138 142 141
f 138 139 143 142
f 139 140 144 143
f 140 137 141 144
o Post.Foot
v 2.204 0 0.99
v 2.14 0 1.054
v 2.14 0 1.246
v 2.204 0 1.31
v 2.396 0 1.31
v 2.46 0 1.246
v 2.46 0 1.054
v 2.396 0 0.99
v 2.204 0.14 0.99
v 2.14 0.14 1.054
v 2.14 0.14 1.246
v 2.204 0.14 1.31
v 2.396 0.14 1.31
v 2.46 0.14 1.246
v 2.46 0.14 1.054
v 2.396 0.14 0.99
usemtl Stone
s off
f 152 151 150 149 148 147 146 145
f 153 154 155 156 157 158 159 160
f 145 146 154 153
f 146 147 155 154
f 147 148 156 155
f 148 149 157 156
f 149 150 158 157
f 150 151 159 158
f 151 152 160 159
f 152 145 153 160
o Post
v 2.19 0 1.04
v 2.19 0 1.26
v 2.41 0 1.26
v 2.41 0 1.04
v 2.19 2.45 1.04
v 2.19 2.45 1.26
v 2.41 2.45 1.26
v 2.41 2.45 1.04
usemtl Timber
s off
f 164 163 162 161
f 165 166 167 168
f 161 162 166 165
f 162 163 167 166
f 163 164 168 167
f 164 161 165 168
o Post.Foot
v 2.204 0 -1.71
v 2.14 0 -1.646
v 2.14 0 -1.454
v 2.204 0 -1.39
v 2.396 0 -1.39
v 2.46 0 -1.454
v 2.46 0 -1.646
v 2.396 0 -1.71
v 2.204 0.14 -1.71
v 2.14 0.14 -1.646
v 2.14 0.14 -1.454
v 2.204 0.14 -1.39
v 2.396 0.14 -1.39
v 2.46 0.14 -1.454
v 2.46 0.14 -1.646
v 2.396 0.14 -1.71
usemtl Stone
s off
f 176 175 174 173 172 171 170 169
f 177 178 179 180 181 182 183 184
f 169 170 178 177
f 170 171 179 178
f 171 172 180 179
f 172 173 181 180
f 173 174 182 181
f 174 175 183 182
f 175 176 184 183
f 176 169 177 184
o Post
v 2.19 0 -1.66
v 2.19 0 -1.44
v 2.41 0 -1.44
v 2.41 0 -1.66
v 2.19 2.45 -1.66
v 2.19 2.45 -1.44
v 2.41 2.45 -1.44
v 2.41 2.45 -1.66
usemtl Timber
s off
f 188 187 186 185
f 189 190 191 192
f 185 186 190 189
f 186 187 191 190
f 187 188 192 191
f 188 185 189 192
o Brace
v 2.34 1.778 1.178
v 2.26 1.778 1.178
v 2.26 1.722 1.122
v 2.34 1.722 1.122
v 2.34 2.328 0.628
v 2.26 2.328 0.628
v 2.26 2.272 0.572
v 2.34 2.272 0.572
usemtl Timber
s off
f 196 195 194 193
f 197 198 199 200
f 193 194 198 197
f 194 195 199 198
f 195 196 200 199
f 196 193 197 200
o Brace
v 2.26 1.778 -1.578
v 2.34 1.778 -1.578
v 2.34 1.722 -1.522
v 2.26 1.722 -1.522
v 2.26 2.328 -1.028
v 2.34 2.328 -1.028
v 2.34 2.272 -0.972
v 2.26 2.272 -0.972
usemtl Timber
s off
f 204 203 202 201
f 205 206 207 208
f 201 202 206 205
f 202 203 207 206
f 203 204 208 207
f 204 201 205 208
o Brace
v -1.728 2.278 1.11
v -1.728 2.278 1.19
v -1.672 2.222 1.19
v -1.672 2.222 1.11
v -2.328 1.678 1.11
v -2.328 1.678 1.19
v -2.272 1.622 1.19
v -2.272 1.622 1.11
usemtl Timber
s off
f 212 211 210 209
f 213 214 215 216
f 209 210 214 213
f 210 211 215 214
f 211 212 216 215
f 212 209 213 216
o Brace
v 1.728 2.278 1.19
v 1.728 2.278 1.11
v 1.672 2.222 1.11
v 1.672 2.222 1.19
v 2.328 1.678 1.19
v 2.328 1.678 1.11
v 2.272 1.622 1.11
v 2.272 1.622 1.19
usemtl Timber
s off
f 220 219 218 217
f 221 222 223 224
f 217 218 222 221
f 218 219 223 222
f 219 220 224 223
f 220 217 221 224
o Beam.Front
v -2.45 2.21 1.03
v -2.45 2.21 1.27
v 2.45 2.21 1.27
v 2.45 2.21 1.03
v -2.45 2.45 1.03
v -2.45 2.45 1.27
v 2.45 2.45 1.27
v 2.45 2.45 1.03
usemtl Timber
s off
f 228 227 226 225
f 229 230 231 232
f 225 226 230 229
f 226 227 231 230
f 227 228 232 231
f 228 225 229 232
o Beam.Back
v -2.45 2.21 -1.67
v -2.45 2.21 -1.43
v 2.45 2.21 -1.43
v 2.45 2.21 -1.67
v -2.45 2.45 -1.67
v -2.45 2.45 -1.43
v 2.45 2.45 -1.43
v 2.45 2.45 -1.67
usemtl Timber
s off
f 236 235 234 233
f 237 238 239 240
f 233 234 238 237
f 234 235 239 238
f 235 236 240 239
f 236 233 237 240
o Beam.Side
v -2.39 2.25 -1.65
v -2.39 2.25 1.25
v -2.21 2.25 1.25
v -2.21 2.25 -1.65
v -2.39 2.45 -1.65
v -2.39 2.45 1.25
v -2.21 2.45 1.25
v -2.21 2.45 -1.65
usemtl Timber
s off
f 244 243 242 241
f 245 246 247 248
f 241 242 246 245
f 242 243 247 246
f 243 244 248 247
f 244 241 245 248
o Beam.Side
v -0.09 2.25 -1.65
v -0.09 2.25 1.25
v 0.09 2.25 1.25
v 0.09 2.25 -1.65
v -0.09 2.45 -1.65
v -0.09 2.45 1.25
v 0.09 2.45 1.25
v 0.09 2.45 -1.65
usemtl Timber
s off
f 252 251 250 249
f 253 254 255 256
f 249 250 254 253
f 250 251 255 254
f 251 252 256 255
f 252 249 253 256
o Beam.Side
v 2.21 2.25 -1.65
v 2.21 2.25 1.25
v 2.39 2.25 1.25
v 2.39 2.25 -1.65
v 2.21 2.45 -1.65
v 2.21 2.45 1.25
v 2.39 2.45 1.25
v 2.39 2.45 -1.65
usemtl Timber
s off
f 260 259 258 257
f 261 262 263 264
f 257 258 262 261
f 258 259 263 262
f 259 260 264 263
f 260 257 261 264
o Band
v -2.47 2.23 1.27
v -2.47 2.23 1.31
v 2.47 2.23 1.31
v 2.47 2.23 1.27
v -2.47 2.39 1.27
v -2.47 2.39 1.31
v 2.47 2.39 1.31
v 2.47 2.39 1.27
usemtl Paint
s off
f 268 267 266 265
f 269 270 271 272
f 265 266 270 269
f 266 267 271 270
f 267 268 272 271
f 268 265 269 272
o Roof
v -2.65 2.37 1.6
v -2.65 2.6 1.3
v -2.65 2.71 1.3
v -2.65 2.546 1.6
v 2.65 2.37 1.6
v 2.65 2.6 1.3
v 2.65 2.71 1.3
v 2.65 2.546 1.6
usemtl Shingle
s off
f 276 275 274 273
f 277 278 279 280
f 273 274 278 277
f 274 275 279 278
f 275 276 280 279
f 276 273 277 280
o Roof
v -2.65 2.6 1.3
v -2.65 2.83 1
v -2.65 2.94 1
v -2.65 2.776 1.3
v 2.65 2.6 1.3
v 2.65 2.83 1
v 2.65 2.94 1
v 2.65 2.776 1.3
usemtl Shingle
s off
f 284 283 282 281
f 285 286 287 288
f 281 282 286 285
f 282 283 287 286
f 283 284 288 287
f 284 281 285 288
o Roof
v -2.65 2.83 1
v -2.65 3.06 0.7
v -2.65 3.17 0.7
v -2.65 3.006 1
v 2.65 2.83 1
v 2.65 3.06 0.7
v 2.65 3.17 0.7
v 2.65 3.006 1
usemtl Shingle
s off
f 292 291 290 289
f 293 294 295 296
f 289 290 294 293
f 290 291 295 294
f 291 292 296 295
f 292 289 293 296
o Roof
v -2.65 3.06 0.7
v -2.65 3.29 0.4
v -2.65 3.4 0.4
v -2.65 3.236 0.7
v 2.65 3.06 0.7
v 2.65 3.29 0.4
v 2.65 3.4 0.4
v 2.65 3.236 0.7
usemtl Shingle
s off
f 300 299 298 297
f 301 302 303 304
f 297 298 302 301
f 298 299 303 302
f 299 300 304 303
f 300 297 301 304
o Roof
v -2.65 3.29 0.4
v -2.65 3.52 0.1
v -2.65 3.63 0.1
v -2.65 3.466 0.4
v 2.65 3.29 0.4
v 2.65 3.52 0.1
v 2.65 3.63 0.1
v 2.65 3.466 0.4
usemtl Shingle
s off
f 308 307 306 305
f 309 310 311 312
f 305 306 310 309
f 306 307 311 310
f 307 308 312 311
f 308 305 309 312
o Roof
v -2.65 3.52 0.1
v -2.65 3.75 -0.2
v -2.65 3.86 -0.2
v -2.65 3.63 0.1
v 2.65 3.52 0.1
v 2.65 3.75 -0.2
v 2.65 3.86 -0.2
v 2.65 3.63 0.1
usemtl Shingle
s off
f 316 315 314 313
f 317 318 319 320
f 313 314 318 317
f 314 315 319 318
f 315 316 320 319
f 316 313 317 320
o Roof
v -2.65 2.37 -2
v -2.65 2.6 -1.7
v -2.65 2.71 -1.7
v -2.65 2.546 -2
v 2.65 2.37 -2
v 2.65 2.6 -1.7
v 2.65 2.71 -1.7
v 2.65 2.546 -2
usemtl Shingle
s off
f 324 323 322 321
f 325 326 327 328
f 321 322 326 325
f 322 323 327 326
f 323 324 328 327
f 324 321 325 328
o Roof
v -2.65 2.6 -1.7
v -2.65 2.83 -1.4
v -2.65 2.94 -1.4
v -2.65 2.776 -1.7
v 2.65 2.6 -1.7
v 2.65 2.83 -1.4
v 2.65 2.94 -1.4
v 2.65 2.776 -1.7
usemtl Shingle
s off
f 332 331 330 329
f 333 334 335 336
f 329 330 334 333
f 330 331 335 334
f 331 332 336 335
f 332 329 333 336
o Roof
v -2.65 2.83 -1.4
v -2.65 3.06 -1.1
v -2.65 3.17 -1.1
v -2.65 3.006 -1.4
v 2.65 2.83 -1.4
v 2.65 3.06 -1.1
v 2.65 3.17 -1.1
v 2.65 3.006 -1.4
usemtl Shingle
s off
f 340 339 338 337
f 341 342 343 344
f 337 338 342 341
f 338 339 343 342
f 339 340 344 343
f 340 337 341 344
o Roof
v -2.65 3.06 -1.1
v -2.65 3.29 -0.8
v -2.65 3.4 -0.8
v -2.65 3.236 -1.1
v 2.65 3.06 -1.1
v 2.65 3.29 -0.8
v 2.65 3.4 -0.8
v 2.65 3.236 -1.1
usemtl Shingle
s off
f 348 347 346 345
f 349 350 351 352
f 345 346 350 349
f 346 347 351 350
f 347 348 352 351
f 348 345 349 352
o Roof
v -2.65 3.29 -0.8
v -2.65 3.52 -0.5
v -2.65 3.63 -0.5
v -2.65 3.466 -0.8
v 2.65 3.29 -0.8
v 2.65 3.52 -0.5
v 2.65 3.63 -0.5
v 2.65 3.466 -0.8
usemtl Shingle
s off
f 356 355 354 353
f 357 358 359 360
f 353 354 358 357
f 354 355 359 358
f 355 356 360 359
f 356 353 357 360
o Roof
v -2.65 3.52 -0.5
v -2.65 3.75 -0.2
v -2.65 3.86 -0.2
v -2.65 3.63 -0.5
v 2.65 3.52 -0.5
v 2.65 3.75 -0.2
v 2.65 3.86 -0.2
v 2.65 3.63 -0.5
usemtl Shingle
s off
f 364 363 362 361
f 365 366 367 368
f 361 362 366 365
f 362 363 367 366
f 363 364 368 367
f 364 361 365 368
o Roof.Ridge
v -2.69 3.85 -0.096
v -2.69 3.89 -0.2
v -2.69 3.85 -0.304
v -2.69 3.77 -0.304
v -2.69 3.73 -0.2
v -2.69 3.77 -0.096
v 2.69 3.85 -0.096
v 2.69 3.89 -0.2
v 2.69 3.85 -0.304
v 2.69 3.77 -0.304
v 2.69 3.73 -0.2
v 2.69 3.77 -0.096
usemtl ShingleDark
s off
f 374 373 372 371 370 369
f 375 376 377 378 379 380
f 369 370 376 375
f 370 371 377 376
f 371 372 378 377
f 372 373 379 378
f 373 374 380 379
f 374 369 375 380
o Gable
v -2.39 2.45 -1.55
v -2.39 2.45 1.15
v -2.39 3.65 -0.2
v -2.31 2.45 -1.55
v -2.31 2.45 1.15
v -2.31 3.65 -0.2
usemtl WoodLight
s off
f 383 382 381
f 384 385 386
f 381 382 385 384
f 382 383 386 385
f 383 381 384 386
o Gable.Seam
v -2.4 2.45 -1.022
v -2.4 2.45 -0.998
v -2.3 2.45 -0.998
v -2.3 2.45 -1.022
v -2.4 2.88 -1.022
v -2.4 2.88 -0.998
v -2.3 2.88 -0.998
v -2.3 2.88 -1.022
usemtl WoodDark
s off
f 390 389 388 387
f 391 392 393 394
f 387 388 392 391
f 388 389 393 392
f 389 390 394 393
f 390 387 391 394
o Gable.Seam
v -2.4 2.45 -0.482
v -2.4 2.45 -0.458
v -2.3 2.45 -0.458
v -2.3 2.45 -0.482
v -2.4 3.36 -0.482
v -2.4 3.36 -0.458
v -2.3 3.36 -0.458
v -2.3 3.36 -0.482
usemtl WoodDark
s off
f 398 397 396 395
f 399 400 401 402
f 395 396 400 399
f 396 397 401 400
f 397 398 402 401
f 398 395 399 402
o Gable.Seam
v -2.4 2.45 0.058
v -2.4 2.45 0.082
v -2.3 2.45 0.082
v -2.3 2.45 0.058
v -2.4 3.36 0.058
v -2.4 3.36 0.082
v -2.3 3.36 0.082
v -2.3 3.36 0.058
usemtl WoodDark
s off
f 406 405 404 403
f 407 408 409 410
f 403 404 408 407
f 404 405 409 408
f 405 406 410 409
f 406 403 407 410
o Gable.Seam
v -2.4 2.45 0.598
v -2.4 2.45 0.622
v -2.3 2.45 0.622
v -2.3 2.45 0.598
v -2.4 2.88 0.598
v -2.4 2.88 0.622
v -2.3 2.88 0.622
v -2.3 2.88 0.598
usemtl WoodDark
s off
f 414 413 412 411
f 415 416 417 418
f 411 412 416 415
f 412 413 417 416
f 413 414 418 417
f 414 411 415 418
o Gable.Barge
v -2.61 2.396 1.638
v -2.73 2.396 1.638
v -2.73 2.304 1.562
v -2.61 2.304 1.562
v -2.61 3.876 -0.162
v -2.73 3.876 -0.162
v -2.73 3.784 -0.238
v -2.61 3.784 -0.238
usemtl Timber
s off
f 422 421 420 419
f 423 424 425 426
f 419 420 424 423
f 420 421 425 424
f 421 422 426 425
f 422 419 423 426
o Gable.Barge
v -2.73 2.396 -2.038
v -2.61 2.396 -2.038
v -2.61 2.304 -1.962
v -2.73 2.304 -1.962
v -2.73 3.876 -0.238
v -2.61 3.876 -0.238
v -2.61 3.784 -0.162
v -2.73 3.784 -0.162
usemtl Timber
s off
f 430 429 428 427
f 431 432 433 434
f 427 428 432 431
f 428 429 433 432
f 429 430 434 433
f 430 427 431 434
o Gable
v 2.31 2.45 -1.55
v 2.31 2.45 1.15
v 2.31 3.65 -0.2
v 2.39 2.45 -1.55
v 2.39 2.45 1.15
v 2.39 3.65 -0.2
usemtl WoodLight
s off
f 437 436 435
f 438 439 440
f 435 436 439 438
f 436 437 440 439
f 437 435 438 440
o Gable.Seam
v 2.3 2.45 -1.022
v 2.3 2.45 -0.998
v 2.4 2.45 -0.998
v 2.4 2.45 -1.022
v 2.3 2.88 -1.022
v 2.3 2.88 -0.998
v 2.4 2.88 -0.998
v 2.4 2.88 -1.022
usemtl WoodDark
s off
f 444 443 442 441
f 445 446 447 448
f 441 442 446 445
f 442 443 447 446
f 443 444 448 447
f 444 441 445 448
o Gable.Seam
v 2.3 2.45 -0.482
v 2.3 2.45 -0.458
v 2.4 2.45 -0.458
v 2.4 2.45 -0.482
v 2.3 3.36 -0.482
v 2.3 3.36 -0.458
v 2.4 3.36 -0.458
v 2.4 3.36 -0.482
usemtl WoodDark
s off
f 452 451 450 449
f 453 454 455 456
f 449 450 454 453
f 450 451 455 454
f 451 452 456 455
f 452 449 453 456
o Gable.Seam
v 2.3 2.45 0.058
v 2.3 2.45 0.082
v 2.4 2.45 0.082
v 2.4 2.45 0.058
v 2.3 3.36 0.058
v 2.3 3.36 0.082
v 2.4 3.36 0.082
v 2.4 3.36 0.058
usemtl WoodDark
s off
f 460 459 458 457
f 461 462 463 464
f 457 458 462 461
f 458 459 463 462
f 459 460 464 463
f 460 457 461 464
o Gable.Seam
v 2.3 2.45 0.598
v 2.3 2.45 0.622
v 2.4 2.45 0.622
v 2.4 2.45 0.598
v 2.3 2.88 0.598
v 2.3 2.88 0.622
v 2.4 2.88 0.622
v 2.4 2.88 0.598
usemtl WoodDark
s off
f 468 467 466 465
f 469 470 471 472
f 465 466 470 469
f 466 467 471 470
f 467 468 472 471
f 468 465 469 472
o Gable.Barge
v 2.73 2.396 1.638
v 2.61 2.396 1.638
v 2.61 2.304 1.562
v 2.73 2.304 1.562
v 2.73 3.876 -0.162
v 2.61 3.876 -0.162
v 2.61 3.784 -0.238
v 2.73 3.784 -0.238
usemtl Timber
s off
f 476 475 474 473
f 477 478 479 480
f 473 474 478 477
f 474 475 479 478
f 475 476 480 479
f 476 473 477 480
o Gable.Barge
v 2.61 2.396 -2.038
v 2.73 2.396 -2.038
v 2.73 2.304 -1.962
v 2.61 2.304 -1.962
v 2.61 3.876 -0.238
v 2.73 3.876 -0.238
v 2.73 3.784 -0.162
v 2.61 3.784 -0.162
usemtl Timber
s off
f 484 483 482 481
f 485 486 487 488
f 481 482 486 485
f 482 483 487 486
f 483 484 488 487
f 484 481 485 488
o Log
v -2.15 0.265 -1.043
v -2.15 0.357 -1.135
v -2.15 0.357 -1.265
v -2.15 0.265 -1.357
v -2.15 0.135 -1.357
v -2.15 0.043 -1.265
v -2.15 0.043 -1.135
v -2.15 0.135 -1.043
v 2.15 0.265 -1.043
v 2.15 0.357 -1.135
v 2.15 0.357 -1.265
v 2.15 0.265 -1.357
v 2.15 0.135 -1.357
v 2.15 0.043 -1.265
v 2.15 0.043 -1.135
v 2.15 0.135 -1.043
usemtl Bark
s off
f 496 495 494 493 492 491 490 489
f 497 498 499 500 501 502 503 504
f 489 490 498 497
f 490 491 499 498
f 491 492 500 499
f 492 493 501 500
f 493 494 502 501
f 494 495 503 502
f 495 496 504 503
f 496 489 497 504
o Log.End
v -2.162 0.257 -1.062
v -2.162 0.338 -1.143
v -2.162 0.338 -1.257
v -2.162 0.257 -1.338
v -2.162 0.143 -1.338
v -2.162 0.062 -1.257
v -2.162 0.062 -1.143
v -2.162 0.143 -1.062
v -2.15 0.257 -1.062
v -2.15 0.338 -1.143
v -2.15 0.338 -1.257
v -2.15 0.257 -1.338
v -2.15 0.143 -1.338
v -2.15 0.062 -1.257
v -2.15 0.062 -1.143
v -2.15 0.143 -1.062
usemtl LogEnd
s off
f 512 511 510 509 508 507 506 505
f 513 514 515 516 517 518 519 520
f 505 506 514 513
f 506 507 515 514
f 507 508 516 515
f 508 509 517 516
f 509 510 518 517
f 510 511 519 518
f 511 512 520 519
f 512 505 513 520
o Log.End
v 2.15 0.257 -1.062
v 2.15 0.338 -1.143
v 2.15 0.338 -1.257
v 2.15 0.257 -1.338
v 2.15 0.143 -1.338
v 2.15 0.062 -1.257
v 2.15 0.062 -1.143
v 2.15 0.143 -1.062
v 2.162 0.257 -1.062
v 2.162 0.338 -1.143
v 2.162 0.338 -1.257
v 2.162 0.257 -1.338
v 2.162 0.143 -1.338
v 2.162 0.062 -1.257
v 2.162 0.062 -1.143
v 2.162 0.143 -1.062
usemtl LogEnd
s off
f 528 527 526 525 524 523 522 521
f 529 530 531 532 533 534 535 536
f 521 522 530 529
f 522 523 531 530
f 523 524 532 531
f 524 525 533 532
f 525 526 534 533
f 526 527 535 534
f 527 528 536 535
f 528 521 529 536
o Log
v -2 0.265 -0.663
v -2 0.357 -0.755
v -2 0.357 -0.885
v -2 0.265 -0.977
v -2 0.135 -0.977
v -2 0.043 -0.885
v -2 0.043 -0.755
v -2 0.135 -0.663
v 2 0.265 -0.663
v 2 0.357 -0.755
v 2 0.357 -0.885
v 2 0.265 -0.977
v 2 0.135 -0.977
v 2 0.043 -0.885
v 2 0.043 -0.755
v 2 0.135 -0.663
usemtl Bark
s off
f 544 543 542 541 540 539 538 537
f 545 546 547 548 549 550 551 552
f 537 538 546 545
f 538 539 547 546
f 539 540 548 547
f 540 541 549 548
f 541 542 550 549
f 542 543 551 550
f 543 544 552 551
f 544 537 545 552
o Log.End
v -2.012 0.257 -0.682
v -2.012 0.338 -0.763
v -2.012 0.338 -0.877
v -2.012 0.257 -0.958
v -2.012 0.143 -0.958
v -2.012 0.062 -0.877
v -2.012 0.062 -0.763
v -2.012 0.143 -0.682
v -2 0.257 -0.682
v -2 0.338 -0.763
v -2 0.338 -0.877
v -2 0.257 -0.958
v -2 0.143 -0.958
v -2 0.062 -0.877
v -2 0.062 -0.763
v -2 0.143 -0.682
usemtl LogEnd
s off
f 560 559 558 557 556 555 554 553
f 561 562 563 564 565 566 567 568
f 553 554 562 561
f 554 555 563 562
f 555 556 564 563
f 556 557 565 564
f 557 558 566 565
f 558 559 567 566
f 559 560 568 567
f 560 553 561 568
o Log.End
v 2 0.257 -0.682
v 2 0.338 -0.763
v 2 0.338 -0.877
v 2 0.257 -0.958
v 2 0.143 -0.958
v 2 0.062 -0.877
v 2 0.062 -0.763
v 2 0.143 -0.682
v 2.012 0.257 -0.682
v 2.012 0.338 -0.763
v 2.012 0.338 -0.877
v 2.012 0.257 -0.958
v 2.012 0.143 -0.958
v 2.012 0.062 -0.877
v 2.012 0.062 -0.763
v 2.012 0.143 -0.682
usemtl LogEnd
s off
f 576 575 574 573 572 571 570 569
f 577 578 579 580 581 582 583 584
f 569 570 578 577
f 570 571 579 578
f 571 572 580 579
f 572 573 581 580
f 573 574 582 581
f 574 575 583 582
f 575 576 584 583
f 576 569 577 584
o Log
v -2.1 0.265 -0.283
v -2.1 0.357 -0.375
v -2.1 0.357 -0.505
v -2.1 0.265 -0.597
v -2.1 0.135 -0.597
v -2.1 0.043 -0.505
v -2.1 0.043 -0.375
v -2.1 0.135 -0.283
v 2.1 0.265 -0.283
v 2.1 0.357 -0.375
v 2.1 0.357 -0.505
v 2.1 0.265 -0.597
v 2.1 0.135 -0.597
v 2.1 0.043 -0.505
v 2.1 0.043 -0.375
v 2.1 0.135 -0.283
usemtl Bark
s off
f 592 591 590 589 588 587 586 585
f 593 594 595 596 597 598 599 600
f 585 586 594 593
f 586 587 595 594
f 587 588 596 595
f 588 589 597 596
f 589 590 598 597
f 590 591 599 598
f 591 592 600 599
f 592 585 593 600
o Log.End
v -2.112 0.257 -0.302
v -2.112 0.338 -0.383
v -2.112 0.338 -0.497
v -2.112 0.257 -0.578
v -2.112 0.143 -0.578
v -2.112 0.062 -0.497
v -2.112 0.062 -0.383
v -2.112 0.143 -0.302
v -2.1 0.257 -0.302
v -2.1 0.338 -0.383
v -2.1 0.338 -0.497
v -2.1 0.257 -0.578
v -2.1 0.143 -0.578
v -2.1 0.062 -0.497
v -2.1 0.062 -0.383
v -2.1 0.143 -0.302
usemtl LogEnd
s off
f 608 607 606 605 604 603 602 601
f 609 610 611 612 613 614 615 616
f 601 602 610 609
f 602 603 611 610
f 603 604 612 611
f 604 605 613 612
f 605 606 614 613
f 606 607 615 614
f 607 608 616 615
f 608 601 609 616
o Log.End
v 2.1 0.257 -0.302
v 2.1 0.338 -0.383
v 2.1 0.338 -0.497
v 2.1 0.257 -0.578
v 2.1 0.143 -0.578
v 2.1 0.062 -0.497
v 2.1 0.062 -0.383
v 2.1 0.143 -0.302
v 2.112 0.257 -0.302
v 2.112 0.338 -0.383
v 2.112 0.338 -0.497
v 2.112 0.257 -0.578
v 2.112 0.143 -0.578
v 2.112 0.062 -0.497
v 2.112 0.062 -0.383
v 2.112 0.143 -0.302
usemtl LogEnd
s off
f 624 623 622 621 620 619 618 617
f 625 626 627 628 629 630 631 632
f 617 618 626 625
f 618 619 627 626
f 619 620 628 627
f 620 621 629 628
f 621 622 630 629
f 622 623 631 630
f 623 624 632 631
f 624 617 625 632
o Log
v -1.95 0.265 0.097
v -1.95 0.357 0.005
v -1.95 0.357 -0.125
v -1.95 0.265 -0.217
v -1.95 0.135 -0.217
v -1.95 0.043 -0.125
v -1.95 0.043 0.005
v -1.95 0.135 0.097
v 1.95 0.265 0.097
v 1.95 0.357 0.005
v 1.95 0.357 -0.125
v 1.95 0.265 -0.217
v 1.95 0.135 -0.217
v 1.95 0.043 -0.125
v 1.95 0.043 0.005
v 1.95 0.135 0.097
usemtl Bark
s off
f 640 639 638 637 636 635 634 633
f 641 642 643 644 645 646 647 648
f 633 634 642 641
f 634 635 643 642
f 635 636 644 643
f 636 637 645 644
f 637 638 646 645
f 638 639 647 646
f 639 640 648 647
f 640 633 641 648
o Log.End
v -1.962 0.257 0.078
v -1.962 0.338 -0.003
v -1.962 0.338 -0.117
v -1.962 0.257 -0.198
v -1.962 0.143 -0.198
v -1.962 0.062 -0.117
v -1.962 0.062 -0.003
v -1.962 0.143 0.078
v -1.95 0.257 0.078
v -1.95 0.338 -0.003
v -1.95 0.338 -0.117
v -1.95 0.257 -0.198
v -1.95 0.143 -0.198
v -1.95 0.062 -0.117
v -1.95 0.062 -0.003
v -1.95 0.143 0.078
usemtl LogEnd
s off
f 656 655 654 653 652 651 650 649
f 657 658 659 660 661 662 663 664
f 649 650 658 657
f 650 651 659 658
f 651 652 660 659
f 652 653 661 660
f 653 654 662 661
f 654 655 663 662
f 655 656 664 663
f 656 649 657 664
o Log.End
v 1.95 0.257 0.078
v 1.95 0.338 -0.003
v 1.95 0.338 -0.117
v 1.95 0.257 -0.198
v 1.95 0.143 -0.198
v 1.95 0.062 -0.117
v 1.95 0.062 -0.003
v 1.95 0.143 0.078
v 1.962 0.257 0.078
v 1.962 0.338 -0.003
v 1.962 0.338 -0.117
v 1.962 0.257 -0.198
v 1.962 0.143 -0.198
v 1.962 0.062 -0.117
v 1.962 0.062 -0.003
v 1.962 0.143 0.078
usemtl LogEnd
s off
f 672 671 670 669 668 667 666 665
f 673 674 675 676 677 678 679 680
f 665 666 674 673
f 666 667 675 674
f 667 668 676 675
f 668 669 677 676
f 669 670 678 677
f 670 671 679 678
f 671 672 680 679
f 672 665 673 680
o Log
v -2.05 0.265 0.477
v -2.05 0.357 0.385
v -2.05 0.357 0.255
v -2.05 0.265 0.163
v -2.05 0.135 0.163
v -2.05 0.043 0.255
v -2.05 0.043 0.385
v -2.05 0.135 0.477
v 2.05 0.265 0.477
v 2.05 0.357 0.385
v 2.05 0.357 0.255
v 2.05 0.265 0.163
v 2.05 0.135 0.163
v 2.05 0.043 0.255
v 2.05 0.043 0.385
v 2.05 0.135 0.477
usemtl Bark
s off
f 688 687 686 685 684 683 682 681
f 689 690 691 692 693 694 695 696
f 681 682 690 689
f 682 683 691 690
f 683 684 692 691
f 684 685 693 692
f 685 686 694 693
f 686 687 695 694
f 687 688 696 695
f 688 681 689 696
o Log.End
v -2.062 0.257 0.458
v -2.062 0.338 0.377
v -2.062 0.338 0.263
v -2.062 0.257 0.182
v -2.062 0.143 0.182
v -2.062 0.062 0.263
v -2.062 0.062 0.377
v -2.062 0.143 0.458
v -2.05 0.257 0.458
v -2.05 0.338 0.377
v -2.05 0.338 0.263
v -2.05 0.257 0.182
v -2.05 0.143 0.182
v -2.05 0.062 0.263
v -2.05 0.062 0.377
v -2.05 0.143 0.458
usemtl LogEnd
s off
f 704 703 702 701 700 699 698 697
f 705 706 707 708 709 710 711 712
f 697 698 706 705
f 698 699 707 706
f 699 700 708 707
f 700 701 709 708
f 701 702 710 709
f 702 703 711 710
f 703 704 712 711
f 704 697 705 712
o Log.End
v 2.05 0.257 0.458
v 2.05 0.338 0.377
v 2.05 0.338 0.263
v 2.05 0.257 0.182
v 2.05 0.143 0.182
v 2.05 0.062 0.263
v 2.05 0.062 0.377
v 2.05 0.143 0.458
v 2.062 0.257 0.458
v 2.062 0.338 0.377
v 2.062 0.338 0.263
v 2.062 0.257 0.182
v 2.062 0.143 0.182
v 2.062 0.062 0.263
v 2.062 0.062 0.377
v 2.062 0.143 0.458
usemtl LogEnd
s off
f 720 719 718 717 716 715 714 713
f 721 722 723 724 725 726 727 728
f 713 714 722 721
f 714 715 723 722
f 715 716 724 723
f 716 717 725 724
f 717 718 726 725
f 718 719 727 726
f 719 720 728 727
f 720 713 721 728
o Log
v -2.05 0.595 -0.863
v -2.05 0.687 -0.955
v -2.05 0.687 -1.085
v -2.05 0.595 -1.177
v -2.05 0.465 -1.177
v -2.05 0.373 -1.085
v -2.05 0.373 -0.955
v -2.05 0.465 -0.863
v 2.05 0.595 -0.863
v 2.05 0.687 -0.955
v 2.05 0.687 -1.085
v 2.05 0.595 -1.177
v 2.05 0.465 -1.177
v 2.05 0.373 -1.085
v 2.05 0.373 -0.955
v 2.05 0.465 -0.863
usemtl Bark
s off
f 736 735 734 733 732 731 730 729
f 737 738 739 740 741 742 743 744
f 729 730 738 737
f 730 731 739 738
f 731 732 740 739
f 732 733 741 740
f 733 734 742 741
f 734 735 743 742
f 735 736 744 743
f 736 729 737 744
o Log.End
v -2.062 0.587 -0.882
v -2.062 0.668 -0.963
v -2.062 0.668 -1.077
v -2.062 0.587 -1.158
v -2.062 0.473 -1.158
v -2.062 0.392 -1.077
v -2.062 0.392 -0.963
v -2.062 0.473 -0.882
v -2.05 0.587 -0.882
v -2.05 0.668 -0.963
v -2.05 0.668 -1.077
v -2.05 0.587 -1.158
v -2.05 0.473 -1.158
v -2.05 0.392 -1.077
v -2.05 0.392 -0.963
v -2.05 0.473 -0.882
usemtl LogEnd
s off
f 752 751 750 749 748 747 746 745
f 753 754 755 756 757 758 759 760
f 745 746 754 753
f 746 747 755 754
f 747 748 756 755
f 748 749 757 756
f 749 750 758 757
f 750 751 759 758
f 751 752 760 759
f 752 745 753 760
o Log.End
v 2.05 0.587 -0.882
v 2.05 0.668 -0.963
v 2.05 0.668 -1.077
v 2.05 0.587 -1.158
v 2.05 0.473 -1.158
v 2.05 0.392 -1.077
v 2.05 0.392 -0.963
v 2.05 0.473 -0.882
v 2.062 0.587 -0.882
v 2.062 0.668 -0.963
v 2.062 0.668 -1.077
v 2.062 0.587 -1.158
v 2.062 0.473 -1.158
v 2.062 0.392 -1.077
v 2.062 0.392 -0.963
v 2.062 0.473 -0.882
usemtl LogEnd
s off
f 768 767 766 765 764 763 762 761
f 769 770 771 772 773 774 775 776
f 761 762 770 769
f 762 763 771 770
f 763 764 772 771
f 764 765 773 772
f 765 766 774 773
f 766 767 775 774
f 767 768 776 775
f 768 761 769 776
o Log
v -2.15 0.595 -0.483
v -2.15 0.687 -0.575
v -2.15 0.687 -0.705
v -2.15 0.595 -0.797
v -2.15 0.465 -0.797
v -2.15 0.373 -0.705
v -2.15 0.373 -0.575
v -2.15 0.465 -0.483
v 2.15 0.595 -0.483
v 2.15 0.687 -0.575
v 2.15 0.687 -0.705
v 2.15 0.595 -0.797
v 2.15 0.465 -0.797
v 2.15 0.373 -0.705
v 2.15 0.373 -0.575
v 2.15 0.465 -0.483
usemtl Bark
s off
f 784 783 782 781 780 779 778 777
f 785 786 787 788 789 790 791 792
f 777 778 786 785
f 778 779 787 786
f 779 780 788 787
f 780 781 789 788
f 781 782 790 789
f 782 783 791 790
f 783 784 792 791
f 784 777 785 792
o Log.End
v -2.162 0.587 -0.502
v -2.162 0.668 -0.583
v -2.162 0.668 -0.697
v -2.162 0.587 -0.778
v -2.162 0.473 -0.778
v -2.162 0.392 -0.697
v -2.162 0.392 -0.583
v -2.162 0.473 -0.502
v -2.15 0.587 -0.502
v -2.15 0.668 -0.583
v -2.15 0.668 -0.697
v -2.15 0.587 -0.778
v -2.15 0.473 -0.778
v -2.15 0.392 -0.697
v -2.15 0.392 -0.583
v -2.15 0.473 -0.502
usemtl LogEnd
s off
f 800 799 798 797 796 795 794 793
f 801 802 803 804 805 806 807 808
f 793 794 802 801
f 794 795 803 802
f 795 796 804 803
f 796 797 805 804
f 797 798 806 805
f 798 799 807 806
f 799 800 808 807
f 800 793 801 808
o Log.End
v 2.15 0.587 -0.502
v 2.15 0.668 -0.583
v 2.15 0.668 -0.697
v 2.15 0.587 -0.778
v 2.15 0.473 -0.778
v 2.15 0.392 -0.697
v 2.15 0.392 -0.583
v 2.15 0.473 -0.502
v 2.162 0.587 -0.502
v 2.162 0.668 -0.583
v 2.162 0.668 -0.697
v 2.162 0.587 -0.778
v 2.162 0.473 -0.778
v 2.162 0.392 -0.697
v 2.162 0.392 -0.583
v 2.162 0.473 -0.502
usemtl LogEnd
s off
f 816 815 814 813 812 811 810 809
f 817 818 819 820 821 822 823 824
f 809 810 818 817
f 810 811 819 818
f 811 812 820 819
f 812 813 821 820
f 813 814 822 821
f 814 815 823 822
f 815 816 824 823
f 816 809 817 824
o Log
v -2 0.595 -0.103
v -2 0.687 -0.195
v -2 0.687 -0.325
v -2 0.595 -0.417
v -2 0.465 -0.417
v -2 0.373 -0.325
v -2 0.373 -0.195
v -2 0.465 -0.103
v 2 0.595 -0.103
v 2 0.687 -0.195
v 2 0.687 -0.325
v 2 0.595 -0.417
v 2 0.465 -0.417
v 2 0.373 -0.325
v 2 0.373 -0.195
v 2 0.465 -0.103
usemtl Bark
s off
f 832 831 830 829 828 827 826 825
f 833 834 835 836 837 838 839 840
f 825 826 834 833
f 826 827 835 834
f 827 828 836 835
f 828 829 837 836
f 829 830 838 837
f 830 831 839 838
f 831 832 840 839
f 832 825 833 840
o Log.End
v -2.012 0.587 -0.122
v -2.012 0.668 -0.203
v -2.012 0.668 -0.317
v -2.012 0.587 -0.398
v -2.012 0.473 -0.398
v -2.012 0.392 -0.317
v -2.012 0.392 -0.203
v -2.012 0.473 -0.122
v -2 0.587 -0.122
v -2 0.668 -0.203
v -2 0.668 -0.317
v -2 0.587 -0.398
v -2 0.473 -0.398
v -2 0.392 -0.317
v -2 0.392 -0.203
v -2 0.473 -0.122
usemtl LogEnd
s off
f 848 847 846 845 844 843 842 841
f 849 850 851 852 853 854 855 856
f 841 842 850 849
f 842 843 851 850
f 843 844 852 851
f 844 845 853 852
f 845 846 854 853
f 846 847 855 854
f 847 848 856 855
f 848 841 849 856
o Log.End
v 2 0.587 -0.122
v 2 0.668 -0.203
v 2 0.668 -0.317
v 2 0.587 -0.398
v 2 0.473 -0.398
v 2 0.392 -0.317
v 2 0.392 -0.203
v 2 0.473 -0.122
v 2.012 0.587 -0.122
v 2.012 0.668 -0.203
v 2.012 0.668 -0.317
v 2.012 0.587 -0.398
v 2.012 0.473 -0.398
v 2.012 0.392 -0.317
v 2.012 0.392 -0.203
v 2.012 0.473 -0.122
usemtl LogEnd
s off
f 864 863 862 861 860 859 858 857
f 865 866 867 868 869 870 871 872
f 857 858 866 865
f 858 859 867 866
f 859 860 868 867
f 860 861 869 868
f 861 862 870 869
f 862 863 871 870
f 863 864 872 871
f 864 857 865 872
o Log
v -2.1 0.595 0.277
v -2.1 0.687 0.185
v -2.1 0.687 0.055
v -2.1 0.595 -0.037
v -2.1 0.465 -0.037
v -2.1 0.373 0.055
v -2.1 0.373 0.185
v -2.1 0.465 0.277
v 2.1 0.595 0.277
v 2.1 0.687 0.185
v 2.1 0.687 0.055
v 2.1 0.595 -0.037
v 2.1 0.465 -0.037
v 2.1 0.373 0.055
v 2.1 0.373 0.185
v 2.1 0.465 0.277
usemtl Bark
s off
f 880 879 878 877 876 875 874 873
f 881 882 883 884 885 886 887 888
f 873 874 882 881
f 874 875 883 882
f 875 876 884 883
f 876 877 885 884
f 877 878 886 885
f 878 879 887 886
f 879 880 888 887
f 880 873 881 888
o Log.End
v -2.112 0.587 0.258
v -2.112 0.668 0.177
v -2.112 0.668 0.063
v -2.112 0.587 -0.018
v -2.112 0.473 -0.018
v -2.112 0.392 0.063
v -2.112 0.392 0.177
v -2.112 0.473 0.258
v -2.1 0.587 0.258
v -2.1 0.668 0.177
v -2.1 0.668 0.063
v -2.1 0.587 -0.018
v -2.1 0.473 -0.018
v -2.1 0.392 0.063
v -2.1 0.392 0.177
v -2.1 0.473 0.258
usemtl LogEnd
s off
f 896 895 894 893 892 891 890 889
f 897 898 899 900 901 902 903 904
f 889 890 898 897
f 890 891 899 898
f 891 892 900 899
f 892 893 901 900
f 893 894 902 901
f 894 895 903 902
f 895 896 904 903
f 896 889 897 904
o Log.End
v 2.1 0.587 0.258
v 2.1 0.668 0.177
v 2.1 0.668 0.063
v 2.1 0.587 -0.018
v 2.1 0.473 -0.018
v 2.1 0.392 0.063
v 2.1 0.392 0.177
v 2.1 0.473 0.258
v 2.112 0.587 0.258
v 2.112 0.668 0.177
v 2.112 0.668 0.063
v 2.112 0.587 -0.018
v 2.112 0.473 -0.018
v 2.112 0.392 0.063
v 2.112 0.392 0.177
v 2.112 0.473 0.258
usemtl LogEnd
s off
f 912 911 910 909 908 907 906 905
f 913 914 915 916 917 918 919 920
f 905 906 914 913
f 906 907 915 914
f 907 908 916 915
f 908 909 917 916
f 909 910 918 917
f 910 911 919 918
f 911 912 920 919
f 912 905 913 920
o Log
v -1.95 0.595 0.657
v -1.95 0.687 0.565
v -1.95 0.687 0.435
v -1.95 0.595 0.343
v -1.95 0.465 0.343
v -1.95 0.373 0.435
v -1.95 0.373 0.565
v -1.95 0.465 0.657
v 1.95 0.595 0.657
v 1.95 0.687 0.565
v 1.95 0.687 0.435
v 1.95 0.595 0.343
v 1.95 0.465 0.343
v 1.95 0.373 0.435
v 1.95 0.373 0.565
v 1.95 0.465 0.657
usemtl Bark
s off
f 928 927 926 925 924 923 922 921
f 929 930 931 932 933 934 935 936
f 921 922 930 929
f 922 923 931 930
f 923 924 932 931
f 924 925 933 932
f 925 926 934 933
f 926 927 935 934
f 927 928 936 935
f 928 921 929 936
o Log.End
v -1.962 0.587 0.638
v -1.962 0.668 0.557
v -1.962 0.668 0.443
v -1.962 0.587 0.362
v -1.962 0.473 0.362
v -1.962 0.392 0.443
v -1.962 0.392 0.557
v -1.962 0.473 0.638
v -1.95 0.587 0.638
v -1.95 0.668 0.557
v -1.95 0.668 0.443
v -1.95 0.587 0.362
v -1.95 0.473 0.362
v -1.95 0.392 0.443
v -1.95 0.392 0.557
v -1.95 0.473 0.638
usemtl LogEnd
s off
f 944 943 942 941 940 939 938 937
f 945 946 947 948 949 950 951 952
f 937 938 946 945
f 938 939 947 946
f 939 940 948 947
f 940 941 949 948
f 941 942 950 949
f 942 943 951 950
f 943 944 952 951
f 944 937 945 952
o Log.End
v 1.95 0.587 0.638
v 1.95 0.668 0.557
v 1.95 0.668 0.443
v 1.95 0.587 0.362
v 1.95 0.473 0.362
v 1.95 0.392 0.443
v 1.95 0.392 0.557
v 1.95 0.473 0.638
v 1.962 0.587 0.638
v 1.962 0.668 0.557
v 1.962 0.668 0.443
v 1.962 0.587 0.362
v 1.962 0.473 0.362
v 1.962 0.392 0.443
v 1.962 0.392 0.557
v 1.962 0.473 0.638
usemtl LogEnd
s off
f 960 959 958 957 956 955 954 953
f 961 962 963 964 965 966 967 968
f 953 954 962 961
f 954 955 963 962
f 955 956 964 963
f 956 957 965 964
f 957 958 966 965
f 958 959 967 966
f 959 960 968 967
f 960 953 961 968
o Log
v -1.95 0.925 -0.683
v -1.95 1.017 -0.775
v -1.95 1.017 -0.905
v -1.95 0.925 -0.997
v -1.95 0.795 -0.997
v -1.95 0.703 -0.905
v -1.95 0.703 -0.775
v -1.95 0.795 -0.683
v 1.95 0.925 -0.683
v 1.95 1.017 -0.775
v 1.95 1.017 -0.905
v 1.95 0.925 -0.997
v 1.95 0.795 -0.997
v 1.95 0.703 -0.905
v 1.95 0.703 -0.775
v 1.95 0.795 -0.683
usemtl Bark
s off
f 976 975 974 973 972 971 970 969
f 977 978 979 980 981 982 983 984
f 969 970 978 977
f 970 971 979 978
f 971 972 980 979
f 972 973 981 980
f 973 974 982 981
f 974 975 983 982
f 975 976 984 983
f 976 969 977 984
o Log.End
v -1.962 0.917 -0.702
v -1.962 0.998 -0.783
v -1.962 0.998 -0.897
v -1.962 0.917 -0.978
v -1.962 0.803 -0.978
v -1.962 0.722 -0.897
v -1.962 0.722 -0.783
v -1.962 0.803 -0.702
v -1.95 0.917 -0.702
v -1.95 0.998 -0.783
v -1.95 0.998 -0.897
v -1.95 0.917 -0.978
v -1.95 0.803 -0.978
v -1.95 0.722 -0.897
v -1.95 0.722 -0.783
v -1.95 0.803 -0.702
usemtl LogEnd
s off
f 992 991 990 989 988 987 986 985
f 993 994 995 996 997 998 999 1000
f 985 986 994 993
f 986 987 995 994
f 987 988 996 995
f 988 989 997 996
f 989 990 998 997
f 990 991 999 998
f 991 992 1000 999
f 992 985 993 1000
o Log.End
v 1.95 0.917 -0.702
v 1.95 0.998 -0.783
v 1.95 0.998 -0.897
v 1.95 0.917 -0.978
v 1.95 0.803 -0.978
v 1.95 0.722 -0.897
v 1.95 0.722 -0.783
v 1.95 0.803 -0.702
v 1.962 0.917 -0.702
v 1.962 0.998 -0.783
v 1.962 0.998 -0.897
v 1.962 0.917 -0.978
v 1.962 0.803 -0.978
v 1.962 0.722 -0.897
v 1.962 0.722 -0.783
v 1.962 0.803 -0.702
usemtl LogEnd
s off
f 1008 1007 1006 1005 1004 1003 1002 1001
f 1009 1010 1011 1012 1013 1014 1015 1016
f 1001 1002 1010 1009
f 1002 1003 1011 1010
f 1003 1004 1012 1011
f 1004 1005 1013 1012
f 1005 1006 1014 1013
f 1006 1007 1015 1014
f 1007 1008 1016 1015
f 1008 1001 1009 1016
o Log
v -2.05 0.925 -0.303
v -2.05 1.017 -0.395
v -2.05 1.017 -0.525
v -2.05 0.925 -0.617
v -2.05 0.795 -0.617
v -2.05 0.703 -0.525
v -2.05 0.703 -0.395
v -2.05 0.795 -0.303
v 2.05 0.925 -0.303
v 2.05 1.017 -0.395
v 2.05 1.017 -0.525
v 2.05 0.925 -0.617
v 2.05 0.795 -0.617
v 2.05 0.703 -0.525
v 2.05 0.703 -0.395
v 2.05 0.795 -0.303
usemtl Bark
s off
f 1024 1023 1022 1021 1020 1019 1018 1017
f 1025 1026 1027 1028 1029 1030 1031 1032
f 1017 1018 1026 1025
f 1018 1019 1027 1026
f 1019 1020 1028 1027
f 1020 1021 1029 1028
f 1021 1022 1030 1029
f 1022 1023 1031 1030
f 1023 1024 1032 1031
f 1024 1017 1025 1032
o Log.End
v -2.062 0.917 -0.322
v -2.062 0.998 -0.403
v -2.062 0.998 -0.517
v -2.062 0.917 -0.598
v -2.062 0.803 -0.598
v -2.062 0.722 -0.517
v -2.062 0.722 -0.403
v -2.062 0.803 -0.322
v -2.05 0.917 -0.322
v -2.05 0.998 -0.403
v -2.05 0.998 -0.517
v -2.05 0.917 -0.598
v -2.05 0.803 -0.598
v -2.05 0.722 -0.517
v -2.05 0.722 -0.403
v -2.05 0.803 -0.322
usemtl LogEnd
s off
f 1040 1039 1038 1037 1036 1035 1034 1033
f 1041 1042 1043 1044 1045 1046 1047 1048
f 1033 1034 1042 1041
f 1034 1035 1043 1042
f 1035 1036 1044 1043
f 1036 1037 1045 1044
f 1037 1038 1046 1045
f 1038 1039 1047 1046
f 1039 1040 1048 1047
f 1040 1033 1041 1048
o Log.End
v 2.05 0.917 -0.322
v 2.05 0.998 -0.403
v 2.05 0.998 -0.517
v 2.05 0.917 -0.598
v 2.05 0.803 -0.598
v 2.05 0.722 -0.517
v 2.05 0.722 -0.403
v 2.05 0.803 -0.322
v 2.062 0.917 -0.322
v 2.062 0.998 -0.403
v 2.062 0.998 -0.517
v 2.062 0.917 -0.598
v 2.062 0.803 -0.598
v 2.062 0.722 -0.517
v 2.062 0.722 -0.403
v 2.062 0.803 -0.322
usemtl LogEnd
s off
f 1056 1055 1054 1053 1052 1051 1050 1049
f 1057 1058 1059 1060 1061 1062 1063 1064
f 1049 1050 1058 1057
f 1050 1051 1059 1058
f 1051 1052 1060 1059
f 1052 1053 1061 1060
f 1053 1054 1062 1061
f 1054 1055 1063 1062
f 1055 1056 1064 1063
f 1056 1049 1057 1064
o Log
v -2.15 0.925 0.077
v -2.15 1.017 -0.015
v -2.15 1.017 -0.145
v -2.15 0.925 -0.237
v -2.15 0.795 -0.237
v -2.15 0.703 -0.145
v -2.15 0.703 -0.015
v -2.15 0.795 0.077
v 2.15 0.925 0.077
v 2.15 1.017 -0.015
v 2.15 1.017 -0.145
v 2.15 0.925 -0.237
v 2.15 0.795 -0.237
v 2.15 0.703 -0.145
v 2.15 0.703 -0.015
v 2.15 0.795 0.077
usemtl Bark
s off
f 1072 1071 1070 1069 1068 1067 1066 1065
f 1073 1074 1075 1076 1077 1078 1079 1080
f 1065 1066 1074 1073
f 1066 1067 1075 1074
f 1067 1068 1076 1075
f 1068 1069 1077 1076
f 1069 1070 1078 1077
f 1070 1071 1079 1078
f 1071 1072 1080 1079
f 1072 1065 1073 1080
o Log.End
v -2.162 0.917 0.058
v -2.162 0.998 -0.023
v -2.162 0.998 -0.137
v -2.162 0.917 -0.218
v -2.162 0.803 -0.218
v -2.162 0.722 -0.137
v -2.162 0.722 -0.023
v -2.162 0.803 0.058
v -2.15 0.917 0.058
v -2.15 0.998 -0.023
v -2.15 0.998 -0.137
v -2.15 0.917 -0.218
v -2.15 0.803 -0.218
v -2.15 0.722 -0.137
v -2.15 0.722 -0.023
v -2.15 0.803 0.058
usemtl LogEnd
s off
f 1088 1087 1086 1085 1084 1083 1082 1081
f 1089 1090 1091 1092 1093 1094 1095 1096
f 1081 1082 1090 1089
f 1082 1083 1091 1090
f 1083 1084 1092 1091
f 1084 1085 1093 1092
f 1085 1086 1094 1093
f 1086 1087 1095 1094
f 1087 1088 1096 1095
f 1088 1081 1089 1096
o Log.End
v 2.15 0.917 0.058
v 2.15 0.998 -0.023
v 2.15 0.998 -0.137
v 2.15 0.917 -0.218
v 2.15 0.803 -0.218
v 2.15 0.722 -0.137
v 2.15 0.722 -0.023
v 2.15 0.803 0.058
v 2.162 0.917 0.058
v 2.162 0.998 -0.023
v 2.162 0.998 -0.137
v 2.162 0.917 -0.218
v 2.162 0.803 -0.218
v 2.162 0.722 -0.137
v 2.162 0.722 -0.023
v 2.162 0.803 0.058
usemtl LogEnd
s off
f 1104 1103 1102 1101 1100 1099 1098 1097
f 1105 1106 1107 1108 1109 1110 1111 1112
f 1097 1098 1106 1105
f 1098 1099 1107 1106
f 1099 1100 1108 1107
f 1100 1101 1109 1108
f 1101 1102 1110 1109
f 1102 1103 1111 1110
f 1103 1104 1112 1111
f 1104 1097 1105 1112
o Log
v -2 0.925 0.457
v -2 1.017 0.365
v -2 1.017 0.235
v -2 0.925 0.143
v -2 0.795 0.143
v -2 0.703 0.235
v -2 0.703 0.365
v -2 0.795 0.457
v 2 0.925 0.457
v 2 1.017 0.365
v 2 1.017 0.235
v 2 0.925 0.143
v 2 0.795 0.143
v 2 0.703 0.235
v 2 0.703 0.365
v 2 0.795 0.457
usemtl Bark
s off
f 1120 1119 1118 1117 1116 1115 1114 1113
f 1121 1122 1123 1124 1125 1126 1127 1128
f 1113 1114 1122 1121
f 1114 1115 1123 1122
f 1115 1116 1124 1123
f 1116 1117 1125 1124
f 1117 1118 1126 1125
f 1118 1119 1127 1126
f 1119 1120 1128 1127
f 1120 1113 1121 1128
o Log.End
v -2.012 0.917 0.438
v -2.012 0.998 0.357
v -2.012 0.998 0.243
v -2.012 0.917 0.162
v -2.012 0.803 0.162
v -2.012 0.722 0.243
v -2.012 0.722 0.357
v -2.012 0.803 0.438
v -2 0.917 0.438
v -2 0.998 0.357
v -2 0.998 0.243
v -2 0.917 0.162
v -2 0.803 0.162
v -2 0.722 0.243
v -2 0.722 0.357
v -2 0.803 0.438
usemtl LogEnd
s off
f 1136 1135 1134 1133 1132 1131 1130 1129
f 1137 1138 1139 1140 1141 1142 1143 1144
f 1129 1130 1138 1137
f 1130 1131 1139 1138
f 1131 1132 1140 1139
f 1132 1133 1141 1140
f 1133 1134 1142 1141
f 1134 1135 1143 1142
f 1135 1136 1144 1143
f 1136 1129 1137 1144
o Log.End
v 2 0.917 0.438
v 2 0.998 0.357
v 2 0.998 0.243
v 2 0.917 0.162
v 2 0.803 0.162
v 2 0.722 0.243
v 2 0.722 0.357
v 2 0.803 0.438
v 2.012 0.917 0.438
v 2.012 0.998 0.357
v 2.012 0.998 0.243
v 2.012 0.917 0.162
v 2.012 0.803 0.162
v 2.012 0.722 0.243
v 2.012 0.722 0.357
v 2.012 0.803 0.438
usemtl LogEnd
s off
f 1152 1151 1150 1149 1148 1147 1146 1145
f 1153 1154 1155 1156 1157 1158 1159 1160
f 1145 1146 1154 1153
f 1146 1147 1155 1154
f 1147 1148 1156 1155
f 1148 1149 1157 1156
f 1149 1150 1158 1157
f 1150 1151 1159 1158
f 1151 1152 1160 1159
f 1152 1145 1153 1160
o Log
v -2.1 1.255 -0.503
v -2.1 1.347 -0.595
v -2.1 1.347 -0.725
v -2.1 1.255 -0.817
v -2.1 1.125 -0.817
v -2.1 1.033 -0.725
v -2.1 1.033 -0.595
v -2.1 1.125 -0.503
v 2.1 1.255 -0.503
v 2.1 1.347 -0.595
v 2.1 1.347 -0.725
v 2.1 1.255 -0.817
v 2.1 1.125 -0.817
v 2.1 1.033 -0.725
v 2.1 1.033 -0.595
v 2.1 1.125 -0.503
usemtl Bark
s off
f 1168 1167 1166 1165 1164 1163 1162 1161
f 1169 1170 1171 1172 1173 1174 1175 1176
f 1161 1162 1170 1169
f 1162 1163 1171 1170
f 1163 1164 1172 1171
f 1164 1165 1173 1172
f 1165 1166 1174 1173
f 1166 1167 1175 1174
f 1167 1168 1176 1175
f 1168 1161 1169 1176
o Log.End
v -2.112 1.247 -0.522
v -2.112 1.328 -0.603
v -2.112 1.328 -0.717
v -2.112 1.247 -0.798
v -2.112 1.133 -0.798
v -2.112 1.052 -0.717
v -2.112 1.052 -0.603
v -2.112 1.133 -0.522
v -2.1 1.247 -0.522
v -2.1 1.328 -0.603
v -2.1 1.328 -0.717
v -2.1 1.247 -0.798
v -2.1 1.133 -0.798
v -2.1 1.052 -0.717
v -2.1 1.052 -0.603
v -2.1 1.133 -0.522
usemtl LogEnd
s off
f 1184 1183 1182 1181 1180 1179 1178 1177
f 1185 1186 1187 1188 1189 1190 1191 1192
f 1177 1178 1186 1185
f 1178 1179 1187 1186
f 1179 1180 1188 1187
f 1180 1181 1189 1188
f 1181 1182 1190 1189
f 1182 1183 1191 1190
f 1183 1184 1192 1191
f 1184 1177 1185 1192
o Log.End
v 2.1 1.247 -0.522
v 2.1 1.328 -0.603
v 2.1 1.328 -0.717
v 2.1 1.247 -0.798
v 2.1 1.133 -0.798
v 2.1 1.052 -0.717
v 2.1 1.052 -0.603
v 2.1 1.133 -0.522
v 2.112 1.247 -0.522
v 2.112 1.328 -0.603
v 2.112 1.328 -0.717
v 2.112 1.247 -0.798
v 2.112 1.133 -0.798
v 2.112 1.052 -0.717
v 2.112 1.052 -0.603
v 2.112 1.133 -0.522
usemtl LogEnd
s off
f 1200 1199 1198 1197 1196 1195 1194 1193
f 1201 1202 1203 1204 1205 1206 1207 1208
f 1193 1194 1202 1201
f 1194 1195 1203 1202
f 1195 1196 1204 1203
f 1196 1197 1205 1204
f 1197 1198 1206 1205
f 1198 1199 1207 1206
f 1199 1200 1208 1207
f 1200 1193 1201 1208
o Log
v -1.95 1.255 -0.123
v -1.95 1.347 -0.215
v -1.95 1.347 -0.345
v -1.95 1.255 -0.437
v -1.95 1.125 -0.437
v -1.95 1.033 -0.345
v -1.95 1.033 -0.215
v -1.95 1.125 -0.123
v 1.95 1.255 -0.123
v 1.95 1.347 -0.215
v 1.95 1.347 -0.345
v 1.95 1.255 -0.437
v 1.95 1.125 -0.437
v 1.95 1.033 -0.345
v 1.95 1.033 -0.215
v 1.95 1.125 -0.123
usemtl Bark
s off
f 1216 1215 1214 1213 1212 1211 1210 1209
f 1217 1218 1219 1220 1221 1222 1223 1224
f 1209 1210 1218 1217
f 1210 1211 1219 1218
f 1211 1212 1220 1219
f 1212 1213 1221 1220
f 1213 1214 1222 1221
f 1214 1215 1223 1222
f 1215 1216 1224 1223
f 1216 1209 1217 1224
o Log.End
v -1.962 1.247 -0.142
v -1.962 1.328 -0.223
v -1.962 1.328 -0.337
v -1.962 1.247 -0.418
v -1.962 1.133 -0.418
v -1.962 1.052 -0.337
v -1.962 1.052 -0.223
v -1.962 1.133 -0.142
v -1.95 1.247 -0.142
v -1.95 1.328 -0.223
v -1.95 1.328 -0.337
v -1.95 1.247 -0.418
v -1.95 1.133 -0.418
v -1.95 1.052 -0.337
v -1.95 1.052 -0.223
v -1.95 1.133 -0.142
usemtl LogEnd
s off
f 1232 1231 1230 1229 1228 1227 1226 1225
f 1233 1234 1235 1236 1237 1238 1239 1240
f 1225 1226 1234 1233
f 1226 1227 1235 1234
f 1227 1228 1236 1235
f 1228 1229 1237 1236
f 1229 1230 1238 1237
f 1230 1231 1239 1238
f 1231 1232 1240 1239
f 1232 1225 1233 1240
o Log.End
v 1.95 1.247 -0.142
v 1.95 1.328 -0.223
v 1.95 1.328 -0.337
v 1.95 1.247 -0.418
v 1.95 1.133 -0.418
v 1.95 1.052 -0.337
v 1.95 1.052 -0.223
v 1.95 1.133 -0.142
v 1.962 1.247 -0.142
v 1.962 1.328 -0.223
v 1.962 1.328 -0.337
v 1.962 1.247 -0.418
v 1.962 1.133 -0.418
v 1.962 1.052 -0.337
v 1.962 1.052 -0.223
v 1.962 1.133 -0.142
usemtl LogEnd
s off
f 1248 1247 1246 1245 1244 1243 1242 1241
f 1249 1250 1251 1252 1253 1254 1255 1256
f 1241 1242 1250 1249
f 1242 1243 1251 1250
f 1243 1244 1252 1251
f 1244 1245 1253 1252
f 1245 1246 1254 1253
f 1246 1247 1255 1254
f 1247 1248 1256 1255
f 1248 1241 1249 1256
o Log
v -2.05 1.255 0.257
v -2.05 1.347 0.165
v -2.05 1.347 0.035
v -2.05 1.255 -0.057
v -2.05 1.125 -0.057
v -2.05 1.033 0.035
v -2.05 1.033 0.165
v -2.05 1.125 0.257
v 2.05 1.255 0.257
v 2.05 1.347 0.165
v 2.05 1.347 0.035
v 2.05 1.255 -0.057
v 2.05 1.125 -0.057
v 2.05 1.033 0.035
v 2.05 1.033 0.165
v 2.05 1.125 0.257
usemtl Bark
s off
f 1264 1263 1262 1261 1260 1259 1258 1257
f 1265 1266 1267 1268 1269 1270 1271 1272
f 1257 1258 1266 1265
f 1258 1259 1267 1266
f 1259 1260 1268 1267
f 1260 1261 1269 1268
f 1261 1262 1270 1269
f 1262 1263 1271 1270
f 1263 1264 1272 1271
f 1264 1257 1265 1272
o Log.End
v -2.062 1.247 0.238
v -2.062 1.328 0.157
v -2.062 1.328 0.043
v -2.062 1.247 -0.038
v -2.062 1.133 -0.038
v -2.062 1.052 0.043
v -2.062 1.052 0.157
v -2.062 1.133 0.238
v -2.05 1.247 0.238
v -2.05 1.328 0.157
v -2.05 1.328 0.043
v -2.05 1.247 -0.038
v -2.05 1.133 -0.038
v -2.05 1.052 0.043
v -2.05 1.052 0.157
v -2.05 1.133 0.238
usemtl LogEnd
s off
f 1280 1279 1278 1277 1276 1275 1274 1273
f 1281 1282 1283 1284 1285 1286 1287 1288
f 1273 1274 1282 1281
f 1274 1275 1283 1282
f 1275 1276 1284 1283
f 1276 1277 1285 1284
f 1277 1278 1286 1285
f 1278 1279 1287 1286
f 1279 1280 1288 1287
f 1280 1273 1281 1288
o Log.End
v 2.05 1.247 0.238
v 2.05 1.328 0.157
v 2.05 1.328 0.043
v 2.05 1.247 -0.038
v 2.05 1.133 -0.038
v 2.05 1.052 0.043
v 2.05 1.052 0.157
v 2.05 1.133 0.238
v 2.062 1.247 0.238
v 2.062 1.328 0.157
v 2.062 1.328 0.043
v 2.062 1.247 -0.038
v 2.062 1.133 -0.038
v 2.062 1.052 0.043
v 2.062 1.052 0.157
v 2.062 1.133 0.238
usemtl LogEnd
s off
f 1296 1295 1294 1293 1292 1291 1290 1289
f 1297 1298 1299 1300 1301 1302 1303 1304
f 1289 1290 1298 1297
f 1290 1291 1299 1298
f 1291 1292 1300 1299
f 1292 1293 1301 1300
f 1293 1294 1302 1301
f 1294 1295 1303 1302
f 1295 1296 1304 1303
f 1296 1289 1297 1304
o Log
v -2 1.585 -0.323
v -2 1.677 -0.415
v -2 1.677 -0.545
v -2 1.585 -0.637
v -2 1.455 -0.637
v -2 1.363 -0.545
v -2 1.363 -0.415
v -2 1.455 -0.323
v 2 1.585 -0.323
v 2 1.677 -0.415
v 2 1.677 -0.545
v 2 1.585 -0.637
v 2 1.455 -0.637
v 2 1.363 -0.545
v 2 1.363 -0.415
v 2 1.455 -0.323
usemtl Bark
s off
f 1312 1311 1310 1309 1308 1307 1306 1305
f 1313 1314 1315 1316 1317 1318 1319 1320
f 1305 1306 1314 1313
f 1306 1307 1315 1314
f 1307 1308 1316 1315
f 1308 1309 1317 1316
f 1309 1310 1318 1317
f 1310 1311 1319 1318
f 1311 1312 1320 1319
f 1312 1305 1313 1320
o Log.End
v -2.012 1.577 -0.342
v -2.012 1.658 -0.423
v -2.012 1.658 -0.537
v -2.012 1.577 -0.618
v -2.012 1.463 -0.618
v -2.012 1.382 -0.537
v -2.012 1.382 -0.423
v -2.012 1.463 -0.342
v -2 1.577 -0.342
v -2 1.658 -0.423
v -2 1.658 -0.537
v -2 1.577 -0.618
v -2 1.463 -0.618
v -2 1.382 -0.537
v -2 1.382 -0.423
v -2 1.463 -0.342
usemtl LogEnd
s off
f 1328 1327 1326 1325 1324 1323 1322 1321
f 1329 1330 1331 1332 1333 1334 1335 1336
f 1321 1322 1330 1329
f 1322 1323 1331 1330
f 1323 1324 1332 1331
f 1324 1325 1333 1332
f 1325 1326 1334 1333
f 1326 1327 1335 1334
f 1327 1328 1336 1335
f 1328 1321 1329 1336
o Log.End
v 2 1.577 -0.342
v 2 1.658 -0.423
v 2 1.658 -0.537
v 2 1.577 -0.618
v 2 1.463 -0.618
v 2 1.382 -0.537
v 2 1.382 -0.423
v 2 1.463 -0.342
v 2.012 1.577 -0.342
v 2.012 1.658 -0.423
v 2.012 1.658 -0.537
v 2.012 1.577 -0.618
v 2.012 1.463 -0.618
v 2.012 1.382 -0.537
v 2.012 1.382 -0.423
v 2.012 1.463 -0.342
usemtl LogEnd
s off
f 1344 1343 1342 1341 1340 1339 1338 1337
f 1345 1346 1347 1348 1349 1350 1351 1352
f 1337 1338 1346 1345
f 1338 1339 1347 1346
f 1339 1340 1348 1347
f 1340 1341 1349 1348
f 1341 1342 1350 1349
f 1342 1343 1351 1350
f 1343 1344 1352 1351
f 1344 1337 1345 1352
o Log
v -2.1 1.585 0.057
v -2.1 1.677 -0.035
v -2.1 1.677 -0.165
v -2.1 1.585 -0.257
v -2.1 1.455 -0.257
v -2.1 1.363 -0.165
v -2.1 1.363 -0.035
v -2.1 1.455 0.057
v 2.1 1.585 0.057
v 2.1 1.677 -0.035
v 2.1 1.677 -0.165
v 2.1 1.585 -0.257
v 2.1 1.455 -0.257
v 2.1 1.363 -0.165
v 2.1 1.363 -0.035
v 2.1 1.455 0.057
usemtl Bark
s off
f 1360 1359 1358 1357 1356 1355 1354 1353
f 1361 1362 1363 1364 1365 1366 1367 1368
f 1353 1354 1362 1361
f 1354 1355 1363 1362
f 1355 1356 1364 1363
f 1356 1357 1365 1364
f 1357 1358 1366 1365
f 1358 1359 1367 1366
f 1359 1360 1368 1367
f 1360 1353 1361 1368
o Log.End
v -2.112 1.577 0.038
v -2.112 1.658 -0.043
v -2.112 1.658 -0.157
v -2.112 1.577 -0.238
v -2.112 1.463 -0.238
v -2.112 1.382 -0.157
v -2.112 1.382 -0.043
v -2.112 1.463 0.038
v -2.1 1.577 0.038
v -2.1 1.658 -0.043
v -2.1 1.658 -0.157
v -2.1 1.577 -0.238
v -2.1 1.463 -0.238
v -2.1 1.382 -0.157
v -2.1 1.382 -0.043
v -2.1 1.463 0.038
usemtl LogEnd
s off
f 1376 1375 1374 1373 1372 1371 1370 1369
f 1377 1378 1379 1380 1381 1382 1383 1384
f 1369 1370 1378 1377
f 1370 1371 1379 1378
f 1371 1372 1380 1379
f 1372 1373 1381 1380
f 1373 1374 1382 1381
f 1374 1375 1383 1382
f 1375 1376 1384 1383
f 1376 1369 1377 1384
o Log.End
v 2.1 1.577 0.038
v 2.1 1.658 -0.043
v 2.1 1.658 -0.157
v 2.1 1.577 -0.238
v 2.1 1.463 -0.238
v 2.1 1.382 -0.157
v 2.1 1.382 -0.043
v 2.1 1.463 0.038
v 2.112 1.577 0.038
v 2.112 1.658 -0.043
v 2.112 1.658 -0.157
v 2.112 1.577 -0.238
v 2.112 1.463 -0.238
v 2.112 1.382 -0.157
v 2.112 1.382 -0.043
v 2.112 1.463 0.038
usemtl LogEnd
s off
f 1392 1391 1390 1389 1388 1387 1386 1385
f 1393 1394 1395 1396 1397 1398 1399 1400
f 1385 1386 1394 1393
f 1386 1387 1395 1394
f 1387 1388 1396 1395
f 1388 1389 1397 1396
f 1389 1390 1398 1397
f 1390 1391 1399 1398
f 1391 1392 1400 1399
f 1392 1385 1393 1400
o Pile.Stake
v -2.19 0 -1.35
v -2.19 0 -1.27
v -2.11 0 -1.27
v -2.11 0 -1.35
v -2.19 1.2 -1.35
v -2.19 1.2 -1.27
v -2.11 1.2 -1.27
v -2.11 1.2 -1.35
usemtl Wood
s off
f 1404 1403 1402 1401
f 1405 1406 1407 1408
f 1401 1402 1406 1405
f 1402 1403 1407 1406
f 1403 1404 1408 1407
f 1404 1401 1405 1408
o Pile.Stake
v 2.11 0 -1.35
v 2.11 0 -1.27
v 2.19 0 -1.27
v 2.19 0 -1.35
v 2.11 1.2 -1.35
v 2.11 1.2 -1.27
v 2.19 1.2 -1.27
v 2.19 1.2 -1.35
usemtl Wood
s off
f 1412 1411 1410 1409
f 1413 1414 1415 1416
f 1409 1410 1414 1413
f 1410 1411 1415 1414
f 1411 1412 1416 1415
f 1412 1409 1413 1416
o Tool.Handle
v 0.05 1 0.99
v 0.05 1 1.03
v 0.09 1 1.03
v 0.09 1 0.99
v 0.05 1.8 0.99
v 0.05 1.8 1.03
v 0.09 1.8 1.03
v 0.09 1.8 0.99
usemtl WoodLight
s off
f 1420 1419 1418 1417
f 1421 1422 1423 1424
f 1417 1418 1422 1421
f 1418 1419 1423 1422
f 1419 1420 1424 1423
f 1420 1417 1421 1424
o Tool.Head
v 0.04 1 0.98
v 0.04 1 1.03
v 0.19 1 1.03
v 0.19 1 0.98
v 0.04 1.13 0.98
v 0.04 1.13 1.03
v 0.1 1.13 1.03
v 0.1 1.13 0.98
usemtl Iron
s off
f 1428 1427 1426 1425
f 1429 1430 1431 1432
f 1425 1426 1430 1429
f 1426 1427 1431 1430
f 1427 1428 1432 1431
f 1428 1425 1429 1432
o Tool.Handle
v 0.1 1.25 0.99
v 0.1 1.25 1.03
v 0.14 1.25 1.03
v 0.14 1.25 0.99
v 0.1 2.05 0.99
v 0.1 2.05 1.03
v 0.14 2.05 1.03
v 0.14 2.05 0.99
usemtl WoodLight
s off
f 1436 1435 1434 1433
f 1437 1438 1439 1440
f 1433 1434 1438 1437
f 1434 1435 1439 1438
f 1435 1436 1440 1439
f 1436 1433 1437 1440
o Tool.Head
v 0.09 1.25 0.98
v 0.09 1.25 1.03
v 0.24 1.25 1.03
v 0.24 1.25 0.98
v 0.09 1.38 0.98
v 0.09 1.38 1.03
v 0.15 1.38 1.03
v 0.15 1.38 0.98
usemtl Iron
s off
f 1444 1443 1442 1441
f 1445 1446 1447 1448
f 1441 1442 1446 1445
f 1442 1443 1447 1446
f 1443 1444 1448 1447
f 1444 1441 1445 1448
o Saw.Blade
v -0.95 1.6 1.01
v -0.95 1.6 1.03
v -0.2 1.6 1.03
v -0.2 1.6 1.01
v -0.95 1.7 1.01
v -0.95 1.7 1.03
v -0.35 1.7 1.03
v -0.35 1.7 1.01
usemtl Iron
s off
f 1452 1451 1450 1449
f 1453 1454 1455 1456
f 1449 1450 1454 1453
f 1450 1451 1455 1454
f 1451 1452 1456 1455
f 1452 1449 1453 1456
o Saw.Handle
v -0.2 1.6 1
v -0.2 1.6 1.04
v -0.08 1.6 1.04
v -0.08 1.6 1
v -0.2 1.78 1
v -0.2 1.78 1.04
v -0.08 1.78 1.04
v -0.08 1.78 1
usemtl WoodLight
s off
f 1460 1459 1458 1457
f 1461 1462 1463 1464
f 1457 1458 1462 1461
f 1458 1459 1463 1462
f 1459 1460 1464 1463
f 1460 1457 1461 1464
o Block
v 1.535 0 1.943
v 1.426 0 2.093
v 1.25 0 2.15
v 1.074 0 2.093
v 0.965 0 1.943
v 0.965 0 1.757
v 1.074 0 1.607
v 1.25 0 1.55
v 1.426 0 1.607
v 1.535 0 1.757
v 1.535 0.5 1.943
v 1.426 0.5 2.093
v 1.25 0.5 2.15
v 1.074 0.5 2.093
v 0.965 0.5 1.943
v 0.965 0.5 1.757
v 1.074 0.5 1.607
v 1.25 0.5 1.55
v 1.426 0.5 1.607
v 1.535 0.5 1.757
usemtl Bark
s off
f 1474 1473 1472 1471 1470 1469 1468 1467 1466 1465
f 1475 1476 1477 1478 1479 1480 1481 1482 1483 1484
f 1465 1466 1476 1475
f 1466 1467 1477 1476
f 1467 1468 1478 1477
f 1468 1469 1479 1478
f 1469 1470 1480 1479
f 1470 1471 1481 1480
f 1471 1472 1482 1481
f 1472 1473 1483 1482
f 1473 1474 1484 1483
f 1474 1465 1475 1484
o Block.Top
v 1.516 0.5 1.937
v 1.415 0.5 2.077
v 1.25 0.5 2.13
v 1.085 0.5 2.077
v 0.984 0.5 1.937
v 0.984 0.5 1.763
v 1.085 0.5 1.623
v 1.25 0.5 1.57
v 1.415 0.5 1.623
v 1.516 0.5 1.763
v 1.516 0.52 1.937
v 1.415 0.52 2.077
v 1.25 0.52 2.13
v 1.085 0.52 2.077
v 0.984 0.52 1.937
v 0.984 0.52 1.763
v 1.085 0.52 1.623
v 1.25 0.52 1.57
v 1.415 0.52 1.623
v 1.516 0.52 1.763
usemtl LogEnd
s off
f 1494 1493 1492 1491 1490 1489 1488 1487 1486 1485
f 1495 1496 1497 1498 1499 1500 1501 1502 1503 1504
f 1485 1486 1496 1495
f 1486 1487 1497 1496
f 1487 1488 1498 1497
f 1488 1489 1499 1498
f 1489 1490 1500 1499
f 1490 1491 1501 1500
f 1491 1492 1502 1501
f 1492 1493 1503 1502
f 1493 1494 1504 1503
f 1494 1485 1495 1504
o Axe.Handle
v 1.169 0.517 1.805
v 1.205 0.517 1.769
v 1.231 0.483 1.795
v 1.195 0.483 1.831
v 1.519 1.067 2.155
v 1.555 1.067 2.119
v 1.581 1.033 2.145
v 1.545 1.033 2.181
usemtl WoodLight
s off
f 1508 1507 1506 1505
f 1509 1510 1511 1512
f 1505 1506 1510 1509
f 1506 1507 1511 1510
f 1507 1508 1512 1511
f 1508 1505 1509 1512
o Axe.Head
v 1.1 0.47 1.75
v 1.1 0.47 1.83
v 1.3 0.47 1.83
v 1.3 0.47 1.75
v 1.14 0.6 1.75
v 1.14 0.6 1.83
v 1.26 0.6 1.83
v 1.26 0.6 1.75
usemtl Iron
s off
f 1516 1515 1514 1513
f 1517 1518 1519 1520
f 1513 1514 1518 1517
f 1514 1515 1519 1518
f 1515 1516 1520 1519
f 1516 1513 1517 1520
o Firewood
v 1.83 0 1.6
v 1.71 0 1.661
v 1.71 0 1.539
v 1.83 0.14 1.6
v 1.71 0.14 1.661
v 1.71 0.14 1.539
usemtl Bark
s off
f 1523 1522 1521
f 1524 1525 1526
f 1521 1522 1525 1524
f 1522 1523 1526 1525
f 1523 1521 1524 1526
o Firewood
v 1.973 0 1.659
v 1.85 0 1.603
v 1.967 0 1.538
v 1.973 0.14 1.659
v 1.85 0.14 1.603
v 1.967 0.14 1.538
usemtl LogEnd
s off
f 1529 1528 1527
f 1530 1531 1532
f 1527 1528 1531 1530
f 1528 1529 1532 1531
f 1529 1527 1530 1532
o Firewood
v 2.077 0 1.664
v 2.064 0 1.543
v 2.19 0 1.593
v 2.077 0.14 1.664
v 2.064 0.14 1.543
v 2.19 0.14 1.593
usemtl Bark
s off
f 1535 1534 1533
f 1536 1537 1538
f 1533 1534 1537 1536
f 1534 1535 1538 1537
f 1535 1533 1536 1538
o Firewood
v 1.671 0 1.81
v 1.78 0 1.735
v 1.799 0 1.855
v 1.671 0.14 1.81
v 1.78 0.14 1.735
v 1.799 0.14 1.855
usemtl LogEnd
s off
f 1541 1540 1539
f 1542 1543 1544
f 1539 1540 1543 1542
f 1540 1541 1544 1543
f 1541 1539 1542 1544
o Firewood
v 1.878 0 1.747
v 2.009 0 1.787
v 1.904 0 1.866
v 1.878 0.14 1.747
v 2.009 0.14 1.787
v 1.904 0.14 1.866
usemtl Bark
s off
f 1547 1546 1545
f 1548 1549 1550
f 1545 1546 1549 1548
f 1546 1547 1550 1549
f 1547 1545 1548 1550
o Firewood
v 2.133 0 1.733
v 2.165 0 1.851
v 2.032 0 1.816
v 2.133 0.14 1.733
v 2.165 0.14 1.851
v 2.032 0.14 1.816
usemtl LogEnd
s off
f 1553 1552 1551
f 1554 1555 1556
f 1551 1552 1555 1554
f 1552 1553 1556 1555
f 1553 1551 1554 1556
o Firewood
v 1.827 0.14 1.98
v 1.731 0.14 2.068
v 1.692 0.14 1.952
v 1.827 0.28 1.98
v 1.731 0.28 2.068
v 1.692 0.28 1.952
usemtl Bark
s off
f 1559 1558 1557
f 1560 1561 1562
f 1557 1558 1561 1560
f 1558 1559 1562 1561
f 1559 1557 1560 1562
o Sawhorse.Leg
v -1.285 0.017 1.569
v -1.215 0.017 1.569
v -1.215 -0.017 1.631
v -1.285 -0.017 1.631
v -1.285 0.817 2.019
v -1.215 0.817 2.019
v -1.215 0.783 2.081
v -1.285 0.783 2.081
usemtl Wood
s off
f 1566 1565 1564 1563
f 1567 1568 1569 1570
f 1563 1564 1568 1567
f 1564 1565 1569 1568
f 1565 1566 1570 1569
f 1566 1563 1567 1570
o Sawhorse.Leg
v -1.215 0.017 2.131
v -1.285 0.017 2.131
v -1.285 -0.017 2.069
v -1.215 -0.017 2.069
v -1.215 0.817 1.681
v -1.285 0.817 1.681
v -1.285 0.783 1.619
v -1.215 0.783 1.619
usemtl Wood
s off
f 1574 1573 1572 1571
f 1575 1576 1577 1578
f 1571 1572 1576 1575
f 1572 1573 1577 1576
f 1573 1574 1578 1577
f 1574 1571 1575 1578
o Sawhorse.Leg
v -0.585 0.017 1.569
v -0.515 0.017 1.569
v -0.515 -0.017 1.631
v -0.585 -0.017 1.631
v -0.585 0.817 2.019
v -0.515 0.817 2.019
v -0.515 0.783 2.081
v -0.585 0.783 2.081
usemtl Wood
s off
f 1582 1581 1580 1579
f 1583 1584 1585 1586
f 1579 1580 1584 1583
f 1580 1581 1585 1584
f 1581 1582 1586 1585
f 1582 1579 1583 1586
o Sawhorse.Leg
v -0.515 0.017 2.131
v -0.585 0.017 2.131
v -0.585 -0.017 2.069
v -0.515 -0.017 2.069
v -0.515 0.817 1.681
v -0.585 0.817 1.681
v -0.585 0.783 1.619
v -0.515 0.783 1.619
usemtl Wood
s off
f 1590 1589 1588 1587
f 1591 1592 1593 1594
f 1587 1588 1592 1591
f 1588 1589 1593 1592
f 1589 1590 1594 1593
f 1590 1587 1591 1594
o Log
v -1.7 0.954 1.979
v -1.7 1.029 1.904
v -1.7 1.029 1.796
v -1.7 0.954 1.721
v -1.7 0.846 1.721
v -1.7 0.771 1.796
v -1.7 0.771 1.904
v -1.7 0.846 1.979
v -0.05 0.954 1.979
v -0.05 1.029 1.904
v -0.05 1.029 1.796
v -0.05 0.954 1.721
v -0.05 0.846 1.721
v -0.05 0.771 1.796
v -0.05 0.771 1.904
v -0.05 0.846 1.979
usemtl Bark
s off
f 1602 1601 1600 1599 1598 1597 1596 1595
f 1603 1604 1605 1606 1607 1608 1609 1610
f 1595 1596 1604 1603
f 1596 1597 1605 1604
f 1597 1598 1606 1605
f 1598 1599 1607 1606
f 1599 1600 1608 1607
f 1600 1601 1609 1608
f 1601 1602 1610 1609
f 1602 1595 1603 1610
o Log.End
v -1.712 0.947 1.964
v -1.712 1.014 1.897
v -1.712 1.014 1.803
v -1.712 0.947 1.736
v -1.712 0.853 1.736
v -1.712 0.786 1.803
v -1.712 0.786 1.897
v -1.712 0.853 1.964
v -1.7 0.947 1.964
v -1.7 1.014 1.897
v -1.7 1.014 1.803
v -1.7 0.947 1.736
v -1.7 0.853 1.736
v -1.7 0.786 1.803
v -1.7 0.786 1.897
v -1.7 0.853 1.964
usemtl LogEnd
s off
f 1618 1617 1616 1615 1614 1613 1612 1611
f 1619 1620 1621 1622 1623 1624 1625 1626
f 1611 1612 1620 1619
f 1612 1613 1621 1620
f 1613 1614 1622 1621
f 1614 1615 1623 1622
f 1615 1616 1624 1623
f 1616 1617 1625 1624
f 1617 1618 1626 1625
f 1618 1611 1619 1626
o Log.End
v -0.05 0.947 1.964
v -0.05 1.014 1.897
v -0.05 1.014 1.803
v -0.05 0.947 1.736
v -0.05 0.853 1.736
v -0.05 0.786 1.803
v -0.05 0.786 1.897
v -0.05 0.853 1.964
v -0.038 0.947 1.964
v -0.038 1.014 1.897
v -0.038 1.014 1.803
v -0.038 0.947 1.736
v -0.038 0.853 1.736
v -0.038 0.786 1.803
v -0.038 0.786 1.897
v -0.038 0.853 1.964
usemtl LogEnd
s off
f 1634 1633 1632 1631 1630 1629 1628 1627
f 1635 1636 1637 1638 1639 1640 1641 1642
f 1627 1628 1636 1635
f 1628 1629 1637 1636
f 1629 1630 1638 1637
f 1630 1631 1639 1638
f 1631 1632 1640 1639
f 1632 1633 1641 1640
f 1633 1634 1642 1641
f 1634 1627 1635 1642
o Lantern
v -0.07 1.83 1.1
v -0.07 1.83 1.24
v 0.07 1.83 1.24
v 0.07 1.83 1.1
v -0.07 1.85 1.1
v -0.07 1.85 1.24
v 0.07 1.85 1.24
v 0.07 1.85 1.1
usemtl Iron
s off
f 1646 1645 1644 1643
f 1647 1648 1649 1650
f 1643 1644 1648 1647
f 1644 1645 1649 1648
f 1645 1646 1650 1649
f 1646 1643 1647 1650
o Lantern.Flame
v -0.05 1.85 1.12
v -0.05 1.85 1.22
v 0.05 1.85 1.22
v 0.05 1.85 1.12
v -0.05 1.99 1.12
v -0.05 1.99 1.22
v 0.05 1.99 1.22
v 0.05 1.99 1.12
usemtl Flame
s off
f 1654 1653 1652 1651
f 1655 1656 1657 1658
f 1651 1652 1656 1655
f 1652 1653 1657 1656
f 1653 1654 1658 1657
f 1654 1651 1655 1658
o Lantern.Cap
v -0.08 1.99 1.09
v -0.08 1.99 1.25
v 0.08 1.99 1.25
v 0.08 1.99 1.09
v -0.02 2.05 1.15
v -0.02 2.05 1.19
v 0.02 2.05 1.19
v 0.02 2.05 1.15
usemtl Iron
s off
f 1662 1661 1660 1659
f 1663 1664 1665 1666
f 1659 1660 1664 1663
f 1660 1661 1665 1664
f 1661 1662 1666 1665
f 1662 1659 1663 1666
o Lantern.Chain
v -0.01 2.05 1.15
v -0.01 2.05 1.19
v 0.01 2.05 1.19
v 0.01 2.05 1.15
v -0.01 2.21 1.15
v -0.01 2.21 1.19
v 0.01 2.21 1.19
v 0.01 2.21 1.15
usemtl Iron
s off
f 1670 1669 1668 1667
f 1671 1672 1673 1674
f 1667 1668 1672 1671
f 1668 1669 1673 1672
f 1669 1670 1674 1673
f 1670 1667 1671 1674
o Ivy
v 2.412 0.1 1.08
v 2.37 0.1 1.122
v 2.37 0.1 1.178
v 2.412 0.1 1.22
v 2.468 0.1 1.22
v 2.51 0.1 1.178
v 2.51 0.1 1.122
v 2.468 0.1 1.08
v 2.412 0.198 1.08
v 2.37 0.198 1.122
v 2.37 0.198 1.178
v 2.412 0.198 1.22
v 2.468 0.198 1.22
v 2.51 0.198 1.178
v 2.51 0.198 1.122
v 2.468 0.198 1.08
usemtl IvyDark
s off
f 1682 1681 1680 1679 1678 1677 1676 1675
f 1683 1684 1685 1686 1687 1688 1689 1690
f 1675 1676 1684 1683
f 1676 1677 1685 1684
f 1677 1678 1686 1685
f 1678 1679 1687 1686
f 1679 1680 1688 1687
f 1680 1681 1689 1688
f 1681 1682 1690 1689
f 1682 1675 1683 1690
o Ivy
v 2.219 0.28 1.192
v 2.165 0.28 1.246
v 2.165 0.28 1.318
v 2.219 0.28 1.372
v 2.291 0.28 1.372
v 2.345 0.28 1.318
v 2.345 0.28 1.246
v 2.291 0.28 1.192
v 2.219 0.406 1.192
v 2.165 0.406 1.246
v 2.165 0.406 1.318
v 2.219 0.406 1.372
v 2.291 0.406 1.372
v 2.345 0.406 1.318
v 2.345 0.406 1.246
v 2.291 0.406 1.192
usemtl Ivy
s off
f 1698 1697 1696 1695 1694 1693 1692 1691
f 1699 1700 1701 1702 1703 1704 1705 1706
f 1691 1692 1700 1699
f 1692 1693 1701 1700
f 1693 1694 1702 1701
f 1694 1695 1703 1702
f 1695 1696 1704 1703
f 1696 1697 1705 1704
f 1697 1698 1706 1705
f 1698 1691 1699 1706
o Ivy
v 2.145 0.46 0.954
v 2.079 0.46 1.02
v 2.079 0.46 1.108
v 2.145 0.46 1.174
v 2.233 0.46 1.174
v 2.299 0.46 1.108
v 2.299 0.46 1.02
v 2.233 0.46 0.954
v 2.145 0.614 0.954
v 2.079 0.614 1.02
v 2.079 0.614 1.108
v 2.145 0.614 1.174
v 2.233 0.614 1.174
v 2.299 0.614 1.108
v 2.299 0.614 1.02
v 2.233 0.614 0.954
usemtl IvyDark
s off
f 1714 1713 1712 1711 1710 1709 1708 1707
f 1715 1716 1717 1718 1719 1720 1721 1722
f 1707 1708 1716 1715
f 1708 1709 1717 1716
f 1709 1710 1718 1717
f 1710 1711 1719 1718
f 1711 1712 1720 1719
f 1712 1713 1721 1720
f 1713 1714 1722 1721
f 1714 1707 1715 1722
o Ivy
v 2.389 0.64 1.003
v 2.347 0.64 1.045
v 2.347 0.64 1.101
v 2.389 0.64 1.143
v 2.445 0.64 1.143
v 2.487 0.64 1.101
v 2.487 0.64 1.045
v 2.445 0.64 1.003
v 2.389 0.738 1.003
v 2.347 0.738 1.045
v 2.347 0.738 1.101
v 2.389 0.738 1.143
v 2.445 0.738 1.143
v 2.487 0.738 1.101
v 2.487 0.738 1.045
v 2.445 0.738 1.003
usemtl Ivy
s off
f 1730 1729 1728 1727 1726 1725 1724 1723
f 1731 1732 1733 1734 1735 1736 1737 1738
f 1723 1724 1732 1731
f 1724 1725 1733 1732
f 1725 1726 1734 1733
f 1726 1727 1735 1734
f 1727 1728 1736 1735
f 1728 1729 1737 1736
f 1729 1730 1738 1737
f 1730 1723 1731 1738
o Ivy
v 2.299 0.82 1.196
v 2.245 0.82 1.25
v 2.245 0.82 1.322
v 2.299 0.82 1.376
v 2.371 0.82 1.376
v 2.425 0.82 1.322
v 2.425 0.82 1.25
v 2.371 0.82 1.196
v 2.299 0.946 1.196
v 2.245 0.946 1.25
v 2.245 0.946 1.322
v 2.299 0.946 1.376
v 2.371 0.946 1.376
v 2.425 0.946 1.322
v 2.425 0.946 1.25
v 2.371 0.946 1.196
usemtl IvyDark
s off
f 1746 1745 1744 1743 1742 1741 1740 1739
f 1747 1748 1749 1750 1751 1752 1753 1754
f 1739 1740 1748 1747
f 1740 1741 1749 1748
f 1741 1742 1750 1749
f 1742 1743 1751 1750
f 1743 1744 1752 1751
f 1744 1745 1753 1752
f 1745 1746 1754 1753
f 1746 1739 1747 1754
o Ivy
v 2.116 1 1.029
v 2.05 1 1.095
v 2.05 1 1.183
v 2.116 1 1.249
v 2.204 1 1.249
v 2.27 1 1.183
v 2.27 1 1.095
v 2.204 1 1.029
v 2.116 1.154 1.029
v 2.05 1.154 1.095
v 2.05 1.154 1.183
v 2.116 1.154 1.249
v 2.204 1.154 1.249
v 2.27 1.154 1.183
v 2.27 1.154 1.095
v 2.204 1.154 1.029
usemtl Ivy
s off
f 1762 1761 1760 1759 1758 1757 1756 1755
f 1763 1764 1765 1766 1767 1768 1769 1770
f 1755 1756 1764 1763
f 1756 1757 1765 1764
f 1757 1758 1766 1765
f 1758 1759 1767 1766
f 1759 1760 1768 1767
f 1760 1761 1769 1768
f 1761 1762 1770 1769
f 1762 1755 1763 1770
o Ivy
v 2.327 1.18 0.951
v 2.285 1.18 0.993
v 2.285 1.18 1.049
v 2.327 1.18 1.091
v 2.383 1.18 1.091
v 2.425 1.18 1.049
v 2.425 1.18 0.993
v 2.383 1.18 0.951
v 2.327 1.278 0.951
v 2.285 1.278 0.993
v 2.285 1.278 1.049
v 2.327 1.278 1.091
v 2.383 1.278 1.091
v 2.425 1.278 1.049
v 2.425 1.278 0.993
v 2.383 1.278 0.951
usemtl IvyDark
s off
f 1778 1777 1776 1775 1774 1773 1772 1771
f 1779 1780 1781 1782 1783 1784 1785 1786
f 1771 1772 1780 1779
f 1772 1773 1781 1780
f 1773 1774 1782 1781
f 1774 1775 1783 1782
f 1775 1776 1784 1783
f 1776 1777 1785 1784
f 1777 1778 1786 1785
f 1778 1771 1779 1786
o Ivy
v 2.368 1.36 1.154
v 2.314 1.36 1.208
v 2.314 1.36 1.28
v 2.368 1.36 1.334
v 2.44 1.36 1.334
v 2.494 1.36 1.28
v 2.494 1.36 1.208
v 2.44 1.36 1.154
v 2.368 1.486 1.154
v 2.314 1.486 1.208
v 2.314 1.486 1.28
v 2.368 1.486 1.334
v 2.44 1.486 1.334
v 2.494 1.486 1.28
v 2.494 1.486 1.208
v 2.44 1.486 1.154
usemtl Ivy
s off
f 1794 1793 1792 1791 1790 1789 1788 1787
f 1795 1796 1797 1798 1799 1800 1801 1802
f 1787 1788 1796 1795
f 1788 1789 1797 1796
f 1789 1790 1798 1797
f 1790 1791 1799 1798
f 1791 1792 1800 1799
f 1792 1793 1801 1800
f 1793 1794 1802 1801
f 1794 1787 1795 1802
o Ivy
v 2.134 1.54 1.108
v 2.068 1.54 1.174
v 2.068 1.54 1.262
v 2.134 1.54 1.328
v 2.222 1.54 1.328
v 2.288 1.54 1.262
v 2.288 1.54 1.174
v 2.222 1.54 1.108
v 2.134 1.694 1.108
v 2.068 1.694 1.174
v 2.068 1.694 1.262
v 2.134 1.694 1.328
v 2.222 1.694 1.328
v 2.288 1.694 1.262
v 2.288 1.694 1.174
v 2.222 1.694 1.108
usemtl IvyDark
s off
f 1810 1809 1808 1807 1806 1805 1804 1803
f 1811 1812 1813 1814 1815 1816 1817 1818
f 1803 1804 1812 1811
f 1804 1805 1813 1812
f 1805 1806 1814 1813
f 1806 1807 1815 1814
f 1807 1808 1816 1815
f 1808 1809 1817 1816
f 1809 1810 1818 1817
f 1810 1803 1811 1818
o Ivy
v 2.247 1.72 0.942
v 2.205 1.72 0.984
v 2.205 1.72 1.04
v 2.247 1.72 1.082
v 2.303 1.72 1.082
v 2.345 1.72 1.04
v 2.345 1.72 0.984
v 2.303 1.72 0.942
v 2.247 1.818 0.942
v 2.205 1.818 0.984
v 2.205 1.818 1.04
v 2.247 1.818 1.082
v 2.303 1.818 1.082
v 2.345 1.818 1.04
v 2.345 1.818 0.984
v 2.303 1.818 0.942
usemtl Ivy
s off
f 1826 1825 1824 1823 1822 1821 1820 1819
f 1827 1828 1829 1830 1831 1832 1833 1834
f 1819 1820 1828 1827
f 1820 1821 1829 1828
f 1821 1822 1830 1829
f 1822 1823 1831 1830
f 1823 1824 1832 1831
f 1824 1825 1833 1832
f 1825 1826 1834 1833
f 1826 1819 1827 1834
o Ivy
v 2.402 1.9 1.081
v 2.348 1.9 1.135
v 2.348 1.9 1.207
v 2.402 1.9 1.261
v 2.474 1.9 1.261
v 2.528 1.9 1.207
v 2.528 1.9 1.135
v 2.474 1.9 1.081
v 2.402 2.026 1.081
v 2.348 2.026 1.135
v 2.348 2.026 1.207
v 2.402 2.026 1.261
v 2.474 2.026 1.261
v 2.528 2.026 1.207
v 2.528 2.026 1.135
v 2.474 2.026 1.081
usemtl IvyDark
s off
f 1842 1841 1840 1839 1838 1837 1836 1835
f 1843 1844 1845 1846 1847 1848 1849 1850
f 1835 1836 1844 1843
f 1836 1837 1845 1844
f 1837 1838 1846 1845
f 1838 1839 1847 1846
f 1839 1840 1848 1847
f 1840 1841 1849 1848
f 1841 1842 1850 1849
f 1842 1835 1843 1850
o Ivy
v 2.191 2.08 1.164
v 2.125 2.08 1.23
v 2.125 2.08 1.318
v 2.191 2.08 1.384
v 2.279 2.08 1.384
v 2.345 2.08 1.318
v 2.345 2.08 1.23
v 2.279 2.08 1.164
v 2.191 2.234 1.164
v 2.125 2.234 1.23
v 2.125 2.234 1.318
v 2.191 2.234 1.384
v 2.279 2.234 1.384
v 2.345 2.234 1.318
v 2.345 2.234 1.23
v 2.279 2.234 1.164
usemtl Ivy
s off
f 1858 1857 1856 1855 1854 1853 1852 1851
f 1859 1860 1861 1862 1863 1864 1865 1866
f 1851 1852 1860 1859
f 1852 1853 1861 1860
f 1853 1854 1862 1861
f 1854 1855 1863 1862
f 1855 1856 1864 1863
f 1856 1857 1865 1864
f 1857 1858 1866 1865
f 1858 1851 1859 1866
o Entry
v 0.32 0 1.5
v 0.32 0 1.55
v 0.38 0 1.55
v 0.38 0 1.5
v 0.32 0.05 1.5
v 0.32 0.05 1.55
v 0.38 0.05 1.55
v 0.38 0.05 1.5
usemtl Soot
s off
f 1870 1869 1868 1867
f 1871 1872 1873 1874
f 1867 1868 1872 1871
f 1868 1869 1873 1872
f 1869 1870 1874 1873
f 1870 1867 1871 1874
