# marker_arrow.obj - Hinweispfeil fuer procedurally-generated-map
# Einheiten: Meter (1 Tile = 5 m, Tueren 2.1 m, ein Dorfbewohner 1.75 m), Y oben,
# Vorderseite nach +Z - so wie Blender ein Modell exportiert, das in der
# Vorderansicht zum Betrachter schaut.
# Material Paint bekommt die Farbe des Hinweises aus dem Spiel.
mtllib marker_arrow.mtl
o Arrow.Head
v 0.009 0 0.004
v 0.004 0 0.009
v -0.004 0 0.009
v -0.009 0 0.004
v -0.009 0 -0.004
v -0.004 0 -0.009
v 0.004 0 -0.009
v 0.009 0 -0.004
v 0.314 0.5 0.13
v 0.13 0.5 0.314
v -0.13 0.5 0.314
v -0.314 0.5 0.13
v -0.314 0.5 -0.13
v -0.13 0.5 -0.314
v 0.13 0.5 -0.314
v 0.314 0.5 -0.13
usemtl Paint
s off
f 8 7 6 5 4 3 2 1
f 9 10 11 12 13 14 15 16
f 1 2 10 9
f 2 3 11 10
f 3 4 12 11
f 4 5 13 12
f 5 6 14 13
f 6 7 15 14
f 7 8 16 15
f 8 1 9 16
o Arrow.Rim
v 0.333 0.5 0.138
v 0.138 0.5 0.333
v -0.138 0.5 0.333
v -0.333 0.5 0.138
v -0.333 0.5 -0.138
v -0.138 0.5 -0.333
v 0.138 0.5 -0.333
v 0.333 0.5 -0.138
v 0.333 0.56 0.138
v 0.138 0.56 0.333
v -0.138 0.56 0.333
v -0.333 0.56 0.138
v -0.333 0.56 -0.138
v -0.138 0.56 -0.333
v 0.138 0.56 -0.333
v 0.333 0.56 -0.138
usemtl Soot
s off
f 24 23 22 21 20 19 18 17
f 25 26 27 28 29 30 31 32
f 17 18 26 25
f 18 19 27 26
f 19 20 28 27
f 20 21 29 28
f 21 22 30 29
f 22 23 31 30
f 23 24 32 31
f 24 17 25 32
o Arrow.Shaft
v 0.129 0.56 0.054
v 0.054 0.56 0.129
v -0.054 0.56 0.129
v -0.129 0.56 0.054
v -0.129 0.56 -0.054
v -0.054 0.56 -0.129
v 0.054 0.56 -0.129
v 0.129 0.56 -0.054
v 0.129 1.25 0.054
v 0.054 1.25 0.129
v -0.054 1.25 0.129
v -0.129 1.25 0.054
v -0.129 1.25 -0.054
v -0.054 1.25 -0.129
v 0.054 1.25 -0.129
v 0.129 1.25 -0.054
usemtl Paint
s off
f 40 39 38 37 36 35 34 33
f 41 42 43 44 45 46 47 48
f 33 34 42 41
f 34 35 43 42
f 35 36 44 43
f 36 37 45 44
f 37 38 46 45
f 38 39 47 46
f 39 40 48 47
f 40 33 41 48
o Arrow.Cap
v 0.148 1.25 0.061
v 0.061 1.25 0.148
v -0.061 1.25 0.148
v -0.148 1.25 0.061
v -0.148 1.25 -0.061
v -0.061 1.25 -0.148
v 0.061 1.25 -0.148
v 0.148 1.25 -0.061
v 0.148 1.3 0.061
v 0.061 1.3 0.148
v -0.061 1.3 0.148
v -0.148 1.3 0.061
v -0.148 1.3 -0.061
v -0.061 1.3 -0.148
v 0.061 1.3 -0.148
v 0.148 1.3 -0.061
usemtl Soot
s off
f 56 55 54 53 52 51 50 49
f 57 58 59 60 61 62 63 64
f 49 50 58 57
f 50 51 59 58
f 51 52 60 59
f 52 53 61 60
f 53 54 62 61
f 54 55 63 62
f 55 56 64 63
f 56 49 57 64
