# mining_camp.obj - Minenlager fuer procedurally-generated-map
# Einheiten: Meter, Y oben, Vorderseite nach +Z - so wie Blender ein Modell
# exportiert, das in der Vorderansicht zum Betrachter schaut.
# Material Paint (das Dach) bekommt die Gebaeudefarbe aus dem Spiel.
mtllib mining_camp.mtl
o Floor
v -1.40000 0.00000 -1.05000
v 1.40000 0.00000 -1.05000
v 1.40000 0.12000 -1.05000
v -1.40000 0.12000 -1.05000
v -1.40000 0.00000 0.95000
v 1.40000 0.00000 0.95000
v 1.40000 0.12000 0.95000
v -1.40000 0.12000 0.95000
s off
usemtl Wood
f 1 4 3 2
f 5 6 7 8
f 1 2 6 5
f 4 8 7 3
f 1 5 8 4
f 2 3 7 6
o Posts
v -1.38000 0.12000 -1.03000
v -1.22000 0.12000 -1.03000
v -1.22000 1.85000 -1.03000
v -1.38000 1.85000 -1.03000
v -1.38000 0.12000 -0.87000
v -1.22000 0.12000 -0.87000
v -1.22000 1.85000 -0.87000
v -1.38000 1.85000 -0.87000
s off
usemtl Timber
f 9 12 11 10
f 13 14 15 16
f 9 10 14 13
f 12 16 15 11
f 9 13 16 12
f 10 11 15 14
v 1.22000 0.12000 -1.03000
v 1.38000 0.12000 -1.03000
v 1.38000 1.85000 -1.03000
v 1.22000 1.85000 -1.03000
v 1.22000 0.12000 -0.87000
v 1.38000 0.12000 -0.87000
v 1.38000 1.85000 -0.87000
v 1.22000 1.85000 -0.87000
s off
usemtl Timber
f 17 20 19 18
f 21 22 23 24
f 17 18 22 21
f 20 24 23 19
f 17 21 24 20
f 18 19 23 22
v -1.38000 0.12000 0.77000
v -1.22000 0.12000 0.77000
v -1.22000 1.85000 0.77000
v -1.38000 1.85000 0.77000
v -1.38000 0.12000 0.93000
v -1.22000 0.12000 0.93000
v -1.22000 1.85000 0.93000
v -1.38000 1.85000 0.93000
s off
usemtl Timber
f 25 28 27 26
f 29 30 31 32
f 25 26 30 29
f 28 32 31 27
f 25 29 32 28
f 26 27 31 30
v 1.22000 0.12000 0.77000
v 1.38000 0.12000 0.77000
v 1.38000 1.85000 0.77000
v 1.22000 1.85000 0.77000
v 1.22000 0.12000 0.93000
v 1.38000 0.12000 0.93000
v 1.38000 1.85000 0.93000
v 1.22000 1.85000 0.93000
s off
usemtl Timber
f 33 36 35 34
f 37 38 39 40
f 33 34 38 37
f 36 40 39 35
f 33 37 40 36
f 34 35 39 38
v -1.38000 1.71000 0.77000
v 1.38000 1.71000 0.77000
v 1.38000 1.85000 0.77000
v -1.38000 1.85000 0.77000
v -1.38000 1.71000 0.93000
v 1.38000 1.71000 0.93000
v 1.38000 1.85000 0.93000
v -1.38000 1.85000 0.93000
s off
usemtl Timber
f 41 44 43 42
f 45 46 47 48
f 41 42 46 45
f 44 48 47 43
f 41 45 48 44
f 42 43 47 46
o Wall
v -1.30000 0.12000 -1.03000
v 1.30000 0.12000 -1.03000
v 1.30000 1.75000 -1.03000
v -1.30000 1.75000 -1.03000
v -1.30000 0.12000 -0.93000
v 1.30000 0.12000 -0.93000
v 1.30000 1.75000 -0.93000
v -1.30000 1.75000 -0.93000
s off
usemtl Wood
f 49 52 51 50
f 53 54 55 56
f 49 50 54 53
f 52 56 55 51
f 49 53 56 52
f 50 51 55 54
o Roof
v -1.55000 1.62895 1.25000
v 1.55000 1.62895 1.25000
v 1.55000 1.72895 1.25000
v -1.55000 1.72895 1.25000
v -1.55000 2.55000 -0.05000
v 1.55000 2.55000 -0.05000
v 1.55000 2.65000 -0.05000
v -1.55000 2.65000 -0.05000
s off
usemtl Paint
f 58 59 60 57
f 64 63 62 61
f 61 62 58 57
f 59 63 64 60
f 60 64 61 57
f 62 63 59 58
v -1.55000 1.62895 -1.35000
v 1.55000 1.62895 -1.35000
v 1.55000 1.72895 -1.35000
v -1.55000 1.72895 -1.35000
v -1.55000 2.55000 -0.05000
v 1.55000 2.55000 -0.05000
v 1.55000 2.65000 -0.05000
v -1.55000 2.65000 -0.05000
s off
usemtl Paint
f 65 68 67 66
f 69 70 71 72
f 65 66 70 69
f 68 72 71 67
f 65 69 72 68
f 66 67 71 70
o Stone
v -1.25000 0.12000 -0.82500
v -0.75000 0.12000 -0.82500
v -0.75000 0.47000 -0.82500
v -1.25000 0.47000 -0.82500
v -1.25000 0.12000 -0.37500
v -0.75000 0.12000 -0.37500
v -0.75000 0.47000 -0.37500
v -1.25000 0.47000 -0.37500
s off
usemtl Stone
f 73 76 75 74
f 77 78 79 80
f 73 74 78 77
f 76 80 79 75
f 73 77 80 76
f 74 75 79 78
v -0.67500 0.12000 -0.83000
v -0.22500 0.12000 -0.83000
v -0.22500 0.47000 -0.83000
v -0.67500 0.47000 -0.83000
v -0.67500 0.12000 -0.41000
v -0.22500 0.12000 -0.41000
v -0.22500 0.47000 -0.41000
v -0.67500 0.47000 -0.41000
s off
usemtl Stone
f 81 84 83 82
f 85 86 87 88
f 81 82 86 85
f 84 88 87 83
f 81 85 88 84
f 82 83 87 86
v -0.96000 0.47000 -0.80000
v -0.48000 0.47000 -0.80000
v -0.48000 0.79000 -0.80000
v -0.96000 0.79000 -0.80000
v -0.96000 0.47000 -0.40000
v -0.48000 0.47000 -0.40000
v -0.48000 0.79000 -0.40000
v -0.96000 0.79000 -0.40000
s off
usemtl Stone
f 89 92 91 90
f 93 94 95 96
f 89 90 94 93
f 92 96 95 91
f 89 93 96 92
f 90 91 95 94
v -1.26000 0.12000 -0.30000
v -0.84000 0.12000 -0.30000
v -0.84000 0.42000 -0.30000
v -1.26000 0.42000 -0.30000
v -1.26000 0.12000 0.10000
v -0.84000 0.12000 0.10000
v -0.84000 0.42000 0.10000
v -1.26000 0.42000 0.10000
s off
usemtl Stone
f 97 100 99 98
f 101 102 103 104
f 97 98 102 101
f 100 104 103 99
f 97 101 104 100
f 98 99 103 102
v -0.74000 0.12000 -0.26000
v -0.36000 0.12000 -0.26000
v -0.36000 0.40000 -0.26000
v -0.74000 0.40000 -0.26000
v -0.74000 0.12000 0.10000
v -0.36000 0.12000 0.10000
v -0.36000 0.40000 0.10000
v -0.74000 0.40000 0.10000
s off
usemtl Stone
f 105 108 107 106
f 109 110 111 112
f 105 106 110 109
f 108 112 111 107
f 105 109 112 108
f 106 107 111 110
o Gold
v 1.02500 0.12000 0.02631
v 1.30000 0.12000 -0.45000
v 1.02500 0.12000 -0.92631
v 0.47500 0.12000 -0.92631
v 0.20000 0.12000 -0.45000
v 0.47500 0.12000 0.02631
v 0.75000 0.75000 -0.45000
s off
usemtl Gold
f 113 114 119
f 114 115 119
f 115 116 119
f 116 117 119
f 117 118 119
f 118 113 119
f 118 117 116 115 114 113
v 0.52634 0.12000 0.29271
v 0.63532 0.12000 -0.04271
v 0.35000 0.12000 -0.25000
v 0.06468 0.12000 -0.04271
v 0.17366 0.12000 0.29271
v 0.35000 0.45000 0.05000
s off
usemtl Gold
f 120 121 125
f 121 122 125
f 122 123 125
f 123 124 125
f 124 120 125
f 124 123 122 121 120
o Rails
v 0.25000 0.12000 -0.20000
v 0.31000 0.12000 -0.20000
v 0.31000 0.20000 -0.20000
v 0.25000 0.20000 -0.20000
v 0.25000 0.12000 2.20000
v 0.31000 0.12000 2.20000
v 0.31000 0.20000 2.20000
v 0.25000 0.20000 2.20000
s off
usemtl Iron
f 126 129 128 127
f 130 131 132 133
f 126 127 131 130
f 129 133 132 128
f 126 130 133 129
f 127 128 132 131
v 0.69000 0.12000 -0.20000
v 0.75000 0.12000 -0.20000
v 0.75000 0.20000 -0.20000
v 0.69000 0.20000 -0.20000
v 0.69000 0.12000 2.20000
v 0.75000 0.12000 2.20000
v 0.75000 0.20000 2.20000
v 0.69000 0.20000 2.20000
s off
usemtl Iron
f 134 137 136 135
f 138 139 140 141
f 134 135 139 138
f 137 141 140 136
f 134 138 141 137
f 135 136 140 139
v 0.12000 0.06000 -0.17000
v 0.88000 0.06000 -0.17000
v 0.88000 0.13000 -0.17000
v 0.12000 0.13000 -0.17000
v 0.12000 0.06000 -0.03000
v 0.88000 0.06000 -0.03000
v 0.88000 0.13000 -0.03000
v 0.12000 0.13000 -0.03000
s off
usemtl Timber
f 142 145 144 143
f 146 147 148 149
f 142 143 147 146
f 145 149 148 144
f 142 146 149 145
f 143 144 148 147
v 0.12000 0.06000 0.18000
v 0.88000 0.06000 0.18000
v 0.88000 0.13000 0.18000
v 0.12000 0.13000 0.18000
v 0.12000 0.06000 0.32000
v 0.88000 0.06000 0.32000
v 0.88000 0.13000 0.32000
v 0.12000 0.13000 0.32000
s off
usemtl Timber
f 150 153 152 151
f 154 155 156 157
f 150 151 155 154
f 153 157 156 152
f 150 154 157 153
f 151 152 156 155
v 0.12000 0.06000 0.53000
v 0.88000 0.06000 0.53000
v 0.88000 0.13000 0.53000
v 0.12000 0.13000 0.53000
v 0.12000 0.06000 0.67000
v 0.88000 0.06000 0.67000
v 0.88000 0.13000 0.67000
v 0.12000 0.13000 0.67000
s off
usemtl Timber
f 158 161 160 159
f 162 163 164 165
f 158 159 163 162
f 161 165 164 160
f 158 162 165 161
f 159 160 164 163
v 0.12000 0.06000 0.88000
v 0.88000 0.06000 0.88000
v 0.88000 0.13000 0.88000
v 0.12000 0.13000 0.88000
v 0.12000 0.06000 1.02000
v 0.88000 0.06000 1.02000
v 0.88000 0.13000 1.02000
v 0.12000 0.13000 1.02000
s off
usemtl Timber
f 166 169 168 167
f 170 171 172 173
f 166 167 171 170
f 169 173 172 168
f 166 170 173 169
f 167 168 172 171
v 0.12000 0.06000 1.23000
v 0.88000 0.06000 1.23000
v 0.88000 0.13000 1.23000
v 0.12000 0.13000 1.23000
v 0.12000 0.06000 1.37000
v 0.88000 0.06000 1.37000
v 0.88000 0.13000 1.37000
v 0.12000 0.13000 1.37000
s off
usemtl Timber
f 174 177 176 175
f 178 179 180 181
f 174 175 179 178
f 177 181 180 176
f 174 178 181 177
f 175 176 180 179
v 0.12000 0.06000 1.58000
v 0.88000 0.06000 1.58000
v 0.88000 0.13000 1.58000
v 0.12000 0.13000 1.58000
v 0.12000 0.06000 1.72000
v 0.88000 0.06000 1.72000
v 0.88000 0.13000 1.72000
v 0.12000 0.13000 1.72000
s off
usemtl Timber
f 182 185 184 183
f 186 187 188 189
f 182 183 187 186
f 185 189 188 184
f 182 186 189 185
f 183 184 188 187
v 0.12000 0.06000 1.93000
v 0.88000 0.06000 1.93000
v 0.88000 0.13000 1.93000
v 0.12000 0.13000 1.93000
v 0.12000 0.06000 2.07000
v 0.88000 0.06000 2.07000
v 0.88000 0.13000 2.07000
v 0.12000 0.13000 2.07000
s off
usemtl Timber
f 190 193 192 191
f 194 195 196 197
f 190 191 195 194
f 193 197 196 192
f 190 194 197 193
f 191 192 196 195
o Cart
v 0.20000 0.30000 1.25000
v 0.80000 0.30000 1.25000
v 0.80000 0.72000 1.25000
v 0.20000 0.72000 1.25000
v 0.20000 0.30000 1.95000
v 0.80000 0.30000 1.95000
v 0.80000 0.72000 1.95000
v 0.20000 0.72000 1.95000
s off
usemtl Wood
f 198 201 200 199
f 202 203 204 205
f 198 199 203 202
f 201 205 204 200
f 198 202 205 201
f 199 200 204 203
v 0.18000 0.62000 1.23000
v 0.82000 0.62000 1.23000
v 0.82000 0.68000 1.23000
v 0.18000 0.68000 1.23000
v 0.18000 0.62000 1.97000
v 0.82000 0.62000 1.97000
v 0.82000 0.68000 1.97000
v 0.18000 0.68000 1.97000
s off
usemtl Iron
f 206 209 208 207
f 210 211 212 213
f 206 207 211 210
f 209 213 212 208
f 206 210 213 209
f 207 208 212 211
v 0.19000 0.37010 1.46975
v 0.19000 0.29975 1.54010
v 0.19000 0.20025 1.54010
v 0.19000 0.12990 1.46975
v 0.19000 0.12990 1.37025
v 0.19000 0.20025 1.29990
v 0.19000 0.29975 1.29990
v 0.19000 0.37010 1.37025
v 0.25000 0.37010 1.46975
v 0.25000 0.29975 1.54010
v 0.25000 0.20025 1.54010
v 0.25000 0.12990 1.46975
v 0.25000 0.12990 1.37025
v 0.25000 0.20025 1.29990
v 0.25000 0.29975 1.29990
v 0.25000 0.37010 1.37025
s off
usemtl Iron
f 214 215 223 222
f 215 216 224 223
f 216 217 225 224
f 217 218 226 225
f 218 219 227 226
f 219 220 228 227
f 220 221 229 228
f 221 214 222 229
f 221 220 219 218 217 216 215 214
f 222 223 224 225 226 227 228 229
v 0.75000 0.37010 1.46975
v 0.75000 0.29975 1.54010
v 0.75000 0.20025 1.54010
v 0.75000 0.12990 1.46975
v 0.75000 0.12990 1.37025
v 0.75000 0.20025 1.29990
v 0.75000 0.29975 1.29990
v 0.75000 0.37010 1.37025
v 0.81000 0.37010 1.46975
v 0.81000 0.29975 1.54010
v 0.81000 0.20025 1.54010
v 0.81000 0.12990 1.46975
v 0.81000 0.12990 1.37025
v 0.81000 0.20025 1.29990
v 0.81000 0.29975 1.29990
v 0.81000 0.37010 1.37025
s off
usemtl Iron
f 230 231 239 238
f 231 232 240 239
f 232 233 241 240
f 233 234 242 241
f 234 235 243 242
f 235 236 244 243
f 236 237 245 244
f 237 230 238 245
f 237 236 235 234 233 232 231 230
f 238 239 240 241 242 243 244 245
v 0.19000 0.37010 1.82975
v 0.19000 0.29975 1.90010
v 0.19000 0.20025 1.90010
v 0.19000 0.12990 1.82975
v 0.19000 0.12990 1.73025
v 0.19000 0.20025 1.65990
v 0.19000 0.29975 1.65990
v 0.19000 0.37010 1.73025
v 0.25000 0.37010 1.82975
v 0.25000 0.29975 1.90010
v 0.25000 0.20025 1.90010
v 0.25000 0.12990 1.82975
v 0.25000 0.12990 1.73025
v 0.25000 0.20025 1.65990
v 0.25000 0.29975 1.65990
v 0.25000 0.37010 1.73025
s off
usemtl Iron
f 246 247 255 254
f 247 248 256 255
f 248 249 257 256
f 249 250 258 257
f 250 251 259 258
f 251 252 260 259
f 252 253 261 260
f 253 246 254 261
f 253 252 251 250 249 248 247 246
f 254 255 256 257 258 259 260 261
v 0.75000 0.37010 1.82975
v 0.75000 0.29975 1.90010
v 0.75000 0.20025 1.90010
v 0.75000 0.12990 1.82975
v 0.75000 0.12990 1.73025
v 0.75000 0.20025 1.65990
v 0.75000 0.29975 1.65990
v 0.75000 0.37010 1.73025
v 0.81000 0.37010 1.82975
v 0.81000 0.29975 1.90010
v 0.81000 0.20025 1.90010
v 0.81000 0.12990 1.82975
v 0.81000 0.12990 1.73025
v 0.81000 0.20025 1.65990
v 0.81000 0.29975 1.65990
v 0.81000 0.37010 1.73025
s off
usemtl Iron
f 262 263 271 270
f 263 264 272 271
f 264 265 273 272
f 265 266 274 273
f 266 267 275 274
f 267 268 276 275
f 268 269 277 276
f 269 262 270 277
f 269 268 267 266 265 264 263 262
f 270 271 272 273 274 275 276 277
v 0.65000 0.72000 1.85981
v 0.80000 0.72000 1.60000
v 0.65000 0.72000 1.34019
v 0.35000 0.72000 1.34019
v 0.20000 0.72000 1.60000
v 0.35000 0.72000 1.85981
v 0.50000 0.95000 1.60000
s off
usemtl Gold
f 278 279 284
f 279 280 284
f 280 281 284
f 281 282 284
f 282 283 284
f 283 278 284
f 283 282 281 280 279 278
o Pickaxe
v -1.14000 0.12000 1.10000
v -1.10000 0.12000 1.10000
v -1.10000 0.12000 1.14000
v -1.14000 0.12000 1.14000
v -1.24000 1.05000 0.92000
v -1.20000 1.05000 0.92000
v -1.20000 1.05000 0.96000
v -1.24000 1.05000 0.96000
s off
usemtl Wood
f 286 287 288 285
f 292 291 290 289
f 289 290 286 285
f 287 291 292 288
f 288 292 289 285
f 290 291 287 286
v -1.27000 0.98000 0.72000
v -1.17000 0.98000 0.72000
v -1.17000 1.06000 0.72000
v -1.27000 1.06000 0.72000
v -1.27000 0.98000 1.16000
v -1.17000 0.98000 1.16000
v -1.17000 1.06000 1.16000
v -1.27000 1.06000 1.16000
s off
usemtl Iron
f 293 296 295 294
f 297 298 299 300
f 293 294 298 297
f 296 300 299 295
f 293 297 300 296
f 294 295 299 298
