# prop_scythe_male.obj - Sense fuer procedurally-generated-map, ein Werkzeug zum Anhaengen
# Meter, Y oben, Blick nach +Z; Ursprung = Mitte der rechten Hand in Ruhelage
# (Arm haengt). Gebaut fuer den Mann: der Stiel liegt in seiner Maeh-Haltung in beiden Haenden. Das Spiel haengt es an die rechte Hand des
# Koerpers, der es traegt (docs/ANIMATION.md, "Werkzeuge als Anhaenge").
mtllib villager.mtl
o Arm.R.Lower.Scythe.Snath
v 0.408 0.055 0.438
v 0.392 0.065 0.45
v 0.379 0.053 0.463
v 0.381 0.031 0.463
v 0.397 0.021 0.45
v 0.41 0.033 0.438
v -0.728 -0.068 -0.862
v -0.745 -0.057 -0.848
v -0.759 -0.071 -0.834
v -0.757 -0.095 -0.834
v -0.74 -0.105 -0.848
v -0.726 -0.092 -0.861
usemtl Wood
s off
f 6 5 4 3 2 1
f 7 8 9 10 11 12
f 1 2 8 7
f 2 3 9 8
f 3 4 10 9
f 4 5 11 10
f 5 6 12 11
f 6 1 7 12
o Arm.R.Lower.Scythe.Blade
v -0.773 -0.084 -0.851
v -0.714 -0.09 -0.855
v -0.712 -0.078 -0.844
v -0.771 -0.072 -0.841
v -0.744 -0.279 -0.622
v -0.694 -0.284 -0.625
v -0.692 -0.272 -0.614
v -0.742 -0.266 -0.612
usemtl Steel
s off
f 16 15 14 13
f 17 18 19 20
f 13 14 18 17
f 14 15 19 18
f 15 16 20 19
f 16 13 17 20
o Arm.R.Lower.Scythe.Blade
v -0.744 -0.279 -0.622
v -0.694 -0.284 -0.625
v -0.692 -0.272 -0.614
v -0.742 -0.266 -0.612
v -0.679 -0.426 -0.456
v -0.644 -0.429 -0.458
v -0.642 -0.417 -0.448
v -0.677 -0.414 -0.446
usemtl Steel
s off
f 24 23 22 21
f 25 26 27 28
f 21 22 26 25
f 22 23 27 26
f 23 24 28 27
f 24 21 25 28
o Arm.R.Lower.Scythe.Blade
v -0.679 -0.426 -0.456
v -0.644 -0.429 -0.458
v -0.642 -0.417 -0.448
v -0.677 -0.414 -0.446
v -0.613 -0.522 -0.352
v -0.601 -0.523 -0.353
v -0.599 -0.511 -0.342
v -0.611 -0.51 -0.342
usemtl Steel
s off
f 32 31 30 29
f 33 34 35 36
f 29 30 34 33
f 30 31 35 34
f 31 32 36 35
f 32 29 33 36
