# prop_axe.obj - Beil fuer procedurally-generated-map, ein Werkzeug zum Anhaengen
# Meter, Y oben, Blick nach +Z; Ursprung = Mitte der rechten Hand in Ruhelage
# (Arm haengt). Gebaut an der Hand des Mannes, passt auf jeden Koerper. Das Spiel haengt es an die rechte Hand des
# Koerpers, der es traegt (docs/ANIMATION.md, "Werkzeuge als Anhaenge").
mtllib villager.mtl
o Arm.R.Lower.Tool.Handle
v -0.01 -0.067 -0.1
v -0.015 -0.067 -0.076
v -0.019 -0.067 -0.01
v -0.02 -0.067 0.08
v -0.02 -0.067 0.44
v -0.019 -0.067 0.53
v -0.015 -0.067 0.596
v -0.01 -0.067 0.62
v 0.01 -0.067 0.62
v 0.015 -0.067 0.596
v 0.019 -0.067 0.53
v 0.02 -0.067 0.44
v 0.02 -0.067 0.08
v 0.019 -0.067 -0.01
v 0.015 -0.067 -0.076
v 0.01 -0.067 -0.1
v -0.01 -0.023 -0.1
v -0.015 -0.023 -0.076
v -0.019 -0.023 -0.01
v -0.02 -0.023 0.08
v -0.02 -0.023 0.44
v -0.019 -0.023 0.53
v -0.015 -0.023 0.596
v -0.01 -0.023 0.62
v 0.01 -0.023 0.62
v 0.015 -0.023 0.596
v 0.019 -0.023 0.53
v 0.02 -0.023 0.44
v 0.02 -0.023 0.08
v 0.019 -0.023 -0.01
v 0.015 -0.023 -0.076
v 0.01 -0.023 -0.1
usemtl Wood
s off
f 16 15 14 13 12 11 10 9 8 7 6 5 4 3 2 1
f 17 18 19 20 21 22 23 24 25 26 27 28 29 30 31 32
f 1 2 18 17
f 2 3 19 18
f 3 4 20 19
f 4 5 21 20
f 5 6 22 21
f 6 7 23 22
f 7 8 24 23
f 8 9 25 24
f 9 10 26 25
f 10 11 27 26
f 11 12 28 27
f 12 13 29 28
f 13 14 30 29
f 14 15 31 30
f 15 16 32 31
f 16 1 17 32
o Arm.R.Lower.Tool.Grip
v -0.013 -0.073 -0.1
v -0.02 -0.073 -0.094
v -0.024 -0.073 -0.078
v -0.026 -0.073 -0.055
v -0.026 -0.073 0.035
v -0.024 -0.073 0.057
v -0.02 -0.073 0.074
v -0.013 -0.073 0.08
v 0.013 -0.073 0.08
v 0.019 -0.073 0.074
v 0.024 -0.073 0.058
v 0.026 -0.073 0.035
v 0.026 -0.073 -0.055
v 0.024 -0.073 -0.077
v 0.019 -0.073 -0.094
v 0.013 -0.073 -0.1
v -0.013 -0.017 -0.1
v -0.02 -0.017 -0.094
v -0.024 -0.017 -0.078
v -0.026 -0.017 -0.055
v -0.026 -0.017 0.035
v -0.024 -0.017 0.057
v -0.02 -0.017 0.074
v -0.013 -0.017 0.08
v 0.013 -0.017 0.08
v 0.019 -0.017 0.074
v 0.024 -0.017 0.058
v 0.026 -0.017 0.035
v 0.026 -0.017 -0.055
v 0.024 -0.017 -0.077
v 0.019 -0.017 -0.094
v 0.013 -0.017 -0.1
usemtl Leather
s off
f 48 47 46 45 44 43 42 41 40 39 38 37 36 35 34 33
f 49 50 51 52 53 54 55 56 57 58 59 60 61 62 63 64
f 33 34 50 49
f 34 35 51 50
f 35 36 52 51
f 36 37 53 52
f 37 38 54 53
f 38 39 55 54
f 39 40 56 55
f 40 41 57 56
f 41 42 58 57
f 42 43 59 58
f 43 44 60 59
f 44 45 61 60
f 45 46 62 61
f 46 47 63 62
f 47 48 64 63
f 48 33 49 64
o Arm.R.Lower.Tool.Wedge
v -0.03 -0.09 0.5
v -0.03 -0.09 0.6
v 0.03 -0.09 0.6
v 0.03 -0.09 0.5
v -0.03 0 0.5
v -0.03 0 0.6
v 0.03 0 0.6
v 0.03 0 0.5
usemtl Iron
s off
f 68 67 66 65
f 69 70 71 72
f 65 66 70 69
f 66 67 71 70
f 67 68 72 71
f 68 65 69 72
o Arm.R.Lower.Tool.Head
v -0.02 -0.245 0.48
v -0.02 -0.245 0.62
v 0.02 -0.245 0.62
v 0.02 -0.245 0.48
v -0.02 0.005 0.52
v -0.02 0.005 0.62
v 0.02 0.005 0.62
v 0.02 0.005 0.52
usemtl Iron
s off
f 76 75 74 73
f 77 78 79 80
f 73 74 78 77
f 74 75 79 78
f 75 76 80 79
f 76 73 77 80
o Arm.R.Lower.Tool.Edge
v -0.011 -0.285 0.42
v -0.011 -0.285 0.49
v 0.011 -0.285 0.49
v 0.011 -0.285 0.42
v -0.011 -0.015 0.47
v -0.011 -0.015 0.53
v 0.011 -0.015 0.53
v 0.011 -0.015 0.47
usemtl Steel
s off
f 84 83 82 81
f 85 86 87 88
f 81 82 86 85
f 82 83 87 86
f 83 84 88 87
f 84 81 85 88
