# prop_scythe_female.obj - Sense fuer procedurally-generated-map, ein Werkzeug zum Anhaengen
# Meter, Y oben, Blick nach +Z; Ursprung = Mitte der rechten Hand in Ruhelage
# (Arm haengt). Gebaut fuer die Frau: der Stiel liegt in ihrer Maeh-Haltung in beiden Haenden. Das Spiel haengt es an die rechte Hand des
# Koerpers, der es traegt (docs/ANIMATION.md, "Werkzeuge als Anhaenge").
mtllib villager.mtl
o Arm.R.Lower.Scythe.Snath
v 0.309 0.062 0.435
v 0.293 0.074 0.444
v 0.277 0.063 0.456
v 0.278 0.041 0.458
v 0.294 0.03 0.448
v 0.31 0.04 0.437
v -0.53 -0.085 -0.844
v -0.548 -0.073 -0.834
v -0.565 -0.084 -0.821
v -0.564 -0.108 -0.819
v -0.546 -0.12 -0.829
v -0.529 -0.109 -0.842
usemtl Wood
s off
f 6 5 4 3 2 1
f 7 8 9 10 11 12
f 1 2 8 7
f 2 3 9 8
f 3 4 10 9
f 4 5 11 10
f 5 6 12 11
f 6 1 7 12
o Arm.R.Lower.Scythe.Blade
v -0.578 -0.1 -0.835
v -0.518 -0.106 -0.838
v -0.516 -0.094 -0.828
v -0.576 -0.087 -0.825
v -0.548 -0.294 -0.605
v -0.499 -0.299 -0.608
v -0.497 -0.287 -0.598
v -0.546 -0.282 -0.595
usemtl Steel
s off
f 16 15 14 13
f 17 18 19 20
f 13 14 18 17
f 14 15 19 18
f 15 16 20 19
f 16 13 17 20
o Arm.R.Lower.Scythe.Blade
v -0.548 -0.294 -0.605
v -0.499 -0.299 -0.608
v -0.497 -0.287 -0.598
v -0.546 -0.282 -0.595
v -0.483 -0.441 -0.44
v -0.448 -0.445 -0.442
v -0.447 -0.433 -0.431
v -0.481 -0.429 -0.429
usemtl Steel
s off
f 24 23 22 21
f 25 26 27 28
f 21 22 26 25
f 22 23 27 26
f 23 24 28 27
f 24 21 25 28
o Arm.R.Lower.Scythe.Blade
v -0.483 -0.441 -0.44
v -0.448 -0.445 -0.442
v -0.447 -0.433 -0.431
v -0.481 -0.429 -0.429
v -0.417 -0.537 -0.336
v -0.406 -0.539 -0.336
v -0.404 -0.526 -0.326
v -0.416 -0.525 -0.325
usemtl Steel
s off
f 32 31 30 29
f 33 34 35 36
f 29 30 34 33
f 30 31 35 34
f 31 32 36 35
f 32 29 33 36
