# prop_knife.obj - Zugmesser (Griffe an beiden Haenden) fuer procedurally-generated-map, ein Werkzeug zum Anhaengen
# Meter, Y oben, Blick nach +Z; Ursprung = Mitte der rechten Hand in Ruhelage
# (Arm haengt). Gebaut fuer den Handabstand des Mannes; das Spiel streckt es auf den des Traegers. Das Spiel haengt es an die rechte Hand des
# Koerpers, der es traegt (docs/ANIMATION.md, "Werkzeuge als Anhaenge").
mtllib villager.mtl
o Knife.Handle
v -0.008 -0.135 -0.02
v -0.014 -0.135 -0.018
v -0.018 -0.135 -0.014
v -0.02 -0.135 -0.008
v -0.02 -0.135 0.008
v -0.018 -0.135 0.014
v -0.014 -0.135 0.018
v -0.008 -0.135 0.02
v 0.008 -0.135 0.02
v 0.014 -0.135 0.018
v 0.018 -0.135 0.014
v 0.02 -0.135 0.008
v 0.02 -0.135 -0.008
v 0.018 -0.135 -0.014
v 0.014 -0.135 -0.018
v 0.008 -0.135 -0.02
v -0.008 0.005 -0.02
v -0.014 0.005 -0.018
v -0.018 0.005 -0.014
v -0.02 0.005 -0.008
v -0.02 0.005 0.008
v -0.018 0.005 0.014
v -0.014 0.005 0.018
v -0.008 0.005 0.02
v 0.008 0.005 0.02
v 0.014 0.005 0.018
v 0.018 0.005 0.014
v 0.02 0.005 0.008
v 0.02 0.005 -0.008
v 0.018 0.005 -0.014
v 0.014 0.005 -0.018
v 0.008 0.005 -0.02
usemtl Wood
s off
f 16 15 14 13 12 11 10 9 8 7 6 5 4 3 2 1
f 17 18 19 20 21 22 23 24 25 26 27 28 29 30 31 32
f 1 2 18 17
f 2 3 19 18
f 3 4 20 19
f 4 5 21 20
f 5 6 22 21
f 6 7 23 22
f 7 8 24 23
f 8 9 25 24
f 9 10 26 25
f 10 11 27 26
f 11 12 28 27
f 12 13 29 28
f 13 14 30 29
f 14 15 31 30
f 15 16 32 31
f 16 1 17 32
o Knife.Tang
v -0.012 -0.135 -0.07
v -0.012 -0.135 -0.02
v 0.012 -0.135 -0.02
v 0.012 -0.135 -0.07
v -0.012 -0.115 -0.07
v -0.012 -0.115 -0.02
v 0.012 -0.115 -0.02
v 0.012 -0.115 -0.07
usemtl Iron
s off
f 36 35 34 33
f 37 38 39 40
f 33 34 38 37
f 34 35 39 38
f 35 36 40 39
f 36 33 37 40
o Knife.Handle
v 0.574 -0.135 -0.02
v 0.568 -0.135 -0.018
v 0.564 -0.135 -0.014
v 0.562 -0.135 -0.008
v 0.562 -0.135 0.008
v 0.564 -0.135 0.014
v 0.568 -0.135 0.018
v 0.574 -0.135 0.02
v 0.59 -0.135 0.02
v 0.596 -0.135 0.018
v 0.6 -0.135 0.014
v 0.602 -0.135 0.008
v 0.602 -0.135 -0.008
v 0.6 -0.135 -0.014
v 0.596 -0.135 -0.018
v 0.59 -0.135 -0.02
v 0.574 0.005 -0.02
v 0.568 0.005 -0.018
v 0.564 0.005 -0.014
v 0.562 0.005 -0.008
v 0.562 0.005 0.008
v 0.564 0.005 0.014
v 0.568 0.005 0.018
v 0.574 0.005 0.02
v 0.59 0.005 0.02
v 0.596 0.005 0.018
v 0.6 0.005 0.014
v 0.602 0.005 0.008
v 0.602 0.005 -0.008
v 0.6 0.005 -0.014
v 0.596 0.005 -0.018
v 0.59 0.005 -0.02
usemtl Wood
s off
f 56 55 54 53 52 51 50 49 48 47 46 45 44 43 42 41
f 57 58 59 60 61 62 63 64 65 66 67 68 69 70 71 72
f 41 42 58 57
f 42 43 59 58
f 43 44 60 59
f 44 45 61 60
f 45 46 62 61
f 46 47 63 62
f 47 48 64 63
f 48 49 65 64
f 49 50 66 65
f 50 51 67 66
f 51 52 68 67
f 52 53 69 68
f 53 54 70 69
f 54 55 71 70
f 55 56 72 71
f 56 41 57 72
o Knife.Tang
v 0.57 -0.135 -0.07
v 0.57 -0.135 -0.02
v 0.594 -0.135 -0.02
v 0.594 -0.135 -0.07
v 0.57 -0.115 -0.07
v 0.57 -0.115 -0.02
v 0.594 -0.115 -0.02
v 0.594 -0.115 -0.07
usemtl Iron
s off
f 76 75 74 73
f 77 78 79 80
f 73 74 78 77
f 74 75 79 78
f 75 76 80 79
f 76 73 77 80
o Knife.Blade
v 0.01 -0.14 -0.1
v 0.01 -0.14 -0.06
v 0.572 -0.14 -0.06
v 0.572 -0.14 -0.1
v 0.01 -0.11 -0.1
v 0.01 -0.11 -0.06
v 0.572 -0.11 -0.06
v 0.572 -0.11 -0.1
usemtl Iron
s off
f 84 83 82 81
f 85 86 87 88
f 81 82 86 85
f 82 83 87 86
f 83 84 88 87
f 84 81 85 88
o Knife.Edge
v 0.015 -0.137 -0.12
v 0.015 -0.137 -0.1
v 0.567 -0.137 -0.1
v 0.567 -0.137 -0.12
v 0.015 -0.113 -0.12
v 0.015 -0.113 -0.1
v 0.567 -0.113 -0.1
v 0.567 -0.113 -0.12
usemtl Steel
s off
f 92 91 90 89
f 93 94 95 96
f 89 90 94 93
f 90 91 95 94
f 91 92 96 95
f 92 89 93 96
