# rally_flag.obj - Sammelpunkt-Fahne fuer procedurally-generated-map
# Einheiten: Meter, Y oben, Vorderseite nach +Z - so wie Blender ein Modell
# exportiert, das in der Vorderansicht zum Betrachter schaut.
# Das Objekt Cloth weht im Spiel; Material Paint bekommt die Spielerfarbe.
mtllib rally_flag.mtl
o Base
v 0.08000 0.00000 0.13856
v 0.16000 0.00000 0.00000
v 0.08000 0.00000 -0.13856
v -0.08000 0.00000 -0.13856
v -0.16000 0.00000 0.00000
v -0.08000 0.00000 0.13856
v 0.05000 0.10000 0.08660
v 0.10000 0.10000 0.00000
v 0.05000 0.10000 -0.08660
v -0.05000 0.10000 -0.08660
v -0.10000 0.10000 0.00000
v -0.05000 0.10000 0.08660
s off
usemtl Stone
f 1 2 8 7
f 2 3 9 8
f 3 4 10 9
f 4 5 11 10
f 5 6 12 11
f 6 1 7 12
f 7 8 9 10 11 12
f 6 5 4 3 2 1
o Pole
v 0.02165 0.10000 0.01250
v 0.00000 0.10000 0.02500
v -0.02165 0.10000 0.01250
v -0.02165 0.10000 -0.01250
v 0.00000 0.10000 -0.02500
v 0.02165 0.10000 -0.01250
v 0.02165 1.60000 0.01250
v 0.00000 1.60000 0.02500
v -0.02165 1.60000 0.01250
v -0.02165 1.60000 -0.01250
v 0.00000 1.60000 -0.02500
v 0.02165 1.60000 -0.01250
s off
usemtl Wood
f 19 20 14 13
f 20 21 15 14
f 21 22 16 15
f 22 23 17 16
f 23 24 18 17
f 24 19 13 18
f 13 14 15 16 17 18
f 24 23 22 21 20 19
v -0.04000 1.58000 -0.04000
v 0.04000 1.58000 -0.04000
v 0.04000 1.64000 -0.04000
v -0.04000 1.64000 -0.04000
v -0.04000 1.58000 0.04000
v 0.04000 1.58000 0.04000
v 0.04000 1.64000 0.04000
v -0.04000 1.64000 0.04000
s off
usemtl Wood
f 25 28 27 26
f 29 30 31 32
f 25 26 30 29
f 28 32 31 27
f 25 29 32 28
f 26 27 31 30
o Cloth
v 0.02000 1.10000 -0.01000
v 0.14500 1.10000 -0.01000
v 0.14500 1.55000 -0.01000
v 0.02000 1.55000 -0.01000
v 0.02000 1.10000 0.01000
v 0.14500 1.10000 0.01000
v 0.14500 1.55000 0.01000
v 0.02000 1.55000 0.01000
s off
usemtl Paint
f 33 36 35 34
f 37 38 39 40
f 33 34 38 37
f 36 40 39 35
f 33 37 40 36
f 34 35 39 38
v 0.14500 1.10000 -0.01000
v 0.27000 1.10000 -0.01000
v 0.27000 1.55000 -0.01000
v 0.14500 1.55000 -0.01000
v 0.14500 1.10000 0.01000
v 0.27000 1.10000 0.01000
v 0.27000 1.55000 0.01000
v 0.14500 1.55000 0.01000
s off
usemtl Paint
f 41 44 43 42
f 45 46 47 48
f 41 42 46 45
f 44 48 47 43
f 41 45 48 44
f 42 43 47 46
v 0.27000 1.10000 -0.01000
v 0.39500 1.10000 -0.01000
v 0.39500 1.55000 -0.01000
v 0.27000 1.55000 -0.01000
v 0.27000 1.10000 0.01000
v 0.39500 1.10000 0.01000
v 0.39500 1.55000 0.01000
v 0.27000 1.55000 0.01000
s off
usemtl Paint
f 49 52 51 50
f 53 54 55 56
f 49 50 54 53
f 52 56 55 51
f 49 53 56 52
f 50 51 55 54
v 0.39500 1.10000 -0.01000
v 0.52000 1.10000 -0.01000
v 0.52000 1.55000 -0.01000
v 0.39500 1.55000 -0.01000
v 0.39500 1.10000 0.01000
v 0.52000 1.10000 0.01000
v 0.52000 1.55000 0.01000
v 0.39500 1.55000 0.01000
s off
usemtl Paint
f 57 60 59 58
f 61 62 63 64
f 57 58 62 61
f 60 64 63 59
f 57 61 64 60
f 58 59 63 62
v 0.52000 1.10000 -0.01000
v 0.64500 1.10000 -0.01000
v 0.64500 1.55000 -0.01000
v 0.52000 1.55000 -0.01000
v 0.52000 1.10000 0.01000
v 0.64500 1.10000 0.01000
v 0.64500 1.55000 0.01000
v 0.52000 1.55000 0.01000
s off
usemtl Paint
f 65 68 67 66
f 69 70 71 72
f 65 66 70 69
f 68 72 71 67
f 65 69 72 68
f 66 67 71 70
v 0.64500 1.10000 -0.01000
v 0.77000 1.10000 -0.01000
v 0.77000 1.55000 -0.01000
v 0.64500 1.55000 -0.01000
v 0.64500 1.10000 0.01000
v 0.77000 1.10000 0.01000
v 0.77000 1.55000 0.01000
v 0.64500 1.55000 0.01000
s off
usemtl Paint
f 73 76 75 74
f 77 78 79 80
f 73 74 78 77
f 76 80 79 75
f 73 77 80 76
f 74 75 79 78
