# sheep.obj - Schaf, Blickrichtung +z (tools/models/animals.mjs)
mtllib sheep.mtl
o Body
v -0.044 0.4 -0.5
v -0.22 0.4 -0.132
v -0.22 0.4 0.052
v -0.044 0.4 0.42
v 0.044 0.4 0.42
v 0.22 0.4 0.052
v 0.22 0.4 -0.132
v 0.044 0.4 -0.5
v -0.044 0.86 -0.5
v -0.22 0.86 -0.132
v -0.22 0.86 0.052
v -0.044 0.86 0.42
v 0.044 0.86 0.42
v 0.22 0.86 0.052
v 0.22 0.86 -0.132
v 0.044 0.86 -0.5
usemtl Wool
s off
f 8 7 6 5 4 3 2 1
f 9 10 11 12 13 14 15 16
f 1 2 10 9
f 2 3 11 10
f 3 4 12 11
f 4 5 13 12
f 5 6 14 13
f 6 7 15 14
f 7 8 16 15
f 8 1 9 16
o Body.Tuft
v 0.139 0.74 0.257
v 0.057 0.74 0.339
v -0.057 0.74 0.339
v -0.139 0.74 0.257
v -0.139 0.74 0.143
v -0.057 0.74 0.061
v 0.057 0.74 0.061
v 0.139 0.74 0.143
v 0.139 0.89 0.257
v 0.057 0.89 0.339
v -0.057 0.89 0.339
v -0.139 0.89 0.257
v -0.139 0.89 0.143
v -0.057 0.89 0.061
v 0.057 0.89 0.061
v 0.139 0.89 0.143
usemtl Wool
s off
f 24 23 22 21 20 19 18 17
f 25 26 27 28 29 30 31 32
f 17 18 26 25
f 18 19 27 26
f 19 20 28 27
f 20 21 29 28
f 21 22 30 29
f 22 23 31 30
f 23 24 32 31
f 24 17 25 32
o Body.Tuft
v 0.139 0.89 0.257
v 0.057 0.89 0.339
v -0.057 0.89 0.339
v -0.139 0.89 0.257
v -0.139 0.89 0.143
v -0.057 0.89 0.061
v 0.057 0.89 0.061
v 0.139 0.89 0.143
v 0.083 0.95 0.234
v 0.034 0.95 0.283
v -0.034 0.95 0.283
v -0.083 0.95 0.234
v -0.083 0.95 0.166
v -0.034 0.95 0.117
v 0.034 0.95 0.117
v 0.083 0.95 0.166
usemtl Wool
s off
f 40 39 38 37 36 35 34 33
f 41 42 43 44 45 46 47 48
f 33 34 42 41
f 34 35 43 42
f 35 36 44 43
f 36 37 45 44
f 37 38 46 45
f 38 39 47 46
f 39 40 48 47
f 40 33 41 48
o Body.Tuft
v 0.148 0.752 -0.039
v 0.061 0.752 0.048
v -0.061 0.752 0.048
v -0.148 0.752 -0.039
v -0.148 0.752 -0.161
v -0.061 0.752 -0.248
v 0.061 0.752 -0.248
v 0.148 0.752 -0.161
v 0.148 0.912 -0.039
v 0.061 0.912 0.048
v -0.061 0.912 0.048
v -0.148 0.912 -0.039
v -0.148 0.912 -0.161
v -0.061 0.912 -0.248
v 0.061 0.912 -0.248
v 0.148 0.912 -0.161
usemtl Wool
s off
f 56 55 54 53 52 51 50 49
f 57 58 59 60 61 62 63 64
f 49 50 58 57
f 50 51 59 58
f 51 52 60 59
f 52 53 61 60
f 53 54 62 61
f 54 55 63 62
f 55 56 64 63
f 56 49 57 64
o Body.Tuft
v 0.148 0.912 -0.039
v 0.061 0.912 0.048
v -0.061 0.912 0.048
v -0.148 0.912 -0.039
v -0.148 0.912 -0.161
v -0.061 0.912 -0.248
v 0.061 0.912 -0.248
v 0.148 0.912 -0.161
v 0.089 0.976 -0.063
v 0.037 0.976 -0.011
v -0.037 0.976 -0.011
v -0.089 0.976 -0.063
v -0.089 0.976 -0.137
v -0.037 0.976 -0.189
v 0.037 0.976 -0.189
v 0.089 0.976 -0.137
usemtl Wool
s off
f 72 71 70 69 68 67 66 65
f 73 74 75 76 77 78 79 80
f 65 66 74 73
f 66 67 75 74
f 67 68 76 75
f 68 69 77 76
f 69 70 78 77
f 70 71 79 78
f 71 72 80 79
f 72 65 73 80
o Body.Tuft
v 0.129 0.748 -0.326
v 0.054 0.748 -0.251
v -0.054 0.748 -0.251
v -0.129 0.748 -0.326
v -0.129 0.748 -0.434
v -0.054 0.748 -0.509
v 0.054 0.748 -0.509
v 0.129 0.748 -0.434
v 0.129 0.888 -0.326
v 0.054 0.888 -0.251
v -0.054 0.888 -0.251
v -0.129 0.888 -0.326
v -0.129 0.888 -0.434
v -0.054 0.888 -0.509
v 0.054 0.888 -0.509
v 0.129 0.888 -0.434
usemtl Wool
s off
f 88 87 86 85 84 83 82 81
f 89 90 91 92 93 94 95 96
f 81 82 90 89
f 82 83 91 90
f 83 84 92 91
f 84 85 93 92
f 85 86 94 93
f 86 87 95 94
f 87 88 96 95
f 88 81 89 96
o Body.Tuft
v 0.129 0.888 -0.326
v 0.054 0.888 -0.251
v -0.054 0.888 -0.251
v -0.129 0.888 -0.326
v -0.129 0.888 -0.434
v -0.054 0.888 -0.509
v 0.054 0.888 -0.509
v 0.129 0.888 -0.434
v 0.078 0.944 -0.348
v 0.032 0.944 -0.302
v -0.032 0.944 -0.302
v -0.078 0.944 -0.348
v -0.078 0.944 -0.412
v -0.032 0.944 -0.458
v 0.032 0.944 -0.458
v 0.078 0.944 -0.412
usemtl Wool
s off
f 104 103 102 101 100 99 98 97
f 105 106 107 108 109 110 111 112
f 97 98 106 105
f 98 99 107 106
f 99 100 108 107
f 100 101 109 108
f 101 102 110 109
f 102 103 111 110
f 103 104 112 111
f 104 97 105 112
o Body.Tuft
v 0.291 0.624 0.226
v 0.226 0.624 0.291
v 0.134 0.624 0.291
v 0.069 0.624 0.226
v 0.069 0.624 0.134
v 0.134 0.624 0.069
v 0.226 0.624 0.069
v 0.291 0.624 0.134
v 0.291 0.744 0.226
v 0.226 0.744 0.291
v 0.134 0.744 0.291
v 0.069 0.744 0.226
v 0.069 0.744 0.134
v 0.134 0.744 0.069
v 0.226 0.744 0.069
v 0.291 0.744 0.134
usemtl WoolShade
s off
f 120 119 118 117 116 115 114 113
f 121 122 123 124 125 126 127 128
f 113 114 122 121
f 114 115 123 122
f 115 116 124 123
f 116 117 125 124
f 117 118 126 125
f 118 119 127 126
f 119 120 128 127
f 120 113 121 128
o Body.Tuft
v 0.291 0.744 0.226
v 0.226 0.744 0.291
v 0.134 0.744 0.291
v 0.069 0.744 0.226
v 0.069 0.744 0.134
v 0.134 0.744 0.069
v 0.226 0.744 0.069
v 0.291 0.744 0.134
v 0.247 0.792 0.208
v 0.208 0.792 0.247
v 0.152 0.792 0.247
v 0.113 0.792 0.208
v 0.113 0.792 0.152
v 0.152 0.792 0.113
v 0.208 0.792 0.113
v 0.247 0.792 0.152
usemtl WoolShade
s off
f 136 135 134 133 132 131 130 129
f 137 138 139 140 141 142 143 144
f 129 130 138 137
f 130 131 139 138
f 131 132 140 139
f 132 133 141 140
f 133 134 142 141
f 134 135 143 142
f 135 136 144 143
f 136 129 137 144
o Body.Tuft
v -0.069 0.624 0.226
v -0.134 0.624 0.291
v -0.226 0.624 0.291
v -0.291 0.624 0.226
v -0.291 0.624 0.134
v -0.226 0.624 0.069
v -0.134 0.624 0.069
v -0.069 0.624 0.134
v -0.069 0.744 0.226
v -0.134 0.744 0.291
v -0.226 0.744 0.291
v -0.291 0.744 0.226
v -0.291 0.744 0.134
v -0.226 0.744 0.069
v -0.134 0.744 0.069
v -0.069 0.744 0.134
usemtl WoolShade
s off
f 152 151 150 149 148 147 146 145
f 153 154 155 156 157 158 159 160
f 145 146 154 153
f 146 147 155 154
f 147 148 156 155
f 148 149 157 156
f 149 150 158 157
f 150 151 159 158
f 151 152 160 159
f 152 145 153 160
o Body.Tuft
v -0.069 0.744 0.226
v -0.134 0.744 0.291
v -0.226 0.744 0.291
v -0.291 0.744 0.226
v -0.291 0.744 0.134
v -0.226 0.744 0.069
v -0.134 0.744 0.069
v -0.069 0.744 0.134
v -0.113 0.792 0.208
v -0.152 0.792 0.247
v -0.208 0.792 0.247
v -0.247 0.792 0.208
v -0.247 0.792 0.152
v -0.208 0.792 0.113
v -0.152 0.792 0.113
v -0.113 0.792 0.152
usemtl WoolShade
s off
f 168 167 166 165 164 163 162 161
f 169 170 171 172 173 174 175 176
f 161 162 170 169
f 162 163 171 170
f 163 164 172 171
f 164 165 173 172
f 165 166 174 173
f 166 167 175 174
f 167 168 176 175
f 168 161 169 176
o Body.Tuft
v 0.31 0.596 -0.17
v 0.24 0.596 -0.1
v 0.14 0.596 -0.1
v 0.07 0.596 -0.17
v 0.07 0.596 -0.27
v 0.14 0.596 -0.34
v 0.24 0.596 -0.34
v 0.31 0.596 -0.27
v 0.31 0.726 -0.17
v 0.24 0.726 -0.1
v 0.14 0.726 -0.1
v 0.07 0.726 -0.17
v 0.07 0.726 -0.27
v 0.14 0.726 -0.34
v 0.24 0.726 -0.34
v 0.31 0.726 -0.27
usemtl WoolShade
s off
f 184 183 182 181 180 179 178 177
f 185 186 187 188 189 190 191 192
f 177 178 186 185
f 178 179 187 186
f 179 180 188 187
f 180 181 189 188
f 181 182 190 189
f 182 183 191 190
f 183 184 192 191
f 184 177 185 192
o Body.Tuft
v 0.31 0.726 -0.17
v 0.24 0.726 -0.1
v 0.14 0.726 -0.1
v 0.07 0.726 -0.17
v 0.07 0.726 -0.27
v 0.14 0.726 -0.34
v 0.24 0.726 -0.34
v 0.31 0.726 -0.27
v 0.262 0.778 -0.19
v 0.22 0.778 -0.148
v 0.16 0.778 -0.148
v 0.118 0.778 -0.19
v 0.118 0.778 -0.25
v 0.16 0.778 -0.292
v 0.22 0.778 -0.292
v 0.262 0.778 -0.25
usemtl WoolShade
s off
f 200 199 198 197 196 195 194 193
f 201 202 203 204 205 206 207 208
f 193 194 202 201
f 194 195 203 202
f 195 196 204 203
f 196 197 205 204
f 197 198 206 205
f 198 199 207 206
f 199 200 208 207
f 200 193 201 208
o Body.Tuft
v -0.07 0.596 -0.17
v -0.14 0.596 -0.1
v -0.24 0.596 -0.1
v -0.31 0.596 -0.17
v -0.31 0.596 -0.27
v -0.24 0.596 -0.34
v -0.14 0.596 -0.34
v -0.07 0.596 -0.27
v -0.07 0.726 -0.17
v -0.14 0.726 -0.1
v -0.24 0.726 -0.1
v -0.31 0.726 -0.17
v -0.31 0.726 -0.27
v -0.24 0.726 -0.34
v -0.14 0.726 -0.34
v -0.07 0.726 -0.27
usemtl WoolShade
s off
f 216 215 214 213 212 211 210 209
f 217 218 219 220 221 222 223 224
f 209 210 218 217
f 210 211 219 218
f 211 212 220 219
f 212 213 221 220
f 213 214 222 221
f 214 215 223 222
f 215 216 224 223
f 216 209 217 224
o Body.Tuft
v -0.07 0.726 -0.17
v -0.14 0.726 -0.1
v -0.24 0.726 -0.1
v -0.31 0.726 -0.17
v -0.31 0.726 -0.27
v -0.24 0.726 -0.34
v -0.14 0.726 -0.34
v -0.07 0.726 -0.27
v -0.118 0.778 -0.19
v -0.16 0.778 -0.148
v -0.22 0.778 -0.148
v -0.262 0.778 -0.19
v -0.262 0.778 -0.25
v -0.22 0.778 -0.292
v -0.16 0.778 -0.292
v -0.118 0.778 -0.25
usemtl WoolShade
s off
f 232 231 230 229 228 227 226 225
f 233 234 235 236 237 238 239 240
f 225 226 234 233
f 226 227 235 234
f 227 228 236 235
f 228 229 237 236
f 229 230 238 237
f 230 231 239 238
f 231 232 240 239
f 232 225 233 240
o Body.Tail
v -0.01 0.62 -0.58
v -0.05 0.62 -0.54
v -0.05 0.62 -0.52
v -0.01 0.62 -0.48
v 0.01 0.62 -0.48
v 0.05 0.62 -0.52
v 0.05 0.62 -0.54
v 0.01 0.62 -0.58
v -0.01 0.76 -0.58
v -0.05 0.76 -0.54
v -0.05 0.76 -0.52
v -0.01 0.76 -0.48
v 0.01 0.76 -0.48
v 0.05 0.76 -0.52
v 0.05 0.76 -0.54
v 0.01 0.76 -0.58
usemtl Wool
s off
f 248 247 246 245 244 243 242 241
f 249 250 251 252 253 254 255 256
f 241 242 250 249
f 242 243 251 250
f 243 244 252 251
f 244 245 253 252
f 245 246 254 253
f 246 247 255 254
f 247 248 256 255
f 248 241 249 256
o Head.Neck
v -0.079 0.684 0.298
v -0.033 0.719 0.268
v 0.033 0.719 0.268
v 0.079 0.684 0.298
v 0.079 0.636 0.342
v 0.033 0.601 0.372
v -0.033 0.601 0.372
v -0.079 0.636 0.342
v -0.06 0.839 0.483
v -0.025 0.865 0.46
v 0.025 0.865 0.46
v 0.06 0.839 0.483
v 0.06 0.801 0.517
v 0.025 0.775 0.54
v -0.025 0.775 0.54
v -0.06 0.801 0.517
usemtl Wool
s off
f 264 263 262 261 260 259 258 257
f 265 266 267 268 269 270 271 272
f 257 258 266 265
f 258 259 267 266
f 259 260 268 267
f 260 261 269 268
f 261 262 270 269
f 262 263 271 270
f 263 264 272 271
f 264 257 265 272
o Head.Skull
v -0.03 0.7 0.46
v -0.075 0.7 0.52
v -0.075 0.7 0.6
v -0.03 0.7 0.66
v 0.03 0.7 0.66
v 0.075 0.7 0.6
v 0.075 0.7 0.52
v 0.03 0.7 0.46
v -0.024 0.9 0.46
v -0.06 0.9 0.52
v -0.06 0.9 0.6
v -0.024 0.9 0.66
v 0.024 0.9 0.66
v 0.06 0.9 0.6
v 0.06 0.9 0.52
v 0.024 0.9 0.46
usemtl SheepFace
s off
f 280 279 278 277 276 275 274 273
f 281 282 283 284 285 286 287 288
f 273 274 282 281
f 274 275 283 282
f 275 276 284 283
f 276 277 285 284
f 277 278 286 285
f 278 279 287 286
f 279 280 288 287
f 280 273 281 288
o Head.Muzzle
v -0.015 0.68 0.62
v -0.05 0.68 0.655
v -0.05 0.68 0.685
v -0.015 0.68 0.72
v 0.015 0.68 0.72
v 0.05 0.68 0.685
v 0.05 0.68 0.655
v 0.015 0.68 0.62
v -0.015 0.78 0.62
v -0.05 0.78 0.655
v -0.05 0.78 0.685
v -0.015 0.78 0.72
v 0.015 0.78 0.72
v 0.05 0.78 0.685
v 0.05 0.78 0.655
v 0.015 0.78 0.62
usemtl SheepFace
s off
f 296 295 294 293 292 291 290 289
f 297 298 299 300 301 302 303 304
f 289 290 298 297
f 290 291 299 298
f 291 292 300 299
f 292 293 301 300
f 293 294 302 301
f 294 295 303 302
f 295 296 304 303
f 296 289 297 304
o Head.Wool
v -0.018 0.86 0.44
v -0.09 0.86 0.496
v -0.09 0.86 0.524
v -0.018 0.86 0.58
v 0.018 0.86 0.58
v 0.09 0.86 0.524
v 0.09 0.86 0.496
v 0.018 0.86 0.44
v -0.018 0.96 0.44
v -0.09 0.96 0.496
v -0.09 0.96 0.524
v -0.018 0.96 0.58
v 0.018 0.96 0.58
v 0.09 0.96 0.524
v 0.09 0.96 0.496
v 0.018 0.96 0.44
usemtl Wool
s off
f 312 311 310 309 308 307 306 305
f 313 314 315 316 317 318 319 320
f 305 306 314 313
f 306 307 315 314
f 307 308 316 315
f 308 309 317 316
f 309 310 318 317
f 310 311 319 318
f 311 312 320 319
f 312 305 313 320
o Head.Eye
v -0.082 0.83 0.57
v -0.082 0.83 0.6
v -0.058 0.83 0.6
v -0.058 0.83 0.57
v -0.082 0.855 0.57
v -0.082 0.855 0.6
v -0.058 0.855 0.6
v -0.058 0.855 0.57
usemtl Eye
s off
f 324 323 322 321
f 325 326 327 328
f 321 322 326 325
f 322 323 327 326
f 323 324 328 327
f 324 321 325 328
o Head.Ear
v -0.079 0.886 0.488
v -0.089 0.886 0.547
v -0.061 0.834 0.552
v -0.051 0.834 0.493
v -0.185 0.815 0.481
v -0.191 0.815 0.516
v -0.175 0.785 0.519
v -0.169 0.785 0.484
usemtl SheepFace
s off
f 332 331 330 329
f 333 334 335 336
f 329 330 334 333
f 330 331 335 334
f 331 332 336 335
f 332 329 333 336
o Head.Eye
v 0.058 0.83 0.57
v 0.058 0.83 0.6
v 0.082 0.83 0.6
v 0.082 0.83 0.57
v 0.058 0.855 0.57
v 0.058 0.855 0.6
v 0.082 0.855 0.6
v 0.082 0.855 0.57
usemtl Eye
s off
f 340 339 338 337
f 341 342 343 344
f 337 338 342 341
f 338 339 343 342
f 339 340 344 343
f 340 337 341 344
o Head.Ear
v 0.089 0.886 0.547
v 0.079 0.886 0.488
v 0.051 0.834 0.493
v 0.061 0.834 0.552
v 0.191 0.815 0.516
v 0.185 0.815 0.481
v 0.169 0.785 0.484
v 0.175 0.785 0.519
usemtl SheepFace
s off
f 348 347 346 345
f 349 350 351 352
f 345 346 350 349
f 346 347 351 350
f 347 348 352 351
f 348 345 349 352
o Leg.FL
v 0.138 0.5 0.308
v 0.138 0.5 0.253
v 0.083 0.5 0.253
v 0.082 0.5 0.307
v 0.13 0.03 0.3
v 0.13 0.03 0.26
v 0.09 0.03 0.26
v 0.09 0.03 0.3
usemtl SheepFace
s off
f 356 355 354 353
f 357 358 359 360
f 353 354 358 357
f 354 355 359 358
f 355 356 360 359
f 356 353 357 360
o Leg.FL.Hoof
v 0.08 0 0.25
v 0.08 0 0.32
v 0.14 0 0.32
v 0.14 0 0.25
v 0.08 0.04 0.25
v 0.08 0.04 0.32
v 0.14 0.04 0.32
v 0.14 0.04 0.25
usemtl Hoof
s off
f 364 363 362 361
f 365 366 367 368
f 361 362 366 365
f 362 363 367 366
f 363 364 368 367
f 364 361 365 368
o Leg.FR
v -0.083 0.5 0.308
v -0.082 0.5 0.253
v -0.138 0.5 0.253
v -0.138 0.5 0.307
v -0.09 0.03 0.3
v -0.09 0.03 0.26
v -0.13 0.03 0.26
v -0.13 0.03 0.3
usemtl SheepFace
s off
f 372 371 370 369
f 373 374 375 376
f 369 370 374 373
f 370 371 375 374
f 371 372 376 375
f 372 369 373 376
o Leg.FR.Hoof
v -0.14 0 0.25
v -0.14 0 0.32
v -0.08 0 0.32
v -0.08 0 0.25
v -0.14 0.04 0.25
v -0.14 0.04 0.32
v -0.08 0.04 0.32
v -0.08 0.04 0.25
usemtl Hoof
s off
f 380 379 378 377
f 381 382 383 384
f 377 378 382 381
f 378 379 383 382
f 379 380 384 383
f 380 377 381 384
o Leg.BL
v 0.138 0.5 -0.332
v 0.138 0.5 -0.387
v 0.083 0.5 -0.388
v 0.082 0.5 -0.333
v 0.13 0.03 -0.34
v 0.13 0.03 -0.38
v 0.09 0.03 -0.38
v 0.09 0.03 -0.34
usemtl SheepFace
s off
f 388 387 386 385
f 389 390 391 392
f 385 386 390 389
f 386 387 391 390
f 387 388 392 391
f 388 385 389 392
o Leg.BL.Hoof
v 0.08 0 -0.39
v 0.08 0 -0.32
v 0.14 0 -0.32
v 0.14 0 -0.39
v 0.08 0.04 -0.39
v 0.08 0.04 -0.32
v 0.14 0.04 -0.32
v 0.14 0.04 -0.39
usemtl Hoof
s off
f 396 395 394 393
f 397 398 399 400
f 393 394 398 397
f 394 395 399 398
f 395 396 400 399
f 396 393 397 400
o Leg.BR
v -0.083 0.5 -0.332
v -0.082 0.5 -0.387
v -0.138 0.5 -0.388
v -0.138 0.5 -0.333
v -0.09 0.03 -0.34
v -0.09 0.03 -0.38
v -0.13 0.03 -0.38
v -0.13 0.03 -0.34
usemtl SheepFace
s off
f 404 403 402 401
f 405 406 407 408
f 401 402 406 405
f 402 403 407 406
f 403 404 408 407
f 404 401 405 408
o Leg.BR.Hoof
v -0.14 0 -0.39
v -0.14 0 -0.32
v -0.08 0 -0.32
v -0.08 0 -0.39
v -0.14 0.04 -0.39
v -0.14 0.04 -0.32
v -0.08 0.04 -0.32
v -0.08 0.04 -0.39
usemtl Hoof
s off
f 412 411 410 409
f 413 414 415 416
f 409 410 414 413
f 410 411 415 414
f 411 412 416 415
f 412 409 413 416
