# stone.obj - Steinvorkommen fuer procedurally-generated-map
# Einheiten: Meter, Y oben, Vorderseite nach +Z - so wie Blender ein Modell
# exportiert, das in der Vorderansicht zum Betrachter schaut.
mtllib stone.mtl
o Rocks
v -0.08275 0.00000 0.26087
v 0.20278 0.00000 -0.01439
v 0.12146 0.00000 -0.45702
v -0.33988 0.00000 -0.53051
v -0.53946 0.00000 -0.17216
v -0.49304 0.00000 0.22546
v 0.00345 0.71300 0.02647
v 0.04275 0.55097 -0.15840
v -0.09770 0.70682 -0.28487
v -0.27745 0.59730 -0.22647
v -0.31675 0.68871 -0.04160
v -0.17630 0.63897 0.08487
s off
usemtl Stone
f 1 2 8 7
f 2 3 9 8
f 3 4 10 9
f 4 5 11 10
f 5 6 12 11
f 6 1 7 12
f 7 8 9 10 11 12
f 6 5 4 3 2 1
v 0.64767 0.00000 0.18251
v 0.44855 0.00000 -0.11383
v 0.11613 0.00000 -0.09710
v 0.00885 0.00000 0.26642
v 0.36018 0.00000 0.43808
v 0.48715 0.48300 0.06252
v 0.34808 0.37323 -0.01394
v 0.23239 0.47882 0.09470
v 0.29996 0.40463 0.23830
v 0.45741 0.46654 0.21841
s off
usemtl Stone
f 13 14 19 18
f 14 15 20 19
f 15 16 21 20
f 16 17 22 21
f 17 13 18 22
f 18 19 20 21 22
f 17 16 15 14 13
v 0.12460 0.00000 0.18097
v -0.16492 0.00000 0.18054
v -0.21020 0.00000 0.44180
v -0.02000 0.00000 0.59458
v 0.21909 0.00000 0.45769
v 0.01300 0.32200 0.28100
v -0.08115 0.24882 0.34941
v -0.04519 0.31921 0.46009
v 0.07119 0.26975 0.46009
v 0.10715 0.31103 0.34941
s off
usemtl StoneDark
f 23 24 29 28
f 24 25 30 29
f 25 26 31 30
f 26 27 32 31
f 27 23 28 32
f 28 29 30 31 32
f 27 26 25 24 23
