# stone_2.obj - Steinvorkommen fuer procedurally-generated-map
# Einheiten: Meter, Y oben, Vorderseite nach +Z - so wie Blender ein Modell
# exportiert, das in der Vorderansicht zum Betrachter schaut.
mtllib stone_2.mtl
o Boulder
v -0.864 0 -0.482
v -0.355 0 -0.418
v 0.098 0 -0.127
v -0.047 0 0.385
v -0.61 0 0.652
v -1.139 0 0.355
v -1.202 0 -0.124
v -0.879 0.491 -0.598
v -0.28 0.491 -0.523
v 0.253 0.491 -0.18
v 0.082 0.491 0.423
v -0.581 0.491 0.736
v -1.202 0.491 0.387
v -1.276 0.491 -0.177
usemtl StoneDark
s off
f 7 6 5 4 3 2 1
f 8 9 10 11 12 13 14
f 1 2 9 8
f 2 3 10 9
f 3 4 11 10
f 4 5 12 11
f 5 6 13 12
f 6 7 14 13
f 7 1 8 14
o Boulder
v -0.879 0.491 -0.598
v -0.28 0.491 -0.523
v 0.253 0.491 -0.18
v 0.082 0.491 0.423
v -0.581 0.491 0.736
v -1.202 0.491 0.387
v -1.276 0.491 -0.177
v -0.681 1.1 -0.325
v -0.403 1.1 -0.29
v -0.156 1.1 -0.131
v -0.235 1.1 0.149
v -0.543 1.1 0.295
v -0.831 1.1 0.133
v -0.866 1.1 -0.129
usemtl StoneDark
s off
f 21 20 19 18 17 16 15
f 22 23 24 25 26 27 28
f 15 16 23 22
f 16 17 24 23
f 17 18 25 24
f 18 19 26 25
f 19 20 27 26
f 20 21 28 27
f 21 15 22 28
o Boulder
v 1.314 0 -0.247
v 1.203 0 0.239
v 0.647 0 0.317
v 0.065 0 0.33
v -0.177 0 -0.149
v 0.092 0 -0.57
v 0.55 0 -0.753
v 1.056 0 -0.652
v 1.423 0.597 -0.289
v 1.292 0.597 0.283
v 0.638 0.597 0.374
v -0.046 0.597 0.39
v -0.332 0.597 -0.174
v -0.014 0.597 -0.669
v 0.524 0.597 -0.885
v 1.119 0.597 -0.766
usemtl StoneLight
s off
f 36 35 34 33 32 31 30 29
f 37 38 39 40 41 42 43 44
f 29 30 38 37
f 30 31 39 38
f 31 32 40 39
f 32 33 41 40
f 33 34 42 41
f 34 35 43 42
f 35 36 44 43
f 36 29 37 44
o Boulder
v 1.423 0.597 -0.289
v 1.292 0.597 0.283
v 0.638 0.597 0.374
v -0.046 0.597 0.39
v -0.332 0.597 -0.174
v -0.014 0.597 -0.669
v 0.524 0.597 -0.885
v 1.119 0.597 -0.766
v 1.03 1.2 -0.298
v 0.958 1.2 0.018
v 0.596 1.2 0.069
v 0.217 1.2 0.077
v 0.059 1.2 -0.235
v 0.235 1.2 -0.509
v 0.533 1.2 -0.628
v 0.862 1.2 -0.562
usemtl StoneLight
s off
f 52 51 50 49 48 47 46 45
f 53 54 55 56 57 58 59 60
f 45 46 54 53
f 46 47 55 54
f 47 48 56 55
f 48 49 57 56
f 49 50 58 57
f 50 51 59 58
f 51 52 60 59
f 52 45 53 60
o Boulder
v 0.369 0 0.36
v 0.437 0 0.728
v 0.304 0 0.987
v -0.01 0 1.07
v -0.274 0 0.906
v -0.378 0 0.603
v -0.057 0 0.446
v 0.406 0.341 0.302
v 0.486 0.341 0.735
v 0.329 0.341 1.039
v -0.04 0.341 1.137
v -0.351 0.341 0.944
v -0.473 0.341 0.588
v -0.095 0.341 0.403
usemtl StoneWarm
s off
f 67 66 65 64 63 62 61
f 68 69 70 71 72 73 74
f 61 62 69 68
f 62 63 70 69
f 63 64 71 70
f 64 65 72 71
f 65 66 73 72
f 66 67 74 73
f 67 61 68 74
o Boulder
v 0.406 0.341 0.302
v 0.486 0.341 0.735
v 0.329 0.341 1.039
v -0.04 0.341 1.137
v -0.351 0.341 0.944
v -0.473 0.341 0.588
v -0.095 0.341 0.403
v 0.23 0.7 0.503
v 0.278 0.7 0.757
v 0.186 0.7 0.934
v -0.03 0.7 0.992
v -0.212 0.7 0.879
v -0.284 0.7 0.671
v -0.062 0.7 0.563
usemtl StoneWarm
s off
f 81 80 79 78 77 76 75
f 82 83 84 85 86 87 88
f 75 76 83 82
f 76 77 84 83
f 77 78 85 84
f 78 79 86 85
f 79 80 87 86
f 80 81 88 87
f 81 75 82 88
o Boulder
v 0.22 0 -0.911
v 0.194 0 -0.612
v -0.134 0 -0.522
v -0.448 0 -0.553
v -0.595 0 -0.793
v -0.589 0 -1.084
v -0.27 0 -1.198
v 0.092 0 -1.2
v 0.306 0.226 -0.917
v 0.276 0.226 -0.566
v -0.111 0.226 -0.459
v -0.48 0.226 -0.496
v -0.653 0.226 -0.779
v -0.646 0.226 -1.122
v -0.27 0.226 -1.256
v 0.156 0.226 -1.258
usemtl Stone
s off
f 96 95 94 93 92 91 90 89
f 97 98 99 100 101 102 103 104
f 89 90 98 97
f 90 91 99 98
f 91 92 100 99
f 92 93 101 100
f 93 94 102 101
f 94 95 103 102
f 95 96 104 103
f 96 89 97 104
o Boulder
v 0.306 0.226 -0.917
v 0.276 0.226 -0.566
v -0.111 0.226 -0.459
v -0.48 0.226 -0.496
v -0.653 0.226 -0.779
v -0.646 0.226 -1.122
v -0.27 0.226 -1.256
v 0.156 0.226 -1.258
v 0.094 0.6 -0.881
v 0.077 0.6 -0.689
v -0.134 0.6 -0.631
v -0.335 0.6 -0.651
v -0.43 0.6 -0.805
v -0.426 0.6 -0.992
v -0.221 0.6 -1.065
v 0.012 0.6 -1.067
usemtl Stone
s off
f 112 111 110 109 108 107 106 105
f 113 114 115 116 117 118 119 120
f 105 106 114 113
f 106 107 115 114
f 107 108 116 115
f 108 109 117 116
f 109 110 118 117
f 110 111 119 118
f 111 112 120 119
f 112 105 113 120
o Boulder
v 1.224 0 0.78
v 1.035 0 0.913
v 0.852 0 0.771
v 0.783 0 0.586
v 0.917 0 0.383
v 1.215 0 0.393
v 1.306 0 0.612
v 1.268 0.159 0.826
v 1.046 0.159 0.982
v 0.831 0.159 0.815
v 0.75 0.159 0.598
v 0.907 0.159 0.358
v 1.257 0.159 0.37
v 1.365 0.159 0.627
usemtl StoneDark
s off
f 127 126 125 124 123 122 121
f 128 129 130 131 132 133 134
f 121 122 129 128
f 122 123 130 129
f 123 124 131 130
f 124 125 132 131
f 125 126 133 132
f 126 127 134 133
f 127 121 128 134
o Boulder
v 1.268 0.159 0.826
v 1.046 0.159 0.982
v 0.831 0.159 0.815
v 0.75 0.159 0.598
v 0.907 0.159 0.358
v 1.257 0.159 0.37
v 1.365 0.159 0.627
v 1.182 0.4 0.774
v 1.068 0.4 0.854
v 0.958 0.4 0.769
v 0.916 0.4 0.657
v 0.997 0.4 0.534
v 1.177 0.4 0.54
v 1.232 0.4 0.672
usemtl StoneDark
s off
f 141 140 139 138 137 136 135
f 142 143 144 145 146 147 148
f 135 136 143 142
f 136 137 144 143
f 137 138 145 144
f 138 139 146 145
f 139 140 147 146
f 140 141 148 147
f 141 135 142 148
o Crack
v -0.901 1.044 0.089
v -0.905 1.044 0.119
v -0.882 1.024 0.122
v -0.878 1.024 0.092
v -1.286 0.577 0.045
v -1.288 0.577 0.06
v -1.277 0.567 0.061
v -1.275 0.567 0.046
usemtl Soot
s off
f 152 151 150 149
f 153 154 155 156
f 149 150 154 153
f 150 151 155 154
f 151 152 156 155
f 152 149 153 156
o Crack
v -0.909 1.044 -0.155
v -0.939 1.044 -0.158
v -0.941 1.024 -0.136
v -0.911 1.024 -0.133
v -0.878 0.577 -0.56
v -0.892 0.577 -0.562
v -0.894 0.567 -0.55
v -0.879 0.567 -0.549
usemtl Soot
s off
f 160 159 158 157
f 161 162 163 164
f 157 158 162 161
f 158 159 163 162
f 159 160 164 163
f 160 157 161 164
o Moss
v -0.594 1.059 0.248
v -0.527 1.059 0.031
v -0.258 1.059 -0.031
v -0.056 1.059 0.124
v -0.123 1.059 0.341
v -0.392 1.059 0.404
v -0.594 1.129 0.248
v -0.527 1.129 0.031
v -0.258 1.129 -0.031
v -0.056 1.129 0.124
v -0.123 1.129 0.341
v -0.392 1.129 0.404
usemtl Moss
s off
f 170 169 168 167 166 165
f 171 172 173 174 175 176
f 165 166 172 171
f 166 167 173 172
f 167 168 174 173
f 168 169 175 174
f 169 170 176 175
f 170 165 171 176
o Crack
v 0.54 1.141 -0.616
v 0.569 1.141 -0.609
v 0.573 1.115 -0.622
v 0.544 1.115 -0.629
v 0.299 0.631 0.373
v 0.313 0.631 0.377
v 0.315 0.617 0.37
v 0.3 0.617 0.367
usemtl Soot
s off
f 180 179 178 177
f 181 182 183 184
f 177 178 182 181
f 178 179 183 182
f 179 180 184 183
f 180 177 181 184
o Crack
v 0.996 1.136 -0.328
v 0.988 1.136 -0.357
v 0.963 1.12 -0.35
v 0.971 1.12 -0.321
v 1.299 0.628 -0.416
v 1.295 0.628 -0.43
v 1.283 0.62 -0.427
v 1.287 0.62 -0.413
usemtl Soot
s off
f 188 187 186 185
f 189 190 191 192
f 185 186 190 189
f 186 187 191 190
f 187 188 192 191
f 188 185 189 192
o Crack
v 0.279 0.672 0.802
v 0.273 0.672 0.831
v 0.283 0.644 0.834
v 0.29 0.644 0.804
v -0.443 0.371 0.655
v -0.446 0.371 0.67
v -0.441 0.357 0.671
v -0.438 0.357 0.656
usemtl Soot
s off
f 196 195 194 193
f 197 198 199 200
f 193 194 198 197
f 194 195 199 198
f 195 196 200 199
f 196 193 197 200
o Moss
v -0.306 0.651 0.896
v -0.43 0.651 0.778
v -0.364 0.651 0.634
v -0.174 0.651 0.607
v -0.05 0.651 0.725
v -0.117 0.651 0.87
v -0.306 0.721 0.896
v -0.43 0.721 0.778
v -0.364 0.721 0.634
v -0.174 0.721 0.607
v -0.05 0.721 0.725
v -0.117 0.721 0.87
usemtl Moss
s off
f 206 205 204 203 202 201
f 207 208 209 210 211 212
f 201 202 208 207
f 202 203 209 208
f 203 204 210 209
f 204 205 211 210
f 205 206 212 211
f 206 201 207 212
o Crack
v -0.289 0.578 -1.016
v -0.274 0.578 -1.042
v -0.283 0.55 -1.048
v -0.299 0.55 -1.022
v 0.235 0.319 -0.717
v 0.243 0.319 -0.73
v 0.238 0.305 -0.733
v 0.23 0.305 -0.72
usemtl Soot
s off
f 216 215 214 213
f 217 218 219 220
f 213 214 218 217
f 214 215 219 218
f 215 216 220 219
f 216 213 217 220
o Crack
v 0.939 0.39 0.607
v 0.959 0.39 0.585
v 0.951 0.362 0.578
v 0.931 0.362 0.6
v 1.262 0.215 0.892
v 1.272 0.215 0.881
v 1.268 0.201 0.878
v 1.258 0.201 0.889
usemtl Soot
s off
f 224 223 222 221
f 225 226 227 228
f 221 222 226 225
f 222 223 227 226
f 223 224 228 227
f 224 221 225 228
o Moss
v 1.066 0.337 0.927
v 0.987 0.337 0.853
v 1.027 0.337 0.761
v 1.148 0.337 0.743
v 1.227 0.337 0.817
v 1.187 0.337 0.91
v 1.066 0.407 0.927
v 0.987 0.407 0.853
v 1.027 0.407 0.761
v 1.148 0.407 0.743
v 1.227 0.407 0.817
v 1.187 0.407 0.91
usemtl Moss
s off
f 234 233 232 231 230 229
f 235 236 237 238 239 240
f 229 230 236 235
f 230 231 237 236
f 231 232 238 237
f 232 233 239 238
f 233 234 240 239
f 234 229 235 240
o Pebble
v -0.124 0 -1.024
v -0.147 0 -1.13
v -0.029 0 -1.18
v 0.068 0 -1.106
v 0.009 0 -1.01
v -0.084 0.103 -1.057
v -0.096 0.103 -1.11
v -0.037 0.103 -1.135
v 0.012 0.103 -1.098
v -0.018 0.103 -1.05
usemtl Stone
s off
f 245 244 243 242 241
f 246 247 248 249 250
f 241 242 247 246
f 242 243 248 247
f 243 244 249 248
f 244 245 250 249
f 245 241 246 250
o Pebble
v 0.929 0 0.154
v 0.965 0 0.052
v 1.098 0 0.048
v 1.144 0 0.148
v 1.039 0 0.213
v 0.982 0.102 0.138
v 1 0.102 0.087
v 1.066 0.102 0.085
v 1.089 0.102 0.135
v 1.037 0.102 0.168
usemtl StoneDark
s off
f 255 254 253 252 251
f 256 257 258 259 260
f 251 252 257 256
f 252 253 258 257
f 253 254 259 258
f 254 255 260 259
f 255 251 256 260
o Pebble
v 0.089 0 0.822
v 0.131 0 0.736
v 0.246 0 0.742
v 0.275 0 0.831
v 0.177 0 0.881
v 0.136 0.088 0.812
v 0.157 0.088 0.769
v 0.215 0.088 0.772
v 0.229 0.088 0.817
v 0.18 0.088 0.842
usemtl StoneLight
s off
f 265 264 263 262 261
f 266 267 268 269 270
f 261 262 267 266
f 262 263 268 267
f 263 264 269 268
f 264 265 270 269
f 265 261 266 270
o Pebble
v 1.504 0 0.075
v 1.397 0 0.051
v 1.392 0 -0.038
v 1.497 0 -0.069
v 1.566 0 0.001
v 1.488 0.085 0.04
v 1.434 0.085 0.028
v 1.432 0.085 -0.017
v 1.484 0.085 -0.032
v 1.519 0.085 0.003
usemtl Stone
s off
f 275 274 273 272 271
f 276 277 278 279 280
f 271 272 277 276
f 272 273 278 277
f 273 274 279 278
f 274 275 280 279
f 275 271 276 280
o Pebble
v -0.827 0 0.372
v -0.897 0 0.252
v -0.776 0 0.162
v -0.632 0 0.226
v -0.663 0 0.356
v -0.793 0.126 0.323
v -0.828 0.126 0.263
v -0.768 0.126 0.218
v -0.696 0.126 0.25
v -0.711 0.126 0.315
usemtl StoneDark
s off
f 285 284 283 282 281
f 286 287 288 289 290
f 281 282 287 286
f 282 283 288 287
f 283 284 289 288
f 284 285 290 289
f 285 281 286 290
o Pebble
v -0.384 0 1.39
v -0.498 0 1.4
v -0.546 0 1.317
v -0.461 0 1.255
v -0.361 0 1.3
v -0.417 0.088 1.361
v -0.474 0.088 1.366
v -0.498 0.088 1.325
v -0.456 0.088 1.294
v -0.406 0.088 1.316
usemtl StoneLight
s off
f 295 294 293 292 291
f 296 297 298 299 300
f 291 292 297 296
f 292 293 298 297
f 293 294 299 298
f 294 295 300 299
f 295 291 296 300
o Pebble
v -0.047 0 -1.304
v -0.142 0 -1.382
v -0.078 0 -1.478
v 0.055 0 -1.46
v 0.075 0 -1.352
v -0.037 0.104 -1.35
v -0.085 0.104 -1.389
v -0.053 0.104 -1.437
v 0.014 0.104 -1.427
v 0.024 0.104 -1.374
usemtl Stone
s off
f 305 304 303 302 301
f 306 307 308 309 310
f 301 302 307 306
f 302 303 308 307
f 303 304 309 308
f 304 305 310 309
f 305 301 306 310
o Pebble
v -0.122 0 -0.779
v -0.11 0 -0.843
v -0.03 0 -0.854
v 0.008 0 -0.796
v -0.049 0 -0.75
v -0.091 0.062 -0.792
v -0.085 0.062 -0.824
v -0.045 0.062 -0.829
v -0.026 0.062 -0.8
v -0.055 0.062 -0.777
usemtl StoneDark
s off
f 315 314 313 312 311
f 316 317 318 319 320
f 311 312 317 316
f 312 313 318 317
f 313 314 319 318
f 314 315 320 319
f 315 311 316 320
o Pebble
v -1.319 0 0.267
v -1.422 0 0.2
v -1.376 0 0.101
v -1.243 0 0.106
v -1.208 0 0.208
v -1.316 0.102 0.221
v -1.368 0.102 0.188
v -1.345 0.102 0.138
v -1.278 0.102 0.141
v -1.261 0.102 0.192
usemtl StoneLight
s off
f 325 324 323 322 321
f 326 327 328 329 330
f 321 322 327 326
f 322 323 328 327
f 323 324 329 328
f 324 325 330 329
f 325 321 326 330
o Pebble
v 0.092 0 1.121
v 0.026 0 1.16
v -0.041 0 1.122
v -0.016 0 1.059
v 0.066 0 1.058
v 0.059 0.063 1.112
v 0.026 0.063 1.132
v -0.008 0.063 1.113
v 0.005 0.063 1.081
v 0.046 0.063 1.081
usemtl Stone
s off
f 335 334 333 332 331
f 336 337 338 339 340
f 331 332 337 336
f 332 333 338 337
f 333 334 339 338
f 334 335 340 339
f 335 331 336 340
o Pebble
v 1.578 0 0.225
v 1.438 0 0.245
v 1.371 0 0.145
v 1.469 0 0.063
v 1.597 0 0.112
v 1.534 0.109 0.191
v 1.464 0.109 0.201
v 1.431 0.109 0.151
v 1.48 0.109 0.11
v 1.544 0.109 0.135
usemtl StoneDark
s off
f 345 344 343 342 341
f 346 347 348 349 350
f 341 342 347 346
f 342 343 348 347
f 343 344 349 348
f 344 345 350 349
f 345 341 346 350
o Pebble
v 0.377 0 1.272
v 0.293 0 1.228
v 0.319 0 1.151
v 0.419 0 1.147
v 0.455 0 1.222
v 0.375 0.077 1.238
v 0.333 0.077 1.216
v 0.346 0.077 1.178
v 0.396 0.077 1.176
v 0.414 0.077 1.213
usemtl StoneLight
s off
f 355 354 353 352 351
f 356 357 358 359 360
f 351 352 357 356
f 352 353 358 357
f 353 354 359 358
f 354 355 360 359
f 355 351 356 360
o Pebble
v -0.303 0 1.362
v -0.396 0 1.317
v -0.372 0 1.232
v -0.264 0 1.225
v -0.221 0 1.305
v -0.307 0.083 1.325
v -0.354 0.083 1.303
v -0.342 0.083 1.26
v -0.287 0.083 1.256
v -0.266 0.083 1.296
usemtl Stone
s off
f 365 364 363 362 361
f 366 367 368 369 370
f 361 362 367 366
f 362 363 368 367
f 363 364 369 368
f 364 365 370 369
f 365 361 366 370
o Pebble
v 0.362 0 0.889
v 0.284 0 0.777
v 0.393 0 0.684
v 0.538 0 0.738
v 0.519 0 0.865
v 0.39 0.122 0.84
v 0.351 0.122 0.784
v 0.406 0.122 0.737
v 0.478 0.122 0.764
v 0.469 0.122 0.828
usemtl StoneDark
s off
f 375 374 373 372 371
f 376 377 378 379 380
f 371 372 377 376
f 372 373 378 377
f 373 374 379 378
f 374 375 380 379
f 375 371 376 380
