# stone_1.obj - Steinvorkommen fuer procedurally-generated-map
# Einheiten: Meter, Y oben, Vorderseite nach +Z - so wie Blender ein Modell
# exportiert, das in der Vorderansicht zum Betrachter schaut.
mtllib stone_1.mtl
o Boulder
v 0.812 0 -0.437
v 0.668 0 0.17
v 0.229 0 0.735
v -0.605 0 0.551
v -1.11 0 -0.095
v -0.481 0 -0.607
v 0.231 0 -0.98
v 0.956 0.615 -0.536
v 0.786 0.615 0.178
v 0.27 0.615 0.843
v -0.711 0.615 0.626
v -1.306 0.615 -0.134
v -0.565 0.615 -0.737
v 0.272 0.615 -1.175
usemtl Stone
s off
f 7 6 5 4 3 2 1
f 8 9 10 11 12 13 14
f 1 2 9 8
f 2 3 10 9
f 3 4 11 10
f 4 5 12 11
f 5 6 13 12
f 6 7 14 13
f 7 1 8 14
o Boulder
v 0.956 0.615 -0.536
v 0.786 0.615 0.178
v 0.27 0.615 0.843
v -0.711 0.615 0.626
v -1.306 0.615 -0.134
v -0.565 0.615 -0.737
v 0.272 0.615 -1.175
v 0.542 1.7 -0.404
v 0.446 1.7 0.001
v 0.153 1.7 0.377
v -0.403 1.7 0.255
v -0.74 1.7 -0.176
v -0.32 1.7 -0.518
v 0.154 1.7 -0.766
usemtl Stone
s off
f 21 20 19 18 17 16 15
f 22 23 24 25 26 27 28
f 15 16 23 22
f 16 17 24 23
f 17 18 25 24
f 18 19 26 25
f 19 20 27 26
f 20 21 28 27
f 21 15 22 28
o Boulder
v -1.324 0 0.274
v -1.09 0 0.036
v -0.685 0 0.044
v -0.494 0 0.339
v -0.545 0 0.641
v -0.797 0 0.905
v -1.231 0 0.881
v -1.399 0 0.559
v -1.427 0.434 0.201
v -1.151 0.434 -0.079
v -0.675 0.434 -0.07
v -0.45 0.434 0.277
v -0.511 0.434 0.633
v -0.806 0.434 0.944
v -1.318 0.434 0.915
v -1.515 0.434 0.537
usemtl StoneDark
s off
f 36 35 34 33 32 31 30 29
f 37 38 39 40 41 42 43 44
f 29 30 38 37
f 30 31 39 38
f 31 32 40 39
f 32 33 41 40
f 33 34 42 41
f 34 35 43 42
f 35 36 44 43
f 36 29 37 44
o Boulder
v -1.427 0.434 0.201
v -1.151 0.434 -0.079
v -0.675 0.434 -0.07
v -0.45 0.434 0.277
v -0.511 0.434 0.633
v -0.806 0.434 0.944
v -1.318 0.434 0.915
v -1.515 0.434 0.537
v -1.271 0.9 0.249
v -1.116 0.9 0.092
v -0.848 0.9 0.097
v -0.722 0.9 0.293
v -0.756 0.9 0.493
v -0.922 0.9 0.668
v -1.21 0.9 0.651
v -1.321 0.9 0.439
usemtl StoneDark
s off
f 52 51 50 49 48 47 46 45
f 53 54 55 56 57 58 59 60
f 45 46 54 53
f 46 47 55 54
f 47 48 56 55
f 48 49 57 56
f 49 50 58 57
f 50 51 59 58
f 51 52 60 59
f 52 45 53 60
o Boulder
v 0.602 0 0.142
v 1 0 0.208
v 1.417 0 0.319
v 1.232 0 0.657
v 0.983 0 0.919
v 0.664 0 0.724
v 0.407 0 0.476
v 0.584 0.331 0.067
v 1.052 0.331 0.145
v 1.543 0.331 0.276
v 1.325 0.331 0.673
v 1.032 0.331 0.982
v 0.657 0.331 0.752
v 0.354 0.331 0.46
usemtl StoneLight
s off
f 67 66 65 64 63 62 61
f 68 69 70 71 72 73 74
f 61 62 69 68
f 62 63 70 69
f 63 64 71 70
f 64 65 72 71
f 65 66 73 72
f 66 67 74 73
f 67 61 68 74
o Boulder
v 0.584 0.331 0.067
v 1.052 0.331 0.145
v 1.543 0.331 0.276
v 1.325 0.331 0.673
v 1.032 0.331 0.982
v 0.657 0.331 0.752
v 0.354 0.331 0.46
v 0.75 0.75 0.214
v 1.042 0.75 0.263
v 1.348 0.75 0.344
v 1.212 0.75 0.592
v 1.03 0.75 0.785
v 0.796 0.75 0.641
v 0.607 0.75 0.459
usemtl StoneLight
s off
f 81 80 79 78 77 76 75
f 82 83 84 85 86 87 88
f 75 76 83 82
f 76 77 84 83
f 77 78 85 84
f 78 79 86 85
f 79 80 87 86
f 80 81 88 87
f 81 75 82 88
o Boulder
v -0.073 0 0.861
v 0.067 0 0.697
v 0.345 0 0.628
v 0.519 0 0.829
v 0.573 0 1.072
v 0.348 0 1.233
v 0.071 0 1.237
v -0.036 0 1.039
v -0.134 0.199 0.852
v 0.032 0.199 0.66
v 0.359 0.199 0.579
v 0.563 0.199 0.815
v 0.627 0.199 1.101
v 0.362 0.199 1.29
v 0.036 0.199 1.294
v -0.09 0.199 1.062
usemtl StoneWarm
s off
f 96 95 94 93 92 91 90 89
f 97 98 99 100 101 102 103 104
f 89 90 98 97
f 90 91 99 98
f 91 92 100 99
f 92 93 101 100
f 93 94 102 101
f 94 95 103 102
f 95 96 104 103
f 96 89 97 104
o Boulder
v -0.134 0.199 0.852
v 0.032 0.199 0.66
v 0.359 0.199 0.579
v 0.563 0.199 0.815
v 0.627 0.199 1.101
v 0.362 0.199 1.29
v 0.036 0.199 1.294
v -0.09 0.199 1.062
v -0.017 0.5 0.902
v 0.082 0.5 0.786
v 0.278 0.5 0.738
v 0.4 0.5 0.88
v 0.438 0.5 1.05
v 0.28 0.5 1.164
v 0.085 0.5 1.166
v 0.009 0.5 1.028
usemtl StoneWarm
s off
f 112 111 110 109 108 107 106 105
f 113 114 115 116 117 118 119 120
f 105 106 114 113
f 106 107 115 114
f 107 108 116 115
f 108 109 117 116
f 109 110 118 117
f 110 111 119 118
f 111 112 120 119
f 112 105 113 120
o Crack
v -0.213 1.611 -0.589
v -0.185 1.611 -0.601
v -0.191 1.585 -0.614
v -0.218 1.585 -0.602
v 0.333 0.891 0.643
v 0.347 0.891 0.637
v 0.344 0.877 0.631
v 0.33 0.877 0.637
usemtl Soot
s off
f 124 123 122 121
f 125 126 127 128
f 121 122 126 125
f 122 123 127 126
f 123 124 128 127
f 124 121 125 128
o Crack
v -0.026 1.608 0.28
v -0.017 1.608 0.309
v 0.005 1.588 0.302
v -0.005 1.588 0.273
v -0.623 0.889 0.489
v -0.618 0.889 0.503
v -0.608 0.879 0.499
v -0.613 0.879 0.485
usemtl Soot
s off
f 132 131 130 129
f 133 134 135 136
f 129 130 134 133
f 130 131 135 134
f 131 132 136 135
f 132 129 133 136
o Moss
v 0.84 1.597 0.112
v 0.515 1.597 0.278
v 0.173 1.597 0.136
v 0.156 1.597 -0.171
v 0.48 1.597 -0.338
v 0.822 1.597 -0.196
v 0.84 1.667 0.112
v 0.515 1.667 0.278
v 0.173 1.667 0.136
v 0.156 1.667 -0.171
v 0.48 1.667 -0.338
v 0.822 1.667 -0.196
usemtl Moss
s off
f 142 141 140 139 138 137
f 143 144 145 146 147 148
f 137 138 144 143
f 138 139 145 144
f 139 140 146 145
f 140 141 147 146
f 141 142 148 147
f 142 137 143 148
o Crack
v -0.984 0.859 0.634
v -1.011 0.859 0.623
v -1.017 0.833 0.636
v -0.989 0.833 0.647
v -0.734 0.475 -0.004
v -0.748 0.475 -0.009
v -0.751 0.461 -0.003
v -0.737 0.461 0.003
usemtl Soot
s off
f 152 151 150 149
f 153 154 155 156
f 149 150 154 153
f 150 151 155 154
f 151 152 156 155
f 152 149 153 156
o Crack
v -1.07 0.856 0.13
v -1.082 0.856 0.102
v -1.102 0.836 0.111
v -1.09 0.836 0.139
v -0.764 0.473 -0.009
v -0.77 0.473 -0.023
v -0.781 0.463 -0.018
v -0.775 0.463 -0.005
usemtl Soot
s off
f 160 159 158 157
f 161 162 163 164
f 157 158 162 161
f 158 159 163 162
f 159 160 164 163
f 160 157 161 164
o Crack
v 1.239 0.714 0.552
v 1.216 0.714 0.534
v 1.201 0.696 0.552
v 1.225 0.696 0.571
v 1.39 0.395 0.352
v 1.378 0.395 0.343
v 1.371 0.385 0.352
v 1.383 0.385 0.361
usemtl Soot
s off
f 168 167 166 165
f 169 170 171 172
f 165 166 170 169
f 166 167 171 170
f 167 168 172 171
f 168 165 169 172
o Moss
v 0.882 0.652 0.442
v 0.741 0.652 0.547
v 0.557 0.652 0.502
v 0.514 0.652 0.352
v 0.655 0.652 0.247
v 0.839 0.652 0.292
v 0.882 0.722 0.442
v 0.741 0.722 0.547
v 0.557 0.722 0.502
v 0.514 0.722 0.352
v 0.655 0.722 0.247
v 0.839 0.722 0.292
usemtl Moss
s off
f 178 177 176 175 174 173
f 179 180 181 182 183 184
f 173 174 180 179
f 174 175 181 180
f 175 176 182 181
f 176 177 183 182
f 177 178 184 183
f 178 173 179 184
o Crack
v 0.366 0.484 1.027
v 0.339 0.484 1.04
v 0.344 0.456 1.051
v 0.371 0.456 1.038
v 0.157 0.267 0.624
v 0.144 0.267 0.63
v 0.147 0.253 0.636
v 0.16 0.253 0.629
usemtl Soot
s off
f 188 187 186 185
f 189 190 191 192
f 185 186 190 189
f 186 187 191 190
f 187 188 192 191
f 188 185 189 192
o Pebble
v 0.798 0 0.213
v 0.76 0 0.136
v 0.839 0 0.083
v 0.926 0 0.127
v 0.901 0 0.207
v 0.821 0.079 0.183
v 0.802 0.079 0.145
v 0.842 0.079 0.118
v 0.885 0.079 0.14
v 0.873 0.079 0.18
usemtl Stone
s off
f 197 196 195 194 193
f 198 199 200 201 202
f 193 194 199 198
f 194 195 200 199
f 195 196 201 200
f 196 197 202 201
f 197 193 198 202
o Pebble
v -0.253 0 0.748
v -0.317 0 0.793
v -0.39 0 0.758
v -0.371 0 0.692
v -0.286 0 0.686
v -0.288 0.065 0.742
v -0.32 0.065 0.765
v -0.357 0.065 0.747
v -0.347 0.065 0.714
v -0.305 0.065 0.711
usemtl StoneDark
s off
f 207 206 205 204 203
f 208 209 210 211 212
f 203 204 209 208
f 204 205 210 209
f 205 206 211 210
f 206 207 212 211
f 207 203 208 212
o Pebble
v -0.886 0 -0.164
v -0.856 0 -0.234
v -0.762 0 -0.233
v -0.735 0 -0.162
v -0.811 0 -0.119
v -0.848 0.071 -0.173
v -0.833 0.071 -0.208
v -0.786 0.071 -0.208
v -0.772 0.071 -0.172
v -0.81 0.071 -0.151
usemtl StoneLight
s off
f 217 216 215 214 213
f 218 219 220 221 222
f 213 214 219 218
f 214 215 220 219
f 215 216 221 220
f 216 217 222 221
f 217 213 218 222
o Pebble
v -0.852 0 -0.32
v -0.891 0 -0.464
v -0.732 0 -0.539
v -0.594 0 -0.441
v -0.668 0 -0.305
v -0.799 0.142 -0.367
v -0.819 0.142 -0.439
v -0.739 0.142 -0.476
v -0.67 0.142 -0.427
v -0.708 0.142 -0.36
usemtl Stone
s off
f 227 226 225 224 223
f 228 229 230 231 232
f 223 224 229 228
f 224 225 230 229
f 225 226 231 230
f 226 227 232 231
f 227 223 228 232
o Pebble
v 1.174 0 0.03
v 1.105 0 0.053
v 1.056 0 0.008
v 1.095 0 -0.044
v 1.168 0 -0.03
v 1.147 0.058 0.017
v 1.112 0.058 0.028
v 1.088 0.058 0.006
v 1.107 0.058 -0.02
v 1.144 0.058 -0.013
usemtl StoneDark
s off
f 237 236 235 234 233
f 238 239 240 241 242
f 233 234 239 238
f 234 235 240 239
f 235 236 241 240
f 236 237 242 241
f 237 233 238 242
o Pebble
v -1.177 0 -0.335
v -1.256 0 -0.367
v -1.243 0 -0.437
v -1.155 0 -0.449
v -1.114 0 -0.386
v -1.183 0.068 -0.365
v -1.222 0.068 -0.381
v -1.216 0.068 -0.416
v -1.172 0.068 -0.422
v -1.152 0.068 -0.39
usemtl StoneLight
s off
f 247 246 245 244 243
f 248 249 250 251 252
f 243 244 249 248
f 244 245 250 249
f 245 246 251 250
f 246 247 252 251
f 247 243 248 252
o Pebble
v 0.414 0 -1.174
v 0.339 0 -1.289
v 0.453 0 -1.382
v 0.598 0 -1.323
v 0.574 0 -1.195
v 0.445 0.124 -1.223
v 0.407 0.124 -1.281
v 0.464 0.124 -1.327
v 0.537 0.124 -1.298
v 0.525 0.124 -1.234
usemtl Stone
s off
f 257 256 255 254 253
f 258 259 260 261 262
f 253 254 259 258
f 254 255 260 259
f 255 256 261 260
f 256 257 262 261
f 257 253 258 262
o Pebble
v -0.467 0 -0.686
v -0.545 0 -0.662
v -0.597 0 -0.714
v -0.552 0 -0.77
v -0.471 0 -0.752
v -0.497 0.064 -0.701
v -0.535 0.064 -0.689
v -0.562 0.064 -0.715
v -0.539 0.064 -0.743
v -0.499 0.064 -0.734
usemtl StoneDark
s off
f 267 266 265 264 263
f 268 269 270 271 272
f 263 264 269 268
f 264 265 270 269
f 265 266 271 270
f 266 267 272 271
f 267 263 268 272
o Pebble
v -0.809 0 1.255
v -0.946 0 1.201
v -0.924 0 1.08
v -0.774 0 1.059
v -0.702 0 1.167
v -0.82 0.117 1.204
v -0.888 0.117 1.177
v -0.878 0.117 1.117
v -0.802 0.117 1.106
v -0.767 0.117 1.16
usemtl StoneLight
s off
f 277 276 275 274 273
f 278 279 280 281 282
f 273 274 279 278
f 274 275 280 279
f 275 276 281 280
f 276 277 282 281
f 277 273 278 282
o Pebble
v -0.324 0 0.891
v -0.336 0 0.785
v -0.214 0 0.744
v -0.126 0 0.824
v -0.194 0 0.915
v -0.281 0.102 0.862
v -0.287 0.102 0.809
v -0.226 0.102 0.788
v -0.183 0.102 0.828
v -0.217 0.102 0.873
usemtl Stone
s off
f 287 286 285 284 283
f 288 289 290 291 292
f 283 284 289 288
f 284 285 290 289
f 285 286 291 290
f 286 287 292 291
f 287 283 288 292
o Pebble
v 0.052 0 -0.84
v 0.058 0 -0.919
v 0.154 0 -0.939
v 0.207 0 -0.872
v 0.144 0 -0.811
v 0.087 0.076 -0.858
v 0.09 0.076 -0.897
v 0.138 0.076 -0.907
v 0.165 0.076 -0.874
v 0.133 0.076 -0.843
usemtl StoneDark
s off
f 297 296 295 294 293
f 298 299 300 301 302
f 293 294 299 298
f 294 295 300 299
f 295 296 301 300
f 296 297 302 301
f 297 293 298 302
o Pebble
v -0.773 0 0.057
v -0.855 0 0.105
v -0.938 0 0.058
v -0.907 0 -0.02
v -0.805 0 -0.021
v -0.814 0.078 0.046
v -0.855 0.078 0.071
v -0.897 0.078 0.047
v -0.881 0.078 0.008
v -0.83 0.078 0.008
usemtl StoneLight
s off
f 307 306 305 304 303
f 308 309 310 311 312
f 303 304 309 308
f 304 305 310 309
f 305 306 311 310
f 306 307 312 311
f 307 303 308 312
o Pebble
v -0.726 0 1.129
v -0.858 0 1.118
v -0.885 0 1.014
v -0.77 0 0.961
v -0.671 0 1.032
v -0.754 0.102 1.09
v -0.82 0.102 1.084
v -0.834 0.102 1.032
v -0.776 0.102 1.006
v -0.727 0.102 1.041
usemtl Stone
s off
f 317 316 315 314 313
f 318 319 320 321 322
f 313 314 319 318
f 314 315 320 319
f 315 316 321 320
f 316 317 322 321
f 317 313 318 322
o Pebble
v -1.159 0 -0.235
v -1.223 0 -0.189
v -1.297 0 -0.223
v -1.28 0 -0.29
v -1.195 0 -0.298
v -1.195 0.066 -0.241
v -1.227 0.066 -0.218
v -1.264 0.066 -0.235
v -1.255 0.066 -0.269
v -1.213 0.066 -0.272
usemtl StoneDark
s off
f 327 326 325 324 323
f 328 329 330 331 332
f 323 324 329 328
f 324 325 330 329
f 325 326 331 330
f 326 327 332 331
f 327 323 328 332
