# stone_3.obj - Steinvorkommen fuer procedurally-generated-map
# Einheiten: Meter, Y oben, Vorderseite nach +Z - so wie Blender ein Modell
# exportiert, das in der Vorderansicht zum Betrachter schaut.
mtllib stone_3.mtl
o Boulder
v -0.954 0 0.376
v -1.091 0 -0.12
v -0.652 0 -0.392
v -0.186 0 -0.433
v 0.088 0 -0.107
v 0.039 0 0.3
v -0.409 0 0.524
v -1.038 0.713 0.453
v -1.199 0.713 -0.13
v -0.683 0.713 -0.45
v -0.134 0.713 -0.498
v 0.188 0.713 -0.115
v 0.131 0.713 0.364
v -0.397 0.713 0.627
usemtl StoneLight
s off
f 7 6 5 4 3 2 1
f 8 9 10 11 12 13 14
f 1 2 9 8
f 2 3 10 9
f 3 4 11 10
f 4 5 12 11
f 5 6 13 12
f 6 7 14 13
f 7 1 8 14
o Boulder
v -1.038 0.713 0.453
v -1.199 0.713 -0.13
v -0.683 0.713 -0.45
v -0.134 0.713 -0.498
v 0.188 0.713 -0.115
v 0.131 0.713 0.364
v -0.397 0.713 0.627
v -0.776 2 0.287
v -0.873 2 -0.063
v -0.563 2 -0.255
v -0.234 2 -0.284
v -0.041 2 -0.053
v -0.075 2 0.234
v -0.391 2 0.391
usemtl StoneLight
s off
f 21 20 19 18 17 16 15
f 22 23 24 25 26 27 28
f 15 16 23 22
f 16 17 24 23
f 17 18 25 24
f 18 19 26 25
f 19 20 27 26
f 20 21 28 27
f 21 15 22 28
o Boulder
v 1.068 0 -0.079
v 0.857 0 0.27
v 0.62 0 0.524
v 0.222 0 0.494
v 0.02 0 0.225
v 0.058 0 -0.064
v 0.304 0 -0.263
v 0.729 0 -0.382
v 1.148 0.7 -0.13
v 0.899 0.7 0.281
v 0.621 0.7 0.58
v 0.153 0.7 0.544
v -0.085 0.7 0.228
v -0.04 0.7 -0.111
v 0.249 0.7 -0.346
v 0.749 0.7 -0.487
usemtl StoneWarm
s off
f 36 35 34 33 32 31 30 29
f 37 38 39 40 41 42 43 44
f 29 30 38 37
f 30 31 39 38
f 31 32 40 39
f 32 33 41 40
f 33 34 42 41
f 34 35 43 42
f 35 36 44 43
f 36 29 37 44
o Boulder
v 1.148 0.7 -0.13
v 0.899 0.7 0.281
v 0.621 0.7 0.58
v 0.153 0.7 0.544
v -0.085 0.7 0.228
v -0.04 0.7 -0.111
v 0.249 0.7 -0.346
v 0.749 0.7 -0.487
v 0.757 1.8 -0.044
v 0.632 1.8 0.163
v 0.492 1.8 0.313
v 0.257 1.8 0.295
v 0.137 1.8 0.136
v 0.16 1.8 -0.035
v 0.305 1.8 -0.153
v 0.556 1.8 -0.223
usemtl StoneWarm
s off
f 52 51 50 49 48 47 46 45
f 53 54 55 56 57 58 59 60
f 45 46 54 53
f 46 47 55 54
f 47 48 56 55
f 48 49 57 56
f 49 50 58 57
f 50 51 59 58
f 51 52 60 59
f 52 45 53 60
o Boulder
v 0.278 0 0.646
v 0.544 0 0.848
v 0.396 0 1.139
v 0.071 0 1.182
v -0.17 0 1.052
v -0.283 0 0.795
v -0.01 0 0.653
v 0.307 0.237 0.633
v 0.62 0.237 0.871
v 0.446 0.237 1.214
v 0.064 0.237 1.263
v -0.22 0.237 1.111
v -0.353 0.237 0.809
v -0.032 0.237 0.642
usemtl Stone
s off
f 67 66 65 64 63 62 61
f 68 69 70 71 72 73 74
f 61 62 69 68
f 62 63 70 69
f 63 64 71 70
f 64 65 72 71
f 65 66 73 72
f 66 67 74 73
f 67 61 68 74
o Boulder
v 0.307 0.237 0.633
v 0.62 0.237 0.871
v 0.446 0.237 1.214
v 0.064 0.237 1.263
v -0.22 0.237 1.111
v -0.353 0.237 0.809
v -0.032 0.237 0.642
v 0.209 0.55 0.801
v 0.38 0.55 0.931
v 0.285 0.55 1.118
v 0.077 0.55 1.145
v -0.078 0.55 1.062
v -0.151 0.55 0.897
v 0.024 0.55 0.806
usemtl Stone
s off
f 81 80 79 78 77 76 75
f 82 83 84 85 86 87 88
f 75 76 83 82
f 76 77 84 83
f 77 78 85 84
f 78 79 86 85
f 79 80 87 86
f 80 81 88 87
f 81 75 82 88
o Boulder
v -0.864 0 -0.294
v -1.07 0 -0.287
v -1.286 0 -0.364
v -1.374 0 -0.589
v -1.134 0 -0.702
v -0.927 0 -0.721
v -0.744 0 -0.622
v -0.662 0 -0.419
v -0.848 0.169 -0.271
v -1.091 0.169 -0.263
v -1.345 0.169 -0.353
v -1.448 0.169 -0.619
v -1.165 0.169 -0.751
v -0.922 0.169 -0.774
v -0.707 0.169 -0.657
v -0.61 0.169 -0.418
usemtl StoneDark
s off
f 96 95 94 93 92 91 90 89
f 97 98 99 100 101 102 103 104
f 89 90 98 97
f 90 91 99 98
f 91 92 100 99
f 92 93 101 100
f 93 94 102 101
f 94 95 103 102
f 95 96 104 103
f 96 89 97 104
o Boulder
v -0.848 0.169 -0.271
v -1.091 0.169 -0.263
v -1.345 0.169 -0.353
v -1.448 0.169 -0.619
v -1.165 0.169 -0.751
v -0.922 0.169 -0.774
v -0.707 0.169 -0.657
v -0.61 0.169 -0.418
v -0.922 0.45 -0.384
v -1.065 0.45 -0.38
v -1.214 0.45 -0.433
v -1.275 0.45 -0.589
v -1.109 0.45 -0.667
v -0.966 0.45 -0.68
v -0.84 0.45 -0.611
v -0.782 0.45 -0.471
usemtl StoneDark
s off
f 112 111 110 109 108 107 106 105
f 113 114 115 116 117 118 119 120
f 105 106 114 113
f 106 107 115 114
f 107 108 116 115
f 108 109 117 116
f 109 110 118 117
f 110 111 119 118
f 111 112 120 119
f 112 105 113 120
o Crack
v -0.192 1.889 -0.193
v -0.162 1.889 -0.195
v -0.164 1.871 -0.219
v -0.194 1.871 -0.216
v -0.127 1.045 0.477
v -0.112 1.045 0.476
v -0.113 1.035 0.464
v -0.128 1.035 0.465
usemtl Soot
s off
f 124 123 122 121
f 125 126 127 128
f 121 122 126 125
f 122 123 127 126
f 123 124 128 127
f 124 121 125 128
o Crack
v -0.147 1.891 0.2
v -0.16 1.891 0.227
v -0.142 1.869 0.235
v -0.129 1.869 0.208
v -0.993 1.046 -0.194
v -1 1.046 -0.18
v -0.991 1.034 -0.176
v -0.984 1.034 -0.19
usemtl Soot
s off
f 132 131 130 129
f 133 134 135 136
f 129 130 134 133
f 130 131 135 134
f 131 132 136 135
f 132 129 133 136
o Moss
v 0.052 1.821 0.332
v -0.156 1.821 0.436
v -0.373 1.821 0.343
v -0.38 1.821 0.148
v -0.172 1.821 0.044
v 0.044 1.821 0.137
v 0.052 1.891 0.332
v -0.156 1.891 0.436
v -0.373 1.891 0.343
v -0.38 1.891 0.148
v -0.172 1.891 0.044
v 0.044 1.891 0.137
usemtl Moss
s off
f 142 141 140 139 138 137
f 143 144 145 146 147 148
f 137 138 144 143
f 138 139 145 144
f 139 140 146 145
f 140 141 147 146
f 141 142 148 147
f 142 137 143 148
o Crack
v 0.42 1.702 -0.189
v 0.43 1.702 -0.218
v 0.408 1.682 -0.225
v 0.398 1.682 -0.197
v 1.006 0.941 0.002
v 1.011 0.941 -0.013
v 1 0.931 -0.016
v 0.995 0.931 -0.002
usemtl Soot
s off
f 152 151 150 149
f 153 154 155 156
f 149 150 154 153
f 150 151 155 154
f 151 152 156 155
f 152 149 153 156
o Crack
v 0.318 1.702 0.312
v 0.292 1.702 0.328
v 0.304 1.682 0.347
v 0.33 1.682 0.331
v -0.017 0.941 -0.217
v -0.03 0.941 -0.209
v -0.024 0.931 -0.199
v -0.011 0.931 -0.207
usemtl Soot
s off
f 160 159 158 157
f 161 162 163 164
f 157 158 162 161
f 158 159 163 162
f 159 160 164 163
f 160 157 161 164
o Crack
v -0.126 0.531 0.971
v -0.118 0.531 0.942
v -0.128 0.503 0.939
v -0.137 0.503 0.968
v 0.437 0.293 1.129
v 0.441 0.293 1.115
v 0.436 0.279 1.113
v 0.432 0.279 1.128
usemtl Soot
s off
f 168 167 166 165
f 169 170 171 172
f 165 166 170 169
f 166 167 171 170
f 167 168 172 171
f 168 165 169 172
o Moss
v 0.07 0.505 0.917
v -0.061 0.505 0.987
v -0.203 0.505 0.931
v -0.213 0.505 0.806
v -0.082 0.505 0.736
v 0.059 0.505 0.792
v 0.07 0.575 0.917
v -0.061 0.575 0.987
v -0.203 0.575 0.931
v -0.213 0.575 0.806
v -0.082 0.575 0.736
v 0.059 0.575 0.792
usemtl Moss
s off
f 178 177 176 175 174 173
f 179 180 181 182 183 184
f 173 174 180 179
f 174 175 181 180
f 175 176 182 181
f 176 177 183 182
f 177 178 184 183
f 178 173 179 184
o Crack
v -0.889 0.435 -0.374
v -0.894 0.435 -0.403
v -0.911 0.411 -0.4
v -0.906 0.411 -0.371
v -0.632 0.24 -0.43
v -0.635 0.24 -0.445
v -0.644 0.228 -0.443
v -0.641 0.228 -0.428
usemtl Soot
s off
f 188 187 186 185
f 189 190 191 192
f 185 186 190 189
f 186 187 191 190
f 187 188 192 191
f 188 185 189 192
o Pebble
v 1.017 0 0.895
v 0.922 0 0.924
v 0.858 0 0.862
v 0.913 0 0.793
v 1.011 0 0.814
v 0.98 0.078 0.876
v 0.933 0.078 0.891
v 0.901 0.078 0.86
v 0.928 0.078 0.826
v 0.977 0.078 0.836
usemtl Stone
s off
f 197 196 195 194 193
f 198 199 200 201 202
f 193 194 199 198
f 194 195 200 199
f 195 196 201 200
f 196 197 202 201
f 197 193 198 202
o Pebble
v 0.203 0 1.102
v 0.253 0 0.969
v 0.426 0 0.966
v 0.483 0 1.097
v 0.345 0 1.181
v 0.272 0.133 1.082
v 0.297 0.133 1.016
v 0.384 0.133 1.014
v 0.412 0.133 1.08
v 0.344 0.133 1.122
usemtl StoneDark
s off
f 207 206 205 204 203
f 208 209 210 211 212
f 203 204 209 208
f 204 205 210 209
f 205 206 211 210
f 206 207 212 211
f 207 203 208 212
o Pebble
v -1.028 0 -0.232
v -1.021 0 -0.289
v -0.951 0 -0.302
v -0.914 0 -0.253
v -0.962 0 -0.21
v -1.001 0.055 -0.245
v -0.998 0.055 -0.273
v -0.963 0.055 -0.28
v -0.945 0.055 -0.255
v -0.968 0.055 -0.233
usemtl StoneLight
s off
f 217 216 215 214 213
f 218 219 220 221 222
f 213 214 219 218
f 214 215 220 219
f 215 216 221 220
f 216 217 222 221
f 217 213 218 222
o Pebble
v 0.368 0 -0.93
v 0.38 0 -1.04
v 0.515 0 -1.065
v 0.586 0 -0.97
v 0.496 0 -0.887
v 0.419 0.106 -0.954
v 0.424 0.106 -1.009
v 0.492 0.106 -1.022
v 0.528 0.106 -0.974
v 0.482 0.106 -0.933
usemtl Stone
s off
f 227 226 225 224 223
f 228 229 230 231 232
f 223 224 229 228
f 224 225 230 229
f 225 226 231 230
f 226 227 232 231
f 227 223 228 232
o Pebble
v 0.935 0 -0.717
v 0.861 0 -0.83
v 0.973 0 -0.922
v 1.116 0 -0.865
v 1.093 0 -0.738
v 0.966 0.123 -0.765
v 0.928 0.123 -0.822
v 0.984 0.123 -0.868
v 1.056 0.123 -0.84
v 1.044 0.123 -0.776
usemtl StoneDark
s off
f 237 236 235 234 233
f 238 239 240 241 242
f 233 234 239 238
f 234 235 240 239
f 235 236 241 240
f 236 237 242 241
f 237 233 238 242
o Pebble
v -0.302 0 -1.364
v -0.289 0 -1.486
v -0.14 0 -1.513
v -0.061 0 -1.409
v -0.161 0 -1.317
v -0.246 0.117 -1.391
v -0.239 0.117 -1.452
v -0.165 0.117 -1.465
v -0.126 0.117 -1.413
v -0.176 0.117 -1.367
usemtl StoneLight
s off
f 247 246 245 244 243
f 248 249 250 251 252
f 243 244 249 248
f 244 245 250 249
f 245 246 251 250
f 246 247 252 251
f 247 243 248 252
o Pebble
v -1.195 0 0.675
v -1.148 0 0.576
v -1.016 0 0.58
v -0.98 0 0.683
v -1.091 0 0.741
v -1.14 0.102 0.663
v -1.117 0.102 0.614
v -1.051 0.102 0.616
v -1.033 0.102 0.667
v -1.088 0.102 0.696
usemtl Stone
s off
f 257 256 255 254 253
f 258 259 260 261 262
f 253 254 259 258
f 254 255 260 259
f 255 256 261 260
f 256 257 262 261
f 257 253 258 262
o Pebble
v 0.971 0 -1
v 0.842 0 -0.989
v 0.789 0 -1.084
v 0.886 0 -1.154
v 0.998 0 -1.102
v 0.934 0.1 -1.033
v 0.87 0.1 -1.027
v 0.843 0.1 -1.075
v 0.891 0.1 -1.11
v 0.948 0.1 -1.084
usemtl StoneDark
s off
f 267 266 265 264 263
f 268 269 270 271 272
f 263 264 269 268
f 264 265 270 269
f 265 266 271 270
f 266 267 272 271
f 267 263 268 272
o Pebble
v -1.028 0 0.448
v -1.187 0 0.372
v -1.146 0 0.228
v -0.962 0 0.215
v -0.889 0 0.351
v -1.035 0.141 0.385
v -1.115 0.141 0.348
v -1.094 0.141 0.276
v -1.002 0.141 0.269
v -0.966 0.141 0.337
usemtl StoneLight
s off
f 277 276 275 274 273
f 278 279 280 281 282
f 273 274 279 278
f 274 275 280 279
f 275 276 281 280
f 276 277 282 281
f 277 273 278 282
o Pebble
v 0.784 0 -0.382
v 0.761 0 -0.453
v 0.838 0 -0.492
v 0.909 0 -0.445
v 0.875 0 -0.378
v 0.809 0.07 -0.406
v 0.797 0.07 -0.442
v 0.836 0.07 -0.461
v 0.871 0.07 -0.438
v 0.854 0.07 -0.404
usemtl Stone
s off
f 287 286 285 284 283
f 288 289 290 291 292
f 283 284 289 288
f 284 285 290 289
f 285 286 291 290
f 286 287 292 291
f 287 283 288 292
o Pebble
v 0.151 0 1.467
v 0.13 0 1.404
v 0.198 0 1.368
v 0.261 0 1.409
v 0.232 0 1.47
v 0.173 0.062 1.445
v 0.162 0.062 1.414
v 0.196 0.062 1.396
v 0.228 0.062 1.416
v 0.213 0.062 1.447
usemtl StoneDark
s off
f 297 296 295 294 293
f 298 299 300 301 302
f 293 294 299 298
f 294 295 300 299
f 295 296 301 300
f 296 297 302 301
f 297 293 298 302
o Pebble
v -0.217 0 0.975
v -0.332 0 0.867
v -0.239 0 0.747
v -0.067 0 0.78
v -0.053 0 0.921
v -0.199 0.136 0.917
v -0.257 0.136 0.863
v -0.21 0.136 0.802
v -0.124 0.136 0.819
v -0.118 0.136 0.89
usemtl StoneLight
s off
f 307 306 305 304 303
f 308 309 310 311 312
f 303 304 309 308
f 304 305 310 309
f 305 306 311 310
f 306 307 312 311
f 307 303 308 312
o Pebble
v -0.019 0 1.533
v -0.075 0 1.427
v 0.034 0 1.352
v 0.156 0 1.411
v 0.124 0 1.523
v 0.012 0.11 1.491
v -0.015 0.11 1.438
v 0.039 0.11 1.401
v 0.1 0.11 1.43
v 0.084 0.11 1.486
usemtl Stone
s off
f 317 316 315 314 313
f 318 319 320 321 322
f 313 314 319 318
f 314 315 320 319
f 315 316 321 320
f 316 317 322 321
f 317 313 318 322
o Pebble
v 0.722 0 0.673
v 0.587 0 0.757
v 0.444 0 0.68
v 0.492 0 0.548
v 0.664 0 0.544
v 0.652 0.132 0.657
v 0.584 0.132 0.699
v 0.513 0.132 0.66
v 0.537 0.132 0.594
v 0.623 0.132 0.592
usemtl StoneDark
s off
f 327 326 325 324 323
f 328 329 330 331 332
f 323 324 329 328
f 324 325 330 329
f 325 326 331 330
f 326 327 332 331
f 327 323 328 332
