# town_center.obj - Hauptgebaeude fuer procedurally-generated-map
# Einheiten: Meter, Y oben, Vorderseite nach +Z - so wie Blender ein Modell
# exportiert, das in der Vorderansicht zum Betrachter schaut.
# Material Paint (Fahne und Banner) bekommt die Gebaeudefarbe aus dem Spiel.
mtllib town_center.mtl
o Platform
v -3.00000 0.00000 -3.00000
v 3.00000 0.00000 -3.00000
v 3.00000 0.22000 -3.00000
v -3.00000 0.22000 -3.00000
v -3.00000 0.00000 3.00000
v 3.00000 0.00000 3.00000
v 3.00000 0.22000 3.00000
v -3.00000 0.22000 3.00000
s off
usemtl Stone
f 1 4 3 2
f 5 6 7 8
f 1 2 6 5
f 4 8 7 3
f 1 5 8 4
f 2 3 7 6
v -2.75000 0.22000 -2.75000
v 2.75000 0.22000 -2.75000
v 2.75000 0.34000 -2.75000
v -2.75000 0.34000 -2.75000
v -2.75000 0.22000 2.75000
v 2.75000 0.22000 2.75000
v 2.75000 0.34000 2.75000
v -2.75000 0.34000 2.75000
s off
usemtl Stone
f 9 12 11 10
f 13 14 15 16
f 9 10 14 13
f 12 16 15 11
f 9 13 16 12
f 10 11 15 14
o Hall
v -2.10000 0.34000 -2.10000
v 2.10000 0.34000 -2.10000
v 2.10000 2.60000 -2.10000
v -2.10000 2.60000 -2.10000
v -2.10000 0.34000 2.10000
v 2.10000 0.34000 2.10000
v 2.10000 2.60000 2.10000
v -2.10000 2.60000 2.10000
s off
usemtl Plaster
f 17 20 19 18
f 21 22 23 24
f 17 18 22 21
f 20 24 23 19
f 17 21 24 20
f 18 19 23 22
o Timber
v -2.20000 0.34000 -2.20000
v -2.00000 0.34000 -2.20000
v -2.00000 2.62000 -2.20000
v -2.20000 2.62000 -2.20000
v -2.20000 0.34000 -2.00000
v -2.00000 0.34000 -2.00000
v -2.00000 2.62000 -2.00000
v -2.20000 2.62000 -2.00000
s off
usemtl Timber
f 25 28 27 26
f 29 30 31 32
f 25 26 30 29
f 28 32 31 27
f 25 29 32 28
f 26 27 31 30
v 2.00000 0.34000 -2.20000
v 2.20000 0.34000 -2.20000
v 2.20000 2.62000 -2.20000
v 2.00000 2.62000 -2.20000
v 2.00000 0.34000 -2.00000
v 2.20000 0.34000 -2.00000
v 2.20000 2.62000 -2.00000
v 2.00000 2.62000 -2.00000
s off
usemtl Timber
f 33 36 35 34
f 37 38 39 40
f 33 34 38 37
f 36 40 39 35
f 33 37 40 36
f 34 35 39 38
v -2.20000 0.34000 2.00000
v -2.00000 0.34000 2.00000
v -2.00000 2.62000 2.00000
v -2.20000 2.62000 2.00000
v -2.20000 0.34000 2.20000
v -2.00000 0.34000 2.20000
v -2.00000 2.62000 2.20000
v -2.20000 2.62000 2.20000
s off
usemtl Timber
f 41 44 43 42
f 45 46 47 48
f 41 42 46 45
f 44 48 47 43
f 41 45 48 44
f 42 43 47 46
v 2.00000 0.34000 2.00000
v 2.20000 0.34000 2.00000
v 2.20000 2.62000 2.00000
v 2.00000 2.62000 2.00000
v 2.00000 0.34000 2.20000
v 2.20000 0.34000 2.20000
v 2.20000 2.62000 2.20000
v 2.00000 2.62000 2.20000
s off
usemtl Timber
f 49 52 51 50
f 53 54 55 56
f 49 50 54 53
f 52 56 55 51
f 49 53 56 52
f 50 51 55 54
v -2.15000 2.48000 2.10000
v 2.15000 2.48000 2.10000
v 2.15000 2.60000 2.10000
v -2.15000 2.60000 2.10000
v -2.15000 2.48000 2.15000
v 2.15000 2.48000 2.15000
v 2.15000 2.60000 2.15000
v -2.15000 2.60000 2.15000
s off
usemtl Timber
f 57 60 59 58
f 61 62 63 64
f 57 58 62 61
f 60 64 63 59
f 57 61 64 60
f 58 59 63 62
v -2.15000 2.48000 -2.15000
v 2.15000 2.48000 -2.15000
v 2.15000 2.60000 -2.15000
v -2.15000 2.60000 -2.15000
v -2.15000 2.48000 -2.10000
v 2.15000 2.48000 -2.10000
v 2.15000 2.60000 -2.10000
v -2.15000 2.60000 -2.10000
s off
usemtl Timber
f 65 68 67 66
f 69 70 71 72
f 65 66 70 69
f 68 72 71 67
f 65 69 72 68
f 66 67 71 70
v -2.15000 2.48000 -2.10000
v -2.10000 2.48000 -2.10000
v -2.10000 2.60000 -2.10000
v -2.15000 2.60000 -2.10000
v -2.15000 2.48000 2.10000
v -2.10000 2.48000 2.10000
v -2.10000 2.60000 2.10000
v -2.15000 2.60000 2.10000
s off
usemtl Timber
f 73 76 75 74
f 77 78 79 80
f 73 74 78 77
f 76 80 79 75
f 73 77 80 76
f 74 75 79 78
v 2.10000 2.48000 -2.10000
v 2.15000 2.48000 -2.10000
v 2.15000 2.60000 -2.10000
v 2.10000 2.60000 -2.10000
v 2.10000 2.48000 2.10000
v 2.15000 2.48000 2.10000
v 2.15000 2.60000 2.10000
v 2.10000 2.60000 2.10000
s off
usemtl Timber
f 81 84 83 82
f 85 86 87 88
f 81 82 86 85
f 84 88 87 83
f 81 85 88 84
f 82 83 87 86
v -2.15000 1.45000 2.10000
v 2.15000 1.45000 2.10000
v 2.15000 1.57000 2.10000
v -2.15000 1.57000 2.10000
v -2.15000 1.45000 2.15000
v 2.15000 1.45000 2.15000
v 2.15000 1.57000 2.15000
v -2.15000 1.57000 2.15000
s off
usemtl Timber
f 89 92 91 90
f 93 94 95 96
f 89 90 94 93
f 92 96 95 91
f 89 93 96 92
f 90 91 95 94
v -2.15000 1.45000 -2.15000
v 2.15000 1.45000 -2.15000
v 2.15000 1.57000 -2.15000
v -2.15000 1.57000 -2.15000
v -2.15000 1.45000 -2.10000
v 2.15000 1.45000 -2.10000
v 2.15000 1.57000 -2.10000
v -2.15000 1.57000 -2.10000
s off
usemtl Timber
f 97 100 99 98
f 101 102 103 104
f 97 98 102 101
f 100 104 103 99
f 97 101 104 100
f 98 99 103 102
v -2.15000 1.45000 -2.10000
v -2.10000 1.45000 -2.10000
v -2.10000 1.57000 -2.10000
v -2.15000 1.57000 -2.10000
v -2.15000 1.45000 2.10000
v -2.10000 1.45000 2.10000
v -2.10000 1.57000 2.10000
v -2.15000 1.57000 2.10000
s off
usemtl Timber
f 105 108 107 106
f 109 110 111 112
f 105 106 110 109
f 108 112 111 107
f 105 109 112 108
f 106 107 111 110
v 2.10000 1.45000 -2.10000
v 2.15000 1.45000 -2.10000
v 2.15000 1.57000 -2.10000
v 2.10000 1.57000 -2.10000
v 2.10000 1.45000 2.10000
v 2.15000 1.45000 2.10000
v 2.15000 1.57000 2.10000
v 2.10000 1.57000 2.10000
s off
usemtl Timber
f 113 116 115 114
f 117 118 119 120
f 113 114 118 117
f 116 120 119 115
f 113 117 120 116
f 114 115 119 118
v -1.12000 0.34000 2.10000
v -0.98000 0.34000 2.10000
v -0.98000 2.60000 2.10000
v -1.12000 2.60000 2.10000
v -1.12000 0.34000 2.15000
v -0.98000 0.34000 2.15000
v -0.98000 2.60000 2.15000
v -1.12000 2.60000 2.15000
s off
usemtl Timber
f 121 124 123 122
f 125 126 127 128
f 121 122 126 125
f 124 128 127 123
f 121 125 128 124
f 122 123 127 126
v 0.98000 0.34000 2.10000
v 1.12000 0.34000 2.10000
v 1.12000 2.60000 2.10000
v 0.98000 2.60000 2.10000
v 0.98000 0.34000 2.15000
v 1.12000 0.34000 2.15000
v 1.12000 2.60000 2.15000
v 0.98000 2.60000 2.15000
s off
usemtl Timber
f 129 132 131 130
f 133 134 135 136
f 129 130 134 133
f 132 136 135 131
f 129 133 136 132
f 130 131 135 134
o Door
v -0.55000 0.34000 2.10000
v 0.55000 0.34000 2.10000
v 0.55000 1.90000 2.10000
v -0.55000 1.90000 2.10000
v -0.55000 0.34000 2.16000
v 0.55000 0.34000 2.16000
v 0.55000 1.90000 2.16000
v -0.55000 1.90000 2.16000
s off
usemtl Wood
f 137 140 139 138
f 141 142 143 144
f 137 138 142 141
f 140 144 143 139
f 137 141 144 140
f 138 139 143 142
v -0.03000 0.34000 2.16000
v 0.03000 0.34000 2.16000
v 0.03000 1.90000 2.16000
v -0.03000 1.90000 2.16000
v -0.03000 0.34000 2.18000
v 0.03000 0.34000 2.18000
v 0.03000 1.90000 2.18000
v -0.03000 1.90000 2.18000
s off
usemtl Timber
f 145 148 147 146
f 149 150 151 152
f 145 146 150 149
f 148 152 151 147
f 145 149 152 148
f 146 147 151 150
o Windows
v -1.82000 1.70000 2.10000
v -1.38000 1.70000 2.10000
v -1.38000 2.20000 2.10000
v -1.82000 2.20000 2.10000
v -1.82000 1.70000 2.13000
v -1.38000 1.70000 2.13000
v -1.38000 2.20000 2.13000
v -1.82000 2.20000 2.13000
s off
usemtl Glass
f 153 156 155 154
f 157 158 159 160
f 153 154 158 157
f 156 160 159 155
f 153 157 160 156
f 154 155 159 158
v 1.38000 1.70000 2.10000
v 1.82000 1.70000 2.10000
v 1.82000 2.20000 2.10000
v 1.38000 2.20000 2.10000
v 1.38000 1.70000 2.13000
v 1.82000 1.70000 2.13000
v 1.82000 2.20000 2.13000
v 1.38000 2.20000 2.13000
s off
usemtl Glass
f 161 164 163 162
f 165 166 167 168
f 161 162 166 165
f 164 168 167 163
f 161 165 168 164
f 162 163 167 166
v 2.10000 1.70000 -1.32000
v 2.13000 1.70000 -1.32000
v 2.13000 2.20000 -1.32000
v 2.10000 2.20000 -1.32000
v 2.10000 1.70000 -0.88000
v 2.13000 1.70000 -0.88000
v 2.13000 2.20000 -0.88000
v 2.10000 2.20000 -0.88000
s off
usemtl Glass
f 169 172 171 170
f 173 174 175 176
f 169 170 174 173
f 172 176 175 171
f 169 173 176 172
f 170 171 175 174
v -2.13000 1.70000 -1.32000
v -2.10000 1.70000 -1.32000
v -2.10000 2.20000 -1.32000
v -2.13000 2.20000 -1.32000
v -2.13000 1.70000 -0.88000
v -2.10000 1.70000 -0.88000
v -2.10000 2.20000 -0.88000
v -2.13000 2.20000 -0.88000
s off
usemtl Glass
f 177 180 179 178
f 181 182 183 184
f 177 178 182 181
f 180 184 183 179
f 177 181 184 180
f 178 179 183 182
v 2.10000 1.70000 -0.22000
v 2.13000 1.70000 -0.22000
v 2.13000 2.20000 -0.22000
v 2.10000 2.20000 -0.22000
v 2.10000 1.70000 0.22000
v 2.13000 1.70000 0.22000
v 2.13000 2.20000 0.22000
v 2.10000 2.20000 0.22000
s off
usemtl Glass
f 185 188 187 186
f 189 190 191 192
f 185 186 190 189
f 188 192 191 187
f 185 189 192 188
f 186 187 191 190
v -2.13000 1.70000 -0.22000
v -2.10000 1.70000 -0.22000
v -2.10000 2.20000 -0.22000
v -2.13000 2.20000 -0.22000
v -2.13000 1.70000 0.22000
v -2.10000 1.70000 0.22000
v -2.10000 2.20000 0.22000
v -2.13000 2.20000 0.22000
s off
usemtl Glass
f 193 196 195 194
f 197 198 199 200
f 193 194 198 197
f 196 200 199 195
f 193 197 200 196
f 194 195 199 198
v 2.10000 1.70000 0.88000
v 2.13000 1.70000 0.88000
v 2.13000 2.20000 0.88000
v 2.10000 2.20000 0.88000
v 2.10000 1.70000 1.32000
v 2.13000 1.70000 1.32000
v 2.13000 2.20000 1.32000
v 2.10000 2.20000 1.32000
s off
usemtl Glass
f 201 204 203 202
f 205 206 207 208
f 201 202 206 205
f 204 208 207 203
f 201 205 208 204
f 202 203 207 206
v -2.13000 1.70000 0.88000
v -2.10000 1.70000 0.88000
v -2.10000 2.20000 0.88000
v -2.13000 2.20000 0.88000
v -2.13000 1.70000 1.32000
v -2.10000 1.70000 1.32000
v -2.10000 2.20000 1.32000
v -2.13000 2.20000 1.32000
s off
usemtl Glass
f 209 212 211 210
f 213 214 215 216
f 209 210 214 213
f 212 216 215 211
f 209 213 216 212
f 210 211 215 214
o Roof
v 2.50000 2.50000 2.50000
v 2.50000 2.50000 -2.50000
v -2.50000 2.50000 -2.50000
v -2.50000 2.50000 2.50000
v 1.20000 3.90000 1.20000
v 1.20000 3.90000 -1.20000
v -1.20000 3.90000 -1.20000
v -1.20000 3.90000 1.20000
s off
usemtl Tiles
f 217 218 222 221
f 218 219 223 222
f 219 220 224 223
f 220 217 221 224
f 221 222 223 224
f 220 219 218 217
o Porch
v -1.93000 0.34000 2.49000
v -1.67000 0.34000 2.49000
v -1.67000 1.95000 2.49000
v -1.93000 1.95000 2.49000
v -1.93000 0.34000 2.75000
v -1.67000 0.34000 2.75000
v -1.67000 1.95000 2.75000
v -1.93000 1.95000 2.75000
s off
usemtl Stone
f 225 228 227 226
f 229 230 231 232
f 225 226 230 229
f 228 232 231 227
f 225 229 232 228
f 226 227 231 230
v -0.73000 0.34000 2.49000
v -0.47000 0.34000 2.49000
v -0.47000 1.95000 2.49000
v -0.73000 1.95000 2.49000
v -0.73000 0.34000 2.75000
v -0.47000 0.34000 2.75000
v -0.47000 1.95000 2.75000
v -0.73000 1.95000 2.75000
s off
usemtl Stone
f 233 236 235 234
f 237 238 239 240
f 233 234 238 237
f 236 240 239 235
f 233 237 240 236
f 234 235 239 238
v 0.47000 0.34000 2.49000
v 0.73000 0.34000 2.49000
v 0.73000 1.95000 2.49000
v 0.47000 1.95000 2.49000
v 0.47000 0.34000 2.75000
v 0.73000 0.34000 2.75000
v 0.73000 1.95000 2.75000
v 0.47000 1.95000 2.75000
s off
usemtl Stone
f 241 244 243 242
f 245 246 247 248
f 241 242 246 245
f 244 248 247 243
f 241 245 248 244
f 242 243 247 246
v 1.67000 0.34000 2.49000
v 1.93000 0.34000 2.49000
v 1.93000 1.95000 2.49000
v 1.67000 1.95000 2.49000
v 1.67000 0.34000 2.75000
v 1.93000 0.34000 2.75000
v 1.93000 1.95000 2.75000
v 1.67000 1.95000 2.75000
s off
usemtl Stone
f 249 252 251 250
f 253 254 255 256
f 249 250 254 253
f 252 256 255 251
f 249 253 256 252
f 250 251 255 254
v -2.15000 1.85000 2.45000
v 2.15000 1.85000 2.45000
v 2.15000 2.00000 2.45000
v -2.15000 2.00000 2.45000
v -2.15000 1.85000 2.80000
v 2.15000 1.85000 2.80000
v 2.15000 2.00000 2.80000
v -2.15000 2.00000 2.80000
s off
usemtl Timber
f 257 260 259 258
f 261 262 263 264
f 257 258 262 261
f 260 264 263 259
f 257 261 264 260
f 258 259 263 262
v -2.30000 1.95000 2.95000
v 2.30000 1.95000 2.95000
v 2.30000 2.07000 2.95000
v -2.30000 2.07000 2.95000
v -2.30000 2.45000 2.10000
v 2.30000 2.45000 2.10000
v 2.30000 2.57000 2.10000
v -2.30000 2.57000 2.10000
s off
usemtl Tiles
f 266 267 268 265
f 272 271 270 269
f 269 270 266 265
f 267 271 272 268
f 268 272 269 265
f 270 271 267 266
o Tower
v -0.95000 3.60000 -0.95000
v 0.95000 3.60000 -0.95000
v 0.95000 5.40000 -0.95000
v -0.95000 5.40000 -0.95000
v -0.95000 3.60000 0.95000
v 0.95000 3.60000 0.95000
v 0.95000 5.40000 0.95000
v -0.95000 5.40000 0.95000
s off
usemtl Stone
f 273 276 275 274
f 277 278 279 280
f 273 274 278 277
f 276 280 279 275
f 273 277 280 276
f 274 275 279 278
v -0.59000 4.50000 0.95000
v -0.31000 4.50000 0.95000
v -0.31000 5.05000 0.95000
v -0.59000 5.05000 0.95000
v -0.59000 4.50000 0.98000
v -0.31000 4.50000 0.98000
v -0.31000 5.05000 0.98000
v -0.59000 5.05000 0.98000
s off
usemtl Glass
f 281 284 283 282
f 285 286 287 288
f 281 282 286 285
f 284 288 287 283
f 281 285 288 284
f 282 283 287 286
v 0.31000 4.50000 0.95000
v 0.59000 4.50000 0.95000
v 0.59000 5.05000 0.95000
v 0.31000 5.05000 0.95000
v 0.31000 4.50000 0.98000
v 0.59000 4.50000 0.98000
v 0.59000 5.05000 0.98000
v 0.31000 5.05000 0.98000
s off
usemtl Glass
f 289 292 291 290
f 293 294 295 296
f 289 290 294 293
f 292 296 295 291
f 289 293 296 292
f 290 291 295 294
v -1.10000 5.35000 -1.10000
v 1.10000 5.35000 -1.10000
v 1.10000 5.55000 -1.10000
v -1.10000 5.55000 -1.10000
v -1.10000 5.35000 1.10000
v 1.10000 5.35000 1.10000
v 1.10000 5.55000 1.10000
v -1.10000 5.55000 1.10000
s off
usemtl Stone
f 297 300 299 298
f 301 302 303 304
f 297 298 302 301
f 300 304 303 299
f 297 301 304 300
f 298 299 303 302
o TowerRoof
v 1.30000 5.50000 1.30000
v 1.30000 5.50000 -1.30000
v -1.30000 5.50000 -1.30000
v -1.30000 5.50000 1.30000
v 0.00000 7.00000 0.00000
s off
usemtl Tiles
f 305 306 309
f 306 307 309
f 307 308 309
f 308 305 309
f 308 307 306 305
o Flag
v -0.04000 6.90000 -0.04000
v 0.04000 6.90000 -0.04000
v 0.04000 8.00000 -0.04000
v -0.04000 8.00000 -0.04000
v -0.04000 6.90000 0.04000
v 0.04000 6.90000 0.04000
v 0.04000 8.00000 0.04000
v -0.04000 8.00000 0.04000
s off
usemtl Timber
f 310 313 312 311
f 314 315 316 317
f 310 311 315 314
f 313 317 316 312
f 310 314 317 313
f 311 312 316 315
v 0.04000 7.45000 -0.02000
v 0.90000 7.45000 -0.02000
v 0.90000 7.95000 -0.02000
v 0.04000 7.95000 -0.02000
v 0.04000 7.45000 0.02000
v 0.90000 7.45000 0.02000
v 0.90000 7.95000 0.02000
v 0.04000 7.95000 0.02000
s off
usemtl Paint
f 318 321 320 319
f 322 323 324 325
f 318 319 323 322
f 321 325 324 320
f 318 322 325 321
f 319 320 324 323
v -0.99000 1.00000 2.15000
v -0.71000 1.00000 2.15000
v -0.71000 1.75000 2.15000
v -0.99000 1.75000 2.15000
v -0.99000 1.00000 2.19000
v -0.71000 1.00000 2.19000
v -0.71000 1.75000 2.19000
v -0.99000 1.75000 2.19000
s off
usemtl Paint
f 326 329 328 327
f 330 331 332 333
f 326 327 331 330
f 329 333 332 328
f 326 330 333 329
f 327 328 332 331
v 0.71000 1.00000 2.15000
v 0.99000 1.00000 2.15000
v 0.99000 1.75000 2.15000
v 0.71000 1.75000 2.15000
v 0.71000 1.00000 2.19000
v 0.99000 1.00000 2.19000
v 0.99000 1.75000 2.19000
v 0.71000 1.75000 2.19000
s off
usemtl Paint
f 334 337 336 335
f 338 339 340 341
f 334 335 339 338
f 337 341 340 336
f 334 338 341 337
f 335 336 340 339
