# tree_oak_old.obj - Alte Eiche (Holz) fuer procedurally-generated-map
# Einheiten: Meter, Y oben, Vorderseite nach +Z - so wie Blender ein Modell
# exportiert, das in der Vorderansicht zum Betrachter schaut.
# Material Paint (das Laub) bekommt eine je Baum leicht andere Farbe.
mtllib tree_oak_old.mtl
o Root
v 0.403 0.963 0.314
v 0.516 1.084 0.016
v 0.423 0.768 -0.201
v 0.253 0.451 -0.037
v 0.241 0.572 0.281
v 1.331 0.065 0.347
v 1.368 0.106 0.248
v 1.337 0 0.176
v 1.281 -0.106 0.231
v 1.276 -0.065 0.337
usemtl Bark
s off
f 5 4 3 2 1
f 6 7 8 9 10
f 1 2 7 6
f 2 3 8 7
f 3 4 9 8
f 4 5 10 9
f 5 1 6 10
o Root
v 0.037 0.963 0.51
v 0.333 1.084 0.394
v 0.432 0.768 0.18
v 0.197 0.451 0.163
v -0.047 0.572 0.367
v 0.632 0.065 1.221
v 0.731 0.106 1.183
v 0.763 0 1.112
v 0.685 -0.106 1.106
v 0.603 -0.065 1.174
usemtl Bark
s off
f 15 14 13 12 11
f 16 17 18 19 20
f 11 12 17 16
f 12 13 18 17
f 13 14 19 18
f 14 15 20 19
f 15 11 16 20
o Root
v -0.402 0.963 0.316
v -0.14 1.084 0.497
v 0.092 0.768 0.459
v -0.025 0.451 0.255
v -0.331 0.572 0.166
v -0.658 0.065 1.207
v -0.572 0.106 1.268
v -0.493 0 1.256
v -0.533 -0.106 1.187
v -0.635 -0.065 1.157
usemtl Bark
s off
f 25 24 23 22 21
f 26 27 28 29 30
f 21 22 27 26
f 22 23 28 27
f 23 24 29 28
f 24 25 30 29
f 25 21 26 30
o Root
v -0.462 0.963 -0.219
v -0.507 1.084 0.096
v -0.37 0.768 0.287
v -0.239 0.451 0.091
v -0.296 0.572 -0.222
v -1.374 0.065 -0.052
v -1.39 0.106 0.053
v -1.344 0 0.117
v -1.301 -0.106 0.052
v -1.319 -0.065 -0.052
usemtl Bark
s off
f 35 34 33 32 31
f 36 37 38 39 40
f 31 32 37 36
f 32 33 38 37
f 33 34 39 38
f 34 35 40 39
f 35 31 36 40
o Root
v -0.129 0.963 -0.495
v -0.4 1.084 -0.327
v -0.458 0.768 -0.097
v -0.224 0.451 -0.124
v -0.021 0.572 -0.37
v -0.845 0.065 -1.085
v -0.936 0.106 -1.029
v -0.955 0 -0.952
v -0.877 -0.106 -0.961
v -0.809 -0.065 -1.043
usemtl Bark
s off
f 45 44 43 42 41
f 46 47 48 49 50
f 41 42 47 46
f 42 43 48 47
f 43 44 49 48
f 44 45 50 49
f 45 41 46 50
o Root
v 0.314 0.963 -0.403
v 0.016 1.084 -0.516
v -0.201 0.768 -0.423
v -0.037 0.451 -0.253
v 0.281 0.572 -0.241
v 0.347 0.065 -1.331
v 0.248 0.106 -1.368
v 0.176 0 -1.337
v 0.231 -0.106 -1.281
v 0.337 -0.065 -1.276
usemtl Bark
s off
f 55 54 53 52 51
f 56 57 58 59 60
f 51 52 57 56
f 52 53 58 57
f 53 54 59 58
f 54 55 60 59
f 55 51 56 60
o Root
v 0.511 0.963 -0.013
v 0.409 1.084 -0.315
v 0.2 0.768 -0.424
v 0.172 0.451 -0.189
v 0.365 0.572 0.064
v 1.249 0.065 -0.575
v 1.216 0.106 -0.676
v 1.146 0 -0.712
v 1.136 -0.106 -0.634
v 1.201 -0.065 -0.549
usemtl Bark
s off
f 65 64 63 62 61
f 66 67 68 69 70
f 61 62 67 66
f 62 63 68 67
f 63 64 69 68
f 64 65 70 69
f 65 61 66 70
o Trunk.Stump
v 0.283 0.005 -0.783
v 0.717 -0.078 -0.419
v 0.817 -0.124 0.141
v 0.532 -0.111 0.636
v 0 -0.048 0.832
v -0.532 0.04 0.64
v -0.817 0.108 0.148
v -0.717 0.125 -0.413
v -0.283 0.084 -0.781
v 0.315 0.516 -0.747
v 0.738 0.436 -0.392
v 0.834 0.391 0.153
v 0.557 0.403 0.634
v 0.039 0.465 0.827
v -0.48 0.55 0.639
v -0.756 0.616 0.16
v -0.66 0.633 -0.387
v -0.237 0.595 -0.745
usemtl Bark
s off
f 79 78 77 76 75 74 73 72 71
f 80 81 82 83 84 85 86 87 88
f 71 72 81 80
f 72 73 82 81
f 73 74 83 82
f 74 75 84 83
f 75 76 85 84
f 76 77 86 85
f 77 78 87 86
f 78 79 88 87
f 79 71 80 88
o Trunk
v 0.315 0.516 -0.747
v 0.738 0.436 -0.392
v 0.834 0.391 0.153
v 0.557 0.403 0.634
v 0.039 0.465 0.827
v -0.48 0.55 0.639
v -0.756 0.616 0.16
v -0.66 0.633 -0.387
v -0.237 0.595 -0.745
v 0.452 2.733 -0.591
v 0.826 2.662 -0.277
v 0.91 2.623 0.205
v 0.667 2.633 0.63
v 0.208 2.688 0.799
v -0.25 2.764 0.634
v -0.493 2.822 0.211
v -0.409 2.837 -0.272
v -0.036 2.802 -0.588
usemtl Bark
s off
f 97 96 95 94 93 92 91 90 89
f 98 99 100 101 102 103 104 105 106
f 89 90 99 98
f 90 91 100 99
f 91 92 101 100
f 92 93 102 101
f 93 94 103 102
f 94 95 104 103
f 95 96 105 104
f 96 97 106 105
f 97 89 98 106
o Trunk
v 0.452 2.732 -0.59
v 0.827 2.776 -0.276
v 0.912 2.799 0.207
v 0.668 2.79 0.632
v 0.208 2.752 0.8
v -0.252 2.703 0.632
v -0.496 2.668 0.209
v -0.411 2.661 -0.274
v -0.036 2.686 -0.589
v 0.288 5.232 -0.522
v 0.602 5.27 -0.259
v 0.672 5.289 0.145
v 0.468 5.281 0.501
v 0.083 5.25 0.642
v -0.302 5.21 0.502
v -0.506 5.18 0.147
v -0.435 5.173 -0.257
v -0.122 5.195 -0.522
usemtl Bark
s off
f 115 114 113 112 111 110 109 108 107
f 116 117 118 119 120 121 122 123 124
f 107 108 117 116
f 108 109 118 117
f 109 110 119 118
f 110 111 120 119
f 111 112 121 120
f 112 113 122 121
f 113 114 123 122
f 114 115 124 123
f 115 107 116 124
o Bark.Ridge
v 0.608 0.455 -0.1
v 0.608 0.455 0.1
v 0.808 0.455 0.1
v 0.808 0.455 -0.1
v 0.608 0.933 -0.1
v 0.608 0.933 0.1
v 0.808 0.933 0.1
v 0.808 0.933 -0.1
usemtl BarkDark
s off
f 128 127 126 125
f 129 130 131 132
f 125 126 130 129
f 126 127 131 130
f 127 128 132 131
f 128 125 129 132
o Bark.Ridge
v -0.572 0.967 0.428
v -0.572 0.967 0.628
v -0.372 0.967 0.628
v -0.372 0.967 0.428
v -0.572 1.444 0.428
v -0.572 1.444 0.628
v -0.372 1.444 0.628
v -0.372 1.444 0.428
usemtl BarkDark
s off
f 136 135 134 133
f 137 138 139 140
f 133 134 138 137
f 134 135 139 138
f 135 136 140 139
f 136 133 137 140
o Bark.Ridge
v -0.179 1.478 -0.804
v -0.179 1.478 -0.604
v 0.021 1.478 -0.604
v 0.021 1.478 -0.804
v -0.179 1.956 -0.804
v -0.179 1.956 -0.604
v 0.021 1.956 -0.604
v 0.021 1.956 -0.804
usemtl BarkDark
s off
f 144 143 142 141
f 145 146 147 148
f 141 142 146 145
f 142 143 147 146
f 143 144 148 147
f 144 141 145 148
o Bark.Ridge
v 0.477 1.99 0.31
v 0.477 1.99 0.51
v 0.677 1.99 0.51
v 0.677 1.99 0.31
v 0.477 2.468 0.31
v 0.477 2.468 0.51
v 0.677 2.468 0.51
v 0.677 2.468 0.31
usemtl BarkDark
s off
f 152 151 150 149
f 153 154 155 156
f 149 150 154 153
f 150 151 155 154
f 151 152 156 155
f 152 149 153 156
o Bark.Ridge
v -0.791 2.502 0.057
v -0.791 2.502 0.257
v -0.591 2.502 0.257
v -0.591 2.502 0.057
v -0.791 2.98 0.057
v -0.791 2.98 0.257
v -0.591 2.98 0.257
v -0.591 2.98 0.057
usemtl BarkDark
s off
f 160 159 158 157
f 161 162 163 164
f 157 158 162 161
f 158 159 163 162
f 159 160 164 163
f 160 157 161 164
o Bark.Ridge
v 0.242 3.014 -0.72
v 0.242 3.014 -0.52
v 0.442 3.014 -0.52
v 0.442 3.014 -0.72
v 0.242 3.491 -0.72
v 0.242 3.491 -0.52
v 0.442 3.491 -0.52
v 0.442 3.491 -0.72
usemtl BarkDark
s off
f 168 167 166 165
f 169 170 171 172
f 165 166 170 169
f 166 167 171 170
f 167 168 172 171
f 168 165 169 172
o Bark.Ridge
v 0.134 3.525 0.568
v 0.134 3.525 0.768
v 0.334 3.525 0.768
v 0.334 3.525 0.568
v 0.134 4.003 0.568
v 0.134 4.003 0.768
v 0.334 4.003 0.768
v 0.334 4.003 0.568
usemtl BarkDark
s off
f 176 175 174 173
f 177 178 179 180
f 173 174 178 177
f 174 175 179 178
f 175 176 180 179
f 176 173 177 180
o Bark.Ridge
v -0.755 4.037 -0.371
v -0.755 4.037 -0.171
v -0.555 4.037 -0.171
v -0.555 4.037 -0.371
v -0.755 4.515 -0.371
v -0.755 4.515 -0.171
v -0.555 4.515 -0.171
v -0.555 4.515 -0.371
usemtl BarkDark
s off
f 184 183 182 181
f 185 186 187 188
f 181 182 186 185
f 182 183 187 186
f 183 184 188 187
f 184 181 185 188
o Bark.Ridge
v 0.538 4.549 -0.407
v 0.538 4.549 -0.207
v 0.738 4.549 -0.207
v 0.738 4.549 -0.407
v 0.538 5.027 -0.407
v 0.538 5.027 -0.207
v 0.738 5.027 -0.207
v 0.738 5.027 -0.407
usemtl BarkDark
s off
f 192 191 190 189
f 193 194 195 196
f 189 190 194 193
f 190 191 195 194
f 191 192 196 195
f 192 189 193 196
o Burl
v 0.777 1.478 0.677
v 0.607 1.478 0.812
v 0.396 1.478 0.763
v 0.302 1.478 0.567
v 0.396 1.478 0.372
v 0.607 1.478 0.324
v 0.777 1.478 0.459
v 0.777 2.161 0.677
v 0.607 2.161 0.812
v 0.396 2.161 0.763
v 0.302 2.161 0.567
v 0.396 2.161 0.372
v 0.607 2.161 0.324
v 0.777 2.161 0.459
usemtl Bark
s off
f 203 202 201 200 199 198 197
f 204 205 206 207 208 209 210
f 197 198 205 204
f 198 199 206 205
f 199 200 207 206
f 200 201 208 207
f 201 202 209 208
f 202 203 210 209
f 203 197 204 210
o Burl
v -0.543 2.843 0.297
v -0.713 2.843 0.433
v -0.924 2.843 0.385
v -1.018 2.843 0.189
v -0.924 2.843 -0.006
v -0.713 2.843 -0.054
v -0.543 2.843 0.081
v -0.543 3.525 0.297
v -0.713 3.525 0.433
v -0.924 3.525 0.385
v -1.018 3.525 0.189
v -0.924 3.525 -0.006
v -0.713 3.525 -0.054
v -0.543 3.525 0.081
usemtl Bark
s off
f 217 216 215 214 213 212 211
f 218 219 220 221 222 223 224
f 211 212 219 218
f 212 213 220 219
f 213 214 221 220
f 214 215 222 221
f 215 216 223 222
f 216 217 224 223
f 217 211 218 224
o Burl
v 0.137 0.91 -0.678
v -0.033 0.91 -0.543
v -0.245 0.91 -0.591
v -0.339 0.91 -0.787
v -0.245 0.91 -0.982
v -0.033 0.91 -1.03
v 0.137 0.91 -0.895
v 0.137 1.592 -0.678
v -0.033 1.592 -0.543
v -0.245 1.592 -0.591
v -0.339 1.592 -0.787
v -0.245 1.592 -0.982
v -0.033 1.592 -1.03
v 0.137 1.592 -0.895
usemtl Bark
s off
f 231 230 229 228 227 226 225
f 232 233 234 235 236 237 238
f 225 226 233 232
f 226 227 234 233
f 227 228 235 234
f 228 229 236 235
f 229 230 237 236
f 230 231 238 237
f 231 225 232 238
o Hollow
v 0.269 1.024 0.814
v 0.112 1.024 0.846
v -0.112 1.024 0.846
v -0.269 1.024 0.814
v -0.269 1.024 0.769
v -0.112 1.024 0.737
v 0.112 1.024 0.737
v 0.269 1.024 0.769
v 0.169 2.275 0.814
v 0.07 2.275 0.846
v -0.07 2.275 0.846
v -0.169 2.275 0.814
v -0.169 2.275 0.769
v -0.07 2.275 0.737
v 0.07 2.275 0.737
v 0.169 2.275 0.769
usemtl Soot
s off
f 246 245 244 243 242 241 240 239
f 247 248 249 250 251 252 253 254
f 239 240 248 247
f 240 241 249 248
f 241 242 250 249
f 242 243 251 250
f 243 244 252 251
f 244 245 253 252
f 245 246 254 253
f 246 239 247 254
o Hollow.Rim
v 0.347 0.91 0.757
v 0.143 0.91 0.78
v -0.143 0.91 0.78
v -0.347 0.91 0.757
v -0.347 0.91 0.726
v -0.143 0.91 0.703
v 0.143 0.91 0.703
v 0.347 0.91 0.726
v 0.231 2.388 0.757
v 0.096 2.388 0.78
v -0.096 2.388 0.78
v -0.231 2.388 0.757
v -0.231 2.388 0.726
v -0.096 2.388 0.703
v 0.096 2.388 0.703
v 0.231 2.388 0.726
usemtl BarkDark
s off
f 262 261 260 259 258 257 256 255
f 263 264 265 266 267 268 269 270
f 255 256 264 263
f 256 257 265 264
f 257 258 266 265
f 258 259 267 266
f 259 260 268 267
f 260 261 269 268
f 261 262 270 269
f 262 255 263 270
o Moss
v -0.536 0.114 0.112
v -0.746 0.114 0.233
v -0.875 0.114 -0.083
v -0.746 0.114 -0.4
v -0.536 0.114 -0.279
v -0.536 1.82 0.112
v -0.746 1.82 0.233
v -0.875 1.82 -0.083
v -0.746 1.82 -0.4
v -0.536 1.82 -0.279
usemtl Moss
s off
f 275 274 273 272 271
f 276 277 278 279 280
f 271 272 277 276
f 272 273 278 277
f 273 274 279 278
f 274 275 280 279
f 275 271 276 280
o Branch
v -0.117 5.402 0.247
v -0.087 5.571 -0.038
v 0.112 5.402 -0.243
v 0.283 5.061 -0.163
v 0.254 4.891 0.122
v 0.054 5.061 0.327
v 1.676 7.309 0.987
v 1.696 7.423 0.797
v 1.83 7.309 0.66
v 1.943 7.082 0.713
v 1.924 6.969 0.903
v 1.791 7.082 1.041
usemtl Bark
s off
f 286 285 284 283 282 281
f 287 288 289 290 291 292
f 281 282 288 287
f 282 283 289 288
f 283 284 290 289
f 284 285 291 290
f 285 286 292 291
f 286 281 287 292
o Branch
v 1.61 7.273 0.849
v 1.735 7.349 0.692
v 1.935 7.273 0.693
v 2.01 7.119 0.852
v 1.885 7.042 1.008
v 1.685 7.119 1.007
v 2.215 9.722 1.907
v 2.277 9.761 1.828
v 2.377 9.722 1.829
v 2.415 9.646 1.908
v 2.353 9.608 1.986
v 2.252 9.646 1.985
usemtl Bark
s off
f 298 297 296 295 294 293
f 299 300 301 302 303 304
f 293 294 300 299
f 294 295 301 300
f 295 296 302 301
f 296 297 303 302
f 297 298 304 303
f 298 293 299 304
o Branch
v -0.171 5.412 -0.082
v 0.109 5.594 -0.121
v 0.363 5.412 0.003
v 0.337 5.051 0.166
v 0.057 4.869 0.204
v -0.197 5.051 0.08
v -0.397 7.017 1.904
v -0.21 7.139 1.879
v -0.04 7.017 1.961
v -0.057 6.776 2.07
v -0.244 6.655 2.095
v -0.414 6.776 2.012
usemtl Bark
s off
f 310 309 308 307 306 305
f 311 312 313 314 315 316
f 305 306 312 311
f 306 307 313 312
f 307 308 314 313
f 308 309 315 314
f 309 310 316 315
f 310 305 311 316
o Branch
v -0.287 6.962 1.793
v -0.094 7.027 1.858
v -0.035 6.962 2.051
v -0.167 6.83 2.18
v -0.359 6.766 2.115
v -0.419 6.83 1.922
v -1.096 10.008 2.706
v -1.001 10.04 2.739
v -0.971 10.008 2.835
v -1.037 9.942 2.9
v -1.133 9.909 2.868
v -1.163 9.942 2.771
usemtl Bark
s off
f 322 321 320 319 318 317
f 323 324 325 326 327 328
f 317 318 324 323
f 318 319 325 324
f 319 320 326 325
f 320 321 327 326
f 321 322 328 327
f 322 317 323 328
o Branch
v 0.147 5.411 -0.234
v 0.251 5.591 0.029
v 0.187 5.411 0.306
v 0.019 5.052 0.317
v -0.084 4.872 0.054
v -0.02 5.052 -0.222
v -1.948 7.159 0.009
v -1.879 7.28 0.185
v -1.921 7.159 0.369
v -2.033 6.919 0.377
v -2.102 6.8 0.202
v -2.06 6.919 0.017
usemtl Bark
s off
f 334 333 332 331 330 329
f 335 336 337 338 339 340
f 329 330 336 335
f 330 331 337 336
f 331 332 338 337
f 332 333 339 338
f 333 334 340 339
f 334 329 335 340
o Branch
v -1.825 7.132 0.087
v -1.859 7.225 0.281
v -2.025 7.132 0.387
v -2.156 6.946 0.299
v -2.121 6.854 0.106
v -1.955 6.946 -0.001
v -2.881 8.943 -0.511
v -2.899 8.99 -0.414
v -2.982 8.943 -0.361
v -3.047 8.851 -0.405
v -3.03 8.805 -0.502
v -2.947 8.851 -0.555
usemtl Bark
s off
f 346 345 344 343 342 341
f 347 348 349 350 351 352
f 341 342 348 347
f 342 343 349 348
f 343 344 350 349
f 344 345 351 350
f 345 346 352 351
f 346 341 347 352
o Branch
v 0.37 5.402 0.035
v 0.148 5.573 0.217
v -0.137 5.402 0.224
v -0.203 5.061 0.048
v 0.018 4.89 -0.134
v 0.304 5.061 -0.141
v -0.446 7.458 -1.9
v -0.593 7.572 -1.779
v -0.784 7.458 -1.774
v -0.827 7.231 -1.891
v -0.681 7.117 -2.013
v -0.489 7.231 -2.017
usemtl Bark
s off
f 358 357 356 355 354 353
f 359 360 361 362 363 364
f 353 354 360 359
f 354 355 361 360
f 355 356 362 361
f 356 357 363 362
f 357 358 364 363
f 358 353 359 364
o Branch
v -0.494 7.444 -1.762
v -0.689 7.543 -1.756
v -0.832 7.444 -1.89
v -0.779 7.244 -2.029
v -0.584 7.145 -2.035
v -0.442 7.244 -1.901
v -0.151 9.017 -2.924
v -0.248 9.067 -2.922
v -0.32 9.017 -2.989
v -0.293 8.918 -3.058
v -0.196 8.868 -3.06
v -0.125 8.918 -2.994
usemtl Bark
s off
f 370 369 368 367 366 365
f 371 372 373 374 375 376
f 365 366 372 371
f 366 367 373 372
f 367 368 374 373
f 368 369 375 374
f 369 370 376 375
f 370 365 371 376
o Branch
v 0.209 5.389 0.303
v -0.06 5.549 0.194
v -0.186 5.389 -0.067
v -0.042 5.073 -0.22
v 0.227 4.914 -0.111
v 0.352 5.073 0.151
v 1.517 7.759 -1.219
v 1.338 7.865 -1.292
v 1.255 7.759 -1.466
v 1.351 7.549 -1.568
v 1.53 7.443 -1.496
v 1.613 7.549 -1.321
usemtl Bark
s off
f 382 381 380 379 378 377
f 383 384 385 386 387 388
f 377 378 384 383
f 378 379 385 384
f 379 380 386 385
f 380 381 387 386
f 381 382 388 387
f 382 377 383 388
o Branch
v 1.376 7.754 -1.207
v 1.286 7.854 -1.381
v 1.345 7.754 -1.567
v 1.492 7.555 -1.58
v 1.581 7.455 -1.406
v 1.523 7.555 -1.221
v 2.572 9.322 -1.401
v 2.528 9.372 -1.487
v 2.557 9.322 -1.58
v 2.63 9.222 -1.586
v 2.675 9.172 -1.5
v 2.646 9.222 -1.406
usemtl Bark
s off
f 394 393 392 391 390 389
f 395 396 397 398 399 400
f 389 390 396 395
f 390 391 397 396
f 391 392 398 397
f 392 393 399 398
f 393 394 400 399
f 394 389 395 400
o Crown
v 0.487 8.529 1.7
v -0.606 8.529 1.651
v -1.416 8.529 0.831
v -1.563 8.529 -0.379
v -0.979 8.529 -1.411
v 0.063 8.529 -1.783
v 1.076 8.529 -1.321
v 1.586 8.529 -0.24
v 1.353 8.529 0.952
v 0.812 11.941 2.832
v -1.01 11.941 2.752
v -2.36 11.941 1.384
v -2.605 11.941 -0.632
v -1.632 11.941 -2.351
v 0.105 11.941 -2.971
v 1.793 11.941 -2.201
v 2.642 11.941 -0.401
v 2.255 11.941 1.587
usemtl Paint
s off
f 409 408 407 406 405 404 403 402 401
f 410 411 412 413 414 415 416 417 418
f 401 402 411 410
f 402 403 412 411
f 403 404 413 412
f 404 405 414 413
f 405 406 415 414
f 406 407 416 415
f 407 408 417 416
f 408 409 418 417
f 409 401 410 418
o Crown
v 0.159 11.941 2.969
v -1.589 11.941 2.388
v -2.594 11.941 0.69
v -2.385 11.941 -1.331
v -1.06 11.941 -2.729
v 0.761 11.941 -2.85
v 2.225 11.941 -1.638
v 2.649 11.941 0.341
v 1.832 11.941 2.16
v 0.047 15.353 0.891
v -0.477 15.353 0.717
v -0.778 15.353 0.207
v -0.716 15.353 -0.399
v -0.318 15.353 -0.819
v 0.228 15.353 -0.855
v 0.667 15.353 -0.492
v 0.795 15.353 0.102
v 0.55 15.353 0.648
usemtl Paint
s off
f 427 426 425 424 423 422 421 420 419
f 428 429 430 431 432 433 434 435 436
f 419 420 429 428
f 420 421 430 429
f 421 422 431 430
f 422 423 432 431
f 423 424 433 432
f 424 425 434 433
f 425 426 435 434
f 426 427 436 435
f 427 419 428 436
o Crown.Under
v 2.819 8.416 0.969
v 1.5 8.416 2.453
v -0.521 8.416 2.789
v -2.298 8.416 1.82
v -2.999 8.416 0
v -2.298 8.416 -1.82
v -0.521 8.416 -2.789
v 1.5 8.416 -2.453
v 2.819 8.416 -0.969
v 3.132 9.78 1.083
v 1.666 9.78 2.742
v -0.579 9.78 3.118
v -2.553 9.78 2.035
v -3.333 9.78 0
v -2.553 9.78 -2.035
v -0.579 9.78 -3.118
v 1.666 9.78 -2.742
v 3.132 9.78 -1.083
usemtl LeafDark
s off
f 445 444 443 442 441 440 439 438 437
f 446 447 448 449 450 451 452 453 454
f 437 438 447 446
f 438 439 448 447
f 439 440 449 448
f 440 441 450 449
f 441 442 451 450
f 442 443 452 451
f 443 444 453 452
f 444 445 454 453
f 445 437 446 454
o Crown
v 2.804 9.401 2.66
v 1.984 9.401 2.729
v 1.412 9.401 2.18
v 1.521 9.401 1.426
v 2.227 9.401 1.034
v 2.999 9.401 1.299
v 3.256 9.401 2.023
v 3.13 11.05 3.16
v 1.763 11.05 3.278
v 0.811 11.05 2.363
v 0.991 11.05 1.105
v 2.169 11.05 0.452
v 3.456 11.05 0.894
v 3.884 11.05 2.1
usemtl Paint
s off
f 461 460 459 458 457 456 455
f 462 463 464 465 466 467 468
f 455 456 463 462
f 456 457 464 463
f 457 458 465 464
f 458 459 466 465
f 459 460 467 466
f 460 461 468 467
f 461 455 462 468
o Crown
v 2.769 11.05 3.308
v 1.413 11.05 3.109
v 0.736 11.05 2.005
v 1.247 11.05 0.827
v 2.563 11.05 0.463
v 3.692 11.05 1.186
v 3.783 11.05 2.452
v 2.451 12.699 2.328
v 2.045 12.699 2.268
v 1.841 12.699 1.936
v 1.995 12.699 1.584
v 2.39 12.699 1.474
v 2.728 12.699 1.691
v 2.755 12.699 2.071
usemtl Paint
s off
f 475 474 473 472 471 470 469
f 476 477 478 479 480 481 482
f 469 470 477 476
f 470 471 478 477
f 471 472 479 478
f 472 473 480 479
f 473 474 481 480
f 474 475 482 481
f 475 469 476 482
o Crown
v -0.532 9.691 3.472
v -1.346 9.691 3.577
v -1.951 9.691 3.099
v -1.89 9.691 2.399
v -1.21 9.691 2.003
v -0.422 9.691 2.21
v -0.12 9.691 2.863
v -0.174 11.34 3.918
v -1.532 11.34 4.093
v -2.54 11.34 3.297
v -2.439 11.34 2.13
v -1.304 11.34 1.469
v 0.008 11.34 1.813
v 0.512 11.34 2.903
usemtl Paint
s off
f 489 488 487 486 485 484 483
f 490 491 492 493 494 495 496
f 483 484 491 490
f 484 485 492 491
f 485 486 493 492
f 486 487 494 493
f 487 488 495 494
f 488 489 496 495
f 489 483 490 496
o Crown
v -0.526 11.34 4.071
v -1.892 11.34 3.955
v -2.638 11.34 2.971
v -2.2 11.34 1.861
v -0.91 11.34 1.461
v 0.262 11.34 2.071
v 0.433 11.34 3.233
v -0.905 12.989 3.184
v -1.315 12.989 3.149
v -1.538 12.989 2.854
v -1.407 12.989 2.52
v -1.02 12.989 2.4
v -0.668 12.989 2.584
v -0.617 12.989 2.932
usemtl Paint
s off
f 503 502 501 500 499 498 497
f 504 505 506 507 508 509 510
f 497 498 505 504
f 498 499 506 505
f 499 500 507 506
f 500 501 508 507
f 501 502 509 508
f 502 503 510 509
f 503 497 504 510
o Crown
v -2.046 8.614 -0.212
v -2.583 8.614 0.421
v -3.406 8.614 0.391
v -3.898 8.614 -0.277
v -3.685 8.614 -1.081
v -2.931 8.614 -1.416
v -2.201 8.614 -1.029
v -1.435 10.263 -0.047
v -2.328 10.263 1.006
v -3.701 10.263 0.957
v -4.519 10.263 -0.157
v -4.167 10.263 -1.497
v -2.909 10.263 -2.055
v -1.692 10.263 -1.41
usemtl Paint
s off
f 517 516 515 514 513 512 511
f 518 519 520 521 522 523 524
f 511 512 519 518
f 512 513 520 519
f 513 514 521 520
f 514 515 522 521
f 515 516 523 522
f 516 517 524 523
f 517 511 518 524
o Crown
v -1.582 10.263 0.322
v -2.707 10.263 1.12
v -4.025 10.263 0.729
v -4.544 10.263 -0.555
v -3.874 10.263 -1.766
v -2.519 10.263 -1.991
v -1.499 10.263 -1.062
v -2.55 11.912 -0.223
v -2.887 11.912 0.016
v -3.283 11.912 -0.102
v -3.439 11.912 -0.487
v -3.237 11.912 -0.85
v -2.83 11.912 -0.917
v -2.525 11.912 -0.639
usemtl Paint
s off
f 531 530 529 528 527 526 525
f 532 533 534 535 536 537 538
f 525 526 533 532
f 526 527 534 533
f 527 528 535 534
f 528 529 536 535
f 529 530 537 536
f 530 531 538 537
f 531 525 532 538
o Crown
v -1.14 8.683 -2.778
v -0.986 8.683 -3.484
v -0.257 8.683 -3.818
v 0.498 8.683 -3.53
v 0.711 8.683 -2.836
v 0.221 8.683 -2.259
v -0.603 8.683 -2.233
v -1.751 10.332 -2.636
v -1.495 10.332 -3.812
v -0.279 10.332 -4.37
v 0.979 10.332 -3.89
v 1.333 10.332 -2.733
v 0.516 10.332 -1.771
v -0.857 10.332 -1.727
usemtl Paint
s off
f 545 544 543 542 541 540 539
f 546 547 548 549 550 551 552
f 539 540 547 546
f 540 541 548 547
f 541 542 549 548
f 542 543 550 549
f 543 544 551 550
f 544 545 552 551
f 545 539 546 552
o Crown
v -1.805 10.332 -2.977
v -1.222 10.332 -4.061
v 0.114 10.332 -4.34
v 1.197 10.332 -3.603
v 1.211 10.332 -2.405
v 0.147 10.332 -1.649
v -1.196 10.332 -1.903
v -0.697 11.981 -2.987
v -0.522 11.981 -3.312
v -0.122 11.981 -3.396
v 0.203 11.981 -3.174
v 0.208 11.981 -2.815
v -0.112 11.981 -2.589
v -0.514 11.981 -2.665
usemtl Paint
s off
f 559 558 557 556 555 554 553
f 560 561 562 563 564 565 566
f 553 554 561 560
f 554 555 562 561
f 555 556 563 562
f 556 557 564 563
f 557 558 565 564
f 558 559 566 565
f 559 553 560 566
o Crown
v 3.32 8.988 -0.885
v 2.565 8.988 -0.562
v 1.836 8.988 -0.941
v 1.684 8.988 -1.736
v 2.223 8.988 -2.348
v 3.046 8.988 -2.316
v 3.535 8.988 -1.665
v 3.799 10.637 -0.479
v 2.54 10.637 0.057
v 1.326 10.637 -0.574
v 1.073 10.637 -1.898
v 1.97 10.637 -2.917
v 3.344 10.637 -2.864
v 4.158 10.637 -1.78
usemtl Paint
s off
f 573 572 571 570 569 568 567
f 574 575 576 577 578 579 580
f 567 568 575 574
f 568 569 576 575
f 569 570 577 576
f 570 571 578 577
f 571 572 579 578
f 572 573 580 579
f 573 567 574 580
o Crown
v 3.506 10.637 -0.22
v 2.15 10.637 -0.006
v 1.134 10.637 -0.911
v 1.222 10.637 -2.256
v 2.35 10.637 -3.026
v 3.666 10.637 -2.642
v 4.181 10.637 -1.393
v 2.873 12.286 -1.111
v 2.466 12.286 -1.047
v 2.161 12.286 -1.319
v 2.188 12.286 -1.722
v 2.525 12.286 -1.953
v 2.921 12.286 -1.838
v 3.075 12.286 -1.463
usemtl Paint
s off
f 587 586 585 584 583 582 581
f 588 589 590 591 592 593 594
f 581 582 589 588
f 582 583 590 589
f 583 584 591 590
f 584 585 592 591
f 585 586 593 592
f 586 587 594 593
f 587 581 588 594
o Crown
v 2.067 13.306 1.643
v 1.672 13.306 2.128
v 1.021 13.306 2.14
v 0.606 13.306 1.67
v 0.737 13.306 1.071
v 1.318 13.306 0.796
v 1.91 13.306 1.05
v 2.557 14.557 1.738
v 1.898 14.557 2.547
v 0.813 14.557 2.567
v 0.121 14.557 1.784
v 0.341 14.557 0.787
v 1.308 14.557 0.327
v 2.295 14.557 0.75
usemtl Paint
s off
f 601 600 599 598 597 596 595
f 602 603 604 605 606 607 608
f 595 596 603 602
f 596 597 604 603
f 597 598 605 604
f 598 599 606 605
f 599 600 607 606
f 600 601 608 607
f 601 595 602 608
o Crown
v 2.456 14.557 2.015
v 1.604 14.557 2.645
v 0.548 14.557 2.413
v 0.083 14.557 1.493
v 0.559 14.557 0.578
v 1.618 14.557 0.357
v 2.462 14.557 0.996
v 1.67 15.808 1.655
v 1.415 15.808 1.844
v 1.097 15.808 1.774
v 0.958 15.808 1.498
v 1.101 15.808 1.223
v 1.419 15.808 1.157
v 1.672 15.808 1.349
usemtl Paint
s off
f 615 614 613 612 611 610 609
f 616 617 618 619 620 621 622
f 609 610 617 616
f 610 611 618 617
f 611 612 619 618
f 612 613 620 619
f 613 614 621 620
f 614 615 622 621
f 615 609 616 622
o Crown
v -1.919 13.306 -0.539
v -2.247 13.306 -1.106
v -2.013 13.306 -1.718
v -1.392 13.306 -1.915
v -0.852 13.306 -1.548
v -0.8 13.306 -0.894
v -1.275 13.306 -0.445
v -2.198 14.557 -0.122
v -2.745 14.557 -1.066
v -2.355 14.557 -2.085
v -1.321 14.557 -2.414
v -0.421 14.557 -1.803
v -0.334 14.557 -0.712
v -1.125 14.557 0.036
usemtl Paint
s off
f 629 628 627 626 625 624 623
f 630 631 632 633 634 635 636
f 623 624 631 630
f 624 625 632 631
f 625 626 633 632
f 626 627 634 633
f 627 628 635 634
f 628 629 636 635
f 629 623 630 636
o Crown
v -2.433 14.557 -0.328
v -2.731 14.557 -1.379
v -2.103 14.557 -2.27
v -1.02 14.557 -2.33
v -0.298 14.557 -1.514
v -0.482 14.557 -0.436
v -1.431 14.557 0.092
v -1.78 15.808 -0.915
v -1.87 15.808 -1.231
v -1.681 15.808 -1.497
v -1.356 15.808 -1.516
v -1.139 15.808 -1.271
v -1.194 15.808 -0.947
v -1.479 15.808 -0.789
usemtl Paint
s off
f 643 642 641 640 639 638 637
f 644 645 646 647 648 649 650
f 637 638 645 644
f 638 639 646 645
f 639 640 647 646
f 640 641 648 647
f 641 642 649 648
f 642 643 650 649
f 643 637 644 650
o Crown
v -1.071 13.306 1.945
v -0.897 13.306 1.411
v -0.297 13.306 1.195
v 0.275 13.306 1.459
v 0.389 13.306 2.005
v -0.041 13.306 2.421
v -0.691 13.306 2.395
v -1.564 14.557 2.02
v -1.271 14.557 1.13
v -0.273 14.557 0.77
v 0.68 14.557 1.21
v 0.871 14.557 2.12
v 0.154 14.557 2.813
v -0.929 14.557 2.769
usemtl Paint
s off
f 657 656 655 654 653 652 651
f 658 659 660 661 662 663 664
f 651 652 659 658
f 652 653 660 659
f 653 654 661 660
f 654 655 662 661
f 655 656 663 662
f 656 657 664 663
f 657 651 658 664
o Crown
v -1.58 14.557 1.755
v -1.038 14.557 0.954
v 0.034 14.557 0.816
v 0.83 14.557 1.443
v 0.75 14.557 2.365
v -0.146 14.557 2.885
v -1.182 14.557 2.614
v -0.707 15.808 1.81
v -0.545 15.808 1.57
v -0.223 15.808 1.528
v 0.016 15.808 1.716
v -0.008 15.808 1.992
v -0.277 15.808 2.149
v -0.588 15.808 2.067
usemtl Paint
s off
f 671 670 669 668 667 666 665
f 672 673 674 675 676 677 678
f 665 666 673 672
f 666 667 674 673
f 667 668 675 674
f 668 669 676 675
f 669 670 677 676
f 670 671 678 677
f 671 665 672 678
o Crown
v 2.414 13.306 -1.277
v 2.087 13.306 -0.737
v 1.444 13.306 -0.645
v 0.967 13.306 -1.071
v 1.018 13.306 -1.695
v 1.556 13.306 -2.045
v 2.178 13.306 -1.86
v 2.913 14.557 -1.241
v 2.368 14.557 -0.339
v 1.295 14.557 -0.187
v 0.502 14.557 -0.897
v 0.586 14.557 -1.936
v 1.483 14.557 -2.521
v 2.519 14.557 -2.211
usemtl Paint
s off
f 685 684 683 682 681 680 679
f 686 687 688 689 690 691 692
f 679 680 687 686
f 680 681 688 687
f 681 682 689 688
f 682 683 690 689
f 683 684 691 690
f 684 685 692 691
f 685 679 686 692
o Crown
v 2.849 14.557 -0.947
v 2.09 14.557 -0.203
v 1.011 14.557 -0.31
v 0.426 14.557 -1.187
v 0.774 14.557 -2.175
v 1.795 14.557 -2.528
v 2.719 14.557 -1.981
v 2.021 15.808 -1.217
v 1.794 15.808 -0.994
v 1.47 15.808 -1.026
v 1.294 15.808 -1.29
v 1.399 15.808 -1.586
v 1.705 15.808 -1.691
v 1.982 15.808 -1.527
usemtl Paint
s off
f 699 698 697 696 695 694 693
f 700 701 702 703 704 705 706
f 693 694 701 700
f 694 695 702 701
f 695 696 703 702
f 696 697 704 703
f 697 698 705 704
f 698 699 706 705
f 699 693 700 706
o Clump
v 3.389 11.655 -0.983
v 2.966 11.655 -0.885
v 2.742 11.655 -1.257
v 3.027 11.655 -1.585
v 3.427 11.655 -1.416
v 3.222 12.36 -1.128
v 3.052 12.36 -1.089
v 2.963 12.36 -1.238
v 3.077 12.36 -1.369
v 3.237 12.36 -1.301
usemtl Paint
s off
f 711 710 709 708 707
f 712 713 714 715 716
f 707 708 713 712
f 708 709 714 713
f 709 710 715 714
f 710 711 716 715
f 711 707 712 716
o Clump
v 1.001 9.602 -2.963
v 0.893 9.602 -3.324
v 1.202 9.602 -3.538
v 1.501 9.602 -3.31
v 1.377 9.602 -2.954
v 1.117 10.214 -3.116
v 1.075 10.214 -3.26
v 1.198 10.214 -3.346
v 1.318 10.214 -3.254
v 1.268 10.214 -3.113
usemtl LeafLight
s off
f 721 720 719 718 717
f 722 723 724 725 726
f 717 718 723 722
f 718 719 724 723
f 719 720 725 724
f 720 721 726 725
f 721 717 722 726
o Clump
v -2.115 11.589 2.508
v -2.522 11.589 2.228
v -2.382 11.589 1.755
v -1.889 11.589 1.741
v -1.724 11.589 2.207
v -2.122 12.391 2.255
v -2.285 12.391 2.144
v -2.229 12.391 1.955
v -2.031 12.391 1.949
v -1.965 12.391 2.135
usemtl LeafDark
s off
f 731 730 729 728 727
f 732 733 734 735 736
f 727 728 733 732
f 728 729 734 733
f 729 730 735 734
f 730 731 736 735
f 731 727 732 736
o Clump
v -1.897 10.424 -0.707
v -1.76 10.424 -1.069
v -1.373 10.424 -1.05
v -1.271 10.424 -0.677
v -1.596 10.424 -0.465
v -1.706 11.053 -0.759
v -1.651 11.053 -0.904
v -1.497 11.053 -0.897
v -1.456 11.053 -0.747
v -1.586 11.053 -0.662
usemtl Paint
s off
f 741 740 739 738 737
f 742 743 744 745 746
f 737 738 743 742
f 738 739 744 743
f 739 740 745 744
f 740 741 746 745
f 741 737 742 746
o Clump
v -1.889 10.71 -0.148
v -1.902 10.71 -0.491
v -1.58 10.71 -0.609
v -1.367 10.71 -0.34
v -1.559 10.71 -0.054
v -1.751 11.268 -0.257
v -1.756 11.268 -0.393
v -1.627 11.268 -0.441
v -1.543 11.268 -0.333
v -1.619 11.268 -0.219
usemtl LeafLight
s off
f 751 750 749 748 747
f 752 753 754 755 756
f 747 748 753 752
f 748 749 754 753
f 749 750 755 754
f 750 751 756 755
f 751 747 752 756
o Clump
v 0.983 14.766 -0.997
v 0.511 14.766 -0.882
v 0.255 14.766 -1.296
v 0.569 14.766 -1.666
v 1.019 14.766 -1.482
v 0.794 15.556 -1.157
v 0.605 15.556 -1.111
v 0.502 15.556 -1.276
v 0.628 15.556 -1.426
v 0.808 15.556 -1.351
usemtl LeafDark
s off
f 761 760 759 758 757
f 762 763 764 765 766
f 757 758 763 762
f 758 759 764 763
f 759 760 765 764
f 760 761 766 765
f 761 757 762 766
o Clump
v 1.936 14.12 0.94
v 1.676 14.12 0.619
v 1.901 14.12 0.273
v 2.3 14.12 0.379
v 2.321 14.12 0.792
v 1.99 14.791 0.737
v 1.887 14.791 0.608
v 1.976 14.791 0.469
v 2.136 14.791 0.512
v 2.145 14.791 0.677
usemtl Paint
s off
f 771 770 769 768 767
f 772 773 774 775 776
f 767 768 773 772
f 768 769 774 773
f 769 770 775 774
f 770 771 776 775
f 771 767 772 776
o Clump
v -2.125 14.414 -0.495
v -2.495 14.414 -0.197
v -2.893 14.414 -0.457
v -2.768 14.414 -0.916
v -2.293 14.414 -0.939
v -2.359 15.186 -0.558
v -2.506 15.186 -0.439
v -2.665 15.186 -0.543
v -2.615 15.186 -0.727
v -2.425 15.186 -0.737
usemtl LeafLight
s off
f 781 780 779 778 777
f 782 783 784 785 786
f 777 778 783 782
f 778 779 784 783
f 779 780 785 784
f 780 781 786 785
f 781 777 782 786
o Clump
v 3.555 11.667 1.852
v 3.224 11.667 1.755
v 3.216 11.667 1.41
v 3.541 11.667 1.295
v 3.751 11.667 1.569
v 3.497 12.227 1.686
v 3.364 12.227 1.647
v 3.361 12.227 1.51
v 3.491 12.227 1.464
v 3.574 12.227 1.573
usemtl LeafDark
s off
f 791 790 789 788 787
f 792 793 794 795 796
f 787 788 793 792
f 788 789 794 793
f 789 790 795 794
f 790 791 796 795
f 791 787 792 796
o Clump
v 0.397 14.404 1.316
v 0.046 14.404 1.266
v -0.014 14.404 0.916
v 0.3 14.404 0.751
v 0.554 14.404 0.999
v 0.312 14.981 1.156
v 0.172 14.981 1.136
v 0.148 14.981 0.996
v 0.274 14.981 0.93
v 0.376 14.981 1.029
usemtl Paint
s off
f 801 800 799 798 797
f 802 803 804 805 806
f 797 798 803 802
f 798 799 804 803
f 799 800 805 804
f 800 801 806 805
f 801 797 802 806
o Clump
v 3.48 11.515 -0.688
v 3.186 11.515 -0.491
v 2.908 11.515 -0.709
v 3.029 11.515 -1.041
v 3.383 11.515 -1.029
v 3.31 12.09 -0.751
v 3.193 12.09 -0.672
v 3.081 12.09 -0.758
v 3.129 12.09 -0.892
v 3.271 12.09 -0.887
usemtl LeafLight
s off
f 811 810 809 808 807
f 812 813 814 815 816
f 807 808 813 812
f 808 809 814 813
f 809 810 815 814
f 810 811 816 815
f 811 807 812 816
o Clump
v 1.505 14.933 -1.726
v 1.091 14.933 -1.989
v 1.214 14.933 -2.464
v 1.703 14.933 -2.493
v 1.883 14.933 -2.037
v 1.49 15.729 -1.975
v 1.324 15.729 -2.08
v 1.373 15.729 -2.27
v 1.569 15.729 -2.282
v 1.641 15.729 -2.1
usemtl LeafDark
s off
f 821 820 819 818 817
f 822 823 824 825 826
f 817 818 823 822
f 818 819 824 823
f 819 820 825 824
f 820 821 826 825
f 821 817 822 826
o Clump
v -1.605 12.327 3.341
v -1.423 12.327 2.878
v -0.926 12.327 2.907
v -0.801 12.327 3.389
v -1.22 12.327 3.657
v -1.359 13.135 3.277
v -1.286 13.135 3.092
v -1.087 13.135 3.104
v -1.037 13.135 3.296
v -1.205 13.135 3.404
usemtl Paint
s off
f 831 830 829 828 827
f 832 833 834 835 836
f 827 828 833 832
f 828 829 834 833
f 829 830 835 834
f 830 831 836 835
f 831 827 832 836
o Clump
v -1.53 10.819 -0.9
v -1.851 10.819 -0.606
v -2.23 10.819 -0.82
v -2.144 10.819 -1.247
v -1.711 10.819 -1.296
v -1.748 11.528 -0.944
v -1.876 11.528 -0.827
v -2.028 11.528 -0.912
v -1.993 11.528 -1.083
v -1.82 11.528 -1.103
usemtl LeafLight
s off
f 841 840 839 838 837
f 842 843 844 845 846
f 837 838 843 842
f 838 839 844 843
f 839 840 845 844
f 840 841 846 845
f 841 837 842 846
o Clump
v 1.358 10.407 -0.141
v 1.27 10.407 -0.546
v 1.627 10.407 -0.756
v 1.937 10.407 -0.481
v 1.771 10.407 -0.1
v 1.499 11.081 -0.299
v 1.463 11.081 -0.461
v 1.606 11.081 -0.545
v 1.731 11.081 -0.435
v 1.664 11.081 -0.283
usemtl LeafDark
s off
f 851 850 849 848 847
f 852 853 854 855 856
f 847 848 853 852
f 848 849 854 853
f 849 850 855 854
f 850 851 856 855
f 851 847 852 856
o Clump
v -0.966 14.221 1.295
v -1.244 14.221 1.573
v -1.595 14.221 1.396
v -1.535 14.221 1.006
v -1.146 14.221 0.944
v -1.165 14.862 1.263
v -1.276 14.862 1.375
v -1.416 14.862 1.304
v -1.392 14.862 1.148
v -1.236 14.862 1.123
usemtl Paint
s off
f 861 860 859 858 857
f 862 863 864 865 866
f 857 858 863 862
f 858 859 864 863
f 859 860 865 864
f 860 861 866 865
f 861 857 862 866
o Clump
v 3.763 10.346 -1.396
v 3.874 10.346 -1.81
v 4.303 10.346 -1.832
v 4.456 10.346 -1.432
v 4.123 10.346 -1.162
v 3.968 11.042 -1.474
v 4.012 11.042 -1.64
v 4.183 11.042 -1.649
v 4.244 11.042 -1.489
v 4.111 11.042 -1.381
usemtl LeafLight
s off
f 871 870 869 868 867
f 872 873 874 875 876
f 867 868 873 872
f 868 869 874 873
f 869 870 875 874
f 870 871 876 875
f 871 867 872 876
o Clump
v 3.469 11.634 1.482
v 3.054 11.634 1.531
v 2.88 11.634 1.151
v 3.187 11.634 0.869
v 3.55 11.634 1.073
v 3.324 12.312 1.326
v 3.159 12.312 1.345
v 3.089 12.312 1.193
v 3.211 12.312 1.081
v 3.357 12.312 1.162
usemtl LeafDark
s off
f 881 880 879 878 877
f 882 883 884 885 886
f 877 878 883 882
f 878 879 884 883
f 879 880 885 884
f 880 881 886 885
f 881 877 882 886
o Clump
v -2.946 10.091 -1.778
v -3.329 10.091 -1.544
v -3.671 10.091 -1.835
v -3.498 10.091 -2.251
v -3.05 10.091 -2.215
v -3.158 10.821 -1.866
v -3.311 10.821 -1.772
v -3.448 10.821 -1.889
v -3.379 10.821 -2.055
v -3.199 10.821 -2.04
usemtl Paint
s off
f 891 890 889 888 887
f 892 893 894 895 896
f 887 888 893 892
f 888 889 894 893
f 889 890 895 894
f 890 891 896 895
f 891 887 892 896
o Clump
v -0.168 12.238 2.346
v -0.472 12.238 2.575
v -0.782 12.238 2.357
v -0.672 12.238 1.994
v -0.292 12.238 1.987
v -0.353 12.854 2.29
v -0.475 12.854 2.381
v -0.599 12.854 2.295
v -0.555 12.854 2.149
v -0.403 12.854 2.146
usemtl LeafLight
s off
f 901 900 899 898 897
f 902 903 904 905 906
f 897 898 903 902
f 898 899 904 903
f 899 900 905 904
f 900 901 906 905
f 901 897 902 906
o Clump
v 0.159 15.164 2.44
v -0.286 15.164 2.182
v -0.178 15.164 1.68
v 0.332 15.164 1.626
v 0.542 15.164 2.095
v 0.132 16 2.178
v -0.046 16 2.075
v -0.003 16 1.875
v 0.202 16 1.853
v 0.285 16 2.041
usemtl LeafDark
s off
f 911 910 909 908 907
f 912 913 914 915 916
f 907 908 913 912
f 908 909 914 913
f 909 910 915 914
f 910 911 916 915
f 911 907 912 916
o Clump
v -1.621 14.18 -2.152
v -1.509 14.18 -2.658
v -0.994 14.18 -2.708
v -0.787 14.18 -2.234
v -1.174 14.18 -1.89
v -1.378 15.021 -2.258
v -1.334 15.021 -2.46
v -1.128 15.021 -2.48
v -1.045 15.021 -2.29
v -1.2 15.021 -2.153
usemtl Paint
s off
f 921 920 919 918 917
f 922 923 924 925 926
f 917 918 923 922
f 918 919 924 923
f 919 920 925 924
f 920 921 926 925
f 921 917 922 926
o Clump
v 0.758 11.03 1.793
v 0.559 11.03 1.385
v 0.886 11.03 1.068
v 1.287 11.03 1.281
v 1.208 11.03 1.73
v 0.867 11.769 1.588
v 0.787 11.769 1.425
v 0.918 11.769 1.298
v 1.079 11.769 1.383
v 1.047 11.769 1.562
usemtl LeafLight
s off
f 931 930 929 928 927
f 932 933 934 935 936
f 927 928 933 932
f 928 929 934 933
f 929 930 935 934
f 930 931 936 935
f 931 927 932 936
o Clump
v 0.948 10.696 -2.055
v 1.125 10.696 -2.464
v 1.568 10.696 -2.423
v 1.666 10.696 -1.988
v 1.282 10.696 -1.761
v 1.17 11.42 -2.105
v 1.241 11.42 -2.269
v 1.418 11.42 -2.252
v 1.457 11.42 -2.078
v 1.304 11.42 -1.987
usemtl LeafDark
s off
f 941 940 939 938 937
f 942 943 944 945 946
f 937 938 943 942
f 938 939 944 943
f 939 940 945 944
f 940 941 946 945
f 941 937 942 946
o Clump
v 3.052 11.197 -2.17
v 3.224 11.197 -2.614
v 3.698 11.197 -2.587
v 3.819 11.197 -2.128
v 3.42 11.197 -1.87
v 3.286 11.97 -2.232
v 3.355 11.97 -2.41
v 3.544 11.97 -2.399
v 3.594 11.97 -2.215
v 3.434 11.97 -2.112
usemtl Paint
s off
f 951 950 949 948 947
f 952 953 954 955 956
f 947 948 953 952
f 948 949 954 953
f 949 950 955 954
f 950 951 956 955
f 951 947 952 956
o Clump
v -1.575 12.107 2.212
v -1.742 12.107 1.922
v -1.519 12.107 1.674
v -1.213 12.107 1.81
v -1.248 12.107 2.142
v -1.506 12.651 2.056
v -1.573 12.651 1.94
v -1.483 12.651 1.84
v -1.361 12.651 1.895
v -1.375 12.651 2.028
usemtl LeafLight
s off
f 961 960 959 958 957
f 962 963 964 965 966
f 957 958 963 962
f 958 959 964 963
f 959 960 965 964
f 960 961 966 965
f 961 957 962 966
o Clump
v 2.548 13.953 2.246
v 2.151 13.953 2.208
v 2.065 13.953 1.819
v 2.409 13.953 1.617
v 2.707 13.953 1.881
v 2.445 14.601 2.071
v 2.286 14.601 2.055
v 2.252 14.601 1.9
v 2.39 14.601 1.82
v 2.509 14.601 1.925
usemtl LeafDark
s off
f 971 970 969 968 967
f 972 973 974 975 976
f 967 968 973 972
f 968 969 974 973
f 969 970 975 974
f 970 971 976 975
f 971 967 972 976
o Clump
v 1.955 14.134 2.608
v 1.792 14.134 2.123
v 2.204 14.134 1.818
v 2.62 14.134 2.115
v 2.467 14.134 2.604
v 2.107 14.965 2.395
v 2.042 14.965 2.201
v 2.206 14.965 2.08
v 2.373 14.965 2.199
v 2.311 14.965 2.394
usemtl Paint
s off
f 981 980 979 978 977
f 982 983 984 985 986
f 977 978 983 982
f 978 979 984 983
f 979 980 985 984
f 980 981 986 985
f 981 977 982 986
o Clump
v 1.293 10.886 -3.09
v 1.029 10.886 -2.866
v 0.735 10.886 -3.048
v 0.817 10.886 -3.384
v 1.161 10.886 -3.41
v 1.121 11.448 -3.132
v 1.016 11.448 -3.042
v 0.898 11.448 -3.114
v 0.931 11.448 -3.249
v 1.069 11.448 -3.259
usemtl LeafLight
s off
f 991 990 989 988 987
f 992 993 994 995 996
f 987 988 993 992
f 988 989 994 993
f 989 990 995 994
f 990 991 996 995
f 991 987 992 996
o Clump
v -3.502 9.637 -1.53
v -3.84 9.637 -1.424
v -4.045 9.637 -1.712
v -3.834 9.637 -1.997
v -3.499 9.637 -1.884
v -3.647 10.213 -1.637
v -3.783 10.213 -1.595
v -3.864 10.213 -1.711
v -3.78 10.213 -1.825
v -3.646 10.213 -1.779
usemtl LeafDark
s off
f 1001 1000 999 998 997
f 1002 1003 1004 1005 1006
f 997 998 1003 1002
f 998 999 1004 1003
f 999 1000 1005 1004
f 1000 1001 1006 1005
f 1001 997 1002 1006
o Clump
v -1.688 14.131 2.628
v -1.692 14.131 2.117
v -1.208 14.131 1.956
v -0.905 14.131 2.367
v -1.202 14.131 2.782
v -1.479 14.962 2.473
v -1.481 14.962 2.269
v -1.286 14.962 2.205
v -1.166 14.962 2.369
v -1.285 14.962 2.535
usemtl Paint
s off
f 1011 1010 1009 1008 1007
f 1012 1013 1014 1015 1016
f 1007 1008 1013 1012
f 1008 1009 1014 1013
f 1009 1010 1015 1014
f 1010 1011 1016 1015
f 1011 1007 1012 1016
o Clump
v 1.462 9.622 -2.38
v 1.06 9.622 -2.232
v 0.795 9.622 -2.569
v 1.033 9.622 -2.925
v 1.446 9.622 -2.809
v 1.281 10.318 -2.502
v 1.12 10.318 -2.443
v 1.013 10.318 -2.578
v 1.109 10.318 -2.72
v 1.274 10.318 -2.674
usemtl LeafLight
s off
f 1021 1020 1019 1018 1017
f 1022 1023 1024 1025 1026
f 1017 1018 1023 1022
f 1018 1019 1024 1023
f 1019 1020 1025 1024
f 1020 1021 1026 1025
f 1021 1017 1022 1026
o Clump
v 0.147 10.496 -4.168
v -0.113 10.496 -3.958
v -0.393 10.496 -4.141
v -0.306 10.496 -4.463
v 0.027 10.496 -4.48
v -0.017 11.038 -4.213
v -0.122 11.038 -4.128
v -0.233 11.038 -4.202
v -0.199 11.038 -4.331
v -0.065 11.038 -4.338
usemtl LeafDark
s off
f 1031 1030 1029 1028 1027
f 1032 1033 1034 1035 1036
f 1027 1028 1033 1032
f 1028 1029 1034 1033
f 1029 1030 1035 1034
f 1030 1031 1036 1035
f 1031 1027 1032 1036
o Clump
v -0.102 14.063 1.188
v -0.001 14.063 0.73
v 0.466 14.063 0.684
v 0.653 14.063 1.114
v 0.302 14.063 1.426
v 0.117 14.826 1.092
v 0.157 14.826 0.909
v 0.344 14.826 0.891
v 0.419 14.826 1.063
v 0.279 14.826 1.187
usemtl Paint
s off
f 1041 1040 1039 1038 1037
f 1042 1043 1044 1045 1046
f 1037 1038 1043 1042
f 1038 1039 1044 1043
f 1039 1040 1045 1044
f 1040 1041 1046 1045
f 1041 1037 1042 1046
o Clump
v -0.584 15.094 -0.541
v -0.907 15.094 -0.477
v -1.067 15.094 -0.765
v -0.843 15.094 -1.006
v -0.545 15.094 -0.867
v -0.707 15.628 -0.655
v -0.837 15.628 -0.63
v -0.901 15.628 -0.745
v -0.811 15.628 -0.842
v -0.692 15.628 -0.786
usemtl LeafLight
s off
f 1051 1050 1049 1048 1047
f 1052 1053 1054 1055 1056
f 1047 1048 1053 1052
f 1048 1049 1054 1053
f 1049 1050 1055 1054
f 1050 1051 1056 1055
f 1051 1047 1052 1056
o Clump
v -1.213 15.205 -1.549
v -1.567 15.205 -1.239
v -1.971 15.205 -1.48
v -1.867 15.205 -1.939
v -1.398 15.205 -1.981
v -1.447 15.969 -1.602
v -1.589 15.969 -1.478
v -1.751 15.969 -1.575
v -1.709 15.969 -1.758
v -1.521 15.969 -1.776
usemtl LeafDark
s off
f 1061 1060 1059 1058 1057
f 1062 1063 1064 1065 1066
f 1057 1058 1063 1062
f 1058 1059 1064 1063
f 1059 1060 1065 1064
f 1060 1061 1066 1065
f 1061 1057 1062 1066
o Clump
v -0.17 14.484 1.322
v -0.604 14.484 1.036
v -0.466 14.484 0.534
v 0.054 14.484 0.511
v 0.237 14.484 0.997
v -0.182 15.33 1.056
v -0.355 15.33 0.942
v -0.3 15.33 0.742
v -0.092 15.33 0.732
v -0.019 15.33 0.927
usemtl Paint
s off
f 1071 1070 1069 1068 1067
f 1072 1073 1074 1075 1076
f 1067 1068 1073 1072
f 1068 1069 1074 1073
f 1069 1070 1075 1074
f 1070 1071 1076 1075
f 1071 1067 1072 1076
o Clump
v 2.598 10.562 0.969
v 2.465 10.562 0.459
v 2.909 10.562 0.174
v 3.316 10.562 0.509
v 3.124 10.562 1
v 2.769 11.418 0.761
v 2.715 11.418 0.557
v 2.893 11.418 0.443
v 3.056 11.418 0.577
v 2.979 11.418 0.773
usemtl LeafLight
s off
f 1081 1080 1079 1078 1077
f 1082 1083 1084 1085 1086
f 1077 1078 1083 1082
f 1078 1079 1084 1083
f 1079 1080 1085 1084
f 1080 1081 1086 1085
f 1081 1077 1082 1086
o Clump
v -3.144 11.13 -1.212
v -3.108 11.13 -1.591
v -2.736 11.13 -1.674
v -2.543 11.13 -1.346
v -2.795 11.13 -1.061
v -2.977 11.749 -1.311
v -2.962 11.749 -1.462
v -2.814 11.749 -1.496
v -2.736 11.749 -1.364
v -2.837 11.749 -1.25
usemtl LeafDark
s off
f 1091 1090 1089 1088 1087
f 1092 1093 1094 1095 1096
f 1087 1088 1093 1092
f 1088 1089 1094 1093
f 1089 1090 1095 1094
f 1090 1091 1096 1095
f 1091 1087 1092 1096
o Clump
v 2.934 14.718 -1.72
v 2.631 14.718 -1.488
v 2.317 14.718 -1.704
v 2.425 14.718 -2.07
v 2.807 14.718 -2.079
v 2.747 15.337 -1.775
v 2.626 15.337 -1.682
v 2.5 15.337 -1.769
v 2.544 15.337 -1.915
v 2.696 15.337 -1.919
usemtl Paint
s off
f 1101 1100 1099 1098 1097
f 1102 1103 1104 1105 1106
f 1097 1098 1103 1102
f 1098 1099 1104 1103
f 1099 1100 1105 1104
f 1100 1101 1106 1105
f 1101 1097 1102 1106
o Clump
v 3.152 11.857 1.535
v 2.695 11.857 1.596
v 2.496 11.857 1.181
v 2.829 11.857 0.862
v 3.234 11.857 1.081
v 2.989 12.605 1.365
v 2.807 12.605 1.389
v 2.727 12.605 1.222
v 2.861 12.605 1.096
v 3.023 12.605 1.183
usemtl LeafLight
s off
f 1111 1110 1109 1108 1107
f 1112 1113 1114 1115 1116
f 1107 1108 1113 1112
f 1108 1109 1114 1113
f 1109 1110 1115 1114
f 1110 1111 1116 1115
f 1111 1107 1112 1116
o Clump
v -1.326 10.026 -2.784
v -1.698 10.026 -2.483
v -2.099 10.026 -2.744
v -1.975 10.026 -3.206
v -1.497 10.026 -3.231
v -1.561 10.804 -2.847
v -1.711 10.804 -2.727
v -1.871 10.804 -2.831
v -1.821 10.804 -3.016
v -1.631 10.804 -3.026
usemtl LeafDark
s off
f 1121 1120 1119 1118 1117
f 1122 1123 1124 1125 1126
f 1117 1118 1123 1122
f 1118 1119 1124 1123
f 1119 1120 1125 1124
f 1120 1121 1126 1125
f 1121 1117 1122 1126
o Clump
v 1.912 15.161 2.229
v 1.416 15.161 2.199
v 1.292 15.161 1.718
v 1.711 15.161 1.451
v 2.094 15.161 1.766
v 1.776 15.968 2.015
v 1.578 15.968 2.003
v 1.528 15.968 1.81
v 1.696 15.968 1.704
v 1.849 15.968 1.83
usemtl Paint
s off
f 1131 1130 1129 1128 1127
f 1132 1133 1134 1135 1136
f 1127 1128 1133 1132
f 1128 1129 1134 1133
f 1129 1130 1135 1134
f 1130 1131 1136 1135
f 1131 1127 1132 1136
o Clump
v -2.254 10.156 0.677
v -2.085 10.156 0.312
v -1.686 10.156 0.359
v -1.608 10.156 0.753
v -1.958 10.156 0.949
v -2.052 10.808 0.637
v -1.985 10.808 0.491
v -1.825 10.808 0.51
v -1.795 10.808 0.667
v -1.935 10.808 0.746
usemtl LeafLight
s off
f 1141 1140 1139 1138 1137
f 1142 1143 1144 1145 1146
f 1137 1138 1143 1142
f 1138 1139 1144 1143
f 1139 1140 1145 1144
f 1140 1141 1146 1145
f 1141 1137 1142 1146
o Litter
v 1.475 0 -1.999
v 1.498 0 -1.943
v 1.435 0 -1.909
v 1.371 0 -1.944
v 1.396 0 -2
v 1.475 0.023 -1.999
v 1.498 0.023 -1.943
v 1.435 0.023 -1.909
v 1.371 0.023 -1.944
v 1.396 0.023 -2
usemtl LeafDry
s off
f 1151 1150 1149 1148 1147
f 1152 1153 1154 1155 1156
f 1147 1148 1153 1152
f 1148 1149 1154 1153
f 1149 1150 1155 1154
f 1150 1151 1156 1155
f 1151 1147 1152 1156
o Grass
v 2.246 -0.001 0.954
v 2.229 -0.006 0.986
v 2.211 0.007 0.956
v 2.273 0.324 1.012
v 2.27 0.323 1.015
v 2.269 0.324 1.012
usemtl Grass
s off
f 1159 1158 1157
f 1160 1161 1162
f 1157 1158 1161 1160
f 1158 1159 1162 1161
f 1159 1157 1160 1162
o Grass
v 2.247 0.001 0.955
v 2.229 -0.007 0.986
v 2.211 0.006 0.956
v 2.251 0.271 1.012
v 2.249 0.271 1.015
v 2.247 0.272 1.012
usemtl Grass
s off
f 1165 1164 1163
f 1166 1167 1168
f 1163 1164 1167 1166
f 1164 1165 1168 1167
f 1165 1163 1166 1168
o Grass
v 2.247 0 0.955
v 2.229 -0.001 0.986
v 2.211 0.001 0.955
v 2.239 0.289 0.974
v 2.237 0.289 0.976
v 2.235 0.289 0.974
usemtl Grass
s off
f 1171 1170 1169
f 1172 1173 1174
f 1169 1170 1173 1172
f 1170 1171 1174 1173
f 1171 1169 1172 1174
o Grass
v -0.466 -0.001 -1.333
v -0.484 -0.001 -1.302
v -0.502 0.002 -1.333
v -0.463 0.353 -1.309
v -0.465 0.353 -1.306
v -0.467 0.353 -1.309
usemtl Grass
s off
f 1177 1176 1175
f 1178 1179 1180
f 1175 1176 1179 1178
f 1176 1177 1180 1179
f 1177 1175 1178 1180
o Grass
v -0.466 0.001 -1.333
v -0.484 0.003 -1.302
v -0.502 -0.003 -1.333
v -0.502 0.27 -1.345
v -0.503 0.27 -1.341
v -0.505 0.268 -1.345
usemtl Grass
s off
f 1183 1182 1181
f 1184 1185 1186
f 1181 1182 1185 1184
f 1182 1183 1186 1185
f 1183 1181 1184 1186
o Grass
v -0.466 0.003 -1.333
v -0.484 -0.001 -1.302
v -0.502 -0.002 -1.333
v -0.509 0.339 -1.314
v -0.511 0.338 -1.311
v -0.512 0.338 -1.314
usemtl Grass
s off
f 1189 1188 1187
f 1190 1191 1192
f 1187 1188 1191 1190
f 1188 1189 1192 1191
f 1189 1187 1190 1192
o Litter
v -2.087 0 2.205
v -2.102 0 2.147
v -2.033 0 2.119
v -1.976 0 2.16
v -2.01 0 2.212
v -2.087 0.023 2.205
v -2.102 0.023 2.147
v -2.033 0.023 2.119
v -1.976 0.023 2.16
v -2.01 0.023 2.212
usemtl Moss
s off
f 1197 1196 1195 1194 1193
f 1198 1199 1200 1201 1202
f 1193 1194 1199 1198
f 1194 1195 1200 1199
f 1195 1196 1201 1200
f 1196 1197 1202 1201
f 1197 1193 1198 1202
o Litter
v -2.463 0 1.6
v -2.46 0 1.541
v -2.384 0 1.526
v -2.34 0 1.575
v -2.39 0 1.621
v -2.463 0.023 1.6
v -2.46 0.023 1.541
v -2.384 0.023 1.526
v -2.34 0.023 1.575
v -2.39 0.023 1.621
usemtl LeafDry
s off
f 1207 1206 1205 1204 1203
f 1208 1209 1210 1211 1212
f 1203 1204 1209 1208
f 1204 1205 1210 1209
f 1205 1206 1211 1210
f 1206 1207 1212 1211
f 1207 1203 1208 1212
o Grass
v -1.531 -0.001 -0.064
v -1.55 -0.001 -0.032
v -1.567 0.002 -0.064
v -1.536 0.295 -0.048
v -1.538 0.295 -0.045
v -1.54 0.295 -0.048
usemtl Grass
s off
f 1215 1214 1213
f 1216 1217 1218
f 1213 1214 1217 1216
f 1214 1215 1218 1217
f 1215 1213 1216 1218
o Grass
v -1.531 0 -0.064
v -1.55 0 -0.032
v -1.567 0.001 -0.064
v -1.543 0.259 -0.052
v -1.545 0.259 -0.049
v -1.546 0.259 -0.052
usemtl Grass
s off
f 1221 1220 1219
f 1222 1223 1224
f 1219 1220 1223 1222
f 1220 1221 1224 1223
f 1221 1219 1222 1224
o Grass
v -1.532 -0.001 -0.064
v -1.55 -0.006 -0.033
v -1.567 0.007 -0.063
v -1.509 0.289 -0.012
v -1.511 0.288 -0.01
v -1.512 0.289 -0.012
usemtl Grass
s off
f 1227 1226 1225
f 1228 1229 1230
f 1225 1226 1229 1228
f 1226 1227 1230 1229
f 1227 1225 1228 1230
o Grass
v -2.01 0.006 0.87
v -2.027 -0.006 0.901
v -2.045 0 0.869
v -2.055 0.356 0.926
v -2.057 0.355 0.93
v -2.059 0.355 0.926
usemtl Grass
s off
f 1233 1232 1231
f 1234 1235 1236
f 1231 1232 1235 1234
f 1232 1233 1236 1235
f 1233 1231 1234 1236
o Grass
v -2.01 0.005 0.869
v -2.027 0.003 0.901
v -2.045 -0.007 0.87
v -2.072 0.265 0.858
v -2.074 0.265 0.862
v -2.075 0.264 0.859
usemtl Grass
s off
f 1239 1238 1237
f 1240 1241 1242
f 1237 1238 1241 1240
f 1238 1239 1242 1241
f 1239 1237 1240 1242
o Grass
v -2.01 -0.002 0.87
v -2.027 0.002 0.901
v -2.045 0 0.869
v -2.018 0.322 0.859
v -2.02 0.322 0.862
v -2.022 0.322 0.859
usemtl Grass
s off
f 1245 1244 1243
f 1246 1247 1248
f 1243 1244 1247 1246
f 1244 1245 1248 1247
f 1245 1243 1246 1248
o Litter
v -1.849 0 0.388
v -1.817 0 0.335
v -1.739 0 0.341
v -1.723 0 0.398
v -1.791 0 0.427
v -1.849 0.023 0.388
v -1.817 0.023 0.335
v -1.739 0.023 0.341
v -1.723 0.023 0.398
v -1.791 0.023 0.427
usemtl Moss
s off
f 1253 1252 1251 1250 1249
f 1254 1255 1256 1257 1258
f 1249 1250 1255 1254
f 1250 1251 1256 1255
f 1251 1252 1257 1256
f 1252 1253 1258 1257
f 1253 1249 1254 1258
o Litter
v 0.428 0 1.479
v 0.354 0 1.459
v 0.357 0 1.4
v 0.432 0 1.384
v 0.477 0 1.432
v 0.428 0.023 1.479
v 0.354 0.023 1.459
v 0.357 0.023 1.4
v 0.432 0.023 1.384
v 0.477 0.023 1.432
usemtl LeafDry
s off
f 1263 1262 1261 1260 1259
f 1264 1265 1266 1267 1268
f 1259 1260 1265 1264
f 1260 1261 1266 1265
f 1261 1262 1267 1266
f 1262 1263 1268 1267
f 1263 1259 1264 1268
o Grass
v 0.041 -0.003 -1.8
v 0.023 0.001 -1.77
v 0.005 0.002 -1.8
v 0.056 0.361 -1.801
v 0.054 0.361 -1.798
v 0.052 0.361 -1.801
usemtl Grass
s off
f 1271 1270 1269
f 1272 1273 1274
f 1269 1270 1273 1272
f 1270 1271 1274 1273
f 1271 1269 1272 1274
o Grass
v 0.041 0.003 -1.8
v 0.023 -0.007 -1.77
v 0.005 0.003 -1.8
v 0.022 0.231 -1.75
v 0.02 0.23 -1.746
v 0.018 0.231 -1.75
usemtl Grass
s off
f 1277 1276 1275
f 1278 1279 1280
f 1275 1276 1279 1278
f 1276 1277 1280 1279
f 1277 1275 1278 1280
o Grass
v 0.041 0.006 -1.8
v 0.023 -0.001 -1.77
v 0.005 -0.005 -1.8
v -0.017 0.3 -1.782
v -0.019 0.299 -1.779
v -0.021 0.299 -1.782
usemtl Grass
s off
f 1283 1282 1281
f 1284 1285 1286
f 1281 1282 1285 1284
f 1282 1283 1286 1285
f 1283 1281 1284 1286
o Grass
v 2.242 0.003 -0.634
v 2.224 0.001 -0.602
v 2.206 -0.005 -0.633
v 2.193 0.264 -0.633
v 2.191 0.264 -0.63
v 2.19 0.264 -0.633
usemtl Grass
s off
f 1289 1288 1287
f 1290 1291 1292
f 1287 1288 1291 1290
f 1288 1289 1292 1291
f 1289 1287 1290 1292
o Grass
v 2.242 0.003 -0.633
v 2.224 -0.001 -0.602
v 2.206 -0.002 -0.633
v 2.198 0.33 -0.614
v 2.196 0.329 -0.611
v 2.195 0.329 -0.614
usemtl Grass
s off
f 1295 1294 1293
f 1296 1297 1298
f 1293 1294 1297 1296
f 1294 1295 1298 1297
f 1295 1293 1296 1298
o Grass
v 2.242 0.001 -0.633
v 2.224 -0.006 -0.602
v 2.206 0.005 -0.633
v 2.245 0.303 -0.575
v 2.243 0.301 -0.572
v 2.24 0.303 -0.575
usemtl Grass
s off
f 1301 1300 1299
f 1302 1303 1304
f 1299 1300 1303 1302
f 1300 1301 1304 1303
f 1301 1299 1302 1304
o Litter
v -2.187 0 0.613
v -2.16 0 0.557
v -2.081 0 0.56
v -2.06 0 0.617
v -2.125 0 0.649
v -2.187 0.023 0.613
v -2.16 0.023 0.557
v -2.081 0.023 0.56
v -2.06 0.023 0.617
v -2.125 0.023 0.649
usemtl Moss
s off
f 1309 1308 1307 1306 1305
f 1310 1311 1312 1313 1314
f 1305 1306 1311 1310
f 1306 1307 1312 1311
f 1307 1308 1313 1312
f 1308 1309 1314 1313
f 1309 1305 1310 1314
o Litter
v -1.468 0 2.277
v -1.497 0 2.222
v -1.436 0 2.185
v -1.371 0 2.217
v -1.39 0 2.274
v -1.468 0.023 2.277
v -1.497 0.023 2.222
v -1.436 0.023 2.185
v -1.371 0.023 2.217
v -1.39 0.023 2.274
usemtl LeafDry
s off
f 1319 1318 1317 1316 1315
f 1320 1321 1322 1323 1324
f 1315 1316 1321 1320
f 1316 1317 1322 1321
f 1317 1318 1323 1322
f 1318 1319 1324 1323
f 1319 1315 1320 1324
o Grass
v 1.701 0 1.193
v 1.683 0.002 1.225
v 1.666 -0.002 1.193
v 1.678 0.337 1.185
v 1.676 0.337 1.187
v 1.675 0.337 1.185
usemtl Grass
s off
f 1327 1326 1325
f 1328 1329 1330
f 1325 1326 1329 1328
f 1326 1327 1330 1329
f 1327 1325 1328 1330
o Grass
v 1.701 -0.003 1.193
v 1.683 0.003 1.224
v 1.666 0 1.193
v 1.697 0.345 1.172
v 1.696 0.346 1.176
v 1.694 0.345 1.172
usemtl Grass
s off
f 1333 1332 1331
f 1334 1335 1336
f 1331 1332 1335 1334
f 1332 1333 1336 1335
f 1333 1331 1334 1336
o Grass
v 1.701 -0.001 1.193
v 1.683 -0.003 1.225
v 1.666 0.003 1.193
v 1.711 0.35 1.229
v 1.709 0.35 1.232
v 1.706 0.351 1.229
usemtl Grass
s off
f 1339 1338 1337
f 1340 1341 1342
f 1337 1338 1341 1340
f 1338 1339 1342 1341
f 1339 1337 1340 1342
o Acorn
v -2.306 0 0.901
v -2.342 0 0.922
v -2.379 0 0.901
v -2.379 0 0.86
v -2.342 0 0.839
v -2.306 0 0.86
v -2.32 0.114 0.893
v -2.342 0.114 0.906
v -2.364 0.114 0.893
v -2.364 0.114 0.868
v -2.342 0.114 0.856
v -2.32 0.114 0.868
usemtl Acorn
s off
f 1348 1347 1346 1345 1344 1343
f 1349 1350 1351 1352 1353 1354
f 1343 1344 1350 1349
f 1344 1345 1351 1350
f 1345 1346 1352 1351
f 1346 1347 1353 1352
f 1347 1348 1354 1353
f 1348 1343 1349 1354
o Acorn.Cap
v -2.303 0.08 0.903
v -2.342 0.08 0.926
v -2.382 0.08 0.903
v -2.382 0.08 0.857
v -2.342 0.08 0.835
v -2.303 0.08 0.857
v -2.303 0.125 0.903
v -2.342 0.125 0.926
v -2.382 0.125 0.903
v -2.382 0.125 0.857
v -2.342 0.125 0.835
v -2.303 0.125 0.857
usemtl AcornCap
s off
f 1360 1359 1358 1357 1356 1355
f 1361 1362 1363 1364 1365 1366
f 1355 1356 1362 1361
f 1356 1357 1363 1362
f 1357 1358 1364 1363
f 1358 1359 1365 1364
f 1359 1360 1366 1365
f 1360 1355 1361 1366
o Acorn
v -1.597 0 -1.883
v -1.634 0 -1.862
v -1.67 0 -1.883
v -1.67 0 -1.925
v -1.634 0 -1.945
v -1.597 0 -1.925
v -1.612 0.114 -1.891
v -1.634 0.114 -1.879
v -1.656 0.114 -1.891
v -1.656 0.114 -1.916
v -1.634 0.114 -1.929
v -1.612 0.114 -1.916
usemtl Acorn
s off
f 1372 1371 1370 1369 1368 1367
f 1373 1374 1375 1376 1377 1378
f 1367 1368 1374 1373
f 1368 1369 1375 1374
f 1369 1370 1376 1375
f 1370 1371 1377 1376
f 1371 1372 1378 1377
f 1372 1367 1373 1378
o Acorn.Cap
v -1.594 0.08 -1.88
v -1.634 0.08 -1.858
v -1.673 0.08 -1.88
v -1.673 0.08 -1.926
v -1.634 0.08 -1.95
v -1.594 0.08 -1.926
v -1.594 0.125 -1.88
v -1.634 0.125 -1.858
v -1.673 0.125 -1.88
v -1.673 0.125 -1.926
v -1.634 0.125 -1.95
v -1.594 0.125 -1.926
usemtl AcornCap
s off
f 1384 1383 1382 1381 1380 1379
f 1385 1386 1387 1388 1389 1390
f 1379 1380 1386 1385
f 1380 1381 1387 1386
f 1381 1382 1388 1387
f 1382 1383 1389 1388
f 1383 1384 1390 1389
f 1384 1379 1385 1390
o Acorn
v 1.176 0 2.152
v 1.14 0 2.173
v 1.104 0 2.152
v 1.104 0 2.11
v 1.14 0 2.09
v 1.176 0 2.11
v 1.161 0.114 2.144
v 1.14 0.114 2.156
v 1.118 0.114 2.144
v 1.118 0.114 2.119
v 1.14 0.114 2.106
v 1.161 0.114 2.119
usemtl Acorn
s off
f 1396 1395 1394 1393 1392 1391
f 1397 1398 1399 1400 1401 1402
f 1391 1392 1398 1397
f 1392 1393 1399 1398
f 1393 1394 1400 1399
f 1394 1395 1401 1400
f 1395 1396 1402 1401
f 1396 1391 1397 1402
o Acorn.Cap
v 1.18 0.08 2.154
v 1.14 0.08 2.177
v 1.1 0.08 2.154
v 1.1 0.08 2.108
v 1.14 0.08 2.085
v 1.18 0.08 2.108
v 1.18 0.125 2.154
v 1.14 0.125 2.177
v 1.1 0.125 2.154
v 1.1 0.125 2.108
v 1.14 0.125 2.085
v 1.18 0.125 2.108
usemtl AcornCap
s off
f 1408 1407 1406 1405 1404 1403
f 1409 1410 1411 1412 1413 1414
f 1403 1404 1410 1409
f 1404 1405 1411 1410
f 1405 1406 1412 1411
f 1406 1407 1413 1412
f 1407 1408 1414 1413
f 1408 1403 1409 1414
o Acorn
v -1.156 0 1.129
v -1.192 0 1.15
v -1.229 0 1.129
v -1.229 0 1.087
v -1.192 0 1.066
v -1.156 0 1.087
v -1.171 0.114 1.121
v -1.192 0.114 1.133
v -1.214 0.114 1.121
v -1.214 0.114 1.096
v -1.192 0.114 1.083
v -1.171 0.114 1.096
usemtl Acorn
s off
f 1420 1419 1418 1417 1416 1415
f 1421 1422 1423 1424 1425 1426
f 1415 1416 1422 1421
f 1416 1417 1423 1422
f 1417 1418 1424 1423
f 1418 1419 1425 1424
f 1419 1420 1426 1425
f 1420 1415 1421 1426
o Acorn.Cap
v -1.153 0.08 1.131
v -1.192 0.08 1.154
v -1.232 0.08 1.131
v -1.232 0.08 1.085
v -1.192 0.08 1.062
v -1.153 0.08 1.085
v -1.153 0.125 1.131
v -1.192 0.125 1.154
v -1.232 0.125 1.131
v -1.232 0.125 1.085
v -1.192 0.125 1.062
v -1.153 0.125 1.085
usemtl AcornCap
s off
f 1432 1431 1430 1429 1428 1427
f 1433 1434 1435 1436 1437 1438
f 1427 1428 1434 1433
f 1428 1429 1435 1434
f 1429 1430 1436 1435
f 1430 1431 1437 1436
f 1431 1432 1438 1437
f 1432 1427 1433 1438
o Acorn
v -1.392 0 -0.057
v -1.428 0 -0.036
v -1.464 0 -0.057
v -1.464 0 -0.098
v -1.428 0 -0.119
v -1.392 0 -0.098
v -1.406 0.114 -0.065
v -1.428 0.114 -0.052
v -1.45 0.114 -0.065
v -1.45 0.114 -0.09
v -1.428 0.114 -0.102
v -1.406 0.114 -0.09
usemtl Acorn
s off
f 1444 1443 1442 1441 1440 1439
f 1445 1446 1447 1448 1449 1450
f 1439 1440 1446 1445
f 1440 1441 1447 1446
f 1441 1442 1448 1447
f 1442 1443 1449 1448
f 1443 1444 1450 1449
f 1444 1439 1445 1450
o Acorn.Cap
v -1.388 0.08 -0.054
v -1.428 0.08 -0.032
v -1.467 0.08 -0.054
v -1.467 0.08 -0.1
v -1.428 0.08 -0.123
v -1.388 0.08 -0.1
v -1.388 0.125 -0.054
v -1.428 0.125 -0.032
v -1.467 0.125 -0.054
v -1.467 0.125 -0.1
v -1.428 0.125 -0.123
v -1.388 0.125 -0.1
usemtl AcornCap
s off
f 1456 1455 1454 1453 1452 1451
f 1457 1458 1459 1460 1461 1462
f 1451 1452 1458 1457
f 1452 1453 1459 1458
f 1453 1454 1460 1459
f 1454 1455 1461 1460
f 1455 1456 1462 1461
f 1456 1451 1457 1462
o Acorn
v -0.318 0 1.382
v -0.354 0 1.403
v -0.391 0 1.382
v -0.391 0 1.341
v -0.354 0 1.32
v -0.318 0 1.341
v -0.332 0.114 1.374
v -0.354 0.114 1.386
v -0.376 0.114 1.374
v -0.376 0.114 1.349
v -0.354 0.114 1.336
v -0.332 0.114 1.349
usemtl Acorn
s off
f 1468 1467 1466 1465 1464 1463
f 1469 1470 1471 1472 1473 1474
f 1463 1464 1470 1469
f 1464 1465 1471 1470
f 1465 1466 1472 1471
f 1466 1467 1473 1472
f 1467 1468 1474 1473
f 1468 1463 1469 1474
o Acorn.Cap
v -0.315 0.08 1.384
v -0.354 0.08 1.407
v -0.394 0.08 1.384
v -0.394 0.08 1.338
v -0.354 0.08 1.316
v -0.315 0.08 1.338
v -0.315 0.125 1.384
v -0.354 0.125 1.407
v -0.394 0.125 1.384
v -0.394 0.125 1.338
v -0.354 0.125 1.316
v -0.315 0.125 1.338
usemtl AcornCap
s off
f 1480 1479 1478 1477 1476 1475
f 1481 1482 1483 1484 1485 1486
f 1475 1476 1482 1481
f 1476 1477 1483 1482
f 1477 1478 1484 1483
f 1478 1479 1485 1484
f 1479 1480 1486 1485
f 1480 1475 1481 1486
o Acorn
v 1.936 0 -1.086
v 1.9 0 -1.066
v 1.864 0 -1.086
v 1.864 0 -1.128
v 1.9 0 -1.149
v 1.936 0 -1.128
v 1.922 0.114 -1.095
v 1.9 0.114 -1.082
v 1.879 0.114 -1.095
v 1.879 0.114 -1.12
v 1.9 0.114 -1.132
v 1.922 0.114 -1.12
usemtl Acorn
s off
f 1492 1491 1490 1489 1488 1487
f 1493 1494 1495 1496 1497 1498
f 1487 1488 1494 1493
f 1488 1489 1495 1494
f 1489 1490 1496 1495
f 1490 1491 1497 1496
f 1491 1492 1498 1497
f 1492 1487 1493 1498
o Acorn.Cap
v 1.94 0.08 -1.085
v 1.9 0.08 -1.061
v 1.86 0.08 -1.085
v 1.86 0.08 -1.131
v 1.9 0.08 -1.153
v 1.94 0.08 -1.131
v 1.94 0.125 -1.085
v 1.9 0.125 -1.061
v 1.86 0.125 -1.085
v 1.86 0.125 -1.131
v 1.9 0.125 -1.153
v 1.94 0.125 -1.131
usemtl AcornCap
s off
f 1504 1503 1502 1501 1500 1499
f 1505 1506 1507 1508 1509 1510
f 1499 1500 1506 1505
f 1500 1501 1507 1506
f 1501 1502 1508 1507
f 1502 1503 1509 1508
f 1503 1504 1510 1509
f 1504 1499 1505 1510
o Acorn
v 1.835 0 0.884
v 1.799 0 0.905
v 1.763 0 0.884
v 1.763 0 0.842
v 1.799 0 0.822
v 1.835 0 0.842
v 1.82 0.114 0.876
v 1.799 0.114 0.888
v 1.777 0.114 0.876
v 1.777 0.114 0.851
v 1.799 0.114 0.838
v 1.82 0.114 0.851
usemtl Acorn
s off
f 1516 1515 1514 1513 1512 1511
f 1517 1518 1519 1520 1521 1522
f 1511 1512 1518 1517
f 1512 1513 1519 1518
f 1513 1514 1520 1519
f 1514 1515 1521 1520
f 1515 1516 1522 1521
f 1516 1511 1517 1522
o Acorn.Cap
v 1.839 0.08 0.886
v 1.799 0.08 0.909
v 1.759 0.08 0.886
v 1.759 0.08 0.84
v 1.799 0.08 0.817
v 1.839 0.08 0.84
v 1.839 0.125 0.886
v 1.799 0.125 0.909
v 1.759 0.125 0.886
v 1.759 0.125 0.84
v 1.799 0.125 0.817
v 1.839 0.125 0.84
usemtl AcornCap
s off
f 1528 1527 1526 1525 1524 1523
f 1529 1530 1531 1532 1533 1534
f 1523 1524 1530 1529
f 1524 1525 1531 1530
f 1525 1526 1532 1531
f 1526 1527 1533 1532
f 1527 1528 1534 1533
f 1528 1523 1529 1534
o Acorn
v 1.705 0 -1.791
v 1.669 0 -1.771
v 1.633 0 -1.791
v 1.633 0 -1.833
v 1.669 0 -1.854
v 1.705 0 -1.833
v 1.691 0.114 -1.8
v 1.669 0.114 -1.787
v 1.647 0.114 -1.8
v 1.647 0.114 -1.825
v 1.669 0.114 -1.837
v 1.691 0.114 -1.825
usemtl Acorn
s off
f 1540 1539 1538 1537 1536 1535
f 1541 1542 1543 1544 1545 1546
f 1535 1536 1542 1541
f 1536 1537 1543 1542
f 1537 1538 1544 1543
f 1538 1539 1545 1544
f 1539 1540 1546 1545
f 1540 1535 1541 1546
o Acorn.Cap
v 1.709 0.08 -1.79
v 1.669 0.08 -1.766
v 1.629 0.08 -1.79
v 1.629 0.08 -1.835
v 1.669 0.08 -1.858
v 1.709 0.08 -1.835
v 1.709 0.125 -1.79
v 1.669 0.125 -1.766
v 1.629 0.125 -1.79
v 1.629 0.125 -1.835
v 1.669 0.125 -1.858
v 1.709 0.125 -1.835
usemtl AcornCap
s off
f 1552 1551 1550 1549 1548 1547
f 1553 1554 1555 1556 1557 1558
f 1547 1548 1554 1553
f 1548 1549 1555 1554
f 1549 1550 1556 1555
f 1550 1551 1557 1556
f 1551 1552 1558 1557
f 1552 1547 1553 1558
o Acorn
v 1.233 0 1.848
v 1.196 0 1.869
v 1.161 0 1.848
v 1.161 0 1.806
v 1.196 0 1.786
v 1.233 0 1.806
v 1.218 0.114 1.84
v 1.196 0.114 1.852
v 1.175 0.114 1.84
v 1.175 0.114 1.815
v 1.196 0.114 1.802
v 1.218 0.114 1.815
usemtl Acorn
s off
f 1564 1563 1562 1561 1560 1559
f 1565 1566 1567 1568 1569 1570
f 1559 1560 1566 1565
f 1560 1561 1567 1566
f 1561 1562 1568 1567
f 1562 1563 1569 1568
f 1563 1564 1570 1569
f 1564 1559 1565 1570
o Acorn.Cap
v 1.236 0.08 1.85
v 1.196 0.08 1.873
v 1.157 0.08 1.85
v 1.157 0.08 1.805
v 1.196 0.08 1.781
v 1.236 0.08 1.805
v 1.236 0.125 1.85
v 1.196 0.125 1.873
v 1.157 0.125 1.85
v 1.157 0.125 1.805
v 1.196 0.125 1.781
v 1.236 0.125 1.805
usemtl AcornCap
s off
f 1576 1575 1574 1573 1572 1571
f 1577 1578 1579 1580 1581 1582
f 1571 1572 1578 1577
f 1572 1573 1579 1578
f 1573 1574 1580 1579
f 1574 1575 1581 1580
f 1575 1576 1582 1581
f 1576 1571 1577 1582
o Acorn
v 1.098 0 -1.409
v 1.062 0 -1.388
v 1.026 0 -1.409
v 1.026 0 -1.451
v 1.062 0 -1.471
v 1.098 0 -1.451
v 1.084 0.114 -1.417
v 1.062 0.114 -1.405
v 1.041 0.114 -1.417
v 1.041 0.114 -1.442
v 1.062 0.114 -1.455
v 1.084 0.114 -1.442
usemtl Acorn
s off
f 1588 1587 1586 1585 1584 1583
f 1589 1590 1591 1592 1593 1594
f 1583 1584 1590 1589
f 1584 1585 1591 1590
f 1585 1586 1592 1591
f 1586 1587 1593 1592
f 1587 1588 1594 1593
f 1588 1583 1589 1594
o Acorn.Cap
v 1.101 0.08 -1.406
v 1.062 0.08 -1.384
v 1.022 0.08 -1.406
v 1.022 0.08 -1.452
v 1.062 0.08 -1.476
v 1.101 0.08 -1.452
v 1.101 0.125 -1.406
v 1.062 0.125 -1.384
v 1.022 0.125 -1.406
v 1.022 0.125 -1.452
v 1.062 0.125 -1.476
v 1.101 0.125 -1.452
usemtl AcornCap
s off
f 1600 1599 1598 1597 1596 1595
f 1601 1602 1603 1604 1605 1606
f 1595 1596 1602 1601
f 1596 1597 1603 1602
f 1597 1598 1604 1603
f 1598 1599 1605 1604
f 1599 1600 1606 1605
f 1600 1595 1601 1606
o Acorn
v -0.066 0 -1.741
v -0.102 0 -1.72
v -0.138 0 -1.741
v -0.138 0 -1.782
v -0.102 0 -1.803
v -0.066 0 -1.782
v -0.08 0.114 -1.749
v -0.102 0.114 -1.736
v -0.123 0.114 -1.749
v -0.123 0.114 -1.774
v -0.102 0.114 -1.786
v -0.08 0.114 -1.774
usemtl Acorn
s off
f 1612 1611 1610 1609 1608 1607
f 1613 1614 1615 1616 1617 1618
f 1607 1608 1614 1613
f 1608 1609 1615 1614
f 1609 1610 1616 1615
f 1610 1611 1617 1616
f 1611 1612 1618 1617
f 1612 1607 1613 1618
o Acorn.Cap
v -0.062 0.08 -1.739
v -0.102 0.08 -1.716
v -0.142 0.08 -1.739
v -0.142 0.08 -1.785
v -0.102 0.08 -1.807
v -0.062 0.08 -1.785
v -0.062 0.125 -1.739
v -0.102 0.125 -1.716
v -0.142 0.125 -1.739
v -0.142 0.125 -1.785
v -0.102 0.125 -1.807
v -0.062 0.125 -1.785
usemtl AcornCap
s off
f 1624 1623 1622 1621 1620 1619
f 1625 1626 1627 1628 1629 1630
f 1619 1620 1626 1625
f 1620 1621 1627 1626
f 1621 1622 1628 1627
f 1622 1623 1629 1628
f 1623 1624 1630 1629
f 1624 1619 1625 1630
