# tree_pine.obj - Kiefer (Holz) fuer procedurally-generated-map
# Einheiten: Meter, Y oben, Vorderseite nach +Z - so wie Blender ein Modell
# exportiert, das in der Vorderansicht zum Betrachter schaut.
# Material Paint (das Laub) bekommt eine je Baum leicht andere Farbe.
mtllib tree_pine.mtl
o Root
v 0.142 0.305 0.123
v 0.185 0.356 0.017
v 0.171 0.226 -0.059
v 0.121 0.094 0
v 0.104 0.145 0.112
v 0.562 0.026 0.179
v 0.575 0.044 0.144
v 0.571 0 0.12
v 0.555 -0.044 0.139
v 0.549 -0.026 0.176
usemtl Bark
s off
f 5 4 3 2 1
f 6 7 8 9 10
f 1 2 7 6
f 2 3 8 7
f 3 4 9 8
f 4 5 10 9
f 5 1 6 10
o Root
v -0.053 0.305 0.182
v 0.061 0.356 0.174
v 0.124 0.226 0.132
v 0.05 0.094 0.11
v -0.059 0.145 0.141
v 0.07 0.026 0.586
v 0.107 0.044 0.584
v 0.129 0 0.569
v 0.104 -0.044 0.563
v 0.068 -0.026 0.572
usemtl Bark
s off
f 15 14 13 12 11
f 16 17 18 19 20
f 11 12 17 16
f 12 13 18 17
f 13 14 19 18
f 14 15 20 19
f 15 11 16 20
o Root
v -0.186 0.305 0.032
v -0.13 0.356 0.132
v -0.064 0.226 0.17
v -0.077 0.094 0.094
v -0.153 0.145 0.009
v -0.495 0.026 0.321
v -0.477 0.044 0.354
v -0.454 0 0.366
v -0.46 -0.044 0.341
v -0.484 -0.026 0.313
usemtl Bark
s off
f 25 24 23 22 21
f 26 27 28 29 30
f 21 22 27 26
f 22 23 28 27
f 23 24 29 28
f 24 25 30 29
f 25 21 26 30
o Root
v -0.086 0.305 -0.166
v -0.165 0.356 -0.085
v -0.18 0.226 -0.009
v -0.112 0.094 -0.045
v -0.054 0.145 -0.144
v -0.456 0.026 -0.375
v -0.481 0.044 -0.348
v -0.486 0 -0.322
v -0.463 -0.044 -0.334
v -0.445 -0.026 -0.368
usemtl Bark
s off
f 35 34 33 32 31
f 36 37 38 39 40
f 31 32 37 36
f 32 33 38 37
f 33 34 39 38
f 34 35 40 39
f 35 31 36 40
o Root
v 0.148 0.305 -0.117
v 0.053 0.356 -0.177
v -0.024 0.226 -0.179
v 0.024 0.094 -0.12
v 0.13 0.145 -0.08
v 0.286 0.026 -0.516
v 0.254 0.044 -0.536
v 0.229 0 -0.537
v 0.245 -0.044 -0.518
v 0.28 -0.026 -0.504
usemtl Bark
s off
f 45 44 43 42 41
f 46 47 48 49 50
f 41 42 47 46
f 42 43 48 47
f 43 44 49 48
f 44 45 50 49
f 45 41 46 50
o Trunk.Stump
v 0.3 0 0.144
v 0.074 0 0.324
v -0.207 0 0.26
v -0.333 0 0
v -0.207 0 -0.26
v 0.074 0 -0.324
v 0.3 0 -0.144
v 0.313 0.5 0.148
v 0.091 0.5 0.324
v -0.185 0.5 0.262
v -0.307 0.5 0.006
v -0.185 0.5 -0.248
v 0.091 0.5 -0.312
v 0.313 0.5 -0.135
usemtl Bark
s off
f 57 56 55 54 53 52 51
f 58 59 60 61 62 63 64
f 51 52 59 58
f 52 53 60 59
f 53 54 61 60
f 54 55 62 61
f 55 56 63 62
f 56 57 64 63
f 57 51 58 64
o Trunk
v 0.313 0.5 0.148
v 0.091 0.5 0.324
v -0.185 0.5 0.262
v -0.307 0.5 0.006
v -0.185 0.5 -0.248
v 0.091 0.5 -0.312
v 0.313 0.5 -0.135
v 0.33 1.159 0.153
v 0.114 1.159 0.324
v -0.154 1.159 0.262
v -0.274 1.159 0.015
v -0.154 1.159 -0.233
v 0.114 1.159 -0.295
v 0.33 1.159 -0.123
usemtl Bark
s off
f 71 70 69 68 67 66 65
f 72 73 74 75 76 77 78
f 65 66 73 72
f 66 67 74 73
f 67 68 75 74
f 68 69 76 75
f 69 70 77 76
f 70 71 78 77
f 71 65 72 78
o Trunk
v 0.182 1.154 -0.271
v 0.353 1.137 -0.056
v 0.291 1.135 0.212
v 0.044 1.15 0.331
v -0.204 1.172 0.212
v -0.265 1.185 -0.056
v -0.094 1.176 -0.271
v 0.2 1.767 -0.256
v 0.368 1.749 -0.047
v 0.307 1.747 0.215
v 0.067 1.762 0.331
v -0.174 1.784 0.215
v -0.235 1.795 -0.047
v -0.067 1.789 -0.256
usemtl Bark
s off
f 85 84 83 82 81 80 79
f 86 87 88 89 90 91 92
f 79 80 87 86
f 80 81 88 87
f 81 82 89 88
f 82 83 90 89
f 83 84 91 90
f 84 85 92 91
f 85 79 86 92
o Trunk
v 0.2 1.767 -0.256
v 0.368 1.749 -0.047
v 0.307 1.747 0.215
v 0.067 1.762 0.331
v -0.174 1.784 0.215
v -0.235 1.795 -0.047
v -0.067 1.789 -0.256
v 0.219 2.379 -0.241
v 0.383 2.359 -0.038
v 0.324 2.359 0.216
v 0.089 2.375 0.33
v -0.145 2.394 0.218
v -0.203 2.408 -0.036
v -0.041 2.399 -0.241
usemtl Bark
s off
f 99 98 97 96 95 94 93
f 100 101 102 103 104 105 106
f 93 94 101 100
f 94 95 102 101
f 95 96 103 102
f 96 97 104 103
f 97 98 105 104
f 98 99 106 105
f 99 93 100 106
o Trunk
v 0.219 2.379 -0.241
v 0.383 2.359 -0.038
v 0.324 2.359 0.216
v 0.089 2.375 0.33
v -0.145 2.394 0.218
v -0.203 2.408 -0.036
v -0.041 2.399 -0.241
v 0.239 2.991 -0.226
v 0.397 2.972 -0.027
v 0.341 2.972 0.219
v 0.112 2.985 0.33
v -0.115 3.007 0.219
v -0.173 3.018 -0.027
v -0.014 3.011 -0.226
usemtl Bark
s off
f 113 112 111 110 109 108 107
f 114 115 116 117 118 119 120
f 107 108 115 114
f 108 109 116 115
f 109 110 117 116
f 110 111 118 117
f 111 112 119 118
f 112 113 120 119
f 113 107 114 120
o Trunk
v 0.239 2.991 -0.226
v 0.397 2.972 -0.027
v 0.341 2.972 0.219
v 0.112 2.985 0.33
v -0.115 3.007 0.219
v -0.173 3.018 -0.027
v -0.014 3.011 -0.226
v 0.259 3.601 -0.21
v 0.412 3.584 -0.018
v 0.357 3.582 0.222
v 0.136 3.597 0.328
v -0.086 3.617 0.222
v -0.141 3.628 -0.018
v 0.012 3.621 -0.21
usemtl Bark
s off
f 127 126 125 124 123 122 121
f 128 129 130 131 132 133 134
f 121 122 129 128
f 122 123 130 129
f 123 124 131 130
f 124 125 132 131
f 125 126 133 132
f 126 127 134 133
f 127 121 128 134
o Trunk
v 0.259 3.601 -0.21
v 0.412 3.584 -0.018
v 0.357 3.582 0.222
v 0.136 3.597 0.328
v -0.086 3.617 0.222
v -0.141 3.628 -0.018
v 0.012 3.621 -0.21
v 0.278 4.214 -0.195
v 0.427 4.196 -0.009
v 0.374 4.194 0.224
v 0.159 4.209 0.328
v -0.056 4.229 0.226
v -0.11 4.24 -0.008
v 0.039 4.234 -0.195
usemtl Bark
s off
f 141 140 139 138 137 136 135
f 142 143 144 145 146 147 148
f 135 136 143 142
f 136 137 144 143
f 137 138 145 144
f 138 139 146 145
f 139 140 147 146
f 140 141 148 147
f 141 135 142 148
o Trunk
v 0.278 4.214 -0.195
v 0.427 4.196 -0.009
v 0.374 4.194 0.224
v 0.159 4.209 0.328
v -0.056 4.229 0.226
v -0.11 4.24 -0.008
v 0.039 4.234 -0.195
v 0.298 4.826 -0.18
v 0.442 4.809 0.002
v 0.39 4.806 0.227
v 0.182 4.822 0.328
v -0.027 4.841 0.227
v -0.079 4.85 0.002
v 0.065 4.844 -0.18
usemtl Bark
s off
f 155 154 153 152 151 150 149
f 156 157 158 159 160 161 162
f 149 150 157 156
f 150 151 158 157
f 151 152 159 158
f 152 153 160 159
f 153 154 161 160
f 154 155 162 161
f 155 149 156 162
o Trunk
v 0.298 4.815 -0.18
v 0.442 4.811 0.002
v 0.39 4.822 0.227
v 0.182 4.837 0.328
v -0.027 4.846 0.227
v -0.079 4.841 0.002
v 0.065 4.828 -0.18
v 0.31 5.443 -0.18
v 0.45 5.438 -0.006
v 0.401 5.449 0.213
v 0.198 5.463 0.31
v -0.003 5.471 0.212
v -0.053 5.469 -0.006
v 0.088 5.456 -0.18
usemtl PineBark
s off
f 169 168 167 166 165 164 163
f 170 171 172 173 174 175 176
f 163 164 171 170
f 164 165 172 171
f 165 166 173 172
f 166 167 174 173
f 167 168 175 174
f 168 169 176 175
f 169 163 170 176
o Trunk
v 0.31 5.443 -0.18
v 0.45 5.438 -0.006
v 0.401 5.449 0.213
v 0.198 5.463 0.31
v -0.003 5.471 0.212
v -0.053 5.469 -0.006
v 0.088 5.456 -0.18
v 0.324 6.07 -0.18
v 0.459 6.066 -0.012
v 0.41 6.075 0.198
v 0.216 6.09 0.292
v 0.023 6.099 0.198
v -0.026 6.095 -0.012
v 0.109 6.081 -0.18
usemtl PineBark
s off
f 183 182 181 180 179 178 177
f 184 185 186 187 188 189 190
f 177 178 185 184
f 178 179 186 185
f 179 180 187 186
f 180 181 188 187
f 181 182 189 188
f 182 183 190 189
f 183 177 184 190
o Trunk
v 0.324 6.07 -0.18
v 0.459 6.066 -0.012
v 0.41 6.075 0.198
v 0.216 6.09 0.292
v 0.023 6.099 0.198
v -0.026 6.095 -0.012
v 0.109 6.081 -0.18
v 0.338 6.698 -0.18
v 0.466 6.694 -0.018
v 0.421 6.703 0.185
v 0.233 6.716 0.274
v 0.047 6.725 0.183
v 0 6.722 -0.018
v 0.13 6.709 -0.182
usemtl PineBark
s off
f 197 196 195 194 193 192 191
f 198 199 200 201 202 203 204
f 191 192 199 198
f 192 193 200 199
f 193 194 201 200
f 194 195 202 201
f 195 196 203 202
f 196 197 204 203
f 197 191 198 204
o Trunk
v 0.338 6.698 -0.18
v 0.466 6.694 -0.018
v 0.421 6.703 0.185
v 0.233 6.716 0.274
v 0.047 6.725 0.183
v 0 6.722 -0.018
v 0.13 6.709 -0.182
v 0.351 7.324 -0.182
v 0.475 7.321 -0.026
v 0.43 7.33 0.17
v 0.251 7.343 0.256
v 0.071 7.35 0.17
v 0.027 7.348 -0.026
v 0.151 7.337 -0.182
usemtl PineBark
s off
f 211 210 209 208 207 206 205
f 212 213 214 215 216 217 218
f 205 206 213 212
f 206 207 214 213
f 207 208 215 214
f 208 209 216 215
f 209 210 217 216
f 210 211 218 217
f 211 205 212 218
o Trunk
v 0.351 7.324 -0.182
v 0.475 7.321 -0.026
v 0.43 7.33 0.17
v 0.251 7.343 0.256
v 0.071 7.35 0.17
v 0.027 7.348 -0.026
v 0.151 7.337 -0.182
v 0.363 7.951 -0.182
v 0.483 7.949 -0.032
v 0.44 7.958 0.154
v 0.268 7.969 0.238
v 0.095 7.978 0.154
v 0.053 7.975 -0.032
v 0.173 7.962 -0.182
usemtl PineBark
s off
f 225 224 223 222 221 220 219
f 226 227 228 229 230 231 232
f 219 220 227 226
f 220 221 228 227
f 221 222 229 228
f 222 223 230 229
f 223 224 231 230
f 224 225 232 231
f 225 219 226 232
o Trunk
v 0.363 7.951 -0.182
v 0.483 7.949 -0.032
v 0.44 7.958 0.154
v 0.268 7.969 0.238
v 0.095 7.978 0.154
v 0.053 7.975 -0.032
v 0.173 7.962 -0.182
v 0.377 8.579 -0.182
v 0.49 8.577 -0.038
v 0.451 8.586 0.141
v 0.286 8.597 0.219
v 0.121 8.603 0.141
v 0.08 8.601 -0.038
v 0.194 8.59 -0.182
usemtl PineBark
s off
f 239 238 237 236 235 234 233
f 240 241 242 243 244 245 246
f 233 234 241 240
f 234 235 242 241
f 235 236 243 242
f 236 237 244 243
f 237 238 245 244
f 238 239 246 245
f 239 233 240 246
o Trunk
v 0.377 8.579 -0.182
v 0.49 8.577 -0.038
v 0.451 8.586 0.141
v 0.286 8.597 0.219
v 0.121 8.603 0.141
v 0.08 8.601 -0.038
v 0.194 8.59 -0.182
v 0.39 9.207 -0.182
v 0.499 9.204 -0.045
v 0.46 9.211 0.126
v 0.303 9.224 0.201
v 0.145 9.231 0.126
v 0.106 9.229 -0.045
v 0.215 9.218 -0.182
usemtl PineBark
s off
f 253 252 251 250 249 248 247
f 254 255 256 257 258 259 260
f 247 248 255 254
f 248 249 256 255
f 249 250 257 256
f 250 251 258 257
f 251 252 259 258
f 252 253 260 259
f 253 247 254 260
o Trunk
v 0.39 9.211 -0.182
v 0.499 9.229 -0.045
v 0.46 9.237 0.126
v 0.303 9.231 0.201
v 0.145 9.215 0.126
v 0.106 9.2 -0.044
v 0.215 9.2 -0.182
v 0.368 9.788 -0.194
v 0.472 9.804 -0.062
v 0.434 9.812 0.101
v 0.285 9.808 0.174
v 0.133 9.793 0.101
v 0.095 9.777 -0.062
v 0.2 9.775 -0.192
usemtl PineBark
s off
f 267 266 265 264 263 262 261
f 268 269 270 271 272 273 274
f 261 262 269 268
f 262 263 270 269
f 263 264 271 270
f 264 265 272 271
f 265 266 273 272
f 266 267 274 273
f 267 261 268 274
o Trunk
v 0.368 9.788 -0.194
v 0.472 9.804 -0.062
v 0.434 9.812 0.101
v 0.285 9.808 0.174
v 0.133 9.793 0.101
v 0.095 9.777 -0.062
v 0.2 9.775 -0.192
v 0.345 10.363 -0.204
v 0.445 10.379 -0.079
v 0.41 10.387 0.077
v 0.265 10.383 0.147
v 0.12 10.368 0.079
v 0.085 10.355 -0.079
v 0.185 10.352 -0.204
usemtl PineBark
s off
f 281 280 279 278 277 276 275
f 282 283 284 285 286 287 288
f 275 276 283 282
f 276 277 284 283
f 277 278 285 284
f 278 279 286 285
f 279 280 287 286
f 280 281 288 287
f 281 275 282 288
o Trunk
v 0.345 10.363 -0.204
v 0.445 10.379 -0.079
v 0.41 10.387 0.077
v 0.265 10.383 0.147
v 0.12 10.368 0.079
v 0.085 10.355 -0.079
v 0.185 10.352 -0.204
v 0.322 10.94 -0.216
v 0.419 10.956 -0.097
v 0.384 10.962 0.053
v 0.247 10.958 0.12
v 0.107 10.945 0.054
v 0.073 10.932 -0.095
v 0.17 10.93 -0.216
usemtl PineBark
s off
f 295 294 293 292 291 290 289
f 296 297 298 299 300 301 302
f 289 290 297 296
f 290 291 298 297
f 291 292 299 298
f 292 293 300 299
f 293 294 301 300
f 294 295 302 301
f 295 289 296 302
o Trunk
v 0.322 10.94 -0.216
v 0.419 10.956 -0.097
v 0.384 10.962 0.053
v 0.247 10.958 0.12
v 0.107 10.945 0.054
v 0.073 10.932 -0.095
v 0.17 10.93 -0.216
v 0.3 11.518 -0.229
v 0.392 11.531 -0.114
v 0.359 11.537 0.029
v 0.227 11.533 0.094
v 0.095 11.52 0.03
v 0.062 11.509 -0.114
v 0.154 11.507 -0.227
usemtl PineBark
s off
f 309 308 307 306 305 304 303
f 310 311 312 313 314 315 316
f 303 304 311 310
f 304 305 312 311
f 305 306 313 312
f 306 307 314 313
f 307 308 315 314
f 308 309 316 315
f 309 303 310 316
o Trunk
v 0.3 11.518 -0.229
v 0.392 11.531 -0.114
v 0.359 11.537 0.029
v 0.227 11.533 0.094
v 0.095 11.52 0.03
v 0.062 11.509 -0.114
v 0.154 11.507 -0.227
v 0.278 12.093 -0.239
v 0.365 12.106 -0.13
v 0.333 12.115 0.005
v 0.209 12.11 0.067
v 0.083 12.097 0.006
v 0.051 12.084 -0.13
v 0.138 12.084 -0.239
usemtl PineBark
s off
f 323 322 321 320 319 318 317
f 324 325 326 327 328 329 330
f 317 318 325 324
f 318 319 326 325
f 319 320 327 326
f 320 321 328 327
f 321 322 329 328
f 322 323 330 329
f 323 317 324 330
o Trunk
v 0.278 12.093 -0.239
v 0.365 12.106 -0.13
v 0.333 12.115 0.005
v 0.209 12.11 0.067
v 0.083 12.097 0.006
v 0.051 12.084 -0.13
v 0.138 12.084 -0.239
v 0.256 12.67 -0.251
v 0.338 12.683 -0.148
v 0.309 12.69 -0.018
v 0.189 12.685 0.039
v 0.07 12.672 -0.018
v 0.041 12.661 -0.147
v 0.123 12.661 -0.251
usemtl PineBark
s off
f 337 336 335 334 333 332 331
f 338 339 340 341 342 343 344
f 331 332 339 338
f 332 333 340 339
f 333 334 341 340
f 334 335 342 341
f 335 336 343 342
f 336 337 344 343
f 337 331 338 344
o Trunk
v 0.256 12.67 -0.251
v 0.338 12.683 -0.148
v 0.309 12.69 -0.018
v 0.189 12.685 0.039
v 0.07 12.672 -0.018
v 0.041 12.661 -0.147
v 0.123 12.661 -0.251
v 0.233 13.245 -0.262
v 0.31 13.258 -0.165
v 0.283 13.265 -0.042
v 0.171 13.26 0.012
v 0.058 13.249 -0.042
v 0.03 13.238 -0.163
v 0.107 13.236 -0.262
usemtl PineBark
s off
f 351 350 349 348 347 346 345
f 352 353 354 355 356 357 358
f 345 346 353 352
f 346 347 354 353
f 347 348 355 354
f 348 349 356 355
f 349 350 357 356
f 350 351 358 357
f 351 345 352 358
o Trunk
v 0.233 13.245 -0.262
v 0.31 13.258 -0.165
v 0.283 13.265 -0.042
v 0.171 13.26 0.012
v 0.058 13.249 -0.042
v 0.03 13.238 -0.163
v 0.107 13.236 -0.262
v 0.21 13.822 -0.274
v 0.285 13.833 -0.182
v 0.257 13.84 -0.067
v 0.151 13.835 -0.015
v 0.045 13.824 -0.067
v 0.018 13.816 -0.182
v 0.092 13.813 -0.274
usemtl PineBark
s off
f 365 364 363 362 361 360 359
f 366 367 368 369 370 371 372
f 359 360 367 366
f 360 361 368 367
f 361 362 369 368
f 362 363 370 369
f 363 364 371 370
f 364 365 372 371
f 365 359 366 372
o Crown
v -0.493 14.265 0.525
v -0.751 14.265 -0.262
v -0.33 14.265 -0.966
v 0.454 14.265 -1.056
v 1.009 14.265 -0.466
v 0.919 14.265 0.362
v 0.25 14.265 0.804
v -0.922 15.143 0.976
v -1.352 15.143 -0.336
v -0.649 15.143 -1.509
v 0.655 15.143 -1.66
v 1.582 15.143 -0.675
v 1.43 15.143 0.704
v 0.316 15.143 1.439
usemtl Paint
s off
f 379 378 377 376 375 374 373
f 380 381 382 383 384 385 386
f 373 374 381 380
f 374 375 382 381
f 375 376 383 382
f 376 377 384 383
f 377 378 385 384
f 378 379 386 385
f 379 373 380 386
o Crown
v -1.153 15.143 0.661
v -1.262 15.143 -0.723
v -0.307 15.143 -1.677
v 0.993 15.143 -1.482
v 1.66 15.143 -0.285
v 1.191 15.143 1.013
v -0.061 15.143 1.433
v -0.239 16.021 0.092
v -0.272 16.021 -0.322
v 0.014 16.021 -0.608
v 0.404 16.021 -0.551
v 0.604 16.021 -0.191
v 0.463 16.021 0.198
v 0.088 16.021 0.324
usemtl Paint
s off
f 393 392 391 390 389 388 387
f 394 395 396 397 398 399 400
f 387 388 395 394
f 388 389 396 395
f 389 390 397 396
f 390 391 398 397
f 391 392 399 398
f 392 393 400 399
f 393 387 394 400
o Branch
v 0.28 12.944 -0.074
v 0.313 12.964 0.027
v 0.227 12.962 0.091
v 0.141 12.942 0.029
v 0.174 12.931 -0.073
v 0.148 14.614 -0.157
v 0.163 14.625 -0.107
v 0.121 14.623 -0.076
v 0.079 14.612 -0.107
v 0.094 14.608 -0.157
usemtl PineBark
s off
f 405 404 403 402 401
f 406 407 408 409 410
f 401 402 407 406
f 402 403 408 407
f 403 404 409 408
f 404 405 410 409
f 405 401 406 410
o Crown
v -0.605 12.729 0.456
v -0.863 12.729 0.961
v -1.439 12.729 1.085
v -1.901 12.729 0.734
v -1.899 12.729 0.171
v -1.436 12.729 -0.179
v -0.861 12.729 -0.051
v -0.151 13.388 0.457
v -0.581 13.388 1.3
v -1.541 13.388 1.506
v -2.31 13.388 0.92
v -2.308 13.388 -0.017
v -1.536 13.388 -0.599
v -0.577 13.388 -0.389
usemtl Needle
s off
f 417 416 415 414 413 412 411
f 418 419 420 421 422 423 424
f 411 412 419 418
f 412 413 420 419
f 413 414 421 420
f 414 415 422 421
f 415 416 423 422
f 416 417 424 423
f 417 411 418 424
o Crown
v -0.188 13.388 0.723
v -0.822 13.388 1.439
v -1.807 13.388 1.414
v -2.4 13.388 0.664
v -2.154 13.388 -0.242
v -1.255 13.388 -0.625
v -0.38 13.388 -0.195
v -0.957 14.046 0.534
v -1.147 14.046 0.749
v -1.442 14.046 0.742
v -1.621 14.046 0.518
v -1.547 14.046 0.245
v -1.277 14.046 0.13
v -1.014 14.046 0.259
usemtl Needle
s off
f 431 430 429 428 427 426 425
f 432 433 434 435 436 437 438
f 425 426 433 432
f 426 427 434 433
f 427 428 435 434
f 428 429 436 435
f 429 430 437 436
f 430 431 438 437
f 431 425 432 438
o Branch
v 0.242 11.25 -0.08
v 0.292 11.283 0.011
v 0.253 11.193 0.088
v 0.177 11.103 0.044
v 0.171 11.136 -0.061
v -1.022 13.021 0.322
v -0.997 13.039 0.368
v -1.017 12.993 0.407
v -1.053 12.946 0.384
v -1.056 12.964 0.333
usemtl PineBark
s off
f 443 442 441 440 439
f 444 445 446 447 448
f 439 440 445 444
f 440 441 446 445
f 441 442 447 446
f 442 443 448 447
f 443 439 444 448
o Crown
v 0.811 13.223 -0.506
v 0.963 13.223 -0.997
v 1.473 13.223 -1.194
v 1.955 13.223 -0.947
v 2.049 13.223 -0.443
v 1.681 13.223 -0.061
v 1.131 13.223 -0.089
v 0.394 13.826 -0.439
v 0.646 13.826 -1.259
v 1.495 13.826 -1.586
v 2.3 13.826 -1.174
v 2.456 13.826 -0.334
v 1.845 13.826 0.301
v 0.926 13.826 0.256
usemtl Paint
s off
f 455 454 453 452 451 450 449
f 456 457 458 459 460 461 462
f 449 450 457 456
f 450 451 458 457
f 451 452 459 458
f 452 453 460 459
f 453 454 461 460
f 454 455 462 461
f 455 449 456 462
o Crown
v 0.381 13.826 -0.684
v 0.846 13.826 -1.42
v 1.756 13.826 -1.542
v 2.426 13.826 -0.96
v 2.352 13.826 -0.109
v 1.591 13.826 0.366
v 0.713 13.826 0.11
v 1.121 14.43 -0.63
v 1.261 14.43 -0.851
v 1.533 14.43 -0.887
v 1.734 14.43 -0.711
v 1.712 14.43 -0.457
v 1.483 14.43 -0.313
v 1.22 14.43 -0.39
usemtl Paint
s off
f 469 468 467 466 465 464 463
f 470 471 472 473 474 475 476
f 463 464 471 470
f 464 465 472 471
f 465 466 473 472
f 466 467 474 473
f 467 468 475 474
f 468 469 476 475
f 469 463 470 476
o Branch
v 0.224 11.68 0.085
v 0.154 11.711 0.006
v 0.185 11.632 -0.08
v 0.272 11.553 -0.056
v 0.298 11.584 0.045
v 1.149 13.489 -0.442
v 1.114 13.504 -0.481
v 1.129 13.464 -0.525
v 1.173 13.425 -0.512
v 1.185 13.44 -0.462
usemtl PineBark
s off
f 481 480 479 478 477
f 482 483 484 485 486
f 477 478 483 482
f 478 479 484 483
f 479 480 485 484
f 480 481 486 485
f 481 477 482 486
o Crown
v 0.061 11.961 1.666
v -0.135 11.961 1.176
v 0.112 11.961 0.713
v 0.618 11.961 0.624
v 0.999 11.961 0.976
v 0.97 11.961 1.506
v 0.552 11.961 1.813
v -0.201 12.51 1.971
v -0.528 12.51 1.153
v -0.115 12.51 0.38
v 0.726 12.51 0.233
v 1.362 12.51 0.82
v 1.315 12.51 1.703
v 0.619 12.51 2.214
usemtl Paint
s off
f 493 492 491 490 489 488 487
f 494 495 496 497 498 499 500
f 487 488 495 494
f 488 489 496 495
f 489 490 497 496
f 490 491 498 497
f 491 492 499 498
f 492 493 500 499
f 493 487 494 500
o Crown
v -0.363 12.51 1.778
v -0.484 12.51 0.904
v 0.101 12.51 0.26
v 0.952 12.51 0.333
v 1.427 12.51 1.065
v 1.171 12.51 1.909
v 0.374 12.51 2.225
v 0.209 13.058 1.382
v 0.173 13.058 1.118
v 0.348 13.058 0.926
v 0.604 13.058 0.947
v 0.746 13.058 1.167
v 0.669 13.058 1.42
v 0.43 13.058 1.515
usemtl Paint
s off
f 507 506 505 504 503 502 501
f 508 509 510 511 512 513 514
f 501 502 509 508
f 502 503 510 509
f 503 504 511 510
f 504 505 512 511
f 505 506 513 512
f 506 507 514 513
f 507 501 508 514
o Branch
v 0.148 10.361 -0.032
v 0.245 10.392 -0.073
v 0.316 10.315 -0.012
v 0.265 10.238 0.064
v 0.16 10.269 0.053
v 0.324 12.205 0.952
v 0.372 12.218 0.932
v 0.409 12.18 0.963
v 0.381 12.143 1
v 0.33 12.156 0.994
usemtl PineBark
s off
f 519 518 517 516 515
f 520 521 522 523 524
f 515 516 521 520
f 516 517 522 521
f 517 518 523 522
f 518 519 524 523
f 519 515 520 524
o Crown
v -0.584 15.692 -0.248
v -0.949 15.692 -0.537
v -0.94 15.692 -0.993
v -0.566 15.692 -1.27
v -0.106 15.692 -1.161
v 0.091 15.692 -0.748
v -0.123 15.692 -0.341
v -0.672 16.241 0.091
v -1.279 16.241 -0.392
v -1.265 16.241 -1.15
v -0.64 16.241 -1.612
v 0.126 16.241 -1.43
v 0.454 16.241 -0.74
v 0.098 16.241 -0.064
usemtl Needle
s off
f 531 530 529 528 527 526 525
f 532 533 534 535 536 537 538
f 525 526 533 532
f 526 527 534 533
f 527 528 535 534
f 528 529 536 535
f 529 530 537 536
f 530 531 538 537
f 531 525 532 538
o Crown
v -0.884 16.241 0.014
v -1.347 16.241 -0.599
v -1.138 16.241 -1.33
v -0.415 16.241 -1.63
v 0.28 16.241 -1.271
v 0.422 16.241 -0.525
v -0.097 16.241 0.045
v -0.583 16.789 -0.525
v -0.722 16.789 -0.71
v -0.66 16.789 -0.929
v -0.442 16.789 -1.019
v -0.233 16.789 -0.911
v -0.191 16.789 -0.687
v -0.347 16.789 -0.516
usemtl Needle
s off
f 545 544 543 542 541 540 539
f 546 547 548 549 550 551 552
f 539 540 547 546
f 540 541 548 547
f 541 542 549 548
f 542 543 550 549
f 543 544 551 550
f 544 545 552 551
f 545 539 546 552
o Branch
v 0.31 14.088 -0.02
v 0.257 14.114 0.071
v 0.162 14.046 0.064
v 0.156 13.978 -0.032
v 0.248 14.004 -0.083
v -0.321 15.933 -0.614
v -0.348 15.947 -0.569
v -0.395 15.911 -0.574
v -0.398 15.876 -0.622
v -0.353 15.889 -0.646
usemtl PineBark
s off
f 557 556 555 554 553
f 558 559 560 561 562
f 553 554 559 558
f 554 555 560 559
f 555 556 561 560
f 556 557 562 561
f 557 553 558 562
o Crown
v 1.471 15.527 1.009
v 1.04 15.527 1.05
v 0.737 15.527 0.757
v 0.792 15.527 0.348
v 1.161 15.527 0.135
v 1.568 15.527 0.275
v 1.706 15.527 0.664
v 1.645 16.021 1.279
v 0.926 16.021 1.347
v 0.422 16.021 0.857
v 0.512 16.021 0.177
v 1.128 16.021 -0.18
v 1.807 16.021 0.054
v 2.037 16.021 0.704
usemtl Paint
s off
f 569 568 567 566 565 564 563
f 570 571 572 573 574 575 576
f 563 564 571 570
f 564 565 572 571
f 565 566 573 572
f 566 567 574 573
f 567 568 575 574
f 568 569 576 575
f 569 563 570 576
o Crown
v 1.456 16.021 1.361
v 0.742 16.021 1.258
v 0.38 16.021 0.663
v 0.645 16.021 0.026
v 1.336 16.021 -0.176
v 1.933 16.021 0.212
v 1.986 16.021 0.894
v 1.283 16.515 0.832
v 1.07 16.515 0.801
v 0.961 16.515 0.624
v 1.041 16.515 0.431
v 1.249 16.515 0.371
v 1.427 16.515 0.487
v 1.444 16.515 0.692
usemtl Paint
s off
f 583 582 581 580 579 578 577
f 584 585 586 587 588 589 590
f 577 578 585 584
f 578 579 586 585
f 579 580 587 586
f 580 581 588 587
f 581 582 589 588
f 582 583 590 589
f 583 577 584 590
o Branch
v 0.15 13.87 0.038
v 0.183 13.897 -0.062
v 0.277 13.826 -0.076
v 0.303 13.756 0.015
v 0.224 13.783 0.086
v 0.931 15.747 0.502
v 0.946 15.76 0.453
v 0.993 15.725 0.446
v 1.006 15.69 0.492
v 0.967 15.703 0.527
usemtl PineBark
s off
f 595 594 593 592 591
f 596 597 598 599 600
f 591 592 597 596
f 592 593 598 597
f 593 594 599 598
f 594 595 600 599
f 595 591 596 600
o Crown.Core
v 1.371 13.168 0.568
v 0.395 13.168 1.182
v -0.82 13.168 0.963
v -1.362 13.168 0.076
v -0.82 13.168 -0.811
v 0.395 13.168 -1.031
v 1.371 13.168 -0.416
v 0.963 15.363 0.328
v 0.295 15.363 0.737
v -0.537 15.363 0.592
v -0.908 15.363 0
v -0.537 15.363 -0.592
v 0.295 15.363 -0.737
v 0.963 15.363 -0.328
usemtl Paint
s off
f 607 606 605 604 603 602 601
f 608 609 610 611 612 613 614
f 601 602 609 608
f 602 603 610 609
f 603 604 611 610
f 604 605 612 611
f 605 606 613 612
f 606 607 614 613
f 607 601 608 614
o Tuft
v 0.684 15.354 -1.574
v 0.484 15.354 -1.615
v 0.484 15.058 -1.618
v 0.684 15.058 -1.577
v 0.711 15.24 -2.157
v 0.684 15.24 -2.161
v 0.684 15.2 -2.163
v 0.711 15.2 -2.157
usemtl Paint
s off
f 618 617 616 615
f 619 620 621 622
f 615 616 620 619
f 616 617 621 620
f 617 618 622 621
f 618 615 619 622
o Tuft
v -1.291 13.778 -0.463
v -1.495 13.778 -0.442
v -1.5 13.489 -0.483
v -1.296 13.489 -0.506
v -1.426 13.776 -0.878
v -1.453 13.776 -0.875
v -1.453 13.739 -0.881
v -1.426 13.739 -0.884
usemtl Needle
s off
f 626 625 624 623
f 627 628 629 630
f 623 624 628 627
f 624 625 629 628
f 625 626 630 629
f 626 623 627 630
o Tuft
v 2.282 13.895 -1.103
v 2.161 13.895 -1.267
v 2.151 13.6 -1.259
v 2.272 13.6 -1.096
v 2.556 13.728 -1.418
v 2.54 13.728 -1.439
v 2.538 13.688 -1.438
v 2.555 13.688 -1.417
usemtl NeedleDark
s off
f 634 633 632 631
f 635 636 637 638
f 631 632 636 635
f 632 633 637 636
f 633 634 638 637
f 634 631 635 638
o Tuft
v 0.058 12.964 1.821
v 0.239 12.964 1.915
v 0.218 12.676 1.954
v 0.036 12.676 1.86
v -0.07 12.979 2.26
v -0.045 12.979 2.273
v -0.048 12.942 2.278
v -0.073 12.942 2.266
usemtl Paint
s off
f 642 641 640 639
f 643 644 645 646
f 639 640 644 643
f 640 641 645 644
f 641 642 646 645
f 642 639 643 646
o Tuft
v -0.3 12.584 0.666
v -0.422 12.584 0.829
v -0.413 12.288 0.835
v -0.291 12.288 0.672
v -0.639 12.428 0.521
v -0.655 12.428 0.543
v -0.654 12.389 0.543
v -0.639 12.389 0.522
usemtl Needle
s off
f 650 649 648 647
f 651 652 653 654
f 647 648 652 651
f 648 649 653 652
f 649 650 654 653
f 650 647 651 654
o Tuft
v -1.55 13.578 -0.543
v -1.741 13.578 -0.471
v -1.744 13.282 -0.477
v -1.553 13.282 -0.549
v -1.79 13.471 -0.92
v -1.816 13.471 -0.91
v -1.816 13.431 -0.911
v -1.79 13.431 -0.92
usemtl NeedleDark
s off
f 658 657 656 655
f 659 660 661 662
f 655 656 660 659
f 656 657 661 660
f 657 658 662 661
f 658 655 659 662
o Tuft
v -0.098 16.467 -0.003
v 0.07 16.467 -0.118
v 0.076 16.17 -0.11
v -0.092 16.17 0.006
v 0.265 16.375 0.368
v 0.288 16.375 0.351
v 0.288 16.335 0.353
v 0.266 16.335 0.368
usemtl Paint
s off
f 666 665 664 663
f 667 668 669 670
f 663 664 668 667
f 664 665 669 668
f 665 666 670 669
f 666 663 667 670
o Tuft
v 0.08 12.788 0.351
v -0.08 12.788 0.477
v -0.091 12.492 0.465
v 0.071 12.492 0.338
v -0.262 12.709 0.058
v -0.283 12.709 0.074
v -0.285 12.67 0.073
v -0.263 12.67 0.056
usemtl Needle
s off
f 674 673 672 671
f 675 676 677 678
f 671 672 676 675
f 672 673 677 676
f 673 674 678 677
f 674 671 675 678
o Tuft
v 1.833 16.359 0.341
v 1.757 16.359 0.151
v 1.787 16.067 0.139
v 1.863 16.067 0.328
v 2.305 16.357 0.058
v 2.294 16.357 0.032
v 2.299 16.317 0.03
v 2.308 16.317 0.054
usemtl NeedleDark
s off
f 682 681 680 679
f 683 684 685 686
f 679 680 684 683
f 680 681 685 684
f 681 682 686 685
f 682 679 683 686
o Tuft
v -0.894 16.787 -0.728
v -0.831 16.787 -0.533
v -0.916 16.519 -0.506
v -0.979 16.519 -0.699
v -1.345 17 -0.486
v -1.338 17 -0.46
v -1.349 16.965 -0.457
v -1.358 16.965 -0.483
usemtl Paint
s off
f 690 689 688 687
f 691 692 693 694
f 687 688 692 691
f 688 689 693 692
f 689 690 694 693
f 690 687 691 694
o Tuft
v 1.079 16.526 0.926
v 1.283 16.526 0.944
v 1.273 16.278 1.056
v 1.07 16.278 1.037
v 1.134 16.721 1.299
v 1.161 16.721 1.302
v 1.159 16.688 1.317
v 1.132 16.688 1.314
usemtl Needle
s off
f 698 697 696 695
f 699 700 701 702
f 695 696 700 699
f 696 697 701 700
f 697 698 702 701
f 698 695 699 702
o Tuft
v 1.837 16.157 1.099
v 1.922 16.157 0.914
v 1.921 15.861 0.913
v 1.834 15.861 1.099
v 2.322 16.021 1.226
v 2.334 16.021 1.202
v 2.332 15.982 1.202
v 2.322 15.982 1.226
usemtl NeedleDark
s off
f 706 705 704 703
f 707 708 709 710
f 703 704 708 707
f 704 705 709 708
f 705 706 710 709
f 706 703 707 710
o Tuft
v 2.293 14.081 -0.124
v 2.361 14.081 -0.316
v 2.373 13.785 -0.313
v 2.304 13.785 -0.121
v 2.729 13.989 -0.062
v 2.739 13.989 -0.088
v 2.741 13.949 -0.086
v 2.73 13.949 -0.062
usemtl Paint
s off
f 714 713 712 711
f 715 716 717 718
f 711 712 716 715
f 712 713 717 716
f 713 714 718 717
f 714 711 715 718
o Tuft
v -1.276 13.717 -0.518
v -1.479 13.717 -0.501
v -1.48 13.42 -0.522
v -1.277 13.42 -0.537
v -1.406 13.668 -1.082
v -1.433 13.668 -1.079
v -1.433 13.629 -1.082
v -1.406 13.629 -1.084
usemtl Needle
s off
f 722 721 720 719
f 723 724 725 726
f 719 720 724 723
f 720 721 725 724
f 721 722 726 725
f 722 719 723 726
o Tuft
v -1.112 13.565 -0.554
v -1.317 13.565 -0.577
v -1.315 13.269 -0.583
v -1.112 13.269 -0.56
v -1.161 13.453 -0.935
v -1.188 13.453 -0.938
v -1.188 13.414 -0.938
v -1.161 13.414 -0.935
usemtl NeedleDark
s off
f 730 729 728 727
f 731 732 733 734
f 727 728 732 731
f 728 729 733 732
f 729 730 734 733
f 730 727 731 734
o Tuft
v 0.905 15.631 0.944
v 1.058 15.631 0.81
v 1.082 15.339 0.835
v 0.929 15.339 0.972
v 1.203 15.591 1.147
v 1.223 15.591 1.129
v 1.226 15.552 1.134
v 1.206 15.552 1.152
usemtl Paint
s off
f 738 737 736 735
f 739 740 741 742
f 735 736 740 739
f 736 737 741 740
f 737 738 742 741
f 738 735 739 742
o Tuft
v 0.557 16.315 0.935
v 0.68 16.315 1.097
v 0.661 16.021 1.112
v 0.537 16.021 0.949
v 0.17 16.282 1.339
v 0.186 16.282 1.362
v 0.183 16.243 1.364
v 0.166 16.243 1.342
usemtl Needle
s off
f 746 745 744 743
f 747 748 749 750
f 743 744 748 747
f 744 745 749 748
f 745 746 750 749
f 746 743 747 750
o Tuft
v -0.884 16.311 -0.042
v -0.701 16.311 0.048
v -0.695 16.015 0.036
v -0.878 16.015 -0.056
v -1 16.135 0.384
v -0.976 16.135 0.397
v -0.975 16.096 0.395
v -0.999 16.096 0.383
usemtl NeedleDark
s off
f 754 753 752 751
f 755 756 757 758
f 751 752 756 755
f 752 753 757 756
f 753 754 758 757
f 754 751 755 758
o Tuft
v -0.58 13.824 1.006
v -0.456 13.824 0.843
v -0.418 13.535 0.872
v -0.542 13.535 1.035
v -0.209 13.829 1.177
v -0.192 13.829 1.155
v -0.186 13.789 1.159
v -0.203 13.789 1.181
usemtl Paint
s off
f 762 761 760 759
f 763 764 765 766
f 759 760 764 763
f 760 761 765 764
f 761 762 766 765
f 762 759 763 766
o Tuft
v -0.852 16.396 -1.5
v -1.022 16.396 -1.388
v -1.022 16.1 -1.388
v -0.852 16.1 -1.501
v -1.233 16.271 -1.918
v -1.256 16.271 -1.902
v -1.256 16.232 -1.902
v -1.233 16.232 -1.918
usemtl Needle
s off
f 770 769 768 767
f 771 772 773 774
f 767 768 772 771
f 768 769 773 772
f 769 770 774 773
f 770 767 771 774
o Tuft
v -0.325 16.478 0.056
v -0.132 16.478 -0.012
v -0.127 16.181 0.003
v -0.319 16.181 0.071
v -0.1 16.396 0.425
v -0.074 16.396 0.416
v -0.074 16.357 0.419
v -0.1 16.357 0.428
usemtl NeedleDark
s off
f 778 777 776 775
f 779 780 781 782
f 775 776 780 779
f 776 777 781 780
f 777 778 782 781
f 778 775 779 782
o Tuft
v 0.773 13.881 -1.318
v 0.642 13.881 -1.162
v 0.655 13.585 -1.15
v 0.787 13.585 -1.306
v 0.383 13.697 -1.532
v 0.366 13.697 -1.51
v 0.368 13.658 -1.509
v 0.386 13.658 -1.53
usemtl Paint
s off
f 786 785 784 783
f 787 788 789 790
f 783 784 788 787
f 784 785 789 788
f 785 786 790 789
f 786 783 787 790
o Tuft
v -0.493 13.776 -0.039
v -0.584 13.776 -0.221
v -0.554 13.484 -0.238
v -0.462 13.484 -0.054
v -0.097 13.767 -0.336
v -0.109 13.767 -0.36
v -0.106 13.73 -0.363
v -0.094 13.73 -0.338
usemtl Needle
s off
f 794 793 792 791
f 795 796 797 798
f 791 792 796 795
f 792 793 797 796
f 793 794 798 797
f 794 791 795 798
o Tuft
v 1.223 15.24 0.873
v 1.339 15.24 0.705
v 1.335 14.944 0.702
v 1.217 14.944 0.869
v 1.635 15.091 1.053
v 1.651 15.091 1.032
v 1.65 15.051 1.031
v 1.635 15.051 1.053
usemtl NeedleDark
s off
f 802 801 800 799
f 803 804 805 806
f 799 800 804 803
f 800 801 805 804
f 801 802 806 805
f 802 799 803 806
o Tuft
v 0.949 14.423 -0.743
v 0.932 14.423 -0.539
v 0.858 14.149 -0.545
v 0.875 14.149 -0.749
v 0.469 14.555 -0.692
v 0.466 14.555 -0.664
v 0.457 14.52 -0.666
v 0.459 14.52 -0.693
usemtl Paint
s off
f 810 809 808 807
f 811 812 813 814
f 807 808 812 811
f 808 809 813 812
f 809 810 814 813
f 810 807 811 814
o Tuft
v 0.683 16.456 0.779
v 0.773 16.456 0.963
v 0.714 16.177 0.991
v 0.624 16.177 0.808
v 0.271 16.57 1.084
v 0.283 16.57 1.108
v 0.275 16.533 1.112
v 0.263 16.533 1.087
usemtl Needle
s off
f 818 817 816 815
f 819 820 821 822
f 815 816 820 819
f 816 817 821 820
f 817 818 822 821
f 818 815 819 822
o Tuft
v 0.749 15.742 0.893
v 0.899 15.742 0.755
v 0.94 15.459 0.799
v 0.79 15.459 0.938
v 1.111 15.806 1.153
v 1.131 15.806 1.135
v 1.135 15.769 1.141
v 1.115 15.769 1.159
usemtl NeedleDark
s off
f 826 825 824 823
f 827 828 829 830
f 823 824 828 827
f 824 825 829 828
f 825 826 830 829
f 826 823 827 830
o Tuft
v 2.319 14.105 -0.985
v 2.211 14.105 -1.158
v 2.226 13.809 -1.167
v 2.334 13.809 -0.994
v 2.646 14.031 -1.293
v 2.632 14.031 -1.315
v 2.633 13.991 -1.317
v 2.647 13.991 -1.294
usemtl Paint
s off
f 834 833 832 831
f 835 836 837 838
f 831 832 836 835
f 832 833 837 836
f 833 834 838 837
f 834 831 835 838
o Tuft
v 1.84 16.1 1.079
v 1.933 16.1 0.897
v 1.922 15.804 0.891
v 1.83 15.804 1.075
v 2.361 15.931 1.244
v 2.373 15.931 1.22
v 2.372 15.892 1.22
v 2.36 15.892 1.244
usemtl Needle
s off
f 842 841 840 839
f 843 844 845 846
f 839 840 844 843
f 840 841 845 844
f 841 842 846 845
f 842 839 843 846
o Tuft
v 0.981 15.916 -0.198
v 0.952 15.916 -0.401
v 1.02 15.637 -0.412
v 1.049 15.637 -0.209
v 1.435 16.026 -0.354
v 1.43 16.026 -0.38
v 1.439 15.988 -0.381
v 1.444 15.988 -0.354
usemtl NeedleDark
s off
f 850 849 848 847
f 851 852 853 854
f 847 848 852 851
f 848 849 853 852
f 849 850 854 853
f 850 847 851 854
o Tuft
v 0.275 16.342 -0.325
v 0.389 16.342 -0.496
v 0.378 16.045 -0.502
v 0.266 16.045 -0.331
v 0.613 16.184 -0.21
v 0.627 16.184 -0.233
v 0.627 16.144 -0.233
v 0.611 16.144 -0.21
usemtl Paint
s off
f 858 857 856 855
f 859 860 861 862
f 855 856 860 859
f 856 857 861 860
f 857 858 862 861
f 858 855 859 862
o Tuft
v -2.084 13.71 1.034
v -1.971 13.71 1.205
v -1.99 13.416 1.217
v -2.102 13.416 1.047
v -2.391 13.651 1.344
v -2.376 13.651 1.367
v -2.379 13.611 1.368
v -2.394 13.611 1.345
usemtl Needle
s off
f 866 865 864 863
f 867 868 869 870
f 863 864 868 867
f 864 865 869 868
f 865 866 870 869
f 866 863 867 870
o Tuft
v 1.043 16.469 0.141
v 0.863 16.469 0.236
v 0.82 16.203 0.157
v 1 16.203 0.061
v 0.758 16.636 -0.201
v 0.736 16.636 -0.188
v 0.729 16.601 -0.198
v 0.754 16.601 -0.212
usemtl NeedleDark
s off
f 874 873 872 871
f 875 876 877 878
f 871 872 876 875
f 872 873 877 876
f 873 874 878 877
f 874 871 875 878
o Tuft
v -2.199 13.752 0.124
v -2.27 13.752 0.315
v -2.311 13.462 0.3
v -2.24 13.462 0.109
v -2.588 13.743 0.074
v -2.597 13.743 0.1
v -2.603 13.704 0.098
v -2.594 13.704 0.073
usemtl Paint
s off
f 882 881 880 879
f 883 884 885 886
f 879 880 884 883
f 880 881 885 884
f 881 882 886 885
f 882 879 883 886
o Tuft
v 0.519 14.186 -0.593
v 0.545 14.186 -0.39
v 0.522 13.892 -0.387
v 0.495 13.892 -0.59
v 0.027 14.143 -0.439
v 0.032 14.143 -0.412
v 0.029 14.103 -0.412
v 0.024 14.103 -0.439
usemtl Needle
s off
f 890 889 888 887
f 891 892 893 894
f 887 888 892 891
f 888 889 893 892
f 889 890 894 893
f 890 887 891 894
o Tuft
v 0.851 16.291 -0.054
v 0.711 16.291 0.095
v 0.698 15.995 0.083
v 0.837 15.995 -0.067
v 0.448 16.221 -0.31
v 0.43 16.221 -0.291
v 0.428 16.181 -0.292
v 0.446 16.181 -0.312
usemtl NeedleDark
s off
f 898 897 896 895
f 899 900 901 902
f 895 896 900 899
f 896 897 901 900
f 897 898 902 901
f 898 895 899 902
o Tuft
v 2.419 13.925 -0.359
v 2.443 13.925 -0.562
v 2.437 13.629 -0.563
v 2.414 13.629 -0.36
v 2.894 13.776 -0.394
v 2.897 13.776 -0.421
v 2.895 13.737 -0.421
v 2.892 13.737 -0.394
usemtl Paint
s off
f 906 905 904 903
f 907 908 909 910
f 903 904 908 907
f 904 905 909 908
f 905 906 910 909
f 906 903 907 910
o Tuft
v 1.324 14.364 -1.167
v 1.155 14.364 -1.052
v 1.087 14.125 -1.152
v 1.256 14.125 -1.267
v 1.032 14.619 -1.439
v 1.009 14.619 -1.424
v 1 14.586 -1.438
v 1.023 14.586 -1.453
usemtl Needle
s off
f 914 913 912 911
f 915 916 917 918
f 911 912 916 915
f 912 913 917 916
f 913 914 918 917
f 914 911 915 918
o Tuft
v 0.345 16.293 -1.056
v 0.245 16.293 -1.235
v 0.236 15.997 -1.23
v 0.336 15.997 -1.052
v 0.757 16.127 -1.389
v 0.743 16.127 -1.412
v 0.742 16.089 -1.412
v 0.755 16.089 -1.388
usemtl NeedleDark
s off
f 922 921 920 919
f 923 924 925 926
f 919 920 924 923
f 920 921 925 924
f 921 922 926 925
f 922 919 923 926
o Tuft
v -0.185 12.973 0.952
v -0.232 12.973 1.15
v -0.289 12.69 1.137
v -0.242 12.69 0.938
v -0.634 13.034 0.935
v -0.64 13.034 0.961
v -0.648 12.995 0.96
v -0.642 12.995 0.934
usemtl Paint
s off
f 930 929 928 927
f 931 932 933 934
f 927 928 932 931
f 928 929 933 932
f 929 930 934 933
f 930 927 931 934
o Cone
v 0.3 14.149 -1.091
v 0.215 14.149 -1.064
v 0.163 14.149 -1.137
v 0.215 14.149 -1.208
v 0.3 14.149 -1.181
v 0.263 14.544 -1.118
v 0.229 14.544 -1.108
v 0.209 14.544 -1.137
v 0.229 14.544 -1.165
v 0.263 14.544 -1.153
usemtl Cone
s off
f 939 938 937 936 935
f 940 941 942 943 944
f 935 936 941 940
f 936 937 942 941
f 937 938 943 942
f 938 939 944 943
f 939 935 940 944
o Cone
v -0.828 13.537 0.648
v -0.913 13.537 0.675
v -0.966 13.537 0.604
v -0.913 13.537 0.531
v -0.828 13.537 0.558
v -0.864 13.932 0.621
v -0.899 13.932 0.633
v -0.92 13.932 0.604
v -0.899 13.932 0.575
v -0.864 13.932 0.586
usemtl Cone
s off
f 949 948 947 946 945
f 950 951 952 953 954
f 945 946 951 950
f 946 947 952 951
f 947 948 953 952
f 948 949 954 953
f 949 945 950 954
o Cone
v 1.173 13.813 0.029
v 1.088 13.813 0.058
v 1.035 13.813 -0.015
v 1.088 13.813 -0.088
v 1.173 13.813 -0.059
v 1.135 14.208 0.003
v 1.102 14.208 0.014
v 1.081 14.208 -0.015
v 1.102 14.208 -0.044
v 1.135 14.208 -0.033
usemtl Cone
s off
f 959 958 957 956 955
f 960 961 962 963 964
f 955 956 961 960
f 956 957 962 961
f 957 958 963 962
f 958 959 964 963
f 959 955 960 964
o Cone
v 0.011 11.889 0.572
v -0.074 11.889 0.599
v -0.126 11.889 0.528
v -0.074 11.889 0.456
v 0.011 11.889 0.483
v -0.026 12.284 0.545
v -0.059 12.284 0.557
v -0.08 12.284 0.528
v -0.059 12.284 0.499
v -0.026 12.284 0.51
usemtl Cone
s off
f 969 968 967 966 965
f 970 971 972 973 974
f 965 966 971 970
f 966 967 972 971
f 967 968 973 972
f 968 969 974 973
f 969 965 970 974
o Cone
v -1.059 15.661 -0.286
v -1.144 15.661 -0.259
v -1.197 15.661 -0.331
v -1.144 15.661 -0.403
v -1.059 15.661 -0.375
v -1.097 16.056 -0.313
v -1.131 16.056 -0.303
v -1.152 16.056 -0.331
v -1.131 16.056 -0.36
v -1.097 16.056 -0.35
usemtl Cone
s off
f 979 978 977 976 975
f 980 981 982 983 984
f 975 976 981 980
f 976 977 982 981
f 977 978 983 982
f 978 979 984 983
f 979 975 980 984
o Cone
v 1.842 15.797 0.216
v 1.757 15.797 0.245
v 1.704 15.797 0.173
v 1.757 15.797 0.1
v 1.842 15.797 0.129
v 1.804 16.192 0.191
v 1.771 16.192 0.201
v 1.75 16.192 0.173
v 1.771 16.192 0.144
v 1.804 16.192 0.154
usemtl Cone
s off
f 989 988 987 986 985
f 990 991 992 993 994
f 985 986 991 990
f 986 987 992 991
f 987 988 993 992
f 988 989 994 993
f 989 985 990 994
o Litter
v 1.521 0 -0.285
v 1.461 0 -0.189
v 1.32 0 -0.201
v 1.294 0 -0.307
v 1.418 0 -0.359
v 1.521 0.044 -0.285
v 1.461 0.044 -0.189
v 1.32 0.044 -0.201
v 1.294 0.044 -0.307
v 1.418 0.044 -0.359
usemtl LeafDry
s off
f 999 998 997 996 995
f 1000 1001 1002 1003 1004
f 995 996 1001 1000
f 996 997 1002 1001
f 997 998 1003 1002
f 998 999 1004 1003
f 999 995 1000 1004
o Litter
v 1.663 0 0.319
v 1.559 0 0.392
v 1.435 0 0.341
v 1.462 0 0.236
v 1.603 0 0.222
v 1.663 0.044 0.319
v 1.559 0.044 0.392
v 1.435 0.044 0.341
v 1.462 0.044 0.236
v 1.603 0.044 0.222
usemtl Cone
s off
f 1009 1008 1007 1006 1005
f 1010 1011 1012 1013 1014
f 1005 1006 1011 1010
f 1006 1007 1012 1011
f 1007 1008 1013 1012
f 1008 1009 1014 1013
f 1009 1005 1010 1014
o Grass
v 0.607 -0.002 -0.413
v 0.575 0.009 -0.356
v 0.542 -0.007 -0.412
v 0.557 0.689 -0.475
v 0.554 0.689 -0.471
v 0.551 0.689 -0.475
usemtl Grass
s off
f 1017 1016 1015
f 1018 1019 1020
f 1015 1016 1019 1018
f 1016 1017 1020 1019
f 1017 1015 1018 1020
o Grass
v 0.607 -0.011 -0.412
v 0.575 0.013 -0.357
v 0.542 -0.002 -0.413
v 0.613 0.489 -0.483
v 0.61 0.492 -0.477
v 0.607 0.489 -0.483
usemtl Grass
s off
f 1023 1022 1021
f 1024 1025 1026
f 1021 1022 1025 1024
f 1022 1023 1026 1025
f 1023 1021 1024 1026
o Grass
v 0.607 -0.007 -0.412
v 0.575 0.007 -0.356
v 0.542 0 -0.413
v 0.605 0.604 -0.446
v 0.602 0.606 -0.44
v 0.599 0.606 -0.446
usemtl Grass
s off
f 1029 1028 1027
f 1030 1031 1032
f 1027 1028 1031 1030
f 1028 1029 1032 1031
f 1029 1027 1030 1032
o Grass
v 1.468 0.007 -0.304
v 1.436 -0.009 -0.25
v 1.403 0.002 -0.306
v 1.424 0.525 -0.224
v 1.42 0.522 -0.218
v 1.417 0.525 -0.224
usemtl Grass
s off
f 1035 1034 1033
f 1036 1037 1038
f 1033 1034 1037 1036
f 1034 1035 1038 1037
f 1035 1033 1036 1038
o Grass
v 1.468 0 -0.306
v 1.436 0.007 -0.248
v 1.403 -0.007 -0.304
v 1.409 0.645 -0.339
v 1.406 0.645 -0.334
v 1.403 0.643 -0.339
usemtl Grass
s off
f 1041 1040 1039
f 1042 1043 1044
f 1039 1040 1043 1042
f 1040 1041 1044 1043
f 1041 1039 1042 1044
o Grass
v 1.468 0.009 -0.306
v 1.436 0.004 -0.248
v 1.405 -0.013 -0.304
v 1.359 0.465 -0.318
v 1.356 0.465 -0.312
v 1.353 0.463 -0.318
usemtl Grass
s off
f 1047 1046 1045
f 1048 1049 1050
f 1045 1046 1049 1048
f 1046 1047 1050 1049
f 1047 1045 1048 1050
o Litter
v -1.801 0 0.082
v -1.722 0 -0.008
v -1.586 0 0.021
v -1.579 0 0.127
v -1.712 0 0.165
v -1.801 0.044 0.082
v -1.722 0.044 -0.008
v -1.586 0.044 0.021
v -1.579 0.044 0.127
v -1.712 0.044 0.165
usemtl LeafDry
s off
f 1055 1054 1053 1052 1051
f 1056 1057 1058 1059 1060
f 1051 1052 1057 1056
f 1052 1053 1058 1057
f 1053 1054 1059 1058
f 1054 1055 1060 1059
f 1055 1051 1056 1060
o Litter
v -0.86 0 0.177
v -0.802 0 0.08
v -0.661 0 0.091
v -0.631 0 0.195
v -0.754 0 0.248
v -0.86 0.044 0.177
v -0.802 0.044 0.08
v -0.661 0.044 0.091
v -0.631 0.044 0.195
v -0.754 0.044 0.248
usemtl Cone
s off
f 1065 1064 1063 1062 1061
f 1066 1067 1068 1069 1070
f 1061 1062 1067 1066
f 1062 1063 1068 1067
f 1063 1064 1069 1068
f 1064 1065 1070 1069
f 1065 1061 1066 1070
o Grass
v 1.595 0.011 0.003
v 1.562 -0.007 0.059
v 1.53 -0.004 0.002
v 1.494 0.612 0.067
v 1.489 0.612 0.071
v 1.486 0.612 0.065
usemtl Grass
s off
f 1073 1072 1071
f 1074 1075 1076
f 1071 1072 1075 1074
f 1072 1073 1076 1075
f 1073 1071 1074 1076
o Grass
v 1.595 0.002 0.003
v 1.562 -0.007 0.059
v 1.53 0.004 0.003
v 1.577 0.503 0.054
v 1.574 0.503 0.061
v 1.571 0.503 0.054
usemtl Grass
s off
f 1079 1078 1077
f 1080 1081 1082
f 1077 1078 1081 1080
f 1078 1079 1082 1081
f 1079 1077 1080 1082
o Grass
v 1.595 -0.002 0.003
v 1.562 0.002 0.059
v 1.53 0 0.003
v 1.573 0.461 0.003
v 1.568 0.463 0.009
v 1.565 0.461 0.003
usemtl Grass
s off
f 1085 1084 1083
f 1086 1087 1088
f 1083 1084 1087 1086
f 1084 1085 1088 1087
f 1085 1083 1086 1088
o Grass
v 0.127 -0.002 0.77
v 0.094 -0.009 0.828
v 0.062 0.013 0.772
v 0.163 0.568 0.855
v 0.16 0.568 0.861
v 0.157 0.571 0.855
usemtl Grass
s off
f 1091 1090 1089
f 1092 1093 1094
f 1089 1090 1093 1092
f 1090 1091 1094 1093
f 1091 1089 1092 1094
o Grass
v 0.127 -0.009 0.772
v 0.094 0.007 0.828
v 0.062 0.002 0.77
v 0.144 0.65 0.739
v 0.141 0.652 0.745
v 0.138 0.652 0.739
usemtl Grass
s off
f 1097 1096 1095
f 1098 1099 1100
f 1095 1096 1099 1098
f 1096 1097 1100 1099
f 1097 1095 1098 1100
o Grass
v 0.126 -0.013 0.772
v 0.094 0.004 0.828
v 0.062 0.011 0.77
v 0.183 0.465 0.766
v 0.18 0.467 0.77
v 0.177 0.467 0.766
usemtl Grass
s off
f 1103 1102 1101
f 1104 1105 1106
f 1101 1102 1105 1104
f 1102 1103 1106 1105
f 1103 1101 1104 1106
o Litter
v -1.827 0 -0.286
v -1.725 0 -0.362
v -1.598 0 -0.313
v -1.621 0 -0.207
v -1.762 0 -0.191
v -1.827 0.044 -0.286
v -1.725 0.044 -0.362
v -1.598 0.044 -0.313
v -1.621 0.044 -0.207
v -1.762 0.044 -0.191
usemtl LeafDry
s off
f 1111 1110 1109 1108 1107
f 1112 1113 1114 1115 1116
f 1107 1108 1113 1112
f 1108 1109 1114 1113
f 1109 1110 1115 1114
f 1110 1111 1116 1115
f 1111 1107 1112 1116
o Litter
v -0.188 0 0.799
v -0.282 0 0.719
v -0.209 0 0.627
v -0.07 0 0.651
v -0.058 0 0.757
v -0.188 0.044 0.799
v -0.282 0.044 0.719
v -0.209 0.044 0.627
v -0.07 0.044 0.651
v -0.058 0.044 0.757
usemtl Cone
s off
f 1121 1120 1119 1118 1117
f 1122 1123 1124 1125 1126
f 1117 1118 1123 1122
f 1118 1119 1124 1123
f 1119 1120 1125 1124
f 1120 1121 1126 1125
f 1121 1117 1122 1126
