# tree.obj - Baum (Holz) fuer procedurally-generated-map
# Einheiten: Meter, Y oben, Vorderseite nach +Z - so wie Blender ein Modell
# exportiert, das in der Vorderansicht zum Betrachter schaut.
# Material Paint (die Nadeln) bekommt eine je Baum leicht andere Farbe.
mtllib tree.mtl
o Trunk
v 0.11713 0.00000 0.05640
v 0.02893 0.00000 0.12674
v -0.08105 0.00000 0.10164
v -0.13000 0.00000 0.00000
v -0.08105 0.00000 -0.10164
v 0.02893 0.00000 -0.12674
v 0.11713 0.00000 -0.05640
v 0.11713 0.90000 0.05640
v 0.02893 0.90000 0.12674
v -0.08105 0.90000 0.10164
v -0.13000 0.90000 0.00000
v -0.08105 0.90000 -0.10164
v 0.02893 0.90000 -0.12674
v 0.11713 0.90000 -0.05640
s off
usemtl Bark
f 8 9 2 1
f 9 10 3 2
f 10 11 4 3
f 11 12 5 4
f 12 13 6 5
f 13 14 7 6
f 14 8 1 7
f 1 2 3 4 5 6 7
f 14 13 12 11 10 9 8
o Needles
v 0.32541 0.55000 0.67573
v 0.73120 0.55000 0.16689
v 0.58637 0.55000 -0.46762
v 0.00000 0.55000 -0.75000
v -0.58637 0.55000 -0.46762
v -0.73120 0.55000 0.16689
v -0.32541 0.55000 0.67573
v 0.00000 1.85000 0.00000
s off
usemtl Paint
f 15 16 22
f 16 17 22
f 17 18 22
f 18 19 22
f 19 20 22
f 20 21 22
f 21 15 22
f 21 20 19 18 17 16 15
v 0.26033 1.15000 0.54058
v 0.58496 1.15000 0.13351
v 0.46910 1.15000 -0.37409
v 0.00000 1.15000 -0.60000
v -0.46910 1.15000 -0.37409
v -0.58496 1.15000 0.13351
v -0.26033 1.15000 0.54058
v 0.00000 2.45000 0.00000
s off
usemtl Paint
f 23 24 30
f 24 25 30
f 25 26 30
f 26 27 30
f 27 28 30
f 28 29 30
f 29 23 30
f 29 28 27 26 25 24 23
v 0.18223 1.75000 0.37841
v 0.40947 1.75000 0.09346
v 0.32837 1.75000 -0.26187
v 0.00000 1.75000 -0.42000
v -0.32837 1.75000 -0.26187
v -0.40947 1.75000 0.09346
v -0.18223 1.75000 0.37841
v 0.00000 3.00000 0.00000
s off
usemtl Paint
f 31 32 38
f 32 33 38
f 33 34 38
f 34 35 38
f 35 36 38
f 36 37 38
f 37 31 38
f 37 36 35 34 33 32 31
