# tree_poplar.obj - Pappel (Holz) fuer procedurally-generated-map
# Einheiten: Meter, Y oben, Vorderseite nach +Z - so wie Blender ein Modell
# exportiert, das in der Vorderansicht zum Betrachter schaut.
# Material Paint (das Laub) bekommt eine je Baum leicht andere Farbe.
mtllib tree_poplar.mtl
o Root
v 0.164 0.376 0.157
v 0.227 0.422 0.031
v 0.195 0.3 -0.068
v 0.112 0.178 -0.006
v 0.092 0.224 0.135
v 0.56 0.024 0.212
v 0.58 0.04 0.171
v 0.569 0 0.136
v 0.542 -0.04 0.158
v 0.536 -0.024 0.205
usemtl Bark
s off
f 5 4 3 2 1
f 6 7 8 9 10
f 1 2 7 6
f 2 3 8 7
f 3 4 9 8
f 4 5 10 9
f 5 1 6 10
o Root
v -0.114 0.376 0.195
v 0.022 0.422 0.229
v 0.112 0.3 0.175
v 0.031 0.178 0.109
v -0.111 0.224 0.122
v -0.077 0.024 0.593
v -0.031 0.04 0.604
v -0.002 0 0.586
v -0.028 -0.04 0.564
v -0.076 -0.024 0.569
usemtl Bark
s off
f 15 14 13 12 11
f 16 17 18 19 20
f 11 12 17 16
f 12 13 18 17
f 13 14 19 18
f 14 15 20 19
f 15 11 16 20
o Root
v -0.162 0.376 -0.158
v -0.227 0.422 -0.033
v -0.197 0.3 0.066
v -0.112 0.178 0.004
v -0.09 0.224 -0.136
v -0.557 0.024 -0.217
v -0.579 0.04 -0.177
v -0.569 0 -0.144
v -0.54 -0.04 -0.164
v -0.534 -0.024 -0.21
usemtl Bark
s off
f 25 24 23 22 21
f 26 27 28 29 30
f 21 22 27 26
f 22 23 28 27
f 23 24 29 28
f 24 25 30 29
f 25 21 26 30
o Root
v 0.177 0.376 -0.142
v 0.061 0.422 -0.221
v -0.042 0.3 -0.203
v 0.009 0.178 -0.112
v 0.146 0.224 -0.074
v 0.284 0.024 -0.527
v 0.245 0.04 -0.553
v 0.212 0 -0.547
v 0.229 -0.04 -0.516
v 0.275 -0.024 -0.503
usemtl Bark
s off
f 35 34 33 32 31
f 36 37 38 39 40
f 31 32 37 36
f 32 33 38 37
f 33 34 39 38
f 34 35 40 39
f 35 31 36 40
o Trunk.Stump
v 0.166 0 -0.287
v 0.332 0 0
v 0.166 0 0.287
v -0.166 0 0.287
v -0.332 0 0
v -0.166 0 -0.287
v 0.155 1 -0.269
v 0.311 1 0
v 0.155 1 0.269
v -0.155 1 0.269
v -0.311 1 0
v -0.155 1 -0.269
usemtl Bark
s off
f 46 45 44 43 42 41
f 47 48 49 50 51 52
f 41 42 48 47
f 42 43 49 48
f 43 44 50 49
f 44 45 51 50
f 45 46 52 51
f 46 41 47 52
o Trunk
v 0.155 1 -0.269
v 0.311 1 0
v 0.155 1 0.269
v -0.155 1 0.269
v -0.311 1 0
v -0.155 1 -0.269
v 0.12 4.444 -0.208
v 0.24 4.444 0
v 0.12 4.444 0.208
v -0.12 4.444 0.208
v -0.24 4.444 0
v -0.12 4.444 -0.208
usemtl Bark
s off
f 58 57 56 55 54 53
f 59 60 61 62 63 64
f 53 54 60 59
f 54 55 61 60
f 55 56 62 61
f 56 57 63 62
f 57 58 64 63
f 58 53 59 64
o Crown.Core
v 0.921 2.889 0
v 0.652 2.889 0.652
v 0 2.889 0.921
v -0.652 2.889 0.652
v -0.921 2.889 0
v -0.652 2.889 -0.652
v 0 2.889 -0.921
v 0.652 2.889 -0.652
v 1.437 5.778 0
v 1.017 5.778 1.017
v 0 5.778 1.437
v -1.017 5.778 1.017
v -1.437 5.778 0
v -1.017 5.778 -1.017
v 0 5.778 -1.437
v 1.017 5.778 -1.017
usemtl Paint
s off
f 72 71 70 69 68 67 66 65
f 73 74 75 76 77 78 79 80
f 65 66 74 73
f 66 67 75 74
f 67 68 76 75
f 68 69 77 76
f 69 70 78 77
f 70 71 79 78
f 71 72 80 79
f 72 65 73 80
o Crown.Core
v 1.373 5.778 0.426
v 0.671 5.778 1.271
v -0.426 5.778 1.373
v -1.271 5.778 0.671
v -1.373 5.778 -0.426
v -0.671 5.778 -1.271
v 0.426 5.778 -1.373
v 1.271 5.778 -0.671
v 1.268 11.556 0.393
v 0.619 11.556 1.174
v -0.393 11.556 1.268
v -1.174 11.556 0.619
v -1.268 11.556 -0.393
v -0.619 11.556 -1.174
v 0.393 11.556 -1.268
v 1.174 11.556 -0.619
usemtl Paint
s off
f 88 87 86 85 84 83 82 81
f 89 90 91 92 93 94 95 96
f 81 82 90 89
f 82 83 91 90
f 83 84 92 91
f 84 85 93 92
f 85 86 94 93
f 86 87 95 94
f 87 88 96 95
f 88 81 89 96
o Crown.Core
v 1.095 11.556 0.75
v 0.245 11.556 1.305
v -0.75 11.556 1.095
v -1.305 11.556 0.245
v -1.095 11.556 -0.75
v -0.245 11.556 -1.305
v 0.75 11.556 -1.095
v 1.305 11.556 -0.245
v 0.608 16.889 0.416
v 0.136 16.889 0.724
v -0.416 16.889 0.608
v -0.724 16.889 0.136
v -0.608 16.889 -0.416
v -0.136 16.889 -0.724
v 0.416 16.889 -0.608
v 0.724 16.889 -0.136
usemtl Paint
s off
f 104 103 102 101 100 99 98 97
f 105 106 107 108 109 110 111 112
f 97 98 106 105
f 98 99 107 106
f 99 100 108 107
f 100 101 109 108
f 101 102 110 109
f 102 103 111 110
f 103 104 112 111
f 104 97 105 112
o Crown.Core
v 0.459 16.889 0.577
v -0.085 16.889 0.732
v -0.577 16.889 0.459
v -0.732 16.889 -0.085
v -0.459 16.889 -0.577
v 0.085 16.889 -0.732
v 0.577 16.889 -0.459
v 0.732 16.889 0.085
v 0.057 20 0.072
v -0.011 20 0.092
v -0.072 20 0.057
v -0.092 20 -0.011
v -0.057 20 -0.072
v 0.011 20 -0.092
v 0.072 20 -0.057
v 0.092 20 0.011
usemtl Paint
s off
f 120 119 118 117 116 115 114 113
f 121 122 123 124 125 126 127 128
f 113 114 122 121
f 114 115 123 122
f 115 116 124 123
f 116 117 125 124
f 117 118 126 125
f 118 119 127 126
f 119 120 128 127
f 120 113 121 128
o Crown
v 0.269 3.5 0.015
v 0.468 3.5 -0.398
v 0.888 3.5 -0.413
v 1.109 3.5 -0.015
v 0.91 3.5 0.398
v 0.49 3.5 0.413
v -0.011 4.444 0.024
v 0.321 4.444 -0.665
v 1.021 4.444 -0.689
v 1.389 4.444 -0.024
v 1.058 4.444 0.665
v 0.357 4.444 0.689
usemtl LeafDark
s off
f 134 133 132 131 130 129
f 135 136 137 138 139 140
f 129 130 136 135
f 130 131 137 136
f 131 132 138 137
f 132 133 139 138
f 133 134 140 139
f 134 129 135 140
o Crown
v 0.006 4.444 -0.17
v 0.479 4.444 -0.746
v 1.163 4.444 -0.577
v 1.373 4.444 0.17
v 0.899 4.444 0.746
v 0.216 4.444 0.577
v 0.485 5.389 -0.052
v 0.627 5.389 -0.223
v 0.831 5.389 -0.173
v 0.894 5.389 0.052
v 0.752 5.389 0.223
v 0.547 5.389 0.173
usemtl LeafDark
s off
f 146 145 144 143 142 141
f 147 148 149 150 151 152
f 141 142 148 147
f 142 143 149 148
f 143 144 150 149
f 144 145 151 150
f 145 146 152 151
f 146 141 147 152
o Crown
v -0.662 5.1 0.92
v -0.977 5.1 0.654
v -0.892 5.1 0.264
v -0.494 5.1 0.138
v -0.179 5.1 0.404
v -0.264 5.1 0.794
v -0.719 6.044 1.179
v -1.242 6.044 0.739
v -1.102 6.044 0.088
v -0.437 6.044 -0.122
v 0.087 6.044 0.319
v -0.053 6.044 0.969
usemtl Paint
s off
f 158 157 156 155 154 153
f 159 160 161 162 163 164
f 153 154 160 159
f 154 155 161 160
f 155 156 162 161
f 156 157 163 162
f 157 158 164 163
f 158 153 159 164
o Crown
v -0.883 6.044 1.126
v -1.275 6.044 0.577
v -0.969 6.044 -0.022
v -0.271 6.044 -0.068
v 0.122 6.044 0.481
v -0.184 6.044 1.08
v -0.669 6.989 0.708
v -0.787 6.989 0.544
v -0.695 6.989 0.363
v -0.486 6.989 0.35
v -0.369 6.989 0.514
v -0.461 6.989 0.695
usemtl Paint
s off
f 170 169 168 167 166 165
f 171 172 173 174 175 176
f 165 166 172 171
f 166 167 173 172
f 167 168 174 173
f 168 169 175 174
f 169 170 176 175
f 170 165 171 176
o Crown
v 0.193 6.7 -0.527
v -0.214 6.7 -0.614
v -0.332 6.7 -0.96
v -0.041 6.7 -1.22
v 0.369 6.7 -1.133
v 0.485 6.7 -0.787
v 0.271 7.644 -0.297
v -0.409 7.644 -0.442
v -0.603 7.644 -1.017
v -0.118 7.644 -1.45
v 0.562 7.644 -1.307
v 0.757 7.644 -0.73
usemtl Paint
s off
f 182 181 180 179 178 177
f 183 184 185 186 187 188
f 177 178 184 183
f 178 179 185 184
f 179 180 186 185
f 180 181 187 186
f 181 182 188 187
f 182 177 183 188
o Crown
v 0.098 7.644 -0.275
v -0.518 7.644 -0.558
v -0.54 7.644 -1.157
v 0.055 7.644 -1.474
v 0.673 7.644 -1.19
v 0.693 7.644 -0.59
v 0.083 8.589 -0.695
v -0.101 8.589 -0.779
v -0.109 8.589 -0.958
v 0.07 8.589 -1.054
v 0.256 8.589 -0.969
v 0.262 8.589 -0.789
usemtl Paint
s off
f 194 193 192 191 190 189
f 195 196 197 198 199 200
f 189 190 196 195
f 190 191 197 196
f 191 192 198 197
f 192 193 199 198
f 193 194 200 199
f 194 189 195 200
o Crown
v 1.006 8.3 0.837
v 0.746 8.3 1.194
v 0.33 8.3 1.128
v 0.175 8.3 0.706
v 0.435 8.3 0.348
v 0.851 8.3 0.415
v 1.284 9.244 0.881
v 0.85 9.244 1.474
v 0.157 9.244 1.365
v -0.101 9.244 0.662
v 0.332 9.244 0.066
v 1.025 9.244 0.177
usemtl LeafDark
s off
f 206 205 204 203 202 201
f 207 208 209 210 211 212
f 201 202 208 207
f 202 203 209 208
f 203 204 210 209
f 204 205 211 210
f 205 206 212 211
f 206 201 207 212
o Crown
v 1.236 9.244 1.063
v 0.68 9.244 1.522
v 0.035 9.244 1.231
v -0.055 9.244 0.479
v 0.501 9.244 0.018
v 1.148 9.244 0.311
v 0.785 10.189 0.859
v 0.617 10.189 0.997
v 0.424 10.189 0.908
v 0.396 10.189 0.684
v 0.564 10.189 0.545
v 0.757 10.189 0.632
usemtl LeafDark
s off
f 218 217 216 215 214 213
f 219 220 221 222 223 224
f 213 214 220 219
f 214 215 221 220
f 215 216 222 221
f 216 217 223 222
f 217 218 224 223
f 218 213 219 224
o Crown
v -0.636 9.9 0.149
v -1.056 9.9 0.168
v -1.283 9.9 -0.136
v -1.091 9.9 -0.455
v -0.671 9.9 -0.474
v -0.444 9.9 -0.17
v -0.485 10.844 0.352
v -1.185 10.844 0.381
v -1.563 10.844 -0.123
v -1.242 10.844 -0.658
v -0.544 10.844 -0.687
v -0.164 10.844 -0.182
usemtl Paint
s off
f 230 229 228 227 226 225
f 231 232 233 234 235 236
f 225 226 232 231
f 226 227 233 232
f 227 228 234 233
f 228 229 235 234
f 229 230 236 235
f 230 225 231 236
o Crown
v -0.643 10.844 0.416
v -1.329 10.844 0.297
v -1.55 10.844 -0.273
v -1.085 10.844 -0.722
v -0.4 10.844 -0.603
v -0.177 10.844 -0.033
v -0.798 11.789 0.018
v -1.002 11.789 -0.018
v -1.069 11.789 -0.19
v -0.931 11.789 -0.324
v -0.724 11.789 -0.287
v -0.658 11.789 -0.116
usemtl Paint
s off
f 242 241 240 239 238 237
f 243 244 245 246 247 248
f 237 238 244 243
f 238 239 245 244
f 239 240 246 245
f 240 241 247 246
f 241 242 248 247
f 242 237 243 248
o Crown
v 0.663 11.5 0.017
v 0.299 11.5 -0.199
v 0.295 11.5 -0.636
v 0.658 11.5 -0.857
v 1.023 11.5 -0.641
v 1.026 11.5 -0.205
v 0.665 12.444 0.308
v 0.057 12.444 -0.053
v 0.052 12.444 -0.779
v 0.656 12.444 -1.148
v 1.266 12.444 -0.787
v 1.27 12.444 -0.061
usemtl Paint
s off
f 254 253 252 251 250 249
f 255 256 257 258 259 260
f 249 250 256 255
f 250 251 257 256
f 251 252 258 257
f 252 253 259 258
f 253 254 260 259
f 254 249 255 260
o Crown
v 0.492 12.444 0.286
v -0.013 12.444 -0.219
v 0.157 12.444 -0.925
v 0.829 12.444 -1.126
v 1.334 12.444 -0.621
v 1.165 12.444 0.085
v 0.61 13.389 -0.208
v 0.459 13.389 -0.359
v 0.51 13.389 -0.571
v 0.711 13.389 -0.632
v 0.862 13.389 -0.481
v 0.813 13.389 -0.269
usemtl Paint
s off
f 266 265 264 263 262 261
f 267 268 269 270 271 272
f 261 262 268 267
f 262 263 269 268
f 263 264 270 269
f 264 265 271 270
f 265 266 272 271
f 266 261 267 272
o Crown
v -0.505 13.1 0.945
v -0.571 13.1 0.507
v -0.245 13.1 0.227
v 0.147 13.1 0.385
v 0.214 13.1 0.824
v -0.112 13.1 1.104
v -0.722 14.044 1.133
v -0.833 14.044 0.402
v -0.291 14.044 -0.064
v 0.365 14.044 0.199
v 0.475 14.044 0.929
v -0.068 14.044 1.397
usemtl LeafDark
s off
f 278 277 276 275 274 273
f 279 280 281 282 283 284
f 273 274 280 279
f 274 275 281 280
f 275 276 282 281
f 276 277 283 282
f 277 278 284 283
f 278 273 279 284
o Crown
v -0.814 14.044 0.977
v -0.752 14.044 0.24
v -0.116 14.044 -0.072
v 0.457 14.044 0.356
v 0.393 14.044 1.091
v -0.241 14.044 1.402
v -0.37 14.989 0.759
v -0.35 14.989 0.538
v -0.16 14.989 0.444
v 0.011 14.989 0.573
v -0.007 14.989 0.794
v -0.197 14.989 0.886
usemtl LeafDark
s off
f 290 289 288 287 286 285
f 291 292 293 294 295 296
f 285 286 292 291
f 286 287 293 292
f 287 288 294 293
f 288 289 295 294
f 289 290 296 295
f 290 285 291 296
o Crown
v -0.625 14.7 -0.311
v -0.65 14.7 -0.702
v -0.3 14.7 -0.918
v 0.076 14.7 -0.744
v 0.101 14.7 -0.356
v -0.247 14.7 -0.138
v -0.857 15.644 -0.168
v -0.901 15.644 -0.816
v -0.319 15.644 -1.178
v 0.31 15.644 -0.888
v 0.354 15.644 -0.24
v -0.23 15.644 0.122
usemtl Paint
s off
f 302 301 300 299 298 297
f 303 304 305 306 307 308
f 297 298 304 303
f 298 299 305 304
f 299 300 306 305
f 300 301 307 306
f 301 302 308 307
f 302 297 303 308
o Crown
v -0.934 15.644 -0.313
v -0.805 15.644 -0.953
v -0.144 15.644 -1.168
v 0.387 15.644 -0.743
v 0.256 15.644 -0.105
v -0.404 15.644 0.111
v -0.472 16.589 -0.464
v -0.433 16.589 -0.656
v -0.236 16.589 -0.721
v -0.076 16.589 -0.593
v -0.114 16.589 -0.402
v -0.313 16.589 -0.337
usemtl Paint
s off
f 314 313 312 311 310 309
f 315 316 317 318 319 320
f 309 310 316 315
f 310 311 317 316
f 311 312 318 317
f 312 313 319 318
f 313 314 320 319
f 314 309 315 320
o Crown
v 0.359 16.3 0.636
v 0.064 16.3 0.295
v 0.175 16.3 -0.17
v 0.58 16.3 -0.291
v 0.877 16.3 0.05
v 0.767 16.3 0.514
v 0.286 17.244 0.945
v -0.206 17.244 0.376
v -0.022 17.244 -0.396
v 0.654 17.244 -0.601
v 1.148 17.244 -0.031
v 0.964 17.244 0.741
usemtl Paint
s off
f 326 325 324 323 322 321
f 327 328 329 330 331 332
f 321 322 328 327
f 322 323 329 328
f 323 324 330 329
f 324 325 331 330
f 325 326 332 331
f 326 321 327 332
o Crown
v 0.125 17.244 0.868
v -0.23 17.244 0.179
v 0.116 17.244 -0.518
v 0.816 17.244 -0.523
v 1.17 17.244 0.166
v 0.826 17.244 0.862
v 0.367 18.189 0.381
v 0.26 18.189 0.173
v 0.365 18.189 -0.035
v 0.575 18.189 -0.037
v 0.68 18.189 0.17
v 0.577 18.189 0.38
usemtl Paint
s off
f 338 337 336 335 334 333
f 339 340 341 342 343 344
f 333 334 340 339
f 334 335 341 340
f 335 336 342 341
f 336 337 343 342
f 337 338 344 343
f 338 333 339 344
o Tuft
v -0.37 15.656 -1.084
v -0.542 15.656 -1.023
v -0.586 15.502 -1.144
v -0.415 15.502 -1.207
v -0.579 16.009 -1.432
v -0.601 16.009 -1.424
v -0.606 15.989 -1.439
v -0.584 15.989 -1.448
usemtl Paint
s off
f 348 347 346 345
f 349 350 351 352
f 345 346 350 349
f 346 347 351 350
f 347 348 352 351
f 348 345 349 352
o Tuft
v -0.514 7.711 -1.047
v -0.533 7.711 -0.864
v -0.647 7.54 -0.875
v -0.628 7.54 -1.058
v -0.908 7.969 -1.004
v -0.912 7.969 -0.98
v -0.927 7.947 -0.982
v -0.925 7.947 -1.006
usemtl LeafLight
s off
f 356 355 354 353
f 357 358 359 360
f 353 354 358 357
f 354 355 359 358
f 355 356 360 359
f 356 353 357 360
o Tuft
v -0.433 7.573 -1.128
v -0.514 7.573 -0.966
v -0.636 7.429 -1.026
v -0.555 7.429 -1.189
v -0.756 7.869 -1.2
v -0.767 7.869 -1.179
v -0.783 7.851 -1.187
v -0.772 7.851 -1.209
usemtl LeafDark
s off
f 364 363 362 361
f 365 366 367 368
f 361 362 366 365
f 362 363 367 366
f 363 364 368 367
f 364 361 365 368
o Tuft
v 0.652 7.687 -0.988
v 0.579 7.687 -1.155
v 0.719 7.567 -1.218
v 0.792 7.567 -1.05
v 0.897 8.076 -1.185
v 0.888 8.076 -1.207
v 0.907 8.06 -1.214
v 0.918 8.06 -1.192
usemtl Paint
s off
f 372 371 370 369
f 373 374 375 376
f 369 370 374 373
f 370 371 375 374
f 371 372 376 375
f 372 369 373 376
o Tuft
v -0.409 8.018 -1.084
v -0.477 8.018 -0.916
v -0.621 7.898 -0.973
v -0.553 7.898 -1.143
v -0.669 8.309 -1.104
v -0.678 8.309 -1.082
v -0.698 8.293 -1.089
v -0.689 8.293 -1.111
usemtl LeafLight
s off
f 380 379 378 377
f 381 382 383 384
f 377 378 382 381
f 378 379 383 382
f 379 380 384 383
f 380 377 381 384
o Tuft
v -0.028 16.316 -0.247
v -0.028 16.253 -0.072
v -0.21 16.273 -0.066
v -0.21 16.333 -0.241
v -0.064 16.856 -0.035
v -0.064 16.847 -0.013
v -0.088 16.849 -0.011
v -0.088 16.858 -0.035
usemtl LeafDark
s off
f 388 387 386 385
f 389 390 391 392
f 385 386 390 389
f 386 387 391 390
f 387 388 392 391
f 388 385 389 392
o Tuft
v -0.861 15.549 -0.604
v -0.855 15.549 -0.422
v -0.991 15.402 -0.416
v -0.997 15.402 -0.599
v -1.137 15.78 -0.516
v -1.135 15.78 -0.49
v -1.154 15.76 -0.49
v -1.155 15.76 -0.514
usemtl Paint
s off
f 396 395 394 393
f 397 398 399 400
f 393 394 398 397
f 394 395 399 398
f 395 396 400 399
f 396 393 397 400
o Tuft
v -1.31 10.867 0.193
v -1.161 10.867 0.299
v -1.233 10.702 0.4
v -1.382 10.702 0.293
v -1.452 11.129 0.529
v -1.432 11.129 0.544
v -1.443 11.107 0.557
v -1.461 11.107 0.542
usemtl LeafLight
s off
f 404 403 402 401
f 405 406 407 408
f 401 402 406 405
f 402 403 407 406
f 403 404 408 407
f 404 401 405 408
o Tuft
v 0.022 15.884 -0.995
v -0.151 15.884 -1.05
v -0.107 15.756 -1.192
v 0.068 15.756 -1.135
v 0.053 16.298 -1.345
v 0.029 16.298 -1.354
v 0.035 16.28 -1.373
v 0.059 16.28 -1.365
usemtl LeafDark
s off
f 412 411 410 409
f 413 414 415 416
f 409 410 414 413
f 410 411 415 414
f 411 412 416 415
f 412 409 413 416
o Tuft
v 1.251 4.996 -0.136
v 1.251 5.004 0.046
v 1.078 5.078 0.044
v 1.078 5.069 -0.138
v 1.314 5.511 -0.074
v 1.314 5.511 -0.05
v 1.292 5.522 -0.05
v 1.292 5.52 -0.074
usemtl Paint
s off
f 420 419 418 417
f 421 422 423 424
f 417 418 422 421
f 418 419 423 422
f 419 420 424 423
f 420 417 421 424
o Tuft
v 0.499 8.353 -1.03
v 0.499 8.364 -0.848
v 0.319 8.396 -0.85
v 0.319 8.384 -1.032
v 0.494 8.976 -0.975
v 0.494 8.976 -0.951
v 0.47 8.98 -0.951
v 0.47 8.98 -0.975
usemtl LeafLight
s off
f 428 427 426 425
f 429 430 431 432
f 425 426 430 429
f 426 427 431 430
f 427 428 432 431
f 428 425 429 432
o Tuft
v 0.584 9.924 0.289
v 0.584 9.98 0.466
v 0.402 9.969 0.468
v 0.402 9.913 0.291
v 0.483 10.469 0.252
v 0.483 10.476 0.276
v 0.459 10.476 0.276
v 0.459 10.467 0.252
usemtl LeafDark
s off
f 436 435 434 433
f 437 438 439 440
f 433 434 438 437
f 434 435 439 438
f 435 436 440 439
f 436 433 437 440
o Tuft
v 0.625 7.804 -0.649
v 0.66 7.804 -0.829
v 0.803 7.676 -0.802
v 0.77 7.676 -0.623
v 0.958 8.18 -0.669
v 0.962 8.18 -0.693
v 0.982 8.164 -0.689
v 0.977 8.164 -0.665
usemtl Paint
s off
f 444 443 442 441
f 445 446 447 448
f 441 442 446 445
f 442 443 447 446
f 443 444 448 447
f 444 441 445 448
o Tuft
v -0.083 17.66 0.153
v -0.061 17.66 0.334
v -0.188 17.504 0.35
v -0.212 17.504 0.17
v -0.372 17.889 0.269
v -0.369 17.889 0.293
v -0.385 17.867 0.295
v -0.389 17.867 0.271
usemtl LeafLight
s off
f 452 451 450 449
f 453 454 455 456
f 449 450 454 453
f 450 451 455 454
f 451 452 456 455
f 452 449 453 456
o Tuft
v -0.214 16.444 -0.385
v -0.214 16.42 -0.205
v -0.396 16.416 -0.205
v -0.396 16.44 -0.387
v -0.302 17.009 -0.254
v -0.302 17.004 -0.23
v -0.326 17.004 -0.23
v -0.326 17.009 -0.254
usemtl LeafDark
s off
f 460 459 458 457
f 461 462 463 464
f 457 458 462 461
f 458 459 463 462
f 459 460 464 463
f 460 457 461 464
o Tuft
v 0.26 17.787 -0.295
v 0.1 17.787 -0.205
v 0.02 17.687 -0.346
v 0.181 17.687 -0.435
v 0.066 18.169 -0.475
v 0.046 18.169 -0.463
v 0.035 18.156 -0.481
v 0.057 18.156 -0.494
usemtl Paint
s off
f 468 467 466 465
f 469 470 471 472
f 465 466 470 469
f 466 467 471 470
f 467 468 472 471
f 468 465 469 472
o Tuft
v -0.826 11.056 0.335
v -0.645 11.056 0.306
v -0.621 10.933 0.455
v -0.8 10.933 0.485
v -0.693 11.469 0.647
v -0.669 11.469 0.641
v -0.665 11.453 0.662
v -0.689 11.453 0.665
usemtl LeafLight
s off
f 476 475 474 473
f 477 478 479 480
f 473 474 478 477
f 474 475 479 478
f 475 476 480 479
f 476 473 477 480
o Tuft
v -0.77 14.22 0.774
v -0.722 14.22 0.951
v -0.846 14.064 0.984
v -0.894 14.064 0.809
v -1.093 14.516 0.943
v -1.087 14.516 0.967
v -1.104 14.496 0.973
v -1.109 14.496 0.949
usemtl LeafDark
s off
f 484 483 482 481
f 485 486 487 488
f 481 482 486 485
f 482 483 487 486
f 483 484 488 487
f 484 481 485 488
o Tuft
v -0.45 6.231 1.065
v -0.45 6.147 1.233
v -0.632 6.151 1.235
v -0.632 6.236 1.067
v -0.518 6.684 1.308
v -0.518 6.673 1.33
v -0.542 6.673 1.33
v -0.542 6.687 1.308
usemtl Paint
s off
f 492 491 490 489
f 493 494 495 496
f 489 490 494 493
f 490 491 495 494
f 491 492 496 495
f 492 489 493 496
o Tuft
v -0.035 14.6 1.128
v -0.035 14.531 1.303
v -0.217 14.538 1.303
v -0.217 14.604 1.13
v -0.101 15.136 1.356
v -0.101 15.127 1.38
v -0.125 15.127 1.38
v -0.125 15.136 1.356
usemtl LeafLight
s off
f 500 499 498 497
f 501 502 503 504
f 497 498 502 501
f 498 499 503 502
f 499 500 504 503
f 500 497 501 504
o Tuft
v -0.098 8.447 -0.973
v -0.098 8.447 -0.791
v -0.276 8.404 -0.791
v -0.276 8.402 -0.973
v -0.234 8.773 -0.896
v -0.234 8.776 -0.872
v -0.258 8.769 -0.872
v -0.258 8.769 -0.896
usemtl LeafDark
s off
f 508 507 506 505
f 509 510 511 512
f 505 506 510 509
f 506 507 511 510
f 507 508 512 511
f 508 505 509 512
o Tuft
v -0.507 6.796 0.785
v -0.507 6.724 0.958
v -0.689 6.72 0.958
v -0.689 6.793 0.785
v -0.59 7.222 0.991
v -0.59 7.211 1.014
v -0.614 7.211 1.014
v -0.614 7.22 0.991
usemtl Paint
s off
f 516 515 514 513
f 517 518 519 520
f 513 514 518 517
f 514 515 519 518
f 515 516 520 519
f 516 513 517 520
o Tuft
v -0.684 6.851 0.334
v -0.684 6.862 0.516
v -0.866 6.838 0.518
v -0.866 6.827 0.335
v -0.814 7.407 0.389
v -0.814 7.407 0.413
v -0.838 7.404 0.413
v -0.838 7.402 0.389
usemtl LeafLight
s off
f 524 523 522 521
f 525 526 527 528
f 521 522 526 525
f 522 523 527 526
f 523 524 528 527
f 524 521 525 528
o Tuft
v -0.943 11.418 -0.521
v -1.117 11.418 -0.463
v -1.17 11.32 -0.617
v -0.997 11.32 -0.676
v -1.095 11.767 -0.719
v -1.117 11.767 -0.709
v -1.124 11.753 -0.73
v -1.102 11.753 -0.739
usemtl LeafDark
s off
f 532 531 530 529
f 533 534 535 536
f 529 530 534 533
f 530 531 535 534
f 531 532 536 535
f 532 529 533 536
o Tuft
v -0.335 10.782 -0.378
v -0.44 10.782 -0.525
v -0.339 10.622 -0.599
v -0.234 10.622 -0.45
v -0.092 11.053 -0.649
v -0.107 11.053 -0.669
v -0.092 11.033 -0.678
v -0.079 11.033 -0.66
usemtl Paint
s off
f 540 539 538 537
f 541 542 543 544
f 537 538 542 541
f 538 539 543 542
f 539 540 544 543
f 540 537 541 544
o Tuft
v 0.088 12.711 -0.258
v 0.166 12.711 -0.094
v 0.046 12.56 -0.039
v -0.029 12.56 -0.203
v -0.182 12.993 -0.046
v -0.171 12.993 -0.024
v -0.188 12.973 -0.017
v -0.197 12.973 -0.039
usemtl LeafLight
s off
f 548 547 546 545
f 549 550 551 552
f 545 546 550 549
f 546 547 551 550
f 547 548 552 551
f 548 545 549 552
o Tuft
v -1.098 6.038 0.853
v -0.955 6.038 0.964
v -1.026 5.871 1.058
v -1.172 5.871 0.947
v -1.251 6.28 1.181
v -1.233 6.28 1.196
v -1.242 6.258 1.209
v -1.26 6.258 1.194
usemtl LeafDark
s off
f 556 555 554 553
f 557 558 559 560
f 553 554 558 557
f 554 555 559 558
f 555 556 560 559
f 556 553 557 560
o Tuft
v 0.496 5.213 0.166
v 0.496 5.173 0.346
v 0.322 5.107 0.335
v 0.322 5.147 0.157
v 0.319 5.542 0.297
v 0.319 5.536 0.321
v 0.295 5.527 0.319
v 0.295 5.533 0.295
usemtl Paint
s off
f 564 563 562 561
f 565 566 567 568
f 561 562 566 565
f 562 563 567 566
f 563 564 568 567
f 564 561 565 568
o Tuft
v 0.072 12.56 -0.311
v 0.136 12.56 -0.142
v -0.007 12.442 -0.087
v -0.072 12.442 -0.258
v -0.192 12.98 -0.127
v -0.184 12.98 -0.105
v -0.203 12.964 -0.098
v -0.212 12.964 -0.12
usemtl LeafLight
s off
f 572 571 570 569
f 573 574 575 576
f 569 570 574 573
f 570 571 575 574
f 571 572 576 575
f 572 569 573 576
o Tuft
v 0.619 7.798 -1.069
v 0.52 7.798 -1.22
v 0.641 7.664 -1.301
v 0.741 7.664 -1.148
v 0.835 8.127 -1.303
v 0.82 8.127 -1.323
v 0.837 8.111 -1.332
v 0.85 8.111 -1.312
usemtl LeafDark
s off
f 580 579 578 577
f 581 582 583 584
f 577 578 582 581
f 578 579 583 582
f 579 580 584 583
f 580 577 581 584
o Tuft
v -0.341 16.464 -0.459
v -0.341 16.442 -0.276
v -0.521 16.416 -0.278
v -0.521 16.44 -0.461
v -0.468 16.938 -0.339
v -0.468 16.936 -0.315
v -0.492 16.931 -0.315
v -0.492 16.936 -0.339
usemtl Paint
s off
f 588 587 586 585
f 589 590 591 592
f 585 586 590 589
f 586 587 591 590
f 587 588 592 591
f 588 585 589 592
o Tuft
v -0.466 16.344 -0.321
v -0.466 16.3 -0.142
v -0.645 16.258 -0.149
v -0.645 16.302 -0.328
v -0.604 16.676 -0.182
v -0.604 16.669 -0.158
v -0.628 16.664 -0.16
v -0.628 16.671 -0.184
usemtl LeafLight
s off
f 596 595 594 593
f 597 598 599 600
f 593 594 598 597
f 594 595 599 598
f 595 596 600 599
f 596 593 597 600
o Tuft
v -0.967 6.118 0.12
v -1.111 6.118 0.23
v -1.2 5.984 0.116
v -1.054 5.984 0.006
v -1.222 6.456 -0.083
v -1.24 6.456 -0.068
v -1.253 6.438 -0.083
v -1.233 6.438 -0.098
usemtl LeafDark
s off
f 604 603 602 601
f 605 606 607 608
f 601 602 606 605
f 602 603 607 606
f 603 604 608 607
f 604 601 605 608
o Tuft
v 0.142 16.1 -0.794
v 0.048 16.1 -0.949
v 0.168 15.96 -1.023
v 0.262 15.96 -0.866
v 0.332 16.344 -1.001
v 0.319 16.344 -1.023
v 0.335 16.324 -1.032
v 0.348 16.324 -1.012
usemtl Paint
s off
f 612 611 610 609
f 613 614 615 616
f 609 610 614 613
f 610 611 615 614
f 611 612 616 615
f 612 609 613 616
o Tuft
v 0.955 9.64 1.207
v 1.056 9.64 1.054
v 1.189 9.533 1.143
v 1.087 9.533 1.294
v 1.253 10.1 1.308
v 1.266 10.1 1.288
v 1.284 10.084 1.301
v 1.27 10.084 1.321
usemtl LeafLight
s off
f 620 619 618 617
f 621 622 623 624
f 617 618 622 621
f 618 619 623 622
f 619 620 624 623
f 620 617 621 624
o Tuft
v 0.037 17.389 -0.302
v -0.063 17.389 -0.149
v -0.179 17.247 -0.225
v -0.079 17.247 -0.378
v -0.251 17.656 -0.396
v -0.265 17.656 -0.376
v -0.28 17.638 -0.387
v -0.267 17.638 -0.407
usemtl LeafDark
s off
f 628 627 626 625
f 629 630 631 632
f 625 626 630 629
f 626 627 631 630
f 627 628 632 631
f 628 625 629 632
o Tuft
v 0.603 12.929 0.066
v 0.603 12.86 0.24
v 0.42 12.84 0.234
v 0.42 12.911 0.061
v 0.481 13.44 0.291
v 0.481 13.431 0.313
v 0.455 13.429 0.313
v 0.455 13.438 0.291
usemtl Paint
s off
f 636 635 634 633
f 637 638 639 640
f 633 634 638 637
f 634 635 639 638
f 635 636 640 639
f 636 633 637 640
o Tuft
v -0.311 14.593 1.113
v -0.311 14.513 1.283
v -0.49 14.473 1.27
v -0.49 14.551 1.098
v -0.479 15.027 1.336
v -0.479 15.016 1.36
v -0.503 15.009 1.358
v -0.503 15.02 1.334
usemtl LeafLight
s off
f 644 643 642 641
f 645 646 647 648
f 641 642 646 645
f 642 643 647 646
f 643 644 648 647
f 644 641 645 648
o Tuft
v -0.721 5.956 1.076
v -0.538 5.956 1.087
v -0.545 5.8 1.214
v -0.728 5.8 1.205
v -0.663 6.291 1.476
v -0.639 6.291 1.478
v -0.641 6.269 1.494
v -0.665 6.269 1.493
usemtl LeafDark
s off
f 652 651 650 649
f 653 654 655 656
f 649 650 654 653
f 650 651 655 654
f 651 652 656 655
f 652 649 653 656
o Tuft
v -0.494 14.676 0.356
v -0.494 14.702 0.538
v -0.673 14.658 0.542
v -0.673 14.631 0.361
v -0.673 15.242 0.381
v -0.673 15.247 0.405
v -0.697 15.24 0.405
v -0.697 15.236 0.381
usemtl Paint
s off
f 660 659 658 657
f 661 662 663 664
f 657 658 662 661
f 658 659 663 662
f 659 660 664 663
f 660 657 661 664
o Grass
v -0.291 -0.002 -0.68
v -0.332 -0.011 -0.612
v -0.37 0.013 -0.678
v -0.267 0.453 -0.579
v -0.271 0.453 -0.571
v -0.276 0.456 -0.577
usemtl Grass
s off
f 667 666 665
f 668 669 670
f 665 666 669 668
f 666 667 670 669
f 667 665 668 670
o Grass
v -0.291 0.007 -0.68
v -0.332 -0.002 -0.61
v -0.37 -0.004 -0.68
v -0.381 0.522 -0.638
v -0.385 0.52 -0.63
v -0.389 0.52 -0.638
usemtl Grass
s off
f 673 672 671
f 674 675 676
f 671 672 675 674
f 672 673 676 675
f 673 671 674 676
o Grass
v -0.291 0 -0.68
v -0.332 -0.011 -0.612
v -0.37 0.011 -0.678
v -0.256 0.64 -0.553
v -0.26 0.638 -0.545
v -0.264 0.64 -0.551
usemtl Grass
s off
f 679 678 677
f 680 681 682
f 677 678 681 680
f 678 679 682 681
f 679 677 680 682
o Grass
v -0.466 -0.007 -0.409
v -0.507 -0.004 -0.339
v -0.545 0.011 -0.407
v -0.415 0.582 -0.348
v -0.42 0.582 -0.341
v -0.424 0.584 -0.348
usemtl Grass
s off
f 685 684 683
f 686 687 688
f 683 684 687 686
f 684 685 688 687
f 685 683 686 688
o Grass
v -0.466 -0.004 -0.409
v -0.507 -0.007 -0.339
v -0.545 0.011 -0.407
v -0.426 0.502 -0.332
v -0.429 0.502 -0.326
v -0.433 0.504 -0.332
usemtl Grass
s off
f 691 690 689
f 692 693 694
f 689 690 693 692
f 690 691 694 693
f 691 689 692 694
o Grass
v -0.466 0.002 -0.407
v -0.507 -0.007 -0.339
v -0.545 0.004 -0.407
v -0.494 0.627 -0.33
v -0.498 0.627 -0.322
v -0.503 0.627 -0.33
usemtl Grass
s off
f 697 696 695
f 698 699 700
f 695 696 699 698
f 696 697 700 699
f 697 695 698 700
o Litter
v -1.557 0 0.475
v -1.502 0 0.352
v -1.329 0 0.354
v -1.277 0 0.477
v -1.417 0 0.553
v -1.557 0.044 0.475
v -1.502 0.044 0.352
v -1.329 0.044 0.354
v -1.277 0.044 0.477
v -1.417 0.044 0.553
usemtl LeafDry
s off
f 705 704 703 702 701
f 706 707 708 709 710
f 701 702 707 706
f 702 703 708 707
f 703 704 709 708
f 704 705 710 709
f 705 701 706 710
o Grass
v 1.152 -0.009 -0.179
v 1.111 0.004 -0.111
v 1.072 0.004 -0.181
v 1.178 0.52 -0.184
v 1.172 0.52 -0.179
v 1.168 0.52 -0.184
usemtl Grass
s off
f 713 712 711
f 714 715 716
f 711 712 715 714
f 712 713 716 715
f 713 711 714 716
o Grass
v 1.152 0.002 -0.181
v 1.111 0.004 -0.111
v 1.072 -0.007 -0.179
v 1.084 0.507 -0.195
v 1.078 0.507 -0.188
v 1.074 0.507 -0.195
usemtl Grass
s off
f 719 718 717
f 720 721 722
f 717 718 721 720
f 718 719 722 721
f 719 717 720 722
o Grass
v 1.152 -0.002 -0.181
v 1.111 0 -0.111
v 1.072 0.002 -0.181
v 1.135 0.516 -0.155
v 1.131 0.516 -0.147
v 1.128 0.516 -0.155
usemtl Grass
s off
f 725 724 723
f 726 727 728
f 723 724 727 726
f 724 725 728 727
f 725 723 726 728
o Grass
v 0.862 -0.009 0.031
v 0.822 0.007 0.1
v 0.783 0.002 0.029
v 0.877 0.484 0
v 0.873 0.487 0.007
v 0.87 0.487 0
usemtl Grass
s off
f 731 730 729
f 732 733 734
f 729 730 733 732
f 730 731 734 733
f 731 729 732 734
o Grass
v 0.862 -0.007 0.029
v 0.822 0.002 0.1
v 0.783 0.007 0.029
v 0.905 0.62 0.041
v 0.901 0.62 0.048
v 0.896 0.622 0.041
usemtl Grass
s off
f 737 736 735
f 738 739 740
f 735 736 739 738
f 736 737 740 739
f 737 735 738 740
o Grass
v 0.862 -0.004 0.029
v 0.822 0 0.1
v 0.783 0.004 0.029
v 0.862 0.531 0.044
v 0.859 0.531 0.05
v 0.855 0.531 0.044
usemtl Grass
s off
f 743 742 741
f 744 745 746
f 741 742 745 744
f 742 743 746 745
f 743 741 744 746
o Litter
v 0.557 0 1.036
v 0.385 0 1.017
v 0.356 0 0.888
v 0.51 0 0.829
v 0.634 0 0.92
v 0.557 0.044 1.036
v 0.385 0.044 1.017
v 0.356 0.044 0.888
v 0.51 0.044 0.829
v 0.634 0.044 0.92
usemtl LeafDry
s off
f 751 750 749 748 747
f 752 753 754 755 756
f 747 748 753 752
f 748 749 754 753
f 749 750 755 754
f 750 751 756 755
f 751 747 752 756
o Grass
v -0.09 0.004 0.859
v -0.129 -0.009 0.927
v -0.17 0.004 0.859
v -0.127 0.649 0.975
v -0.131 0.649 0.98
v -0.135 0.649 0.975
usemtl Grass
s off
f 759 758 757
f 760 761 762
f 757 758 761 760
f 758 759 762 761
f 759 757 760 762
o Grass
v -0.09 0.004 0.859
v -0.129 -0.002 0.927
v -0.17 -0.002 0.859
v -0.16 0.689 0.897
v -0.164 0.689 0.905
v -0.168 0.689 0.897
usemtl Grass
s off
f 765 764 763
f 766 767 768
f 763 764 767 766
f 764 765 768 767
f 765 763 766 768
o Grass
v -0.09 -0.002 0.859
v -0.129 0.007 0.927
v -0.17 -0.004 0.859
v -0.133 0.604 0.813
v -0.136 0.607 0.82
v -0.142 0.604 0.813
usemtl Grass
s off
f 771 770 769
f 772 773 774
f 769 770 773 772
f 770 771 774 773
f 771 769 772 774
o Grass
v -0.652 -0.002 0.394
v -0.693 0.007 0.464
v -0.732 -0.004 0.394
v -0.7 0.611 0.35
v -0.706 0.613 0.357
v -0.709 0.611 0.35
usemtl Grass
s off
f 777 776 775
f 778 779 780
f 775 776 779 778
f 776 777 780 779
f 777 775 778 780
o Grass
v -0.652 -0.007 0.394
v -0.693 0.002 0.464
v -0.732 0.004 0.394
v -0.639 0.547 0.405
v -0.643 0.549 0.413
v -0.649 0.549 0.405
usemtl Grass
s off
f 783 782 781
f 784 785 786
f 781 782 785 784
f 782 783 786 785
f 783 781 784 786
o Grass
v -0.652 0.016 0.396
v -0.693 -0.009 0.463
v -0.732 -0.007 0.394
v -0.785 0.507 0.488
v -0.789 0.504 0.496
v -0.792 0.504 0.488
usemtl Grass
s off
f 789 788 787
f 790 791 792
f 787 788 791 790
f 788 789 792 791
f 789 787 790 792
