# tree_birch_2.obj - Hängebirke (Holz) fuer procedurally-generated-map
# Einheiten: Meter, Y oben, Vorderseite nach +Z - so wie Blender ein Modell
# exportiert, das in der Vorderansicht zum Betrachter schaut.
# Material Paint (das Laub) bekommt eine je Baum leicht andere Farbe.
mtllib tree_birch_2.mtl
o Trunk.Stump
v 0.26 0 0.15
v 0 0 0.301
v -0.26 0 0.15
v -0.26 0 -0.15
v 0 0 -0.301
v 0.26 0 -0.15
v 0.267 0.499 0.152
v 0.012 0.499 0.299
v -0.242 0.499 0.152
v -0.242 0.499 -0.143
v 0.012 0.499 -0.29
v 0.267 0.499 -0.143
usemtl Birch
s off
f 6 5 4 3 2 1
f 7 8 9 10 11 12
f 1 2 8 7
f 2 3 9 8
f 3 4 10 9
f 4 5 11 10
f 5 6 12 11
f 6 1 7 12
o Trunk
v 0.267 0.499 0.152
v 0.012 0.499 0.299
v -0.242 0.499 0.152
v -0.242 0.499 -0.143
v 0.012 0.499 -0.29
v 0.267 0.499 -0.143
v 0.276 1.157 0.154
v 0.028 1.157 0.297
v -0.219 1.157 0.154
v -0.219 1.157 -0.133
v 0.028 1.157 -0.276
v 0.276 1.157 -0.133
usemtl Birch
s off
f 18 17 16 15 14 13
f 19 20 21 22 23 24
f 13 14 20 19
f 14 15 21 20
f 15 16 22 21
f 16 17 23 22
f 17 18 24 23
f 18 13 19 24
o Trunk
v 0.172 1.155 -0.237
v 0.315 1.146 0.011
v 0.172 1.148 0.258
v -0.115 1.159 0.258
v -0.258 1.168 0.011
v -0.115 1.165 -0.237
v 0.184 1.803 -0.225
v 0.324 1.794 0.016
v 0.184 1.796 0.258
v -0.094 1.807 0.258
v -0.234 1.816 0.018
v -0.094 1.814 -0.225
usemtl Birch
s off
f 30 29 28 27 26 25
f 31 32 33 34 35 36
f 25 26 32 31
f 26 27 33 32
f 27 28 34 33
f 28 29 35 34
f 29 30 36 35
f 30 25 31 36
o Trunk
v 0.184 1.803 -0.225
v 0.324 1.794 0.016
v 0.184 1.796 0.258
v -0.094 1.807 0.258
v -0.234 1.816 0.018
v -0.094 1.814 -0.225
v 0.196 2.451 -0.211
v 0.331 2.443 0.023
v 0.196 2.445 0.257
v -0.074 2.456 0.257
v -0.209 2.465 0.023
v -0.074 2.462 -0.211
usemtl Birch
s off
f 42 41 40 39 38 37
f 43 44 45 46 47 48
f 37 38 44 43
f 38 39 45 44
f 39 40 46 45
f 40 41 47 46
f 41 42 48 47
f 42 37 43 48
o Trunk
v 0.196 2.451 -0.211
v 0.331 2.443 0.023
v 0.196 2.445 0.257
v -0.074 2.456 0.257
v -0.209 2.465 0.023
v -0.074 2.462 -0.211
v 0.209 3.1 -0.198
v 0.34 3.093 0.028
v 0.209 3.093 0.257
v -0.053 3.104 0.257
v -0.186 3.113 0.028
v -0.053 3.111 -0.198
usemtl Birch
s off
f 54 53 52 51 50 49
f 55 56 57 58 59 60
f 49 50 56 55
f 50 51 57 56
f 51 52 58 57
f 52 53 59 58
f 53 54 60 59
f 54 49 55 60
o Trunk
v 0.209 3.1 -0.198
v 0.34 3.093 0.028
v 0.209 3.093 0.257
v -0.053 3.104 0.257
v -0.186 3.113 0.028
v -0.053 3.111 -0.198
v 0.219 3.748 -0.186
v 0.347 3.742 0.035
v 0.219 3.742 0.255
v -0.034 3.753 0.255
v -0.161 3.761 0.035
v -0.034 3.759 -0.186
usemtl Birch
s off
f 66 65 64 63 62 61
f 67 68 69 70 71 72
f 61 62 68 67
f 62 63 69 68
f 63 64 70 69
f 64 65 71 70
f 65 66 72 71
f 66 61 67 72
o Trunk
v 0.219 3.748 -0.186
v 0.347 3.742 0.035
v 0.219 3.742 0.255
v -0.034 3.753 0.255
v -0.161 3.761 0.035
v -0.034 3.759 -0.186
v 0.232 4.397 -0.172
v 0.356 4.39 0.041
v 0.232 4.392 0.255
v -0.014 4.401 0.255
v -0.136 4.408 0.041
v -0.014 4.408 -0.172
usemtl Birch
s off
f 78 77 76 75 74 73
f 79 80 81 82 83 84
f 73 74 80 79
f 74 75 81 80
f 75 76 82 81
f 76 77 83 82
f 77 78 84 83
f 78 73 79 84
o Trunk
v 0.232 4.397 -0.172
v 0.356 4.39 0.041
v 0.232 4.392 0.255
v -0.014 4.401 0.255
v -0.136 4.408 0.041
v -0.014 4.408 -0.172
v 0.244 5.045 -0.159
v 0.363 5.039 0.048
v 0.244 5.041 0.253
v 0.007 5.05 0.253
v -0.113 5.056 0.048
v 0.007 5.054 -0.159
usemtl Birch
s off
f 90 89 88 87 86 85
f 91 92 93 94 95 96
f 85 86 92 91
f 86 87 93 92
f 87 88 94 93
f 88 89 95 94
f 89 90 96 95
f 90 85 91 96
o Trunk
v 0.244 5.045 -0.159
v 0.363 5.039 0.048
v 0.244 5.041 0.253
v 0.007 5.05 0.253
v -0.113 5.056 0.048
v 0.007 5.054 -0.159
v 0.257 5.694 -0.147
v 0.372 5.687 0.053
v 0.257 5.689 0.253
v 0.027 5.698 0.253
v -0.088 5.705 0.053
v 0.027 5.702 -0.147
usemtl Birch
s off
f 102 101 100 99 98 97
f 103 104 105 106 107 108
f 97 98 104 103
f 98 99 105 104
f 99 100 106 105
f 100 101 107 106
f 101 102 108 107
f 102 97 103 108
o Trunk
v 0.257 5.691 -0.147
v 0.372 5.702 0.053
v 0.257 5.707 0.253
v 0.027 5.7 0.253
v -0.088 5.689 0.053
v 0.027 5.685 -0.147
v 0.241 6.325 -0.154
v 0.352 6.336 0.039
v 0.241 6.338 0.232
v 0.019 6.331 0.232
v -0.092 6.322 0.039
v 0.019 6.32 -0.152
usemtl Birch
s off
f 114 113 112 111 110 109
f 115 116 117 118 119 120
f 109 110 116 115
f 110 111 117 116
f 111 112 118 117
f 112 113 119 118
f 113 114 120 119
f 114 109 115 120
o Trunk
v 0.241 6.325 -0.154
v 0.352 6.336 0.039
v 0.241 6.338 0.232
v 0.019 6.331 0.232
v -0.092 6.322 0.039
v 0.019 6.32 -0.152
v 0.225 6.958 -0.159
v 0.333 6.969 0.025
v 0.225 6.971 0.211
v 0.011 6.964 0.211
v -0.096 6.956 0.027
v 0.011 6.953 -0.159
usemtl Birch
s off
f 126 125 124 123 122 121
f 127 128 129 130 131 132
f 121 122 128 127
f 122 123 129 128
f 123 124 130 129
f 124 125 131 130
f 125 126 132 131
f 126 121 127 132
o Trunk
v 0.225 6.958 -0.159
v 0.333 6.969 0.025
v 0.225 6.971 0.211
v 0.011 6.964 0.211
v -0.096 6.956 0.027
v 0.011 6.953 -0.159
v 0.209 7.591 -0.166
v 0.313 7.6 0.012
v 0.209 7.604 0.191
v 0.004 7.597 0.191
v -0.101 7.589 0.012
v 0.004 7.586 -0.166
usemtl Birch
s off
f 138 137 136 135 134 133
f 139 140 141 142 143 144
f 133 134 140 139
f 134 135 141 140
f 135 136 142 141
f 136 137 143 142
f 137 138 144 143
f 138 133 139 144
o Trunk
v 0.209 7.591 -0.166
v 0.313 7.6 0.012
v 0.209 7.604 0.191
v 0.004 7.597 0.191
v -0.101 7.589 0.012
v 0.004 7.586 -0.166
v 0.193 8.224 -0.173
v 0.294 8.233 -0.002
v 0.193 8.235 0.17
v -0.005 8.231 0.17
v -0.104 8.222 -0.002
v -0.005 8.22 -0.173
usemtl Birch
s off
f 150 149 148 147 146 145
f 151 152 153 154 155 156
f 145 146 152 151
f 146 147 153 152
f 147 148 154 153
f 148 149 155 154
f 149 150 156 155
f 150 145 151 156
o Trunk
v 0.193 8.224 -0.173
v 0.294 8.233 -0.002
v 0.193 8.235 0.17
v -0.005 8.231 0.17
v -0.104 8.222 -0.002
v -0.005 8.22 -0.173
v 0.179 8.857 -0.181
v 0.273 8.866 -0.016
v 0.179 8.868 0.149
v -0.012 8.864 0.149
v -0.108 8.855 -0.016
v -0.012 8.853 -0.181
usemtl Birch
s off
f 162 161 160 159 158 157
f 163 164 165 166 167 168
f 157 158 164 163
f 158 159 165 164
f 159 160 166 165
f 160 161 167 166
f 161 162 168 167
f 162 157 163 168
o Trunk
v 0.179 8.857 -0.181
v 0.273 8.866 -0.016
v 0.179 8.868 0.149
v -0.012 8.864 0.149
v -0.108 8.855 -0.016
v -0.012 8.853 -0.181
v 0.163 9.49 -0.188
v 0.253 9.499 -0.03
v 0.163 9.501 0.129
v -0.021 9.497 0.129
v -0.112 9.488 -0.03
v -0.021 9.486 -0.188
usemtl Birch
s off
f 174 173 172 171 170 169
f 175 176 177 178 179 180
f 169 170 176 175
f 170 171 177 176
f 171 172 178 177
f 172 173 179 178
f 173 174 180 179
f 174 169 175 180
o Trunk
v 0.163 9.49 -0.188
v 0.253 9.499 -0.03
v 0.163 9.501 0.129
v -0.021 9.497 0.129
v -0.112 9.488 -0.03
v -0.021 9.486 -0.188
v 0.147 10.123 -0.195
v 0.234 10.132 -0.044
v 0.147 10.134 0.108
v -0.028 10.128 0.108
v -0.117 10.121 -0.042
v -0.028 10.119 -0.195
usemtl Birch
s off
f 186 185 184 183 182 181
f 187 188 189 190 191 192
f 181 182 188 187
f 182 183 189 188
f 183 184 190 189
f 184 185 191 190
f 185 186 192 191
f 186 181 187 192
o Trunk
v 0.147 10.123 -0.195
v 0.234 10.132 -0.044
v 0.147 10.134 0.108
v -0.028 10.128 0.108
v -0.117 10.121 -0.042
v -0.028 10.119 -0.195
v 0.131 10.756 -0.202
v 0.214 10.763 -0.057
v 0.131 10.765 0.088
v -0.037 10.761 0.088
v -0.12 10.754 -0.057
v -0.037 10.752 -0.202
usemtl Birch
s off
f 198 197 196 195 194 193
f 199 200 201 202 203 204
f 193 194 200 199
f 194 195 201 200
f 195 196 202 201
f 196 197 203 202
f 197 198 204 203
f 198 193 199 204
o Trunk
v 0.131 10.756 -0.202
v 0.214 10.763 -0.057
v 0.131 10.765 0.088
v -0.037 10.761 0.088
v -0.12 10.754 -0.057
v -0.037 10.752 -0.202
v 0.115 11.39 -0.209
v 0.195 11.396 -0.071
v 0.115 11.398 0.067
v -0.044 11.394 0.067
v -0.124 11.387 -0.071
v -0.044 11.385 -0.209
usemtl Birch
s off
f 210 209 208 207 206 205
f 211 212 213 214 215 216
f 205 206 212 211
f 206 207 213 212
f 207 208 214 213
f 208 209 215 214
f 209 210 216 215
f 210 205 211 216
o Trunk
v 0.115 11.392 -0.209
v 0.195 11.385 -0.071
v 0.115 11.385 0.067
v -0.044 11.392 0.067
v -0.124 11.398 -0.071
v -0.044 11.398 -0.209
v 0.127 11.977 -0.189
v 0.202 11.97 -0.058
v 0.127 11.968 0.073
v -0.025 11.974 0.073
v -0.101 11.983 -0.058
v -0.025 11.983 -0.189
usemtl Birch
s off
f 222 221 220 219 218 217
f 223 224 225 226 227 228
f 217 218 224 223
f 218 219 225 224
f 219 220 226 225
f 220 221 227 226
f 221 222 228 227
f 222 217 223 228
o Trunk
v 0.127 11.977 -0.189
v 0.202 11.97 -0.058
v 0.127 11.968 0.073
v -0.025 11.974 0.073
v -0.101 11.983 -0.058
v -0.025 11.983 -0.189
v 0.138 12.562 -0.172
v 0.211 12.555 -0.048
v 0.138 12.553 0.078
v -0.005 12.559 0.078
v -0.076 12.566 -0.048
v -0.005 12.566 -0.172
usemtl Birch
s off
f 234 233 232 231 230 229
f 235 236 237 238 239 240
f 229 230 236 235
f 230 231 237 236
f 231 232 238 237
f 232 233 239 238
f 233 234 240 239
f 234 229 235 240
o Trunk
v 0.138 12.562 -0.172
v 0.211 12.555 -0.048
v 0.138 12.553 0.078
v -0.005 12.559 0.078
v -0.076 12.566 -0.048
v -0.005 12.566 -0.172
v 0.15 13.144 -0.152
v 0.218 13.138 -0.035
v 0.15 13.138 0.081
v 0.014 13.144 0.081
v -0.053 13.151 -0.035
v 0.014 13.151 -0.152
usemtl Birch
s off
f 246 245 244 243 242 241
f 247 248 249 250 251 252
f 241 242 248 247
f 242 243 249 248
f 243 244 250 249
f 244 245 251 250
f 245 246 252 251
f 246 241 247 252
o Trunk
v 0.15 13.144 -0.152
v 0.218 13.138 -0.035
v 0.15 13.138 0.081
v 0.014 13.144 0.081
v -0.053 13.151 -0.035
v 0.014 13.151 -0.152
v 0.163 13.729 -0.135
v 0.227 13.723 -0.023
v 0.163 13.723 0.087
v 0.034 13.727 0.087
v -0.03 13.734 -0.023
v 0.034 13.734 -0.135
usemtl Birch
s off
f 258 257 256 255 254 253
f 259 260 261 262 263 264
f 253 254 260 259
f 254 255 261 260
f 255 256 262 261
f 256 257 263 262
f 257 258 264 263
f 258 253 259 264
o Trunk
v 0.163 13.729 -0.135
v 0.227 13.723 -0.023
v 0.163 13.723 0.087
v 0.034 13.727 0.087
v -0.03 13.734 -0.023
v 0.034 13.734 -0.135
v 0.173 14.314 -0.115
v 0.234 14.308 -0.012
v 0.173 14.308 0.092
v 0.055 14.312 0.092
v -0.005 14.319 -0.012
v 0.055 14.319 -0.115
usemtl Birch
s off
f 270 269 268 267 266 265
f 271 272 273 274 275 276
f 265 266 272 271
f 266 267 273 272
f 267 268 274 273
f 268 269 275 274
f 269 270 276 275
f 270 265 271 276
o Trunk
v 0.173 14.314 -0.115
v 0.234 14.308 -0.012
v 0.173 14.308 0.092
v 0.055 14.312 0.092
v -0.005 14.319 -0.012
v 0.055 14.319 -0.115
v 0.186 14.897 -0.097
v 0.242 14.893 0
v 0.186 14.893 0.097
v 0.074 14.897 0.097
v 0.018 14.901 0
v 0.074 14.901 -0.097
usemtl Birch
s off
f 282 281 280 279 278 277
f 283 284 285 286 287 288
f 277 278 284 283
f 278 279 285 284
f 279 280 286 285
f 280 281 287 286
f 281 282 288 287
f 282 277 283 288
o Trunk
v 0.186 14.897 -0.097
v 0.242 14.893 0
v 0.186 14.893 0.097
v 0.074 14.897 0.097
v 0.018 14.901 0
v 0.074 14.901 -0.097
v 0.198 15.482 -0.078
v 0.25 15.477 0.012
v 0.198 15.475 0.103
v 0.094 15.48 0.103
v 0.041 15.486 0.012
v 0.094 15.486 -0.078
usemtl Birch
s off
f 294 293 292 291 290 289
f 295 296 297 298 299 300
f 289 290 296 295
f 290 291 297 296
f 291 292 298 297
f 292 293 299 298
f 293 294 300 299
f 294 289 295 300
o Trunk
v 0.198 15.482 -0.078
v 0.25 15.477 0.012
v 0.198 15.475 0.103
v 0.094 15.48 0.103
v 0.041 15.486 0.012
v 0.094 15.486 -0.078
v 0.209 16.067 -0.06
v 0.258 16.062 0.023
v 0.209 16.06 0.106
v 0.113 16.065 0.106
v 0.065 16.069 0.023
v 0.113 16.069 -0.06
usemtl Birch
s off
f 306 305 304 303 302 301
f 307 308 309 310 311 312
f 301 302 308 307
f 302 303 309 308
f 303 304 310 309
f 304 305 311 310
f 305 306 312 311
f 306 301 307 312
o Trunk
v 0.209 16.067 -0.06
v 0.258 16.062 0.023
v 0.209 16.06 0.106
v 0.113 16.065 0.106
v 0.065 16.069 0.023
v 0.113 16.069 -0.06
v 0.221 16.649 -0.041
v 0.265 16.645 0.035
v 0.221 16.645 0.112
v 0.133 16.649 0.112
v 0.088 16.654 0.035
v 0.133 16.654 -0.041
usemtl Birch
s off
f 318 317 316 315 314 313
f 319 320 321 322 323 324
f 313 314 320 319
f 314 315 321 320
f 315 316 322 321
f 316 317 323 322
f 317 318 324 323
f 318 313 319 324
o Bark.Mark
v 0.131 1.709 -0.099
v 0.131 1.709 0.078
v 0.308 1.709 0.078
v 0.308 1.709 -0.099
v 0.131 1.814 -0.099
v 0.131 1.814 0.078
v 0.308 1.814 0.078
v 0.308 1.814 -0.099
usemtl BirchMark
s off
f 328 327 326 325
f 329 330 331 332
f 325 326 330 329
f 326 327 331 330
f 327 328 332 331
f 328 325 329 332
o Bark.Mark
v -0.115 2.296 0.087
v -0.115 2.296 0.264
v 0.062 2.296 0.264
v 0.062 2.296 0.087
v -0.115 2.434 0.087
v -0.115 2.434 0.264
v 0.062 2.434 0.264
v 0.062 2.434 0.087
usemtl BirchMark
s off
f 336 335 334 333
f 337 338 339 340
f 333 334 338 337
f 334 335 339 338
f 335 336 340 339
f 336 333 337 340
o Bark.Mark
v -0.186 2.883 -0.081
v -0.186 2.883 0.096
v -0.009 2.883 0.096
v -0.009 2.883 -0.081
v -0.186 3.023 -0.081
v -0.186 3.023 0.096
v -0.009 3.023 0.096
v -0.009 3.023 -0.081
usemtl BirchMark
s off
f 344 343 342 341
f 345 346 347 348
f 341 342 346 345
f 342 343 347 346
f 343 344 348 347
f 344 341 345 348
o Bark.Mark
v 0.025 3.47 -0.221
v 0.025 3.47 -0.044
v 0.202 3.47 -0.044
v 0.202 3.47 -0.221
v 0.025 3.56 -0.221
v 0.025 3.56 -0.044
v 0.202 3.56 -0.044
v 0.202 3.56 -0.221
usemtl BirchMark
s off
f 352 351 350 349
f 353 354 355 356
f 349 350 354 353
f 350 351 355 354
f 351 352 356 355
f 352 349 353 356
o Bark.Mark
v 0.175 4.059 -0.048
v 0.175 4.059 0.129
v 0.352 4.059 0.129
v 0.352 4.059 -0.048
v 0.175 4.211 -0.048
v 0.175 4.211 0.129
v 0.352 4.211 0.129
v 0.352 4.211 -0.048
usemtl BirchMark
s off
f 360 359 358 357
f 361 362 363 364
f 357 358 362 361
f 358 359 363 362
f 359 360 364 363
f 360 357 361 364
o Bark.Mark
v 0.14 4.647 -0.158
v 0.14 4.647 0.019
v 0.317 4.647 0.019
v 0.317 4.647 -0.158
v 0.14 4.776 -0.158
v 0.14 4.776 0.019
v 0.317 4.776 0.019
v 0.317 4.776 -0.158
usemtl BirchMark
s off
f 368 367 366 365
f 369 370 371 372
f 365 366 370 369
f 366 367 371 370
f 367 368 372 371
f 368 365 369 372
o Bark.Mark
v 0.06 5.234 0.115
v 0.06 5.234 0.292
v 0.237 5.234 0.292
v 0.237 5.234 0.115
v 0.06 5.356 0.115
v 0.06 5.356 0.292
v 0.237 5.356 0.292
v 0.237 5.356 0.115
usemtl BirchMark
s off
f 376 375 374 373
f 377 378 379 380
f 373 374 378 377
f 374 375 379 378
f 375 376 380 379
f 376 373 377 380
o Bark.Mark
v 0.044 5.821 0.113
v 0.044 5.821 0.29
v 0.221 5.821 0.29
v 0.221 5.821 0.113
v 0.044 5.974 0.113
v 0.044 5.974 0.29
v 0.221 5.974 0.29
v 0.221 5.974 0.113
usemtl BirchMark
s off
f 384 383 382 381
f 385 386 387 388
f 381 382 386 385
f 382 383 387 386
f 383 384 388 387
f 384 381 385 388
o Bark.Mark
v 0.158 6.408 0.039
v 0.158 6.408 0.216
v 0.335 6.408 0.216
v 0.335 6.408 0.039
v 0.158 6.535 0.039
v 0.158 6.535 0.216
v 0.335 6.535 0.216
v 0.335 6.535 0.039
usemtl BirchMark
s off
f 392 391 390 389
f 393 394 395 396
f 389 390 394 393
f 390 391 395 394
f 391 392 396 395
f 392 389 393 396
o Bark.Mark
v -0.014 6.995 -0.202
v -0.014 6.995 -0.025
v 0.163 6.995 -0.025
v 0.163 6.995 -0.202
v -0.014 7.153 -0.202
v -0.014 7.153 -0.025
v 0.163 7.153 -0.025
v 0.163 7.153 -0.202
usemtl BirchMark
s off
f 400 399 398 397
f 401 402 403 404
f 397 398 402 401
f 398 399 403 402
f 399 400 404 403
f 400 397 401 404
o Bark.Mark
v 0.142 7.582 -0.007
v 0.142 7.582 0.17
v 0.319 7.582 0.17
v 0.319 7.582 -0.007
v 0.142 7.692 -0.007
v 0.142 7.692 0.17
v 0.319 7.692 0.17
v 0.319 7.692 -0.007
usemtl BirchMark
s off
f 408 407 406 405
f 409 410 411 412
f 405 406 410 409
f 406 407 411 410
f 407 408 412 411
f 408 405 409 412
o Bark.Mark
v -0.042 8.169 -0.218
v -0.042 8.169 -0.041
v 0.135 8.169 -0.041
v 0.135 8.169 -0.218
v -0.042 8.327 -0.218
v -0.042 8.327 -0.041
v 0.135 8.327 -0.041
v 0.135 8.327 -0.218
usemtl BirchMark
s off
f 416 415 414 413
f 417 418 419 420
f 413 414 418 417
f 414 415 419 418
f 415 416 420 419
f 416 413 417 420
o Bark.Mark
v 0.129 8.759 -0.101
v 0.129 8.759 0.076
v 0.306 8.759 0.076
v 0.306 8.759 -0.101
v 0.129 8.89 -0.101
v 0.129 8.89 0.076
v 0.306 8.89 0.076
v 0.306 8.89 -0.101
usemtl BirchMark
s off
f 424 423 422 421
f 425 426 427 428
f 421 422 426 425
f 422 423 427 426
f 423 424 428 427
f 424 421 425 428
o Bark.Mark
v -0.078 9.346 -0.228
v -0.078 9.346 -0.051
v 0.099 9.346 -0.051
v 0.099 9.346 -0.228
v -0.078 9.492 -0.228
v -0.078 9.492 -0.051
v 0.099 9.492 -0.051
v 0.099 9.492 -0.228
usemtl BirchMark
s off
f 432 431 430 429
f 433 434 435 436
f 429 430 434 433
f 430 431 435 434
f 431 432 436 435
f 432 429 433 436
o Bark.Mark
v -0.15 9.933 -0.142
v -0.15 9.933 0.035
v 0.027 9.933 0.035
v 0.027 9.933 -0.142
v -0.15 10.128 -0.142
v -0.15 10.128 0.035
v 0.027 10.128 0.035
v 0.027 10.128 -0.142
usemtl BirchMark
s off
f 440 439 438 437
f 441 442 443 444
f 437 438 442 441
f 438 439 443 442
f 439 440 444 443
f 440 437 441 444
o Bark.Mark
v 0.067 10.52 -0.205
v 0.067 10.52 -0.028
v 0.244 10.52 -0.028
v 0.244 10.52 -0.205
v 0.067 10.64 -0.205
v 0.067 10.64 -0.028
v 0.244 10.64 -0.028
v 0.244 10.64 -0.205
usemtl BirchMark
s off
f 448 447 446 445
f 449 450 451 452
f 445 446 450 449
f 446 447 451 450
f 447 448 452 451
f 448 445 449 452
o Leaves.Branch.0
v 0.127 6.999 0.035
v 2.568 6.999 0.777
v 2.568 3.525 0.777
v 0.127 3.525 0.035
v 0.124 6.999 0.042
v 2.566 6.999 0.782
v 2.566 3.525 0.782
v 0.124 3.525 0.042
usemtl BranchCard
s off
f 456 455 454 453
f 457 458 459 460
f 453 454 458 457
f 454 455 459 458
f 455 456 460 459
f 456 453 457 460
o Leaves.Branch.1
v 0.12 7.396 0.028
v -2.094 7.396 1.586
v -2.094 3.709 1.586
v 0.12 3.709 0.028
v 0.115 7.396 0.021
v -2.097 7.396 1.581
v -2.097 3.709 1.581
v 0.115 3.709 0.021
usemtl BranchCard
s off
f 464 463 462 461
f 465 466 467 468
f 461 462 466 465
f 462 463 467 466
f 463 464 468 467
f 464 461 465 468
o Leaves.Branch.2
v 0.113 7.779 0.019
v 1.265 7.779 -2.527
v 1.265 3.972 -2.527
v 0.113 3.972 0.019
v 0.12 7.779 0.023
v 1.273 7.779 -2.526
v 1.273 3.972 -2.526
v 0.12 3.972 0.023
usemtl BranchCard
s off
f 472 471 470 469
f 473 474 475 476
f 469 470 474 473
f 470 471 475 474
f 471 472 476 475
f 472 469 473 476
o Leaves.Branch.3
v 0.106 8.213 0.012
v 1.968 8.213 2.536
v 1.968 3.943 2.536
v 0.106 3.943 0.012
v 0.101 8.213 0.016
v 1.961 8.213 2.54
v 1.961 3.943 2.54
v 0.101 3.943 0.016
usemtl BranchCard
s off
f 480 479 478 477
f 481 482 483 484
f 477 478 482 481
f 478 479 483 482
f 479 480 484 483
f 480 477 481 484
o Leaves.Branch.4
v 0.099 8.605 0.004
v -2.526 8.605 -1.952
v -2.526 4.149 -1.952
v 0.099 4.149 0.004
v 0.104 8.605 -0.002
v -2.522 8.605 -1.958
v -2.522 4.149 -1.958
v 0.104 4.149 -0.002
usemtl BranchCard
s off
f 488 487 486 485
f 489 490 491 492
f 485 486 490 489
f 486 487 491 490
f 487 488 492 491
f 488 485 489 492
o Leaves.Branch.5
v 0.092 8.964 -0.004
v 3.228 8.964 -0.784
v 3.228 4.563 -0.784
v 0.092 4.563 -0.004
v 0.094 8.964 0.004
v 3.23 8.964 -0.779
v 3.23 4.563 -0.779
v 0.094 4.563 0.004
usemtl BranchCard
s off
f 496 495 494 493
f 497 498 499 500
f 493 494 498 497
f 494 495 499 498
f 495 496 500 499
f 496 493 497 500
o Leaves.Branch.6
v 0.085 9.368 -0.012
v -1.959 9.368 2.724
v -1.959 4.714 2.724
v 0.085 4.714 -0.012
v 0.08 9.368 -0.016
v -1.965 9.368 2.72
v -1.965 4.714 2.72
v 0.08 4.714 -0.016
usemtl BranchCard
s off
f 504 503 502 501
f 505 506 507 508
f 501 502 506 505
f 502 503 507 506
f 503 504 508 507
f 504 501 505 508
o Leaves.Branch.7
v 0.08 9.819 -0.019
v -0.223 9.819 -3.855
v -0.223 4.581 -3.855
v 0.08 4.581 -0.019
v 0.087 9.819 -0.021
v -0.216 9.819 -3.855
v -0.216 4.581 -3.855
v 0.087 4.581 -0.021
usemtl BranchCard
s off
f 512 511 510 509
f 513 514 515 516
f 509 510 514 513
f 510 511 515 514
f 511 512 516 515
f 512 509 513 516
o Leaves.Branch.8
v 0.073 10.218 -0.028
v 3.52 10.218 2.023
v 3.52 4.756 2.023
v 0.073 4.756 -0.028
v 0.069 10.218 -0.021
v 3.517 10.218 2.028
v 3.517 4.756 2.028
v 0.069 4.756 -0.021
usemtl BranchCard
s off
f 520 519 518 517
f 521 522 523 524
f 517 518 522 521
f 518 519 523 522
f 519 520 524 523
f 520 517 521 524
o Leaves.Branch.9
v 0.065 10.577 -0.035
v -3.906 10.577 0.285
v -3.906 5.153 0.285
v 0.065 5.153 -0.035
v 0.065 10.577 -0.042
v -3.906 10.577 0.278
v -3.906 5.153 0.278
v 0.065 5.153 -0.042
usemtl BranchCard
s off
f 528 527 526 525
f 529 530 531 532
f 525 526 530 529
f 526 527 531 530
f 527 528 532 531
f 528 525 529 532
o Leaves.Branch.10
v 0.058 10.934 -0.044
v 1.835 10.934 -3.55
v 1.835 5.582 -3.55
v 0.058 5.582 -0.044
v 0.065 10.934 -0.041
v 1.842 10.934 -3.547
v 1.842 5.582 -3.547
v 0.065 5.582 -0.041
usemtl BranchCard
s off
f 536 535 534 533
f 537 538 539 540
f 533 534 538 537
f 534 535 539 538
f 535 536 540 539
f 536 533 537 540
o Leaves.Branch.11
v 0.051 11.361 -0.051
v 1.227 11.361 4.025
v 1.227 5.584 4.025
v 0.051 5.584 -0.051
v 0.044 11.361 -0.05
v 1.219 11.361 4.027
v 1.219 5.584 4.027
v 0.044 5.584 -0.05
usemtl BranchCard
s off
f 544 543 542 541
f 545 546 547 548
f 541 542 546 545
f 542 543 547 546
f 543 544 548 547
f 544 541 545 548
o Leaves.Branch.12
v 0.044 11.716 -0.06
v -2.388 11.716 -3.465
v -2.388 6.018 -3.465
v 0.044 6.018 -0.06
v 0.051 11.716 -0.064
v -2.381 11.716 -3.469
v -2.381 6.018 -3.469
v 0.051 6.018 -0.064
usemtl BranchCard
s off
f 552 551 550 549
f 553 554 555 556
f 549 550 554 553
f 550 551 555 554
f 551 552 556 555
f 552 549 553 556
o Leaves.Branch.13
v 0.037 12.088 -0.067
v 4.094 12.088 1.094
v 4.094 6.344 1.094
v 0.037 6.344 -0.067
v 0.035 12.088 -0.06
v 4.092 12.088 1.101
v 4.092 6.344 1.101
v 0.035 6.344 -0.06
usemtl BranchCard
s off
f 560 559 558 557
f 561 562 563 564
f 557 558 562 561
f 558 559 563 562
f 559 560 564 563
f 560 557 561 564
o Leaves.Branch.14
v 0.041 12.43 -0.067
v -3.106 12.43 2.678
v -3.106 6.743 2.678
v 0.041 6.743 -0.067
v 0.037 12.43 -0.073
v -3.11 12.43 2.673
v -3.11 6.743 2.673
v 0.037 6.743 -0.073
usemtl BranchCard
s off
f 568 567 566 565
f 569 570 571 572
f 565 566 570 569
f 566 567 571 570
f 567 568 572 571
f 568 565 569 572
o Leaves.Branch.15
v 0.05 12.772 -0.06
v 0.442 12.772 -4.239
v 0.442 7.056 -4.239
v 0.05 7.056 -0.06
v 0.057 12.772 -0.058
v 0.45 12.772 -4.237
v 0.45 7.056 -4.237
v 0.057 7.056 -0.058
usemtl BranchCard
s off
f 576 575 574 573
f 577 578 579 580
f 573 574 578 577
f 574 575 579 578
f 575 576 580 579
f 576 573 577 580
o Leaves.Branch.16
v 0.058 13.105 -0.053
v 2.637 13.105 3.239
v 2.637 7.413 3.239
v 0.058 7.413 -0.053
v 0.053 13.105 -0.048
v 2.632 13.105 3.242
v 2.632 7.413 3.242
v 0.053 7.413 -0.048
usemtl BranchCard
s off
f 584 583 582 581
f 585 586 587 588
f 581 582 586 585
f 582 583 587 586
f 583 584 588 587
f 584 581 585 588
o Leaves.Branch.17
v 0.069 13.423 -0.046
v -3.722 13.423 -1.526
v -3.722 7.882 -1.526
v 0.069 7.882 -0.046
v 0.071 13.423 -0.053
v -3.72 13.423 -1.533
v -3.72 7.882 -1.533
v 0.071 7.882 -0.053
usemtl BranchCard
s off
f 592 591 590 589
f 593 594 595 596
f 589 590 594 593
f 590 591 595 594
f 591 592 596 595
f 592 589 593 596
o Leaves.Branch.18
v 0.078 13.712 -0.039
v 3.538 13.712 -1.673
v 3.538 8.5 -1.673
v 0.078 8.5 -0.039
v 0.08 13.712 -0.034
v 3.542 13.712 -1.667
v 3.542 8.5 -1.667
v 0.08 8.5 -0.034
usemtl BranchCard
s off
f 600 599 598 597
f 601 602 603 604
f 597 598 602 601
f 598 599 603 602
f 599 600 604 603
f 600 597 601 604
o Leaves.Branch.19
v 0.087 14.01 -0.032
v -0.935 14.01 3.446
v -0.935 9.074 3.446
v 0.087 9.074 -0.032
v 0.08 14.01 -0.034
v -0.94 14.01 3.444
v -0.94 9.074 3.444
v 0.08 9.074 -0.034
usemtl BranchCard
s off
f 608 607 606 605
f 609 610 611 612
f 605 606 610 609
f 606 607 611 610
f 607 608 612 611
f 608 605 609 612
o Leaves.Branch.20
v 0.096 14.351 -0.025
v -0.66 14.351 -3.589
v -0.66 9.392 -3.589
v 0.096 9.392 -0.025
v 0.103 14.351 -0.027
v -0.653 14.351 -3.589
v -0.653 9.392 -3.589
v 0.103 9.392 -0.027
usemtl BranchCard
s off
f 616 615 614 613
f 617 618 619 620
f 613 614 618 617
f 614 615 619 618
f 615 616 620 619
f 616 613 617 620
o Leaves.Branch.21
v 0.104 14.693 -0.019
v 3.322 14.693 1.724
v 3.322 9.711 1.724
v 0.104 9.711 -0.019
v 0.101 14.693 -0.012
v 3.319 14.693 1.731
v 3.319 9.711 1.731
v 0.101 9.711 -0.012
usemtl BranchCard
s off
f 624 623 622 621
f 625 626 627 628
f 621 622 626 625
f 622 623 627 626
f 623 624 628 627
f 624 621 625 628
o Leaves.Branch.22
v 0.113 14.96 -0.012
v -3.076 14.96 0.853
v -3.076 10.461 0.853
v 0.113 10.461 -0.012
v 0.112 14.96 -0.019
v -3.078 14.96 0.846
v -3.078 10.461 0.846
v 0.112 10.461 -0.019
usemtl BranchCard
s off
f 632 631 630 629
f 633 634 635 636
f 629 630 634 633
f 630 631 635 634
f 631 632 636 635
f 632 629 633 636
o Leaves.Branch.23
v 0.122 15.32 -0.005
v 1.786 15.32 -2.982
v 1.786 10.678 -2.982
v 0.122 10.678 -0.005
v 0.129 15.32 -0.002
v 1.793 15.32 -2.979
v 1.793 10.678 -2.979
v 0.129 10.678 -0.002
usemtl BranchCard
s off
f 640 639 638 637
f 641 642 643 644
f 637 638 642 641
f 638 639 643 642
f 639 640 644 643
f 640 637 641 644
o Leaves.Branch.24
v 0.133 15.561 0.002
v 0.874 15.561 2.83
v 0.874 11.58 2.83
v 0.133 11.58 0.002
v 0.126 15.561 0.004
v 0.867 15.561 2.832
v 0.867 11.58 2.832
v 0.126 11.58 0.004
usemtl BranchCard
s off
f 648 647 646 645
f 649 650 651 652
f 645 646 650 649
f 646 647 651 650
f 647 648 652 651
f 648 645 649 652
o Leaves.Branch.25
v 0.142 15.902 0.009
v -2.131 15.902 -1.86
v -2.131 11.896 -1.86
v 0.142 11.896 0.009
v 0.145 15.902 0.004
v -2.127 15.902 -1.867
v -2.127 11.896 -1.867
v 0.145 11.896 0.004
usemtl BranchCard
s off
f 656 655 654 653
f 657 658 659 660
f 653 654 658 657
f 654 655 659 658
f 655 656 660 659
f 656 653 657 660
o Leaves.Branch.26
v 0.15 16.198 0.016
v 2.867 16.198 -0.186
v 2.867 12.487 -0.186
v 0.15 12.487 0.016
v 0.15 16.198 0.023
v 2.867 16.198 -0.179
v 2.867 12.487 -0.179
v 0.15 12.487 0.023
usemtl BranchCard
s off
f 664 663 662 661
f 665 666 667 668
f 661 662 666 665
f 662 663 667 666
f 663 664 668 667
f 664 661 665 668
o Leaves.Branch.27
v 0.159 16.461 0.023
v -1.639 16.461 1.531
v -1.639 13.265 1.531
v 0.159 13.265 0.023
v 0.154 16.461 0.016
v -1.642 16.461 1.526
v -1.642 13.265 1.526
v 0.154 13.265 0.016
usemtl BranchCard
s off
f 672 671 670 669
f 673 674 675 676
f 669 670 674 673
f 670 671 675 674
f 671 672 676 675
f 672 669 673 676
o Leaves.Branch.28
v 0.104 8.005 0.009
v 1.697 8.005 0.009
v 1.697 5.836 0.009
v 0.104 5.836 0.009
v 0.104 8.005 0.016
v 1.697 8.005 0.016
v 1.697 5.836 0.016
v 0.104 5.836 0.016
usemtl BranchCard
s off
f 680 679 678 677
f 681 682 683 684
f 677 678 682 681
f 678 679 683 682
f 679 680 684 683
f 680 677 681 684
o Leaves.Branch.29
v 0.09 8.774 -0.007
v -0.713 8.774 1.368
v -0.713 6.605 1.368
v 0.09 6.605 -0.007
v 0.083 8.774 -0.011
v -0.72 8.774 1.365
v -0.72 6.605 1.365
v 0.083 6.605 -0.011
usemtl BranchCard
s off
f 688 687 686 685
f 689 690 691 692
f 685 686 690 689
f 686 687 691 690
f 687 688 692 691
f 688 685 689 692
o Leaves.Branch.30
v 0.076 9.543 -0.023
v -0.704 9.543 -1.412
v -0.704 7.374 -1.412
v 0.076 7.374 -0.023
v 0.081 9.543 -0.027
v -0.699 9.543 -1.416
v -0.699 7.374 -1.416
v 0.081 7.374 -0.027
usemtl BranchCard
s off
f 696 695 694 693
f 697 698 699 700
f 693 694 698 697
f 694 695 699 698
f 695 696 700 699
f 696 693 697 700
o Leaves.Branch.31
v 0.062 10.312 -0.041
v 1.655 10.312 -0.014
v 1.655 8.143 -0.014
v 0.062 8.143 -0.041
v 0.062 10.312 -0.034
v 1.655 10.312 -0.007
v 1.655 8.143 -0.007
v 0.062 8.143 -0.034
usemtl BranchCard
s off
f 704 703 702 701
f 705 706 707 708
f 701 702 706 705
f 702 703 707 706
f 703 704 708 707
f 704 701 705 708
o Leaves.Branch.32
v 0.048 11.081 -0.057
v -0.781 11.081 1.304
v -0.781 8.912 1.304
v 0.048 8.912 -0.057
v 0.041 11.081 -0.06
v -0.786 11.081 1.301
v -0.786 8.912 1.301
v 0.041 8.912 -0.06
usemtl BranchCard
s off
f 712 711 710 709
f 713 714 715 716
f 709 710 714 713
f 710 711 715 714
f 711 712 716 715
f 712 709 713 716
o Leaves.Branch.33
v 0.039 11.839 -0.067
v -0.719 11.839 -1.469
v -0.719 9.67 -1.469
v 0.039 9.67 -0.067
v 0.046 11.839 -0.071
v -0.712 11.839 -1.473
v -0.712 9.67 -1.473
v 0.046 9.67 -0.071
usemtl BranchCard
s off
f 720 719 718 717
f 721 722 723 724
f 717 718 722 721
f 718 719 723 722
f 719 720 724 723
f 720 717 721 724
o Leaves.Branch.34
v 0.058 12.548 -0.053
v 1.65 12.548 0
v 1.65 10.38 0
v 0.058 10.38 -0.053
v 0.058 12.548 -0.046
v 1.65 12.548 0.007
v 1.65 10.38 0.007
v 0.058 10.38 -0.046
usemtl BranchCard
s off
f 728 727 726 725
f 729 730 731 732
f 725 726 730 729
f 726 727 731 730
f 727 728 732 731
f 728 725 729 732
o Leaves.Branch.35
v 0.078 13.258 -0.039
v -0.773 13.258 1.308
v -0.773 11.089 1.308
v 0.078 11.089 -0.039
v 0.071 13.258 -0.042
v -0.779 13.258 1.304
v -0.779 11.089 1.304
v 0.071 11.089 -0.042
usemtl BranchCard
s off
f 736 735 734 733
f 737 738 739 740
f 733 734 738 737
f 734 735 739 738
f 735 736 740 739
f 736 733 737 740
o Leaves.Branch.36
v 0.096 13.968 -0.025
v -0.637 13.968 -1.439
v -0.637 11.799 -1.439
v 0.096 11.799 -0.025
v 0.103 13.968 -0.028
v -0.632 13.968 -1.442
v -0.632 11.799 -1.442
v 0.103 11.799 -0.028
usemtl BranchCard
s off
f 744 743 742 741
f 745 746 747 748
f 741 742 746 745
f 742 743 747 746
f 743 744 748 747
f 744 741 745 748
o Leaves.Branch.37
v 0.115 14.678 -0.011
v 1.706 14.678 0.069
v 1.706 12.509 0.069
v 0.115 12.509 -0.011
v 0.115 14.678 -0.004
v 1.706 14.678 0.076
v 1.706 12.509 0.076
v 0.115 12.509 -0.004
usemtl BranchCard
s off
f 752 751 750 749
f 753 754 755 756
f 749 750 754 753
f 750 751 755 754
f 751 752 756 755
f 752 749 753 756
o Leaves.Branch.38
v 0.177 17 0.035
v 1.947 17 0.071
v 1.947 14.59 0.071
v 0.177 14.59 0.035
v 0.177 17 0.042
v 1.947 17 0.078
v 1.947 14.59 0.078
v 0.177 14.59 0.042
usemtl BranchCard
s off
f 760 759 758 757
f 761 762 763 764
f 757 758 762 761
f 758 759 763 762
f 759 760 764 763
f 760 757 761 764
o Leaves.Branch.39
v 0.177 17 0.035
v -1.159 17 1.195
v -1.159 14.59 1.195
v 0.177 14.59 0.035
v 0.172 17 0.03
v -1.165 17 1.189
v -1.165 14.59 1.189
v 0.172 14.59 0.03
usemtl BranchCard
s off
f 768 767 766 765
f 769 770 771 772
f 765 766 770 769
f 766 767 771 770
f 767 768 772 771
f 768 765 769 772
o Leaves.Branch.40
v 0.177 17 0.035
v -0.961 17 -1.32
v -0.961 14.59 -1.32
v 0.177 14.59 0.035
v 0.182 17 0.03
v -0.956 17 -1.324
v -0.956 14.59 -1.324
v 0.182 14.59 0.03
usemtl BranchCard
s off
f 776 775 774 773
f 777 778 779 780
f 773 774 778 777
f 774 775 779 778
f 775 776 780 779
f 776 773 777 780
o Leaves.Branch.41
v 0.177 17 0.035
v 0.235 17 -1.733
v 0.235 14.59 -1.733
v 0.177 14.59 0.035
v 0.184 17 0.035
v 0.242 17 -1.733
v 0.242 14.59 -1.733
v 0.184 14.59 0.035
usemtl BranchCard
s off
f 784 783 782 781
f 785 786 787 788
f 781 782 786 785
f 782 783 787 786
f 783 784 788 787
f 784 781 785 788
o Grass
v -1.423 0.007 -0.582
v -1.462 0 -0.515
v -1.499 -0.007 -0.581
v -1.527 0.596 -0.57
v -1.533 0.596 -0.563
v -1.536 0.596 -0.57
usemtl Grass
s off
f 791 790 789
f 792 793 794
f 789 790 793 792
f 790 791 794 793
f 791 789 792 794
o Grass
v -1.425 -0.013 -0.581
v -1.462 0.007 -0.515
v -1.499 0.009 -0.582
v -1.363 0.497 -0.605
v -1.366 0.499 -0.598
v -1.37 0.499 -0.605
usemtl Grass
s off
f 797 796 795
f 798 799 800
f 795 796 799 798
f 796 797 800 799
f 797 795 798 800
o Grass
v -1.423 -0.013 -0.581
v -1.462 0.013 -0.517
v -1.499 0 -0.582
v -1.411 0.438 -0.642
v -1.414 0.44 -0.637
v -1.418 0.438 -0.644
usemtl Grass
s off
f 803 802 801
f 804 805 806
f 801 802 805 804
f 802 803 806 805
f 803 801 804 806
o Grass
v 1.165 -0.004 -0.568
v 1.127 -0.002 -0.501
v 1.09 0.009 -0.568
v 1.196 0.609 -0.519
v 1.193 0.609 -0.512
v 1.189 0.609 -0.519
usemtl Grass
s off
f 809 808 807
f 810 811 812
f 807 808 811 810
f 808 809 812 811
f 809 807 810 812
o Grass
v 1.165 0.011 -0.566
v 1.127 -0.009 -0.503
v 1.09 -0.002 -0.568
v 1.074 0.504 -0.49
v 1.071 0.504 -0.483
v 1.067 0.504 -0.49
usemtl Grass
s off
f 815 814 813
f 816 817 818
f 813 814 817 816
f 814 815 818 817
f 815 813 816 818
o Grass
v 1.165 0.013 -0.566
v 1.127 -0.007 -0.503
v 1.09 -0.004 -0.568
v 1.028 0.648 -0.474
v 1.025 0.646 -0.469
v 1.021 0.646 -0.474
usemtl Grass
s off
f 821 820 819
f 822 823 824
f 819 820 823 822
f 820 821 824 823
f 821 819 822 824
o Litter
v -0.593 0 -1.673
v -0.434 0 -1.635
v -0.43 0 -1.512
v -0.588 0 -1.471
v -0.688 0 -1.57
v -0.593 0.044 -1.673
v -0.434 0.044 -1.635
v -0.43 0.044 -1.512
v -0.588 0.044 -1.471
v -0.688 0.044 -1.57
usemtl LeafDry
s off
f 829 828 827 826 825
f 830 831 832 833 834
f 825 826 831 830
f 826 827 832 831
f 827 828 833 832
f 828 829 834 833
f 829 825 830 834
o Grass
v 1.405 -0.007 0.835
v 1.366 0.002 0.903
v 1.329 0.004 0.835
v 1.437 0.666 0.839
v 1.434 0.668 0.846
v 1.43 0.668 0.839
usemtl Grass
s off
f 837 836 835
f 838 839 840
f 835 836 839 838
f 836 837 840 839
f 837 835 838 840
o Grass
v 1.404 0.013 0.837
v 1.366 -0.011 0.901
v 1.329 -0.002 0.834
v 1.296 0.478 0.935
v 1.292 0.475 0.94
v 1.288 0.478 0.933
usemtl Grass
s off
f 843 842 841
f 844 845 846
f 841 842 845 844
f 842 843 846 845
f 843 841 844 846
o Grass
v 1.405 0 0.835
v 1.366 -0.002 0.903
v 1.327 0.002 0.835
v 1.381 0.585 0.867
v 1.377 0.585 0.874
v 1.372 0.585 0.867
usemtl Grass
s off
f 849 848 847
f 850 851 852
f 847 848 851 850
f 848 849 852 851
f 849 847 850 852
o Grass
v 0.242 -0.004 -0.719
v 0.204 0.004 -0.653
v 0.165 0 -0.72
v 0.234 0.572 -0.745
v 0.23 0.574 -0.738
v 0.225 0.574 -0.745
usemtl Grass
s off
f 855 854 853
f 856 857 858
f 853 854 857 856
f 854 855 858 857
f 855 853 856 858
o Grass
v 0.241 0.009 -0.719
v 0.204 -0.009 -0.653
v 0.165 0 -0.72
v 0.165 0.576 -0.618
v 0.159 0.574 -0.611
v 0.156 0.576 -0.618
usemtl Grass
s off
f 861 860 859
f 862 863 864
f 859 860 863 862
f 860 861 864 863
f 861 859 862 864
o Grass
v 0.242 -0.004 -0.719
v 0.204 0.004 -0.653
v 0.165 0 -0.72
v 0.228 0.64 -0.742
v 0.225 0.64 -0.735
v 0.221 0.64 -0.742
usemtl Grass
s off
f 867 866 865
f 868 869 870
f 865 866 869 868
f 866 867 870 869
f 867 865 868 870
o Litter
v 0.704 0 -1.071
v 0.765 0 -0.954
v 0.635 0 -0.874
v 0.496 0 -0.942
v 0.538 0 -1.062
v 0.704 0.044 -1.071
v 0.765 0.044 -0.954
v 0.635 0.044 -0.874
v 0.496 0.044 -0.942
v 0.538 0.044 -1.062
usemtl LeafDry
s off
f 875 874 873 872 871
f 876 877 878 879 880
f 871 872 877 876
f 872 873 878 877
f 873 874 879 878
f 874 875 880 879
f 875 871 876 880
o Grass
v -1.356 0.011 0.189
v -1.395 -0.009 0.255
v -1.432 -0.004 0.188
v -1.467 0.559 0.273
v -1.471 0.556 0.28
v -1.474 0.556 0.273
usemtl Grass
s off
f 883 882 881
f 884 885 886
f 881 882 885 884
f 882 883 886 885
f 883 881 884 886
o Grass
v -1.356 -0.007 0.189
v -1.395 0.007 0.255
v -1.432 0 0.188
v -1.356 0.541 0.158
v -1.359 0.543 0.165
v -1.363 0.541 0.158
usemtl Grass
s off
f 889 888 887
f 890 891 892
f 887 888 891 890
f 888 889 892 891
f 889 887 890 892
o Grass
v -1.356 -0.002 0.188
v -1.395 -0.013 0.253
v -1.432 0.013 0.191
v -1.322 0.493 0.303
v -1.326 0.491 0.308
v -1.331 0.493 0.303
usemtl Grass
s off
f 895 894 893
f 896 897 898
f 893 894 897 896
f 894 895 898 897
f 895 893 896 898
o Grass
v 0.163 0 1.219
v 0.124 0.011 1.285
v 0.087 -0.009 1.219
v 0.076 0.624 1.143
v 0.071 0.627 1.15
v 0.067 0.624 1.143
usemtl Grass
s off
f 901 900 899
f 902 903 904
f 899 900 903 902
f 900 901 904 903
f 901 899 902 904
o Grass
v 0.163 -0.007 1.219
v 0.124 0.011 1.285
v 0.085 -0.004 1.219
v 0.143 0.559 1.152
v 0.14 0.561 1.159
v 0.136 0.561 1.152
usemtl Grass
s off
f 907 906 905
f 908 909 910
f 905 906 909 908
f 906 907 910 909
f 907 905 908 910
o Grass
v 0.163 -0.007 1.219
v 0.124 0.013 1.285
v 0.085 -0.007 1.219
v 0.126 0.55 1.136
v 0.12 0.55 1.143
v 0.117 0.55 1.136
usemtl Grass
s off
f 913 912 911
f 914 915 916
f 911 912 915 914
f 912 913 916 915
f 913 911 914 916
o Litter
v -0.25 0 -1.595
v -0.101 0 -1.538
v -0.129 0 -1.414
v -0.294 0 -1.395
v -0.368 0 -1.506
v -0.25 0.044 -1.595
v -0.101 0.044 -1.538
v -0.129 0.044 -1.414
v -0.294 0.044 -1.395
v -0.368 0.044 -1.506
usemtl LeafDry
s off
f 921 920 919 918 917
f 922 923 924 925 926
f 917 918 923 922
f 918 919 924 923
f 919 920 925 924
f 920 921 926 925
f 921 917 922 926
o Grass
v -1.15 0.004 0.065
v -1.189 0.002 0.131
v -1.227 -0.007 0.065
v -1.244 0.57 0.065
v -1.25 0.57 0.073
v -1.253 0.57 0.065
usemtl Grass
s off
f 929 928 927
f 930 931 932
f 927 928 931 930
f 928 929 932 931
f 929 927 930 932
o Grass
v -1.15 -0.004 0.065
v -1.189 0 0.131
v -1.227 0.004 0.065
v -1.145 0.552 0.092
v -1.149 0.552 0.099
v -1.152 0.552 0.092
usemtl Grass
s off
f 935 934 933
f 936 937 938
f 933 934 937 936
f 934 935 938 937
f 935 933 936 938
o Grass
v -1.15 0 0.065
v -1.189 0.004 0.131
v -1.227 -0.004 0.065
v -1.205 0.484 0.058
v -1.209 0.484 0.065
v -1.214 0.484 0.058
usemtl Grass
s off
f 941 940 939
f 942 943 944
f 939 940 943 942
f 940 941 944 943
f 941 939 942 944
