# tree_oak_young.obj - Junge Eiche (Holz) fuer procedurally-generated-map
# Einheiten: Meter, Y oben, Vorderseite nach +Z - so wie Blender ein Modell
# exportiert, das in der Vorderansicht zum Betrachter schaut.
# Material Paint (das Laub) bekommt eine je Baum leicht andere Farbe.
mtllib tree_oak_young.mtl
o Root
v 0.082 0.258 0.062
v 0.099 0.283 -0.017
v 0.067 0.22 -0.068
v 0.03 0.158 -0.021
v 0.038 0.182 0.059
v 0.409 0.011 0.036
v 0.414 0.017 0.015
v 0.404 0 0.001
v 0.394 -0.017 0.014
v 0.397 -0.011 0.036
usemtl Bark
s off
f 5 4 3 2 1
f 6 7 8 9 10
f 1 2 7 6
f 2 3 8 7
f 3 4 9 8
f 4 5 10 9
f 5 1 6 10
o Root
v -0.081 0.258 0.063
v -0.009 0.283 0.1
v 0.048 0.22 0.082
v 0.012 0.158 0.034
v -0.067 0.182 0.022
v -0.141 0.011 0.386
v -0.121 0.017 0.396
v -0.106 0 0.391
v -0.115 -0.017 0.378
v -0.137 -0.011 0.375
usemtl Bark
s off
f 15 14 13 12 11
f 16 17 18 19 20
f 11 12 17 16
f 12 13 18 17
f 13 14 19 18
f 14 15 20 19
f 15 11 16 20
o Root
v -0.077 0.258 -0.067
v -0.1 0.283 0.01
v -0.071 0.22 0.063
v -0.031 0.158 0.019
v -0.035 0.182 -0.062
v -0.405 0.011 -0.064
v -0.412 0.017 -0.042
v -0.404 0 -0.028
v -0.393 -0.017 -0.04
v -0.393 -0.011 -0.062
usemtl Bark
s off
f 25 24 23 22 21
f 26 27 28 29 30
f 21 22 27 26
f 22 23 28 27
f 23 24 29 28
f 24 25 30 29
f 25 21 26 30
o Root
v 0.068 0.258 -0.076
v -0.009 0.283 -0.1
v -0.062 0.22 -0.072
v -0.018 0.158 -0.031
v 0.062 0.182 -0.034
v 0.072 0.011 -0.404
v 0.05 0.017 -0.411
v 0.036 0 -0.403
v 0.047 -0.017 -0.392
v 0.07 -0.011 -0.393
usemtl Bark
s off
f 35 34 33 32 31
f 36 37 38 39 40
f 31 32 37 36
f 32 33 38 37
f 33 34 39 38
f 34 35 40 39
f 35 31 36 40
o Trunk
v 0.084 0.006 -0.145
v 0.168 0.006 0
v 0.084 0 0.145
v -0.084 -0.006 0.145
v -0.168 -0.006 0
v -0.084 0 -0.145
v -0.013 2.335 -0.066
v 0.054 2.335 0.049
v -0.013 2.329 0.165
v -0.145 2.324 0.165
v -0.212 2.324 0.049
v -0.145 2.329 -0.066
usemtl Bark
s off
f 46 45 44 43 42 41
f 47 48 49 50 51 52
f 41 42 48 47
f 42 43 49 48
f 43 44 50 49
f 44 45 51 50
f 45 46 52 51
f 46 41 47 52
o Trunk
v -0.013 2.322 -0.066
v 0.054 2.321 0.049
v -0.013 2.328 0.165
v -0.145 2.337 0.165
v -0.212 2.338 0.049
v -0.145 2.33 -0.066
v 0.099 4.654 -0.086
v 0.148 4.652 0
v 0.099 4.658 0.086
v 0 4.664 0.086
v -0.049 4.665 0
v 0 4.66 -0.086
usemtl Bark
s off
f 58 57 56 55 54 53
f 59 60 61 62 63 64
f 53 54 60 59
f 54 55 61 60
f 55 56 62 61
f 56 57 63 62
f 57 58 64 63
f 58 53 59 64
o Branch
v 0.012 4.038 -0.046
v 0.044 4.047 0.001
v 0.016 4.024 0.046
v -0.035 4 0.028
v -0.036 4.009 -0.03
v -0.882 5.937 0.273
v -0.866 5.941 0.297
v -0.88 5.929 0.32
v -0.905 5.918 0.31
v -0.906 5.922 0.281
usemtl Bark
s off
f 69 68 67 66 65
f 70 71 72 73 74
f 65 66 71 70
f 66 67 72 71
f 67 68 73 72
f 68 69 74 73
f 69 65 70 74
o Branch
v 0.027 4.007 -0.038
v 0.042 4.004 0.017
v 0 4.029 0.049
v -0.042 4.046 0.013
v -0.027 4.032 -0.04
v 0.9 6.133 -0.217
v 0.909 6.132 -0.188
v 0.888 6.143 -0.173
v 0.866 6.152 -0.19
v 0.875 6.145 -0.218
usemtl Bark
s off
f 79 78 77 76 75
f 80 81 82 83 84
f 75 76 81 80
f 76 77 82 81
f 77 78 83 82
f 78 79 84 83
f 79 75 80 84
o Branch
v 0.029 4.037 -0.037
v 0.047 4.016 0.014
v 0 4.004 0.046
v -0.047 4.019 0.015
v -0.029 4.039 -0.036
v 0.113 6.572 0.869
v 0.122 6.56 0.894
v 0.099 6.555 0.91
v 0.075 6.563 0.895
v 0.084 6.573 0.869
usemtl Bark
s off
f 89 88 87 86 85
f 90 91 92 93 94
f 85 86 91 90
f 86 87 92 91
f 87 88 93 92
f 88 89 94 93
f 89 85 90 94
o Crown
v 0.851 5.082 0.658
v 0.184 5.082 1.136
v -0.59 5.082 0.95
v -1.019 5.082 0.206
v -0.851 5.082 -0.658
v -0.184 5.082 -1.136
v 0.59 5.082 -0.95
v 1.019 5.082 -0.206
v 1.419 6.988 1.097
v 0.308 6.988 1.893
v -0.983 6.988 1.582
v -1.698 6.988 0.344
v -1.419 6.988 -1.097
v -0.308 6.988 -1.893
v 0.983 6.988 -1.582
v 1.698 6.988 -0.344
usemtl Paint
s off
f 102 101 100 99 98 97 96 95
f 103 104 105 106 107 108 109 110
f 95 96 104 103
f 96 97 105 104
f 97 98 106 105
f 98 99 107 106
f 99 100 108 107
f 100 101 109 108
f 101 102 110 109
f 102 95 103 110
o Crown
v 1.131 6.988 1.454
v -0.121 6.988 1.92
v -1.303 6.988 1.262
v -1.722 6.988 -0.135
v -1.131 6.988 -1.454
v 0.121 6.988 -1.92
v 1.303 6.988 -1.262
v 1.722 6.988 0.135
v 0.339 8.894 0.436
v -0.036 8.894 0.576
v -0.391 8.894 0.379
v -0.517 8.894 -0.04
v -0.339 8.894 -0.436
v 0.036 8.894 -0.576
v 0.391 8.894 -0.379
v 0.517 8.894 0.04
usemtl Paint
s off
f 118 117 116 115 114 113 112 111
f 119 120 121 122 123 124 125 126
f 111 112 120 119
f 112 113 121 120
f 113 114 122 121
f 114 115 123 122
f 115 116 124 123
f 116 117 125 124
f 117 118 126 125
f 118 111 119 126
o Crown
v -1.656 5.718 0.416
v -1.44 5.718 0.029
v -0.967 5.718 0.007
v -0.711 5.718 0.373
v -0.927 5.718 0.76
v -1.399 5.718 0.782
v -1.971 6.353 0.43
v -1.611 6.353 -0.215
v -0.823 6.353 -0.251
v -0.395 6.353 0.359
v -0.755 6.353 1.004
v -1.543 6.353 1.04
usemtl Paint
s off
f 132 131 130 129 128 127
f 133 134 135 136 137 138
f 127 128 134 133
f 128 129 135 134
f 129 130 136 135
f 130 131 137 136
f 131 132 138 137
f 132 127 133 138
o Crown
v -1.957 6.353 0.25
v -1.434 6.353 -0.294
v -0.661 6.353 -0.149
v -0.41 6.353 0.539
v -0.933 6.353 1.083
v -1.706 6.353 0.938
v -1.415 6.988 0.351
v -1.258 6.988 0.188
v -1.027 6.988 0.232
v -0.952 6.988 0.438
v -1.108 6.988 0.601
v -1.34 6.988 0.557
usemtl Paint
s off
f 144 143 142 141 140 139
f 145 146 147 148 149 150
f 139 140 146 145
f 140 141 147 146
f 141 142 148 147
f 142 143 149 148
f 143 144 150 149
f 144 139 145 150
o Crown
v 0.701 5.89 -0.173
v 0.819 5.89 -0.593
v 1.3 5.89 -0.716
v 1.666 5.89 -0.419
v 1.548 5.89 0.001
v 1.067 5.89 0.124
v 0.38 6.565 -0.09
v 0.575 6.565 -0.791
v 1.378 6.565 -0.997
v 1.987 6.565 -0.502
v 1.792 6.565 0.199
v 0.989 6.565 0.405
usemtl Paint
s off
f 156 155 154 153 152 151
f 157 158 159 160 161 162
f 151 152 158 157
f 152 153 159 158
f 153 154 160 159
f 154 155 161 160
f 155 156 162 161
f 156 151 157 162
o Crown
v 0.346 6.565 -0.267
v 0.736 6.565 -0.905
v 1.574 6.565 -0.934
v 2.021 6.565 -0.324
v 1.631 6.565 0.314
v 0.793 6.565 0.342
v 0.932 7.24 -0.287
v 1.049 7.24 -0.478
v 1.301 7.24 -0.487
v 1.435 7.24 -0.305
v 1.318 7.24 -0.113
v 1.066 7.24 -0.105
usemtl Paint
s off
f 168 167 166 165 164 163
f 169 170 171 172 173 174
f 163 164 170 169
f 164 165 171 170
f 165 166 172 171
f 166 167 173 172
f 167 168 174 173
f 168 163 169 174
o Crown
v 0.25 7.729 0.801
v -0.184 7.729 0.597
v -0.237 7.729 0.092
v 0.145 7.729 -0.209
v 0.579 7.729 -0.005
v 0.631 7.729 0.5
v 0.284 8.365 1.137
v -0.439 8.365 0.797
v -0.526 8.365 -0.044
v 0.11 8.365 -0.545
v 0.833 8.365 -0.205
v 0.92 8.365 0.636
usemtl Paint
s off
f 180 179 178 177 176 175
f 181 182 183 184 185 186
f 175 176 182 181
f 176 177 183 182
f 177 178 184 183
f 178 179 185 184
f 179 180 186 185
f 180 175 181 186
o Crown
v 0.088 8.365 1.134
v -0.535 8.365 0.612
v -0.424 8.365 -0.225
v 0.307 8.365 -0.542
v 0.929 8.365 -0.021
v 0.819 8.365 0.817
v 0.165 9 0.547
v -0.023 9 0.391
v 0.011 9 0.14
v 0.23 9 0.044
v 0.417 9 0.201
v 0.384 9 0.452
usemtl Paint
s off
f 192 191 190 189 188 187
f 193 194 195 196 197 198
f 187 188 194 193
f 188 189 195 194
f 189 190 196 195
f 190 191 197 196
f 191 192 198 197
f 192 187 193 198
o Crown
v 0.393 5.758 -0.759
v -0.031 5.758 -0.889
v -0.128 5.758 -1.313
v 0.198 5.758 -1.607
v 0.622 5.758 -1.478
v 0.72 5.758 -1.054
v 0.459 6.353 -0.477
v -0.248 6.353 -0.692
v -0.41 6.353 -1.398
v 0.133 6.353 -1.89
v 0.839 6.353 -1.675
v 1.002 6.353 -0.968
usemtl Paint
s off
f 204 203 202 201 200 199
f 205 206 207 208 209 210
f 199 200 206 205
f 200 201 207 206
f 201 202 208 207
f 202 203 209 208
f 203 204 210 209
f 204 199 205 210
o Crown
v 0.275 6.353 -0.46
v -0.355 6.353 -0.839
v -0.334 6.353 -1.563
v 0.317 6.353 -1.907
v 0.947 6.353 -1.528
v 0.926 6.353 -0.804
v 0.29 6.949 -0.966
v 0.101 6.949 -1.08
v 0.107 6.949 -1.297
v 0.302 6.949 -1.4
v 0.491 6.949 -1.287
v 0.485 6.949 -1.07
usemtl Paint
s off
f 216 215 214 213 212 211
f 217 218 219 220 221 222
f 211 212 218 217
f 212 213 219 218
f 213 214 220 219
f 214 215 221 220
f 215 216 222 221
f 216 211 217 222
o Clump
v 0.757 6.264 -1.672
v 0.503 6.264 -1.59
v 0.346 6.264 -1.808
v 0.505 6.264 -2.023
v 0.758 6.264 -1.939
v 0.647 6.606 -1.752
v 0.545 6.606 -1.72
v 0.483 6.606 -1.807
v 0.546 6.606 -1.893
v 0.648 6.606 -1.86
usemtl Paint
s off
f 227 226 225 224 223
f 228 229 230 231 232
f 223 224 229 228
f 224 225 230 229
f 225 226 231 230
f 226 227 232 231
f 227 223 228 232
o Clump
v 0.748 6.644 -0.939
v 0.506 6.644 -1.005
v 0.494 6.644 -1.255
v 0.729 6.644 -1.344
v 0.886 6.644 -1.148
v 0.702 6.964 -1.058
v 0.606 6.964 -1.085
v 0.602 6.964 -1.185
v 0.695 6.964 -1.221
v 0.757 6.964 -1.142
usemtl LeafLight
s off
f 237 236 235 234 233
f 238 239 240 241 242
f 233 234 239 238
f 234 235 240 239
f 235 236 241 240
f 236 237 242 241
f 237 233 238 242
o Clump
v -0.717 6.266 1.161
v -0.94 6.266 1.055
v -0.909 6.266 0.811
v -0.667 6.266 0.764
v -0.547 6.266 0.981
v -0.741 6.582 1.037
v -0.829 6.582 0.995
v -0.818 6.582 0.897
v -0.72 6.582 0.879
v -0.673 6.582 0.965
usemtl LeafDark
s off
f 247 246 245 244 243
f 248 249 250 251 252
f 243 244 249 248
f 244 245 250 249
f 245 246 251 250
f 246 247 252 251
f 247 243 248 252
o Clump
v 0.814 6.07 -1.315
v 0.744 6.07 -1.503
v 0.901 6.07 -1.628
v 1.069 6.07 -1.516
v 1.015 6.07 -1.322
v 0.871 6.328 -1.399
v 0.842 6.328 -1.475
v 0.905 6.328 -1.526
v 0.972 6.328 -1.48
v 0.951 6.328 -1.403
usemtl Paint
s off
f 257 256 255 254 253
f 258 259 260 261 262
f 253 254 259 258
f 254 255 260 259
f 255 256 261 260
f 256 257 262 261
f 257 253 258 262
o Clump
v -0.578 6.199 -0.868
v -0.54 6.199 -1.137
v -0.273 6.199 -1.184
v -0.145 6.199 -0.946
v -0.333 6.199 -0.75
v -0.456 6.547 -0.933
v -0.441 6.547 -1.041
v -0.333 6.547 -1.06
v -0.282 6.547 -0.964
v -0.358 6.547 -0.886
usemtl LeafLight
s off
f 267 266 265 264 263
f 268 269 270 271 272
f 263 264 269 268
f 264 265 270 269
f 265 266 271 270
f 266 267 272 271
f 267 263 268 272
o Clump
v 0.741 6.454 -1.414
v 0.477 6.454 -1.506
v 0.482 6.454 -1.784
v 0.75 6.454 -1.865
v 0.908 6.454 -1.637
v 0.699 6.81 -1.55
v 0.594 6.81 -1.587
v 0.596 6.81 -1.698
v 0.702 6.81 -1.731
v 0.766 6.81 -1.639
usemtl LeafDark
s off
f 277 276 275 274 273
f 278 279 280 281 282
f 273 274 279 278
f 274 275 280 279
f 275 276 281 280
f 276 277 282 281
f 277 273 278 282
o Clump
v -1.831 6.638 0.413
v -1.778 6.638 0.142
v -1.504 6.638 0.109
v -1.388 6.638 0.36
v -1.59 6.638 0.547
v -1.703 6.99 0.354
v -1.682 6.99 0.246
v -1.572 6.99 0.233
v -1.526 6.99 0.332
v -1.607 6.99 0.407
usemtl Paint
s off
f 287 286 285 284 283
f 288 289 290 291 292
f 283 284 289 288
f 284 285 290 289
f 285 286 291 290
f 286 287 292 291
f 287 283 288 292
o Clump
v 0.648 8.053 1.101
v 0.438 8.053 1.216
v 0.263 8.053 1.051
v 0.365 8.053 0.835
v 0.603 8.053 0.865
v 0.537 8.359 1.048
v 0.453 8.359 1.095
v 0.384 8.359 1.029
v 0.424 8.359 0.942
v 0.519 8.359 0.954
usemtl LeafLight
s off
f 297 296 295 294 293
f 298 299 300 301 302
f 293 294 299 298
f 294 295 300 299
f 295 296 301 300
f 296 297 302 301
f 297 293 298 302
o Clump
v 0.415 8.587 -0.249
v 0.233 8.587 -0.172
v 0.103 8.587 -0.321
v 0.205 8.587 -0.491
v 0.397 8.587 -0.446
v 0.328 8.841 -0.301
v 0.255 8.841 -0.27
v 0.203 8.841 -0.329
v 0.245 8.841 -0.397
v 0.321 8.841 -0.38
usemtl LeafDark
s off
f 307 306 305 304 303
f 308 309 310 311 312
f 303 304 309 308
f 304 305 310 309
f 305 306 311 310
f 306 307 312 311
f 307 303 308 312
o Clump
v -0.607 6.589 0.832
v -0.85 6.589 0.971
v -1.057 6.589 0.783
v -0.943 6.589 0.529
v -0.664 6.589 0.558
v -0.737 6.947 0.774
v -0.834 6.947 0.829
v -0.917 6.947 0.754
v -0.872 6.947 0.652
v -0.76 6.947 0.664
usemtl Paint
s off
f 317 316 315 314 313
f 318 319 320 321 322
f 313 314 319 318
f 314 315 320 319
f 315 316 321 320
f 316 317 322 321
f 317 313 318 322
o Clump
v 1.228 6.503 -0.83
v 1.061 6.503 -0.895
v 1.072 6.503 -1.075
v 1.246 6.503 -1.119
v 1.341 6.503 -0.968
v 1.205 6.732 -0.919
v 1.138 6.732 -0.945
v 1.142 6.732 -1.017
v 1.212 6.732 -1.035
v 1.25 6.732 -0.974
usemtl LeafLight
s off
f 327 326 325 324 323
f 328 329 330 331 332
f 323 324 329 328
f 324 325 330 329
f 325 326 331 330
f 326 327 332 331
f 327 323 328 332
o Clump
v 0.63 6.474 -0.336
v 0.401 6.474 -0.179
v 0.181 6.474 -0.349
v 0.274 6.474 -0.61
v 0.551 6.474 -0.603
v 0.497 6.828 -0.384
v 0.405 6.828 -0.321
v 0.318 6.828 -0.389
v 0.354 6.828 -0.493
v 0.465 6.828 -0.49
usemtl LeafDark
s off
f 337 336 335 334 333
f 338 339 340 341 342
f 333 334 339 338
f 334 335 340 339
f 335 336 341 340
f 336 337 342 341
f 337 333 338 342
o Clump
v -0.37 6.289 -0.714
v -0.603 6.289 -0.911
v -0.487 6.289 -1.194
v -0.182 6.289 -1.172
v -0.109 6.289 -0.875
v -0.358 6.681 -0.87
v -0.452 6.681 -0.949
v -0.405 6.681 -1.062
v -0.283 6.681 -1.053
v -0.254 6.681 -0.934
usemtl Paint
s off
f 347 346 345 344 343
f 348 349 350 351 352
f 343 344 349 348
f 344 345 350 349
f 345 346 351 350
f 346 347 352 351
f 347 343 348 352
o Clump
v -0.36 6.243 -0.588
v -0.411 6.243 -0.809
v -0.217 6.243 -0.926
v -0.045 6.243 -0.777
v -0.134 6.243 -0.568
v -0.284 6.533 -0.676
v -0.305 6.533 -0.763
v -0.227 6.533 -0.811
v -0.159 6.533 -0.75
v -0.194 6.533 -0.668
usemtl LeafLight
s off
f 357 356 355 354 353
f 358 359 360 361 362
f 353 354 359 358
f 354 355 360 359
f 355 356 361 360
f 356 357 362 361
f 357 353 358 362
o Clump
v -0.177 8.481 0.624
v -0.347 8.481 0.813
v -0.58 8.481 0.709
v -0.553 8.481 0.457
v -0.304 8.481 0.403
v -0.306 8.806 0.61
v -0.374 8.806 0.686
v -0.466 8.806 0.645
v -0.457 8.806 0.543
v -0.357 8.806 0.522
usemtl LeafDark
s off
f 367 366 365 364 363
f 368 369 370 371 372
f 363 364 369 368
f 364 365 370 369
f 365 366 371 370
f 366 367 372 371
f 367 363 368 372
o Clump
v 0.625 6.467 0.493
v 0.476 6.467 0.228
v 0.682 6.467 0.005
v 0.959 6.467 0.131
v 0.923 6.467 0.433
v 0.69 6.855 0.352
v 0.63 6.855 0.247
v 0.713 6.855 0.157
v 0.823 6.855 0.207
v 0.809 6.855 0.328
usemtl Paint
s off
f 377 376 375 374 373
f 378 379 380 381 382
f 373 374 379 378
f 374 375 380 379
f 375 376 381 380
f 376 377 382 381
f 377 373 378 382
o Clump
v -0.13 6.398 -1.524
v -0.284 6.398 -1.646
v -0.215 6.398 -1.829
v -0.019 6.398 -1.821
v 0.034 6.398 -1.632
v -0.125 6.649 -1.623
v -0.187 6.649 -1.673
v -0.16 6.649 -1.746
v -0.081 6.649 -1.743
v -0.06 6.649 -1.667
usemtl LeafLight
s off
f 387 386 385 384 383
f 388 389 390 391 392
f 383 384 389 388
f 384 385 390 389
f 385 386 391 390
f 386 387 392 391
f 387 383 388 392
o Clump
v -0.146 6.415 -1.662
v -0.106 6.415 -1.91
v 0.143 6.415 -1.949
v 0.256 6.415 -1.725
v 0.078 6.415 -1.547
v -0.031 6.737 -1.72
v -0.015 6.737 -1.82
v 0.085 6.737 -1.834
v 0.13 6.737 -1.745
v 0.058 6.737 -1.674
usemtl LeafDark
s off
f 397 396 395 394 393
f 398 399 400 401 402
f 393 394 399 398
f 394 395 400 399
f 395 396 401 400
f 396 397 402 401
f 397 393 398 402
o Clump
v -0.378 6.014 0.858
v -0.637 6.014 0.93
v -0.786 6.014 0.706
v -0.618 6.014 0.494
v -0.366 6.014 0.589
v -0.485 6.358 0.772
v -0.589 6.358 0.801
v -0.649 6.358 0.711
v -0.582 6.358 0.627
v -0.48 6.358 0.665
usemtl Paint
s off
f 407 406 405 404 403
f 408 409 410 411 412
f 403 404 409 408
f 404 405 410 409
f 405 406 411 410
f 406 407 412 411
f 407 403 408 412
o Clump
v 0.465 8.482 -0.035
v 0.516 8.482 -0.319
v 0.802 8.482 -0.358
v 0.927 8.482 -0.098
v 0.719 8.482 0.102
v 0.598 8.851 -0.099
v 0.618 8.851 -0.212
v 0.733 8.851 -0.228
v 0.782 8.851 -0.124
v 0.699 8.851 -0.044
usemtl LeafLight
s off
f 417 416 415 414 413
f 418 419 420 421 422
f 413 414 419 418
f 414 415 420 419
f 415 416 421 420
f 416 417 422 421
f 417 413 418 422
o Clump
v 0.744 8.297 0.739
v 0.735 8.297 0.546
v 0.916 8.297 0.479
v 1.036 8.297 0.63
v 0.929 8.297 0.791
v 0.821 8.544 0.678
v 0.818 8.544 0.601
v 0.89 8.544 0.574
v 0.938 8.544 0.634
v 0.894 8.544 0.698
usemtl LeafDark
s off
f 427 426 425 424 423
f 428 429 430 431 432
f 423 424 429 428
f 424 425 430 429
f 425 426 431 430
f 426 427 432 431
f 427 423 428 432
o Clump
v -0.531 8.259 0.977
v -0.524 8.259 0.707
v -0.265 8.259 0.63
v -0.112 8.259 0.852
v -0.276 8.259 1.067
v -0.417 8.604 0.898
v -0.414 8.604 0.791
v -0.311 8.604 0.759
v -0.25 8.604 0.849
v -0.316 8.604 0.935
usemtl Paint
s off
f 437 436 435 434 433
f 438 439 440 441 442
f 433 434 439 438
f 434 435 440 439
f 435 436 441 440
f 436 437 442 441
f 437 433 438 442
o Clump
v 1.905 6.242 -0.496
v 1.623 6.242 -0.535
v 1.572 6.242 -0.815
v 1.822 6.242 -0.95
v 2.029 6.242 -0.753
v 1.836 6.606 -0.624
v 1.723 6.606 -0.64
v 1.703 6.606 -0.751
v 1.803 6.606 -0.806
v 1.886 6.606 -0.727
usemtl LeafLight
s off
f 447 446 445 444 443
f 448 449 450 451 452
f 443 444 449 448
f 444 445 450 449
f 445 446 451 450
f 446 447 452 451
f 447 443 448 452
o Clump
v 0.571 8.592 0.938
v 0.334 8.592 1.069
v 0.136 8.592 0.886
v 0.25 8.592 0.64
v 0.519 8.592 0.673
v 0.446 8.939 0.88
v 0.351 8.939 0.932
v 0.272 8.939 0.859
v 0.318 8.939 0.76
v 0.425 8.939 0.773
usemtl LeafDark
s off
f 457 456 455 454 453
f 458 459 460 461 462
f 453 454 459 458
f 454 455 460 459
f 455 456 461 460
f 456 457 462 461
f 457 453 458 462
o Grass
v -0.451 0.001 -0.137
v -0.471 -0.002 -0.1
v -0.493 0.001 -0.137
v -0.464 0.307 -0.102
v -0.466 0.307 -0.098
v -0.468 0.307 -0.102
usemtl Grass
s off
f 465 464 463
f 466 467 468
f 463 464 467 466
f 464 465 468 467
f 465 463 466 468
o Grass
v -0.451 0 -0.137
v -0.471 0.002 -0.1
v -0.493 -0.002 -0.137
v -0.478 0.236 -0.141
v -0.481 0.237 -0.138
v -0.483 0.236 -0.141
usemtl Grass
s off
f 471 470 469
f 472 473 474
f 469 470 473 472
f 470 471 474 473
f 471 469 472 474
o Grass
v -0.451 -0.004 -0.136
v -0.471 0.006 -0.101
v -0.493 -0.002 -0.137
v -0.461 0.264 -0.182
v -0.464 0.265 -0.179
v -0.465 0.264 -0.182
usemtl Grass
s off
f 477 476 475
f 478 479 480
f 475 476 479 478
f 476 477 480 479
f 477 475 478 480
o Grass
v -0.636 0 -0.286
v -0.658 0.005 -0.25
v -0.679 -0.005 -0.285
v -0.686 0.276 -0.332
v -0.688 0.276 -0.329
v -0.691 0.275 -0.332
usemtl Grass
s off
f 483 482 481
f 484 485 486
f 481 482 485 484
f 482 483 486 485
f 483 481 484 486
o Grass
v -0.636 -0.003 -0.286
v -0.658 -0.002 -0.25
v -0.679 0.004 -0.286
v -0.614 0.259 -0.26
v -0.616 0.259 -0.256
v -0.618 0.26 -0.26
usemtl Grass
s off
f 489 488 487
f 490 491 492
f 487 488 491 490
f 488 489 492 491
f 489 487 490 492
o Grass
v -0.636 0.001 -0.286
v -0.658 0.003 -0.25
v -0.679 -0.004 -0.286
v -0.681 0.298 -0.309
v -0.684 0.299 -0.305
v -0.686 0.298 -0.309
usemtl Grass
s off
f 495 494 493
f 496 497 498
f 493 494 497 496
f 494 495 498 497
f 495 493 496 498
o Litter
v 0.141 0 1.299
v 0.06 0 1.264
v 0.079 0 1.196
v 0.172 0 1.188
v 0.209 0 1.252
v 0.141 0.021 1.299
v 0.06 0.021 1.264
v 0.079 0.021 1.196
v 0.172 0.021 1.188
v 0.209 0.021 1.252
usemtl LeafDry
s off
f 503 502 501 500 499
f 504 505 506 507 508
f 499 500 505 504
f 500 501 506 505
f 501 502 507 506
f 502 503 508 507
f 503 499 504 508
o Grass
v -0.225 0.003 0.509
v -0.246 -0.001 0.545
v -0.267 -0.002 0.509
v -0.277 0.306 0.527
v -0.279 0.305 0.531
v -0.282 0.305 0.527
usemtl Grass
s off
f 511 510 509
f 512 513 514
f 509 510 513 512
f 510 511 514 513
f 511 509 512 514
o Grass
v -0.225 -0.002 0.509
v -0.246 0 0.545
v -0.267 0.003 0.509
v -0.208 0.321 0.526
v -0.211 0.321 0.529
v -0.213 0.321 0.526
usemtl Grass
s off
f 517 516 515
f 518 519 520
f 515 516 519 518
f 516 517 520 519
f 517 515 518 520
o Grass
v -0.225 -0.005 0.509
v -0.246 0.005 0.545
v -0.267 0 0.508
v -0.204 0.316 0.461
v -0.206 0.317 0.464
v -0.208 0.316 0.461
usemtl Grass
s off
f 523 522 521
f 524 525 526
f 521 522 525 524
f 522 523 526 525
f 523 521 524 526
o Grass
v -0.607 0 -0.355
v -0.628 -0.004 -0.319
v -0.649 0.004 -0.355
v -0.597 0.325 -0.296
v -0.599 0.325 -0.292
v -0.601 0.326 -0.296
usemtl Grass
s off
f 529 528 527
f 530 531 532
f 527 528 531 530
f 528 529 532 531
f 529 527 530 532
o Grass
v -0.607 -0.002 -0.356
v -0.628 -0.002 -0.319
v -0.649 0.004 -0.355
v -0.582 0.314 -0.316
v -0.584 0.314 -0.312
v -0.586 0.314 -0.316
usemtl Grass
s off
f 535 534 533
f 536 537 538
f 533 534 537 536
f 534 535 538 537
f 535 533 536 538
o Grass
v -0.607 -0.001 -0.355
v -0.628 0.002 -0.319
v -0.649 0 -0.355
v -0.62 0.241 -0.36
v -0.622 0.241 -0.356
v -0.624 0.241 -0.36
usemtl Grass
s off
f 541 540 539
f 542 543 544
f 539 540 543 542
f 540 541 544 543
f 541 539 542 544
o Litter
v 1.091 0 -0.116
v 1.045 0 -0.056
v 0.955 0 -0.07
v 0.944 0 -0.139
v 1.029 0 -0.168
v 1.091 0.021 -0.116
v 1.045 0.021 -0.056
v 0.955 0.021 -0.07
v 0.944 0.021 -0.139
v 1.029 0.021 -0.168
usemtl LeafDry
s off
f 549 548 547 546 545
f 550 551 552 553 554
f 545 546 551 550
f 546 547 552 551
f 547 548 553 552
f 548 549 554 553
f 549 545 550 554
o Grass
v -0.216 -0.007 0.672
v -0.237 0.005 0.707
v -0.257 0.002 0.67
v -0.18 0.256 0.638
v -0.182 0.257 0.641
v -0.184 0.257 0.637
usemtl Grass
s off
f 557 556 555
f 558 559 560
f 555 556 559 558
f 556 557 560 559
f 557 555 558 560
o Grass
v -0.216 0.001 0.671
v -0.237 0.004 0.707
v -0.257 -0.006 0.672
v -0.285 0.307 0.631
v -0.287 0.307 0.634
v -0.289 0.306 0.631
usemtl Grass
s off
f 563 562 561
f 564 565 566
f 561 562 565 564
f 562 563 566 565
f 563 561 564 566
o Grass
v -0.215 -0.002 0.671
v -0.237 -0.001 0.708
v -0.257 0.003 0.671
v -0.205 0.288 0.688
v -0.207 0.288 0.692
v -0.21 0.288 0.688
usemtl Grass
s off
f 569 568 567
f 570 571 572
f 567 568 571 570
f 568 569 572 571
f 569 567 570 572
o Grass
v 0.131 0.001 0.744
v 0.109 -0.002 0.78
v 0.089 0.001 0.744
v 0.108 0.291 0.779
v 0.107 0.291 0.783
v 0.105 0.291 0.779
usemtl Grass
s off
f 575 574 573
f 576 577 578
f 573 574 577 576
f 574 575 578 577
f 575 573 576 578
o Grass
v 0.131 0 0.743
v 0.109 0.006 0.779
v 0.089 -0.006 0.745
v 0.084 0.219 0.704
v 0.081 0.22 0.708
v 0.079 0.219 0.705
usemtl Grass
s off
f 581 580 579
f 582 583 584
f 579 580 583 582
f 580 581 584 583
f 581 579 582 584
o Grass
v 0.131 0.006 0.745
v 0.109 -0.005 0.779
v 0.089 -0.001 0.743
v 0.074 0.254 0.807
v 0.072 0.253 0.811
v 0.07 0.254 0.807
usemtl Grass
s off
f 587 586 585
f 588 589 590
f 585 586 589 588
f 586 587 590 589
f 587 585 588 590
