# tree_spruce.obj - Fichte (Holz) fuer procedurally-generated-map
# Einheiten: Meter, Y oben, Vorderseite nach +Z - so wie Blender ein Modell
# exportiert, das in der Vorderansicht zum Betrachter schaut.
# Material Paint (das Laub) bekommt eine je Baum leicht andere Farbe.
mtllib tree_spruce.mtl
o Root
v 0.162 0.697 0.112
v 0.188 0.763 -0.042
v 0.123 0.592 -0.139
v 0.06 0.422 -0.043
v 0.083 0.488 0.112
v 0.858 0.03 0.034
v 0.866 0.048 -0.009
v 0.847 0 -0.037
v 0.83 -0.048 -0.009
v 0.836 -0.03 0.034
usemtl Bark
s off
f 5 4 3 2 1
f 6 7 8 9 10
f 1 2 7 6
f 2 3 8 7
f 3 4 9 8
f 4 5 10 9
f 5 1 6 10
o Root
v -0.074 0.697 0.183
v 0.083 0.763 0.173
v 0.162 0.592 0.089
v 0.055 0.422 0.049
v -0.091 0.488 0.106
v 0.157 0.03 0.844
v 0.2 0.048 0.841
v 0.222 0 0.818
v 0.193 -0.048 0.807
v 0.151 -0.03 0.823
usemtl Bark
s off
f 15 14 13 12 11
f 16 17 18 19 20
f 11 12 17 16
f 12 13 18 17
f 13 14 19 18
f 14 15 20 19
f 15 11 16 20
o Root
v -0.197 0.697 -0.009
v -0.137 0.763 0.136
v -0.032 0.592 0.183
v -0.028 0.422 0.068
v -0.131 0.488 -0.051
v -0.746 0.03 0.425
v -0.729 0.048 0.465
v -0.699 0 0.479
v -0.699 -0.048 0.447
v -0.727 -0.03 0.414
usemtl Bark
s off
f 25 24 23 22 21
f 26 27 28 29 30
f 21 22 27 26
f 22 23 28 27
f 23 24 29 28
f 24 25 30 29
f 25 21 26 30
o Root
v -0.028 0.697 -0.196
v -0.159 0.763 -0.108
v -0.185 0.592 0.003
v -0.072 0.422 -0.014
v 0.026 0.488 -0.137
v -0.559 0.03 -0.652
v -0.596 0.048 -0.627
v -0.604 0 -0.596
v -0.571 -0.048 -0.601
v -0.545 -0.03 -0.635
usemtl Bark
s off
f 35 34 33 32 31
f 36 37 38 39 40
f 31 32 37 36
f 32 33 38 37
f 33 34 39 38
f 34 35 40 39
f 35 31 36 40
o Root
v 0.159 0.697 -0.117
v 0.02 0.763 -0.191
v -0.091 0.592 -0.162
v -0.022 0.422 -0.071
v 0.134 0.488 -0.043
v 0.31 0.03 -0.801
v 0.271 0.048 -0.821
v 0.24 0 -0.813
v 0.259 -0.048 -0.789
v 0.302 -0.03 -0.781
usemtl Bark
s off
f 45 44 43 42 41
f 46 47 48 49 50
f 41 42 47 46
f 42 43 48 47
f 43 44 49 48
f 44 45 50 49
f 45 41 46 50
o Trunk
v 0.154 0 -0.266
v 0.308 0 0
v 0.154 0 0.266
v -0.154 0 0.266
v -0.308 0 0
v -0.154 0 -0.266
v 0.039 16.405 -0.066
v 0.077 16.405 0
v 0.039 16.405 0.066
v -0.039 16.405 0.066
v -0.077 16.405 0
v -0.039 16.405 -0.066
usemtl BarkDark
s off
f 56 55 54 53 52 51
f 57 58 59 60 61 62
f 51 52 58 57
f 52 53 59 58
f 53 54 60 59
f 54 55 61 60
f 55 56 62 61
f 56 51 57 62
o Tier
v 2.126 1.823 0
v 1.503 1.823 1.503
v 0 1.823 2.126
v -1.503 1.823 1.503
v -2.126 1.823 0
v -1.503 1.823 -1.503
v 0 1.823 -2.126
v 1.503 1.823 -1.503
v 1.386 2.848 0
v 0.98 2.848 0.98
v 0 2.848 1.386
v -0.98 2.848 0.98
v -1.386 2.848 0
v -0.98 2.848 -0.98
v 0 2.848 -1.386
v 0.98 2.848 -0.98
usemtl NeedleDark
s off
f 70 69 68 67 66 65 64 63
f 71 72 73 74 75 76 77 78
f 63 64 72 71
f 64 65 73 72
f 65 66 74 73
f 66 67 75 74
f 67 68 76 75
f 68 69 77 76
f 69 70 78 77
f 70 63 71 78
o Tier
v 2.264 2.051 0.459
v 1.277 2.051 1.925
v -0.459 2.051 2.264
v -1.925 2.051 1.277
v -2.264 2.051 -0.459
v -1.277 2.051 -1.925
v 0.459 2.051 -2.264
v 1.925 2.051 -1.277
v 0.271 6.038 0.055
v 0.152 6.038 0.231
v -0.055 6.038 0.271
v -0.231 6.038 0.152
v -0.271 6.038 -0.055
v -0.152 6.038 -0.231
v 0.055 6.038 -0.271
v 0.231 6.038 -0.152
usemtl Paint
s off
f 86 85 84 83 82 81 80 79
f 87 88 89 90 91 92 93 94
f 79 80 88 87
f 80 81 89 88
f 81 82 90 89
f 82 83 91 90
f 83 84 92 91
f 84 85 93 92
f 85 86 94 93
f 86 79 87 94
o Tip
v 1.52 2.759 1.285
v 1.762 2.759 0.927
v 1.545 2.253 0.781
v 1.305 2.253 1.138
v 2.069 1.814 1.429
v 2.103 1.814 1.379
v 2.072 1.741 1.359
v 2.036 1.741 1.409
usemtl Paint
s off
f 98 97 96 95
f 99 100 101 102
f 95 96 100 99
f 96 97 101 100
f 97 98 102 101
f 98 95 99 102
o Cone
v 2.132 1.367 1.439
v 2.046 1.367 1.466
v 1.993 1.367 1.394
v 2.046 1.367 1.32
v 2.132 1.367 1.349
v 2.095 1.868 1.413
v 2.061 1.868 1.423
v 2.039 1.868 1.394
v 2.061 1.868 1.365
v 2.095 1.868 1.376
usemtl Cone
s off
f 107 106 105 104 103
f 108 109 110 111 112
f 103 104 109 108
f 104 105 110 109
f 105 106 111 110
f 106 107 112 111
f 107 103 108 112
o Tip
v 0.168 2.759 1.984
v 0.59 2.759 1.901
v 0.541 2.253 1.645
v 0.117 2.253 1.727
v 0.451 1.814 2.474
v 0.511 1.814 2.461
v 0.505 1.741 2.425
v 0.444 1.741 2.437
usemtl Needle
s off
f 116 115 114 113
f 117 118 119 120
f 113 114 118 117
f 114 115 119 118
f 115 116 120 119
f 116 113 117 120
o Tip
v -1.285 2.759 1.52
v -0.927 2.759 1.762
v -0.781 2.253 1.545
v -1.138 2.253 1.305
v -1.429 1.814 2.069
v -1.379 1.814 2.103
v -1.359 1.741 2.072
v -1.409 1.741 2.036
usemtl Paint
s off
f 124 123 122 121
f 125 126 127 128
f 121 122 126 125
f 122 123 127 126
f 123 124 128 127
f 124 121 125 128
o Tip
v -1.984 2.759 0.168
v -1.901 2.759 0.59
v -1.645 2.253 0.541
v -1.727 2.253 0.117
v -2.474 1.814 0.451
v -2.461 1.814 0.511
v -2.425 1.741 0.505
v -2.437 1.741 0.444
usemtl Needle
s off
f 132 131 130 129
f 133 134 135 136
f 129 130 134 133
f 130 131 135 134
f 131 132 136 135
f 132 129 133 136
o Cone
v -2.388 1.367 0.524
v -2.472 1.367 0.551
v -2.526 1.367 0.478
v -2.472 1.367 0.405
v -2.388 1.367 0.433
v -2.425 1.868 0.496
v -2.458 1.868 0.507
v -2.48 1.868 0.478
v -2.458 1.868 0.448
v -2.425 1.868 0.459
usemtl Cone
s off
f 141 140 139 138 137
f 142 143 144 145 146
f 137 138 143 142
f 138 139 144 143
f 139 140 145 144
f 140 141 146 145
f 141 137 142 146
o Tip
v -1.52 2.759 -1.285
v -1.762 2.759 -0.927
v -1.545 2.253 -0.781
v -1.305 2.253 -1.138
v -2.069 1.814 -1.429
v -2.103 1.814 -1.379
v -2.072 1.741 -1.359
v -2.036 1.741 -1.409
usemtl Paint
s off
f 150 149 148 147
f 151 152 153 154
f 147 148 152 151
f 148 149 153 152
f 149 150 154 153
f 150 147 151 154
o Tip
v -0.168 2.759 -1.984
v -0.59 2.759 -1.901
v -0.541 2.253 -1.645
v -0.117 2.253 -1.727
v -0.451 1.814 -2.474
v -0.511 1.814 -2.461
v -0.505 1.741 -2.425
v -0.444 1.741 -2.437
usemtl Needle
s off
f 158 157 156 155
f 159 160 161 162
f 155 156 160 159
f 156 157 161 160
f 157 158 162 161
f 158 155 159 162
o Tip
v 1.285 2.759 -1.52
v 0.927 2.759 -1.762
v 0.781 2.253 -1.545
v 1.138 2.253 -1.305
v 1.429 1.814 -2.069
v 1.379 1.814 -2.103
v 1.359 1.741 -2.072
v 1.409 1.741 -2.036
usemtl Paint
s off
f 166 165 164 163
f 167 168 169 170
f 163 164 168 167
f 164 165 169 168
f 165 166 170 169
f 166 163 167 170
o Cone
v 1.456 1.367 -2.024
v 1.369 1.367 -1.996
v 1.317 1.367 -2.07
v 1.369 1.367 -2.143
v 1.456 1.367 -2.115
v 1.419 1.868 -2.052
v 1.385 1.868 -2.041
v 1.363 1.868 -2.07
v 1.385 1.868 -2.1
v 1.419 1.868 -2.087
usemtl Cone
s off
f 175 174 173 172 171
f 176 177 178 179 180
f 171 172 177 176
f 172 173 178 177
f 173 174 179 178
f 174 175 180 179
f 175 171 176 180
o Tip
v 1.984 2.759 -0.168
v 1.901 2.759 -0.59
v 1.645 2.253 -0.541
v 1.727 2.253 -0.117
v 2.474 1.814 -0.451
v 2.461 1.814 -0.511
v 2.425 1.741 -0.505
v 2.437 1.741 -0.444
usemtl Needle
s off
f 184 183 182 181
f 185 186 187 188
f 181 182 186 185
f 182 183 187 186
f 183 184 188 187
f 184 181 185 188
o Tier
v 1.69 4.215 0.715
v 0.69 4.215 1.701
v -0.715 4.215 1.69
v -1.701 4.215 0.69
v -1.69 4.215 -0.715
v -0.69 4.215 -1.701
v 0.715 4.215 -1.69
v 1.701 4.215 -0.69
v 1.103 5.241 0.467
v 0.45 5.241 1.109
v -0.467 5.241 1.103
v -1.109 5.241 0.45
v -1.103 5.241 -0.467
v -0.45 5.241 -1.109
v 0.467 5.241 -1.103
v 1.109 5.241 -0.45
usemtl NeedleDark
s off
f 196 195 194 193 192 191 190 189
f 197 198 199 200 201 202 203 204
f 189 190 198 197
f 190 191 199 198
f 191 192 200 199
f 192 193 201 200
f 193 194 202 201
f 194 195 203 202
f 195 196 204 203
f 196 189 197 204
o Tier
v 1.647 4.443 1.126
v 0.368 4.443 1.961
v -1.126 4.443 1.647
v -1.961 4.443 0.368
v -1.647 4.443 -1.126
v -0.368 4.443 -1.961
v 1.126 4.443 -1.647
v 1.961 4.443 -0.368
v 0.197 8.43 0.136
v 0.045 8.43 0.236
v -0.136 8.43 0.197
v -0.236 8.43 0.045
v -0.197 8.43 -0.136
v -0.045 8.43 -0.236
v 0.136 8.43 -0.197
v 0.236 8.43 -0.045
usemtl Paint
s off
f 212 211 210 209 208 207 206 205
f 213 214 215 216 217 218 219 220
f 205 206 214 213
f 206 207 215 214
f 207 208 216 215
f 208 209 217 216
f 209 210 218 217
f 210 211 219 218
f 211 212 220 219
f 212 205 213 220
o Tip
v 0.778 5.117 1.554
v 1.109 5.117 1.339
v 0.966 4.68 1.118
v 0.635 4.68 1.335
v 1.163 4.204 1.838
v 1.214 4.204 1.804
v 1.192 4.135 1.77
v 1.14 4.135 1.804
usemtl Paint
s off
f 224 223 222 221
f 225 226 227 228
f 221 222 226 225
f 222 223 227 226
f 223 224 228 227
f 224 221 225 228
o Tip
v -0.548 5.117 1.65
v -0.162 5.117 1.73
v -0.108 4.68 1.474
v -0.494 4.68 1.392
v -0.478 4.204 2.121
v -0.417 4.204 2.135
v -0.41 4.135 2.095
v -0.47 4.135 2.083
usemtl Needle
s off
f 232 231 230 229
f 233 234 235 236
f 229 230 234 233
f 230 231 235 234
f 231 232 236 235
f 232 229 233 236
o Tip
v -1.554 5.117 0.778
v -1.339 5.117 1.109
v -1.118 4.68 0.966
v -1.335 4.68 0.635
v -1.838 4.204 1.163
v -1.804 4.204 1.214
v -1.77 4.135 1.192
v -1.804 4.135 1.14
usemtl Paint
s off
f 240 239 238 237
f 241 242 243 244
f 237 238 242 241
f 238 239 243 242
f 239 240 244 243
f 240 237 241 244
o Cone
v -1.742 3.759 1.223
v -1.828 3.759 1.251
v -1.881 3.759 1.177
v -1.828 3.759 1.104
v -1.742 3.759 1.132
v -1.779 4.261 1.195
v -1.815 4.261 1.206
v -1.835 4.261 1.177
v -1.815 4.261 1.148
v -1.779 4.261 1.158
usemtl Cone
s off
f 249 248 247 246 245
f 250 251 252 253 254
f 245 246 251 250
f 246 247 252 251
f 247 248 253 252
f 248 249 254 253
f 249 245 250 254
o Tip
v -1.65 5.117 -0.548
v -1.73 5.117 -0.162
v -1.474 4.68 -0.108
v -1.392 4.68 -0.494
v -2.121 4.204 -0.478
v -2.135 4.204 -0.417
v -2.095 4.135 -0.41
v -2.083 4.135 -0.47
usemtl Needle
s off
f 258 257 256 255
f 259 260 261 262
f 255 256 260 259
f 256 257 261 260
f 257 258 262 261
f 258 255 259 262
o Tip
v -0.778 5.117 -1.554
v -1.109 5.117 -1.339
v -0.966 4.68 -1.118
v -0.635 4.68 -1.335
v -1.163 4.204 -1.838
v -1.214 4.204 -1.804
v -1.192 4.135 -1.77
v -1.14 4.135 -1.804
usemtl Paint
s off
f 266 265 264 263
f 267 268 269 270
f 263 264 268 267
f 264 265 269 268
f 265 266 270 269
f 266 263 267 270
o Tip
v 0.548 5.117 -1.65
v 0.162 5.117 -1.73
v 0.108 4.68 -1.474
v 0.494 4.68 -1.392
v 0.478 4.204 -2.121
v 0.417 4.204 -2.135
v 0.41 4.135 -2.095
v 0.47 4.135 -2.083
usemtl Needle
s off
f 274 273 272 271
f 275 276 277 278
f 271 272 276 275
f 272 273 277 276
f 273 274 278 277
f 274 271 275 278
o Cone
v 0.505 3.759 -2.063
v 0.419 3.759 -2.035
v 0.367 3.759 -2.109
v 0.419 3.759 -2.181
v 0.505 3.759 -2.153
v 0.468 4.261 -2.09
v 0.434 4.261 -2.079
v 0.413 4.261 -2.109
v 0.434 4.261 -2.138
v 0.468 4.261 -2.126
usemtl Cone
s off
f 283 282 281 280 279
f 284 285 286 287 288
f 279 280 285 284
f 280 281 286 285
f 281 282 287 286
f 282 283 288 287
f 283 279 284 288
o Tip
v 1.554 5.117 -0.778
v 1.339 5.117 -1.109
v 1.118 4.68 -0.966
v 1.335 4.68 -0.635
v 1.838 4.204 -1.163
v 1.804 4.204 -1.214
v 1.77 4.135 -1.192
v 1.804 4.135 -1.14
usemtl Paint
s off
f 292 291 290 289
f 293 294 295 296
f 289 290 294 293
f 290 291 295 294
f 291 292 296 295
f 292 289 293 296
o Tip
v 1.65 5.117 0.548
v 1.73 5.117 0.162
v 1.474 4.68 0.108
v 1.392 4.68 0.494
v 2.121 4.204 0.478
v 2.135 4.204 0.417
v 2.095 4.135 0.41
v 2.083 4.135 0.47
usemtl Needle
s off
f 300 299 298 297
f 301 302 303 304
f 297 298 302 301
f 298 299 303 302
f 299 300 304 303
f 300 297 301 304
o Tier
v 1.077 6.608 1.108
v -0.023 6.608 1.545
v -1.108 6.608 1.077
v -1.545 6.608 -0.023
v -1.077 6.608 -1.108
v 0.023 6.608 -1.545
v 1.108 6.608 -1.077
v 1.545 6.608 0.023
v 0.702 7.633 0.722
v -0.015 7.633 1.007
v -0.722 7.633 0.702
v -1.007 7.633 -0.015
v -0.702 7.633 -0.722
v 0.015 7.633 -1.007
v 0.722 7.633 -0.702
v 1.007 7.633 0.015
usemtl NeedleDark
s off
f 312 311 310 309 308 307 306 305
f 313 314 315 316 317 318 319 320
f 305 306 314 313
f 306 307 315 314
f 307 308 316 315
f 308 309 317 316
f 309 310 318 317
f 310 311 319 318
f 311 312 320 319
f 312 305 313 320
o Tier
v 0.907 6.835 1.413
v -0.357 6.835 1.64
v -1.413 6.835 0.907
v -1.64 6.835 -0.357
v -0.907 6.835 -1.413
v 0.357 6.835 -1.64
v 1.413 6.835 -0.907
v 1.64 6.835 0.357
v 0.109 10.823 0.169
v -0.043 10.823 0.197
v -0.169 10.823 0.109
v -0.197 10.823 -0.043
v -0.109 10.823 -0.169
v 0.043 10.823 -0.197
v 0.169 10.823 -0.109
v 0.197 10.823 0.043
usemtl Paint
s off
f 328 327 326 325 324 323 322 321
f 329 330 331 332 333 334 335 336
f 321 322 330 329
f 322 323 331 330
f 323 324 332 331
f 324 325 333 332
f 325 326 334 333
f 326 327 335 334
f 327 328 336 335
f 328 321 329 336
o Tip
v 0.085 7.476 1.482
v 0.437 7.476 1.419
v 0.391 7.107 1.161
v 0.039 7.107 1.226
v 0.294 6.594 1.811
v 0.356 6.594 1.801
v 0.348 6.53 1.758
v 0.287 6.53 1.768
usemtl Paint
s off
f 340 339 338 337
f 341 342 343 344
f 337 338 342 341
f 338 339 343 342
f 339 340 344 343
f 340 337 341 344
o Tip
v -0.989 7.476 1.108
v -0.693 7.476 1.312
v -0.545 7.107 1.098
v -0.839 7.107 0.893
v -1.072 6.594 1.49
v -1.023 6.594 1.525
v -0.997 6.53 1.488
v -1.047 6.53 1.453
usemtl Needle
s off
f 348 347 346 345
f 349 350 351 352
f 345 346 350 349
f 346 347 351 350
f 347 348 352 351
f 348 345 349 352
o Cone
v -0.972 6.152 1.534
v -1.058 6.152 1.562
v -1.112 6.152 1.49
v -1.058 6.152 1.416
v -0.972 6.152 1.443
v -1.01 6.653 1.506
v -1.044 6.653 1.519
v -1.066 6.653 1.49
v -1.044 6.653 1.46
v -1.01 6.653 1.471
usemtl Cone
s off
f 357 356 355 354 353
f 358 359 360 361 362
f 353 354 359 358
f 354 355 360 359
f 355 356 361 360
f 356 357 362 361
f 357 353 358 362
o Tip
v -1.482 7.476 0.085
v -1.419 7.476 0.437
v -1.161 7.107 0.391
v -1.226 7.107 0.039
v -1.811 6.594 0.294
v -1.801 6.594 0.356
v -1.758 6.53 0.348
v -1.768 6.53 0.287
usemtl Paint
s off
f 366 365 364 363
f 367 368 369 370
f 363 364 368 367
f 364 365 369 368
f 365 366 370 369
f 366 363 367 370
o Tip
v -1.108 7.476 -0.989
v -1.312 7.476 -0.693
v -1.098 7.107 -0.545
v -0.893 7.107 -0.839
v -1.49 6.594 -1.072
v -1.525 6.594 -1.023
v -1.488 6.53 -0.997
v -1.453 6.53 -1.047
usemtl Needle
s off
f 374 373 372 371
f 375 376 377 378
f 371 372 376 375
f 372 373 377 376
f 373 374 378 377
f 374 371 375 378
o Tip
v -0.085 7.476 -1.482
v -0.437 7.476 -1.419
v -0.391 7.107 -1.161
v -0.039 7.107 -1.226
v -0.294 6.594 -1.811
v -0.356 6.594 -1.801
v -0.348 6.53 -1.758
v -0.287 6.53 -1.768
usemtl Paint
s off
f 382 381 380 379
f 383 384 385 386
f 379 380 384 383
f 380 381 385 384
f 381 382 386 385
f 382 379 383 386
o Cone
v -0.259 6.152 -1.739
v -0.345 6.152 -1.711
v -0.399 6.152 -1.785
v -0.345 6.152 -1.858
v -0.259 6.152 -1.83
v -0.296 6.653 -1.767
v -0.331 6.653 -1.756
v -0.353 6.653 -1.785
v -0.331 6.653 -1.815
v -0.296 6.653 -1.802
usemtl Cone
s off
f 391 390 389 388 387
f 392 393 394 395 396
f 387 388 393 392
f 388 389 394 393
f 389 390 395 394
f 390 391 396 395
f 391 387 392 396
o Tip
v 0.989 7.476 -1.108
v 0.693 7.476 -1.312
v 0.545 7.107 -1.098
v 0.839 7.107 -0.893
v 1.072 6.594 -1.49
v 1.023 6.594 -1.525
v 0.997 6.53 -1.488
v 1.047 6.53 -1.453
usemtl Needle
s off
f 400 399 398 397
f 401 402 403 404
f 397 398 402 401
f 398 399 403 402
f 399 400 404 403
f 400 397 401 404
o Tip
v 1.482 7.476 -0.085
v 1.419 7.476 -0.437
v 1.161 7.107 -0.391
v 1.226 7.107 -0.039
v 1.811 6.594 -0.294
v 1.801 6.594 -0.356
v 1.758 6.53 -0.348
v 1.768 6.53 -0.287
usemtl Paint
s off
f 408 407 406 405
f 409 410 411 412
f 405 406 410 409
f 406 407 411 410
f 407 408 412 411
f 408 405 409 412
o Tip
v 1.108 7.476 0.989
v 1.312 7.476 0.693
v 1.098 7.107 0.545
v 0.893 7.107 0.839
v 1.49 6.594 1.072
v 1.525 6.594 1.023
v 1.488 6.53 0.997
v 1.453 6.53 1.047
usemtl Needle
s off
f 416 415 414 413
f 417 418 419 420
f 413 414 418 417
f 414 415 419 418
f 415 416 420 419
f 416 413 417 420
o Cone
v 1.551 6.152 1.08
v 1.465 6.152 1.108
v 1.413 6.152 1.035
v 1.465 6.152 0.961
v 1.551 6.152 0.989
v 1.514 6.653 1.054
v 1.48 6.653 1.064
v 1.459 6.653 1.035
v 1.48 6.653 1.006
v 1.514 6.653 1.017
usemtl Cone
s off
f 425 424 423 422 421
f 426 427 428 429 430
f 421 422 427 426
f 422 423 428 427
f 423 424 429 428
f 424 425 430 429
f 425 421 426 430
o Tier
v 0.454 9 1.169
v -0.505 9 1.148
v -1.169 9 0.454
v -1.148 9 -0.505
v -0.454 9 -1.169
v 0.505 9 -1.148
v 1.169 9 -0.454
v 1.148 9 0.505
v 0.296 10.025 0.762
v -0.33 10.025 0.749
v -0.762 10.025 0.296
v -0.749 10.025 -0.33
v -0.296 10.025 -0.762
v 0.33 10.025 -0.749
v 0.762 10.025 -0.296
v 0.749 10.025 0.33
usemtl NeedleDark
s off
f 438 437 436 435 434 433 432 431
f 439 440 441 442 443 444 445 446
f 431 432 440 439
f 432 433 441 440
f 433 434 442 441
f 434 435 443 442
f 435 436 444 443
f 436 437 445 444
f 437 438 446 445
f 438 431 439 446
o Tier
v 0.231 9.228 1.343
v -0.786 9.228 1.114
v -1.343 9.228 0.231
v -1.114 9.228 -0.786
v -0.231 9.228 -1.343
v 0.786 9.228 -1.114
v 1.343 9.228 -0.231
v 1.114 9.228 0.786
v 0.028 13.215 0.162
v -0.094 13.215 0.134
v -0.162 13.215 0.028
v -0.134 13.215 -0.094
v -0.028 13.215 -0.162
v 0.094 13.215 -0.134
v 0.162 13.215 -0.028
v 0.134 13.215 0.094
usemtl Paint
s off
f 454 453 452 451 450 449 448 447
f 455 456 457 458 459 460 461 462
f 447 448 456 455
f 448 449 457 456
f 449 450 458 457
f 450 451 459 458
f 451 452 460 459
f 452 453 461 460
f 453 454 462 461
f 454 447 455 462
o Tip
v -0.427 9.829 1.154
v -0.111 9.829 1.225
v -0.054 9.538 0.975
v -0.37 9.538 0.904
v -0.359 8.982 1.453
v -0.299 8.982 1.466
v -0.288 8.927 1.419
v -0.348 8.927 1.406
usemtl Paint
s off
f 466 465 464 463
f 467 468 469 470
f 463 464 468 467
f 464 465 469 468
f 465 466 470 469
f 466 463 467 470
o Cone
v -0.262 8.544 1.482
v -0.348 8.544 1.51
v -0.4 8.544 1.436
v -0.348 8.544 1.363
v -0.262 8.544 1.391
v -0.299 9.046 1.454
v -0.334 9.046 1.465
v -0.354 9.046 1.436
v -0.334 9.046 1.406
v -0.299 9.046 1.419
usemtl Cone
s off
f 475 474 473 472 471
f 476 477 478 479 480
f 471 472 477 476
f 472 473 478 477
f 473 474 479 478
f 474 475 480 479
f 475 471 476 480
o Tip
v -1.117 9.829 0.514
v -0.944 9.829 0.787
v -0.727 9.538 0.652
v -0.9 9.538 0.377
v -1.282 8.982 0.773
v -1.249 8.982 0.826
v -1.208 8.927 0.799
v -1.24 8.927 0.747
usemtl Needle
s off
f 484 483 482 481
f 485 486 487 488
f 481 482 486 485
f 482 483 487 486
f 483 484 488 487
f 484 481 485 488
o Tip
v -1.154 9.829 -0.427
v -1.225 9.829 -0.111
v -0.975 9.538 -0.054
v -0.904 9.538 -0.37
v -1.453 8.982 -0.359
v -1.466 8.982 -0.299
v -1.419 8.927 -0.288
v -1.406 8.927 -0.348
usemtl Paint
s off
f 492 491 490 489
f 493 494 495 496
f 489 490 494 493
f 490 491 495 494
f 491 492 496 495
f 492 489 493 496
o Tip
v -0.514 9.829 -1.117
v -0.787 9.829 -0.944
v -0.652 9.538 -0.727
v -0.377 9.538 -0.9
v -0.773 8.982 -1.282
v -0.826 8.982 -1.249
v -0.799 8.927 -1.208
v -0.747 8.927 -1.24
usemtl Needle
s off
f 500 499 498 497
f 501 502 503 504
f 497 498 502 501
f 498 499 503 502
f 499 500 504 503
f 500 497 501 504
o Cone
v -0.724 8.544 -1.2
v -0.81 8.544 -1.171
v -0.864 8.544 -1.245
v -0.81 8.544 -1.319
v -0.724 8.544 -1.289
v -0.761 9.046 -1.226
v -0.796 9.046 -1.215
v -0.818 9.046 -1.245
v -0.796 9.046 -1.274
v -0.761 9.046 -1.263
usemtl Cone
s off
f 509 508 507 506 505
f 510 511 512 513 514
f 505 506 511 510
f 506 507 512 511
f 507 508 513 512
f 508 509 514 513
f 509 505 510 514
o Tip
v 0.427 9.829 -1.154
v 0.111 9.829 -1.225
v 0.054 9.538 -0.975
v 0.37 9.538 -0.904
v 0.359 8.982 -1.453
v 0.299 8.982 -1.466
v 0.288 8.927 -1.419
v 0.348 8.927 -1.406
usemtl Paint
s off
f 518 517 516 515
f 519 520 521 522
f 515 516 520 519
f 516 517 521 520
f 517 518 522 521
f 518 515 519 522
o Tip
v 1.117 9.829 -0.514
v 0.944 9.829 -0.787
v 0.727 9.538 -0.652
v 0.9 9.538 -0.377
v 1.282 8.982 -0.773
v 1.249 8.982 -0.826
v 1.208 8.927 -0.799
v 1.24 8.927 -0.747
usemtl Needle
s off
f 526 525 524 523
f 527 528 529 530
f 523 524 528 527
f 524 525 529 528
f 525 526 530 529
f 526 523 527 530
o Tip
v 1.154 9.829 0.427
v 1.225 9.829 0.111
v 0.975 9.538 0.054
v 0.904 9.538 0.37
v 1.453 8.982 0.359
v 1.466 8.982 0.299
v 1.419 8.927 0.288
v 1.406 8.927 0.348
usemtl Paint
s off
f 534 533 532 531
f 535 536 537 538
f 531 532 536 535
f 532 533 537 536
f 533 534 538 537
f 534 531 535 538
o Cone
v 1.499 8.544 0.37
v 1.413 8.544 0.397
v 1.359 8.544 0.323
v 1.413 8.544 0.251
v 1.499 8.544 0.279
v 1.462 9.046 0.342
v 1.426 9.046 0.353
v 1.405 9.046 0.323
v 1.426 9.046 0.294
v 1.462 9.046 0.307
usemtl Cone
s off
f 543 542 541 540 539
f 544 545 546 547 548
f 539 540 545 544
f 540 541 546 545
f 541 542 547 546
f 542 543 548 547
f 543 539 544 548
o Tip
v 0.514 9.829 1.117
v 0.787 9.829 0.944
v 0.652 9.538 0.727
v 0.377 9.538 0.9
v 0.773 8.982 1.282
v 0.826 8.982 1.249
v 0.799 8.927 1.208
v 0.747 8.927 1.24
usemtl Needle
s off
f 552 551 550 549
f 553 554 555 556
f 549 550 554 553
f 550 551 555 554
f 551 552 556 555
f 552 549 553 556
o Tier
v -0.028 11.392 0.963
v -0.701 11.392 0.661
v -0.963 11.392 -0.028
v -0.661 11.392 -0.701
v 0.028 11.392 -0.963
v 0.701 11.392 -0.661
v 0.963 11.392 0.028
v 0.661 11.392 0.701
v -0.018 12.418 0.628
v -0.457 12.418 0.431
v -0.628 12.418 -0.018
v -0.431 12.418 -0.457
v 0.018 12.418 -0.628
v 0.457 12.418 -0.431
v 0.628 12.418 0.018
v 0.431 12.418 0.457
usemtl NeedleDark
s off
f 564 563 562 561 560 559 558 557
f 565 566 567 568 569 570 571 572
f 557 558 566 565
f 558 559 567 566
f 559 560 568 567
f 560 561 569 568
f 561 562 570 569
f 562 563 571 570
f 563 564 572 571
f 564 557 565 572
o Tier
v -0.237 11.62 1.02
v -0.89 11.62 0.553
v -1.02 11.62 -0.237
v -0.553 11.62 -0.89
v 0.237 11.62 -1.02
v 0.89 11.62 -0.553
v 1.02 11.62 0.237
v 0.553 11.62 0.89
v -0.029 15.608 0.122
v -0.106 15.608 0.066
v -0.122 15.608 -0.029
v -0.066 15.608 -0.106
v 0.029 15.608 -0.122
v 0.106 15.608 -0.066
v 0.122 15.608 0.029
v 0.066 15.608 0.106
usemtl Paint
s off
f 580 579 578 577 576 575 574 573
f 581 582 583 584 585 586 587 588
f 573 574 582 581
f 574 575 583 582
f 575 576 584 583
f 576 577 585 584
f 577 578 586 585
f 578 579 587 586
f 579 580 588 587
f 580 573 581 588
o Tip
v -0.678 12.185 0.698
v -0.444 12.185 0.866
v -0.299 11.967 0.664
v -0.533 11.967 0.498
v -0.699 11.37 0.923
v -0.65 11.37 0.96
v -0.619 11.324 0.917
v -0.669 11.324 0.88
usemtl Paint
s off
f 592 591 590 589
f 593 594 595 596
f 589 590 594 593
f 590 591 595 594
f 591 592 596 595
f 592 589 593 596
o Tip
v -0.972 12.185 0.015
v -0.926 12.185 0.299
v -0.681 11.967 0.259
v -0.729 11.967 -0.026
v -1.148 11.37 0.159
v -1.137 11.37 0.219
v -1.084 11.324 0.209
v -1.095 11.324 0.149
usemtl Needle
s off
f 600 599 598 597
f 601 602 603 604
f 597 598 602 601
f 598 599 603 602
f 599 600 604 603
f 600 597 601 604
o Tip
v -0.698 12.185 -0.678
v -0.866 12.185 -0.444
v -0.664 11.967 -0.299
v -0.498 11.967 -0.533
v -0.923 11.37 -0.699
v -0.96 11.37 -0.65
v -0.917 11.324 -0.619
v -0.88 11.324 -0.669
usemtl Paint
s off
f 608 607 606 605
f 609 610 611 612
f 605 606 610 609
f 606 607 611 610
f 607 608 612 611
f 608 605 609 612
o Cone
v -0.856 10.937 -0.613
v -0.943 10.937 -0.585
v -0.997 10.937 -0.659
v -0.943 10.937 -0.732
v -0.856 10.937 -0.704
v -0.895 11.438 -0.641
v -0.929 11.438 -0.63
v -0.95 11.438 -0.659
v -0.929 11.438 -0.689
v -0.895 11.438 -0.678
usemtl Cone
s off
f 617 616 615 614 613
f 618 619 620 621 622
f 613 614 619 618
f 614 615 620 619
f 615 616 621 620
f 616 617 622 621
f 617 613 618 622
o Tip
v -0.015 12.185 -0.972
v -0.299 12.185 -0.926
v -0.259 11.967 -0.681
v 0.026 11.967 -0.729
v -0.159 11.37 -1.148
v -0.219 11.37 -1.137
v -0.209 11.324 -1.084
v -0.149 11.324 -1.095
usemtl Needle
s off
f 626 625 624 623
f 627 628 629 630
f 623 624 628 627
f 624 625 629 628
f 625 626 630 629
f 626 623 627 630
o Tip
v 0.678 12.185 -0.698
v 0.444 12.185 -0.866
v 0.299 11.967 -0.664
v 0.533 11.967 -0.498
v 0.699 11.37 -0.923
v 0.65 11.37 -0.96
v 0.619 11.324 -0.917
v 0.669 11.324 -0.88
usemtl Paint
s off
f 634 633 632 631
f 635 636 637 638
f 631 632 636 635
f 632 633 637 636
f 633 634 638 637
f 634 631 635 638
o Tip
v 0.972 12.185 -0.015
v 0.926 12.185 -0.299
v 0.681 11.967 -0.259
v 0.729 11.967 0.026
v 1.148 11.37 -0.159
v 1.137 11.37 -0.219
v 1.084 11.324 -0.209
v 1.095 11.324 -0.149
usemtl Needle
s off
f 642 641 640 639
f 643 644 645 646
f 639 640 644 643
f 640 641 645 644
f 641 642 646 645
f 642 639 643 646
o Cone
v 1.178 10.937 -0.139
v 1.092 10.937 -0.111
v 1.04 10.937 -0.185
v 1.092 10.937 -0.257
v 1.178 10.937 -0.23
v 1.141 11.438 -0.166
v 1.106 11.438 -0.156
v 1.086 11.438 -0.185
v 1.106 11.438 -0.214
v 1.141 11.438 -0.202
usemtl Cone
s off
f 651 650 649 648 647
f 652 653 654 655 656
f 647 648 653 652
f 648 649 654 653
f 649 650 655 654
f 650 651 656 655
f 651 647 652 656
o Tip
v 0.698 12.185 0.678
v 0.866 12.185 0.444
v 0.664 11.967 0.299
v 0.498 11.967 0.533
v 0.923 11.37 0.699
v 0.96 11.37 0.65
v 0.917 11.324 0.619
v 0.88 11.324 0.669
usemtl Paint
s off
f 660 659 658 657
f 661 662 663 664
f 657 658 662 661
f 658 659 663 662
f 659 660 664 663
f 660 657 661 664
o Tip
v 0.015 12.185 0.972
v 0.299 12.185 0.926
v 0.259 11.967 0.681
v -0.026 11.967 0.729
v 0.159 11.37 1.148
v 0.219 11.37 1.137
v 0.209 11.324 1.084
v 0.149 11.324 1.095
usemtl Needle
s off
f 668 667 666 665
f 669 670 671 672
f 665 666 670 669
f 666 667 671 670
f 667 668 672 671
f 668 665 669 672
o Tier
v -0.28 13.785 0.612
v -0.632 13.785 0.234
v -0.612 13.785 -0.28
v -0.234 13.785 -0.632
v 0.28 13.785 -0.612
v 0.632 13.785 -0.234
v 0.612 13.785 0.28
v 0.234 13.785 0.632
v -0.183 14.81 0.399
v -0.411 14.81 0.152
v -0.399 14.81 -0.183
v -0.152 14.81 -0.411
v 0.183 14.81 -0.399
v 0.411 14.81 -0.152
v 0.399 14.81 0.183
v 0.152 14.81 0.411
usemtl NeedleDark
s off
f 680 679 678 677 676 675 674 673
f 681 682 683 684 685 686 687 688
f 673 674 682 681
f 674 675 683 682
f 675 676 684 683
f 676 677 685 684
f 677 678 686 685
f 678 679 687 686
f 679 680 688 687
f 680 673 681 688
o Tier
v -0.431 14.013 0.591
v -0.722 14.013 0.114
v -0.591 14.013 -0.431
v -0.114 14.013 -0.722
v 0.431 14.013 -0.591
v 0.722 14.013 -0.114
v 0.591 14.013 0.431
v 0.114 14.013 0.722
v -0.052 18 0.071
v -0.086 18 0.014
v -0.071 18 -0.052
v -0.014 18 -0.086
v 0.052 18 -0.071
v 0.086 18 -0.014
v 0.071 18 0.052
v 0.014 18 0.086
usemtl Paint
s off
f 696 695 694 693 692 691 690 689
f 697 698 699 700 701 702 703 704
f 689 690 698 697
f 690 691 699 698
f 691 692 700 699
f 692 693 701 700
f 693 694 702 701
f 694 695 703 702
f 695 696 704 703
f 696 689 697 704
o Tip
v -0.38 14.448 0.437
v -0.38 14.37 0.191
v -0.618 14.489 0.174
v -0.618 14.566 0.419
v -0.645 13.735 0.445
v -0.645 13.714 0.384
v -0.704 13.744 0.38
v -0.704 13.764 0.441
usemtl Paint
s off
f 708 707 706 705
f 709 710 711 712
f 705 706 710 709
f 706 707 711 710
f 707 708 712 711
f 708 705 709 712
o Tip
v -0.453 14.382 -0.017
v -0.453 14.418 -0.266
v -0.685 14.555 -0.257
v -0.685 14.518 -0.008
v -0.739 13.719 -0.156
v -0.739 13.728 -0.217
v -0.796 13.76 -0.214
v -0.796 13.751 -0.154
usemtl Needle
s off
f 716 715 714 713
f 717 718 719 720
f 713 714 718 717
f 714 715 719 718
f 715 716 720 719
f 716 713 717 720
o Tip
v -0.182 14.37 -0.39
v -0.182 14.496 -0.627
v -0.428 14.566 -0.61
v -0.428 14.441 -0.373
v -0.382 13.716 -0.647
v -0.382 13.746 -0.705
v -0.442 13.762 -0.701
v -0.442 13.732 -0.642
usemtl Paint
s off
f 724 723 722 721
f 725 726 727 728
f 721 722 726 725
f 722 723 727 726
f 723 724 728 727
f 724 721 725 728
o Tip
v 0.262 14.414 -0.448
v 0.262 14.553 -0.681
v 0.012 14.523 -0.69
v 0.012 14.384 -0.456
v 0.216 13.726 -0.739
v 0.216 13.76 -0.796
v 0.154 13.753 -0.798
v 0.154 13.719 -0.741
usemtl Needle
s off
f 732 731 730 729
f 733 734 735 736
f 729 730 734 733
f 730 731 735 734
f 731 732 736 735
f 732 729 733 736
o Tip
v 0.618 14.489 -0.174
v 0.618 14.566 -0.419
v 0.38 14.448 -0.437
v 0.38 14.37 -0.191
v 0.704 13.744 -0.38
v 0.704 13.764 -0.441
v 0.645 13.735 -0.445
v 0.645 13.714 -0.384
usemtl Paint
s off
f 740 739 738 737
f 741 742 743 744
f 737 738 742 741
f 738 739 743 742
f 739 740 744 743
f 740 737 741 744
o Tip
v 0.685 14.555 0.257
v 0.685 14.518 0.008
v 0.453 14.382 0.017
v 0.453 14.418 0.266
v 0.796 13.76 0.214
v 0.796 13.751 0.154
v 0.739 13.719 0.156
v 0.739 13.728 0.217
usemtl Needle
s off
f 748 747 746 745
f 749 750 751 752
f 745 746 750 749
f 746 747 751 750
f 747 748 752 751
f 748 745 749 752
o Tip
v 0.428 14.566 0.61
v 0.428 14.441 0.373
v 0.182 14.37 0.39
v 0.182 14.496 0.627
v 0.442 13.762 0.701
v 0.442 13.732 0.642
v 0.382 13.716 0.647
v 0.382 13.746 0.705
usemtl Paint
s off
f 756 755 754 753
f 757 758 759 760
f 753 754 758 757
f 754 755 759 758
f 755 756 760 759
f 756 753 757 760
o Tip
v -0.012 14.523 0.69
v -0.012 14.384 0.456
v -0.262 14.414 0.448
v -0.262 14.553 0.681
v -0.154 13.753 0.798
v -0.154 13.719 0.741
v -0.216 13.726 0.739
v -0.216 13.76 0.796
usemtl Needle
s off
f 764 763 762 761
f 765 766 767 768
f 761 762 766 765
f 762 763 767 766
f 763 764 768 767
f 764 761 765 768
o Top
v 0.2 16.177 0.116
v 0 16.177 0.231
v -0.2 16.177 0.116
v -0.2 16.177 -0.116
v 0 16.177 -0.231
v 0.2 16.177 -0.116
v 0 17.544 0
v 0 17.544 0
v 0 17.544 0
v 0 17.544 0
v 0 17.544 0
v 0 17.544 0
usemtl Paint
s off
f 774 773 772 771 770 769
f 775 776 777 778 779 780
f 769 770 776 775
f 770 771 777 776
f 771 772 778 777
f 772 773 779 778
f 773 774 780 779
f 774 769 775 780
o Litter
v -1.423 0 1.567
v -1.454 0 1.46
v -1.329 0 1.405
v -1.22 0 1.477
v -1.278 0 1.577
v -1.423 0.046 1.567
v -1.454 0.046 1.46
v -1.329 0.046 1.405
v -1.22 0.046 1.477
v -1.278 0.046 1.577
usemtl Cone
s off
f 785 784 783 782 781
f 786 787 788 789 790
f 781 782 787 786
f 782 783 788 787
f 783 784 789 788
f 784 785 790 789
f 785 781 786 790
o Litter
v 1.151 0 -0.354
v 1.104 0 -0.251
v 0.96 0 -0.251
v 0.917 0 -0.356
v 1.035 0 -0.419
v 1.151 0.046 -0.354
v 1.104 0.046 -0.251
v 0.96 0.046 -0.251
v 0.917 0.046 -0.356
v 1.035 0.046 -0.419
usemtl LeafDry
s off
f 795 794 793 792 791
f 796 797 798 799 800
f 791 792 797 796
f 792 793 798 797
f 793 794 799 798
f 794 795 800 799
f 795 791 796 800
o Grass
v -1.205 0.007 1.144
v -1.238 0.002 1.203
v -1.271 -0.009 1.144
v -1.303 0.64 1.144
v -1.306 0.64 1.151
v -1.309 0.64 1.144
usemtl Grass
s off
f 803 802 801
f 804 805 806
f 801 802 805 804
f 802 803 806 805
f 803 801 804 806
o Grass
v -1.205 0 1.144
v -1.238 -0.011 1.201
v -1.271 0.011 1.146
v -1.183 0.681 1.251
v -1.186 0.679 1.255
v -1.189 0.681 1.251
usemtl Grass
s off
f 809 808 807
f 810 811 812
f 807 808 811 810
f 808 809 812 811
f 809 807 810 812
o Grass
v -1.205 0 1.144
v -1.238 -0.007 1.201
v -1.271 0.007 1.144
v -1.211 0.506 1.198
v -1.215 0.506 1.205
v -1.218 0.506 1.198
usemtl Grass
s off
f 815 814 813
f 816 817 818
f 813 814 817 816
f 814 815 818 817
f 815 813 816 818
o Grass
v -1.172 0 0.647
v -1.205 0.014 0.704
v -1.238 -0.011 0.648
v -1.246 0.558 0.578
v -1.249 0.558 0.584
v -1.252 0.556 0.578
usemtl Grass
s off
f 821 820 819
f 822 823 824
f 819 820 823 822
f 820 821 824 823
f 821 819 822 824
o Grass
v -1.172 0.018 0.65
v -1.205 -0.011 0.704
v -1.237 -0.007 0.647
v -1.294 0.474 0.727
v -1.297 0.472 0.732
v -1.3 0.472 0.727
usemtl Grass
s off
f 827 826 825
f 828 829 830
f 825 826 829 828
f 826 827 830 829
f 827 825 828 830
o Grass
v -1.172 0.014 0.648
v -1.205 -0.002 0.705
v -1.237 -0.011 0.647
v -1.286 0.465 0.681
v -1.291 0.465 0.685
v -1.294 0.463 0.681
usemtl Grass
s off
f 833 832 831
f 834 835 836
f 831 832 835 834
f 832 833 836 835
f 833 831 834 836
o Litter
v -0.684 0 1.479
v -0.756 0 1.385
v -0.658 0 1.305
v -0.527 0 1.349
v -0.542 0 1.457
v -0.684 0.046 1.479
v -0.756 0.046 1.385
v -0.658 0.046 1.305
v -0.527 0.046 1.349
v -0.542 0.046 1.457
usemtl Cone
s off
f 841 840 839 838 837
f 842 843 844 845 846
f 837 838 843 842
f 838 839 844 843
f 839 840 845 844
f 840 841 846 845
f 841 837 842 846
o Litter
v 1.094 0 -0.37
v 1.052 0 -0.266
v 0.907 0 -0.263
v 0.86 0 -0.367
v 0.975 0 -0.431
v 1.094 0.046 -0.37
v 1.052 0.046 -0.266
v 0.907 0.046 -0.263
v 0.86 0.046 -0.367
v 0.975 0.046 -0.431
usemtl LeafDry
s off
f 851 850 849 848 847
f 852 853 854 855 856
f 847 848 853 852
f 848 849 854 853
f 849 850 855 854
f 850 851 856 855
f 851 847 852 856
o Grass
v 0.109 0.002 1.268
v 0.077 -0.009 1.326
v 0.043 0.007 1.269
v 0.1 0.715 1.354
v 0.097 0.715 1.36
v 0.094 0.715 1.354
usemtl Grass
s off
f 859 858 857
f 860 861 862
f 857 858 861 860
f 858 859 862 861
f 859 857 860 862
o Grass
v 0.109 0.011 1.269
v 0.077 -0.002 1.326
v 0.043 -0.009 1.268
v 0 0.558 1.295
v -0.003 0.556 1.302
v -0.008 0.556 1.295
usemtl Grass
s off
f 865 864 863
f 866 867 868
f 863 864 867 866
f 864 865 868 867
f 865 863 866 868
o Grass
v 0.109 0.002 1.268
v 0.077 0.007 1.326
v 0.043 -0.009 1.269
v 0.022 0.643 1.229
v 0.018 0.643 1.235
v 0.015 0.643 1.229
usemtl Grass
s off
f 871 870 869
f 872 873 874
f 869 870 873 872
f 870 871 874 873
f 871 869 872 874
o Grass
v -0.59 0.011 1.684
v -0.624 -0.011 1.739
v -0.656 0 1.682
v -0.662 0.469 1.765
v -0.667 0.467 1.77
v -0.67 0.467 1.764
usemtl Grass
s off
f 877 876 875
f 878 879 880
f 875 876 879 878
f 876 877 880 879
f 877 875 878 880
o Grass
v -0.591 -0.009 1.682
v -0.624 0 1.741
v -0.656 0.009 1.682
v -0.533 0.654 1.696
v -0.536 0.654 1.702
v -0.539 0.656 1.696
usemtl Grass
s off
f 883 882 881
f 884 885 886
f 881 882 885 884
f 882 883 886 885
f 883 881 884 886
o Grass
v -0.59 0.005 1.682
v -0.624 0 1.741
v -0.656 -0.005 1.682
v -0.665 0.615 1.702
v -0.669 0.613 1.708
v -0.672 0.613 1.702
usemtl Grass
s off
f 889 888 887
f 890 891 892
f 887 888 891 890
f 888 889 892 891
f 889 887 890 892
o Litter
v -1.476 0 -0.217
v -1.374 0 -0.294
v -1.245 0 -0.246
v -1.266 0 -0.139
v -1.408 0 -0.12
v -1.476 0.046 -0.217
v -1.374 0.046 -0.294
v -1.245 0.046 -0.246
v -1.266 0.046 -0.139
v -1.408 0.046 -0.12
usemtl Cone
s off
f 897 896 895 894 893
f 898 899 900 901 902
f 893 894 899 898
f 894 895 900 899
f 895 896 901 900
f 896 897 902 901
f 897 893 898 902
o Litter
v 1.047 0 0.92
v 0.906 0 0.943
v 0.833 0 0.849
v 0.93 0 0.767
v 1.063 0 0.812
v 1.047 0.046 0.92
v 0.906 0.046 0.943
v 0.833 0.046 0.849
v 0.93 0.046 0.767
v 1.063 0.046 0.812
usemtl LeafDry
s off
f 907 906 905 904 903
f 908 909 910 911 912
f 903 904 909 908
f 904 905 910 909
f 905 906 911 910
f 906 907 912 911
f 907 903 908 912
