# tree_oak.obj - Eiche (Holz) fuer procedurally-generated-map
# Einheiten: Meter, Y oben, Vorderseite nach +Z - so wie Blender ein Modell
# exportiert, das in der Vorderansicht zum Betrachter schaut.
# Material Paint (das Laub) bekommt eine je Baum leicht andere Farbe.
mtllib tree_oak.mtl
o Root
v 0.287 0.309 0.167
v 0.326 0.361 0.047
v 0.324 0.224 -0.035
v 0.283 0.09 0.035
v 0.26 0.142 0.161
v 1.117 0.05 0.339
v 1.14 0.082 0.266
v 1.14 0 0.217
v 1.115 -0.082 0.26
v 1.102 -0.05 0.336
usemtl Bark
s off
f 5 4 3 2 1
f 6 7 8 9 10
f 1 2 7 6
f 2 3 8 7
f 3 4 9 8
f 4 5 10 9
f 5 1 6 10
o Root
v -0.002 0.309 0.332
v 0.122 0.361 0.306
v 0.192 0.224 0.264
v 0.111 0.09 0.264
v -0.01 0.142 0.306
v 0.264 0.05 1.138
v 0.337 0.082 1.123
v 0.378 0 1.098
v 0.33 -0.082 1.098
v 0.258 -0.05 1.123
usemtl Bark
s off
f 15 14 13 12 11
f 16 17 18 19 20
f 11 12 17 16
f 12 13 18 17
f 13 14 19 18
f 14 15 20 19
f 15 11 16 20
o Root
v -0.264 0.309 0.202
v -0.167 0.361 0.283
v -0.089 0.224 0.314
v -0.14 0.09 0.248
v -0.248 0.142 0.18
v -0.737 0.05 0.906
v -0.681 0.082 0.954
v -0.634 0 0.972
v -0.665 -0.082 0.933
v -0.729 -0.05 0.892
usemtl Bark
s off
f 25 24 23 22 21
f 26 27 28 29 30
f 21 22 27 26
f 22 23 28 27
f 23 24 29 28
f 24 25 30 29
f 25 21 26 30
o Root
v -0.308 0.309 -0.126
v -0.33 0.361 0
v -0.316 0.224 0.081
v -0.285 0.09 0.006
v -0.281 0.142 -0.122
v -1.154 0.05 -0.176
v -1.168 0.082 -0.103
v -1.16 0 -0.054
v -1.142 -0.082 -0.099
v -1.138 -0.05 -0.176
usemtl Bark
s off
f 35 34 33 32 31
f 36 37 38 39 40
f 31 32 37 36
f 32 33 38 37
f 33 34 39 38
f 34 35 40 39
f 35 31 36 40
o Root
v 0.039 0.309 -0.33
v -0.089 0.361 -0.316
v -0.163 0.224 -0.283
v -0.081 0.09 -0.273
v 0.043 0.142 -0.303
v -0.14 0.05 -1.16
v -0.215 0.082 -1.152
v -0.258 0 -1.131
v -0.209 -0.082 -1.127
v -0.136 -0.05 -1.144
usemtl Bark
s off
f 45 44 43 42 41
f 46 47 48 49 50
f 41 42 47 46
f 42 43 48 47
f 43 44 49 48
f 44 45 50 49
f 45 41 46 50
o Root
v 0.32 0.309 -0.087
v 0.26 0.361 -0.202
v 0.202 0.224 -0.256
v 0.223 0.09 -0.178
v 0.297 0.142 -0.074
v 1.024 0.05 -0.562
v 0.989 0.082 -0.628
v 0.954 0 -0.663
v 0.966 -0.082 -0.615
v 1.01 -0.05 -0.553
usemtl Bark
s off
f 55 54 53 52 51
f 56 57 58 59 60
f 51 52 57 56
f 52 53 58 57
f 53 54 59 58
f 54 55 60 59
f 55 51 56 60
o Trunk.Stump
v 0.646 0 0.268
v 0.268 0 0.646
v -0.268 0 0.646
v -0.646 0 0.268
v -0.646 0 -0.268
v -0.268 0 -0.646
v 0.268 0 -0.646
v 0.646 0 -0.268
v 0.646 0.5 0.262
v 0.275 0.5 0.632
v -0.248 0.5 0.632
v -0.619 0.5 0.262
v -0.619 0.5 -0.262
v -0.248 0.5 -0.632
v 0.275 0.5 -0.632
v 0.646 0.5 -0.262
usemtl Bark
s off
f 68 67 66 65 64 63 62 61
f 69 70 71 72 73 74 75 76
f 61 62 70 69
f 62 63 71 70
f 63 64 72 71
f 64 65 73 72
f 65 66 74 73
f 66 67 75 74
f 67 68 76 75
f 68 61 69 76
o Trunk
v 0.646 0.5 0.262
v 0.275 0.5 0.632
v -0.248 0.5 0.632
v -0.619 0.5 0.262
v -0.619 0.5 -0.262
v -0.248 0.5 -0.632
v 0.275 0.5 -0.632
v 0.646 0.5 -0.262
v 0.648 1.247 0.254
v 0.289 1.247 0.613
v -0.219 1.247 0.613
v -0.578 1.247 0.254
v -0.578 1.247 -0.254
v -0.219 1.247 -0.613
v 0.289 1.247 -0.613
v 0.648 1.247 -0.254
usemtl Bark
s off
f 84 83 82 81 80 79 78 77
f 85 86 87 88 89 90 91 92
f 77 78 86 85
f 78 79 87 86
f 79 80 88 87
f 80 81 89 88
f 81 82 90 89
f 82 83 91 90
f 83 84 92 91
f 84 77 85 92
o Trunk
v 0.289 1.235 -0.613
v 0.648 1.22 -0.254
v 0.648 1.22 0.254
v 0.289 1.235 0.613
v -0.219 1.26 0.613
v -0.578 1.275 0.254
v -0.578 1.275 -0.254
v -0.219 1.26 -0.613
v 0.301 1.982 -0.593
v 0.65 1.967 -0.246
v 0.65 1.967 0.246
v 0.301 1.982 0.593
v -0.19 2.004 0.593
v -0.537 2.019 0.246
v -0.537 2.019 -0.246
v -0.19 2.004 -0.593
usemtl Bark
s off
f 100 99 98 97 96 95 94 93
f 101 102 103 104 105 106 107 108
f 93 94 102 101
f 94 95 103 102
f 95 96 104 103
f 96 97 105 104
f 97 98 106 105
f 98 99 107 106
f 99 100 108 107
f 100 93 101 108
o Trunk
v 0.301 1.982 -0.593
v 0.65 1.967 -0.246
v 0.65 1.967 0.246
v 0.301 1.982 0.593
v -0.19 2.004 0.593
v -0.537 2.019 0.246
v -0.537 2.019 -0.246
v -0.19 2.004 -0.593
v 0.314 2.729 -0.574
v 0.65 2.714 -0.239
v 0.65 2.714 0.239
v 0.314 2.729 0.574
v -0.161 2.751 0.574
v -0.498 2.766 0.239
v -0.498 2.766 -0.239
v -0.161 2.751 -0.574
usemtl Bark
s off
f 116 115 114 113 112 111 110 109
f 117 118 119 120 121 122 123 124
f 109 110 118 117
f 110 111 119 118
f 111 112 120 119
f 112 113 121 120
f 113 114 122 121
f 114 115 123 122
f 115 116 124 123
f 116 109 117 124
o Trunk
v 0.314 2.729 -0.574
v 0.65 2.714 -0.239
v 0.65 2.714 0.239
v 0.314 2.729 0.574
v -0.161 2.751 0.574
v -0.498 2.766 0.239
v -0.498 2.766 -0.239
v -0.161 2.751 -0.574
v 0.328 3.476 -0.555
v 0.652 3.461 -0.231
v 0.652 3.461 0.231
v 0.328 3.476 0.555
v -0.134 3.495 0.555
v -0.458 3.51 0.231
v -0.458 3.51 -0.231
v -0.134 3.495 -0.555
usemtl Bark
s off
f 132 131 130 129 128 127 126 125
f 133 134 135 136 137 138 139 140
f 125 126 134 133
f 126 127 135 134
f 127 128 136 135
f 128 129 137 136
f 129 130 138 137
f 130 131 139 138
f 131 132 140 139
f 132 125 133 140
o Trunk
v 0.328 3.53 -0.555
v 0.652 3.53 -0.229
v 0.652 3.505 0.231
v 0.328 3.466 0.555
v -0.134 3.441 0.555
v -0.458 3.441 0.229
v -0.458 3.466 -0.231
v -0.134 3.505 -0.555
v 0.293 4.215 -0.508
v 0.605 4.215 -0.196
v 0.605 4.188 0.246
v 0.293 4.153 0.557
v -0.147 4.125 0.557
v -0.46 4.125 0.244
v -0.46 4.153 -0.198
v -0.147 4.188 -0.508
usemtl Bark
s off
f 148 147 146 145 144 143 142 141
f 149 150 151 152 153 154 155 156
f 141 142 150 149
f 142 143 151 150
f 143 144 152 151
f 144 145 153 152
f 145 146 154 153
f 146 147 155 154
f 147 148 156 155
f 148 141 149 156
o Trunk
v 0.293 4.215 -0.508
v 0.605 4.215 -0.196
v 0.605 4.188 0.246
v 0.293 4.153 0.557
v -0.147 4.125 0.557
v -0.46 4.125 0.244
v -0.46 4.153 -0.198
v -0.147 4.188 -0.508
v 0.26 4.897 -0.462
v 0.559 4.897 -0.161
v 0.559 4.872 0.26
v 0.26 4.837 0.559
v -0.163 4.812 0.559
v -0.462 4.812 0.258
v -0.462 4.837 -0.163
v -0.163 4.872 -0.462
usemtl Bark
s off
f 164 163 162 161 160 159 158 157
f 165 166 167 168 169 170 171 172
f 157 158 166 165
f 158 159 167 166
f 159 160 168 167
f 160 161 169 168
f 161 162 170 169
f 162 163 171 170
f 163 164 172 171
f 164 157 165 172
o Trunk
v 0.26 4.897 -0.462
v 0.559 4.897 -0.161
v 0.559 4.872 0.26
v 0.26 4.837 0.559
v -0.163 4.812 0.559
v -0.462 4.812 0.258
v -0.462 4.837 -0.163
v -0.163 4.872 -0.462
v 0.227 5.579 -0.415
v 0.512 5.579 -0.128
v 0.512 5.557 0.275
v 0.227 5.522 0.561
v -0.178 5.5 0.561
v -0.464 5.5 0.273
v -0.464 5.522 -0.13
v -0.178 5.557 -0.415
usemtl Bark
s off
f 180 179 178 177 176 175 174 173
f 181 182 183 184 185 186 187 188
f 173 174 182 181
f 174 175 183 182
f 175 176 184 183
f 176 177 185 184
f 177 178 186 185
f 178 179 187 186
f 179 180 188 187
f 180 173 181 188
o Trunk
v 0.227 5.579 -0.415
v 0.512 5.579 -0.128
v 0.512 5.557 0.275
v 0.227 5.522 0.561
v -0.178 5.5 0.561
v -0.464 5.5 0.273
v -0.464 5.522 -0.13
v -0.178 5.557 -0.415
v 0.192 6.261 -0.369
v 0.465 6.261 -0.095
v 0.465 6.239 0.291
v 0.192 6.209 0.562
v -0.192 6.187 0.562
v -0.465 6.187 0.289
v -0.465 6.209 -0.097
v -0.192 6.239 -0.369
usemtl Bark
s off
f 196 195 194 193 192 191 190 189
f 197 198 199 200 201 202 203 204
f 189 190 198 197
f 190 191 199 198
f 191 192 200 199
f 192 193 201 200
f 193 194 202 201
f 194 195 203 202
f 195 196 204 203
f 196 189 197 204
o Trunk.Knot
v 0.578 2.739 -0.136
v 0.543 2.739 -0.054
v 0.543 2.739 0.054
v 0.578 2.739 0.136
v 0.625 2.739 0.136
v 0.659 2.739 0.054
v 0.659 2.739 -0.054
v 0.625 2.739 -0.136
v 0.578 3.187 -0.136
v 0.543 3.187 -0.054
v 0.543 3.187 0.054
v 0.578 3.187 0.136
v 0.625 3.187 0.136
v 0.659 3.187 0.054
v 0.659 3.187 -0.054
v 0.625 3.187 -0.136
usemtl Soot
s off
f 212 211 210 209 208 207 206 205
f 213 214 215 216 217 218 219 220
f 205 206 214 213
f 206 207 215 214
f 207 208 216 215
f 208 209 217 216
f 209 210 218 217
f 210 211 219 218
f 211 212 220 219
f 212 205 213 220
o Moss
v -0.419 0.625 0.229
v -0.603 0.625 0.369
v -0.718 0.625 0
v -0.603 0.625 -0.369
v -0.419 0.625 -0.229
v -0.419 2.739 0.229
v -0.603 2.739 0.369
v -0.718 2.739 0
v -0.603 2.739 -0.369
v -0.419 2.739 -0.229
usemtl Moss
s off
f 225 224 223 222 221
f 226 227 228 229 230
f 221 222 227 226
f 222 223 228 227
f 223 224 229 228
f 224 225 230 229
f 225 221 226 230
o Bark.Ridge
v 0.485 0.625 -0.097
v 0.485 0.625 0.097
v 0.679 0.625 0.097
v 0.679 0.625 -0.097
v 0.485 1.322 -0.097
v 0.485 1.322 0.097
v 0.679 1.322 0.097
v 0.679 1.322 -0.097
usemtl BarkDark
s off
f 234 233 232 231
f 235 236 237 238
f 231 232 236 235
f 232 233 237 236
f 233 234 238 237
f 234 231 235 238
o Bark.Ridge
v -0.39 1.372 0.405
v -0.39 1.372 0.599
v -0.196 1.372 0.599
v -0.196 1.372 0.405
v -0.39 2.069 0.405
v -0.39 2.069 0.599
v -0.196 2.069 0.599
v -0.196 2.069 0.405
usemtl BarkDark
s off
f 242 241 240 239
f 243 244 245 246
f 239 240 244 243
f 240 241 245 244
f 241 242 246 245
f 242 239 243 246
o Bark.Ridge
v -0.382 2.119 -0.603
v -0.382 2.119 -0.409
v -0.188 2.119 -0.409
v -0.188 2.119 -0.603
v -0.382 2.816 -0.603
v -0.382 2.816 -0.409
v -0.188 2.816 -0.409
v -0.188 2.816 -0.603
usemtl BarkDark
s off
f 250 249 248 247
f 251 252 253 254
f 247 248 252 251
f 248 249 253 252
f 249 250 254 253
f 250 247 251 254
o Bark.Ridge
v 0.485 2.866 -0.087
v 0.485 2.866 0.107
v 0.679 2.866 0.107
v 0.679 2.866 -0.087
v 0.485 3.563 -0.087
v 0.485 3.563 0.107
v 0.679 3.563 0.107
v 0.679 3.563 -0.087
usemtl BarkDark
s off
f 258 257 256 255
f 259 260 261 262
f 255 256 260 259
f 256 257 261 260
f 257 258 262 261
f 258 255 259 262
o Bark.Ridge
v -0.4 3.612 0.4
v -0.4 3.612 0.593
v -0.206 3.612 0.593
v -0.206 3.612 0.4
v -0.4 4.31 0.4
v -0.4 4.31 0.593
v -0.206 4.31 0.593
v -0.206 4.31 0.4
usemtl BarkDark
s off
f 266 265 264 263
f 267 268 269 270
f 263 264 268 267
f 264 265 269 268
f 265 266 270 269
f 266 263 267 270
o Bark.Ridge
v -0.374 4.359 -0.609
v -0.374 4.359 -0.415
v -0.18 4.359 -0.415
v -0.18 4.359 -0.609
v -0.374 5.056 -0.609
v -0.374 5.056 -0.415
v -0.18 5.056 -0.415
v -0.18 5.056 -0.609
usemtl BarkDark
s off
f 274 273 272 271
f 275 276 277 278
f 271 272 276 275
f 272 273 277 276
f 273 274 278 277
f 274 271 275 278
o Bark.Ridge
v 0.485 5.106 -0.078
v 0.485 5.106 0.116
v 0.679 5.106 0.116
v 0.679 5.106 -0.078
v 0.485 5.803 -0.078
v 0.485 5.803 0.116
v 0.679 5.803 0.116
v 0.679 5.803 -0.078
usemtl BarkDark
s off
f 282 281 280 279
f 283 284 285 286
f 279 280 284 283
f 280 281 285 284
f 281 282 286 285
f 282 279 283 286
o Branch
v 0.019 6.082 -0.258
v 0.202 6.189 -0.074
v 0.18 6.082 0.184
v -0.019 5.868 0.258
v -0.202 5.761 0.074
v -0.18 5.868 -0.184
v -2.126 9.754 0.665
v -2.048 9.802 0.745
v -2.056 9.754 0.855
v -2.141 9.665 0.886
v -2.219 9.617 0.807
v -2.211 9.665 0.696
usemtl Bark
s off
f 292 291 290 289 288 287
f 293 294 295 296 297 298
f 287 288 294 293
f 288 289 295 294
f 289 290 296 295
f 290 291 297 296
f 291 292 298 297
f 292 287 293 298
o Branch
v -0.047 6.082 0.254
v -0.208 6.189 0.052
v -0.161 6.082 -0.202
v 0.047 5.868 -0.254
v 0.208 5.761 -0.052
v 0.161 5.868 0.202
v 2.308 10.003 -0.473
v 2.238 10.051 -0.559
v 2.258 10.003 -0.669
v 2.347 9.914 -0.69
v 2.417 9.866 -0.605
v 2.397 9.914 -0.495
usemtl Bark
s off
f 304 303 302 301 300 299
f 305 306 307 308 309 310
f 299 300 306 305
f 300 301 307 306
f 301 302 308 307
f 302 303 309 308
f 303 304 310 309
f 304 299 305 310
o Branch
v 0.208 6.055 0.165
v -0.047 6.134 0.237
v -0.254 6.055 0.072
v -0.208 5.895 -0.165
v 0.047 5.816 -0.237
v 0.254 5.895 -0.072
v 0.477 10.989 -1.87
v 0.369 11.022 -1.839
v 0.279 10.989 -1.908
v 0.299 10.92 -2.009
v 0.407 10.887 -2.04
v 0.497 10.92 -1.971
usemtl Bark
s off
f 316 315 314 313 312 311
f 317 318 319 320 321 322
f 311 312 318 317
f 312 313 319 318
f 313 314 320 319
f 314 315 321 320
f 315 316 322 321
f 316 311 317 322
o Branch
v -0.244 6.067 -0.093
v -0.021 6.157 -0.231
v 0.223 6.067 -0.136
v 0.244 5.883 0.093
v 0.021 5.793 0.231
v -0.223 5.883 0.136
v 0.089 10.496 2.093
v 0.184 10.534 2.035
v 0.289 10.496 2.075
v 0.299 10.417 2.174
v 0.204 10.379 2.232
v 0.099 10.417 2.192
usemtl Bark
s off
f 328 327 326 325 324 323
f 329 330 331 332 333 334
f 323 324 330 329
f 324 325 331 330
f 325 326 332 331
f 326 327 333 332
f 327 328 334 333
f 328 323 329 334
o Crown
v 1.552 7.967 0.718
v 0.63 7.967 1.699
v -0.661 7.967 1.685
v -1.565 7.967 0.685
v -1.552 7.967 -0.718
v -0.63 7.967 -1.699
v 0.661 7.967 -1.685
v 1.565 7.967 -0.685
v 2.587 11.203 1.197
v 1.049 11.203 2.834
v -1.104 11.203 2.808
v -2.609 11.203 1.14
v -2.587 11.203 -1.197
v -1.049 11.203 -2.834
v 1.104 11.203 -2.808
v 2.609 11.203 -1.14
usemtl Paint
s off
f 342 341 340 339 338 337 336 335
f 343 344 345 346 347 348 349 350
f 335 336 344 343
f 336 337 345 344
f 337 338 346 345
f 338 339 347 346
f 339 340 348 347
f 340 341 349 348
f 341 342 350 349
f 342 335 343 350
o Crown
v 2.234 11.203 1.856
v 0.372 11.203 3.028
v -1.709 11.203 2.426
v -2.787 11.203 0.403
v -2.234 11.203 -1.856
v -0.372 11.203 -3.028
v 1.709 11.203 -2.426
v 2.787 11.203 -0.403
v 0.671 14.44 0.557
v 0.111 14.44 0.908
v -0.512 14.44 0.727
v -0.836 14.44 0.12
v -0.671 14.44 -0.557
v -0.111 14.44 -0.908
v 0.512 14.44 -0.727
v 0.836 14.44 -0.12
usemtl Paint
s off
f 358 357 356 355 354 353 352 351
f 359 360 361 362 363 364 365 366
f 351 352 360 359
f 352 353 361 360
f 353 354 362 361
f 354 355 363 362
f 355 356 364 363
f 356 357 365 364
f 357 358 366 365
f 358 351 359 366
o Crown.Under
v 2.329 8.216 0.89
v 0.964 8.216 2.151
v -0.964 8.216 2.151
v -2.329 8.216 0.89
v -2.329 8.216 -0.89
v -0.964 8.216 -2.151
v 0.964 8.216 -2.151
v 2.329 8.216 -0.89
v 2.688 10.207 1.04
v 1.113 10.207 2.508
v -1.113 10.207 2.508
v -2.688 10.207 1.04
v -2.688 10.207 -1.04
v -1.113 10.207 -2.508
v 1.113 10.207 -2.508
v 2.688 10.207 -1.04
usemtl LeafDark
s off
f 374 373 372 371 370 369 368 367
f 375 376 377 378 379 380 381 382
f 367 368 376 375
f 368 369 377 376
f 369 370 378 377
f 370 371 379 378
f 371 372 380 379
f 372 373 381 380
f 373 374 382 381
f 374 367 375 382
o Crown
v -1.429 8.559 1.272
v -2.003 8.559 1.701
v -2.748 8.559 1.581
v -3.103 8.559 0.999
v -2.801 8.559 0.396
v -2.069 8.559 0.225
v -1.458 8.559 0.615
v -0.896 9.959 1.474
v -1.852 9.959 2.19
v -3.093 9.959 1.986
v -3.683 9.959 1.018
v -3.181 9.959 0.014
v -1.963 9.959 -0.272
v -0.945 9.959 0.378
usemtl Paint
s off
f 389 388 387 386 385 384 383
f 390 391 392 393 394 395 396
f 383 384 391 390
f 384 385 392 391
f 385 386 393 392
f 386 387 394 393
f 387 388 395 394
f 388 389 396 395
f 389 383 390 396
o Crown
v -1.082 9.959 1.744
v -2.211 9.959 2.232
v -3.355 9.959 1.771
v -3.652 9.959 0.704
v -2.878 9.959 -0.161
v -1.616 9.959 -0.175
v -0.817 9.959 0.673
v -1.885 11.36 1.202
v -2.225 11.36 1.348
v -2.568 11.36 1.21
v -2.657 11.36 0.89
v -2.424 11.36 0.63
v -2.046 11.36 0.626
v -1.806 11.36 0.881
usemtl Paint
s off
f 403 402 401 400 399 398 397
f 404 405 406 407 408 409 410
f 397 398 405 404
f 398 399 406 405
f 399 400 407 406
f 400 401 408 407
f 401 402 409 408
f 402 403 410 409
f 403 397 404 410
o Crown
v 1.874 8.714 0.126
v 1.41 8.714 -0.607
v 1.635 8.714 -1.466
v 2.384 8.714 -1.806
v 3.088 8.714 -1.369
v 3.221 8.714 -0.487
v 2.68 8.714 0.178
v 1.573 10.207 0.727
v 0.797 10.207 -0.493
v 1.173 10.207 -1.926
v 2.42 10.207 -2.492
v 3.596 10.207 -1.767
v 3.817 10.207 -0.295
v 2.917 10.207 0.815
usemtl Paint
s off
f 417 416 415 414 413 412 411
f 418 419 420 421 422 423 424
f 411 412 419 418
f 412 413 420 419
f 413 414 421 420
f 414 415 422 421
f 415 416 423 422
f 416 417 424 423
f 417 411 418 424
o Crown
v 1.261 10.207 0.473
v 0.782 10.207 -0.921
v 1.466 10.207 -2.207
v 2.801 10.207 -2.415
v 3.778 10.207 -1.387
v 3.664 10.207 0.099
v 2.543 10.207 0.927
v 2.007 11.701 -0.401
v 1.864 11.701 -0.82
v 2.069 11.701 -1.204
v 2.469 11.701 -1.266
v 2.762 11.701 -0.96
v 2.729 11.701 -0.514
v 2.391 11.701 -0.266
usemtl Paint
s off
f 431 430 429 428 427 426 425
f 432 433 434 435 436 437 438
f 425 426 433 432
f 426 427 434 433
f 427 428 435 434
f 428 429 436 435
f 429 430 437 436
f 430 431 438 437
f 431 425 432 438
o Crown
v 0.275 9.361 3.163
v -0.219 9.361 2.591
v -0.111 9.361 1.821
v 0.52 9.361 1.431
v 1.197 9.361 1.716
v 1.41 9.361 2.463
v 1.001 9.361 3.105
v 0.07 10.705 3.72
v -0.753 10.705 2.768
v -0.57 10.705 1.482
v 0.479 10.705 0.834
v 1.606 10.705 1.311
v 1.963 10.705 2.552
v 1.278 10.705 3.625
usemtl Paint
s off
f 445 444 443 442 441 440 439
f 446 447 448 449 450 451 452
f 439 440 447 446
f 440 441 448 447
f 441 442 449 448
f 442 443 450 449
f 443 444 451 450
f 444 445 452 451
f 445 439 446 452
o Crown
v -0.235 10.705 3.542
v -0.813 10.705 2.399
v -0.339 10.705 1.202
v 0.826 10.705 0.853
v 1.81 10.705 1.614
v 1.868 10.705 2.911
v 0.958 10.705 3.77
v 0.337 12.05 2.692
v 0.163 12.05 2.349
v 0.304 12.05 1.99
v 0.656 12.05 1.885
v 0.95 12.05 2.114
v 0.968 12.05 2.502
v 0.694 12.05 2.76
usemtl Paint
s off
f 459 458 457 456 455 454 453
f 460 461 462 463 464 465 466
f 453 454 461 460
f 454 455 462 461
f 455 456 463 462
f 456 457 464 463
f 457 458 465 464
f 458 459 466 465
f 459 453 460 466
o Crown
v -1.206 9.112 -2.128
v -1.04 9.112 -2.909
v -0.382 9.112 -3.254
v 0.272 9.112 -2.9
v 0.427 9.112 -2.114
v -0.029 9.112 -1.49
v -0.756 9.112 -1.495
v -1.751 10.456 -1.996
v -1.474 10.456 -3.299
v -0.378 10.456 -3.871
v 0.71 10.456 -3.282
v 0.972 10.456 -1.972
v 0.209 10.456 -0.931
v -1.003 10.456 -0.941
usemtl Paint
s off
f 473 472 471 470 469 468 467
f 474 475 476 477 478 479 480
f 467 468 475 474
f 468 469 476 475
f 469 470 477 476
f 470 471 478 477
f 471 472 479 478
f 472 473 480 479
f 473 467 474 480
o Crown
v -1.784 10.456 -2.378
v -1.222 10.456 -3.565
v -0.033 10.456 -3.821
v 0.89 10.456 -2.952
v 0.849 10.456 -1.612
v -0.122 10.456 -0.813
v -1.294 10.456 -1.152
v -0.807 11.801 -2.343
v -0.638 11.801 -2.698
v -0.281 11.801 -2.775
v -0.004 11.801 -2.514
v -0.017 11.801 -2.112
v -0.308 11.801 -1.874
v -0.659 11.801 -1.974
usemtl Paint
s off
f 487 486 485 484 483 482 481
f 488 489 490 491 492 493 494
f 481 482 489 488
f 482 483 490 489
f 483 484 491 490
f 484 485 492 491
f 485 486 493 492
f 486 487 494 493
f 487 481 488 494
o Crown
v 1.978 12.386 0.801
v 1.654 12.386 1.482
v 0.96 12.386 1.631
v 0.421 12.386 1.137
v 0.44 12.386 0.37
v 1.005 12.386 -0.091
v 1.689 12.386 0.101
v 2.521 13.693 0.817
v 1.98 13.693 1.951
v 0.824 13.693 2.201
v -0.076 13.693 1.377
v -0.043 13.693 0.101
v 0.898 13.693 -0.667
v 2.038 13.693 -0.349
usemtl Paint
s off
f 501 500 499 498 497 496 495
f 502 503 504 505 506 507 508
f 495 496 503 502
f 496 497 504 503
f 497 498 505 504
f 498 499 506 505
f 499 500 507 506
f 500 501 508 507
f 501 495 502 508
o Crown
v 2.469 13.693 1.179
v 1.687 13.693 2.133
v 0.51 13.693 2.066
v -0.175 13.693 1.026
v 0.149 13.693 -0.202
v 1.235 13.693 -0.694
v 2.269 13.693 -0.08
v 1.555 15 0.896
v 1.321 15 1.183
v 0.968 15 1.164
v 0.762 15 0.851
v 0.859 15 0.483
v 1.185 15 0.336
v 1.495 15 0.52
usemtl Paint
s off
f 515 514 513 512 511 510 509
f 516 517 518 519 520 521 522
f 509 510 517 516
f 510 511 518 517
f 511 512 519 518
f 512 513 520 519
f 513 514 521 520
f 514 515 522 521
f 515 509 516 522
o Crown
v -1.955 12.137 -0.409
v -1.81 12.137 -1.016
v -1.179 12.137 -1.298
v -0.537 12.137 -1.04
v -0.367 12.137 -0.436
v -0.795 12.137 0.056
v -1.503 12.137 0.07
v -2.481 13.444 -0.293
v -2.242 13.444 -1.307
v -1.191 13.444 -1.775
v -0.118 13.444 -1.344
v 0.165 13.444 -0.339
v -0.551 13.444 0.483
v -1.728 13.444 0.502
usemtl Paint
s off
f 529 528 527 526 525 524 523
f 530 531 532 533 534 535 536
f 523 524 531 530
f 524 525 532 531
f 525 526 533 532
f 526 527 534 533
f 527 528 535 534
f 528 529 536 535
f 529 523 530 536
o Crown
v -2.521 13.444 -0.59
v -2.003 13.444 -1.519
v -0.853 13.444 -1.744
v 0.064 13.444 -1.092
v 0.056 13.444 -0.058
v -0.869 13.444 0.584
v -2.017 13.444 0.347
v -1.571 14.751 -0.584
v -1.416 14.751 -0.863
v -1.071 14.751 -0.931
v -0.795 14.751 -0.735
v -0.797 14.751 -0.425
v -1.076 14.751 -0.233
v -1.42 14.751 -0.303
usemtl Paint
s off
f 543 542 541 540 539 538 537
f 544 545 546 547 548 549 550
f 537 538 545 544
f 538 539 546 545
f 539 540 547 546
f 540 541 548 547
f 541 542 549 548
f 542 543 550 549
f 543 537 544 550
o Crown
v 2.909 11.173 1.792
v 2.366 11.173 1.887
v 1.939 11.173 1.585
v 1.951 11.173 1.109
v 2.391 11.173 0.822
v 2.931 11.173 0.939
v 3.161 11.173 1.369
v 3.169 12.199 2.081
v 2.261 12.199 2.24
v 1.55 12.199 1.736
v 1.571 12.199 0.945
v 2.306 12.199 0.465
v 3.204 12.199 0.657
v 3.588 12.199 1.377
usemtl Paint
s off
f 557 556 555 554 553 552 551
f 558 559 560 561 562 563 564
f 551 552 559 558
f 552 553 560 559
f 553 554 561 560
f 554 555 562 561
f 555 556 563 562
f 556 557 564 563
f 557 551 558 564
o Crown
v 2.938 12.199 2.196
v 2.013 12.199 2.159
v 1.472 12.199 1.519
v 1.72 12.199 0.756
v 2.572 12.199 0.448
v 3.386 12.199 0.824
v 3.549 12.199 1.602
v 2.647 13.227 1.61
v 2.368 13.227 1.598
v 2.207 13.227 1.406
v 2.281 13.227 1.177
v 2.537 13.227 1.084
v 2.781 13.227 1.197
v 2.83 13.227 1.431
usemtl Paint
s off
f 571 570 569 568 567 566 565
f 572 573 574 575 576 577 578
f 565 566 573 572
f 566 567 574 573
f 567 568 575 574
f 568 569 576 575
f 569 570 577 576
f 570 571 578 577
f 571 565 572 578
o Crown
v -2.44 10.924 -0.941
v -2.967 10.924 -1.109
v -3.157 10.924 -1.612
v -2.87 10.924 -2.069
v -2.318 10.924 -2.135
v -1.92 10.924 -1.763
v -1.974 10.924 -1.232
v -2.388 11.95 -0.533
v -3.264 11.95 -0.815
v -3.582 11.95 -1.652
v -3.101 11.95 -2.413
v -2.184 11.95 -2.525
v -1.519 11.95 -1.905
v -1.61 11.95 -1.018
usemtl Paint
s off
f 585 584 583 582 581 580 579
f 586 587 588 589 590 591 592
f 579 580 587 586
f 580 581 588 587
f 581 582 589 588
f 582 583 590 589
f 583 584 591 590
f 584 585 592 591
f 585 579 586 592
o Crown
v -2.653 11.95 -0.531
v -3.431 11.95 -1.014
v -3.524 11.95 -1.903
v -2.863 11.95 -2.525
v -1.943 11.95 -2.415
v -1.46 11.95 -1.654
v -1.777 11.95 -0.817
v -2.56 12.976 -1.245
v -2.795 12.976 -1.391
v -2.822 12.976 -1.656
v -2.624 12.976 -1.844
v -2.349 12.976 -1.811
v -2.203 12.976 -1.583
v -2.298 12.976 -1.33
usemtl Paint
s off
f 599 598 597 596 595 594 593
f 600 601 602 603 604 605 606
f 593 594 601 600
f 594 595 602 601
f 595 596 603 602
f 596 597 604 603
f 597 598 605 604
f 598 599 606 605
f 599 593 600 606
o Clump
v 2.688 10.429 1.012
v 2.314 10.429 0.925
v 2.283 10.429 0.543
v 2.636 10.429 0.394
v 2.886 10.429 0.685
v 2.612 11.014 0.832
v 2.463 11.014 0.797
v 2.45 11.014 0.644
v 2.591 11.014 0.586
v 2.692 11.014 0.7
usemtl Paint
s off
f 611 610 609 608 607
f 612 613 614 615 616
f 607 608 613 612
f 608 609 614 613
f 609 610 615 614
f 610 611 616 615
f 611 607 612 616
o Clump
v 1.16 13.374 2.533
v 0.799 13.374 2.312
v 0.898 13.374 1.899
v 1.321 13.374 1.866
v 1.484 13.374 2.26
v 1.142 14.024 2.318
v 0.999 14.024 2.228
v 1.04 14.024 2.064
v 1.208 14.024 2.05
v 1.272 14.024 2.207
usemtl LeafLight
s off
f 621 620 619 618 617
f 622 623 624 625 626
f 617 618 623 622
f 618 619 624 623
f 619 620 625 624
f 620 621 626 625
f 621 617 622 626
o Clump
v 3.28 12.533 1.292
v 2.997 12.533 1.168
v 3.029 12.533 0.859
v 3.33 12.533 0.795
v 3.485 12.533 1.063
v 3.247 13.003 1.138
v 3.134 13.003 1.088
v 3.146 13.003 0.964
v 3.268 13.003 0.939
v 3.33 13.003 1.045
usemtl LeafDark
s off
f 631 630 629 628 627
f 632 633 634 635 636
f 627 628 633 632
f 628 629 634 633
f 629 630 635 634
f 630 631 636 635
f 631 627 632 636
o Clump
v 0.213 14.395 0.694
v 0.178 14.395 0.413
v 0.434 14.395 0.293
v 0.628 14.395 0.5
v 0.493 14.395 0.749
v 0.32 14.828 0.595
v 0.306 14.828 0.483
v 0.407 14.828 0.434
v 0.485 14.828 0.518
v 0.431 14.828 0.617
usemtl Paint
s off
f 641 640 639 638 637
f 642 643 644 645 646
f 637 638 643 642
f 638 639 644 643
f 639 640 645 644
f 640 641 646 645
f 641 637 642 646
o Clump
v 1.148 10.23 1.074
v 0.898 10.23 1.234
v 0.669 10.23 1.045
v 0.778 10.23 0.768
v 1.074 10.23 0.787
v 1.007 10.683 1.018
v 0.908 10.683 1.082
v 0.815 10.683 1.007
v 0.859 10.683 0.896
v 0.978 10.683 0.904
usemtl LeafLight
s off
f 651 650 649 648 647
f 652 653 654 655 656
f 647 648 653 652
f 648 649 654 653
f 649 650 655 654
f 650 651 656 655
f 651 647 652 656
o Clump
v -0.19 13.417 1.495
v -0.38 13.417 1.173
v -0.134 13.417 0.894
v 0.209 13.417 1.042
v 0.175 13.417 1.414
v -0.114 13.989 1.321
v -0.19 13.989 1.193
v -0.091 13.989 1.08
v 0.045 13.989 1.138
v 0.031 13.989 1.288
usemtl LeafDark
s off
f 661 660 659 658 657
f 662 663 664 665 666
f 657 658 663 662
f 658 659 664 663
f 659 660 665 664
f 660 661 666 665
f 661 657 662 666
o Clump
v 1.327 10.509 -1.618
v 1.142 10.509 -1.874
v 1.33 10.509 -2.128
v 1.629 10.509 -2.029
v 1.627 10.509 -1.713
v 1.377 10.992 -1.771
v 1.303 10.992 -1.874
v 1.379 10.992 -1.974
v 1.497 10.992 -1.934
v 1.497 10.992 -1.81
usemtl Paint
s off
f 671 670 669 668 667
f 672 673 674 675 676
f 667 668 673 672
f 668 669 674 673
f 669 670 675 674
f 670 671 676 675
f 671 667 672 676
o Clump
v 1.509 11.253 2.63
v 1.259 11.253 2.376
v 1.422 11.253 2.06
v 1.773 11.253 2.116
v 1.827 11.253 2.469
v 1.538 11.798 2.45
v 1.437 11.798 2.349
v 1.503 11.798 2.223
v 1.643 11.798 2.246
v 1.666 11.798 2.386
usemtl LeafLight
s off
f 681 680 679 678 677
f 682 683 684 685 686
f 677 678 683 682
f 678 679 684 683
f 679 680 685 684
f 680 681 686 685
f 681 677 682 686
o Clump
v -1.379 9.647 0.05
v -1.747 9.647 0.204
v -2.007 9.647 -0.099
v -1.798 9.647 -0.44
v -1.41 9.647 -0.347
v -1.554 10.257 -0.054
v -1.701 10.257 0.006
v -1.804 10.257 -0.114
v -1.72 10.257 -0.252
v -1.565 10.257 -0.213
usemtl LeafDark
s off
f 691 690 689 688 687
f 692 693 694 695 696
f 687 688 693 692
f 688 689 694 693
f 689 690 695 694
f 690 691 696 695
f 691 687 692 696
o Clump
v 1.185 13.962 2.031
v 1.315 13.962 1.633
v 1.734 13.962 1.633
v 1.864 13.962 2.031
v 1.524 13.962 2.277
v 1.389 14.604 1.965
v 1.441 14.604 1.806
v 1.608 14.604 1.806
v 1.66 14.604 1.965
v 1.524 14.604 2.064
usemtl Paint
s off
f 701 700 699 698 697
f 702 703 704 705 706
f 697 698 703 702
f 698 699 704 703
f 699 700 705 704
f 700 701 706 705
f 701 697 702 706
o Clump
v -1.521 11.589 -0.913
v -1.701 11.589 -0.704
v -1.955 11.589 -0.813
v -1.932 11.589 -1.086
v -1.664 11.589 -1.148
v -1.662 12.01 -0.925
v -1.734 12.01 -0.842
v -1.835 12.01 -0.884
v -1.825 12.01 -0.995
v -1.718 12.01 -1.02
usemtl LeafLight
s off
f 711 710 709 708 707
f 712 713 714 715 716
f 707 708 713 712
f 708 709 714 713
f 709 710 715 714
f 710 711 716 715
f 711 707 712 716
o Clump
v 0.446 10.001 -3.07
v 0.219 10.001 -3.351
v 0.417 10.001 -3.654
v 0.766 10.001 -3.561
v 0.784 10.001 -3.2
v 0.495 10.554 -3.249
v 0.403 10.554 -3.361
v 0.483 10.554 -3.481
v 0.623 10.554 -3.445
v 0.63 10.554 -3.301
usemtl LeafDark
s off
f 721 720 719 718 717
f 722 723 724 725 726
f 717 718 723 722
f 718 719 724 723
f 719 720 725 724
f 720 721 726 725
f 721 717 722 726
o Clump
v -0.586 10.758 -3.361
v -0.632 10.758 -3.759
v -0.268 10.758 -3.927
v 0.006 10.758 -3.635
v -0.19 10.758 -3.284
v -0.434 11.373 -3.501
v -0.454 11.373 -3.66
v -0.308 11.373 -3.728
v -0.198 11.373 -3.609
v -0.277 11.373 -3.47
usemtl Paint
s off
f 731 730 729 728 727
f 732 733 734 735 736
f 727 728 733 732
f 728 729 734 733
f 729 730 735 734
f 730 731 736 735
f 731 727 732 736
o Clump
v 1.658 12.687 1.431
v 1.819 12.687 1.086
v 2.197 12.687 1.135
v 2.269 12.687 1.509
v 1.936 12.687 1.691
v 1.848 13.27 1.394
v 1.914 13.27 1.257
v 2.066 13.27 1.276
v 2.093 13.27 1.426
v 1.961 13.27 1.499
usemtl LeafLight
s off
f 741 740 739 738 737
f 742 743 744 745 746
f 737 738 743 742
f 738 739 744 743
f 739 740 745 744
f 740 741 746 745
f 741 737 742 746
o Clump
v 2.795 11.754 0.846
v 2.45 11.754 0.679
v 2.502 11.754 0.299
v 2.878 11.754 0.231
v 3.061 11.754 0.568
v 2.76 12.341 0.654
v 2.622 12.341 0.586
v 2.644 12.341 0.434
v 2.793 12.341 0.407
v 2.867 12.341 0.541
usemtl LeafDark
s off
f 751 750 749 748 747
f 752 753 754 755 756
f 747 748 753 752
f 748 749 754 753
f 749 750 755 754
f 750 751 756 755
f 751 747 752 756
o Clump
v 1.111 13.085 2.343
v 1.082 13.085 1.92
v 1.474 13.085 1.763
v 1.746 13.085 2.087
v 1.521 13.085 2.444
v 1.276 13.733 2.203
v 1.265 13.733 2.035
v 1.422 13.733 1.972
v 1.53 13.733 2.1
v 1.439 13.733 2.244
usemtl Paint
s off
f 761 760 759 758 757
f 762 763 764 765 766
f 757 758 763 762
f 758 759 764 763
f 759 760 765 764
f 760 761 766 765
f 761 757 762 766
o Clump
v 2.694 12.607 2.182
v 2.353 12.607 2.197
v 2.234 12.607 1.875
v 2.502 12.607 1.664
v 2.787 12.607 1.852
v 2.585 13.13 2.046
v 2.45 13.13 2.052
v 2.401 13.13 1.924
v 2.51 13.13 1.839
v 2.622 13.13 1.914
usemtl LeafLight
s off
f 771 770 769 768 767
f 772 773 774 775 776
f 767 768 773 772
f 768 769 774 773
f 769 770 775 774
f 770 771 776 775
f 771 767 772 776
o Clump
v -1.821 10.262 -1.777
v -1.875 10.262 -2.036
v -1.645 10.262 -2.17
v -1.447 10.262 -1.992
v -1.555 10.262 -1.747
v -1.73 10.671 -1.877
v -1.751 10.671 -1.982
v -1.658 10.671 -2.035
v -1.579 10.671 -1.963
v -1.623 10.671 -1.866
usemtl LeafDark
s off
f 781 780 779 778 777
f 782 783 784 785 786
f 777 778 783 782
f 778 779 784 783
f 779 780 785 784
f 780 781 786 785
f 781 777 782 786
o Clump
v -1.216 10.544 1.705
v -1.579 10.544 1.899
v -1.875 10.544 1.614
v -1.695 10.544 1.243
v -1.288 10.544 1.299
v -1.404 11.171 1.614
v -1.55 11.171 1.691
v -1.668 11.171 1.577
v -1.596 11.171 1.429
v -1.433 11.171 1.451
usemtl Paint
s off
f 791 790 789 788 787
f 792 793 794 795 796
f 787 788 793 792
f 788 789 794 793
f 789 790 795 794
f 790 791 796 795
f 791 787 792 796
o Clump
v -1.018 9.401 1.195
v -1.245 9.401 0.826
v -0.964 9.401 0.497
v -0.564 9.401 0.661
v -0.597 9.401 1.092
v -0.933 10.063 0.989
v -1.024 10.063 0.842
v -0.912 10.063 0.71
v -0.753 10.063 0.776
v -0.766 10.063 0.948
usemtl LeafLight
s off
f 801 800 799 798 797
f 802 803 804 805 806
f 797 798 803 802
f 798 799 804 803
f 799 800 805 804
f 800 801 806 805
f 801 797 802 806
o Clump
v -0.147 11.348 -1.664
v -0.361 11.348 -1.49
v -0.593 11.348 -1.637
v -0.526 11.348 -1.905
v -0.25 11.348 -1.922
v -0.283 11.771 -1.699
v -0.369 11.771 -1.629
v -0.462 11.771 -1.689
v -0.434 11.771 -1.796
v -0.324 11.771 -1.802
usemtl LeafDark
s off
f 811 810 809 808 807
f 812 813 814 815 816
f 807 808 813 812
f 808 809 814 813
f 809 810 815 814
f 810 811 816 815
f 811 807 812 816
o Clump
v 0.483 10.27 1.187
v 0.301 10.27 0.904
v 0.514 10.27 0.644
v 0.828 10.27 0.766
v 0.807 10.27 1.102
v 0.545 10.783 1.028
v 0.473 10.783 0.913
v 0.559 10.783 0.811
v 0.683 10.783 0.859
v 0.675 10.783 0.993
usemtl Paint
s off
f 821 820 819 818 817
f 822 823 824 825 826
f 817 818 823 822
f 818 819 824 823
f 819 820 825 824
f 820 821 826 825
f 821 817 822 826
o Clump
v -2.442 11.686 -0.349
v -2.812 11.686 -0.31
v -2.964 11.686 -0.652
v -2.686 11.686 -0.9
v -2.364 11.686 -0.712
v -2.57 12.256 -0.491
v -2.717 12.256 -0.475
v -2.777 12.256 -0.611
v -2.667 12.256 -0.71
v -2.537 12.256 -0.636
usemtl LeafLight
s off
f 831 830 829 828 827
f 832 833 834 835 836
f 827 828 833 832
f 828 829 834 833
f 829 830 835 834
f 830 831 836 835
f 831 827 832 836
o Clump
v 2.232 9.968 -2.11
v 1.922 9.968 -2.263
v 1.972 9.968 -2.607
v 2.314 9.968 -2.667
v 2.475 9.968 -2.358
v 2.203 10.499 -2.285
v 2.079 10.499 -2.347
v 2.099 10.499 -2.484
v 2.236 10.499 -2.508
v 2.3 10.499 -2.384
usemtl LeafDark
s off
f 841 840 839 838 837
f 842 843 844 845 846
f 837 838 843 842
f 838 839 844 843
f 839 840 845 844
f 840 841 846 845
f 841 837 842 846
o Clump
v 0.206 11.49 2.345
v -0.153 11.49 2.419
v -0.334 11.49 2.1
v -0.085 11.49 1.831
v 0.246 11.49 1.982
v 0.068 12.05 2.219
v -0.076 12.05 2.248
v -0.147 12.05 2.122
v -0.048 12.05 2.013
v 0.083 12.05 2.073
usemtl Paint
s off
f 851 850 849 848 847
f 852 853 854 855 856
f 847 848 853 852
f 848 849 854 853
f 849 850 855 854
f 850 851 856 855
f 851 847 852 856
o Clump
v 1.61 10.738 2.469
v 1.612 10.738 2.102
v 1.961 10.738 1.992
v 2.174 10.738 2.291
v 1.957 10.738 2.585
v 1.761 11.298 2.36
v 1.763 11.298 2.215
v 1.903 11.298 2.17
v 1.988 11.298 2.289
v 1.901 11.298 2.407
usemtl LeafLight
s off
f 861 860 859 858 857
f 862 863 864 865 866
f 857 858 863 862
f 858 859 864 863
f 859 860 865 864
f 860 861 866 865
f 861 857 862 866
o Clump
v -1.901 11.664 -0.442
v -2.223 11.664 -0.654
v -2.122 11.664 -1.026
v -1.736 11.664 -1.043
v -1.598 11.664 -0.683
v -1.91 12.254 -0.638
v -2.038 12.254 -0.723
v -1.998 12.254 -0.873
v -1.844 12.254 -0.879
v -1.788 12.254 -0.735
usemtl LeafDark
s off
f 871 870 869 868 867
f 872 873 874 875 876
f 867 868 873 872
f 868 869 874 873
f 869 870 875 874
f 870 871 876 875
f 871 867 872 876
o Clump
v 1.697 10.676 -1.711
v 1.431 10.676 -1.841
v 1.472 10.676 -2.133
v 1.765 10.676 -2.186
v 1.905 10.676 -1.924
v 1.672 11.129 -1.86
v 1.565 11.129 -1.91
v 1.581 11.129 -2.029
v 1.699 11.129 -2.05
v 1.753 11.129 -1.945
usemtl Paint
s off
f 881 880 879 878 877
f 882 883 884 885 886
f 877 878 883 882
f 878 879 884 883
f 879 880 885 884
f 880 881 886 885
f 881 877 882 886
o Clump
v 1.416 10.123 3.586
v 1.189 10.123 3.398
v 1.296 10.123 3.123
v 1.592 10.123 3.142
v 1.666 10.123 3.427
v 1.426 10.573 3.437
v 1.334 10.573 3.361
v 1.377 10.573 3.251
v 1.495 10.573 3.258
v 1.526 10.573 3.373
usemtl LeafLight
s off
f 891 890 889 888 887
f 892 893 894 895 896
f 887 888 893 892
f 888 889 894 893
f 889 890 895 894
f 890 891 896 895
f 891 887 892 896
o Clump
v -0.169 11.129 2.029
v -0.551 11.129 2.002
v -0.646 11.129 1.631
v -0.322 11.129 1.427
v -0.027 11.129 1.672
v -0.273 11.714 1.862
v -0.427 11.714 1.852
v -0.464 11.714 1.703
v -0.334 11.714 1.621
v -0.215 11.714 1.72
usemtl LeafDark
s off
f 901 900 899 898 897
f 902 903 904 905 906
f 897 898 903 902
f 898 899 904 903
f 899 900 905 904
f 900 901 906 905
f 901 897 902 906
o Clump
v -1.443 11.398 -1.142
v -1.829 11.398 -1.272
v -1.825 11.398 -1.68
v -1.437 11.398 -1.8
v -1.201 11.398 -1.468
v -1.505 12.02 -1.34
v -1.66 12.02 -1.393
v -1.658 12.02 -1.555
v -1.503 12.02 -1.604
v -1.408 12.02 -1.47
usemtl Paint
s off
f 911 910 909 908 907
f 912 913 914 915 916
f 907 908 913 912
f 908 909 914 913
f 909 910 915 914
f 910 911 916 915
f 911 907 912 916
o Clump
v 2.1 12.149 1.043
v 1.662 12.149 1.03
v 1.54 12.149 0.611
v 1.901 12.149 0.365
v 2.246 12.149 0.63
v 1.974 12.819 0.859
v 1.8 12.819 0.853
v 1.749 12.819 0.685
v 1.895 12.819 0.588
v 2.033 12.819 0.694
usemtl LeafLight
s off
f 921 920 919 918 917
f 922 923 924 925 926
f 917 918 923 922
f 918 919 924 923
f 919 920 925 924
f 920 921 926 925
f 921 917 922 926
o Clump
v 1.109 13.113 -0.264
v 0.859 13.113 -0.551
v 1.055 13.113 -0.879
v 1.427 13.113 -0.791
v 1.46 13.113 -0.413
v 1.152 13.695 -0.454
v 1.053 13.695 -0.568
v 1.131 13.695 -0.698
v 1.28 13.695 -0.665
v 1.294 13.695 -0.512
usemtl LeafDark
s off
f 931 930 929 928 927
f 932 933 934 935 936
f 927 928 933 932
f 928 929 934 933
f 929 930 935 934
f 930 931 936 935
f 931 927 932 936
o Clump
v 3.357 9.655 -1.493
v 3.064 9.655 -1.788
v 3.254 9.655 -2.159
v 3.664 9.655 -2.093
v 3.728 9.655 -1.682
v 3.39 10.29 -1.703
v 3.274 10.29 -1.821
v 3.349 10.29 -1.969
v 3.514 10.29 -1.943
v 3.54 10.29 -1.779
usemtl Paint
s off
f 941 940 939 938 937
f 942 943 944 945 946
f 937 938 943 942
f 938 939 944 943
f 939 940 945 944
f 940 941 946 945
f 941 937 942 946
o Clump
v 0.943 14.004 -0.225
v 0.696 14.004 0.114
v 0.299 14.004 -0.016
v 0.299 14.004 -0.434
v 0.696 14.004 -0.562
v 0.729 14.644 -0.225
v 0.63 14.644 -0.089
v 0.471 14.644 -0.142
v 0.471 14.644 -0.308
v 0.63 14.644 -0.361
usemtl LeafLight
s off
f 951 950 949 948 947
f 952 953 954 955 956
f 947 948 953 952
f 948 949 954 953
f 949 950 955 954
f 950 951 956 955
f 951 947 952 956
o Clump
v -2.552 13.362 -0.258
v -2.676 13.362 -0.514
v -2.473 13.362 -0.71
v -2.223 13.362 -0.576
v -2.271 13.362 -0.297
v -2.484 13.795 -0.386
v -2.533 13.795 -0.489
v -2.452 13.795 -0.566
v -2.353 13.795 -0.514
v -2.372 13.795 -0.401
usemtl LeafDark
s off
f 961 960 959 958 957
f 962 963 964 965 966
f 957 958 963 962
f 958 959 964 963
f 959 960 965 964
f 960 961 966 965
f 961 957 962 966
o Litter
v 0.211 0 -1.503
v 0.343 0 -1.408
v 0.264 0 -1.286
v 0.083 0 -1.305
v 0.052 0 -1.439
v 0.211 0.05 -1.503
v 0.343 0.05 -1.408
v 0.264 0.05 -1.286
v 0.083 0.05 -1.305
v 0.052 0.05 -1.439
usemtl LeafDry
s off
f 971 970 969 968 967
f 972 973 974 975 976
f 967 968 973 972
f 968 969 974 973
f 969 970 975 974
f 970 971 976 975
f 971 967 972 976
o Grass
v -1.065 0.012 -0.894
v -1.107 -0.007 -0.822
v -1.148 -0.007 -0.896
v -1.204 0.67 -0.817
v -1.21 0.667 -0.809
v -1.214 0.667 -0.817
usemtl Grass
s off
f 979 978 977
f 980 981 982
f 977 978 981 980
f 978 979 982 981
f 979 977 980 982
o Grass
v -1.065 -0.007 -0.894
v -1.107 0.012 -0.822
v -1.148 -0.005 -0.894
v -1.096 0.759 -0.981
v -1.1 0.762 -0.976
v -1.104 0.759 -0.981
usemtl Grass
s off
f 985 984 983
f 986 987 988
f 983 984 987 986
f 984 985 988 987
f 985 983 986 988
o Grass
v -1.065 0.007 -0.894
v -1.107 -0.005 -0.822
v -1.148 -0.002 -0.896
v -1.154 0.647 -0.824
v -1.158 0.645 -0.817
v -1.164 0.647 -0.824
usemtl Grass
s off
f 991 990 989
f 992 993 994
f 989 990 993 992
f 990 991 994 993
f 991 989 992 994
o Grass
v -0.784 0 0.848
v -0.826 0.002 0.921
v -0.869 0 0.848
v -0.822 0.563 0.859
v -0.826 0.563 0.867
v -0.832 0.563 0.859
usemtl Grass
s off
f 997 996 995
f 998 999 1000
f 995 996 999 998
f 996 997 1000 999
f 997 995 998 1000
o Grass
v -0.785 -0.007 0.848
v -0.826 -0.007 0.919
v -0.867 0.015 0.849
v -0.739 0.53 0.915
v -0.743 0.53 0.923
v -0.749 0.533 0.915
usemtl Grass
s off
f 1003 1002 1001
f 1004 1005 1006
f 1001 1002 1005 1004
f 1002 1003 1006 1005
f 1003 1001 1004 1006
o Grass
v -0.784 0.002 0.848
v -0.826 -0.002 0.919
v -0.869 0 0.848
v -0.844 0.7 0.89
v -0.848 0.697 0.898
v -0.853 0.7 0.89
usemtl Grass
s off
f 1009 1008 1007
f 1010 1011 1012
f 1007 1008 1011 1010
f 1008 1009 1012 1011
f 1009 1007 1010 1012
o Litter
v 0.741 0 -1.515
v 0.828 0 -1.394
v 0.702 0 -1.296
v 0.537 0 -1.356
v 0.561 0 -1.491
v 0.741 0.05 -1.515
v 0.828 0.05 -1.394
v 0.702 0.05 -1.296
v 0.537 0.05 -1.356
v 0.561 0.05 -1.491
usemtl Moss
s off
f 1017 1016 1015 1014 1013
f 1018 1019 1020 1021 1022
f 1013 1014 1019 1018
f 1014 1015 1020 1019
f 1015 1016 1021 1020
f 1016 1017 1022 1021
f 1017 1013 1018 1022
o Litter
v -2.038 0 0.433
v -1.965 0 0.308
v -1.784 0 0.322
v -1.746 0 0.456
v -1.903 0 0.524
v -2.038 0.05 0.433
v -1.965 0.05 0.308
v -1.784 0.05 0.322
v -1.746 0.05 0.456
v -1.903 0.05 0.524
usemtl LeafDry
s off
f 1027 1026 1025 1024 1023
f 1028 1029 1030 1031 1032
f 1023 1024 1029 1028
f 1024 1025 1030 1029
f 1025 1026 1031 1030
f 1026 1027 1032 1031
f 1027 1023 1028 1032
o Grass
v -1.639 0.005 1.924
v -1.68 -0.002 1.996
v -1.722 -0.002 1.924
v -1.709 0.615 1.972
v -1.713 0.612 1.98
v -1.716 0.612 1.972
usemtl Grass
s off
f 1035 1034 1033
f 1036 1037 1038
f 1033 1034 1037 1036
f 1034 1035 1038 1037
f 1035 1033 1036 1038
o Grass
v -1.639 -0.002 1.924
v -1.68 0.002 1.996
v -1.722 0 1.924
v -1.666 0.789 1.928
v -1.67 0.789 1.936
v -1.674 0.789 1.928
usemtl Grass
s off
f 1041 1040 1039
f 1042 1043 1044
f 1039 1040 1043 1042
f 1040 1041 1044 1043
f 1041 1039 1042 1044
o Grass
v -1.639 -0.02 1.926
v -1.68 0.015 1.996
v -1.72 0.005 1.922
v -1.573 0.573 1.837
v -1.577 0.575 1.843
v -1.581 0.575 1.837
usemtl Grass
s off
f 1047 1046 1045
f 1048 1049 1050
f 1045 1046 1049 1048
f 1046 1047 1050 1049
f 1047 1045 1048 1050
o Grass
v 0.933 -0.012 -0.985
v 0.89 0.007 -0.913
v 0.849 0.005 -0.987
v 1.001 0.772 -1.032
v 0.997 0.774 -1.026
v 0.993 0.774 -1.032
usemtl Grass
s off
f 1053 1052 1051
f 1054 1055 1056
f 1051 1052 1055 1054
f 1052 1053 1056 1055
f 1053 1051 1054 1056
o Grass
v 0.933 0 -0.985
v 0.89 -0.007 -0.913
v 0.849 0.007 -0.985
v 0.931 0.754 -0.894
v 0.927 0.754 -0.886
v 0.923 0.754 -0.894
usemtl Grass
s off
f 1059 1058 1057
f 1060 1061 1062
f 1057 1058 1061 1060
f 1058 1059 1062 1061
f 1059 1057 1060 1062
o Grass
v 0.933 0 -0.985
v 0.89 0.002 -0.913
v 0.849 -0.005 -0.985
v 0.867 0.65 -0.993
v 0.863 0.65 -0.987
v 0.859 0.65 -0.993
usemtl Grass
s off
f 1065 1064 1063
f 1066 1067 1068
f 1063 1064 1067 1066
f 1064 1065 1068 1067
f 1065 1063 1066 1068
o Litter
v 1.142 0 -2.663
v 1.237 0 -2.545
v 1.117 0 -2.442
v 0.948 0 -2.496
v 0.964 0 -2.632
v 1.142 0.05 -2.663
v 1.237 0.05 -2.545
v 1.117 0.05 -2.442
v 0.948 0.05 -2.496
v 0.964 0.05 -2.632
usemtl Moss
s off
f 1073 1072 1071 1070 1069
f 1074 1075 1076 1077 1078
f 1069 1070 1075 1074
f 1070 1071 1076 1075
f 1071 1072 1077 1076
f 1072 1073 1078 1077
f 1073 1069 1074 1078
o Litter
v -0.813 0 1.507
v -0.892 0 1.385
v -0.762 0 1.29
v -0.601 0 1.354
v -0.632 0 1.488
v -0.813 0.05 1.507
v -0.892 0.05 1.385
v -0.762 0.05 1.29
v -0.601 0.05 1.354
v -0.632 0.05 1.488
usemtl LeafDry
s off
f 1083 1082 1081 1080 1079
f 1084 1085 1086 1087 1088
f 1079 1080 1085 1084
f 1080 1081 1086 1085
f 1081 1082 1087 1086
f 1082 1083 1088 1087
f 1083 1079 1084 1088
o Grass
v -1.587 -0.01 1.352
v -1.625 -0.007 1.426
v -1.666 0.017 1.356
v -1.507 0.583 1.427
v -1.511 0.583 1.435
v -1.515 0.585 1.429
usemtl Grass
s off
f 1091 1090 1089
f 1092 1093 1094
f 1089 1090 1093 1092
f 1090 1091 1094 1093
f 1091 1089 1092 1094
o Grass
v -1.585 0.01 1.354
v -1.625 -0.002 1.426
v -1.668 -0.007 1.354
v -1.713 0.727 1.402
v -1.716 0.727 1.41
v -1.72 0.727 1.402
usemtl Grass
s off
f 1097 1096 1095
f 1098 1099 1100
f 1095 1096 1099 1098
f 1096 1097 1100 1099
f 1097 1095 1098 1100
o Grass
v -1.585 0.002 1.354
v -1.625 -0.002 1.426
v -1.668 -0.002 1.354
v -1.652 0.737 1.389
v -1.656 0.737 1.396
v -1.66 0.737 1.389
usemtl Grass
s off
f 1103 1102 1101
f 1104 1105 1106
f 1101 1102 1105 1104
f 1102 1103 1106 1105
f 1103 1101 1104 1106
o Grass
v 1.715 -0.015 -1.138
v 1.674 0.012 -1.069
v 1.633 0.005 -1.14
v 1.771 0.598 -1.21
v 1.765 0.6 -1.204
v 1.761 0.598 -1.21
usemtl Grass
s off
f 1109 1108 1107
f 1110 1111 1112
f 1107 1108 1111 1110
f 1108 1109 1112 1111
f 1109 1107 1110 1112
o Grass
v 1.716 -0.005 -1.14
v 1.674 0.005 -1.067
v 1.633 0 -1.14
v 1.701 0.747 -1.168
v 1.695 0.747 -1.162
v 1.691 0.747 -1.168
usemtl Grass
s off
f 1115 1114 1113
f 1116 1117 1118
f 1113 1114 1117 1116
f 1114 1115 1118 1117
f 1115 1113 1116 1118
o Grass
v 1.716 0.005 -1.14
v 1.674 0.007 -1.069
v 1.633 -0.012 -1.138
v 1.614 0.555 -1.175
v 1.61 0.555 -1.168
v 1.604 0.555 -1.175
usemtl Grass
s off
f 1121 1120 1119
f 1122 1123 1124
f 1119 1120 1123 1122
f 1120 1121 1124 1123
f 1121 1119 1122 1124
o Litter
v -0.599 0 1.716
v -0.704 0 1.604
v -0.595 0 1.495
v -0.423 0 1.54
v -0.425 0 1.676
v -0.599 0.05 1.716
v -0.704 0.05 1.604
v -0.595 0.05 1.495
v -0.423 0.05 1.54
v -0.425 0.05 1.676
usemtl Moss
s off
f 1129 1128 1127 1126 1125
f 1130 1131 1132 1133 1134
f 1125 1126 1131 1130
f 1126 1127 1132 1131
f 1127 1128 1133 1132
f 1128 1129 1134 1133
f 1129 1125 1130 1134
