# tree_maple.obj - Ahorn (Holz) fuer procedurally-generated-map
# Einheiten: Meter, Y oben, Vorderseite nach +Z - so wie Blender ein Modell
# exportiert, das in der Vorderansicht zum Betrachter schaut.
# Material Paint (das Laub) bekommt eine je Baum leicht andere Farbe.
mtllib tree_maple.mtl
o Root
v 0.232 0.307 0.124
v 0.26 0.358 -0.004
v 0.239 0.226 -0.088
v 0.198 0.092 -0.013
v 0.194 0.143 0.12
v 0.846 0.036 0.145
v 0.856 0.058 0.092
v 0.848 0 0.054
v 0.831 -0.058 0.088
v 0.83 -0.036 0.144
usemtl Bark
s off
f 5 4 3 2 1
f 6 7 8 9 10
f 1 2 7 6
f 2 3 8 7
f 3 4 9 8
f 4 5 10 9
f 5 1 6 10
o Root
v -0.113 0.307 0.239
v 0.018 0.358 0.259
v 0.101 0.226 0.233
v 0.022 0.092 0.198
v -0.11 0.143 0.199
v -0.102 0.036 0.851
v -0.047 0.058 0.86
v -0.011 0 0.849
v -0.045 -0.058 0.835
v -0.101 -0.036 0.835
usemtl Bark
s off
f 15 14 13 12 11
f 16 17 18 19 20
f 11 12 17 16
f 12 13 18 17
f 13 14 19 18
f 14 15 20 19
f 15 11 16 20
o Root
v -0.262 0.307 -0.025
v -0.237 0.358 0.104
v -0.185 0.226 0.174
v -0.178 0.092 0.088
v -0.224 0.143 -0.036
v -0.835 0.036 0.194
v -0.824 0.058 0.25
v -0.803 0 0.278
v -0.799 -0.058 0.242
v -0.819 -0.036 0.19
usemtl Bark
s off
f 25 24 23 22 21
f 26 27 28 29 30
f 21 22 27 26
f 22 23 28 27
f 23 24 29 28
f 24 25 30 29
f 25 21 26 30
o Root
v -0.027 0.307 -0.262
v -0.149 0.358 -0.214
v -0.206 0.226 -0.149
v -0.12 0.092 -0.158
v -0.009 0.143 -0.228
v -0.352 0.036 -0.783
v -0.404 0.058 -0.761
v -0.429 0 -0.734
v -0.391 -0.058 -0.738
v -0.343 -0.036 -0.769
usemtl Bark
s off
f 35 34 33 32 31
f 36 37 38 39 40
f 31 32 37 36
f 32 33 38 37
f 33 34 39 38
f 34 35 40 39
f 35 31 36 40
o Root
v 0.176 0.307 -0.196
v 0.057 0.358 -0.253
v -0.031 0.226 -0.253
v 0.034 0.092 -0.196
v 0.162 0.143 -0.16
v 0.339 0.036 -0.786
v 0.289 0.058 -0.812
v 0.251 0 -0.812
v 0.28 -0.058 -0.786
v 0.334 -0.036 -0.772
usemtl Bark
s off
f 45 44 43 42 41
f 46 47 48 49 50
f 41 42 47 46
f 42 43 48 47
f 43 44 49 48
f 44 45 50 49
f 45 41 46 50
o Trunk.Stump
v 0.452 0 0.217
v 0.111 0 0.49
v -0.314 0 0.393
v -0.503 0 0
v -0.314 0 -0.393
v 0.111 0 -0.49
v 0.452 0 -0.217
v 0.431 0.499 0.226
v 0.097 0.499 0.494
v -0.32 0.499 0.399
v -0.505 0.499 0.013
v -0.32 0.499 -0.373
v 0.097 0.499 -0.469
v 0.431 0.499 -0.201
usemtl BarkDark
s off
f 57 56 55 54 53 52 51
f 58 59 60 61 62 63 64
f 51 52 59 58
f 52 53 60 59
f 53 54 61 60
f 54 55 62 61
f 55 56 63 62
f 56 57 64 63
f 57 51 58 64
o Trunk
v 0.431 0.499 0.226
v 0.097 0.499 0.494
v -0.32 0.499 0.399
v -0.505 0.499 0.013
v -0.32 0.499 -0.373
v 0.097 0.499 -0.469
v 0.431 0.499 -0.201
v 0.402 1.17 0.237
v 0.077 1.17 0.497
v -0.329 1.17 0.404
v -0.508 1.17 0.029
v -0.329 1.17 -0.345
v 0.077 1.17 -0.438
v 0.402 1.17 -0.178
usemtl BarkDark
s off
f 71 70 69 68 67 66 65
f 72 73 74 75 76 77 78
f 65 66 73 72
f 66 67 74 73
f 67 68 75 74
f 68 69 76 75
f 69 70 77 76
f 70 71 78 77
f 71 65 72 78
o Trunk
v 0.178 1.197 -0.402
v 0.438 1.193 -0.077
v 0.345 1.175 0.329
v -0.029 1.152 0.508
v -0.404 1.146 0.327
v -0.496 1.157 -0.077
v -0.237 1.179 -0.402
v 0.158 1.797 -0.375
v 0.411 1.794 -0.059
v 0.321 1.777 0.336
v -0.045 1.754 0.512
v -0.409 1.748 0.336
v -0.499 1.759 -0.059
v -0.248 1.781 -0.377
usemtl BarkDark
s off
f 85 84 83 82 81 80 79
f 86 87 88 89 90 91 92
f 79 80 87 86
f 80 81 88 87
f 81 82 89 88
f 82 83 90 89
f 83 84 91 90
f 84 85 92 91
f 85 79 86 92
o Trunk
v 0.158 1.797 -0.375
v 0.411 1.794 -0.059
v 0.321 1.777 0.336
v -0.045 1.754 0.512
v -0.409 1.748 0.336
v -0.499 1.759 -0.059
v -0.248 1.781 -0.377
v 0.138 2.399 -0.35
v 0.384 2.396 -0.041
v 0.296 2.378 0.343
v -0.059 2.358 0.515
v -0.415 2.352 0.343
v -0.503 2.363 -0.041
v -0.257 2.383 -0.35
usemtl BarkDark
s off
f 99 98 97 96 95 94 93
f 100 101 102 103 104 105 106
f 93 94 101 100
f 94 95 102 101
f 95 96 103 102
f 96 97 104 103
f 97 98 105 104
f 98 99 106 105
f 99 93 100 106
o Trunk
v 0.138 2.399 -0.35
v 0.384 2.396 -0.041
v 0.296 2.378 0.343
v -0.059 2.358 0.515
v -0.415 2.352 0.343
v -0.503 2.363 -0.041
v -0.257 2.383 -0.35
v 0.117 3.001 -0.323
v 0.357 2.998 -0.023
v 0.271 2.98 0.352
v -0.075 2.96 0.517
v -0.42 2.954 0.35
v -0.506 2.965 -0.025
v -0.268 2.985 -0.325
usemtl BarkDark
s off
f 113 112 111 110 109 108 107
f 114 115 116 117 118 119 120
f 107 108 115 114
f 108 109 116 115
f 109 110 117 116
f 110 111 118 117
f 111 112 119 118
f 112 113 120 119
f 113 107 114 120
o Trunk
v 0.117 3.001 -0.323
v 0.357 2.998 -0.023
v 0.271 2.98 0.352
v -0.075 2.96 0.517
v -0.42 2.954 0.35
v -0.506 2.965 -0.025
v -0.268 2.985 -0.325
v 0.097 3.602 -0.298
v 0.33 3.6 -0.005
v 0.248 3.582 0.359
v -0.09 3.564 0.521
v -0.427 3.555 0.357
v -0.51 3.567 -0.007
v -0.277 3.589 -0.298
usemtl BarkDark
s off
f 127 126 125 124 123 122 121
f 128 129 130 131 132 133 134
f 121 122 129 128
f 122 123 130 129
f 123 124 131 130
f 124 125 132 131
f 125 126 133 132
f 126 127 134 133
f 127 121 128 134
o Trunk
v 0.097 3.533 -0.296
v 0.329 3.522 -0.004
v 0.246 3.555 0.359
v -0.09 3.607 0.521
v -0.426 3.638 0.357
v -0.508 3.627 -0.007
v -0.277 3.58 -0.298
v 0.133 4.095 -0.303
v 0.356 4.083 -0.023
v 0.277 4.115 0.327
v -0.045 4.164 0.479
v -0.366 4.195 0.323
v -0.445 4.184 -0.027
v -0.223 4.139 -0.305
usemtl BarkDark
s off
f 141 140 139 138 137 136 135
f 142 143 144 145 146 147 148
f 135 136 143 142
f 136 137 144 143
f 137 138 145 144
f 138 139 146 145
f 139 140 147 146
f 140 141 148 147
f 141 135 142 148
o Trunk
v 0.133 4.095 -0.303
v 0.356 4.083 -0.023
v 0.277 4.115 0.327
v -0.045 4.164 0.479
v -0.366 4.195 0.323
v -0.445 4.184 -0.027
v -0.223 4.139 -0.305
v 0.171 4.656 -0.309
v 0.382 4.645 -0.041
v 0.307 4.676 0.293
v 0 4.723 0.44
v -0.307 4.752 0.289
v -0.382 4.741 -0.045
v -0.171 4.699 -0.311
usemtl BarkDark
s off
f 155 154 153 152 151 150 149
f 156 157 158 159 160 161 162
f 149 150 157 156
f 150 151 158 157
f 151 152 159 158
f 152 153 160 159
f 153 154 161 160
f 154 155 162 161
f 155 149 156 162
o Trunk
v 0.171 4.656 -0.309
v 0.382 4.645 -0.041
v 0.307 4.676 0.293
v 0 4.723 0.44
v -0.307 4.752 0.289
v -0.382 4.741 -0.045
v -0.171 4.699 -0.311
v 0.208 5.218 -0.316
v 0.411 5.207 -0.059
v 0.338 5.236 0.259
v 0.045 5.281 0.399
v -0.248 5.31 0.255
v -0.321 5.298 -0.063
v -0.119 5.258 -0.318
usemtl BarkDark
s off
f 169 168 167 166 165 164 163
f 170 171 172 173 174 175 176
f 163 164 171 170
f 164 165 172 171
f 165 166 173 172
f 166 167 174 173
f 167 168 175 174
f 168 169 176 175
f 169 163 170 176
o Trunk
v 0.208 5.218 -0.316
v 0.411 5.207 -0.059
v 0.338 5.236 0.259
v 0.045 5.281 0.399
v -0.248 5.31 0.255
v -0.321 5.298 -0.063
v -0.119 5.258 -0.318
v 0.244 5.777 -0.323
v 0.438 5.768 -0.077
v 0.37 5.797 0.224
v 0.09 5.84 0.359
v -0.19 5.867 0.223
v -0.259 5.856 -0.081
v -0.065 5.818 -0.323
usemtl BarkDark
s off
f 183 182 181 180 179 178 177
f 184 185 186 187 188 189 190
f 177 178 185 184
f 178 179 186 185
f 179 180 187 186
f 180 181 188 187
f 181 182 189 188
f 182 183 190 189
f 183 177 184 190
o Branch
v 0.02 5.679 -0.185
v 0.136 5.764 -0.041
v 0.119 5.679 0.144
v -0.02 5.509 0.185
v -0.136 5.424 0.041
v -0.119 5.509 -0.144
v -1.787 8.093 0.454
v -1.733 8.131 0.521
v -1.742 8.093 0.603
v -1.805 8.017 0.623
v -1.858 7.979 0.557
v -1.849 8.017 0.474
usemtl BarkDark
s off
f 196 195 194 193 192 191
f 197 198 199 200 201 202
f 191 192 198 197
f 192 193 199 198
f 193 194 200 199
f 194 195 201 200
f 195 196 202 201
f 196 191 197 202
o Branch
v -0.043 5.67 0.183
v -0.153 5.746 0.031
v -0.11 5.67 -0.153
v 0.043 5.518 -0.183
v 0.153 5.442 -0.031
v 0.11 5.518 0.153
v 1.776 8.536 -0.277
v 1.726 8.572 -0.345
v 1.745 8.536 -0.429
v 1.815 8.469 -0.442
v 1.866 8.433 -0.373
v 1.846 8.469 -0.289
usemtl BarkDark
s off
f 208 207 206 205 204 203
f 209 210 211 212 213 214
f 203 204 210 209
f 204 205 211 210
f 205 206 212 211
f 206 207 213 212
f 207 208 214 213
f 208 203 209 214
o Branch
v -0.18 5.652 -0.068
v -0.02 5.71 -0.172
v 0.16 5.652 -0.106
v 0.18 5.536 0.068
v 0.02 5.477 0.172
v -0.16 5.536 0.106
v 0.099 9.424 1.585
v 0.171 9.451 1.537
v 0.253 9.424 1.568
v 0.26 9.371 1.647
v 0.189 9.344 1.695
v 0.106 9.371 1.665
usemtl BarkDark
s off
f 220 219 218 217 216 215
f 221 222 223 224 225 226
f 215 216 222 221
f 216 217 223 222
f 217 218 224 223
f 218 219 225 224
f 219 220 226 225
f 220 215 221 226
o Branch
v 0.171 5.656 0.084
v 0 5.721 0.169
v -0.171 5.656 0.084
v -0.171 5.531 -0.084
v 0 5.466 -0.169
v 0.171 5.531 -0.084
v 0.077 8.979 -1.578
v 0 9.008 -1.539
v -0.077 8.979 -1.578
v -0.077 8.921 -1.654
v 0 8.892 -1.693
v 0.077 8.921 -1.654
usemtl BarkDark
s off
f 232 231 230 229 228 227
f 233 234 235 236 237 238
f 227 228 234 233
f 228 229 235 234
f 229 230 236 235
f 230 231 237 236
f 231 232 238 237
f 232 227 233 238
o Crown
v 0.018 6.824 1.366
v -1.016 6.824 0.979
v -1.454 6.824 0.016
v -1.041 6.824 -0.953
v -0.018 6.824 -1.366
v 1.016 6.824 -0.979
v 1.454 6.824 -0.016
v 1.041 6.824 0.953
v 0.031 9.621 2.277
v -1.693 9.621 1.63
v -2.424 9.621 0.029
v -1.735 9.621 -1.589
v -0.031 9.621 -2.277
v 1.693 9.621 -1.63
v 2.424 9.621 -0.029
v 1.735 9.621 1.589
usemtl Paint
s off
f 246 245 244 243 242 241 240 239
f 247 248 249 250 251 252 253 254
f 239 240 248 247
f 240 241 249 248
f 241 242 250 249
f 242 243 251 250
f 243 244 252 251
f 244 245 253 252
f 245 246 254 253
f 246 239 247 254
o Crown
v -0.571 9.621 2.212
v -2.069 9.621 1.185
v -2.356 9.621 -0.535
v -1.262 9.621 -1.943
v 0.571 9.621 -2.212
v 2.069 9.621 -1.185
v 2.356 9.621 0.535
v 1.262 9.621 1.943
v -0.171 12.418 0.664
v -0.621 12.418 0.356
v -0.707 12.418 -0.162
v -0.379 12.418 -0.584
v 0.171 12.418 -0.664
v 0.621 12.418 -0.356
v 0.707 12.418 0.162
v 0.379 12.418 0.584
usemtl Paint
s off
f 262 261 260 259 258 257 256 255
f 263 264 265 266 267 268 269 270
f 255 256 264 263
f 256 257 265 264
f 257 258 266 265
f 258 259 267 266
f 259 260 268 267
f 260 261 269 268
f 261 262 270 269
f 262 255 263 270
o Crown.Under
v 1.991 7.16 0.756
v 0.824 7.16 1.824
v -0.824 7.16 1.824
v -1.991 7.16 0.756
v -1.991 7.16 -0.756
v -0.824 7.16 -1.824
v 0.824 7.16 -1.824
v 1.991 7.16 -0.756
v 2.322 8.726 0.892
v 0.962 8.726 2.156
v -0.962 8.726 2.156
v -2.322 8.726 0.892
v -2.322 8.726 -0.892
v -0.962 8.726 -2.156
v 0.962 8.726 -2.156
v 2.322 8.726 -0.892
usemtl LeafDark
s off
f 278 277 276 275 274 273 272 271
f 279 280 281 282 283 284 285 286
f 271 272 280 279
f 272 273 281 280
f 273 274 282 281
f 274 275 283 282
f 275 276 284 283
f 276 277 285 284
f 277 278 286 285
f 278 271 279 286
o Crown
v -1.684 7.518 1.356
v -2.347 7.518 1.248
v -2.661 7.518 0.743
v -2.392 7.518 0.217
v -1.74 7.518 0.07
v -1.199 7.518 0.409
v -1.174 7.518 0.982
v -1.551 8.726 1.781
v -2.654 8.726 1.602
v -3.178 8.726 0.76
v -2.727 8.726 -0.115
v -1.645 8.726 -0.363
v -0.742 8.726 0.205
v -0.7 8.726 1.158
usemtl LeafDark
s off
f 293 292 291 290 289 288 287
f 294 295 296 297 298 299 300
f 287 288 295 294
f 288 289 296 295
f 289 290 297 296
f 290 291 298 297
f 291 292 299 298
f 292 293 300 299
f 293 287 294 300
o Crown
v -1.871 8.726 1.817
v -2.887 8.726 1.413
v -3.149 8.726 0.485
v -2.46 8.726 -0.268
v -1.338 8.726 -0.278
v -0.628 8.726 0.461
v -0.865 8.726 1.393
v -1.882 9.935 1.049
v -2.185 9.935 0.927
v -2.264 9.935 0.648
v -2.058 9.935 0.422
v -1.72 9.935 0.42
v -1.508 9.935 0.641
v -1.58 9.935 0.921
usemtl LeafDark
s off
f 307 306 305 304 303 302 301
f 308 309 310 311 312 313 314
f 301 302 309 308
f 302 303 310 309
f 303 304 311 310
f 304 305 312 311
f 305 306 313 312
f 306 307 314 313
f 307 301 308 314
o Crown
v 1.359 7.693 -0.057
v 1.181 7.693 -0.681
v 1.602 7.693 -1.196
v 2.302 7.693 -1.217
v 2.756 7.693 -0.727
v 2.622 7.693 -0.095
v 2 7.693 0.203
v 0.95 8.95 0.262
v 0.654 8.95 -0.776
v 1.352 8.95 -1.636
v 2.521 8.95 -1.67
v 3.279 8.95 -0.851
v 3.054 8.95 0.201
v 2.018 8.95 0.697
usemtl Paint
s off
f 321 320 319 318 317 316 315
f 322 323 324 325 326 327 328
f 315 316 323 322
f 316 317 324 323
f 317 318 325 324
f 318 319 326 325
f 319 320 327 326
f 320 321 328 327
f 321 315 322 328
o Crown
v 0.765 8.95 0.004
v 0.758 8.95 -1.068
v 1.668 8.95 -1.742
v 2.808 8.95 -1.51
v 3.322 8.95 -0.546
v 2.821 8.95 0.424
v 1.682 8.95 0.668
v 1.612 10.21 -0.375
v 1.611 10.21 -0.698
v 1.884 10.21 -0.9
v 2.225 10.21 -0.83
v 2.379 10.21 -0.54
v 2.228 10.21 -0.25
v 1.887 10.21 -0.176
usemtl Paint
s off
f 335 334 333 332 331 330 329
f 336 337 338 339 340 341 342
f 329 330 337 336
f 330 331 338 337
f 331 332 339 338
f 332 333 340 339
f 333 334 341 340
f 334 335 342 341
f 335 329 336 342
o Crown
v 0.86 8.223 2.577
v 0.23 8.223 2.769
v -0.302 8.223 2.363
v -0.338 8.223 1.665
v 0.153 8.223 1.201
v 0.797 8.223 1.32
v 1.111 8.223 1.932
v 1.194 9.398 2.979
v 0.145 9.398 3.297
v -0.743 9.398 2.622
v -0.801 9.398 1.458
v 0.014 9.398 0.684
v 1.09 9.398 0.883
v 1.614 9.398 1.903
usemtl LeafLight
s off
f 349 348 347 346 345 344 343
f 350 351 352 353 354 355 356
f 343 344 351 350
f 344 345 352 351
f 345 346 353 352
f 346 347 354 353
f 347 348 355 354
f 348 349 356 355
f 349 343 350 356
o Crown
v 0.935 9.398 3.167
v -0.154 9.398 3.2
v -0.858 9.398 2.309
v -0.645 9.398 1.167
v 0.325 9.398 0.634
v 1.32 9.398 1.11
v 1.591 9.398 2.237
v 0.531 10.572 2.332
v 0.205 10.572 2.343
v -0.005 10.572 2.076
v 0.057 10.572 1.733
v 0.348 10.572 1.573
v 0.648 10.572 1.715
v 0.729 10.572 2.054
usemtl LeafLight
s off
f 363 362 361 360 359 358 357
f 364 365 366 367 368 369 370
f 357 358 365 364
f 358 359 366 365
f 359 360 367 366
f 360 361 368 367
f 361 362 369 368
f 362 363 370 369
f 363 357 364 370
o Crown
v -0.882 7.999 -1.401
v -1.11 7.999 -2.049
v -0.772 7.999 -2.64
v -0.124 7.999 -2.731
v 0.348 7.999 -2.253
v 0.287 7.999 -1.566
v -0.26 7.999 -1.187
v -1.23 9.174 -1.018
v -1.611 9.174 -2.097
v -1.049 9.174 -3.083
v 0.032 9.174 -3.236
v 0.819 9.174 -2.438
v 0.718 9.174 -1.293
v -0.194 9.174 -0.661
usemtl Paint
s off
f 377 376 375 374 373 372 371
f 378 379 380 381 382 383 384
f 371 372 379 378
f 372 373 380 379
f 373 374 381 380
f 374 375 382 381
f 375 376 383 382
f 376 377 384 383
f 377 371 378 384
o Crown
v -1.427 9.174 -1.277
v -1.542 9.174 -2.42
v -0.767 9.174 -3.23
v 0.316 9.174 -3.094
v 0.891 9.174 -2.115
v 0.524 9.174 -1.032
v -0.506 9.174 -0.659
v -0.679 10.349 -1.765
v -0.715 10.349 -2.108
v -0.481 10.349 -2.352
v -0.156 10.349 -2.311
v 0.016 10.349 -2.018
v -0.093 10.349 -1.691
v -0.404 10.349 -1.58
usemtl Paint
s off
f 391 390 389 388 387 386 385
f 392 393 394 395 396 397 398
f 385 386 393 392
f 386 387 394 393
f 387 388 395 394
f 388 389 396 395
f 389 390 397 396
f 390 391 398 397
f 391 385 392 398
o Crown
v 1.377 10.718 1.032
v 0.765 10.718 1.181
v 0.251 10.718 0.846
v 0.224 10.718 0.28
v 0.706 10.718 -0.092
v 1.331 10.718 0.013
v 1.63 10.718 0.512
v 1.699 11.859 1.361
v 0.675 11.859 1.609
v -0.18 11.859 1.05
v -0.223 11.859 0.108
v 0.576 11.859 -0.512
v 1.62 11.859 -0.339
v 2.117 11.859 0.494
usemtl LeafLight
s off
f 405 404 403 402 401 400 399
f 406 407 408 409 410 411 412
f 399 400 407 406
f 400 401 408 407
f 401 402 409 408
f 402 403 410 409
f 403 404 411 410
f 404 405 412 411
f 405 399 406 412
o Crown
v 1.445 11.859 1.512
v 0.386 11.859 1.526
v -0.289 11.859 0.797
v -0.068 11.859 -0.126
v 0.878 11.859 -0.549
v 1.84 11.859 -0.153
v 2.092 11.859 0.765
v 1.061 13 0.831
v 0.743 13 0.835
v 0.542 13 0.616
v 0.609 13 0.339
v 0.892 13 0.212
v 1.18 13 0.33
v 1.257 13 0.607
usemtl LeafLight
s off
f 419 418 417 416 415 414 413
f 420 421 422 423 424 425 426
f 413 414 421 420
f 414 415 422 421
f 415 416 423 422
f 416 417 424 423
f 417 418 425 424
f 418 419 426 425
f 419 413 420 426
o Crown
v -1.314 10.528 0.005
v -1.609 10.528 -0.506
v -1.368 10.528 -1.043
v -0.774 10.528 -1.199
v -0.273 10.528 -0.858
v -0.242 10.528 -0.277
v -0.706 10.528 0.108
v -1.591 11.635 0.37
v -2.081 11.635 -0.485
v -1.681 11.635 -1.379
v -0.691 11.635 -1.641
v 0.144 11.635 -1.072
v 0.194 11.635 -0.102
v -0.578 11.635 0.539
usemtl Paint
s off
f 433 432 431 430 429 428 427
f 434 435 436 437 438 439 440
f 427 428 435 434
f 428 429 436 435
f 429 430 437 436
f 430 431 438 437
f 431 432 439 438
f 432 433 440 439
f 433 427 434 440
o Crown
v -1.806 11.635 0.18
v -2.06 11.635 -0.763
v -1.436 11.635 -1.535
v -0.408 11.635 -1.559
v 0.251 11.635 -0.813
v 0.045 11.635 0.138
v -0.871 11.635 0.58
v -1.171 12.743 -0.323
v -1.246 12.743 -0.605
v -1.059 12.743 -0.839
v -0.751 12.743 -0.844
v -0.553 12.743 -0.621
v -0.614 12.743 -0.336
v -0.889 12.743 -0.203
usemtl Paint
s off
f 447 446 445 444 443 442 441
f 448 449 450 451 452 453 454
f 441 442 449 448
f 442 443 450 449
f 443 444 451 450
f 444 445 452 451
f 445 446 453 452
f 446 447 454 453
f 447 441 448 454
o Clump
v 1.131 9.937 2.584
v 0.839 9.937 2.424
v 0.9 9.937 2.097
v 1.23 9.937 2.054
v 1.374 9.937 2.354
v 1.11 10.431 2.415
v 0.993 10.431 2.35
v 1.016 10.431 2.219
v 1.149 10.431 2.203
v 1.207 10.431 2.323
usemtl Paint
s off
f 459 458 457 456 455
f 460 461 462 463 464
f 455 456 461 460
f 456 457 462 461
f 457 458 463 462
f 458 459 464 463
f 459 455 460 464
o Clump
v -0.095 11.843 1.122
v -0.357 11.843 1.038
v -0.357 11.843 0.763
v -0.095 11.843 0.677
v 0.066 11.843 0.9
v -0.138 12.253 0.989
v -0.244 12.253 0.955
v -0.244 12.253 0.846
v -0.138 12.253 0.81
v -0.074 12.253 0.9
usemtl LeafLight
s off
f 469 468 467 466 465
f 470 471 472 473 474
f 465 466 471 470
f 466 467 472 471
f 467 468 473 472
f 468 469 474 473
f 469 465 470 474
o Clump
v 0.212 9.116 -3.033
v -0.045 9.116 -2.932
v -0.221 9.116 -3.144
v -0.074 9.116 -3.377
v 0.194 9.116 -3.309
v 0.092 9.525 -3.108
v -0.011 9.525 -3.069
v -0.081 9.525 -3.153
v -0.022 9.525 -3.246
v 0.086 9.525 -3.219
usemtl LeafDark
s off
f 479 478 477 476 475
f 480 481 482 483 484
f 475 476 481 480
f 476 477 482 481
f 477 478 483 482
f 478 479 484 483
f 479 475 480 484
o Clump
v -0.896 11.7 -1.316
v -1.149 11.7 -1.453
v -1.099 11.7 -1.736
v -0.813 11.7 -1.774
v -0.688 11.7 -1.515
v -0.916 12.127 -1.462
v -1.018 12.127 -1.517
v -0.997 12.127 -1.63
v -0.883 12.127 -1.645
v -0.833 12.127 -1.542
usemtl Paint
s off
f 489 488 487 486 485
f 490 491 492 493 494
f 485 486 491 490
f 486 487 492 491
f 487 488 493 492
f 488 489 494 493
f 489 485 490 494
o Clump
v -1.918 11.577 -0.485
v -2.183 11.577 -0.564
v -2.191 11.577 -0.84
v -1.93 11.577 -0.932
v -1.761 11.577 -0.713
v -1.966 11.989 -0.618
v -2.072 11.989 -0.65
v -2.074 11.989 -0.76
v -1.97 11.989 -0.797
v -1.903 11.989 -0.709
usemtl LeafLight
s off
f 499 498 497 496 495
f 500 501 502 503 504
f 495 496 501 500
f 496 497 502 501
f 497 498 503 502
f 498 499 504 503
f 499 495 500 504
o Clump
v 1.375 11.749 1.357
v 1.521 11.749 1.041
v 1.866 11.749 1.083
v 1.934 11.749 1.424
v 1.63 11.749 1.593
v 1.55 12.264 1.323
v 1.607 12.264 1.196
v 1.745 12.264 1.214
v 1.772 12.264 1.348
v 1.65 12.264 1.417
usemtl LeafDark
s off
f 509 508 507 506 505
f 510 511 512 513 514
f 505 506 511 510
f 506 507 512 511
f 507 508 513 512
f 508 509 514 513
f 509 505 510 514
o Clump
v -2.848 8.312 0.244
v -3.015 8.312 -0.018
v -2.815 8.312 -0.259
v -2.528 8.312 -0.144
v -2.546 8.312 0.167
v -2.79 8.773 0.097
v -2.857 8.773 -0.009
v -2.776 8.773 -0.104
v -2.661 8.773 -0.059
v -2.668 8.773 0.065
usemtl Paint
s off
f 519 518 517 516 515
f 520 521 522 523 524
f 515 516 521 520
f 516 517 522 521
f 517 518 523 522
f 518 519 524 523
f 519 515 520 524
o Clump
v 1.128 12.143 -0.126
v 1.205 12.143 -0.445
v 1.533 12.143 -0.472
v 1.659 12.143 -0.167
v 1.408 12.143 0.048
v 1.282 12.633 -0.19
v 1.314 12.633 -0.318
v 1.445 12.633 -0.329
v 1.496 12.633 -0.206
v 1.395 12.633 -0.12
usemtl LeafLight
s off
f 529 528 527 526 525
f 530 531 532 533 534
f 525 526 531 530
f 526 527 532 531
f 527 528 533 532
f 528 529 534 533
f 529 525 530 534
o Clump
v 2.833 9.073 -0.848
v 2.595 9.073 -1.173
v 2.83 9.073 -1.501
v 3.216 9.073 -1.379
v 3.218 9.073 -0.975
v 2.896 9.673 -1.043
v 2.801 9.673 -1.174
v 2.894 9.673 -1.305
v 3.049 9.673 -1.257
v 3.051 9.673 -1.095
usemtl LeafDark
s off
f 539 538 537 536 535
f 540 541 542 543 544
f 535 536 541 540
f 536 537 542 541
f 537 538 543 542
f 538 539 544 543
f 539 535 540 544
o Clump
v 0.598 9.626 -2.255
v 0.251 9.626 -2.209
v 0.101 9.626 -2.521
v 0.352 9.626 -2.763
v 0.659 9.626 -2.598
v 0.474 10.143 -2.385
v 0.336 10.143 -2.365
v 0.275 10.143 -2.49
v 0.375 10.143 -2.587
v 0.499 10.143 -2.521
usemtl Paint
s off
f 549 548 547 546 545
f 550 551 552 553 554
f 545 546 551 550
f 546 547 552 551
f 547 548 553 552
f 548 549 554 553
f 549 545 550 554
o Clump
v 1.269 9.049 2.133
v 1.361 9.049 1.797
v 1.711 9.049 1.779
v 1.835 9.049 2.106
v 1.562 9.049 2.325
v 1.436 9.568 2.07
v 1.474 9.568 1.936
v 1.612 9.568 1.928
v 1.663 9.568 2.06
v 1.553 9.568 2.148
usemtl LeafLight
s off
f 559 558 557 556 555
f 560 561 562 563 564
f 555 556 561 560
f 556 557 562 561
f 557 558 563 562
f 558 559 564 563
f 559 555 560 564
o Clump
v -0.314 12.112 -0.695
v -0.435 12.112 -0.962
v -0.217 12.112 -1.158
v 0.036 12.112 -1.013
v -0.023 12.112 -0.727
v -0.241 12.546 -0.824
v -0.289 12.546 -0.932
v -0.201 12.546 -1.009
v -0.101 12.546 -0.952
v -0.124 12.546 -0.837
usemtl LeafDark
s off
f 569 568 567 566 565
f 570 571 572 573 574
f 565 566 571 570
f 566 567 572 571
f 567 568 573 572
f 568 569 574 573
f 569 565 570 574
o Clump
v 0.521 11.868 -0.163
v 0.228 11.868 -0.09
v 0.066 11.868 -0.345
v 0.26 11.868 -0.576
v 0.54 11.868 -0.465
v 0.402 12.315 -0.262
v 0.284 12.315 -0.233
v 0.221 12.315 -0.336
v 0.298 12.315 -0.427
v 0.409 12.315 -0.382
usemtl Paint
s off
f 579 578 577 576 575
f 580 581 582 583 584
f 575 576 581 580
f 576 577 582 581
f 577 578 583 582
f 578 579 584 583
f 579 575 580 584
o Clump
v 1.137 9.431 2.907
v 1.041 9.431 2.598
v 1.305 9.431 2.411
v 1.564 9.431 2.605
v 1.46 9.431 2.911
v 1.235 9.908 2.774
v 1.198 9.908 2.65
v 1.304 9.908 2.577
v 1.406 9.908 2.654
v 1.365 9.908 2.776
usemtl LeafLight
s off
f 589 588 587 586 585
f 590 591 592 593 594
f 585 586 591 590
f 586 587 592 591
f 587 588 593 592
f 588 589 594 593
f 589 585 590 594
o Clump
v 0.433 12.429 1.013
v 0.185 12.429 1.113
v 0.011 12.429 0.909
v 0.153 12.429 0.681
v 0.413 12.429 0.745
v 0.316 12.828 0.941
v 0.217 12.828 0.98
v 0.149 12.828 0.9
v 0.205 12.828 0.808
v 0.309 12.828 0.833
usemtl LeafDark
s off
f 599 598 597 596 595
f 600 601 602 603 604
f 595 596 601 600
f 596 597 602 601
f 597 598 603 602
f 598 599 604 603
f 599 595 600 604
o Clump
v -1.187 9.263 -1.977
v -1.417 9.263 -1.709
v -1.742 9.263 -1.846
v -1.711 9.263 -2.196
v -1.37 9.263 -2.277
v -1.366 9.785 -1.991
v -1.458 9.785 -1.885
v -1.587 9.785 -1.939
v -1.577 9.785 -2.079
v -1.438 9.785 -2.112
usemtl Paint
s off
f 609 608 607 606 605
f 610 611 612 613 614
f 605 606 611 610
f 606 607 612 611
f 607 608 613 612
f 608 609 614 613
f 609 605 610 614
o Clump
v -1.783 11.355 -0.316
v -2.052 11.355 -0.174
v -2.271 11.355 -0.386
v -2.137 11.355 -0.659
v -1.837 11.355 -0.616
v -1.923 11.807 -0.384
v -2.031 11.807 -0.327
v -2.119 11.807 -0.413
v -2.065 11.807 -0.523
v -1.945 11.807 -0.505
usemtl LeafLight
s off
f 619 618 617 616 615
f 620 621 622 623 624
f 615 616 621 620
f 616 617 622 621
f 617 618 623 622
f 618 619 624 623
f 619 615 620 624
o Clump
v -1.013 9.471 -0.799
v -1.086 9.471 -1.135
v -0.79 9.471 -1.309
v -0.533 9.471 -1.081
v -0.672 9.471 -0.765
v -0.896 9.982 -0.93
v -0.927 9.982 -1.065
v -0.808 9.982 -1.133
v -0.706 9.982 -1.043
v -0.76 9.982 -0.918
usemtl LeafDark
s off
f 629 628 627 626 625
f 630 631 632 633 634
f 625 626 631 630
f 626 627 632 631
f 627 628 633 632
f 628 629 634 633
f 629 625 630 634
o Clump
v -1.406 11.313 -1.347
v -1.48 11.313 -1.65
v -1.214 11.313 -1.814
v -0.977 11.313 -1.611
v -1.095 11.313 -1.323
v -1.302 11.776 -1.469
v -1.332 11.776 -1.589
v -1.226 11.776 -1.654
v -1.131 11.776 -1.573
v -1.178 11.776 -1.458
usemtl Paint
s off
f 639 638 637 636 635
f 640 641 642 643 644
f 635 636 641 640
f 636 637 642 641
f 637 638 643 642
f 638 639 644 643
f 639 635 640 644
o Clump
v 0.11 9.782 3.232
v -0.013 9.782 2.934
v 0.233 9.782 2.724
v 0.508 9.782 2.893
v 0.433 9.782 3.207
v 0.198 10.261 3.092
v 0.147 10.261 2.972
v 0.246 10.261 2.887
v 0.356 10.261 2.956
v 0.325 10.261 3.081
usemtl LeafLight
s off
f 649 648 647 646 645
f 650 651 652 653 654
f 645 646 651 650
f 646 647 652 651
f 647 648 653 652
f 648 649 654 653
f 649 645 650 654
o Clump
v 1.857 12.447 0.474
v 1.665 12.447 0.637
v 1.449 12.447 0.505
v 1.508 12.447 0.259
v 1.76 12.447 0.241
v 1.731 12.821 0.444
v 1.654 12.821 0.508
v 1.568 12.821 0.456
v 1.591 12.821 0.357
v 1.691 12.821 0.35
usemtl LeafDark
s off
f 659 658 657 656 655
f 660 661 662 663 664
f 655 656 661 660
f 656 657 662 661
f 657 658 663 662
f 658 659 664 663
f 659 655 660 664
o Clump
v -0.097 10.031 2.167
v -0.284 10.031 2.385
v -0.546 10.031 2.275
v -0.524 10.031 1.99
v -0.246 10.031 1.923
v -0.242 10.456 2.155
v -0.316 10.456 2.243
v -0.422 10.456 2.198
v -0.413 10.456 2.085
v -0.302 10.456 2.058
usemtl Paint
s off
f 669 668 667 666 665
f 670 671 672 673 674
f 665 666 671 670
f 666 667 672 671
f 667 668 673 672
f 668 669 674 673
f 669 665 670 674
o Clump
v -0.666 8.885 0.986
v -0.925 8.885 0.889
v -0.912 8.885 0.614
v -0.646 8.885 0.54
v -0.494 8.885 0.769
v -0.704 9.295 0.849
v -0.806 9.295 0.812
v -0.803 9.295 0.702
v -0.697 9.295 0.672
v -0.636 9.295 0.763
usemtl LeafLight
s off
f 679 678 677 676 675
f 680 681 682 683 684
f 675 676 681 680
f 676 677 682 681
f 677 678 683 682
f 678 679 684 683
f 679 675 680 684
o Clump
v 0.815 9.988 1.648
v 0.645 9.988 1.399
v 0.831 9.988 1.16
v 1.115 9.988 1.262
v 1.104 9.988 1.564
v 0.867 10.436 1.503
v 0.799 10.436 1.404
v 0.874 10.436 1.309
v 0.988 10.436 1.348
v 0.984 10.436 1.471
usemtl LeafDark
s off
f 689 688 687 686 685
f 690 691 692 693 694
f 685 686 691 690
f 686 687 692 691
f 687 688 693 692
f 688 689 694 693
f 689 685 690 694
o Clump
v -1.35 11.378 -1.541
v -1.217 11.378 -1.808
v -0.923 11.378 -1.765
v -0.873 11.378 -1.471
v -1.137 11.378 -1.332
v -1.199 11.821 -1.566
v -1.147 11.821 -1.673
v -1.029 11.821 -1.656
v -1.009 11.821 -1.539
v -1.115 11.821 -1.483
usemtl Paint
s off
f 699 698 697 696 695
f 700 701 702 703 704
f 695 696 701 700
f 696 697 702 701
f 697 698 703 702
f 698 699 704 703
f 699 695 700 704
o Clump
v 0.296 9.948 1.35
v 0.291 9.948 1.004
v 0.619 9.948 0.892
v 0.828 9.948 1.169
v 0.628 9.948 1.453
v 0.438 10.463 1.244
v 0.436 10.463 1.106
v 0.567 10.463 1.061
v 0.65 10.463 1.171
v 0.571 10.463 1.286
usemtl LeafLight
s off
f 709 708 707 706 705
f 710 711 712 713 714
f 705 706 711 710
f 706 707 712 711
f 707 708 713 712
f 708 709 714 713
f 709 705 710 714
o Clump
v 0.215 9.711 1.018
v -0.014 9.711 1.094
v -0.158 9.711 0.898
v -0.016 9.711 0.702
v 0.214 9.711 0.776
v 0.115 10.069 0.944
v 0.023 10.069 0.975
v -0.034 10.069 0.898
v 0.022 10.069 0.819
v 0.115 10.069 0.848
usemtl LeafDark
s off
f 719 718 717 716 715
f 720 721 722 723 724
f 715 716 721 720
f 716 717 722 721
f 717 718 723 722
f 718 719 724 723
f 719 715 720 724
o Clump
v -0.934 9.339 2.016
v -1.074 9.339 1.722
v -0.837 9.339 1.499
v -0.551 9.339 1.654
v -0.612 9.339 1.973
v -0.855 9.823 1.871
v -0.91 9.823 1.752
v -0.815 9.823 1.663
v -0.702 9.823 1.726
v -0.725 9.823 1.853
usemtl Paint
s off
f 729 728 727 726 725
f 730 731 732 733 734
f 725 726 731 730
f 726 727 732 731
f 727 728 733 732
f 728 729 734 733
f 729 725 730 734
o Clump
v 0.567 11.581 -0.273
v 0.312 11.581 -0.065
v 0.034 11.581 -0.244
v 0.12 11.581 -0.562
v 0.449 11.581 -0.58
v 0.406 12.071 -0.316
v 0.303 12.071 -0.233
v 0.192 12.071 -0.305
v 0.226 12.071 -0.433
v 0.357 12.071 -0.44
usemtl LeafLight
s off
f 739 738 737 736 735
f 740 741 742 743 744
f 735 736 741 740
f 736 737 742 741
f 737 738 743 742
f 738 739 744 743
f 739 735 740 744
o Clump
v -0.882 8.494 0.104
v -1.198 8.494 0.176
v -1.361 8.494 -0.102
v -1.149 8.494 -0.345
v -0.853 8.494 -0.217
v -1.006 8.972 -0.004
v -1.131 8.972 0.023
v -1.198 8.972 -0.086
v -1.113 8.972 -0.183
v -0.995 8.972 -0.133
usemtl LeafDark
s off
f 749 748 747 746 745
f 750 751 752 753 754
f 745 746 751 750
f 746 747 752 751
f 747 748 753 752
f 748 749 754 753
f 749 745 750 754
o Clump
v -0.153 11.716 0.16
v -0.293 11.716 -0.124
v -0.066 11.716 -0.345
v 0.214 11.716 -0.198
v 0.16 11.716 0.115
v -0.077 12.183 0.018
v -0.133 12.183 -0.097
v -0.043 12.183 -0.185
v 0.068 12.183 -0.126
v 0.048 12.183 -0.002
usemtl Paint
s off
f 759 758 757 756 755
f 760 761 762 763 764
f 755 756 761 760
f 756 757 762 761
f 757 758 763 762
f 758 759 764 763
f 759 755 760 764
o Clump
v -1.778 11.555 -0.716
v -1.986 11.555 -0.566
v -2.194 11.555 -0.718
v -2.113 11.555 -0.962
v -1.857 11.555 -0.962
v -1.903 11.937 -0.758
v -1.986 11.937 -0.698
v -2.069 11.937 -0.758
v -2.036 11.937 -0.856
v -1.934 11.937 -0.856
usemtl LeafLight
s off
f 769 768 767 766 765
f 770 771 772 773 774
f 765 766 771 770
f 766 767 772 771
f 767 768 773 772
f 768 769 774 773
f 769 765 770 774
o Clump
v -1.937 11.487 -1.045
v -1.986 11.487 -1.388
v -1.673 11.487 -1.541
v -1.433 11.487 -1.291
v -1.594 11.487 -0.984
v -1.81 12.004 -1.167
v -1.83 12.004 -1.305
v -1.704 12.004 -1.366
v -1.607 12.004 -1.266
v -1.673 12.004 -1.144
usemtl LeafDark
s off
f 779 778 777 776 775
f 780 781 782 783 784
f 775 776 781 780
f 776 777 782 781
f 777 778 783 782
f 778 779 784 783
f 779 775 780 784
o Clump
v 0.698 8.852 -0.821
v 0.594 8.852 -1.054
v 0.785 8.852 -1.225
v 1.006 8.852 -1.097
v 0.952 8.852 -0.848
v 0.763 9.23 -0.932
v 0.722 9.23 -1.025
v 0.797 9.23 -1.095
v 0.887 9.23 -1.043
v 0.865 9.23 -0.943
usemtl Paint
s off
f 789 788 787 786 785
f 790 791 792 793 794
f 785 786 791 790
f 786 787 792 791
f 787 788 793 792
f 788 789 794 793
f 789 785 790 794
o Litter
v 1.928 0 -0.117
v 1.839 0 -0.009
v 1.675 0 -0.041
v 1.665 0 -0.167
v 1.821 0 -0.214
v 1.928 0.045 -0.117
v 1.839 0.045 -0.009
v 1.675 0.045 -0.041
v 1.665 0.045 -0.167
v 1.821 0.045 -0.214
usemtl LeafDry
s off
f 799 798 797 796 795
f 800 801 802 803 804
f 795 796 801 800
f 796 797 802 801
f 797 798 803 802
f 798 799 804 803
f 799 795 800 804
o Grass
v -0.722 0.004 0.948
v -0.761 0.002 1.016
v -0.799 -0.007 0.948
v -0.799 0.508 0.95
v -0.803 0.508 0.957
v -0.808 0.506 0.95
usemtl Grass
s off
f 807 806 805
f 808 809 810
f 805 806 809 808
f 806 807 810 809
f 807 805 808 810
o Grass
v -0.722 -0.007 0.95
v -0.761 0.009 1.016
v -0.799 -0.002 0.948
v -0.733 0.709 0.885
v -0.736 0.712 0.891
v -0.742 0.709 0.885
usemtl Grass
s off
f 813 812 811
f 814 815 816
f 811 812 815 814
f 812 813 816 815
f 813 811 814 816
o Grass
v -0.722 0.007 0.95
v -0.761 -0.011 1.015
v -0.799 0.004 0.95
v -0.763 0.562 1.063
v -0.767 0.559 1.07
v -0.77 0.562 1.063
usemtl Grass
s off
f 819 818 817
f 820 821 822
f 817 818 821 820
f 818 819 822 821
f 819 817 820 822
o Grass
v -0.048 0.016 -1.905
v -0.086 -0.007 -1.839
v -0.124 -0.009 -1.907
v -0.172 0.452 -1.84
v -0.176 0.45 -1.835
v -0.18 0.45 -1.84
usemtl Grass
s off
f 825 824 823
f 826 827 828
f 823 824 827 826
f 824 825 828 827
f 825 823 826 828
o Grass
v -0.048 -0.004 -1.905
v -0.086 -0.004 -1.839
v -0.126 0.007 -1.905
v -0.02 0.68 -1.853
v -0.023 0.68 -1.846
v -0.027 0.682 -1.853
usemtl Grass
s off
f 831 830 829
f 832 833 834
f 829 830 833 832
f 830 831 834 833
f 831 829 832 834
o Grass
v -0.048 0 -1.907
v -0.086 -0.009 -1.839
v -0.126 0.011 -1.905
v -0.027 0.557 -1.805
v -0.031 0.557 -1.797
v -0.034 0.559 -1.805
usemtl Grass
s off
f 837 836 835
f 838 839 840
f 835 836 839 838
f 836 837 840 839
f 837 835 838 840
o Litter
v -1.149 0 3.029
v -1.243 0 2.923
v -1.137 0 2.824
v -0.979 0 2.868
v -0.988 0 2.995
v -1.149 0.045 3.029
v -1.243 0.045 2.923
v -1.137 0.045 2.824
v -0.979 0.045 2.868
v -0.988 0.045 2.995
usemtl Moss
s off
f 845 844 843 842 841
f 846 847 848 849 850
f 841 842 847 846
f 842 843 848 847
f 843 844 849 848
f 844 845 850 849
f 845 841 846 850
o Litter
v 1.515 0 1.273
v 1.35 0 1.302
v 1.262 0 1.194
v 1.372 0 1.097
v 1.528 0 1.146
v 1.515 0.045 1.273
v 1.35 0.045 1.302
v 1.262 0.045 1.194
v 1.372 0.045 1.097
v 1.528 0.045 1.146
usemtl LeafDry
s off
f 855 854 853 852 851
f 856 857 858 859 860
f 851 852 857 856
f 852 853 858 857
f 853 854 859 858
f 854 855 860 859
f 855 851 856 860
o Grass
v 2.627 -0.002 0.375
v 2.587 -0.007 0.444
v 2.55 0.011 0.377
v 2.661 0.613 0.458
v 2.657 0.613 0.465
v 2.654 0.615 0.458
usemtl Grass
s off
f 863 862 861
f 864 865 866
f 861 862 865 864
f 862 863 866 865
f 863 861 864 866
o Grass
v 2.627 0.002 0.375
v 2.587 0.009 0.444
v 2.55 -0.011 0.377
v 2.53 0.624 0.316
v 2.526 0.624 0.323
v 2.523 0.622 0.316
usemtl Grass
s off
f 869 868 867
f 870 871 872
f 867 868 871 870
f 868 869 872 871
f 869 867 870 872
o Grass
v 2.627 -0.002 0.375
v 2.587 -0.007 0.444
v 2.55 0.009 0.377
v 2.647 0.62 0.449
v 2.641 0.62 0.456
v 2.638 0.62 0.449
usemtl Grass
s off
f 875 874 873
f 876 877 878
f 873 874 877 876
f 874 875 878 877
f 875 873 876 878
o Grass
v -2.469 -0.002 1.264
v -2.508 -0.002 1.332
v -2.546 0.002 1.264
v -2.48 0.638 1.304
v -2.483 0.638 1.309
v -2.487 0.64 1.304
usemtl Grass
s off
f 881 880 879
f 882 883 884
f 879 880 883 882
f 880 881 884 883
f 881 879 882 884
o Grass
v -2.469 0.009 1.266
v -2.508 -0.013 1.331
v -2.546 0.002 1.264
v -2.534 0.591 1.393
v -2.539 0.588 1.399
v -2.543 0.591 1.393
usemtl Grass
s off
f 887 886 885
f 888 889 890
f 885 886 889 888
f 886 887 890 889
f 887 885 888 890
o Grass
v -2.469 0.011 1.266
v -2.508 -0.009 1.332
v -2.546 -0.002 1.264
v -2.571 0.633 1.374
v -2.577 0.631 1.381
v -2.58 0.631 1.374
usemtl Grass
s off
f 893 892 891
f 894 895 896
f 891 892 895 894
f 892 893 896 895
f 893 891 894 896
o Litter
v 2.212 0 1.006
v 2.065 0 1.067
v 1.941 0 0.982
v 2.011 0 0.865
v 2.18 0 0.882
v 2.212 0.045 1.006
v 2.065 0.045 1.067
v 1.941 0.045 0.982
v 2.011 0.045 0.865
v 2.18 0.045 0.882
usemtl Moss
s off
f 901 900 899 898 897
f 902 903 904 905 906
f 897 898 903 902
f 898 899 904 903
f 899 900 905 904
f 900 901 906 905
f 901 897 902 906
o Litter
v -2.526 0 -0.442
v -2.404 0 -0.53
v -2.255 0 -0.47
v -2.284 0 -0.345
v -2.451 0 -0.329
v -2.526 0.045 -0.442
v -2.404 0.045 -0.53
v -2.255 0.045 -0.47
v -2.284 0.045 -0.345
v -2.451 0.045 -0.329
usemtl LeafDry
s off
f 911 910 909 908 907
f 912 913 914 915 916
f 907 908 913 912
f 908 909 914 913
f 909 910 915 914
f 910 911 916 915
f 911 907 912 916
o Grass
v -1.729 0 -0.35
v -1.769 0.007 -0.282
v -1.808 -0.007 -0.348
v -1.803 0.656 -0.397
v -1.806 0.658 -0.391
v -1.81 0.656 -0.397
usemtl Grass
s off
f 919 918 917
f 920 921 922
f 917 918 921 920
f 918 919 922 921
f 919 917 920 922
o Grass
v -1.731 0.009 -0.348
v -1.769 0 -0.282
v -1.806 -0.007 -0.35
v -1.842 0.588 -0.323
v -1.848 0.588 -0.316
v -1.851 0.586 -0.323
usemtl Grass
s off
f 925 924 923
f 926 927 928
f 923 924 927 926
f 924 925 928 927
f 925 923 926 928
o Grass
v -1.729 0.007 -0.348
v -1.769 -0.009 -0.282
v -1.808 0.002 -0.348
v -1.781 0.611 -0.255
v -1.785 0.609 -0.25
v -1.788 0.611 -0.255
usemtl Grass
s off
f 931 930 929
f 932 933 934
f 929 930 933 932
f 930 931 934 933
f 931 929 932 934
o Grass
v -2.929 0.009 0.77
v -2.968 -0.004 0.837
v -3.006 -0.004 0.77
v -3.036 0.586 0.821
v -3.04 0.586 0.828
v -3.044 0.584 0.821
usemtl Grass
s off
f 937 936 935
f 938 939 940
f 935 936 939 938
f 936 937 940 939
f 937 935 938 940
o Grass
v -2.929 -0.011 0.772
v -2.968 0.013 0.837
v -3.006 -0.002 0.77
v -2.923 0.481 0.693
v -2.927 0.486 0.7
v -2.932 0.483 0.693
usemtl Grass
s off
f 943 942 941
f 944 945 946
f 941 942 945 944
f 942 943 946 945
f 943 941 944 946
o Grass
v -2.929 0.007 0.77
v -2.968 0.004 0.837
v -3.006 -0.011 0.77
v -3.033 0.503 0.756
v -3.036 0.503 0.761
v -3.04 0.501 0.756
usemtl Grass
s off
f 949 948 947
f 950 951 952
f 947 948 951 950
f 948 949 952 951
f 949 947 950 952
o Litter
v 0.672 0 -2.532
v 0.777 0 -2.435
v 0.686 0 -2.327
v 0.523 0 -2.359
v 0.514 0 -2.487
v 0.672 0.045 -2.532
v 0.777 0.045 -2.435
v 0.686 0.045 -2.327
v 0.523 0.045 -2.359
v 0.514 0.045 -2.487
usemtl Moss
s off
f 957 956 955 954 953
f 958 959 960 961 962
f 953 954 959 958
f 954 955 960 959
f 955 956 961 960
f 956 957 962 961
f 957 953 958 962
