# tree_birch.obj - Birke (Holz) fuer procedurally-generated-map
# Einheiten: Meter, Y oben, Vorderseite nach +Z - so wie Blender ein Modell
# exportiert, das in der Vorderansicht zum Betrachter schaut.
# Material Paint (das Laub) bekommt eine je Baum leicht andere Farbe.
mtllib tree_birch.mtl
o Trunk.Stump
v 0.209 0 0.121
v 0 0 0.242
v -0.209 0 0.121
v -0.209 0 -0.121
v 0 0 -0.242
v 0.209 0 -0.121
v 0.23 0.499 0.126
v 0.024 0.499 0.245
v -0.18 0.499 0.126
v -0.18 0.499 -0.111
v 0.024 0.499 -0.228
v 0.23 0.499 -0.111
usemtl Birch
s off
f 6 5 4 3 2 1
f 7 8 9 10 11 12
f 1 2 8 7
f 2 3 9 8
f 3 4 10 9
f 4 5 11 10
f 5 6 12 11
f 6 1 7 12
o Trunk
v 0.23 0.499 0.126
v 0.024 0.499 0.245
v -0.18 0.499 0.126
v -0.18 0.499 -0.111
v 0.024 0.499 -0.228
v 0.23 0.499 -0.111
v 0.256 1.126 0.135
v 0.055 1.126 0.249
v -0.143 1.126 0.135
v -0.143 1.126 -0.097
v 0.055 1.126 -0.212
v 0.256 1.126 -0.097
usemtl Birch
s off
f 18 17 16 15 14 13
f 19 20 21 22 23 24
f 13 14 20 19
f 14 15 21 20
f 15 16 22 21
f 16 17 23 22
f 17 18 24 23
f 18 13 19 24
o Trunk
v 0.171 1.124 -0.181
v 0.287 1.11 0.019
v 0.171 1.114 0.218
v -0.059 1.13 0.218
v -0.174 1.143 0.019
v -0.059 1.141 -0.181
v 0.197 1.709 -0.166
v 0.309 1.697 0.028
v 0.197 1.699 0.223
v -0.028 1.716 0.223
v -0.14 1.728 0.029
v -0.028 1.726 -0.166
usemtl Birch
s off
f 30 29 28 27 26 25
f 31 32 33 34 35 36
f 25 26 32 31
f 26 27 33 32
f 27 28 34 33
f 28 29 35 34
f 29 30 36 35
f 30 25 31 36
o Trunk
v 0.197 1.709 -0.166
v 0.309 1.697 0.028
v 0.197 1.699 0.223
v -0.028 1.716 0.223
v -0.14 1.728 0.029
v -0.028 1.726 -0.166
v 0.223 2.294 -0.152
v 0.333 2.282 0.038
v 0.223 2.284 0.228
v 0.005 2.301 0.228
v -0.105 2.313 0.038
v 0.005 2.309 -0.152
usemtl Birch
s off
f 42 41 40 39 38 37
f 43 44 45 46 47 48
f 37 38 44 43
f 38 39 45 44
f 39 40 46 45
f 40 41 47 46
f 41 42 48 47
f 42 37 43 48
o Trunk
v 0.223 2.294 -0.152
v 0.333 2.282 0.038
v 0.223 2.284 0.228
v 0.005 2.301 0.228
v -0.105 2.313 0.038
v 0.005 2.309 -0.152
v 0.249 2.879 -0.136
v 0.356 2.867 0.047
v 0.249 2.871 0.231
v 0.036 2.886 0.233
v -0.069 2.898 0.048
v 0.036 2.894 -0.136
usemtl Birch
s off
f 54 53 52 51 50 49
f 55 56 57 58 59 60
f 49 50 56 55
f 50 51 57 56
f 51 52 58 57
f 52 53 59 58
f 53 54 60 59
f 54 49 55 60
o Trunk
v 0.249 2.879 -0.136
v 0.356 2.867 0.047
v 0.249 2.871 0.231
v 0.036 2.886 0.233
v -0.069 2.898 0.048
v 0.036 2.894 -0.136
v 0.276 3.464 -0.123
v 0.378 3.454 0.057
v 0.276 3.456 0.237
v 0.069 3.471 0.237
v -0.035 3.483 0.057
v 0.069 3.479 -0.123
usemtl Birch
s off
f 66 65 64 63 62 61
f 67 68 69 70 71 72
f 61 62 68 67
f 62 63 69 68
f 63 64 70 69
f 64 65 71 70
f 65 66 72 71
f 66 61 67 72
o Trunk
v 0.276 3.464 -0.123
v 0.378 3.454 0.057
v 0.276 3.456 0.237
v 0.069 3.471 0.237
v -0.035 3.483 0.057
v 0.069 3.479 -0.123
v 0.302 4.05 -0.107
v 0.402 4.039 0.067
v 0.302 4.041 0.242
v 0.1 4.056 0.242
v 0 4.068 0.067
v 0.1 4.064 -0.107
usemtl Birch
s off
f 78 77 76 75 74 73
f 79 80 81 82 83 84
f 73 74 80 79
f 74 75 81 80
f 75 76 82 81
f 76 77 83 82
f 77 78 84 83
f 78 73 79 84
o Trunk
v 0.302 4.05 -0.107
v 0.402 4.039 0.067
v 0.302 4.041 0.242
v 0.1 4.056 0.242
v 0 4.068 0.067
v 0.1 4.064 -0.107
v 0.328 4.635 -0.093
v 0.425 4.624 0.076
v 0.328 4.628 0.245
v 0.133 4.641 0.247
v 0.035 4.653 0.078
v 0.133 4.649 -0.093
usemtl Birch
s off
f 90 89 88 87 86 85
f 91 92 93 94 95 96
f 85 86 92 91
f 86 87 93 92
f 87 88 94 93
f 88 89 95 94
f 89 90 96 95
f 90 85 91 96
o Trunk
v 0.328 4.635 -0.093
v 0.425 4.624 0.076
v 0.328 4.628 0.245
v 0.133 4.641 0.247
v 0.035 4.653 0.078
v 0.133 4.649 -0.093
v 0.354 5.222 -0.078
v 0.449 5.209 0.086
v 0.354 5.213 0.25
v 0.164 5.226 0.25
v 0.069 5.239 0.086
v 0.164 5.234 -0.078
usemtl Birch
s off
f 102 101 100 99 98 97
f 103 104 105 106 107 108
f 97 98 104 103
f 98 99 105 104
f 99 100 106 105
f 100 101 107 106
f 101 102 108 107
f 102 97 103 108
o Trunk
v 0.354 5.218 -0.078
v 0.449 5.203 0.086
v 0.354 5.209 0.25
v 0.164 5.23 0.25
v 0.069 5.245 0.086
v 0.164 5.239 -0.078
v 0.394 5.819 -0.062
v 0.485 5.805 0.097
v 0.394 5.811 0.256
v 0.211 5.83 0.256
v 0.119 5.844 0.097
v 0.211 5.838 -0.062
usemtl Birch
s off
f 114 113 112 111 110 109
f 115 116 117 118 119 120
f 109 110 116 115
f 110 111 117 116
f 111 112 118 117
f 112 113 119 118
f 113 114 120 119
f 114 109 115 120
o Trunk
v 0.394 5.819 -0.062
v 0.485 5.805 0.097
v 0.394 5.811 0.256
v 0.211 5.83 0.256
v 0.119 5.844 0.097
v 0.211 5.838 -0.062
v 0.433 6.419 -0.045
v 0.521 6.407 0.107
v 0.433 6.413 0.261
v 0.257 6.432 0.261
v 0.169 6.444 0.109
v 0.257 6.438 -0.045
usemtl Birch
s off
f 126 125 124 123 122 121
f 127 128 129 130 131 132
f 121 122 128 127
f 122 123 129 128
f 123 124 130 129
f 124 125 131 130
f 125 126 132 131
f 126 121 127 132
o Trunk
v 0.433 6.419 -0.045
v 0.521 6.407 0.107
v 0.433 6.413 0.261
v 0.257 6.432 0.261
v 0.169 6.444 0.109
v 0.257 6.438 -0.045
v 0.473 7.021 -0.029
v 0.558 7.008 0.119
v 0.473 7.013 0.266
v 0.304 7.031 0.266
v 0.219 7.044 0.119
v 0.304 7.04 -0.029
usemtl Birch
s off
f 138 137 136 135 134 133
f 139 140 141 142 143 144
f 133 134 140 139
f 134 135 141 140
f 135 136 142 141
f 136 137 143 142
f 137 138 144 143
f 138 133 139 144
o Trunk
v 0.473 7.021 -0.029
v 0.558 7.008 0.119
v 0.473 7.013 0.266
v 0.304 7.031 0.266
v 0.219 7.044 0.119
v 0.304 7.04 -0.029
v 0.513 7.623 -0.012
v 0.596 7.61 0.13
v 0.513 7.614 0.271
v 0.351 7.631 0.271
v 0.268 7.644 0.13
v 0.351 7.639 -0.012
usemtl Birch
s off
f 150 149 148 147 146 145
f 151 152 153 154 155 156
f 145 146 152 151
f 146 147 153 152
f 147 148 154 153
f 148 149 155 154
f 149 150 156 155
f 150 145 151 156
o Trunk
v 0.513 7.623 -0.012
v 0.596 7.61 0.13
v 0.513 7.614 0.271
v 0.351 7.631 0.271
v 0.268 7.644 0.13
v 0.351 7.639 -0.012
v 0.553 8.222 0.003
v 0.632 8.212 0.14
v 0.553 8.216 0.276
v 0.397 8.233 0.276
v 0.318 8.243 0.14
v 0.397 8.239 0.003
usemtl Birch
s off
f 162 161 160 159 158 157
f 163 164 165 166 167 168
f 157 158 164 163
f 158 159 165 164
f 159 160 166 165
f 160 161 167 166
f 161 162 168 167
f 162 157 163 168
o Trunk
v 0.553 8.222 0.003
v 0.632 8.212 0.14
v 0.553 8.216 0.276
v 0.397 8.233 0.276
v 0.318 8.243 0.14
v 0.397 8.239 0.003
v 0.594 8.824 0.021
v 0.668 8.812 0.15
v 0.594 8.818 0.281
v 0.442 8.833 0.281
v 0.368 8.845 0.152
v 0.442 8.839 0.021
usemtl Birch
s off
f 174 173 172 171 170 169
f 175 176 177 178 179 180
f 169 170 176 175
f 170 171 177 176
f 171 172 178 177
f 172 173 179 178
f 173 174 180 179
f 174 169 175 180
o Trunk
v 0.594 8.824 0.021
v 0.668 8.812 0.15
v 0.594 8.818 0.281
v 0.442 8.833 0.281
v 0.368 8.845 0.152
v 0.442 8.839 0.021
v 0.634 9.424 0.036
v 0.705 9.413 0.162
v 0.634 9.418 0.287
v 0.489 9.434 0.287
v 0.418 9.445 0.162
v 0.489 9.441 0.036
usemtl Birch
s off
f 186 185 184 183 182 181
f 187 188 189 190 191 192
f 181 182 188 187
f 182 183 189 188
f 183 184 190 189
f 184 185 191 190
f 185 186 192 191
f 186 181 187 192
o Trunk
v 0.634 9.424 0.036
v 0.705 9.413 0.162
v 0.634 9.418 0.287
v 0.489 9.434 0.287
v 0.418 9.445 0.162
v 0.489 9.441 0.036
v 0.673 10.026 0.054
v 0.743 10.015 0.173
v 0.673 10.019 0.292
v 0.535 10.034 0.292
v 0.466 10.044 0.173
v 0.535 10.04 0.054
usemtl Birch
s off
f 198 197 196 195 194 193
f 199 200 201 202 203 204
f 193 194 200 199
f 194 195 201 200
f 195 196 202 201
f 196 197 203 202
f 197 198 204 203
f 198 193 199 204
o Trunk
v 0.673 10.028 0.054
v 0.743 10.026 0.173
v 0.673 10.028 0.292
v 0.535 10.032 0.292
v 0.466 10.034 0.173
v 0.535 10.032 0.054
v 0.682 10.565 0.059
v 0.748 10.563 0.173
v 0.682 10.565 0.287
v 0.551 10.569 0.287
v 0.485 10.571 0.173
v 0.551 10.569 0.059
usemtl Birch
s off
f 210 209 208 207 206 205
f 211 212 213 214 215 216
f 205 206 212 211
f 206 207 213 212
f 207 208 214 213
f 208 209 215 214
f 209 210 216 215
f 210 205 211 216
o Trunk
v 0.682 10.565 0.059
v 0.748 10.563 0.173
v 0.682 10.565 0.287
v 0.551 10.569 0.287
v 0.485 10.571 0.173
v 0.551 10.569 0.059
v 0.691 11.102 0.066
v 0.753 11.1 0.173
v 0.691 11.102 0.28
v 0.568 11.106 0.28
v 0.506 11.108 0.173
v 0.568 11.106 0.066
usemtl Birch
s off
f 222 221 220 219 218 217
f 223 224 225 226 227 228
f 217 218 224 223
f 218 219 225 224
f 219 220 226 225
f 220 221 227 226
f 221 222 228 227
f 222 217 223 228
o Trunk
v 0.691 11.102 0.066
v 0.753 11.1 0.173
v 0.691 11.102 0.28
v 0.568 11.106 0.28
v 0.506 11.108 0.173
v 0.568 11.106 0.066
v 0.699 11.639 0.073
v 0.758 11.639 0.173
v 0.699 11.639 0.273
v 0.584 11.643 0.273
v 0.525 11.645 0.173
v 0.584 11.643 0.073
usemtl Birch
s off
f 234 233 232 231 230 229
f 235 236 237 238 239 240
f 229 230 236 235
f 230 231 237 236
f 231 232 238 237
f 232 233 239 238
f 233 234 240 239
f 234 229 235 240
o Trunk
v 0.699 11.639 0.073
v 0.758 11.639 0.173
v 0.699 11.639 0.273
v 0.584 11.643 0.273
v 0.525 11.645 0.173
v 0.584 11.643 0.073
v 0.708 12.178 0.079
v 0.762 12.176 0.173
v 0.708 12.178 0.266
v 0.599 12.18 0.266
v 0.546 12.182 0.173
v 0.599 12.18 0.079
usemtl Birch
s off
f 246 245 244 243 242 241
f 247 248 249 250 251 252
f 241 242 248 247
f 242 243 249 248
f 243 244 250 249
f 244 245 251 250
f 245 246 252 251
f 246 241 247 252
o Trunk
v 0.708 12.178 0.079
v 0.762 12.176 0.173
v 0.708 12.178 0.266
v 0.599 12.18 0.266
v 0.546 12.182 0.173
v 0.599 12.18 0.079
v 0.717 12.715 0.085
v 0.767 12.713 0.173
v 0.717 12.715 0.261
v 0.615 12.719 0.261
v 0.565 12.719 0.173
v 0.615 12.719 0.085
usemtl Birch
s off
f 258 257 256 255 254 253
f 259 260 261 262 263 264
f 253 254 260 259
f 254 255 261 260
f 255 256 262 261
f 256 257 263 262
f 257 258 264 263
f 258 253 259 264
o Trunk
v 0.717 12.715 0.085
v 0.767 12.713 0.173
v 0.717 12.715 0.261
v 0.615 12.719 0.261
v 0.565 12.719 0.173
v 0.615 12.719 0.085
v 0.725 13.252 0.092
v 0.772 13.25 0.173
v 0.725 13.252 0.254
v 0.632 13.256 0.254
v 0.585 13.256 0.173
v 0.632 13.256 0.092
usemtl Birch
s off
f 270 269 268 267 266 265
f 271 272 273 274 275 276
f 265 266 272 271
f 266 267 273 272
f 267 268 274 273
f 268 269 275 274
f 269 270 276 275
f 270 265 271 276
o Trunk
v 0.725 13.252 0.092
v 0.772 13.25 0.173
v 0.725 13.252 0.254
v 0.632 13.256 0.254
v 0.585 13.256 0.173
v 0.632 13.256 0.092
v 0.734 13.789 0.098
v 0.777 13.789 0.173
v 0.734 13.789 0.247
v 0.648 13.793 0.247
v 0.604 13.793 0.173
v 0.648 13.793 0.098
usemtl Birch
s off
f 282 281 280 279 278 277
f 283 284 285 286 287 288
f 277 278 284 283
f 278 279 285 284
f 279 280 286 285
f 280 281 287 286
f 281 282 288 287
f 282 277 283 288
o Bark.Mark
v -0.022 1.881 -0.173
v -0.022 1.881 -0.035
v 0.116 1.881 -0.035
v 0.116 1.881 -0.173
v -0.022 1.998 -0.173
v -0.022 1.998 -0.035
v 0.116 1.998 -0.035
v 0.116 1.998 -0.173
usemtl BirchMark
s off
f 292 291 290 289
f 293 294 295 296
f 289 290 294 293
f 290 291 295 294
f 291 292 296 295
f 292 289 293 296
o Bark.Mark
v 0.18 2.925 -0.111
v 0.18 2.925 0.028
v 0.318 2.925 0.028
v 0.318 2.925 -0.111
v 0.18 3.057 -0.111
v 0.18 3.057 0.028
v 0.318 3.057 0.028
v 0.318 3.057 -0.111
usemtl BirchMark
s off
f 300 299 298 297
f 301 302 303 304
f 297 298 302 301
f 298 299 303 302
f 299 300 304 303
f 300 297 301 304
o Bark.Mark
v 0.003 3.97 0.04
v 0.003 3.97 0.178
v 0.142 3.97 0.178
v 0.142 3.97 0.04
v 0.003 4.064 0.04
v 0.003 4.064 0.178
v 0.142 4.064 0.178
v 0.142 4.064 0.04
usemtl BirchMark
s off
f 308 307 306 305
f 309 310 311 312
f 305 306 310 309
f 306 307 311 310
f 307 308 312 311
f 308 305 309 312
o Bark.Mark
v 0.207 5.015 -0.109
v 0.207 5.015 0.029
v 0.345 5.015 0.029
v 0.345 5.015 -0.109
v 0.207 5.163 -0.109
v 0.207 5.163 0.029
v 0.345 5.163 0.029
v 0.345 5.163 -0.109
usemtl BirchMark
s off
f 316 315 314 313
f 317 318 319 320
f 313 314 318 317
f 314 315 319 318
f 315 316 320 319
f 316 313 317 320
o Bark.Mark
v 0.193 5.993 0.14
v 0.193 5.993 0.278
v 0.332 5.993 0.278
v 0.332 5.993 0.14
v 0.193 6.129 0.14
v 0.193 6.129 0.278
v 0.332 6.129 0.278
v 0.332 6.129 0.14
usemtl BirchMark
s off
f 324 323 322 321
f 325 326 327 328
f 321 322 326 325
f 322 323 327 326
f 323 324 328 327
f 324 321 325 328
o Bark.Mark
v 0.378 6.954 -0.047
v 0.378 6.954 0.092
v 0.516 6.954 0.092
v 0.516 6.954 -0.047
v 0.378 7.109 -0.047
v 0.378 7.109 0.092
v 0.516 7.109 0.092
v 0.516 7.109 -0.047
usemtl BirchMark
s off
f 332 331 330 329
f 333 334 335 336
f 329 330 334 333
f 330 331 335 334
f 331 332 336 335
f 332 329 333 336
o Bark.Mark
v 0.473 7.915 0.126
v 0.473 7.915 0.264
v 0.611 7.915 0.264
v 0.611 7.915 0.126
v 0.473 8.022 0.126
v 0.473 8.022 0.264
v 0.611 8.022 0.264
v 0.611 8.022 0.126
usemtl BirchMark
s off
f 340 339 338 337
f 341 342 343 344
f 337 338 342 341
f 338 339 343 342
f 339 340 344 343
f 340 337 341 344
o Bark.Mark
v 0.551 8.876 0.109
v 0.551 8.876 0.247
v 0.689 8.876 0.247
v 0.689 8.876 0.109
v 0.551 9 0.109
v 0.551 9 0.247
v 0.689 9 0.247
v 0.689 9 0.109
usemtl BirchMark
s off
f 348 347 346 345
f 349 350 351 352
f 345 346 350 349
f 346 347 351 350
f 347 348 352 351
f 348 345 349 352
o Bark.Mark
v 0.591 9.838 0.033
v 0.591 9.838 0.171
v 0.729 9.838 0.171
v 0.729 9.838 0.033
v 0.591 9.963 0.033
v 0.591 9.963 0.171
v 0.729 9.963 0.171
v 0.729 9.963 0.033
usemtl BirchMark
s off
f 356 355 354 353
f 357 358 359 360
f 353 354 358 357
f 354 355 359 358
f 355 356 360 359
f 356 353 357 360
o Bark.Mark
v 0.551 10.632 0.014
v 0.551 10.632 0.152
v 0.689 10.632 0.152
v 0.689 10.632 0.014
v 0.551 10.734 0.014
v 0.551 10.734 0.152
v 0.689 10.734 0.152
v 0.689 10.734 0.014
usemtl BirchMark
s off
f 364 363 362 361
f 365 366 367 368
f 361 362 366 365
f 362 363 367 366
f 363 364 368 367
f 364 361 365 368
o Bark.Mark
v 0.482 11.384 0.102
v 0.482 11.384 0.24
v 0.62 11.384 0.24
v 0.62 11.384 0.102
v 0.482 11.522 0.102
v 0.482 11.522 0.24
v 0.62 11.522 0.24
v 0.62 11.522 0.102
usemtl BirchMark
s off
f 372 371 370 369
f 373 374 375 376
f 369 370 374 373
f 370 371 375 374
f 371 372 376 375
f 372 369 373 376
o Bark.Mark
v 0.653 12.136 0.066
v 0.653 12.136 0.204
v 0.791 12.136 0.204
v 0.791 12.136 0.066
v 0.653 12.299 0.066
v 0.653 12.299 0.204
v 0.791 12.299 0.204
v 0.791 12.299 0.066
usemtl BirchMark
s off
f 380 379 378 377
f 381 382 383 384
f 377 378 382 381
f 378 379 383 382
f 379 380 384 383
f 380 377 381 384
o Trunk.Stump
v 0.25 0 0.181
v 0.086 0 0.276
v -0.078 0 0.181
v -0.078 0 -0.009
v 0.086 0 -0.104
v 0.25 0 -0.009
v 0.2 0.499 0.161
v 0.04 0.499 0.254
v -0.123 0.499 0.161
v -0.123 0.499 -0.026
v 0.04 0.499 -0.119
v 0.2 0.499 -0.026
usemtl Birch
s off
f 390 389 388 387 386 385
f 391 392 393 394 395 396
f 385 386 392 391
f 386 387 393 392
f 387 388 394 393
f 388 389 395 394
f 389 390 396 395
f 390 385 391 396
o Trunk
v 0.2 0.499 0.161
v 0.04 0.499 0.254
v -0.123 0.499 0.161
v -0.123 0.499 -0.026
v 0.04 0.499 -0.119
v 0.2 0.499 -0.026
v 0.138 1.126 0.135
v -0.019 1.126 0.226
v -0.176 1.126 0.135
v -0.176 1.126 -0.047
v -0.019 1.126 -0.138
v 0.138 1.126 -0.047
usemtl Birch
s off
f 402 401 400 399 398 397
f 403 404 405 406 407 408
f 397 398 404 403
f 398 399 405 404
f 399 400 406 405
f 400 401 407 406
f 401 402 408 407
f 402 397 403 408
o Trunk
v 0.071 1.13 -0.114
v 0.161 1.151 0.043
v 0.071 1.147 0.2
v -0.109 1.122 0.202
v -0.2 1.101 0.045
v -0.109 1.105 -0.112
v 0.014 1.709 -0.131
v 0.102 1.73 0.021
v 0.014 1.726 0.174
v -0.162 1.701 0.176
v -0.25 1.682 0.022
v -0.162 1.684 -0.131
usemtl Birch
s off
f 414 413 412 411 410 409
f 415 416 417 418 419 420
f 409 410 416 415
f 410 411 417 416
f 411 412 418 417
f 412 413 419 418
f 413 414 420 419
f 414 409 415 420
o Trunk
v 0.014 1.709 -0.131
v 0.102 1.73 0.021
v 0.014 1.726 0.174
v -0.162 1.701 0.176
v -0.25 1.682 0.022
v -0.162 1.684 -0.131
v -0.041 2.288 -0.15
v 0.043 2.307 0
v -0.041 2.303 0.15
v -0.214 2.28 0.15
v -0.3 2.261 0.002
v -0.214 2.263 -0.149
usemtl Birch
s off
f 426 425 424 423 422 421
f 427 428 429 430 431 432
f 421 422 428 427
f 422 423 429 428
f 423 424 430 429
f 424 425 431 430
f 425 426 432 431
f 426 421 427 432
o Trunk
v -0.041 2.288 -0.15
v 0.043 2.307 0
v -0.041 2.303 0.15
v -0.214 2.28 0.15
v -0.3 2.261 0.002
v -0.214 2.263 -0.149
v -0.098 2.865 -0.167
v -0.016 2.886 -0.022
v -0.098 2.881 0.124
v -0.266 2.859 0.124
v -0.351 2.84 -0.021
v -0.266 2.842 -0.166
usemtl Birch
s off
f 438 437 436 435 434 433
f 439 440 441 442 443 444
f 433 434 440 439
f 434 435 441 440
f 435 436 442 441
f 436 437 443 442
f 437 438 444 443
f 438 433 439 444
o Trunk
v -0.098 2.865 -0.167
v -0.016 2.886 -0.022
v -0.098 2.881 0.124
v -0.266 2.859 0.124
v -0.351 2.84 -0.021
v -0.266 2.842 -0.166
v -0.155 3.444 -0.185
v -0.074 3.462 -0.043
v -0.155 3.46 0.098
v -0.318 3.437 0.1
v -0.401 3.419 -0.041
v -0.318 3.421 -0.185
usemtl Birch
s off
f 450 449 448 447 446 445
f 451 452 453 454 455 456
f 445 446 452 451
f 446 447 453 452
f 447 448 454 453
f 448 449 455 454
f 449 450 456 455
f 450 445 451 456
o Trunk
v -0.155 3.444 -0.185
v -0.074 3.462 -0.043
v -0.155 3.46 0.098
v -0.318 3.437 0.1
v -0.401 3.419 -0.041
v -0.318 3.421 -0.185
v -0.212 4.022 -0.204
v -0.133 4.041 -0.066
v -0.212 4.037 0.073
v -0.371 4.016 0.074
v -0.449 3.997 -0.064
v -0.371 3.999 -0.202
usemtl Birch
s off
f 462 461 460 459 458 457
f 463 464 465 466 467 468
f 457 458 464 463
f 458 459 465 464
f 459 460 466 465
f 460 461 467 466
f 461 462 468 467
f 462 457 463 468
o Trunk
v -0.212 4.022 -0.204
v -0.133 4.041 -0.066
v -0.212 4.037 0.073
v -0.371 4.016 0.074
v -0.449 3.997 -0.064
v -0.371 3.999 -0.202
v -0.268 4.601 -0.221
v -0.192 4.618 -0.086
v -0.268 4.616 0.048
v -0.423 4.593 0.048
v -0.499 4.576 -0.086
v -0.423 4.578 -0.221
usemtl Birch
s off
f 474 473 472 471 470 469
f 475 476 477 478 479 480
f 469 470 476 475
f 470 471 477 476
f 471 472 478 477
f 472 473 479 478
f 473 474 480 479
f 474 469 475 480
o Trunk
v -0.268 4.605 -0.221
v -0.192 4.62 -0.086
v -0.268 4.614 0.048
v -0.423 4.589 0.048
v -0.499 4.574 -0.086
v -0.423 4.58 -0.221
v -0.332 5.201 -0.23
v -0.257 5.218 -0.098
v -0.332 5.209 0.031
v -0.482 5.186 0.031
v -0.556 5.172 -0.098
v -0.482 5.178 -0.228
usemtl Birch
s off
f 486 485 484 483 482 481
f 487 488 489 490 491 492
f 481 482 488 487
f 482 483 489 488
f 483 484 490 489
f 484 485 491 490
f 485 486 492 491
f 486 481 487 492
o Trunk
v -0.332 5.201 -0.23
v -0.257 5.218 -0.098
v -0.332 5.209 0.031
v -0.482 5.186 0.031
v -0.556 5.172 -0.098
v -0.482 5.178 -0.228
v -0.397 5.799 -0.237
v -0.325 5.813 -0.112
v -0.397 5.805 0.016
v -0.54 5.784 0.016
v -0.613 5.769 -0.111
v -0.54 5.776 -0.237
usemtl Birch
s off
f 498 497 496 495 494 493
f 499 500 501 502 503 504
f 493 494 500 499
f 494 495 501 500
f 495 496 502 501
f 496 497 503 502
f 497 498 504 503
f 498 493 499 504
o Trunk
v -0.397 5.799 -0.237
v -0.325 5.813 -0.112
v -0.397 5.805 0.016
v -0.54 5.784 0.016
v -0.613 5.769 -0.111
v -0.54 5.776 -0.237
v -0.461 6.394 -0.245
v -0.39 6.409 -0.124
v -0.461 6.402 -0.002
v -0.601 6.381 -0.002
v -0.67 6.367 -0.123
v -0.601 6.373 -0.245
usemtl Birch
s off
f 510 509 508 507 506 505
f 511 512 513 514 515 516
f 505 506 512 511
f 506 507 513 512
f 507 508 514 513
f 508 509 515 514
f 509 510 516 515
f 510 505 511 516
o Trunk
v -0.461 6.394 -0.245
v -0.39 6.409 -0.124
v -0.461 6.402 -0.002
v -0.601 6.381 -0.002
v -0.67 6.367 -0.123
v -0.601 6.373 -0.245
v -0.525 6.992 -0.254
v -0.458 7.006 -0.136
v -0.525 6.998 -0.019
v -0.66 6.979 -0.017
v -0.727 6.964 -0.135
v -0.66 6.971 -0.252
usemtl Birch
s off
f 522 521 520 519 518 517
f 523 524 525 526 527 528
f 517 518 524 523
f 518 519 525 524
f 519 520 526 525
f 520 521 527 526
f 521 522 528 527
f 522 517 523 528
o Trunk
v -0.525 6.992 -0.254
v -0.458 7.006 -0.136
v -0.525 6.998 -0.019
v -0.66 6.979 -0.017
v -0.727 6.964 -0.135
v -0.66 6.971 -0.252
v -0.589 7.589 -0.261
v -0.523 7.602 -0.149
v -0.589 7.596 -0.035
v -0.718 7.577 -0.035
v -0.784 7.562 -0.147
v -0.718 7.568 -0.261
usemtl Birch
s off
f 534 533 532 531 530 529
f 535 536 537 538 539 540
f 529 530 536 535
f 530 531 537 536
f 531 532 538 537
f 532 533 539 538
f 533 534 540 539
f 534 529 535 540
o Trunk
v -0.589 7.589 -0.261
v -0.523 7.602 -0.149
v -0.589 7.596 -0.035
v -0.718 7.577 -0.035
v -0.784 7.562 -0.147
v -0.718 7.568 -0.261
v -0.653 8.185 -0.269
v -0.591 8.197 -0.161
v -0.653 8.191 -0.052
v -0.777 8.172 -0.052
v -0.841 8.16 -0.161
v -0.777 8.166 -0.269
usemtl Birch
s off
f 546 545 544 543 542 541
f 547 548 549 550 551 552
f 541 542 548 547
f 542 543 549 548
f 543 544 550 549
f 544 545 551 550
f 545 546 552 551
f 546 541 547 552
o Trunk
v -0.653 8.185 -0.269
v -0.591 8.197 -0.161
v -0.653 8.191 -0.052
v -0.777 8.172 -0.052
v -0.841 8.16 -0.161
v -0.777 8.166 -0.269
v -0.717 8.782 -0.278
v -0.658 8.795 -0.173
v -0.717 8.789 -0.069
v -0.837 8.77 -0.067
v -0.896 8.757 -0.173
v -0.837 8.764 -0.276
usemtl Birch
s off
f 558 557 556 555 554 553
f 559 560 561 562 563 564
f 553 554 560 559
f 554 555 561 560
f 555 556 562 561
f 556 557 563 562
f 557 558 564 563
f 558 553 559 564
o Trunk
v -0.717 8.776 -0.278
v -0.656 8.784 -0.173
v -0.717 8.784 -0.067
v -0.837 8.776 -0.067
v -0.898 8.768 -0.173
v -0.837 8.768 -0.278
v -0.748 9.334 -0.287
v -0.691 9.342 -0.186
v -0.748 9.342 -0.088
v -0.863 9.332 -0.088
v -0.92 9.326 -0.186
v -0.863 9.326 -0.287
usemtl Birch
s off
f 570 569 568 567 566 565
f 571 572 573 574 575 576
f 565 566 572 571
f 566 567 573 572
f 567 568 574 573
f 568 569 575 574
f 569 570 576 575
f 570 565 571 576
o Trunk
v -0.748 9.334 -0.287
v -0.691 9.342 -0.186
v -0.748 9.342 -0.088
v -0.863 9.332 -0.088
v -0.92 9.326 -0.186
v -0.863 9.326 -0.287
v -0.781 9.892 -0.297
v -0.725 9.898 -0.202
v -0.781 9.898 -0.107
v -0.889 9.89 -0.107
v -0.945 9.881 -0.202
v -0.889 9.884 -0.295
usemtl Birch
s off
f 582 581 580 579 578 577
f 583 584 585 586 587 588
f 577 578 584 583
f 578 579 585 584
f 579 580 586 585
f 580 581 587 586
f 581 582 588 587
f 582 577 583 588
o Trunk
v -0.781 9.892 -0.297
v -0.725 9.898 -0.202
v -0.781 9.898 -0.107
v -0.889 9.89 -0.107
v -0.945 9.881 -0.202
v -0.889 9.884 -0.295
v -0.812 10.448 -0.306
v -0.76 10.456 -0.216
v -0.812 10.454 -0.126
v -0.915 10.448 -0.126
v -0.967 10.439 -0.216
v -0.915 10.441 -0.306
usemtl Birch
s off
f 594 593 592 591 590 589
f 595 596 597 598 599 600
f 589 590 596 595
f 590 591 597 596
f 591 592 598 597
f 592 593 599 598
f 593 594 600 599
f 594 589 595 600
o Trunk
v -0.812 10.448 -0.306
v -0.76 10.456 -0.216
v -0.812 10.454 -0.126
v -0.915 10.448 -0.126
v -0.967 10.439 -0.216
v -0.915 10.441 -0.306
v -0.843 11.006 -0.314
v -0.794 11.012 -0.23
v -0.843 11.012 -0.145
v -0.941 11.004 -0.145
v -0.989 10.997 -0.23
v -0.941 10.997 -0.314
usemtl Birch
s off
f 606 605 604 603 602 601
f 607 608 609 610 611 612
f 601 602 608 607
f 602 603 609 608
f 603 604 610 609
f 604 605 611 610
f 605 606 612 611
f 606 601 607 612
o Trunk
v -0.843 11.006 -0.314
v -0.794 11.012 -0.23
v -0.843 11.012 -0.145
v -0.941 11.004 -0.145
v -0.989 10.997 -0.23
v -0.941 10.997 -0.314
v -0.875 11.564 -0.325
v -0.829 11.57 -0.245
v -0.875 11.568 -0.166
v -0.967 11.561 -0.164
v -1.014 11.555 -0.245
v -0.967 11.555 -0.325
usemtl Birch
s off
f 618 617 616 615 614 613
f 619 620 621 622 623 624
f 613 614 620 619
f 614 615 621 620
f 615 616 622 621
f 616 617 623 622
f 617 618 624 623
f 618 613 619 624
o Trunk
v -0.875 11.564 -0.325
v -0.829 11.57 -0.245
v -0.875 11.568 -0.166
v -0.967 11.561 -0.164
v -1.014 11.555 -0.245
v -0.967 11.555 -0.325
v -0.907 12.119 -0.333
v -0.863 12.126 -0.259
v -0.907 12.126 -0.185
v -0.993 12.119 -0.185
v -1.036 12.113 -0.259
v -0.993 12.113 -0.333
usemtl Birch
s off
f 630 629 628 627 626 625
f 631 632 633 634 635 636
f 625 626 632 631
f 626 627 633 632
f 627 628 634 633
f 628 629 635 634
f 629 630 636 635
f 630 625 631 636
o Bark.Mark
v -0.154 1.655 -0.157
v -0.154 1.655 -0.019
v -0.016 1.655 -0.019
v -0.016 1.655 -0.157
v -0.154 1.776 -0.157
v -0.154 1.776 -0.019
v -0.016 1.776 -0.019
v -0.016 1.776 -0.157
usemtl BirchMark
s off
f 640 639 638 637
f 641 642 643 644
f 637 638 642 641
f 638 639 643 642
f 639 640 644 643
f 640 637 641 644
o Bark.Mark
v -0.319 2.574 -0.133
v -0.319 2.574 0.005
v -0.181 2.574 0.005
v -0.181 2.574 -0.133
v -0.319 2.698 -0.133
v -0.319 2.698 0.005
v -0.181 2.698 0.005
v -0.181 2.698 -0.133
usemtl BirchMark
s off
f 648 647 646 645
f 649 650 651 652
f 645 646 650 649
f 646 647 651 650
f 647 648 652 651
f 648 645 649 652
o Bark.Mark
v -0.297 3.494 -0.01
v -0.297 3.494 0.128
v -0.159 3.494 0.128
v -0.159 3.494 -0.01
v -0.297 3.655 -0.01
v -0.297 3.655 0.128
v -0.159 3.655 0.128
v -0.159 3.655 -0.01
usemtl BirchMark
s off
f 656 655 654 653
f 657 658 659 660
f 653 654 658 657
f 654 655 659 658
f 655 656 660 659
f 656 653 657 660
o Bark.Mark
v -0.311 4.413 -0.2
v -0.311 4.413 -0.062
v -0.173 4.413 -0.062
v -0.173 4.413 -0.2
v -0.311 4.57 -0.2
v -0.311 4.57 -0.062
v -0.173 4.57 -0.062
v -0.173 4.57 -0.2
usemtl BirchMark
s off
f 664 663 662 661
f 665 666 667 668
f 661 662 666 665
f 662 663 667 666
f 663 664 668 667
f 664 661 665 668
o Bark.Mark
v -0.547 5.266 -0.097
v -0.547 5.266 0.041
v -0.409 5.266 0.041
v -0.409 5.266 -0.097
v -0.547 5.372 -0.097
v -0.547 5.372 0.041
v -0.409 5.372 0.041
v -0.409 5.372 -0.097
usemtl BirchMark
s off
f 672 671 670 669
f 673 674 675 676
f 669 670 674 673
f 670 671 675 674
f 671 672 676 675
f 672 669 673 676
o Bark.Mark
v -0.478 6.101 -0.181
v -0.478 6.101 -0.043
v -0.34 6.101 -0.043
v -0.34 6.101 -0.181
v -0.478 6.227 -0.181
v -0.478 6.227 -0.043
v -0.34 6.227 -0.043
v -0.34 6.227 -0.181
usemtl BirchMark
s off
f 680 679 678 677
f 681 682 683 684
f 677 678 682 681
f 678 679 683 682
f 679 680 684 683
f 680 677 681 684
o Bark.Mark
v -0.641 6.937 -0.288
v -0.641 6.937 -0.15
v -0.502 6.937 -0.15
v -0.502 6.937 -0.288
v -0.641 7.023 -0.288
v -0.641 7.023 -0.15
v -0.502 7.023 -0.15
v -0.502 7.023 -0.288
usemtl BirchMark
s off
f 688 687 686 685
f 689 690 691 692
f 685 686 690 689
f 686 687 691 690
f 687 688 692 691
f 688 685 689 692
o Bark.Mark
v -0.746 7.773 -0.138
v -0.746 7.773 0
v -0.608 7.773 0
v -0.608 7.773 -0.138
v -0.746 7.934 -0.138
v -0.746 7.934 0
v -0.608 7.934 0
v -0.608 7.934 -0.138
usemtl BirchMark
s off
f 696 695 694 693
f 697 698 699 700
f 693 694 698 697
f 694 695 699 698
f 695 696 700 699
f 696 693 697 700
o Bark.Mark
v -0.881 8.609 -0.297
v -0.881 8.609 -0.159
v -0.743 8.609 -0.159
v -0.743 8.609 -0.297
v -0.881 8.701 -0.297
v -0.881 8.701 -0.159
v -0.743 8.701 -0.159
v -0.743 8.701 -0.297
usemtl BirchMark
s off
f 704 703 702 701
f 705 706 707 708
f 701 702 706 705
f 702 703 707 706
f 703 704 708 707
f 704 701 705 708
o Bark.Mark
v -0.843 9.311 -0.321
v -0.843 9.311 -0.183
v -0.705 9.311 -0.183
v -0.705 9.311 -0.321
v -0.843 9.47 -0.321
v -0.843 9.47 -0.183
v -0.705 9.47 -0.183
v -0.705 9.47 -0.321
usemtl BirchMark
s off
f 712 711 710 709
f 713 714 715 716
f 709 710 714 713
f 710 711 715 714
f 711 712 716 715
f 712 709 713 716
o Bark.Mark
v -0.848 9.98 -0.242
v -0.848 9.98 -0.104
v -0.71 9.98 -0.104
v -0.71 9.98 -0.242
v -0.848 10.118 -0.242
v -0.848 10.118 -0.104
v -0.71 10.118 -0.104
v -0.71 10.118 -0.242
usemtl BirchMark
s off
f 720 719 718 717
f 721 722 723 724
f 717 718 722 721
f 718 719 723 722
f 719 720 724 723
f 720 717 721 724
o Bark.Mark
v -0.894 10.648 -0.249
v -0.894 10.648 -0.111
v -0.756 10.648 -0.111
v -0.756 10.648 -0.249
v -0.894 10.782 -0.249
v -0.894 10.782 -0.111
v -0.756 10.782 -0.111
v -0.756 10.782 -0.249
usemtl BirchMark
s off
f 728 727 726 725
f 729 730 731 732
f 725 726 730 729
f 726 727 731 730
f 727 728 732 731
f 728 725 729 732
o Branch
v 0.418 6.929 0.109
v 0.387 6.944 0.147
v 0.345 6.906 0.143
v 0.352 6.868 0.104
v 0.397 6.883 0.081
v -0.547 8.53 -1.09
v -0.561 8.534 -1.074
v -0.577 8.519 -1.076
v -0.573 8.504 -1.091
v -0.556 8.511 -1.1
usemtl Birch
s off
f 737 736 735 734 733
f 738 739 740 741 742
f 733 734 739 738
f 734 735 740 739
f 735 736 741 740
f 736 737 742 741
f 737 733 738 742
o Leaves.Card.0
v -0.304 7.47 -0.119
v 0.402 7.47 -0.49
v 0.13 5.439 -1.01
v -0.577 5.439 -0.639
v -0.3 7.468 -0.112
v 0.406 7.468 -0.483
v 0.133 5.437 -1.005
v -0.573 5.437 -0.632
usemtl LeafCard
s off
f 746 745 744 743
f 747 748 749 750
f 743 744 748 747
f 744 745 749 748
f 745 746 750 749
f 746 743 747 750
o Leaves.Card.1
v -0.318 7.733 -0.174
v 0.111 7.733 -0.825
v -0.371 5.74 -1.141
v -0.8 5.74 -0.49
v -0.311 7.729 -0.171
v 0.116 7.729 -0.822
v -0.366 5.736 -1.138
v -0.794 5.736 -0.487
usemtl LeafCard
s off
f 754 753 752 751
f 755 756 757 758
f 751 752 756 755
f 752 753 757 756
f 753 754 758 757
f 754 751 755 758
o Leaves.Card.2
v -0.675 7.995 -0.559
v 0.162 7.995 -0.831
v -0.067 5.429 -1.537
v -0.903 5.429 -1.266
v -0.673 7.993 -0.553
v 0.164 7.993 -0.824
v -0.066 5.427 -1.53
v -0.901 5.427 -1.259
usemtl LeafCard
s off
f 762 761 760 759
f 763 764 765 766
f 759 760 764 763
f 760 761 765 764
f 761 762 766 765
f 762 759 763 766
o Leaves.Card.3
v -0.691 8.258 -0.622
v -0.13 8.258 -1.159
v -0.694 5.429 -1.749
v -1.255 5.429 -1.214
v -0.686 8.256 -0.618
v -0.124 8.256 -1.153
v -0.691 5.427 -1.744
v -1.25 5.427 -1.209
usemtl LeafCard
s off
f 770 769 768 767
f 771 772 773 774
f 767 768 772 771
f 768 769 773 772
f 769 770 774 773
f 770 767 771 774
o Branch
v 0.492 7.961 0.142
v 0.447 7.976 0.162
v 0.413 7.936 0.145
v 0.435 7.896 0.114
v 0.485 7.911 0.112
v 0.149 9.236 -1.228
v 0.131 9.242 -1.219
v 0.117 9.225 -1.226
v 0.126 9.211 -1.238
v 0.147 9.215 -1.24
usemtl Birch
s off
f 779 778 777 776 775
f 780 781 782 783 784
f 775 776 781 780
f 776 777 782 781
f 777 778 783 782
f 778 779 784 783
f 779 775 780 784
o Leaves.Card.4
v 0.024 8.387 -0.142
v 0.66 8.387 -0.542
v 0.288 5.976 -1.133
v -0.347 5.976 -0.732
v 0.028 8.385 -0.136
v 0.663 8.385 -0.537
v 0.292 5.974 -1.128
v -0.344 5.974 -0.727
usemtl LeafCard
s off
f 788 787 786 785
f 789 790 791 792
f 785 786 790 789
f 786 787 791 790
f 787 788 792 791
f 788 785 789 792
o Leaves.Card.5
v -0.079 8.596 -0.318
v 0.66 8.596 -0.81
v 0.323 6.503 -1.314
v -0.414 6.503 -0.822
v -0.076 8.594 -0.313
v 0.663 8.594 -0.805
v 0.326 6.501 -1.309
v -0.411 6.501 -0.817
usemtl LeafCard
s off
f 796 795 794 793
f 797 798 799 800
f 793 794 798 797
f 794 795 799 798
f 795 796 800 799
f 796 793 797 800
o Leaves.Card.6
v -0.124 8.807 -0.563
v 0.599 8.807 -1.01
v 0.266 6.609 -1.551
v -0.458 6.609 -1.105
v -0.121 8.803 -0.558
v 0.603 8.803 -1.003
v 0.269 6.605 -1.545
v -0.454 6.605 -1.098
usemtl LeafCard
s off
f 804 803 802 801
f 805 806 807 808
f 801 802 806 805
f 802 803 807 806
f 803 804 808 807
f 804 801 805 808
o Leaves.Card.7
v -0.226 9.016 -0.924
v 0.597 9.016 -1.091
v 0.447 6.415 -1.83
v -0.376 6.415 -1.661
v -0.224 9.012 -0.919
v 0.599 9.012 -1.086
v 0.449 6.411 -1.823
v -0.375 6.411 -1.656
usemtl LeafCard
s off
f 812 811 810 809
f 813 814 815 816
f 809 810 814 813
f 810 811 815 814
f 811 812 816 815
f 812 809 813 816
o Branch
v 0.527 8.985 0.114
v 0.561 8.998 0.149
v 0.551 8.966 0.19
v 0.508 8.933 0.181
v 0.494 8.945 0.133
v -0.511 10.694 0.758
v -0.497 10.701 0.772
v -0.502 10.686 0.787
v -0.518 10.673 0.784
v -0.525 10.68 0.765
usemtl Birch
s off
f 821 820 819 818 817
f 822 823 824 825 826
f 817 818 823 822
f 818 819 824 823
f 819 820 825 824
f 820 821 826 825
f 821 817 822 826
o Leaves.Card.8
v 0.487 9.568 0.663
v -0.159 9.568 0.078
v -0.687 6.841 0.663
v -0.043 6.841 1.247
v 0.49 9.566 0.658
v -0.154 9.566 0.074
v -0.684 6.839 0.658
v -0.038 6.839 1.242
usemtl LeafCard
s off
f 830 829 828 827
f 831 832 833 834
f 827 828 832 831
f 828 829 833 832
f 829 830 834 833
f 830 827 831 834
o Leaves.Card.9
v 0.318 9.848 0.722
v -0.326 9.848 0.219
v -0.734 7.554 0.743
v -0.09 7.554 1.245
v 0.321 9.846 0.717
v -0.323 9.846 0.214
v -0.73 7.552 0.737
v -0.086 7.552 1.24
usemtl LeafCard
s off
f 838 837 836 835
f 839 840 841 842
f 835 836 840 839
f 836 837 841 840
f 837 838 842 841
f 838 835 839 842
o Leaves.Card.10
v 0.167 10.128 0.862
v -0.515 10.128 0.283
v -1.06 7.213 0.926
v -0.378 7.213 1.504
v 0.173 10.124 0.856
v -0.509 10.124 0.278
v -1.055 7.211 0.92
v -0.373 7.211 1.499
usemtl LeafCard
s off
f 846 845 844 843
f 847 848 849 850
f 843 844 848 847
f 844 845 849 848
f 845 846 850 849
f 846 843 847 850
o Leaves.Card.11
v -0.183 10.408 1.048
v -0.501 10.408 0.297
v -1.055 8.327 0.53
v -0.739 8.327 1.281
v -0.178 10.404 1.046
v -0.494 10.404 0.294
v -1.05 8.323 0.527
v -0.732 8.323 1.28
usemtl LeafCard
s off
f 854 853 852 851
f 855 856 857 858
f 851 852 856 855
f 852 853 857 856
f 853 854 858 857
f 854 851 855 858
o Branch
v 0.637 10.024 0.18
v 0.591 10.04 0.19
v 0.559 9.996 0.174
v 0.587 9.95 0.157
v 0.635 9.967 0.159
v 0.459 11.162 -2.022
v 0.44 11.169 -2.019
v 0.428 11.15 -2.024
v 0.439 11.133 -2.031
v 0.458 11.139 -2.029
usemtl Birch
s off
f 863 862 861 860 859
f 864 865 866 867 868
f 859 860 865 864
f 860 861 866 865
f 861 862 867 866
f 862 863 868 867
f 863 859 864 868
o Leaves.Card.12
v 0.145 10.4 -0.701
v 0.948 10.4 -0.492
v 1.136 7.821 -1.214
v 0.333 7.821 -1.423
v 0.143 10.398 -0.694
v 0.946 10.398 -0.487
v 1.134 7.819 -1.209
v 0.332 7.819 -1.416
usemtl LeafCard
s off
f 872 871 870 869
f 873 874 875 876
f 869 870 874 873
f 870 871 875 874
f 871 872 876 875
f 872 869 873 876
o Leaves.Card.13
v 0.154 10.588 -0.801
v 0.889 10.588 -1.107
v 0.656 8.494 -1.666
v -0.079 8.494 -1.359
v 0.157 10.584 -0.794
v 0.891 10.584 -1.102
v 0.658 8.49 -1.659
v -0.076 8.49 -1.354
usemtl LeafCard
s off
f 880 879 878 877
f 881 882 883 884
f 877 878 882 881
f 878 879 883 882
f 879 880 884 883
f 880 877 881 884
o Leaves.Card.14
v 0.135 10.776 -1.21
v 0.856 10.776 -1.411
v 0.696 8.709 -1.986
v -0.024 8.709 -1.785
v 0.136 10.772 -1.204
v 0.858 10.772 -1.404
v 0.698 8.707 -1.981
v -0.022 8.707 -1.78
usemtl LeafCard
s off
f 888 887 886 885
f 889 890 891 892
f 885 886 890 889
f 886 887 891 890
f 887 888 892 891
f 888 885 889 892
o Leaves.Card.15
v 0.107 10.962 -1.672
v 0.834 10.962 -1.665
v 0.839 8.927 -2.253
v 0.112 8.927 -2.26
v 0.107 10.96 -1.665
v 0.834 10.96 -1.658
v 0.839 8.924 -2.247
v 0.112 8.924 -2.253
usemtl LeafCard
s off
f 896 895 894 893
f 897 898 899 900
f 893 894 898 897
f 894 895 899 898
f 895 896 900 899
f 896 893 897 900
o Branch
v 0.622 10.836 0.136
v 0.646 10.853 0.178
v 0.637 10.809 0.214
v 0.608 10.765 0.192
v 0.599 10.782 0.143
v -1.338 12.239 0.865
v -1.328 12.245 0.882
v -1.331 12.228 0.896
v -1.343 12.209 0.888
v -1.347 12.218 0.869
usemtl Birch
s off
f 905 904 903 902 901
f 906 907 908 909 910
f 901 902 907 906
f 902 903 908 907
f 903 904 909 908
f 904 905 910 909
f 905 901 906 910
o Leaves.Card.16
v 0.15 11.304 0.727
v -0.278 11.304 0.114
v -0.775 9.207 0.459
v -0.349 9.207 1.074
v 0.155 11.302 0.724
v -0.273 11.302 0.109
v -0.77 9.204 0.456
v -0.342 9.204 1.071
usemtl LeafCard
s off
f 914 913 912 911
f 915 916 917 918
f 911 912 916 915
f 912 913 917 916
f 913 914 918 917
f 914 911 915 918
o Leaves.Card.17
v -0.387 11.536 0.908
v -0.376 11.536 0.162
v -1.017 9.321 0.154
v -1.027 9.321 0.9
v -0.38 11.532 0.908
v -0.371 11.532 0.162
v -1.01 9.319 0.154
v -1.021 9.319 0.9
usemtl LeafCard
s off
f 922 921 920 919
f 923 924 925 926
f 919 920 924 923
f 920 921 925 924
f 921 922 926 925
f 922 919 923 926
o Leaves.Card.18
v -0.527 11.766 1.007
v -0.874 11.766 0.294
v -1.516 9.296 0.606
v -1.169 9.296 1.319
v -0.521 11.764 1.003
v -0.869 11.764 0.292
v -1.511 9.294 0.604
v -1.164 9.294 1.316
usemtl LeafCard
s off
f 930 929 928 927
f 931 932 933 934
f 927 928 932 931
f 928 929 933 932
f 929 930 934 933
f 930 927 931 934
o Leaves.Card.19
v -0.891 11.996 1.185
v -1.147 11.996 0.345
v -1.732 9.881 0.523
v -1.476 9.881 1.362
v -0.886 11.994 1.183
v -1.14 11.994 0.344
v -1.725 9.879 0.521
v -1.471 9.879 1.361
usemtl LeafCard
s off
f 938 937 936 935
f 939 940 941 942
f 935 936 940 939
f 936 937 941 940
f 937 938 942 941
f 938 935 939 942
o Branch
v 0.611 11.637 0.147
v 0.661 11.651 0.149
v 0.682 11.616 0.185
v 0.646 11.578 0.204
v 0.603 11.593 0.18
v 0.223 13.338 1.592
v 0.242 13.344 1.592
v 0.25 13.329 1.608
v 0.235 13.315 1.615
v 0.218 13.319 1.606
usemtl Birch
s off
f 947 946 945 944 943
f 948 949 950 951 952
f 943 944 949 948
f 944 945 950 949
f 945 946 951 950
f 946 947 952 951
f 947 943 948 952
o Leaves.Card.20
v 0.87 12.216 0.836
v 0.126 12.216 0.511
v -0.104 10.222 1.038
v 0.639 10.222 1.364
v 0.872 12.211 0.831
v 0.13 12.211 0.504
v -0.102 10.22 1.033
v 0.641 10.22 1.357
usemtl LeafCard
s off
f 956 955 954 953
f 957 958 959 960
f 953 954 958 957
f 954 955 959 958
f 955 956 960 959
f 956 953 957 960
o Leaves.Card.21
v 0.853 12.493 0.875
v 0.012 12.493 0.936
v 0.064 9.965 1.665
v 0.905 9.965 1.604
v 0.851 12.491 0.869
v 0.012 12.491 0.929
v 0.064 9.963 1.658
v 0.903 9.963 1.597
usemtl LeafCard
s off
f 964 963 962 961
f 965 966 967 968
f 961 962 966 965
f 962 963 967 966
f 963 964 968 967
f 964 961 965 968
o Leaves.Card.22
v 0.736 12.771 1.112
v -0.003 12.771 1.162
v 0.05 10.017 1.958
v 0.789 10.017 1.908
v 0.736 12.769 1.105
v -0.003 12.769 1.157
v 0.05 10.013 1.951
v 0.789 10.013 1.901
usemtl LeafCard
s off
f 972 971 970 969
f 973 974 975 976
f 969 970 974 973
f 970 971 975 974
f 971 972 976 975
f 972 969 973 976
o Leaves.Card.23
v 0.654 13.049 1.642
v -0.055 13.049 1.098
v -0.42 10.981 1.573
v 0.29 10.981 2.117
v 0.658 13.047 1.637
v -0.052 13.047 1.093
v -0.416 10.976 1.568
v 0.295 10.976 2.112
usemtl LeafCard
s off
f 980 979 978 977
f 981 982 983 984
f 977 978 982 981
f 978 979 983 982
f 979 980 984 983
f 980 977 981 984
o Branch
v 0.698 12.443 0.166
v 0.667 12.456 0.204
v 0.625 12.42 0.199
v 0.632 12.385 0.159
v 0.677 12.399 0.138
v -0.116 13.95 -0.858
v -0.13 13.954 -0.843
v -0.145 13.941 -0.844
v -0.143 13.927 -0.86
v -0.124 13.931 -0.869
usemtl Birch
s off
f 989 988 987 986 985
f 990 991 992 993 994
f 985 986 991 990
f 986 987 992 991
f 987 988 993 992
f 988 989 994 993
f 989 985 990 994
o Leaves.Card.24
v 0.069 12.953 0.05
v 0.694 12.953 -0.425
v 0.193 10.088 -1.084
v -0.432 10.088 -0.61
v 0.074 12.951 0.055
v 0.699 12.951 -0.42
v 0.199 10.084 -1.079
v -0.428 10.084 -0.604
usemtl LeafCard
s off
f 998 997 996 995
f 999 1000 1001 1002
f 995 996 1000 999
f 996 997 1001 1000
f 997 998 1002 1001
f 998 995 999 1002
o Leaves.Card.25
v -0.059 13.2 -0.069
v 0.566 13.2 -0.639
v 0.152 11.073 -1.093
v -0.473 11.073 -0.525
v -0.054 13.198 -0.064
v 0.57 13.198 -0.634
v 0.155 11.068 -1.088
v -0.468 11.068 -0.52
usemtl LeafCard
s off
f 1006 1005 1004 1003
f 1007 1008 1009 1010
f 1003 1004 1008 1007
f 1004 1005 1009 1008
f 1005 1006 1010 1009
f 1006 1003 1007 1010
o Leaves.Card.26
v -0.085 13.446 -0.155
v 0.335 13.446 -0.886
v -0.404 10.504 -1.309
v -0.822 10.504 -0.58
v -0.078 13.444 -0.154
v 0.34 13.444 -0.882
v -0.399 10.5 -1.305
v -0.817 10.5 -0.577
usemtl LeafCard
s off
f 1014 1013 1012 1011
f 1015 1016 1017 1018
f 1011 1012 1016 1015
f 1012 1013 1017 1016
f 1013 1014 1018 1017
f 1014 1011 1015 1018
o Leaves.Card.27
v -0.354 13.693 -0.492
v 0.347 13.693 -0.884
v -0.048 10.889 -1.592
v -0.751 10.889 -1.2
v -0.351 13.691 -0.485
v 0.351 13.691 -0.879
v -0.047 10.884 -1.587
v -0.748 10.884 -1.193
usemtl LeafCard
s off
f 1022 1021 1020 1019
f 1023 1024 1025 1026
f 1019 1020 1024 1023
f 1020 1021 1025 1024
f 1021 1022 1026 1025
f 1022 1019 1023 1026
o Leaves.Card.28
v 1.198 14 0.155
v 0.539 14 0.566
v 0.972 11.162 1.262
v 1.632 11.162 0.853
v 1.195 13.998 0.15
v 0.535 13.998 0.559
v 0.969 11.16 1.257
v 1.628 11.16 0.848
usemtl LeafCard
s off
f 1030 1029 1028 1027
f 1031 1032 1033 1034
f 1027 1028 1032 1031
f 1028 1029 1033 1032
f 1029 1030 1034 1033
f 1030 1027 1031 1034
o Leaves.Card.29
v 1.048 14 0.356
v 0.218 14 0.494
v 0.332 11.589 1.183
v 1.162 11.589 1.045
v 1.046 13.998 0.351
v 0.218 13.998 0.487
v 0.332 11.587 1.176
v 1.16 11.587 1.038
usemtl LeafCard
s off
f 1038 1037 1036 1035
f 1039 1040 1041 1042
f 1035 1036 1040 1039
f 1036 1037 1041 1040
f 1037 1038 1042 1041
f 1038 1035 1039 1042
o Leaves.Card.30
v 0.446 14 0.642
v 0.444 14 -0.138
v -0.231 11.67 -0.136
v -0.23 11.67 0.644
v 0.452 13.998 0.642
v 0.449 13.998 -0.138
v -0.224 11.666 -0.136
v -0.223 11.666 0.644
usemtl LeafCard
s off
f 1046 1045 1044 1043
f 1047 1048 1049 1050
f 1043 1044 1048 1047
f 1044 1045 1049 1048
f 1045 1046 1050 1049
f 1046 1043 1047 1050
o Leaves.Card.31
v 0.309 14 -0.186
v 1.093 14 0.014
v 1.262 11.635 -0.649
v 0.478 11.635 -0.85
v 0.307 13.998 -0.18
v 1.091 13.998 0.021
v 1.261 11.63 -0.642
v 0.477 11.63 -0.843
usemtl LeafCard
s off
f 1054 1053 1052 1051
f 1055 1056 1057 1058
f 1051 1052 1056 1055
f 1052 1053 1057 1056
f 1053 1054 1058 1057
f 1054 1051 1055 1058
o Leaves.Card.32
v 0.718 14 -0.345
v 1.09 14 0.395
v 1.799 11.254 0.04
v 1.43 11.254 -0.699
v 0.713 13.998 -0.342
v 1.083 13.998 0.399
v 1.794 11.25 0.043
v 1.423 11.25 -0.698
usemtl LeafCard
s off
f 1062 1061 1060 1059
f 1063 1064 1065 1066
f 1059 1060 1064 1063
f 1060 1061 1065 1064
f 1061 1062 1066 1065
f 1062 1059 1063 1066
o Branch
v -0.468 6.087 -0.092
v -0.516 6.101 -0.102
v -0.537 6.06 -0.131
v -0.502 6.018 -0.142
v -0.459 6.033 -0.117
v 0.093 7.267 -1.678
v 0.074 7.274 -1.682
v 0.066 7.257 -1.694
v 0.081 7.24 -1.697
v 0.097 7.247 -1.687
usemtl Birch
s off
f 1071 1070 1069 1068 1067
f 1072 1073 1074 1075 1076
f 1067 1068 1073 1072
f 1068 1069 1074 1073
f 1069 1070 1075 1074
f 1070 1071 1076 1075
f 1071 1067 1072 1076
o Leaves.Card.33
v -0.625 6.478 -0.917
v 0.038 6.478 -0.416
v 0.43 4.231 -0.934
v -0.231 4.231 -1.435
v -0.629 6.476 -0.912
v 0.033 6.476 -0.411
v 0.427 4.227 -0.929
v -0.237 4.227 -1.43
usemtl LeafCard
s off
f 1080 1079 1078 1077
f 1081 1082 1083 1084
f 1077 1078 1082 1081
f 1078 1079 1083 1082
f 1079 1080 1084 1083
f 1080 1077 1081 1084
o Leaves.Card.34
v -0.513 6.674 -1.179
v 0.114 6.674 -0.665
v 0.606 3.991 -1.264
v -0.021 3.991 -1.779
v -0.516 6.67 -1.174
v 0.109 6.67 -0.66
v 0.601 3.987 -1.259
v -0.024 3.987 -1.773
usemtl LeafCard
s off
f 1088 1087 1086 1085
f 1089 1090 1091 1092
f 1085 1086 1090 1089
f 1086 1087 1091 1090
f 1087 1088 1092 1091
f 1088 1085 1089 1092
o Leaves.Card.35
v -0.463 6.868 -1.266
v 0.252 6.868 -1.088
v 0.425 4.369 -1.791
v -0.29 4.369 -1.967
v -0.465 6.864 -1.259
v 0.25 6.864 -1.083
v 0.423 4.365 -1.784
v -0.292 4.365 -1.96
usemtl LeafCard
s off
f 1096 1095 1094 1093
f 1097 1098 1099 1100
f 1093 1094 1098 1097
f 1094 1095 1099 1098
f 1095 1096 1100 1099
f 1096 1093 1097 1100
o Leaves.Card.36
v -0.413 7.063 -1.511
v 0.39 7.063 -1.354
v 0.549 4.202 -2.165
v -0.254 4.202 -2.323
v -0.414 7.059 -1.504
v 0.389 7.059 -1.347
v 0.547 4.2 -2.158
v -0.256 4.2 -2.316
usemtl LeafCard
s off
f 1104 1103 1102 1101
f 1105 1106 1107 1108
f 1101 1102 1106 1105
f 1102 1103 1107 1106
f 1103 1104 1108 1107
f 1104 1101 1105 1108
o Branch
v -0.627 6.981 -0.142
v -0.58 6.996 -0.161
v -0.547 6.956 -0.143
v -0.572 6.914 -0.116
v -0.62 6.929 -0.114
v -0.34 8.053 1.152
v -0.321 8.059 1.145
v -0.309 8.043 1.152
v -0.318 8.026 1.164
v -0.338 8.032 1.164
usemtl Birch
s off
f 1113 1112 1111 1110 1109
f 1114 1115 1116 1117 1118
f 1109 1110 1115 1114
f 1110 1111 1116 1115
f 1111 1112 1117 1116
f 1112 1113 1118 1117
f 1113 1109 1114 1118
o Leaves.Card.37
v -0.09 7.336 0.37
v -0.903 7.336 0.264
v -1.002 4.693 1.022
v -0.188 4.693 1.128
v -0.09 7.332 0.363
v -0.901 7.332 0.257
v -1 4.691 1.015
v -0.188 4.691 1.121
usemtl LeafCard
s off
f 1122 1121 1120 1119
f 1123 1124 1125 1126
f 1119 1120 1124 1123
f 1120 1121 1125 1124
f 1121 1122 1126 1125
f 1122 1119 1123 1126
o Leaves.Card.38
v -0.059 7.512 0.528
v -0.85 7.512 0.525
v -0.853 4.589 1.371
v -0.062 4.589 1.375
v -0.059 7.51 0.521
v -0.85 7.51 0.518
v -0.853 4.584 1.364
v -0.062 4.584 1.368
usemtl LeafCard
s off
f 1130 1129 1128 1127
f 1131 1132 1133 1134
f 1127 1128 1132 1131
f 1128 1129 1133 1132
f 1129 1130 1134 1133
f 1130 1127 1131 1134
o Leaves.Card.39
v -0.009 7.69 0.62
v -0.813 7.69 0.851
v -0.584 4.804 1.654
v 0.223 4.804 1.423
v -0.01 7.687 0.615
v -0.815 7.687 0.846
v -0.585 4.802 1.647
v 0.221 4.802 1.416
usemtl LeafCard
s off
f 1138 1137 1136 1135
f 1139 1140 1141 1142
f 1135 1136 1140 1139
f 1136 1137 1141 1140
f 1137 1138 1142 1141
f 1138 1135 1139 1142
o Leaves.Card.40
v 0.022 7.867 0.734
v -0.758 7.867 1.157
v -0.485 5.882 1.663
v 0.295 5.882 1.238
v 0.019 7.863 0.729
v -0.762 7.863 1.152
v -0.489 5.88 1.656
v 0.294 5.88 1.233
usemtl LeafCard
s off
f 1146 1145 1144 1143
f 1147 1148 1149 1150
f 1143 1144 1148 1147
f 1144 1145 1149 1148
f 1145 1146 1150 1149
f 1146 1143 1147 1150
o Branch
v -0.713 7.869 -0.178
v -0.663 7.882 -0.183
v -0.639 7.85 -0.149
v -0.673 7.819 -0.121
v -0.718 7.832 -0.138
v -0.865 9.712 1.074
v -0.846 9.716 1.072
v -0.836 9.704 1.086
v -0.85 9.691 1.097
v -0.867 9.696 1.09
usemtl Birch
s off
f 1155 1154 1153 1152 1151
f 1156 1157 1158 1159 1160
f 1151 1152 1157 1156
f 1152 1153 1158 1157
f 1153 1154 1159 1158
f 1154 1155 1160 1159
f 1155 1151 1156 1160
o Leaves.Card.41
v -0.311 8.498 0.294
v -1.171 8.498 0.266
v -1.197 5.702 1.074
v -0.337 5.702 1.102
v -0.311 8.496 0.287
v -1.171 8.496 0.259
v -1.197 5.7 1.069
v -0.337 5.7 1.095
usemtl LeafCard
s off
f 1164 1163 1162 1161
f 1165 1166 1167 1168
f 1161 1162 1166 1165
f 1162 1163 1167 1166
f 1163 1164 1168 1167
f 1164 1161 1165 1168
o Leaves.Card.42
v -0.373 8.801 0.49
v -1.166 8.801 0.471
v -1.183 6.469 1.145
v -0.389 6.469 1.164
v -0.371 8.797 0.483
v -1.166 8.797 0.465
v -1.183 6.465 1.138
v -0.389 6.465 1.159
usemtl LeafCard
s off
f 1172 1171 1170 1169
f 1173 1174 1175 1176
f 1169 1170 1174 1173
f 1170 1171 1175 1174
f 1171 1172 1176 1175
f 1172 1169 1173 1176
o Leaves.Card.43
v -0.376 9.102 0.724
v -1.217 9.102 0.641
v -1.29 6.599 1.361
v -0.447 6.599 1.444
v -0.375 9.098 0.717
v -1.217 9.098 0.634
v -1.288 6.595 1.354
v -0.447 6.595 1.437
usemtl LeafCard
s off
f 1180 1179 1178 1177
f 1181 1182 1183 1184
f 1177 1178 1182 1181
f 1178 1179 1183 1182
f 1179 1180 1184 1183
f 1180 1177 1181 1184
o Leaves.Card.44
v -0.382 9.403 0.915
v -1.267 9.403 0.85
v -1.314 7.236 1.475
v -0.428 7.236 1.54
v -0.382 9.399 0.91
v -1.267 9.399 0.843
v -1.314 7.234 1.468
v -0.428 7.234 1.533
usemtl LeafCard
s off
f 1188 1187 1186 1185
f 1189 1190 1191 1192
f 1185 1186 1190 1189
f 1186 1187 1191 1190
f 1187 1188 1192 1191
f 1188 1185 1189 1192
o Branch
v -0.796 8.77 -0.204
v -0.749 8.784 -0.186
v -0.737 8.747 -0.15
v -0.775 8.707 -0.143
v -0.812 8.722 -0.176
v -1.741 10.542 1.425
v -1.723 10.548 1.432
v -1.718 10.533 1.445
v -1.734 10.517 1.449
v -1.748 10.523 1.435
usemtl Birch
s off
f 1197 1196 1195 1194 1193
f 1198 1199 1200 1201 1202
f 1193 1194 1199 1198
f 1194 1195 1200 1199
f 1195 1196 1201 1200
f 1196 1197 1202 1201
f 1197 1193 1198 1202
o Leaves.Card.45
v -0.694 9.372 0.534
v -1.525 9.372 0.249
v -1.782 6.632 0.998
v -0.951 6.632 1.283
v -0.691 9.37 0.528
v -1.523 9.37 0.242
v -1.78 6.628 0.991
v -0.95 6.628 1.278
usemtl LeafCard
s off
f 1206 1205 1204 1203
f 1207 1208 1209 1210
f 1203 1204 1208 1207
f 1204 1205 1209 1208
f 1205 1206 1210 1209
f 1206 1203 1207 1210
o Leaves.Card.46
v -0.988 9.662 0.998
v -1.542 9.662 0.307
v -1.993 7.662 0.67
v -1.44 7.662 1.359
v -0.983 9.66 0.993
v -1.537 9.66 0.304
v -1.988 7.66 0.665
v -1.435 7.66 1.356
usemtl LeafCard
s off
f 1214 1213 1212 1211
f 1215 1216 1217 1218
f 1211 1212 1216 1215
f 1212 1213 1217 1216
f 1213 1214 1218 1217
f 1214 1211 1215 1218
o Leaves.Card.47
v -1.157 9.953 1.243
v -1.685 9.953 0.584
v -2.352 6.998 1.119
v -1.823 6.998 1.779
v -1.152 9.948 1.24
v -1.68 9.948 0.58
v -2.347 6.996 1.116
v -1.818 6.996 1.773
usemtl LeafCard
s off
f 1222 1221 1220 1219
f 1223 1224 1225 1226
f 1219 1220 1224 1223
f 1220 1221 1225 1224
f 1221 1222 1226 1225
f 1222 1219 1223 1226
o Leaves.Card.48
v -1.321 10.243 1.449
v -1.832 10.243 0.901
v -2.25 8.262 1.292
v -1.741 8.262 1.839
v -1.316 10.239 1.445
v -1.827 10.239 0.896
v -2.247 8.26 1.288
v -1.735 8.26 1.836
usemtl LeafCard
s off
f 1230 1229 1228 1227
f 1231 1232 1233 1234
f 1227 1228 1232 1231
f 1228 1229 1233 1232
f 1229 1230 1234 1233
f 1230 1227 1231 1234
o Branch
v -0.774 9.491 -0.193
v -0.808 9.503 -0.159
v -0.85 9.468 -0.167
v -0.839 9.434 -0.209
v -0.793 9.447 -0.224
v -1.694 11.534 -1.592
v -1.708 11.541 -1.578
v -1.725 11.526 -1.582
v -1.72 11.511 -1.599
v -1.703 11.518 -1.606
usemtl Birch
s off
f 1239 1238 1237 1236 1235
f 1240 1241 1242 1243 1244
f 1235 1236 1241 1240
f 1236 1237 1242 1241
f 1237 1238 1243 1242
f 1238 1239 1244 1243
f 1239 1235 1240 1244
o Leaves.Card.49
v -1.471 10.189 -0.473
v -0.782 10.189 -0.889
v -1.105 8.032 -1.423
v -1.794 8.032 -1.005
v -1.468 10.187 -0.466
v -0.779 10.187 -0.884
v -1.102 8.03 -1.418
v -1.791 8.03 -1
usemtl LeafCard
s off
f 1248 1247 1246 1245
f 1249 1250 1251 1252
f 1245 1246 1250 1249
f 1246 1247 1251 1250
f 1247 1248 1252 1251
f 1248 1245 1249 1252
o Leaves.Card.50
v -1.495 10.523 -0.622
v -1.048 10.523 -1.195
v -1.513 8.492 -1.556
v -1.96 8.492 -0.984
v -1.49 10.521 -0.618
v -1.043 10.521 -1.191
v -1.507 8.488 -1.552
v -1.955 8.488 -0.979
usemtl LeafCard
s off
f 1256 1255 1254 1253
f 1257 1258 1259 1260
f 1253 1254 1258 1257
f 1254 1255 1259 1258
f 1255 1256 1260 1259
f 1256 1253 1257 1260
o Leaves.Card.51
v -1.791 10.857 -1.007
v -1.045 10.857 -1.266
v -1.305 8.124 -2.013
v -2.051 8.124 -1.753
v -1.789 10.855 -1
v -1.043 10.855 -1.259
v -1.304 8.12 -2.007
v -2.05 8.12 -1.748
usemtl LeafCard
s off
f 1264 1263 1262 1261
f 1265 1266 1267 1268
f 1261 1262 1266 1265
f 1262 1263 1267 1266
f 1263 1264 1268 1267
f 1264 1261 1265 1268
o Leaves.Card.52
v -1.922 11.192 -1.229
v -1.205 11.192 -1.499
v -1.501 8.306 -2.279
v -2.217 8.306 -2.01
v -1.92 11.19 -1.223
v -1.204 11.19 -1.492
v -1.497 8.302 -2.274
v -2.214 8.302 -2.005
usemtl LeafCard
s off
f 1272 1271 1270 1269
f 1273 1274 1275 1276
f 1269 1270 1274 1273
f 1270 1271 1275 1274
f 1271 1272 1276 1275
f 1272 1269 1273 1276
o Branch
v -0.841 10.21 -0.247
v -0.822 10.224 -0.202
v -0.841 10.184 -0.167
v -0.872 10.147 -0.19
v -0.872 10.161 -0.24
v -2.184 11.499 0.057
v -2.177 11.505 0.076
v -2.184 11.49 0.09
v -2.196 11.474 0.079
v -2.196 11.48 0.06
usemtl Birch
s off
f 1281 1280 1279 1278 1277
f 1282 1283 1284 1285 1286
f 1277 1278 1283 1282
f 1278 1279 1284 1283
f 1279 1280 1285 1284
f 1280 1281 1286 1285
f 1281 1277 1282 1286
o Leaves.Card.53
v -1.107 10.642 0.254
v -1.53 10.642 -0.477
v -2.2 7.961 -0.086
v -1.777 7.961 0.644
v -1.102 10.638 0.25
v -1.525 10.638 -0.478
v -2.195 7.959 -0.09
v -1.772 7.959 0.641
usemtl LeafCard
s off
f 1290 1289 1288 1287
f 1291 1292 1293 1294
f 1287 1288 1292 1291
f 1288 1289 1293 1292
f 1289 1290 1294 1293
f 1290 1287 1291 1294
o Leaves.Card.54
v -1.539 10.853 0.309
v -1.532 10.853 -0.44
v -2.172 8.64 -0.446
v -2.179 8.64 0.304
v -1.533 10.851 0.309
v -1.525 10.851 -0.44
v -2.165 8.638 -0.446
v -2.172 8.638 0.304
usemtl LeafCard
s off
f 1298 1297 1296 1295
f 1299 1300 1301 1302
f 1295 1296 1300 1299
f 1296 1297 1301 1300
f 1297 1298 1302 1301
f 1298 1295 1299 1302
o Leaves.Card.55
v -1.57 11.066 0.347
v -1.937 11.066 -0.385
v -2.623 8.408 -0.04
v -2.255 8.408 0.691
v -1.563 11.062 0.344
v -1.931 11.062 -0.389
v -2.618 8.406 -0.043
v -2.25 8.406 0.689
usemtl LeafCard
s off
f 1306 1305 1304 1303
f 1307 1308 1309 1310
f 1303 1304 1308 1307
f 1304 1305 1309 1308
f 1305 1306 1310 1309
f 1306 1303 1307 1310
o Leaves.Card.56
v -1.773 11.277 0.371
v -2.167 11.277 -0.318
v -2.701 9.15 -0.012
v -2.307 9.15 0.677
v -1.767 11.275 0.368
v -2.162 11.275 -0.321
v -2.696 9.148 -0.016
v -2.302 9.148 0.673
usemtl LeafCard
s off
f 1314 1313 1312 1311
f 1315 1316 1317 1318
f 1311 1312 1316 1315
f 1312 1313 1317 1316
f 1313 1314 1318 1317
f 1314 1311 1315 1318
o Branch
v -0.893 10.924 -0.188
v -0.919 10.937 -0.231
v -0.9 10.901 -0.269
v -0.863 10.866 -0.249
v -0.86 10.88 -0.2
v 0.492 12.665 -0.649
v 0.483 12.669 -0.667
v 0.49 12.654 -0.682
v 0.504 12.642 -0.673
v 0.506 12.646 -0.654
usemtl Birch
s off
f 1323 1322 1321 1320 1319
f 1324 1325 1326 1327 1328
f 1319 1320 1325 1324
f 1320 1321 1326 1325
f 1321 1322 1327 1326
f 1322 1323 1328 1327
f 1323 1319 1324 1328
o Leaves.Card.57
v -0.382 11.516 -0.775
v -0.425 11.516 0.014
v 0.399 8.663 0.057
v 0.442 8.663 -0.73
v -0.389 11.513 -0.775
v -0.43 11.513 0.014
v 0.394 8.661 0.057
v 0.435 8.661 -0.73
usemtl LeafCard
s off
f 1332 1331 1330 1329
f 1333 1334 1335 1336
f 1329 1330 1334 1333
f 1330 1331 1335 1334
f 1331 1332 1336 1335
f 1332 1329 1333 1336
o Leaves.Card.58
v -0.254 11.8 -0.855
v -0.104 11.8 -0.05
v 0.646 9.167 -0.19
v 0.494 9.167 -0.995
v -0.261 11.798 -0.853
v -0.109 11.798 -0.048
v 0.639 9.165 -0.188
v 0.489 9.165 -0.995
usemtl LeafCard
s off
f 1340 1339 1338 1337
f 1341 1342 1343 1344
f 1337 1338 1342 1341
f 1338 1339 1343 1342
f 1339 1340 1344 1343
f 1340 1337 1341 1344
o Leaves.Card.59
v 0.066 12.086 -0.92
v 0.028 12.086 -0.126
v 0.787 9.451 -0.088
v 0.827 9.451 -0.884
v 0.059 12.082 -0.92
v 0.021 12.082 -0.126
v 0.781 9.449 -0.09
v 0.82 9.449 -0.884
usemtl LeafCard
s off
f 1348 1347 1346 1345
f 1349 1350 1351 1352
f 1345 1346 1350 1349
f 1346 1347 1351 1350
f 1347 1348 1352 1351
f 1348 1345 1349 1352
o Leaves.Card.60
v 0.076 12.37 -0.989
v 0.466 12.37 -0.199
v 1.072 10.036 -0.499
v 0.68 10.036 -1.288
v 0.069 12.368 -0.986
v 0.461 12.368 -0.197
v 1.065 10.034 -0.496
v 0.675 10.034 -1.286
usemtl LeafCard
s off
f 1356 1355 1354 1353
f 1357 1358 1359 1360
f 1353 1354 1358 1357
f 1354 1355 1359 1358
f 1355 1356 1360 1359
f 1356 1353 1357 1360
o Leaves.Card.61
v -0.634 12.328 -0.478
v -0.825 12.328 0.235
v -0.1 9.733 0.428
v 0.092 9.733 -0.285
v -0.641 12.326 -0.48
v -0.832 12.326 0.233
v -0.107 9.731 0.427
v 0.085 9.731 -0.287
usemtl LeafCard
s off
f 1364 1363 1362 1361
f 1365 1366 1367 1368
f 1361 1362 1366 1365
f 1362 1363 1367 1366
f 1363 1364 1368 1367
f 1364 1361 1365 1368
o Leaves.Card.62
v -0.77 12.328 0.188
v -1.4 12.328 -0.264
v -1.882 9.474 0.406
v -1.254 9.474 0.858
v -0.767 12.326 0.183
v -1.395 12.326 -0.269
v -1.879 9.472 0.399
v -1.25 9.472 0.853
usemtl LeafCard
s off
f 1372 1371 1370 1369
f 1373 1374 1375 1376
f 1369 1370 1374 1373
f 1370 1371 1375 1374
f 1371 1372 1376 1375
f 1372 1369 1373 1376
o Leaves.Card.63
v -0.91 12.328 0.143
v -1.478 12.328 -0.487
v -1.913 10.299 -0.095
v -1.347 10.299 0.535
v -0.905 12.326 0.138
v -1.473 12.326 -0.492
v -1.91 10.295 -0.098
v -1.342 10.295 0.532
usemtl LeafCard
s off
f 1380 1379 1378 1377
f 1381 1382 1383 1384
f 1377 1378 1382 1381
f 1378 1379 1383 1382
f 1379 1380 1384 1383
f 1380 1377 1381 1384
o Leaves.Card.64
v -1.476 12.328 -0.24
v -0.787 12.328 -0.646
v -1.143 9.896 -1.252
v -1.834 9.896 -0.846
v -1.473 12.326 -0.235
v -0.784 12.326 -0.641
v -1.14 9.894 -1.247
v -1.83 9.894 -0.841
usemtl LeafCard
s off
f 1388 1387 1386 1385
f 1389 1390 1391 1392
f 1385 1386 1390 1389
f 1386 1387 1391 1390
f 1387 1388 1392 1391
f 1388 1385 1389 1392
o Leaves.Card.65
v -1.141 12.328 -0.625
v -0.39 12.328 -0.259
v -0.067 9.775 -0.922
v -0.817 9.775 -1.288
v -1.145 12.326 -0.618
v -0.394 12.326 -0.252
v -0.069 9.773 -0.917
v -0.82 9.773 -1.283
usemtl LeafCard
s off
f 1396 1395 1394 1393
f 1397 1398 1399 1400
f 1393 1394 1398 1397
f 1394 1395 1399 1398
f 1395 1396 1400 1399
f 1396 1393 1397 1400
o Grass
v -0.939 0 0.563
v -0.976 0.004 0.629
v -1.014 -0.006 0.563
v -1.003 0.541 0.544
v -1.007 0.541 0.551
v -1.01 0.539 0.544
usemtl Grass
s off
f 1403 1402 1401
f 1404 1405 1406
f 1401 1402 1405 1404
f 1402 1403 1406 1405
f 1403 1401 1404 1406
o Grass
v -0.939 -0.006 0.563
v -0.976 -0.004 0.629
v -1.014 0.01 0.565
v -0.886 0.533 0.625
v -0.889 0.533 0.632
v -0.893 0.535 0.625
usemtl Grass
s off
f 1409 1408 1407
f 1410 1411 1412
f 1407 1408 1411 1410
f 1408 1409 1412 1411
f 1409 1407 1410 1412
o Grass
v -0.939 0 0.563
v -0.976 0.008 0.627
v -1.014 -0.008 0.565
v -1.015 0.654 0.502
v -1.021 0.654 0.509
v -1.024 0.652 0.502
usemtl Grass
s off
f 1415 1414 1413
f 1416 1417 1418
f 1413 1414 1417 1416
f 1414 1415 1418 1417
f 1415 1413 1416 1418
o Grass
v -0.009 -0.008 1.644
v -0.045 -0.002 1.708
v -0.081 0.01 1.644
v 0.06 0.602 1.675
v 0.057 0.602 1.682
v 0.054 0.604 1.675
usemtl Grass
s off
f 1421 1420 1419
f 1422 1423 1424
f 1419 1420 1423 1422
f 1420 1421 1424 1423
f 1421 1419 1422 1424
o Grass
v -0.009 -0.002 1.642
v -0.045 -0.01 1.708
v -0.083 0.01 1.646
v 0.035 0.644 1.763
v 0.031 0.644 1.77
v 0.028 0.646 1.763
usemtl Grass
s off
f 1427 1426 1425
f 1428 1429 1430
f 1425 1426 1429 1428
f 1426 1427 1430 1429
f 1427 1425 1428 1430
o Grass
v -0.009 0 1.644
v -0.045 0.002 1.708
v -0.083 -0.002 1.644
v -0.045 0.606 1.644
v -0.048 0.606 1.651
v -0.052 0.606 1.644
usemtl Grass
s off
f 1433 1432 1431
f 1434 1435 1436
f 1431 1432 1435 1434
f 1432 1433 1436 1435
f 1433 1431 1434 1436
o Litter
v -0.863 0 0.782
v -0.882 0 0.661
v -0.736 0 0.61
v -0.625 0 0.699
v -0.705 0 0.805
v -0.863 0.042 0.782
v -0.882 0.042 0.661
v -0.736 0.042 0.61
v -0.625 0.042 0.699
v -0.705 0.042 0.805
usemtl LeafDry
s off
f 1441 1440 1439 1438 1437
f 1442 1443 1444 1445 1446
f 1437 1438 1443 1442
f 1438 1439 1444 1443
f 1439 1440 1445 1444
f 1440 1441 1446 1445
f 1441 1437 1442 1446
o Grass
v 0.024 -0.01 1.582
v -0.012 0.004 1.646
v -0.05 0.006 1.582
v 0.078 0.558 1.561
v 0.074 0.56 1.568
v 0.071 0.56 1.561
usemtl Grass
s off
f 1449 1448 1447
f 1450 1451 1452
f 1447 1448 1451 1450
f 1448 1449 1452 1451
f 1449 1447 1450 1452
o Grass
v 0.024 -0.013 1.583
v -0.012 0.01 1.646
v -0.05 0.002 1.582
v 0.071 0.56 1.502
v 0.067 0.562 1.507
v 0.064 0.56 1.502
usemtl Grass
s off
f 1455 1454 1453
f 1456 1457 1458
f 1453 1454 1457 1456
f 1454 1455 1458 1457
f 1455 1453 1456 1458
o Grass
v 0.024 -0.008 1.58
v -0.012 -0.006 1.646
v -0.048 0.015 1.583
v 0.092 0.483 1.656
v 0.088 0.483 1.661
v 0.085 0.485 1.656
usemtl Grass
s off
f 1461 1460 1459
f 1462 1463 1464
f 1459 1460 1463 1462
f 1460 1461 1464 1463
f 1461 1459 1462 1464
o Grass
v 1.098 -0.002 0.451
v 1.06 -0.008 0.516
v 1.024 0.01 0.454
v 1.14 0.6 0.559
v 1.136 0.6 0.565
v 1.133 0.602 0.559
usemtl Grass
s off
f 1467 1466 1465
f 1468 1469 1470
f 1465 1466 1469 1468
f 1466 1467 1470 1469
f 1467 1465 1468 1470
o Grass
v 1.098 0 0.452
v 1.06 -0.01 0.516
v 1.024 0.008 0.452
v 1.105 0.481 0.547
v 1.102 0.479 0.553
v 1.097 0.481 0.547
usemtl Grass
s off
f 1473 1472 1471
f 1474 1475 1476
f 1471 1472 1475 1474
f 1472 1473 1476 1475
f 1473 1471 1474 1476
o Grass
v 1.098 0.004 0.452
v 1.06 0.004 0.516
v 1.024 -0.008 0.452
v 1.002 0.547 0.442
v 0.998 0.547 0.449
v 0.995 0.545 0.442
usemtl Grass
s off
f 1479 1478 1477
f 1480 1481 1482
f 1477 1478 1481 1480
f 1478 1479 1482 1481
f 1479 1477 1480 1482
o Litter
v -0.477 0 1.879
v -0.582 0 1.785
v -0.496 0 1.682
v -0.338 0 1.711
v -0.326 0 1.834
v -0.477 0.042 1.879
v -0.582 0.042 1.785
v -0.496 0.042 1.682
v -0.338 0.042 1.711
v -0.326 0.042 1.834
usemtl LeafDry
s off
f 1487 1486 1485 1484 1483
f 1488 1489 1490 1491 1492
f 1483 1484 1489 1488
f 1484 1485 1490 1489
f 1485 1486 1491 1490
f 1486 1487 1492 1491
f 1487 1483 1488 1492
o Grass
v -1.131 -0.01 -1.081
v -1.167 0.002 -1.017
v -1.204 0.008 -1.083
v -1.069 0.568 -1.081
v -1.072 0.568 -1.074
v -1.076 0.568 -1.081
usemtl Grass
s off
f 1495 1494 1493
f 1496 1497 1498
f 1493 1494 1497 1496
f 1494 1495 1498 1497
f 1495 1493 1496 1498
o Grass
v -1.131 0.01 -1.081
v -1.167 -0.01 -1.019
v -1.204 0 -1.083
v -1.223 0.499 -0.979
v -1.226 0.497 -0.974
v -1.231 0.499 -0.979
usemtl Grass
s off
f 1501 1500 1499
f 1502 1503 1504
f 1499 1500 1503 1502
f 1500 1501 1504 1503
f 1501 1499 1502 1504
o Grass
v -1.131 -0.015 -1.079
v -1.167 0.013 -1.019
v -1.204 0.002 -1.083
v -1.084 0.462 -1.159
v -1.09 0.466 -1.153
v -1.093 0.464 -1.159
usemtl Grass
s off
f 1507 1506 1505
f 1508 1509 1510
f 1505 1506 1509 1508
f 1506 1507 1510 1509
f 1507 1505 1508 1510
o Grass
v -0.96 0.006 -1.11
v -0.998 -0.008 -1.046
v -1.034 0 -1.112
v -1.036 0.656 -1.015
v -1.041 0.654 -1.008
v -1.045 0.656 -1.015
usemtl Grass
s off
f 1513 1512 1511
f 1514 1515 1516
f 1511 1512 1515 1514
f 1512 1513 1516 1515
f 1513 1511 1514 1516
o Grass
v -0.96 -0.01 -1.11
v -0.998 0.006 -1.046
v -1.034 0.004 -1.112
v -0.905 0.612 -1.147
v -0.908 0.612 -1.14
v -0.912 0.612 -1.147
usemtl Grass
s off
f 1519 1518 1517
f 1520 1521 1522
f 1517 1518 1521 1520
f 1518 1519 1522 1521
f 1519 1517 1520 1522
o Grass
v -0.96 -0.004 -1.112
v -0.998 0.002 -1.046
v -1.034 0.002 -1.112
v -0.967 0.545 -1.114
v -0.972 0.545 -1.107
v -0.976 0.545 -1.114
usemtl Grass
s off
f 1525 1524 1523
f 1526 1527 1528
f 1523 1524 1527 1526
f 1524 1525 1528 1527
f 1525 1523 1526 1528
o Litter
v 1.352 0 -1.003
v 1.356 0 -0.882
v 1.202 0 -0.843
v 1.103 0 -0.939
v 1.197 0 -1.04
v 1.352 0.042 -1.003
v 1.356 0.042 -0.882
v 1.202 0.042 -0.843
v 1.103 0.042 -0.939
v 1.197 0.042 -1.04
usemtl LeafDry
s off
f 1533 1532 1531 1530 1529
f 1534 1535 1536 1537 1538
f 1529 1530 1535 1534
f 1530 1531 1536 1535
f 1531 1532 1537 1536
f 1532 1533 1538 1537
f 1533 1529 1534 1538
o Grass
v -0.024 0.008 0.817
v -0.06 -0.01 0.881
v -0.098 0.002 0.817
v -0.085 0.439 0.905
v -0.088 0.437 0.912
v -0.092 0.437 0.905
usemtl Grass
s off
f 1541 1540 1539
f 1542 1543 1544
f 1539 1540 1543 1542
f 1540 1541 1544 1543
f 1541 1539 1542 1544
o Grass
v -0.024 -0.01 0.817
v -0.06 0.002 0.881
v -0.098 0.006 0.815
v 0.045 0.654 0.806
v 0.04 0.654 0.813
v 0.036 0.656 0.806
usemtl Grass
s off
f 1547 1546 1545
f 1548 1549 1550
f 1545 1546 1549 1548
f 1546 1547 1550 1549
f 1547 1545 1548 1550
o Grass
v -0.024 -0.006 0.817
v -0.06 0.008 0.881
v -0.098 -0.004 0.817
v -0.043 0.637 0.744
v -0.048 0.637 0.751
v -0.052 0.637 0.744
usemtl Grass
s off
f 1553 1552 1551
f 1554 1555 1556
f 1551 1552 1555 1554
f 1552 1553 1556 1555
f 1553 1551 1554 1556
