# villager.obj - Dorfbewohner fuer procedurally-generated-map
# Einheiten: Meter, Y oben, Blick nach +Z - so wie Blender eine Figur exportiert,
# die in der Vorderansicht zum Betrachter schaut (Standard-Achsen beim OBJ-Export).
# Die Objektnamen steuern die Animation: Leg.L/Leg.R schwingen an der Huefte,
# Arm.L/Arm.R an der Schulter, Load waechst mit der Ladung. Material Tunic
# bekommt die Spielerfarbe, Load die Farbe der getragenen Ressource.
mtllib villager.mtl
o Leg.L
v 0.034000 0.000000 -0.102000
v 0.034000 0.000000 0.102000
v 0.187000 0.000000 0.102000
v 0.187000 0.000000 -0.102000
v 0.034000 0.799000 -0.102000
v 0.034000 0.799000 0.102000
v 0.187000 0.799000 0.102000
v 0.187000 0.799000 -0.102000
usemtl Trousers
s off
f 1 4 3 2
f 5 6 7 8
f 1 2 6 5
f 4 8 7 3
f 1 5 8 4
f 2 3 7 6
o Leg.R
v -0.187000 0.000000 -0.102000
v -0.187000 0.000000 0.102000
v -0.034000 0.000000 0.102000
v -0.034000 0.000000 -0.102000
v -0.187000 0.799000 -0.102000
v -0.187000 0.799000 0.102000
v -0.034000 0.799000 0.102000
v -0.034000 0.799000 -0.102000
usemtl Trousers
s off
f 9 12 11 10
f 13 14 15 16
f 9 10 14 13
f 12 16 15 11
f 9 13 16 12
f 10 11 15 14
o Torso
v -0.238000 0.748000 -0.136000
v -0.238000 0.748000 0.136000
v 0.238000 0.748000 0.136000
v 0.238000 0.748000 -0.136000
v -0.238000 1.360000 -0.136000
v -0.238000 1.360000 0.136000
v 0.238000 1.360000 0.136000
v 0.238000 1.360000 -0.136000
usemtl Tunic
s off
f 17 20 19 18
f 21 22 23 24
f 17 18 22 21
f 20 24 23 19
f 17 21 24 20
f 18 19 23 22
o Arm.L
v 0.238000 0.782000 -0.076500
v 0.238000 0.782000 0.076500
v 0.357000 0.782000 0.076500
v 0.357000 0.782000 -0.076500
v 0.238000 1.360000 -0.076500
v 0.238000 1.360000 0.076500
v 0.357000 1.360000 0.076500
v 0.357000 1.360000 -0.076500
usemtl Tunic
s off
f 25 28 27 26
f 29 30 31 32
f 25 26 30 29
f 28 32 31 27
f 25 29 32 28
f 26 27 31 30
o Arm.R
v -0.357000 0.782000 -0.076500
v -0.357000 0.782000 0.076500
v -0.238000 0.782000 0.076500
v -0.238000 0.782000 -0.076500
v -0.357000 1.360000 -0.076500
v -0.357000 1.360000 0.076500
v -0.238000 1.360000 0.076500
v -0.238000 1.360000 -0.076500
usemtl Tunic
s off
f 33 36 35 34
f 37 38 39 40
f 33 34 38 37
f 36 40 39 35
f 33 37 40 36
f 34 35 39 38
o Head
v -0.127500 1.394000 -0.127500
v -0.127500 1.394000 0.127500
v 0.127500 1.394000 0.127500
v 0.127500 1.394000 -0.127500
v -0.127500 1.700000 -0.127500
v -0.127500 1.700000 0.127500
v 0.127500 1.700000 0.127500
v 0.127500 1.700000 -0.127500
usemtl Skin
s off
f 41 44 43 42
f 45 46 47 48
f 41 42 46 45
f 44 48 47 43
f 41 45 48 44
f 42 43 47 46
o Load
v -0.187000 0.850000 -0.374000
v -0.187000 0.850000 -0.153000
v 0.187000 0.850000 -0.153000
v 0.187000 0.850000 -0.374000
v -0.187000 1.326000 -0.374000
v -0.187000 1.326000 -0.153000
v 0.187000 1.326000 -0.153000
v 0.187000 1.326000 -0.374000
usemtl Load
s off
f 49 52 51 50
f 53 54 55 56
f 49 50 54 53
f 52 56 55 51
f 49 53 56 52
f 50 51 55 54
