# villager_male.obj - Dorfbewohner fuer procedurally-generated-map
# Erzeugt aus Quadern und Pyramidenstuempfen. Einheiten: Meter, Y oben, Blick
# nach +Z - so wie Blender eine Figur exportiert (Standard-Achsen beim OBJ-Export).
# Die Objektnamen steuern die Animation: Leg.L/Leg.R schwingen an der Huefte,
# Leg.*.Lower (Unterschenkel) knickt zusaetzlich am Knie; Arm.L/Arm.R schwingen
# an der Schulter, Arm.*.Lower (Unterarm, Hand, Beil) am Ellbogen. Head (samt
# Haaren) dreht sich, Load waechst mit der Ladung. Material Tunic
# (Hose) bekommt die Spielerfarbe, Load die Farbe der Ressource.
mtllib villager.mtl
o Leg.L.Lower.Sole
v 0.072400 0.000000 -0.085000
v 0.048000 0.000000 -0.034400
v 0.048000 0.000000 0.117400
v 0.072400 0.000000 0.168000
v 0.145600 0.000000 0.168000
v 0.170000 0.000000 0.117400
v 0.170000 0.000000 -0.034400
v 0.145600 0.000000 -0.085000
v 0.072400 0.030000 -0.085000
v 0.048000 0.030000 -0.034400
v 0.048000 0.030000 0.117400
v 0.072400 0.030000 0.168000
v 0.145600 0.030000 0.168000
v 0.170000 0.030000 0.117400
v 0.170000 0.030000 -0.034400
v 0.145600 0.030000 -0.085000
usemtl BootsDark
s off
f 8 7 6 5 4 3 2 1
f 9 10 11 12 13 14 15 16
f 1 2 10 9
f 2 3 11 10
f 3 4 12 11
f 4 5 13 12
f 5 6 14 13
f 6 7 15 14
f 7 8 16 15
f 8 1 9 16
o Leg.R.Lower.Sole
v -0.145600 0.000000 -0.085000
v -0.170000 0.000000 -0.034400
v -0.170000 0.000000 0.117400
v -0.145600 0.000000 0.168000
v -0.072400 0.000000 0.168000
v -0.048000 0.000000 0.117400
v -0.048000 0.000000 -0.034400
v -0.072400 0.000000 -0.085000
v -0.145600 0.030000 -0.085000
v -0.170000 0.030000 -0.034400
v -0.170000 0.030000 0.117400
v -0.145600 0.030000 0.168000
v -0.072400 0.030000 0.168000
v -0.048000 0.030000 0.117400
v -0.048000 0.030000 -0.034400
v -0.072400 0.030000 -0.085000
usemtl BootsDark
s off
f 24 23 22 21 20 19 18 17
f 25 26 27 28 29 30 31 32
f 17 18 26 25
f 18 19 27 26
f 19 20 28 27
f 20 21 29 28
f 21 22 30 29
f 22 23 31 30
f 23 24 32 31
f 24 17 25 32
o Leg.L.Lower.Boot
v 0.074800 0.030000 -0.080000
v 0.052000 0.030000 -0.031600
v 0.052000 0.030000 0.113600
v 0.074800 0.030000 0.162000
v 0.143200 0.030000 0.162000
v 0.166000 0.030000 0.113600
v 0.166000 0.030000 -0.031600
v 0.143200 0.030000 -0.080000
v 0.074800 0.120000 -0.075000
v 0.052000 0.120000 -0.046000
v 0.052000 0.120000 0.041000
v 0.074800 0.120000 0.070000
v 0.143200 0.120000 0.070000
v 0.166000 0.120000 0.041000
v 0.166000 0.120000 -0.046000
v 0.143200 0.120000 -0.075000
usemtl Boots
s off
f 40 39 38 37 36 35 34 33
f 41 42 43 44 45 46 47 48
f 33 34 42 41
f 34 35 43 42
f 35 36 44 43
f 36 37 45 44
f 37 38 46 45
f 38 39 47 46
f 39 40 48 47
f 40 33 41 48
o Leg.R.Lower.Boot
v -0.143200 0.030000 -0.080000
v -0.166000 0.030000 -0.031600
v -0.166000 0.030000 0.113600
v -0.143200 0.030000 0.162000
v -0.074800 0.030000 0.162000
v -0.052000 0.030000 0.113600
v -0.052000 0.030000 -0.031600
v -0.074800 0.030000 -0.080000
v -0.143200 0.120000 -0.075000
v -0.166000 0.120000 -0.046000
v -0.166000 0.120000 0.041000
v -0.143200 0.120000 0.070000
v -0.074800 0.120000 0.070000
v -0.052000 0.120000 0.041000
v -0.052000 0.120000 -0.046000
v -0.074800 0.120000 -0.075000
usemtl Boots
s off
f 56 55 54 53 52 51 50 49
f 57 58 59 60 61 62 63 64
f 49 50 58 57
f 50 51 59 58
f 51 52 60 59
f 52 53 61 60
f 53 54 62 61
f 54 55 63 62
f 55 56 64 63
f 56 49 57 64
o Leg.L.Lower.Toe
v 0.088600 0.030000 0.100000
v 0.058000 0.030000 0.121000
v 0.058000 0.030000 0.149000
v 0.088600 0.030000 0.170000
v 0.129400 0.030000 0.170000
v 0.160000 0.030000 0.149000
v 0.160000 0.030000 0.121000
v 0.129400 0.030000 0.100000
v 0.088600 0.085000 0.100000
v 0.058000 0.085000 0.115000
v 0.058000 0.085000 0.135000
v 0.088600 0.085000 0.150000
v 0.129400 0.085000 0.150000
v 0.160000 0.085000 0.135000
v 0.160000 0.085000 0.115000
v 0.129400 0.085000 0.100000
usemtl Boots
s off
f 72 71 70 69 68 67 66 65
f 73 74 75 76 77 78 79 80
f 65 66 74 73
f 66 67 75 74
f 67 68 76 75
f 68 69 77 76
f 69 70 78 77
f 70 71 79 78
f 71 72 80 79
f 72 65 73 80
o Leg.R.Lower.Toe
v -0.129400 0.030000 0.100000
v -0.160000 0.030000 0.121000
v -0.160000 0.030000 0.149000
v -0.129400 0.030000 0.170000
v -0.088600 0.030000 0.170000
v -0.058000 0.030000 0.149000
v -0.058000 0.030000 0.121000
v -0.088600 0.030000 0.100000
v -0.129400 0.085000 0.100000
v -0.160000 0.085000 0.115000
v -0.160000 0.085000 0.135000
v -0.129400 0.085000 0.150000
v -0.088600 0.085000 0.150000
v -0.058000 0.085000 0.135000
v -0.058000 0.085000 0.115000
v -0.088600 0.085000 0.100000
usemtl Boots
s off
f 88 87 86 85 84 83 82 81
f 89 90 91 92 93 94 95 96
f 81 82 90 89
f 82 83 91 90
f 83 84 92 91
f 84 85 93 92
f 85 86 94 93
f 86 87 95 94
f 87 88 96 95
f 88 81 89 96
o Leg.L.Lower.Shaft
v 0.082500 0.120000 -0.072000
v 0.056000 0.120000 -0.036000
v 0.056000 0.120000 0.036000
v 0.082500 0.120000 0.072000
v 0.135500 0.120000 0.072000
v 0.162000 0.120000 0.036000
v 0.162000 0.120000 -0.036000
v 0.135500 0.120000 -0.072000
v 0.082500 0.330000 -0.072000
v 0.056000 0.330000 -0.036000
v 0.056000 0.330000 0.036000
v 0.082500 0.330000 0.072000
v 0.135500 0.330000 0.072000
v 0.162000 0.330000 0.036000
v 0.162000 0.330000 -0.036000
v 0.135500 0.330000 -0.072000
usemtl Boots
s off
f 104 103 102 101 100 99 98 97
f 105 106 107 108 109 110 111 112
f 97 98 106 105
f 98 99 107 106
f 99 100 108 107
f 100 101 109 108
f 101 102 110 109
f 102 103 111 110
f 103 104 112 111
f 104 97 105 112
o Leg.R.Lower.Shaft
v -0.135500 0.120000 -0.072000
v -0.162000 0.120000 -0.036000
v -0.162000 0.120000 0.036000
v -0.135500 0.120000 0.072000
v -0.082500 0.120000 0.072000
v -0.056000 0.120000 0.036000
v -0.056000 0.120000 -0.036000
v -0.082500 0.120000 -0.072000
v -0.135500 0.330000 -0.072000
v -0.162000 0.330000 -0.036000
v -0.162000 0.330000 0.036000
v -0.135500 0.330000 0.072000
v -0.082500 0.330000 0.072000
v -0.056000 0.330000 0.036000
v -0.056000 0.330000 -0.036000
v -0.082500 0.330000 -0.072000
usemtl Boots
s off
f 120 119 118 117 116 115 114 113
f 121 122 123 124 125 126 127 128
f 113 114 122 121
f 114 115 123 122
f 115 116 124 123
f 116 117 125 124
f 117 118 126 125
f 118 119 127 126
f 119 120 128 127
f 120 113 121 128
o Leg.L.Lower.Lace
v 0.085000 0.150000 0.070000
v 0.085000 0.150000 0.078000
v 0.135000 0.150000 0.078000
v 0.135000 0.150000 0.070000
v 0.085000 0.162000 0.070000
v 0.085000 0.162000 0.078000
v 0.135000 0.162000 0.078000
v 0.135000 0.162000 0.070000
usemtl Leather
s off
f 132 131 130 129
f 133 134 135 136
f 129 130 134 133
f 130 131 135 134
f 131 132 136 135
f 132 129 133 136
o Leg.R.Lower.Lace
v -0.135000 0.150000 0.070000
v -0.135000 0.150000 0.078000
v -0.085000 0.150000 0.078000
v -0.085000 0.150000 0.070000
v -0.135000 0.162000 0.070000
v -0.135000 0.162000 0.078000
v -0.085000 0.162000 0.078000
v -0.085000 0.162000 0.070000
usemtl Leather
s off
f 140 139 138 137
f 141 142 143 144
f 137 138 142 141
f 138 139 143 142
f 139 140 144 143
f 140 137 141 144
o Leg.L.Lower.Lace
v 0.085000 0.200000 0.070000
v 0.085000 0.200000 0.078000
v 0.135000 0.200000 0.078000
v 0.135000 0.200000 0.070000
v 0.085000 0.212000 0.070000
v 0.085000 0.212000 0.078000
v 0.135000 0.212000 0.078000
v 0.135000 0.212000 0.070000
usemtl Leather
s off
f 148 147 146 145
f 149 150 151 152
f 145 146 150 149
f 146 147 151 150
f 147 148 152 151
f 148 145 149 152
o Leg.R.Lower.Lace
v -0.135000 0.200000 0.070000
v -0.135000 0.200000 0.078000
v -0.085000 0.200000 0.078000
v -0.085000 0.200000 0.070000
v -0.135000 0.212000 0.070000
v -0.135000 0.212000 0.078000
v -0.085000 0.212000 0.078000
v -0.085000 0.212000 0.070000
usemtl Leather
s off
f 156 155 154 153
f 157 158 159 160
f 153 154 158 157
f 154 155 159 158
f 155 156 160 159
f 156 153 157 160
o Leg.L.Lower.Lace
v 0.085000 0.250000 0.070000
v 0.085000 0.250000 0.078000
v 0.135000 0.250000 0.078000
v 0.135000 0.250000 0.070000
v 0.085000 0.262000 0.070000
v 0.085000 0.262000 0.078000
v 0.135000 0.262000 0.078000
v 0.135000 0.262000 0.070000
usemtl Leather
s off
f 164 163 162 161
f 165 166 167 168
f 161 162 166 165
f 162 163 167 166
f 163 164 168 167
f 164 161 165 168
o Leg.R.Lower.Lace
v -0.135000 0.250000 0.070000
v -0.135000 0.250000 0.078000
v -0.085000 0.250000 0.078000
v -0.085000 0.250000 0.070000
v -0.135000 0.262000 0.070000
v -0.135000 0.262000 0.078000
v -0.085000 0.262000 0.078000
v -0.085000 0.262000 0.070000
usemtl Leather
s off
f 172 171 170 169
f 173 174 175 176
f 169 170 174 173
f 170 171 175 174
f 171 172 176 175
f 172 169 173 176
o Leg.L.Lower.Cuff
v 0.077000 0.300000 -0.082000
v 0.045000 0.300000 -0.041000
v 0.045000 0.300000 0.041000
v 0.077000 0.300000 0.082000
v 0.141000 0.300000 0.082000
v 0.173000 0.300000 0.041000
v 0.173000 0.300000 -0.041000
v 0.141000 0.300000 -0.082000
v 0.075500 0.370000 -0.086000
v 0.042000 0.370000 -0.043000
v 0.042000 0.370000 0.043000
v 0.075500 0.370000 0.086000
v 0.142500 0.370000 0.086000
v 0.176000 0.370000 0.043000
v 0.176000 0.370000 -0.043000
v 0.142500 0.370000 -0.086000
usemtl BootsLight
s off
f 184 183 182 181 180 179 178 177
f 185 186 187 188 189 190 191 192
f 177 178 186 185
f 178 179 187 186
f 179 180 188 187
f 180 181 189 188
f 181 182 190 189
f 182 183 191 190
f 183 184 192 191
f 184 177 185 192
o Leg.R.Lower.Cuff
v -0.141000 0.300000 -0.082000
v -0.173000 0.300000 -0.041000
v -0.173000 0.300000 0.041000
v -0.141000 0.300000 0.082000
v -0.077000 0.300000 0.082000
v -0.045000 0.300000 0.041000
v -0.045000 0.300000 -0.041000
v -0.077000 0.300000 -0.082000
v -0.142500 0.370000 -0.086000
v -0.176000 0.370000 -0.043000
v -0.176000 0.370000 0.043000
v -0.142500 0.370000 0.086000
v -0.075500 0.370000 0.086000
v -0.042000 0.370000 0.043000
v -0.042000 0.370000 -0.043000
v -0.075500 0.370000 -0.086000
usemtl BootsLight
s off
f 200 199 198 197 196 195 194 193
f 201 202 203 204 205 206 207 208
f 193 194 202 201
f 194 195 203 202
f 195 196 204 203
f 196 197 205 204
f 197 198 206 205
f 198 199 207 206
f 199 200 208 207
f 200 193 201 208
o Leg.L.Lower.Shin
v 0.080500 0.340000 -0.074000
v 0.052000 0.340000 -0.037000
v 0.052000 0.340000 0.037000
v 0.080500 0.340000 0.074000
v 0.137500 0.340000 0.074000
v 0.166000 0.340000 0.037000
v 0.166000 0.340000 -0.037000
v 0.137500 0.340000 -0.074000
v 0.077750 0.500000 -0.080000
v 0.047000 0.500000 -0.040000
v 0.047000 0.500000 0.040000
v 0.077750 0.500000 0.080000
v 0.139250 0.500000 0.080000
v 0.170000 0.500000 0.040000
v 0.170000 0.500000 -0.040000
v 0.139250 0.500000 -0.080000
usemtl Tunic
s off
f 216 215 214 213 212 211 210 209
f 217 218 219 220 221 222 223 224
f 209 210 218 217
f 210 211 219 218
f 211 212 220 219
f 212 213 221 220
f 213 214 222 221
f 214 215 223 222
f 215 216 224 223
f 216 209 217 224
o Leg.R.Lower.Shin
v -0.137500 0.340000 -0.074000
v -0.166000 0.340000 -0.037000
v -0.166000 0.340000 0.037000
v -0.137500 0.340000 0.074000
v -0.080500 0.340000 0.074000
v -0.052000 0.340000 0.037000
v -0.052000 0.340000 -0.037000
v -0.080500 0.340000 -0.074000
v -0.139250 0.500000 -0.080000
v -0.170000 0.500000 -0.040000
v -0.170000 0.500000 0.040000
v -0.139250 0.500000 0.080000
v -0.077750 0.500000 0.080000
v -0.047000 0.500000 0.040000
v -0.047000 0.500000 -0.040000
v -0.077750 0.500000 -0.080000
usemtl Tunic
s off
f 232 231 230 229 228 227 226 225
f 233 234 235 236 237 238 239 240
f 225 226 234 233
f 226 227 235 234
f 227 228 236 235
f 228 229 237 236
f 229 230 238 237
f 230 231 239 238
f 231 232 240 239
f 232 225 233 240
o Leg.L.Lower.Patch
v 0.075000 0.410000 0.074000
v 0.075000 0.410000 0.084000
v 0.145000 0.410000 0.084000
v 0.145000 0.410000 0.074000
v 0.075000 0.480000 0.074000
v 0.075000 0.480000 0.084000
v 0.145000 0.480000 0.084000
v 0.145000 0.480000 0.074000
usemtl Patch
s off
f 244 243 242 241
f 245 246 247 248
f 241 242 246 245
f 242 243 247 246
f 243 244 248 247
f 244 241 245 248
o Leg.L
v 0.078500 0.450000 -0.082000
v 0.048000 0.450000 -0.041000
v 0.048000 0.450000 0.041000
v 0.078500 0.450000 0.082000
v 0.139500 0.450000 0.082000
v 0.170000 0.450000 0.041000
v 0.170000 0.450000 -0.041000
v 0.139500 0.450000 -0.082000
v 0.059000 0.820000 -0.105000
v 0.012000 0.820000 -0.052500
v 0.012000 0.820000 0.052500
v 0.059000 0.820000 0.105000
v 0.153000 0.820000 0.105000
v 0.200000 0.820000 0.052500
v 0.200000 0.820000 -0.052500
v 0.153000 0.820000 -0.105000
usemtl Tunic
s off
f 256 255 254 253 252 251 250 249
f 257 258 259 260 261 262 263 264
f 249 250 258 257
f 250 251 259 258
f 251 252 260 259
f 252 253 261 260
f 253 254 262 261
f 254 255 263 262
f 255 256 264 263
f 256 249 257 264
o Leg.R
v -0.139500 0.450000 -0.082000
v -0.170000 0.450000 -0.041000
v -0.170000 0.450000 0.041000
v -0.139500 0.450000 0.082000
v -0.078500 0.450000 0.082000
v -0.048000 0.450000 0.041000
v -0.048000 0.450000 -0.041000
v -0.078500 0.450000 -0.082000
v -0.153000 0.820000 -0.105000
v -0.200000 0.820000 -0.052500
v -0.200000 0.820000 0.052500
v -0.153000 0.820000 0.105000
v -0.059000 0.820000 0.105000
v -0.012000 0.820000 0.052500
v -0.012000 0.820000 -0.052500
v -0.059000 0.820000 -0.105000
usemtl Tunic
s off
f 272 271 270 269 268 267 266 265
f 273 274 275 276 277 278 279 280
f 265 266 274 273
f 266 267 275 274
f 267 268 276 275
f 268 269 277 276
f 269 270 278 277
f 270 271 279 278
f 271 272 280 279
f 272 265 273 280
o Leg.L.Fold
v 0.070000 0.600000 0.080000
v 0.070000 0.600000 0.095000
v 0.150000 0.600000 0.095000
v 0.150000 0.600000 0.080000
v 0.070000 0.640000 0.085000
v 0.070000 0.640000 0.100000
v 0.150000 0.640000 0.100000
v 0.150000 0.640000 0.085000
usemtl Tunic
s off
f 284 283 282 281
f 285 286 287 288
f 281 282 286 285
f 282 283 287 286
f 283 284 288 287
f 284 281 285 288
o Leg.R.Fold
v -0.150000 0.600000 0.080000
v -0.150000 0.600000 0.095000
v -0.070000 0.600000 0.095000
v -0.070000 0.600000 0.080000
v -0.150000 0.640000 0.085000
v -0.150000 0.640000 0.100000
v -0.070000 0.640000 0.100000
v -0.070000 0.640000 0.085000
usemtl Tunic
s off
f 292 291 290 289
f 293 294 295 296
f 289 290 294 293
f 290 291 295 294
f 291 292 296 295
f 292 289 293 296
o Hips
v -0.117000 0.720000 -0.110000
v -0.195000 0.720000 -0.066000
v -0.195000 0.720000 0.066000
v -0.117000 0.720000 0.110000
v 0.117000 0.720000 0.110000
v 0.195000 0.720000 0.066000
v 0.195000 0.720000 -0.066000
v 0.117000 0.720000 -0.110000
v -0.120000 0.920000 -0.112000
v -0.200000 0.920000 -0.067200
v -0.200000 0.920000 0.067200
v -0.120000 0.920000 0.112000
v 0.120000 0.920000 0.112000
v 0.200000 0.920000 0.067200
v 0.200000 0.920000 -0.067200
v 0.120000 0.920000 -0.112000
usemtl Tunic
s off
f 304 303 302 301 300 299 298 297
f 305 306 307 308 309 310 311 312
f 297 298 306 305
f 298 299 307 306
f 299 300 308 307
f 300 301 309 308
f 301 302 310 309
f 302 303 311 310
f 303 304 312 311
f 304 297 305 312
o Belt
v -0.123600 0.880000 -0.119000
v -0.206000 0.880000 -0.071400
v -0.206000 0.880000 0.071400
v -0.123600 0.880000 0.119000
v 0.123600 0.880000 0.119000
v 0.206000 0.880000 0.071400
v 0.206000 0.880000 -0.071400
v 0.123600 0.880000 -0.119000
v -0.123600 0.945000 -0.119000
v -0.206000 0.945000 -0.071400
v -0.206000 0.945000 0.071400
v -0.123600 0.945000 0.119000
v 0.123600 0.945000 0.119000
v 0.206000 0.945000 0.071400
v 0.206000 0.945000 -0.071400
v 0.123600 0.945000 -0.119000
usemtl Leather
s off
f 320 319 318 317 316 315 314 313
f 321 322 323 324 325 326 327 328
f 313 314 322 321
f 314 315 323 322
f 315 316 324 323
f 316 317 325 324
f 317 318 326 325
f 318 319 327 326
f 319 320 328 327
f 320 313 321 328
o Belt.Buckle
v -0.035000 0.884000 0.114000
v -0.035000 0.884000 0.130000
v 0.035000 0.884000 0.130000
v 0.035000 0.884000 0.114000
v -0.035000 0.941000 0.114000
v -0.035000 0.941000 0.130000
v 0.035000 0.941000 0.130000
v 0.035000 0.941000 0.114000
usemtl Brass
s off
f 332 331 330 329
f 333 334 335 336
f 329 330 334 333
f 330 331 335 334
f 331 332 336 335
f 332 329 333 336
o Belt.Tongue
v -0.012000 0.900000 0.128000
v -0.012000 0.900000 0.134000
v 0.012000 0.900000 0.134000
v 0.012000 0.900000 0.128000
v -0.012000 0.925000 0.128000
v -0.012000 0.925000 0.134000
v 0.012000 0.925000 0.134000
v 0.012000 0.925000 0.128000
usemtl Leather
s off
f 340 339 338 337
f 341 342 343 344
f 337 338 342 341
f 338 339 343 342
f 339 340 344 343
f 340 337 341 344
o Belt.Pouch
v -0.182000 0.770000 0.070000
v -0.200000 0.770000 0.086400
v -0.200000 0.770000 0.135600
v -0.182000 0.770000 0.152000
v -0.128000 0.770000 0.152000
v -0.110000 0.770000 0.135600
v -0.110000 0.770000 0.086400
v -0.128000 0.770000 0.070000
v -0.182000 0.910000 0.080000
v -0.200000 0.910000 0.092000
v -0.200000 0.910000 0.128000
v -0.182000 0.910000 0.140000
v -0.128000 0.910000 0.140000
v -0.110000 0.910000 0.128000
v -0.110000 0.910000 0.092000
v -0.128000 0.910000 0.080000
usemtl LeatherLight
s off
f 352 351 350 349 348 347 346 345
f 353 354 355 356 357 358 359 360
f 345 346 354 353
f 346 347 355 354
f 347 348 356 355
f 348 349 357 356
f 349 350 358 357
f 350 351 359 358
f 351 352 360 359
f 352 345 353 360
o Belt.Pouch.Flap
v -0.188600 0.855000 0.068000
v -0.203000 0.855000 0.081050
v -0.203000 0.855000 0.141950
v -0.188600 0.855000 0.155000
v -0.121400 0.855000 0.155000
v -0.107000 0.855000 0.141950
v -0.107000 0.855000 0.081050
v -0.121400 0.855000 0.068000
v -0.188600 0.910000 0.068000
v -0.203000 0.910000 0.081050
v -0.203000 0.910000 0.141950
v -0.188600 0.910000 0.155000
v -0.121400 0.910000 0.155000
v -0.107000 0.910000 0.141950
v -0.107000 0.910000 0.081050
v -0.121400 0.910000 0.068000
usemtl Leather
s off
f 368 367 366 365 364 363 362 361
f 369 370 371 372 373 374 375 376
f 361 362 370 369
f 362 363 371 370
f 363 364 372 371
f 364 365 373 372
f 365 366 374 373
f 366 367 375 374
f 367 368 376 375
f 368 361 369 376
o Belt.Knife
v 0.170000 0.720000 -0.020000
v 0.170000 0.720000 0.050000
v 0.200000 0.720000 0.050000
v 0.200000 0.720000 -0.020000
v 0.170000 0.920000 -0.020000
v 0.170000 0.920000 0.050000
v 0.205000 0.920000 0.050000
v 0.205000 0.920000 -0.020000
usemtl Leather
s off
f 380 379 378 377
f 381 382 383 384
f 377 378 382 381
f 378 379 383 382
f 379 380 384 383
f 380 377 381 384
o Belt.Knife.Hilt
v 0.181000 0.920000 -0.004000
v 0.176000 0.920000 0.005500
v 0.176000 0.920000 0.024500
v 0.181000 0.920000 0.034000
v 0.191000 0.920000 0.034000
v 0.196000 0.920000 0.024500
v 0.196000 0.920000 0.005500
v 0.191000 0.920000 -0.004000
v 0.181000 0.980000 -0.004000
v 0.176000 0.980000 0.005500
v 0.176000 0.980000 0.024500
v 0.181000 0.980000 0.034000
v 0.191000 0.980000 0.034000
v 0.196000 0.980000 0.024500
v 0.196000 0.980000 0.005500
v 0.191000 0.980000 -0.004000
usemtl Wood
s off
f 392 391 390 389 388 387 386 385
f 393 394 395 396 397 398 399 400
f 385 386 394 393
f 386 387 395 394
f 387 388 396 395
f 388 389 397 396
f 389 390 398 397
f 390 391 399 398
f 391 392 400 399
f 392 385 393 400
o Belly
v -0.092500 0.920000 -0.105000
v -0.185000 0.920000 -0.052500
v -0.185000 0.920000 0.052500
v -0.092500 0.920000 0.105000
v 0.092500 0.920000 0.105000
v 0.185000 0.920000 0.052500
v 0.185000 0.920000 -0.052500
v 0.092500 0.920000 -0.105000
v -0.100000 1.120000 -0.110000
v -0.200000 1.120000 -0.055000
v -0.200000 1.120000 0.055000
v -0.100000 1.120000 0.110000
v 0.100000 1.120000 0.110000
v 0.200000 1.120000 0.055000
v 0.200000 1.120000 -0.055000
v 0.100000 1.120000 -0.110000
usemtl Skin
s off
f 408 407 406 405 404 403 402 401
f 409 410 411 412 413 414 415 416
f 401 402 410 409
f 402 403 411 410
f 403 404 412 411
f 404 405 413 412
f 405 406 414 413
f 406 407 415 414
f 407 408 416 415
f 408 401 409 416
o Abs
v -0.045000 0.950000 0.095000
v -0.075000 0.950000 0.098600
v -0.075000 0.950000 0.109400
v -0.045000 0.950000 0.113000
v 0.045000 0.950000 0.113000
v 0.075000 0.950000 0.109400
v 0.075000 0.950000 0.098600
v 0.045000 0.950000 0.095000
v -0.051000 1.120000 0.095000
v -0.085000 1.120000 0.098600
v -0.085000 1.120000 0.109400
v -0.051000 1.120000 0.113000
v 0.051000 1.120000 0.113000
v 0.085000 1.120000 0.109400
v 0.085000 1.120000 0.098600
v 0.051000 1.120000 0.095000
usemtl Skin
s off
f 424 423 422 421 420 419 418 417
f 425 426 427 428 429 430 431 432
f 417 418 426 425
f 418 419 427 426
f 419 420 428 427
f 420 421 429 428
f 421 422 430 429
f 422 423 431 430
f 423 424 432 431
f 424 417 425 432
o Abs.Line
v -0.005000 0.950000 0.112000
v -0.005000 0.950000 0.115000
v 0.005000 0.950000 0.115000
v 0.005000 0.950000 0.112000
v -0.005000 1.120000 0.112000
v -0.005000 1.120000 0.115000
v 0.005000 1.120000 0.115000
v 0.005000 1.120000 0.112000
usemtl SkinShade
s off
f 436 435 434 433
f 437 438 439 440
f 433 434 438 437
f 434 435 439 438
f 435 436 440 439
f 436 433 437 440
o Abs.Row
v -0.070000 0.990000 0.111000
v -0.070000 0.990000 0.114000
v 0.070000 0.990000 0.114000
v 0.070000 0.990000 0.111000
v -0.070000 0.998000 0.111000
v -0.070000 0.998000 0.114000
v 0.070000 0.998000 0.114000
v 0.070000 0.998000 0.111000
usemtl SkinShade
s off
f 444 443 442 441
f 445 446 447 448
f 441 442 446 445
f 442 443 447 446
f 443 444 448 447
f 444 441 445 448
o Abs.Row
v -0.070000 1.050000 0.111000
v -0.070000 1.050000 0.114000
v 0.070000 1.050000 0.114000
v 0.070000 1.050000 0.111000
v -0.070000 1.058000 0.111000
v -0.070000 1.058000 0.114000
v 0.070000 1.058000 0.114000
v 0.070000 1.058000 0.111000
usemtl SkinShade
s off
f 452 451 450 449
f 453 454 455 456
f 449 450 454 453
f 450 451 455 454
f 451 452 456 455
f 452 449 453 456
o Navel
v -0.010000 0.955000 0.111000
v -0.010000 0.955000 0.115000
v 0.010000 0.955000 0.115000
v 0.010000 0.955000 0.111000
v -0.010000 0.970000 0.111000
v -0.010000 0.970000 0.115000
v 0.010000 0.970000 0.115000
v 0.010000 0.970000 0.111000
usemtl SkinShade
s off
f 460 459 458 457
f 461 462 463 464
f 457 458 462 461
f 458 459 463 462
f 459 460 464 463
f 460 457 461 464
o Chest
v -0.120000 1.120000 -0.110000
v -0.200000 1.120000 -0.066000
v -0.200000 1.120000 0.066000
v -0.120000 1.120000 0.110000
v 0.120000 1.120000 0.110000
v 0.200000 1.120000 0.066000
v 0.200000 1.120000 -0.066000
v 0.120000 1.120000 -0.110000
v -0.150000 1.400000 -0.120000
v -0.250000 1.400000 -0.072000
v -0.250000 1.400000 0.072000
v -0.150000 1.400000 0.120000
v 0.150000 1.400000 0.120000
v 0.250000 1.400000 0.072000
v 0.250000 1.400000 -0.072000
v 0.150000 1.400000 -0.120000
usemtl Skin
s off
f 472 471 470 469 468 467 466 465
f 473 474 475 476 477 478 479 480
f 465 466 474 473
f 466 467 475 474
f 467 468 476 475
f 468 469 477 476
f 469 470 478 477
f 470 471 479 478
f 471 472 480 479
f 472 465 473 480
o Chest.Pec.L
v 0.041400 1.190000 0.100000
v 0.008000 1.190000 0.108400
v 0.008000 1.190000 0.133600
v 0.041400 1.190000 0.142000
v 0.141600 1.190000 0.142000
v 0.175000 1.190000 0.133600
v 0.175000 1.190000 0.108400
v 0.141600 1.190000 0.100000
v 0.041400 1.330000 0.100000
v 0.008000 1.330000 0.106000
v 0.008000 1.330000 0.124000
v 0.041400 1.330000 0.130000
v 0.141600 1.330000 0.130000
v 0.175000 1.330000 0.124000
v 0.175000 1.330000 0.106000
v 0.141600 1.330000 0.100000
usemtl Skin
s off
f 488 487 486 485 484 483 482 481
f 489 490 491 492 493 494 495 496
f 481 482 490 489
f 482 483 491 490
f 483 484 492 491
f 484 485 493 492
f 485 486 494 493
f 486 487 495 494
f 487 488 496 495
f 488 481 489 496
o Chest.Pec.R
v -0.141600 1.190000 0.100000
v -0.175000 1.190000 0.108400
v -0.175000 1.190000 0.133600
v -0.141600 1.190000 0.142000
v -0.041400 1.190000 0.142000
v -0.008000 1.190000 0.133600
v -0.008000 1.190000 0.108400
v -0.041400 1.190000 0.100000
v -0.141600 1.330000 0.100000
v -0.175000 1.330000 0.106000
v -0.175000 1.330000 0.124000
v -0.141600 1.330000 0.130000
v -0.041400 1.330000 0.130000
v -0.008000 1.330000 0.124000
v -0.008000 1.330000 0.106000
v -0.041400 1.330000 0.100000
usemtl Skin
s off
f 504 503 502 501 500 499 498 497
f 505 506 507 508 509 510 511 512
f 497 498 506 505
f 498 499 507 506
f 499 500 508 507
f 500 501 509 508
f 501 502 510 509
f 502 503 511 510
f 503 504 512 511
f 504 497 505 512
o Chest.Nipple.L
v 0.085000 1.220000 0.138000
v 0.085000 1.220000 0.144000
v 0.105000 1.220000 0.144000
v 0.105000 1.220000 0.138000
v 0.085000 1.238000 0.138000
v 0.085000 1.238000 0.144000
v 0.105000 1.238000 0.144000
v 0.105000 1.238000 0.138000
usemtl SkinShade
s off
f 516 515 514 513
f 517 518 519 520
f 513 514 518 517
f 514 515 519 518
f 515 516 520 519
f 516 513 517 520
o Chest.Nipple.R
v -0.105000 1.220000 0.138000
v -0.105000 1.220000 0.144000
v -0.085000 1.220000 0.144000
v -0.085000 1.220000 0.138000
v -0.105000 1.238000 0.138000
v -0.105000 1.238000 0.144000
v -0.085000 1.238000 0.144000
v -0.085000 1.238000 0.138000
usemtl SkinShade
s off
f 524 523 522 521
f 525 526 527 528
f 521 522 526 525
f 522 523 527 526
f 523 524 528 527
f 524 521 525 528
o Chest.Collarbone.L
v 0.040000 1.360000 0.100000
v 0.040000 1.360000 0.125000
v 0.200000 1.360000 0.125000
v 0.200000 1.360000 0.100000
v 0.050000 1.385000 0.100000
v 0.050000 1.385000 0.125000
v 0.210000 1.385000 0.125000
v 0.210000 1.385000 0.100000
usemtl Skin
s off
f 532 531 530 529
f 533 534 535 536
f 529 530 534 533
f 530 531 535 534
f 531 532 536 535
f 532 529 533 536
o Chest.Collarbone.R
v -0.200000 1.360000 0.100000
v -0.200000 1.360000 0.125000
v -0.040000 1.360000 0.125000
v -0.040000 1.360000 0.100000
v -0.210000 1.385000 0.100000
v -0.210000 1.385000 0.125000
v -0.050000 1.385000 0.125000
v -0.050000 1.385000 0.100000
usemtl Skin
s off
f 540 539 538 537
f 541 542 543 544
f 537 538 542 541
f 538 539 543 542
f 539 540 544 543
f 540 537 541 544
o Traps
v -0.090000 1.370000 -0.080000
v -0.150000 1.370000 -0.052000
v -0.150000 1.370000 0.032000
v -0.090000 1.370000 0.060000
v 0.090000 1.370000 0.060000
v 0.150000 1.370000 0.032000
v 0.150000 1.370000 -0.052000
v 0.090000 1.370000 -0.080000
v -0.045000 1.435000 -0.060000
v -0.075000 1.435000 -0.040000
v -0.075000 1.435000 0.020000
v -0.045000 1.435000 0.040000
v 0.045000 1.435000 0.040000
v 0.075000 1.435000 0.020000
v 0.075000 1.435000 -0.040000
v 0.045000 1.435000 -0.060000
usemtl Skin
s off
f 552 551 550 549 548 547 546 545
f 553 554 555 556 557 558 559 560
f 545 546 554 553
f 546 547 555 554
f 547 548 556 555
f 548 549 557 556
f 549 550 558 557
f 550 551 559 558
f 551 552 560 559
f 552 545 553 560
o Neck
v -0.029000 1.370000 -0.058000
v -0.058000 1.370000 -0.029000
v -0.058000 1.370000 0.029000
v -0.029000 1.370000 0.058000
v 0.029000 1.370000 0.058000
v 0.058000 1.370000 0.029000
v 0.058000 1.370000 -0.029000
v 0.029000 1.370000 -0.058000
v -0.029000 1.460000 -0.058000
v -0.058000 1.460000 -0.029000
v -0.058000 1.460000 0.029000
v -0.029000 1.460000 0.058000
v 0.029000 1.460000 0.058000
v 0.058000 1.460000 0.029000
v 0.058000 1.460000 -0.029000
v 0.029000 1.460000 -0.058000
usemtl Skin
s off
f 568 567 566 565 564 563 562 561
f 569 570 571 572 573 574 575 576
f 561 562 570 569
f 562 563 571 570
f 563 564 572 571
f 564 565 573 572
f 565 566 574 573
f 566 567 575 574
f 567 568 576 575
f 568 561 569 576
o Back.Blades
v -0.108000 1.160000 -0.132000
v -0.180000 1.160000 -0.127600
v -0.180000 1.160000 -0.114400
v -0.108000 1.160000 -0.110000
v 0.108000 1.160000 -0.110000
v 0.180000 1.160000 -0.114400
v 0.180000 1.160000 -0.127600
v 0.108000 1.160000 -0.132000
v -0.120000 1.340000 -0.132000
v -0.200000 1.340000 -0.127600
v -0.200000 1.340000 -0.114400
v -0.120000 1.340000 -0.110000
v 0.120000 1.340000 -0.110000
v 0.200000 1.340000 -0.114400
v 0.200000 1.340000 -0.127600
v 0.120000 1.340000 -0.132000
usemtl Skin
s off
f 584 583 582 581 580 579 578 577
f 585 586 587 588 589 590 591 592
f 577 578 586 585
f 578 579 587 586
f 579 580 588 587
f 580 581 589 588
f 581 582 590 589
f 582 583 591 590
f 583 584 592 591
f 584 577 585 592
o Back.Spine
v -0.006000 0.950000 -0.134000
v -0.006000 0.950000 -0.120000
v 0.006000 0.950000 -0.120000
v 0.006000 0.950000 -0.134000
v -0.006000 1.300000 -0.134000
v -0.006000 1.300000 -0.120000
v 0.006000 1.300000 -0.120000
v 0.006000 1.300000 -0.134000
usemtl SkinShade
s off
f 596 595 594 593
f 597 598 599 600
f 593 594 598 597
f 594 595 599 598
f 595 596 600 599
f 596 593 597 600
o Head
v -0.064800 1.440000 -0.110000
v -0.108000 1.440000 -0.066400
v -0.108000 1.440000 0.064400
v -0.064800 1.440000 0.108000
v 0.064800 1.440000 0.108000
v 0.108000 1.440000 0.064400
v 0.108000 1.440000 -0.066400
v 0.064800 1.440000 -0.110000
v -0.070800 1.700000 -0.120000
v -0.118000 1.700000 -0.072800
v -0.118000 1.700000 0.068800
v -0.070800 1.700000 0.116000
v 0.070800 1.700000 0.116000
v 0.118000 1.700000 0.068800
v 0.118000 1.700000 -0.072800
v 0.070800 1.700000 -0.120000
usemtl Skin
s off
f 608 607 606 605 604 603 602 601
f 609 610 611 612 613 614 615 616
f 601 602 610 609
f 602 603 611 610
f 603 604 612 611
f 604 605 613 612
f 605 606 614 613
f 606 607 615 614
f 607 608 616 615
f 608 601 609 616
o Head.Jaw
v -0.051000 1.420000 -0.020000
v -0.085000 1.420000 0.004000
v -0.085000 1.420000 0.076000
v -0.051000 1.420000 0.100000
v 0.051000 1.420000 0.100000
v 0.085000 1.420000 0.076000
v 0.085000 1.420000 0.004000
v 0.051000 1.420000 -0.020000
v -0.062400 1.490000 -0.040000
v -0.104000 1.490000 -0.010400
v -0.104000 1.490000 0.078400
v -0.062400 1.490000 0.108000
v 0.062400 1.490000 0.108000
v 0.104000 1.490000 0.078400
v 0.104000 1.490000 -0.010400
v 0.062400 1.490000 -0.040000
usemtl Skin
s off
f 624 623 622 621 620 619 618 617
f 625 626 627 628 629 630 631 632
f 617 618 626 625
f 618 619 627 626
f 619 620 628 627
f 620 621 629 628
f 621 622 630 629
f 622 623 631 630
f 623 624 632 631
f 624 617 625 632
o Head.Nose
v -0.022000 1.535000 0.105000
v -0.022000 1.535000 0.148000
v 0.022000 1.535000 0.148000
v 0.022000 1.535000 0.105000
v -0.012000 1.605000 0.105000
v -0.012000 1.605000 0.124000
v 0.012000 1.605000 0.124000
v 0.012000 1.605000 0.105000
usemtl Skin
s off
f 636 635 634 633
f 637 638 639 640
f 633 634 638 637
f 634 635 639 638
f 635 636 640 639
f 636 633 637 640
o Head.Nostril.L
v 0.006000 1.535000 0.130000
v 0.006000 1.535000 0.142000
v 0.018000 1.535000 0.142000
v 0.018000 1.535000 0.130000
v 0.006000 1.542000 0.130000
v 0.006000 1.542000 0.142000
v 0.018000 1.542000 0.142000
v 0.018000 1.542000 0.130000
usemtl SkinShade
s off
f 644 643 642 641
f 645 646 647 648
f 641 642 646 645
f 642 643 647 646
f 643 644 648 647
f 644 641 645 648
o Head.Nostril.R
v -0.018000 1.535000 0.130000
v -0.018000 1.535000 0.142000
v -0.006000 1.535000 0.142000
v -0.006000 1.535000 0.130000
v -0.018000 1.542000 0.130000
v -0.018000 1.542000 0.142000
v -0.006000 1.542000 0.142000
v -0.006000 1.542000 0.130000
usemtl SkinShade
s off
f 652 651 650 649
f 653 654 655 656
f 649 650 654 653
f 650 651 655 654
f 651 652 656 655
f 652 649 653 656
o Head.Cheek.L
v 0.065000 1.510000 0.095000
v 0.050000 1.510000 0.101300
v 0.050000 1.510000 0.109700
v 0.065000 1.510000 0.116000
v 0.085000 1.510000 0.116000
v 0.100000 1.510000 0.109700
v 0.100000 1.510000 0.101300
v 0.085000 1.510000 0.095000
v 0.065000 1.580000 0.095000
v 0.050000 1.580000 0.100100
v 0.050000 1.580000 0.106900
v 0.065000 1.580000 0.112000
v 0.085000 1.580000 0.112000
v 0.100000 1.580000 0.106900
v 0.100000 1.580000 0.100100
v 0.085000 1.580000 0.095000
usemtl Skin
s off
f 664 663 662 661 660 659 658 657
f 665 666 667 668 669 670 671 672
f 657 658 666 665
f 658 659 667 666
f 659 660 668 667
f 660 661 669 668
f 661 662 670 669
f 662 663 671 670
f 663 664 672 671
f 664 657 665 672
o Head.Cheek.R
v -0.085000 1.510000 0.095000
v -0.100000 1.510000 0.101300
v -0.100000 1.510000 0.109700
v -0.085000 1.510000 0.116000
v -0.065000 1.510000 0.116000
v -0.050000 1.510000 0.109700
v -0.050000 1.510000 0.101300
v -0.065000 1.510000 0.095000
v -0.085000 1.580000 0.095000
v -0.100000 1.580000 0.100100
v -0.100000 1.580000 0.106900
v -0.085000 1.580000 0.112000
v -0.065000 1.580000 0.112000
v -0.050000 1.580000 0.106900
v -0.050000 1.580000 0.100100
v -0.065000 1.580000 0.095000
usemtl Skin
s off
f 680 679 678 677 676 675 674 673
f 681 682 683 684 685 686 687 688
f 673 674 682 681
f 674 675 683 682
f 675 676 684 683
f 676 677 685 684
f 677 678 686 685
f 678 679 687 686
f 679 680 688 687
f 680 673 681 688
o Head.EyeWhite.L
v 0.030000 1.595000 0.108000
v 0.030000 1.595000 0.118000
v 0.080000 1.595000 0.118000
v 0.080000 1.595000 0.108000
v 0.030000 1.628000 0.108000
v 0.030000 1.628000 0.118000
v 0.080000 1.628000 0.118000
v 0.080000 1.628000 0.108000
usemtl EyeWhite
s off
f 692 691 690 689
f 693 694 695 696
f 689 690 694 693
f 690 691 695 694
f 691 692 696 695
f 692 689 693 696
o Head.EyeWhite.R
v -0.080000 1.595000 0.108000
v -0.080000 1.595000 0.118000
v -0.030000 1.595000 0.118000
v -0.030000 1.595000 0.108000
v -0.080000 1.628000 0.108000
v -0.080000 1.628000 0.118000
v -0.030000 1.628000 0.118000
v -0.030000 1.628000 0.108000
usemtl EyeWhite
s off
f 700 699 698 697
f 701 702 703 704
f 697 698 702 701
f 698 699 703 702
f 699 700 704 703
f 700 697 701 704
o Head.Eye.L
v 0.044000 1.597000 0.114000
v 0.044000 1.597000 0.121000
v 0.068000 1.597000 0.121000
v 0.068000 1.597000 0.114000
v 0.044000 1.626000 0.114000
v 0.044000 1.626000 0.121000
v 0.068000 1.626000 0.121000
v 0.068000 1.626000 0.114000
usemtl Eyes
s off
f 708 707 706 705
f 709 710 711 712
f 705 706 710 709
f 706 707 711 710
f 707 708 712 711
f 708 705 709 712
o Head.Eye.R
v -0.068000 1.597000 0.114000
v -0.068000 1.597000 0.121000
v -0.044000 1.597000 0.121000
v -0.044000 1.597000 0.114000
v -0.068000 1.626000 0.114000
v -0.068000 1.626000 0.121000
v -0.044000 1.626000 0.121000
v -0.044000 1.626000 0.114000
usemtl Eyes
s off
f 716 715 714 713
f 717 718 719 720
f 713 714 718 717
f 714 715 719 718
f 715 716 720 719
f 716 713 717 720
o Head.Lid.L
v 0.028000 1.626000 0.108000
v 0.028000 1.626000 0.120000
v 0.082000 1.626000 0.120000
v 0.082000 1.626000 0.108000
v 0.028000 1.636000 0.108000
v 0.028000 1.636000 0.120000
v 0.082000 1.636000 0.120000
v 0.082000 1.636000 0.108000
usemtl SkinShade
s off
f 724 723 722 721
f 725 726 727 728
f 721 722 726 725
f 722 723 727 726
f 723 724 728 727
f 724 721 725 728
o Head.Lid.R
v -0.082000 1.626000 0.108000
v -0.082000 1.626000 0.120000
v -0.028000 1.626000 0.120000
v -0.028000 1.626000 0.108000
v -0.082000 1.636000 0.108000
v -0.082000 1.636000 0.120000
v -0.028000 1.636000 0.120000
v -0.028000 1.636000 0.108000
usemtl SkinShade
s off
f 732 731 730 729
f 733 734 735 736
f 729 730 734 733
f 730 731 735 734
f 731 732 736 735
f 732 729 733 736
o Head.Brow.L
v 0.024000 1.640000 0.110000
v 0.024000 1.640000 0.125000
v 0.088000 1.640000 0.125000
v 0.088000 1.640000 0.110000
v 0.030000 1.656000 0.110000
v 0.030000 1.656000 0.125000
v 0.084000 1.656000 0.125000
v 0.084000 1.656000 0.110000
usemtl Hair
s off
f 740 739 738 737
f 741 742 743 744
f 737 738 742 741
f 738 739 743 742
f 739 740 744 743
f 740 737 741 744
o Head.Brow.R
v -0.088000 1.640000 0.110000
v -0.088000 1.640000 0.125000
v -0.024000 1.640000 0.125000
v -0.024000 1.640000 0.110000
v -0.084000 1.656000 0.110000
v -0.084000 1.656000 0.125000
v -0.030000 1.656000 0.125000
v -0.030000 1.656000 0.110000
usemtl Hair
s off
f 748 747 746 745
f 749 750 751 752
f 745 746 750 749
f 746 747 751 750
f 747 748 752 751
f 748 745 749 752
o Head.Mouth
v -0.034000 1.504000 0.104000
v -0.034000 1.504000 0.116000
v 0.034000 1.504000 0.116000
v 0.034000 1.504000 0.104000
v -0.030000 1.520000 0.104000
v -0.030000 1.520000 0.116000
v 0.030000 1.520000 0.116000
v 0.030000 1.520000 0.104000
usemtl Lips
s off
f 756 755 754 753
f 757 758 759 760
f 753 754 758 757
f 754 755 759 758
f 755 756 760 759
f 756 753 757 760
o Head.Ear.L
v 0.117200 1.540000 -0.035000
v 0.110000 1.540000 -0.018500
v 0.110000 1.540000 0.003500
v 0.117200 1.540000 0.020000
v 0.126800 1.540000 0.020000
v 0.134000 1.540000 0.003500
v 0.134000 1.540000 -0.018500
v 0.126800 1.540000 -0.035000
v 0.117200 1.620000 -0.035000
v 0.110000 1.620000 -0.018500
v 0.110000 1.620000 0.003500
v 0.117200 1.620000 0.020000
v 0.126800 1.620000 0.020000
v 0.134000 1.620000 0.003500
v 0.134000 1.620000 -0.018500
v 0.126800 1.620000 -0.035000
usemtl Skin
s off
f 768 767 766 765 764 763 762 761
f 769 770 771 772 773 774 775 776
f 761 762 770 769
f 762 763 771 770
f 763 764 772 771
f 764 765 773 772
f 765 766 774 773
f 766 767 775 774
f 767 768 776 775
f 768 761 769 776
o Head.Ear.R
v -0.126800 1.540000 -0.035000
v -0.134000 1.540000 -0.018500
v -0.134000 1.540000 0.003500
v -0.126800 1.540000 0.020000
v -0.117200 1.540000 0.020000
v -0.110000 1.540000 0.003500
v -0.110000 1.540000 -0.018500
v -0.117200 1.540000 -0.035000
v -0.126800 1.620000 -0.035000
v -0.134000 1.620000 -0.018500
v -0.134000 1.620000 0.003500
v -0.126800 1.620000 0.020000
v -0.117200 1.620000 0.020000
v -0.110000 1.620000 0.003500
v -0.110000 1.620000 -0.018500
v -0.117200 1.620000 -0.035000
usemtl Skin
s off
f 784 783 782 781 780 779 778 777
f 785 786 787 788 789 790 791 792
f 777 778 786 785
f 778 779 787 786
f 779 780 788 787
f 780 781 789 788
f 781 782 790 789
f 782 783 791 790
f 783 784 792 791
f 784 777 785 792
o Head.Ear.Inner.L
v 0.132000 1.555000 -0.022000
v 0.132000 1.555000 0.008000
v 0.136000 1.555000 0.008000
v 0.136000 1.555000 -0.022000
v 0.132000 1.605000 -0.022000
v 0.132000 1.605000 0.008000
v 0.136000 1.605000 0.008000
v 0.136000 1.605000 -0.022000
usemtl SkinShade
s off
f 796 795 794 793
f 797 798 799 800
f 793 794 798 797
f 794 795 799 798
f 795 796 800 799
f 796 793 797 800
o Head.Ear.Inner.R
v -0.136000 1.555000 -0.022000
v -0.136000 1.555000 0.008000
v -0.132000 1.555000 0.008000
v -0.132000 1.555000 -0.022000
v -0.136000 1.605000 -0.022000
v -0.136000 1.605000 0.008000
v -0.132000 1.605000 0.008000
v -0.132000 1.605000 -0.022000
usemtl SkinShade
s off
f 804 803 802 801
f 805 806 807 808
f 801 802 806 805
f 802 803 807 806
f 803 804 808 807
f 804 801 805 808
o Head.Hair.Top
v -0.050400 1.655000 -0.130000
v -0.126000 1.655000 -0.053800
v -0.126000 1.655000 0.047800
v -0.050400 1.655000 0.124000
v 0.050400 1.655000 0.124000
v 0.126000 1.655000 0.047800
v 0.126000 1.655000 -0.053800
v 0.050400 1.655000 -0.130000
v -0.038000 1.745000 -0.100000
v -0.095000 1.745000 -0.040000
v -0.095000 1.745000 0.040000
v -0.038000 1.745000 0.100000
v 0.038000 1.745000 0.100000
v 0.095000 1.745000 0.040000
v 0.095000 1.745000 -0.040000
v 0.038000 1.745000 -0.100000
usemtl Hair
s off
f 816 815 814 813 812 811 810 809
f 817 818 819 820 821 822 823 824
f 809 810 818 817
f 810 811 819 818
f 811 812 820 819
f 812 813 821 820
f 813 814 822 821
f 814 815 823 822
f 815 816 824 823
f 816 809 817 824
o Head.Hair.Back
v -0.061000 1.500000 -0.130000
v -0.122000 1.500000 -0.102500
v -0.122000 1.500000 -0.047500
v -0.061000 1.500000 -0.020000
v 0.061000 1.500000 -0.020000
v 0.122000 1.500000 -0.047500
v 0.122000 1.500000 -0.102500
v 0.061000 1.500000 -0.130000
v -0.063000 1.670000 -0.130000
v -0.126000 1.670000 -0.102500
v -0.126000 1.670000 -0.047500
v -0.063000 1.670000 -0.020000
v 0.063000 1.670000 -0.020000
v 0.126000 1.670000 -0.047500
v 0.126000 1.670000 -0.102500
v 0.063000 1.670000 -0.130000
usemtl Hair
s off
f 832 831 830 829 828 827 826 825
f 833 834 835 836 837 838 839 840
f 825 826 834 833
f 826 827 835 834
f 827 828 836 835
f 828 829 837 836
f 829 830 838 837
f 830 831 839 838
f 831 832 840 839
f 832 825 833 840
o Head.Hair.Side.L
v 0.112000 1.610000 -0.030000
v 0.112000 1.610000 0.080000
v 0.128000 1.610000 0.080000
v 0.128000 1.610000 -0.030000
v 0.112000 1.670000 -0.030000
v 0.112000 1.670000 0.080000
v 0.128000 1.670000 0.080000
v 0.128000 1.670000 -0.030000
usemtl Hair
s off
f 844 843 842 841
f 845 846 847 848
f 841 842 846 845
f 842 843 847 846
f 843 844 848 847
f 844 841 845 848
o Head.Hair.Side.R
v -0.128000 1.610000 -0.030000
v -0.128000 1.610000 0.080000
v -0.112000 1.610000 0.080000
v -0.112000 1.610000 -0.030000
v -0.128000 1.670000 -0.030000
v -0.128000 1.670000 0.080000
v -0.112000 1.670000 0.080000
v -0.112000 1.670000 -0.030000
usemtl Hair
s off
f 852 851 850 849
f 853 854 855 856
f 849 850 854 853
f 850 851 855 854
f 851 852 856 855
f 852 849 853 856
o Head.Hair.Fringe
v -0.105000 1.605000 0.100000
v -0.105000 1.605000 0.130000
v -0.045000 1.605000 0.130000
v -0.045000 1.605000 0.100000
v -0.110000 1.675000 0.100000
v -0.110000 1.675000 0.130000
v -0.040000 1.675000 0.130000
v -0.040000 1.675000 0.100000
usemtl Hair
s off
f 860 859 858 857
f 861 862 863 864
f 857 858 862 861
f 858 859 863 862
f 859 860 864 863
f 860 857 861 864
o Head.Hair.Fringe
v -0.055000 1.590000 0.100000
v -0.055000 1.590000 0.130000
v 0.005000 1.590000 0.130000
v 0.005000 1.590000 0.100000
v -0.060000 1.675000 0.100000
v -0.060000 1.675000 0.130000
v 0.010000 1.675000 0.130000
v 0.010000 1.675000 0.100000
usemtl Hair
s off
f 868 867 866 865
f 869 870 871 872
f 865 866 870 869
f 866 867 871 870
f 867 868 872 871
f 868 865 869 872
o Head.Hair.Fringe
v -0.005000 1.600000 0.100000
v -0.005000 1.600000 0.130000
v 0.055000 1.600000 0.130000
v 0.055000 1.600000 0.100000
v -0.010000 1.675000 0.100000
v -0.010000 1.675000 0.130000
v 0.060000 1.675000 0.130000
v 0.060000 1.675000 0.100000
usemtl Hair
s off
f 876 875 874 873
f 877 878 879 880
f 873 874 878 877
f 874 875 879 878
f 875 876 880 879
f 876 873 877 880
o Head.Hair.Fringe
v 0.045000 1.610000 0.100000
v 0.045000 1.610000 0.130000
v 0.105000 1.610000 0.130000
v 0.105000 1.610000 0.100000
v 0.040000 1.675000 0.100000
v 0.040000 1.675000 0.130000
v 0.110000 1.675000 0.130000
v 0.110000 1.675000 0.100000
usemtl Hair
s off
f 884 883 882 881
f 885 886 887 888
f 881 882 886 885
f 882 883 887 886
f 883 884 888 887
f 884 881 885 888
o Head.Beard
v -0.040000 1.395000 0.030000
v -0.080000 1.395000 0.052000
v -0.080000 1.395000 0.096000
v -0.040000 1.395000 0.118000
v 0.040000 1.395000 0.118000
v 0.080000 1.395000 0.096000
v 0.080000 1.395000 0.052000
v 0.040000 1.395000 0.030000
v -0.054000 1.500000 0.000000
v -0.108000 1.500000 0.028500
v -0.108000 1.500000 0.085500
v -0.054000 1.500000 0.114000
v 0.054000 1.500000 0.114000
v 0.108000 1.500000 0.085500
v 0.108000 1.500000 0.028500
v 0.054000 1.500000 0.000000
usemtl Hair
s off
f 896 895 894 893 892 891 890 889
f 897 898 899 900 901 902 903 904
f 889 890 898 897
f 890 891 899 898
f 891 892 900 899
f 892 893 901 900
f 893 894 902 901
f 894 895 903 902
f 895 896 904 903
f 896 889 897 904
o Head.Beard.Side.L
v 0.098000 1.440000 -0.030000
v 0.098000 1.440000 0.105000
v 0.122000 1.440000 0.105000
v 0.122000 1.440000 -0.030000
v 0.098000 1.600000 -0.030000
v 0.098000 1.600000 0.070000
v 0.122000 1.600000 0.070000
v 0.122000 1.600000 -0.030000
usemtl Hair
s off
f 908 907 906 905
f 909 910 911 912
f 905 906 910 909
f 906 907 911 910
f 907 908 912 911
f 908 905 909 912
o Head.Beard.Side.R
v -0.122000 1.440000 -0.030000
v -0.122000 1.440000 0.105000
v -0.098000 1.440000 0.105000
v -0.098000 1.440000 -0.030000
v -0.122000 1.600000 -0.030000
v -0.122000 1.600000 0.070000
v -0.098000 1.600000 0.070000
v -0.098000 1.600000 -0.030000
usemtl Hair
s off
f 916 915 914 913
f 917 918 919 920
f 913 914 918 917
f 914 915 919 918
f 915 916 920 919
f 916 913 917 920
o Head.Moustache
v -0.050000 1.518000 0.104000
v -0.050000 1.518000 0.124000
v 0.050000 1.518000 0.124000
v 0.050000 1.518000 0.104000
v -0.042000 1.538000 0.104000
v -0.042000 1.538000 0.124000
v 0.042000 1.538000 0.124000
v 0.042000 1.538000 0.104000
usemtl Hair
s off
f 924 923 922 921
f 925 926 927 928
f 921 922 926 925
f 922 923 927 926
f 923 924 928 927
f 924 921 925 928
o Head.Mouth.Gap
v -0.028000 1.502000 0.112000
v -0.028000 1.502000 0.120000
v 0.028000 1.502000 0.120000
v 0.028000 1.502000 0.112000
v -0.028000 1.518000 0.112000
v -0.028000 1.518000 0.120000
v 0.028000 1.518000 0.120000
v 0.028000 1.518000 0.112000
usemtl Lips
s off
f 932 931 930 929
f 933 934 935 936
f 929 930 934 933
f 930 931 935 934
f 931 932 936 935
f 932 929 933 936
o Arm.L
v 0.276600 1.020000 -0.060000
v 0.252000 1.020000 -0.024000
v 0.252000 1.020000 0.024000
v 0.276600 1.020000 0.060000
v 0.309400 1.020000 0.060000
v 0.334000 1.020000 0.024000
v 0.334000 1.020000 -0.024000
v 0.309400 1.020000 -0.060000
v 0.274000 1.400000 -0.086000
v 0.232000 1.400000 -0.034400
v 0.232000 1.400000 0.034400
v 0.274000 1.400000 0.086000
v 0.330000 1.400000 0.086000
v 0.372000 1.400000 0.034400
v 0.372000 1.400000 -0.034400
v 0.330000 1.400000 -0.086000
usemtl Skin
s off
f 944 943 942 941 940 939 938 937
f 945 946 947 948 949 950 951 952
f 937 938 946 945
f 938 939 947 946
f 939 940 948 947
f 940 941 949 948
f 941 942 950 949
f 942 943 951 950
f 943 944 952 951
f 944 937 945 952
o Arm.R
v -0.309400 1.020000 -0.060000
v -0.334000 1.020000 -0.024000
v -0.334000 1.020000 0.024000
v -0.309400 1.020000 0.060000
v -0.276600 1.020000 0.060000
v -0.252000 1.020000 0.024000
v -0.252000 1.020000 -0.024000
v -0.276600 1.020000 -0.060000
v -0.330000 1.400000 -0.086000
v -0.372000 1.400000 -0.034400
v -0.372000 1.400000 0.034400
v -0.330000 1.400000 0.086000
v -0.274000 1.400000 0.086000
v -0.232000 1.400000 0.034400
v -0.232000 1.400000 -0.034400
v -0.274000 1.400000 -0.086000
usemtl Skin
s off
f 960 959 958 957 956 955 954 953
f 961 962 963 964 965 966 967 968
f 953 954 962 961
f 954 955 963 962
f 955 956 964 963
f 956 957 965 964
f 957 958 966 965
f 958 959 967 966
f 959 960 968 967
f 960 953 961 968
o Arm.L.Bicep
v 0.282600 1.120000 0.030000
v 0.264000 1.120000 0.044400
v 0.264000 1.120000 0.063600
v 0.282600 1.120000 0.078000
v 0.307400 1.120000 0.078000
v 0.326000 1.120000 0.063600
v 0.326000 1.120000 0.044400
v 0.307400 1.120000 0.030000
v 0.282600 1.280000 0.030000
v 0.264000 1.280000 0.041400
v 0.264000 1.280000 0.056600
v 0.282600 1.280000 0.068000
v 0.307400 1.280000 0.068000
v 0.326000 1.280000 0.056600
v 0.326000 1.280000 0.041400
v 0.307400 1.280000 0.030000
usemtl Skin
s off
f 976 975 974 973 972 971 970 969
f 977 978 979 980 981 982 983 984
f 969 970 978 977
f 970 971 979 978
f 971 972 980 979
f 972 973 981 980
f 973 974 982 981
f 974 975 983 982
f 975 976 984 983
f 976 969 977 984
o Arm.R.Bicep
v -0.307400 1.120000 0.030000
v -0.326000 1.120000 0.044400
v -0.326000 1.120000 0.063600
v -0.307400 1.120000 0.078000
v -0.282600 1.120000 0.078000
v -0.264000 1.120000 0.063600
v -0.264000 1.120000 0.044400
v -0.282600 1.120000 0.030000
v -0.307400 1.280000 0.030000
v -0.326000 1.280000 0.041400
v -0.326000 1.280000 0.056600
v -0.307400 1.280000 0.068000
v -0.282600 1.280000 0.068000
v -0.264000 1.280000 0.056600
v -0.264000 1.280000 0.041400
v -0.282600 1.280000 0.030000
usemtl Skin
s off
f 992 991 990 989 988 987 986 985
f 993 994 995 996 997 998 999 1000
f 985 986 994 993
f 986 987 995 994
f 987 988 996 995
f 988 989 997 996
f 989 990 998 997
f 990 991 999 998
f 991 992 1000 999
f 992 985 993 1000
o Arm.L.Lower
v 0.278000 0.840000 -0.044000
v 0.260000 0.840000 -0.017600
v 0.260000 0.840000 0.017600
v 0.278000 0.840000 0.044000
v 0.302000 0.840000 0.044000
v 0.320000 0.840000 0.017600
v 0.320000 0.840000 -0.017600
v 0.302000 0.840000 -0.044000
v 0.276000 1.060000 -0.058000
v 0.252000 1.060000 -0.023200
v 0.252000 1.060000 0.023200
v 0.276000 1.060000 0.058000
v 0.308000 1.060000 0.058000
v 0.332000 1.060000 0.023200
v 0.332000 1.060000 -0.023200
v 0.308000 1.060000 -0.058000
usemtl Skin
s off
f 1008 1007 1006 1005 1004 1003 1002 1001
f 1009 1010 1011 1012 1013 1014 1015 1016
f 1001 1002 1010 1009
f 1002 1003 1011 1010
f 1003 1004 1012 1011
f 1004 1005 1013 1012
f 1005 1006 1014 1013
f 1006 1007 1015 1014
f 1007 1008 1016 1015
f 1008 1001 1009 1016
o Arm.R.Lower
v -0.302000 0.840000 -0.044000
v -0.320000 0.840000 -0.017600
v -0.320000 0.840000 0.017600
v -0.302000 0.840000 0.044000
v -0.278000 0.840000 0.044000
v -0.260000 0.840000 0.017600
v -0.260000 0.840000 -0.017600
v -0.278000 0.840000 -0.044000
v -0.308000 1.060000 -0.058000
v -0.332000 1.060000 -0.023200
v -0.332000 1.060000 0.023200
v -0.308000 1.060000 0.058000
v -0.276000 1.060000 0.058000
v -0.252000 1.060000 0.023200
v -0.252000 1.060000 -0.023200
v -0.276000 1.060000 -0.058000
usemtl Skin
s off
f 1024 1023 1022 1021 1020 1019 1018 1017
f 1025 1026 1027 1028 1029 1030 1031 1032
f 1017 1018 1026 1025
f 1018 1019 1027 1026
f 1019 1020 1028 1027
f 1020 1021 1029 1028
f 1021 1022 1030 1029
f 1022 1023 1031 1030
f 1023 1024 1032 1031
f 1024 1017 1025 1032
o Arm.L.Lower.Wrap
v 0.272000 0.835000 -0.050000
v 0.254000 0.835000 -0.025000
v 0.254000 0.835000 0.025000
v 0.272000 0.835000 0.050000
v 0.308000 0.835000 0.050000
v 0.326000 0.835000 0.025000
v 0.326000 0.835000 -0.025000
v 0.308000 0.835000 -0.050000
v 0.271500 0.930000 -0.053000
v 0.252000 0.930000 -0.026500
v 0.252000 0.930000 0.026500
v 0.271500 0.930000 0.053000
v 0.310500 0.930000 0.053000
v 0.330000 0.930000 0.026500
v 0.330000 0.930000 -0.026500
v 0.310500 0.930000 -0.053000
usemtl Leather
s off
f 1040 1039 1038 1037 1036 1035 1034 1033
f 1041 1042 1043 1044 1045 1046 1047 1048
f 1033 1034 1042 1041
f 1034 1035 1043 1042
f 1035 1036 1044 1043
f 1036 1037 1045 1044
f 1037 1038 1046 1045
f 1038 1039 1047 1046
f 1039 1040 1048 1047
f 1040 1033 1041 1048
o Arm.R.Lower.Wrap
v -0.308000 0.835000 -0.050000
v -0.326000 0.835000 -0.025000
v -0.326000 0.835000 0.025000
v -0.308000 0.835000 0.050000
v -0.272000 0.835000 0.050000
v -0.254000 0.835000 0.025000
v -0.254000 0.835000 -0.025000
v -0.272000 0.835000 -0.050000
v -0.310500 0.930000 -0.053000
v -0.330000 0.930000 -0.026500
v -0.330000 0.930000 0.026500
v -0.310500 0.930000 0.053000
v -0.271500 0.930000 0.053000
v -0.252000 0.930000 0.026500
v -0.252000 0.930000 -0.026500
v -0.271500 0.930000 -0.053000
usemtl Leather
s off
f 1056 1055 1054 1053 1052 1051 1050 1049
f 1057 1058 1059 1060 1061 1062 1063 1064
f 1049 1050 1058 1057
f 1050 1051 1059 1058
f 1051 1052 1060 1059
f 1052 1053 1061 1060
f 1053 1054 1062 1061
f 1054 1055 1063 1062
f 1055 1056 1064 1063
f 1056 1049 1057 1064
o Arm.L.Lower.Wrap.Band
v 0.271000 0.880000 -0.054000
v 0.252000 0.880000 -0.027000
v 0.252000 0.880000 0.027000
v 0.271000 0.880000 0.054000
v 0.309000 0.880000 0.054000
v 0.328000 0.880000 0.027000
v 0.328000 0.880000 -0.027000
v 0.309000 0.880000 -0.054000
v 0.271000 0.895000 -0.054000
v 0.252000 0.895000 -0.027000
v 0.252000 0.895000 0.027000
v 0.271000 0.895000 0.054000
v 0.309000 0.895000 0.054000
v 0.328000 0.895000 0.027000
v 0.328000 0.895000 -0.027000
v 0.309000 0.895000 -0.054000
usemtl LeatherLight
s off
f 1072 1071 1070 1069 1068 1067 1066 1065
f 1073 1074 1075 1076 1077 1078 1079 1080
f 1065 1066 1074 1073
f 1066 1067 1075 1074
f 1067 1068 1076 1075
f 1068 1069 1077 1076
f 1069 1070 1078 1077
f 1070 1071 1079 1078
f 1071 1072 1080 1079
f 1072 1065 1073 1080
o Arm.R.Lower.Wrap.Band
v -0.309000 0.880000 -0.054000
v -0.328000 0.880000 -0.027000
v -0.328000 0.880000 0.027000
v -0.309000 0.880000 0.054000
v -0.271000 0.880000 0.054000
v -0.252000 0.880000 0.027000
v -0.252000 0.880000 -0.027000
v -0.271000 0.880000 -0.054000
v -0.309000 0.895000 -0.054000
v -0.328000 0.895000 -0.027000
v -0.328000 0.895000 0.027000
v -0.309000 0.895000 0.054000
v -0.271000 0.895000 0.054000
v -0.252000 0.895000 0.027000
v -0.252000 0.895000 -0.027000
v -0.271000 0.895000 -0.054000
usemtl LeatherLight
s off
f 1088 1087 1086 1085 1084 1083 1082 1081
f 1089 1090 1091 1092 1093 1094 1095 1096
f 1081 1082 1090 1089
f 1082 1083 1091 1090
f 1083 1084 1092 1091
f 1084 1085 1093 1092
f 1085 1086 1094 1093
f 1086 1087 1095 1094
f 1087 1088 1096 1095
f 1088 1081 1089 1096
o Arm.L.Lower.Hand
v 0.272400 0.770000 -0.042000
v 0.260000 0.770000 -0.025200
v 0.260000 0.770000 0.025200
v 0.272400 0.770000 0.042000
v 0.309600 0.770000 0.042000
v 0.322000 0.770000 0.025200
v 0.322000 0.770000 -0.025200
v 0.309600 0.770000 -0.042000
v 0.272400 0.840000 -0.036000
v 0.260000 0.840000 -0.021600
v 0.260000 0.840000 0.021600
v 0.272400 0.840000 0.036000
v 0.309600 0.840000 0.036000
v 0.322000 0.840000 0.021600
v 0.322000 0.840000 -0.021600
v 0.309600 0.840000 -0.036000
usemtl Skin
s off
f 1104 1103 1102 1101 1100 1099 1098 1097
f 1105 1106 1107 1108 1109 1110 1111 1112
f 1097 1098 1106 1105
f 1098 1099 1107 1106
f 1099 1100 1108 1107
f 1100 1101 1109 1108
f 1101 1102 1110 1109
f 1102 1103 1111 1110
f 1103 1104 1112 1111
f 1104 1097 1105 1112
o Arm.R.Lower.Hand
v -0.309600 0.770000 -0.042000
v -0.322000 0.770000 -0.025200
v -0.322000 0.770000 0.025200
v -0.309600 0.770000 0.042000
v -0.272400 0.770000 0.042000
v -0.260000 0.770000 0.025200
v -0.260000 0.770000 -0.025200
v -0.272400 0.770000 -0.042000
v -0.309600 0.840000 -0.036000
v -0.322000 0.840000 -0.021600
v -0.322000 0.840000 0.021600
v -0.309600 0.840000 0.036000
v -0.272400 0.840000 0.036000
v -0.260000 0.840000 0.021600
v -0.260000 0.840000 -0.021600
v -0.272400 0.840000 -0.036000
usemtl Skin
s off
f 1120 1119 1118 1117 1116 1115 1114 1113
f 1121 1122 1123 1124 1125 1126 1127 1128
f 1113 1114 1122 1121
f 1114 1115 1123 1122
f 1115 1116 1124 1123
f 1116 1117 1125 1124
f 1117 1118 1126 1125
f 1118 1119 1127 1126
f 1119 1120 1128 1127
f 1120 1113 1121 1128
o Arm.L.Lower.Fingers
v 0.278445 0.720000 -0.030000
v 0.264960 0.720000 -0.011250
v 0.264960 0.720000 0.026250
v 0.278445 0.720000 0.045000
v 0.305415 0.720000 0.045000
v 0.318900 0.720000 0.026250
v 0.318900 0.720000 -0.011250
v 0.305415 0.720000 -0.030000
v 0.278445 0.770000 -0.038000
v 0.264960 0.770000 -0.018000
v 0.264960 0.770000 0.022000
v 0.278445 0.770000 0.042000
v 0.305415 0.770000 0.042000
v 0.318900 0.770000 0.022000
v 0.318900 0.770000 -0.018000
v 0.305415 0.770000 -0.038000
usemtl Skin
s off
f 1136 1135 1134 1133 1132 1131 1130 1129
f 1137 1138 1139 1140 1141 1142 1143 1144
f 1129 1130 1138 1137
f 1130 1131 1139 1138
f 1131 1132 1140 1139
f 1132 1133 1141 1140
f 1133 1134 1142 1141
f 1134 1135 1143 1142
f 1135 1136 1144 1143
f 1136 1129 1137 1144
o Arm.R.Lower.Fingers
v -0.305415 0.720000 -0.030000
v -0.318900 0.720000 -0.011250
v -0.318900 0.720000 0.026250
v -0.305415 0.720000 0.045000
v -0.278445 0.720000 0.045000
v -0.264960 0.720000 0.026250
v -0.264960 0.720000 -0.011250
v -0.278445 0.720000 -0.030000
v -0.305415 0.770000 -0.038000
v -0.318900 0.770000 -0.018000
v -0.318900 0.770000 0.022000
v -0.305415 0.770000 0.042000
v -0.278445 0.770000 0.042000
v -0.264960 0.770000 0.022000
v -0.264960 0.770000 -0.018000
v -0.278445 0.770000 -0.038000
usemtl Skin
s off
f 1152 1151 1150 1149 1148 1147 1146 1145
f 1153 1154 1155 1156 1157 1158 1159 1160
f 1145 1146 1154 1153
f 1146 1147 1155 1154
f 1147 1148 1156 1155
f 1148 1149 1157 1156
f 1149 1150 1158 1157
f 1150 1151 1159 1158
f 1151 1152 1160 1159
f 1152 1145 1153 1160
o Arm.L.Lower.Knuckles
v 0.266200 0.755000 0.042000
v 0.266200 0.755000 0.047000
v 0.317040 0.755000 0.047000
v 0.317040 0.755000 0.042000
v 0.266200 0.765000 0.042000
v 0.266200 0.765000 0.047000
v 0.317040 0.765000 0.047000
v 0.317040 0.765000 0.042000
usemtl SkinShade
s off
f 1164 1163 1162 1161
f 1165 1166 1167 1168
f 1161 1162 1166 1165
f 1162 1163 1167 1166
f 1163 1164 1168 1167
f 1164 1161 1165 1168
o Arm.R.Lower.Knuckles
v -0.317040 0.755000 0.042000
v -0.317040 0.755000 0.047000
v -0.266200 0.755000 0.047000
v -0.266200 0.755000 0.042000
v -0.317040 0.765000 0.042000
v -0.317040 0.765000 0.047000
v -0.266200 0.765000 0.047000
v -0.266200 0.765000 0.042000
usemtl SkinShade
s off
f 1172 1171 1170 1169
f 1173 1174 1175 1176
f 1169 1170 1174 1173
f 1170 1171 1175 1174
f 1171 1172 1176 1175
f 1172 1169 1173 1176
o Arm.L.Lower.Thumb
v 0.253500 0.740000 0.015000
v 0.248000 0.740000 0.022000
v 0.248000 0.740000 0.043000
v 0.253500 0.740000 0.050000
v 0.270000 0.740000 0.050000
v 0.275500 0.740000 0.043000
v 0.275500 0.740000 0.022000
v 0.270000 0.740000 0.015000
v 0.260520 0.810000 0.015000
v 0.256000 0.810000 0.022000
v 0.256000 0.810000 0.043000
v 0.260520 0.810000 0.050000
v 0.274080 0.810000 0.050000
v 0.278600 0.810000 0.043000
v 0.278600 0.810000 0.022000
v 0.274080 0.810000 0.015000
usemtl Skin
s off
f 1184 1183 1182 1181 1180 1179 1178 1177
f 1185 1186 1187 1188 1189 1190 1191 1192
f 1177 1178 1186 1185
f 1178 1179 1187 1186
f 1179 1180 1188 1187
f 1180 1181 1189 1188
f 1181 1182 1190 1189
f 1182 1183 1191 1190
f 1183 1184 1192 1191
f 1184 1177 1185 1192
o Arm.R.Lower.Thumb
v -0.270000 0.740000 0.015000
v -0.275500 0.740000 0.022000
v -0.275500 0.740000 0.043000
v -0.270000 0.740000 0.050000
v -0.253500 0.740000 0.050000
v -0.248000 0.740000 0.043000
v -0.248000 0.740000 0.022000
v -0.253500 0.740000 0.015000
v -0.274080 0.810000 0.015000
v -0.278600 0.810000 0.022000
v -0.278600 0.810000 0.043000
v -0.274080 0.810000 0.050000
v -0.260520 0.810000 0.050000
v -0.256000 0.810000 0.043000
v -0.256000 0.810000 0.022000
v -0.260520 0.810000 0.015000
usemtl Skin
s off
f 1200 1199 1198 1197 1196 1195 1194 1193
f 1201 1202 1203 1204 1205 1206 1207 1208
f 1193 1194 1202 1201
f 1194 1195 1203 1202
f 1195 1196 1204 1203
f 1196 1197 1205 1204
f 1197 1198 1206 1205
f 1198 1199 1207 1206
f 1199 1200 1208 1207
f 1200 1193 1201 1208
o Arm.R.Lower.Tool.Handle
v -0.298500 0.743000 -0.080000
v -0.306000 0.743000 0.027500
v -0.306000 0.743000 0.242500
v -0.298500 0.743000 0.350000
v -0.283500 0.743000 0.350000
v -0.276000 0.743000 0.242500
v -0.276000 0.743000 0.027500
v -0.283500 0.743000 -0.080000
v -0.298500 0.777000 -0.080000
v -0.306000 0.777000 0.027500
v -0.306000 0.777000 0.242500
v -0.298500 0.777000 0.350000
v -0.283500 0.777000 0.350000
v -0.276000 0.777000 0.242500
v -0.276000 0.777000 0.027500
v -0.283500 0.777000 -0.080000
usemtl Wood
s off
f 1216 1215 1214 1213 1212 1211 1210 1209
f 1217 1218 1219 1220 1221 1222 1223 1224
f 1209 1210 1218 1217
f 1210 1211 1219 1218
f 1211 1212 1220 1219
f 1212 1213 1221 1220
f 1213 1214 1222 1221
f 1214 1215 1223 1222
f 1215 1216 1224 1223
f 1216 1209 1217 1224
o Arm.R.Lower.Tool.Grip
v -0.301000 0.738000 -0.080000
v -0.311000 0.738000 -0.047500
v -0.311000 0.738000 0.017500
v -0.301000 0.738000 0.050000
v -0.281000 0.738000 0.050000
v -0.271000 0.738000 0.017500
v -0.271000 0.738000 -0.047500
v -0.281000 0.738000 -0.080000
v -0.301000 0.782000 -0.080000
v -0.311000 0.782000 -0.047500
v -0.311000 0.782000 0.017500
v -0.301000 0.782000 0.050000
v -0.281000 0.782000 0.050000
v -0.271000 0.782000 0.017500
v -0.271000 0.782000 -0.047500
v -0.281000 0.782000 -0.080000
usemtl Leather
s off
f 1232 1231 1230 1229 1228 1227 1226 1225
f 1233 1234 1235 1236 1237 1238 1239 1240
f 1225 1226 1234 1233
f 1226 1227 1235 1234
f 1227 1228 1236 1235
f 1228 1229 1237 1236
f 1229 1230 1238 1237
f 1230 1231 1239 1238
f 1231 1232 1240 1239
f 1232 1225 1233 1240
o Arm.R.Lower.Tool.Wedge
v -0.311000 0.730000 0.280000
v -0.311000 0.730000 0.330000
v -0.271000 0.730000 0.330000
v -0.271000 0.730000 0.280000
v -0.311000 0.790000 0.280000
v -0.311000 0.790000 0.330000
v -0.271000 0.790000 0.330000
v -0.271000 0.790000 0.280000
usemtl Iron
s off
f 1244 1243 1242 1241
f 1245 1246 1247 1248
f 1241 1242 1246 1245
f 1242 1243 1247 1246
f 1243 1244 1248 1247
f 1244 1241 1245 1248
o Arm.R.Lower.Tool.Head
v -0.303000 0.670000 0.270000
v -0.303000 0.670000 0.340000
v -0.279000 0.670000 0.340000
v -0.279000 0.670000 0.270000
v -0.303000 0.790000 0.290000
v -0.303000 0.790000 0.340000
v -0.279000 0.790000 0.340000
v -0.279000 0.790000 0.290000
usemtl Iron
s off
f 1252 1251 1250 1249
f 1253 1254 1255 1256
f 1249 1250 1254 1253
f 1250 1251 1255 1254
f 1251 1252 1256 1255
f 1252 1249 1253 1256
o Arm.R.Lower.Tool.Edge
v -0.298000 0.645000 0.240000
v -0.298000 0.645000 0.272000
v -0.284000 0.645000 0.272000
v -0.284000 0.645000 0.240000
v -0.298000 0.780000 0.265000
v -0.298000 0.780000 0.292000
v -0.284000 0.780000 0.292000
v -0.284000 0.780000 0.265000
usemtl Steel
s off
f 1260 1259 1258 1257
f 1261 1262 1263 1264
f 1257 1258 1262 1261
f 1258 1259 1263 1262
f 1259 1260 1264 1263
f 1260 1257 1261 1264
o Load
v -0.096000 0.860000 -0.340000
v -0.160000 0.860000 -0.298000
v -0.160000 0.860000 -0.172000
v -0.096000 0.860000 -0.130000
v 0.096000 0.860000 -0.130000
v 0.160000 0.860000 -0.172000
v 0.160000 0.860000 -0.298000
v 0.096000 0.860000 -0.340000
v -0.084000 1.260000 -0.320000
v -0.140000 1.260000 -0.282000
v -0.140000 1.260000 -0.168000
v -0.084000 1.260000 -0.130000
v 0.084000 1.260000 -0.130000
v 0.140000 1.260000 -0.168000
v 0.140000 1.260000 -0.282000
v 0.084000 1.260000 -0.320000
usemtl Load
s off
f 1272 1271 1270 1269 1268 1267 1266 1265
f 1273 1274 1275 1276 1277 1278 1279 1280
f 1265 1266 1274 1273
f 1266 1267 1275 1274
f 1267 1268 1276 1275
f 1268 1269 1277 1276
f 1269 1270 1278 1277
f 1270 1271 1279 1278
f 1271 1272 1280 1279
f 1272 1265 1273 1280
o Load.Top
v -0.030000 1.260000 -0.280000
v -0.075000 1.260000 -0.253000
v -0.075000 1.260000 -0.217000
v -0.030000 1.260000 -0.190000
v 0.030000 1.260000 -0.190000
v 0.075000 1.260000 -0.217000
v 0.075000 1.260000 -0.253000
v 0.030000 1.260000 -0.280000
v -0.020000 1.320000 -0.280000
v -0.050000 1.320000 -0.253000
v -0.050000 1.320000 -0.217000
v -0.020000 1.320000 -0.190000
v 0.020000 1.320000 -0.190000
v 0.050000 1.320000 -0.217000
v 0.050000 1.320000 -0.253000
v 0.020000 1.320000 -0.280000
usemtl Load
s off
f 1288 1287 1286 1285 1284 1283 1282 1281
f 1289 1290 1291 1292 1293 1294 1295 1296
f 1281 1282 1290 1289
f 1282 1283 1291 1290
f 1283 1284 1292 1291
f 1284 1285 1293 1292
f 1285 1286 1294 1293
f 1286 1287 1295 1294
f 1287 1288 1296 1295
f 1288 1281 1289 1296
o Load.Rope
v -0.099600 1.020000 -0.346000
v -0.166000 1.020000 -0.302800
v -0.166000 1.020000 -0.173200
v -0.099600 1.020000 -0.130000
v 0.099600 1.020000 -0.130000
v 0.166000 1.020000 -0.173200
v 0.166000 1.020000 -0.302800
v 0.099600 1.020000 -0.346000
v -0.099600 1.055000 -0.346000
v -0.166000 1.055000 -0.302800
v -0.166000 1.055000 -0.173200
v -0.099600 1.055000 -0.130000
v 0.099600 1.055000 -0.130000
v 0.166000 1.055000 -0.173200
v 0.166000 1.055000 -0.302800
v 0.099600 1.055000 -0.346000
usemtl Rope
s off
f 1304 1303 1302 1301 1300 1299 1298 1297
f 1305 1306 1307 1308 1309 1310 1311 1312
f 1297 1298 1306 1305
f 1298 1299 1307 1306
f 1299 1300 1308 1307
f 1300 1301 1309 1308
f 1301 1302 1310 1309
f 1302 1303 1311 1310
f 1303 1304 1312 1311
f 1304 1297 1305 1312
o Load.Knot
v -0.012000 1.250000 -0.290000
v -0.030000 1.250000 -0.257000
v -0.030000 1.250000 -0.213000
v -0.012000 1.250000 -0.180000
v 0.012000 1.250000 -0.180000
v 0.030000 1.250000 -0.213000
v 0.030000 1.250000 -0.257000
v 0.012000 1.250000 -0.290000
v -0.012000 1.290000 -0.290000
v -0.030000 1.290000 -0.257000
v -0.030000 1.290000 -0.213000
v -0.012000 1.290000 -0.180000
v 0.012000 1.290000 -0.180000
v 0.030000 1.290000 -0.213000
v 0.030000 1.290000 -0.257000
v 0.012000 1.290000 -0.290000
usemtl Rope
s off
f 1320 1319 1318 1317 1316 1315 1314 1313
f 1321 1322 1323 1324 1325 1326 1327 1328
f 1313 1314 1322 1321
f 1314 1315 1323 1322
f 1315 1316 1324 1323
f 1316 1317 1325 1324
f 1317 1318 1326 1325
f 1318 1319 1327 1326
f 1319 1320 1328 1327
f 1320 1313 1321 1328
o Load.Patch.L
v 0.060000 1.100000 -0.342000
v 0.060000 1.100000 -0.330000
v 0.120000 1.100000 -0.330000
v 0.120000 1.100000 -0.342000
v 0.060000 1.180000 -0.342000
v 0.060000 1.180000 -0.330000
v 0.120000 1.180000 -0.330000
v 0.120000 1.180000 -0.342000
usemtl LoadShade
s off
f 1332 1331 1330 1329
f 1333 1334 1335 1336
f 1329 1330 1334 1333
f 1330 1331 1335 1334
f 1331 1332 1336 1335
f 1332 1329 1333 1336
o Load.Patch.R
v -0.120000 1.100000 -0.342000
v -0.120000 1.100000 -0.330000
v -0.060000 1.100000 -0.330000
v -0.060000 1.100000 -0.342000
v -0.120000 1.180000 -0.342000
v -0.120000 1.180000 -0.330000
v -0.060000 1.180000 -0.330000
v -0.060000 1.180000 -0.342000
usemtl LoadShade
s off
f 1340 1339 1338 1337
f 1341 1342 1343 1344
f 1337 1338 1342 1341
f 1338 1339 1343 1342
f 1339 1340 1344 1343
f 1340 1337 1341 1344
