# villager_female.obj - Dorfbewohnerin fuer procedurally-generated-map
# Erzeugt aus Quadern und Pyramidenstuempfen. Einheiten: Meter, Y oben, Blick
# nach +Z - so wie Blender eine Figur exportiert (Standard-Achsen beim OBJ-Export).
# Die Objektnamen steuern die Animation: Leg.L/Leg.R schwingen an der Huefte,
# Leg.*.Lower (Unterschenkel) knickt zusaetzlich am Knie; Arm.L/Arm.R schwingen
# an der Schulter, Arm.*.Lower (Unterarm, Hand, Beil) am Ellbogen. Head (samt
# Haaren) dreht sich, Load waechst mit der Ladung. Material Tunic
# (Kleid) bekommt die Spielerfarbe, Load die Farbe der Ressource.
mtllib villager.mtl
o Leg.L.Lower.Shoe
v 0.078750 0.000000 -0.070000
v 0.055000 0.000000 -0.016250
v 0.055000 0.000000 0.091250
v 0.078750 0.000000 0.145000
v 0.126250 0.000000 0.145000
v 0.150000 0.000000 0.091250
v 0.150000 0.000000 -0.016250
v 0.126250 0.000000 -0.070000
v 0.078750 0.080000 -0.065000
v 0.055000 0.080000 -0.031250
v 0.055000 0.080000 0.036250
v 0.078750 0.080000 0.070000
v 0.126250 0.080000 0.070000
v 0.150000 0.080000 0.036250
v 0.150000 0.080000 -0.031250
v 0.126250 0.080000 -0.065000
usemtl Boots
s off
f 8 7 6 5 4 3 2 1
f 9 10 11 12 13 14 15 16
f 1 2 10 9
f 2 3 11 10
f 3 4 12 11
f 4 5 13 12
f 5 6 14 13
f 6 7 15 14
f 7 8 16 15
f 8 1 9 16
o Leg.R.Lower.Shoe
v -0.126250 0.000000 -0.070000
v -0.150000 0.000000 -0.016250
v -0.150000 0.000000 0.091250
v -0.126250 0.000000 0.145000
v -0.078750 0.000000 0.145000
v -0.055000 0.000000 0.091250
v -0.055000 0.000000 -0.016250
v -0.078750 0.000000 -0.070000
v -0.126250 0.080000 -0.065000
v -0.150000 0.080000 -0.031250
v -0.150000 0.080000 0.036250
v -0.126250 0.080000 0.070000
v -0.078750 0.080000 0.070000
v -0.055000 0.080000 0.036250
v -0.055000 0.080000 -0.031250
v -0.078750 0.080000 -0.065000
usemtl Boots
s off
f 24 23 22 21 20 19 18 17
f 25 26 27 28 29 30 31 32
f 17 18 26 25
f 18 19 27 26
f 19 20 28 27
f 20 21 29 28
f 21 22 30 29
f 22 23 31 30
f 23 24 32 31
f 24 17 25 32
o Leg.L.Lower.Strap
v 0.053000 0.055000 0.020000
v 0.053000 0.055000 0.100000
v 0.152000 0.055000 0.100000
v 0.152000 0.055000 0.020000
v 0.053000 0.070000 0.020000
v 0.053000 0.070000 0.100000
v 0.152000 0.070000 0.100000
v 0.152000 0.070000 0.020000
usemtl BootsDark
s off
f 36 35 34 33
f 37 38 39 40
f 33 34 38 37
f 34 35 39 38
f 35 36 40 39
f 36 33 37 40
o Leg.R.Lower.Strap
v -0.152000 0.055000 0.020000
v -0.152000 0.055000 0.100000
v -0.053000 0.055000 0.100000
v -0.053000 0.055000 0.020000
v -0.152000 0.070000 0.020000
v -0.152000 0.070000 0.100000
v -0.053000 0.070000 0.100000
v -0.053000 0.070000 0.020000
usemtl BootsDark
s off
f 44 43 42 41
f 45 46 47 48
f 41 42 46 45
f 42 43 47 46
f 43 44 48 47
f 44 41 45 48
o Leg.L.Lower.Shin
v 0.086900 0.080000 -0.050000
v 0.062000 0.080000 -0.020000
v 0.062000 0.080000 0.020000
v 0.086900 0.080000 0.050000
v 0.120100 0.080000 0.050000
v 0.145000 0.080000 0.020000
v 0.145000 0.080000 -0.020000
v 0.120100 0.080000 -0.050000
v 0.081500 0.460000 -0.065000
v 0.050000 0.460000 -0.026000
v 0.050000 0.460000 0.026000
v 0.081500 0.460000 0.065000
v 0.123500 0.460000 0.065000
v 0.155000 0.460000 0.026000
v 0.155000 0.460000 -0.026000
v 0.123500 0.460000 -0.065000
usemtl Wool
s off
f 56 55 54 53 52 51 50 49
f 57 58 59 60 61 62 63 64
f 49 50 58 57
f 50 51 59 58
f 51 52 60 59
f 52 53 61 60
f 53 54 62 61
f 54 55 63 62
f 55 56 64 63
f 56 49 57 64
o Leg.R.Lower.Shin
v -0.120100 0.080000 -0.050000
v -0.145000 0.080000 -0.020000
v -0.145000 0.080000 0.020000
v -0.120100 0.080000 0.050000
v -0.086900 0.080000 0.050000
v -0.062000 0.080000 0.020000
v -0.062000 0.080000 -0.020000
v -0.086900 0.080000 -0.050000
v -0.123500 0.460000 -0.065000
v -0.155000 0.460000 -0.026000
v -0.155000 0.460000 0.026000
v -0.123500 0.460000 0.065000
v -0.081500 0.460000 0.065000
v -0.050000 0.460000 0.026000
v -0.050000 0.460000 -0.026000
v -0.081500 0.460000 -0.065000
usemtl Wool
s off
f 72 71 70 69 68 67 66 65
f 73 74 75 76 77 78 79 80
f 65 66 74 73
f 66 67 75 74
f 67 68 76 75
f 68 69 77 76
f 69 70 78 77
f 70 71 79 78
f 71 72 80 79
f 72 65 73 80
o Leg.L
v 0.081500 0.410000 -0.065000
v 0.050000 0.410000 -0.026000
v 0.050000 0.410000 0.026000
v 0.081500 0.410000 0.065000
v 0.123500 0.410000 0.065000
v 0.155000 0.410000 0.026000
v 0.155000 0.410000 -0.026000
v 0.123500 0.410000 -0.065000
v 0.071000 0.800000 -0.090000
v 0.020000 0.800000 -0.036000
v 0.020000 0.800000 0.036000
v 0.071000 0.800000 0.090000
v 0.139000 0.800000 0.090000
v 0.190000 0.800000 0.036000
v 0.190000 0.800000 -0.036000
v 0.139000 0.800000 -0.090000
usemtl Wool
s off
f 88 87 86 85 84 83 82 81
f 89 90 91 92 93 94 95 96
f 81 82 90 89
f 82 83 91 90
f 83 84 92 91
f 84 85 93 92
f 85 86 94 93
f 86 87 95 94
f 87 88 96 95
f 88 81 89 96
o Leg.R
v -0.123500 0.410000 -0.065000
v -0.155000 0.410000 -0.026000
v -0.155000 0.410000 0.026000
v -0.123500 0.410000 0.065000
v -0.081500 0.410000 0.065000
v -0.050000 0.410000 0.026000
v -0.050000 0.410000 -0.026000
v -0.081500 0.410000 -0.065000
v -0.139000 0.800000 -0.090000
v -0.190000 0.800000 -0.036000
v -0.190000 0.800000 0.036000
v -0.139000 0.800000 0.090000
v -0.071000 0.800000 0.090000
v -0.020000 0.800000 0.036000
v -0.020000 0.800000 -0.036000
v -0.071000 0.800000 -0.090000
usemtl Wool
s off
f 104 103 102 101 100 99 98 97
f 105 106 107 108 109 110 111 112
f 97 98 106 105
f 98 99 107 106
f 99 100 108 107
f 100 101 109 108
f 101 102 110 109
f 102 103 111 110
f 103 104 112 111
f 104 97 105 112
o Skirt
v -0.162400 0.100000 -0.250000
v -0.290000 0.100000 -0.135600
v -0.290000 0.100000 0.155600
v -0.162400 0.100000 0.270000
v 0.162400 0.100000 0.270000
v 0.290000 0.100000 0.155600
v 0.290000 0.100000 -0.135600
v 0.162400 0.100000 -0.250000
v -0.095200 0.970000 -0.110000
v -0.170000 0.970000 -0.061600
v -0.170000 0.970000 0.061600
v -0.095200 0.970000 0.110000
v 0.095200 0.970000 0.110000
v 0.170000 0.970000 0.061600
v 0.170000 0.970000 -0.061600
v 0.095200 0.970000 -0.110000
usemtl Tunic
s off
f 120 119 118 117 116 115 114 113
f 121 122 123 124 125 126 127 128
f 113 114 122 121
f 114 115 123 122
f 115 116 124 123
f 116 117 125 124
f 117 118 126 125
f 118 119 127 126
f 119 120 128 127
f 120 113 121 128
o Skirt.Fold
v -0.270000 0.100000 0.190000
v -0.270000 0.100000 0.225000
v -0.210000 0.100000 0.225000
v -0.210000 0.100000 0.190000
v -0.163800 0.870000 0.100000
v -0.163800 0.870000 0.120000
v -0.133800 0.870000 0.120000
v -0.133800 0.870000 0.100000
usemtl Tunic
s off
f 132 131 130 129
f 133 134 135 136
f 129 130 134 133
f 130 131 135 134
f 131 132 136 135
f 132 129 133 136
o Skirt.Fold
v 0.210000 0.100000 0.190000
v 0.210000 0.100000 0.225000
v 0.270000 0.100000 0.225000
v 0.270000 0.100000 0.190000
v 0.133800 0.870000 0.100000
v 0.133800 0.870000 0.120000
v 0.163800 0.870000 0.120000
v 0.163800 0.870000 0.100000
usemtl Tunic
s off
f 140 139 138 137
f 141 142 143 144
f 137 138 142 141
f 138 139 143 142
f 139 140 144 143
f 140 137 141 144
o Skirt.Fold
v -0.215000 0.100000 -0.265000
v -0.215000 0.100000 -0.235000
v -0.145000 0.100000 -0.235000
v -0.145000 0.100000 -0.265000
v -0.123000 0.870000 -0.130000
v -0.123000 0.870000 -0.110000
v -0.093000 0.870000 -0.110000
v -0.093000 0.870000 -0.130000
usemtl Tunic
s off
f 148 147 146 145
f 149 150 151 152
f 145 146 150 149
f 146 147 151 150
f 147 148 152 151
f 148 145 149 152
o Skirt.Fold
v -0.035000 0.100000 -0.265000
v -0.035000 0.100000 -0.235000
v 0.035000 0.100000 -0.235000
v 0.035000 0.100000 -0.265000
v -0.015000 0.870000 -0.130000
v -0.015000 0.870000 -0.110000
v 0.015000 0.870000 -0.110000
v 0.015000 0.870000 -0.130000
usemtl Tunic
s off
f 156 155 154 153
f 157 158 159 160
f 153 154 158 157
f 154 155 159 158
f 155 156 160 159
f 156 153 157 160
o Skirt.Fold
v 0.145000 0.100000 -0.265000
v 0.145000 0.100000 -0.235000
v 0.215000 0.100000 -0.235000
v 0.215000 0.100000 -0.265000
v 0.093000 0.870000 -0.130000
v 0.093000 0.870000 -0.110000
v 0.123000 0.870000 -0.110000
v 0.123000 0.870000 -0.130000
usemtl Tunic
s off
f 164 163 162 161
f 165 166 167 168
f 161 162 166 165
f 162 163 167 166
f 163 164 168 167
f 164 161 165 168
o Skirt.Petticoat
v -0.165760 0.065000 -0.256000
v -0.296000 0.065000 -0.138960
v -0.296000 0.065000 0.158960
v -0.165760 0.065000 0.276000
v 0.165760 0.065000 0.276000
v 0.296000 0.065000 0.158960
v 0.296000 0.065000 -0.138960
v 0.165760 0.065000 -0.256000
v -0.165760 0.120000 -0.256000
v -0.296000 0.120000 -0.138960
v -0.296000 0.120000 0.158960
v -0.165760 0.120000 0.276000
v 0.165760 0.120000 0.276000
v 0.296000 0.120000 0.158960
v 0.296000 0.120000 -0.138960
v 0.165760 0.120000 -0.256000
usemtl Wool
s off
f 176 175 174 173 172 171 170 169
f 177 178 179 180 181 182 183 184
f 169 170 178 177
f 170 171 179 178
f 171 172 180 179
f 172 173 181 180
f 173 174 182 181
f 174 175 183 182
f 175 176 184 183
f 176 169 177 184
o Apron
v -0.190000 0.180000 0.257000
v -0.190000 0.180000 0.270000
v 0.190000 0.180000 0.270000
v 0.190000 0.180000 0.257000
v -0.130000 0.950000 0.112000
v -0.130000 0.950000 0.124000
v 0.130000 0.950000 0.124000
v 0.130000 0.950000 0.112000
usemtl Apron
s off
f 188 187 186 185
f 189 190 191 192
f 185 186 190 189
f 186 187 191 190
f 187 188 192 191
f 188 185 189 192
o Apron.Hem
v -0.190000 0.180000 0.262000
v -0.190000 0.180000 0.276000
v 0.190000 0.180000 0.276000
v 0.190000 0.180000 0.262000
v -0.190000 0.220000 0.262000
v -0.190000 0.220000 0.276000
v 0.190000 0.220000 0.276000
v 0.190000 0.220000 0.262000
usemtl ApronShade
s off
f 196 195 194 193
f 197 198 199 200
f 193 194 198 197
f 194 195 199 198
f 195 196 200 199
f 196 193 197 200
o Apron.Pocket
v -0.130000 0.520000 0.200000
v -0.130000 0.520000 0.216000
v -0.020000 0.520000 0.216000
v -0.020000 0.520000 0.200000
v -0.130000 0.640000 0.180000
v -0.130000 0.640000 0.196000
v -0.020000 0.640000 0.196000
v -0.020000 0.640000 0.180000
usemtl ApronShade
s off
f 204 203 202 201
f 205 206 207 208
f 201 202 206 205
f 202 203 207 206
f 203 204 208 207
f 204 201 205 208
o Apron.Band
v -0.105600 0.940000 -0.118000
v -0.176000 0.940000 -0.070800
v -0.176000 0.940000 0.070800
v -0.105600 0.940000 0.118000
v 0.105600 0.940000 0.118000
v 0.176000 0.940000 0.070800
v 0.176000 0.940000 -0.070800
v 0.105600 0.940000 -0.118000
v -0.105600 0.990000 -0.118000
v -0.176000 0.990000 -0.070800
v -0.176000 0.990000 0.070800
v -0.105600 0.990000 0.118000
v 0.105600 0.990000 0.118000
v 0.176000 0.990000 0.070800
v 0.176000 0.990000 -0.070800
v 0.105600 0.990000 -0.118000
usemtl Apron
s off
f 216 215 214 213 212 211 210 209
f 217 218 219 220 221 222 223 224
f 209 210 218 217
f 210 211 219 218
f 211 212 220 219
f 212 213 221 220
f 213 214 222 221
f 214 215 223 222
f 215 216 224 223
f 216 209 217 224
o Apron.Bow.L
v 0.005000 0.935000 -0.132000
v 0.005000 0.935000 -0.114000
v 0.065000 0.935000 -0.114000
v 0.065000 0.935000 -0.132000
v 0.010000 1.005000 -0.132000
v 0.010000 1.005000 -0.114000
v 0.080000 1.005000 -0.114000
v 0.080000 1.005000 -0.132000
usemtl Apron
s off
f 228 227 226 225
f 229 230 231 232
f 225 226 230 229
f 226 227 231 230
f 227 228 232 231
f 228 225 229 232
o Apron.Bow.R
v -0.065000 0.935000 -0.132000
v -0.065000 0.935000 -0.114000
v -0.005000 0.935000 -0.114000
v -0.005000 0.935000 -0.132000
v -0.080000 1.005000 -0.132000
v -0.080000 1.005000 -0.114000
v -0.010000 1.005000 -0.114000
v -0.010000 1.005000 -0.132000
usemtl Apron
s off
f 236 235 234 233
f 237 238 239 240
f 233 234 238 237
f 234 235 239 238
f 235 236 240 239
f 236 233 237 240
o Apron.Tie.L
v 0.010000 0.750000 -0.140000
v 0.010000 0.750000 -0.120000
v 0.035000 0.750000 -0.120000
v 0.035000 0.750000 -0.140000
v 0.015000 0.950000 -0.140000
v 0.015000 0.950000 -0.120000
v 0.040000 0.950000 -0.120000
v 0.040000 0.950000 -0.140000
usemtl Apron
s off
f 244 243 242 241
f 245 246 247 248
f 241 242 246 245
f 242 243 247 246
f 243 244 248 247
f 244 241 245 248
o Apron.Tie.R
v -0.035000 0.750000 -0.140000
v -0.035000 0.750000 -0.120000
v -0.010000 0.750000 -0.120000
v -0.010000 0.750000 -0.140000
v -0.040000 0.950000 -0.140000
v -0.040000 0.950000 -0.120000
v -0.015000 0.950000 -0.120000
v -0.015000 0.950000 -0.140000
usemtl Apron
s off
f 252 251 250 249
f 253 254 255 256
f 249 250 254 253
f 250 251 255 254
f 251 252 256 255
f 252 249 253 256
o Bodice
v -0.099000 0.970000 -0.105000
v -0.165000 0.970000 -0.063000
v -0.165000 0.970000 0.063000
v -0.099000 0.970000 0.105000
v 0.099000 0.970000 0.105000
v 0.165000 0.970000 0.063000
v 0.165000 0.970000 -0.063000
v 0.099000 0.970000 -0.105000
v -0.114000 1.300000 -0.110000
v -0.190000 1.300000 -0.066000
v -0.190000 1.300000 0.066000
v -0.114000 1.300000 0.110000
v 0.114000 1.300000 0.110000
v 0.190000 1.300000 0.066000
v 0.190000 1.300000 -0.066000
v 0.114000 1.300000 -0.110000
usemtl Tunic
s off
f 264 263 262 261 260 259 258 257
f 265 266 267 268 269 270 271 272
f 257 258 266 265
f 258 259 267 266
f 259 260 268 267
f 260 261 269 268
f 261 262 270 269
f 262 263 271 270
f 263 264 272 271
f 264 257 265 272
o Bodice.Bust.L
v 0.052500 1.100000 0.085000
v 0.020000 1.100000 0.100000
v 0.020000 1.100000 0.130000
v 0.052500 1.100000 0.145000
v 0.117500 1.100000 0.145000
v 0.150000 1.100000 0.130000
v 0.150000 1.100000 0.100000
v 0.117500 1.100000 0.085000
v 0.052500 1.240000 0.095000
v 0.020000 1.240000 0.102500
v 0.020000 1.240000 0.117500
v 0.052500 1.240000 0.125000
v 0.117500 1.240000 0.125000
v 0.150000 1.240000 0.117500
v 0.150000 1.240000 0.102500
v 0.117500 1.240000 0.095000
usemtl Tunic
s off
f 280 279 278 277 276 275 274 273
f 281 282 283 284 285 286 287 288
f 273 274 282 281
f 274 275 283 282
f 275 276 284 283
f 276 277 285 284
f 277 278 286 285
f 278 279 287 286
f 279 280 288 287
f 280 273 281 288
o Bodice.Bust.R
v -0.117500 1.100000 0.085000
v -0.150000 1.100000 0.100000
v -0.150000 1.100000 0.130000
v -0.117500 1.100000 0.145000
v -0.052500 1.100000 0.145000
v -0.020000 1.100000 0.130000
v -0.020000 1.100000 0.100000
v -0.052500 1.100000 0.085000
v -0.117500 1.240000 0.095000
v -0.150000 1.240000 0.102500
v -0.150000 1.240000 0.117500
v -0.117500 1.240000 0.125000
v -0.052500 1.240000 0.125000
v -0.020000 1.240000 0.117500
v -0.020000 1.240000 0.102500
v -0.052500 1.240000 0.095000
usemtl Tunic
s off
f 296 295 294 293 292 291 290 289
f 297 298 299 300 301 302 303 304
f 289 290 298 297
f 290 291 299 298
f 291 292 300 299
f 292 293 301 300
f 293 294 302 301
f 294 295 303 302
f 295 296 304 303
f 296 289 297 304
o Bodice.Lace
v -0.008000 0.990000 0.104000
v -0.008000 0.990000 0.114000
v 0.008000 0.990000 0.114000
v 0.008000 0.990000 0.104000
v -0.008000 1.230000 0.104000
v -0.008000 1.230000 0.114000
v 0.008000 1.230000 0.114000
v 0.008000 1.230000 0.104000
usemtl Leather
s off
f 308 307 306 305
f 309 310 311 312
f 305 306 310 309
f 306 307 311 310
f 307 308 312 311
f 308 305 309 312
o Bodice.Lace.Cross
v -0.026000 1.000000 0.106000
v -0.026000 1.000000 0.116000
v 0.026000 1.000000 0.116000
v 0.026000 1.000000 0.106000
v -0.026000 1.009000 0.106000
v -0.026000 1.009000 0.116000
v 0.026000 1.009000 0.116000
v 0.026000 1.009000 0.106000
usemtl Leather
s off
f 316 315 314 313
f 317 318 319 320
f 313 314 318 317
f 314 315 319 318
f 315 316 320 319
f 316 313 317 320
o Bodice.Lace.Cross
v -0.026000 1.050000 0.106000
v -0.026000 1.050000 0.116000
v 0.026000 1.050000 0.116000
v 0.026000 1.050000 0.106000
v -0.026000 1.059000 0.106000
v -0.026000 1.059000 0.116000
v 0.026000 1.059000 0.116000
v 0.026000 1.059000 0.106000
usemtl Leather
s off
f 324 323 322 321
f 325 326 327 328
f 321 322 326 325
f 322 323 327 326
f 323 324 328 327
f 324 321 325 328
o Bodice.Lace.Cross
v -0.026000 1.100000 0.106000
v -0.026000 1.100000 0.116000
v 0.026000 1.100000 0.116000
v 0.026000 1.100000 0.106000
v -0.026000 1.109000 0.106000
v -0.026000 1.109000 0.116000
v 0.026000 1.109000 0.116000
v 0.026000 1.109000 0.106000
usemtl Leather
s off
f 332 331 330 329
f 333 334 335 336
f 329 330 334 333
f 330 331 335 334
f 331 332 336 335
f 332 329 333 336
o Bodice.Lace.Cross
v -0.026000 1.150000 0.106000
v -0.026000 1.150000 0.116000
v 0.026000 1.150000 0.116000
v 0.026000 1.150000 0.106000
v -0.026000 1.159000 0.106000
v -0.026000 1.159000 0.116000
v 0.026000 1.159000 0.116000
v 0.026000 1.159000 0.106000
usemtl Leather
s off
f 340 339 338 337
f 341 342 343 344
f 337 338 342 341
f 338 339 343 342
f 339 340 344 343
f 340 337 341 344
o Bodice.Lace.Cross
v -0.026000 1.200000 0.106000
v -0.026000 1.200000 0.116000
v 0.026000 1.200000 0.116000
v 0.026000 1.200000 0.106000
v -0.026000 1.209000 0.106000
v -0.026000 1.209000 0.116000
v 0.026000 1.209000 0.116000
v 0.026000 1.209000 0.106000
usemtl Leather
s off
f 348 347 346 345
f 349 350 351 352
f 345 346 350 349
f 346 347 351 350
f 347 348 352 351
f 348 345 349 352
o Blouse
v -0.114000 1.280000 -0.112000
v -0.190000 1.280000 -0.067200
v -0.190000 1.280000 0.067200
v -0.114000 1.280000 0.112000
v 0.114000 1.280000 0.112000
v 0.190000 1.280000 0.067200
v 0.190000 1.280000 -0.067200
v 0.114000 1.280000 -0.112000
v -0.090000 1.370000 -0.090000
v -0.150000 1.370000 -0.054000
v -0.150000 1.370000 0.054000
v -0.090000 1.370000 0.090000
v 0.090000 1.370000 0.090000
v 0.150000 1.370000 0.054000
v 0.150000 1.370000 -0.054000
v 0.090000 1.370000 -0.090000
usemtl Wool
s off
f 360 359 358 357 356 355 354 353
f 361 362 363 364 365 366 367 368
f 353 354 362 361
f 354 355 363 362
f 355 356 364 363
f 356 357 365 364
f 357 358 366 365
f 358 359 367 366
f 359 360 368 367
f 360 353 361 368
o Blouse.Frill
v -0.070000 1.355000 -0.088000
v -0.140000 1.355000 -0.043000
v -0.140000 1.355000 0.047000
v -0.070000 1.355000 0.092000
v 0.070000 1.355000 0.092000
v 0.140000 1.355000 0.047000
v 0.140000 1.355000 -0.043000
v 0.070000 1.355000 -0.088000
v -0.070000 1.380000 -0.088000
v -0.140000 1.380000 -0.043000
v -0.140000 1.380000 0.047000
v -0.070000 1.380000 0.092000
v 0.070000 1.380000 0.092000
v 0.140000 1.380000 0.047000
v 0.140000 1.380000 -0.043000
v 0.070000 1.380000 -0.088000
usemtl WoolShade
s off
f 376 375 374 373 372 371 370 369
f 377 378 379 380 381 382 383 384
f 369 370 378 377
f 370 371 379 378
f 371 372 380 379
f 372 373 381 380
f 373 374 382 381
f 374 375 383 382
f 375 376 384 383
f 376 369 377 384
o Neck
v -0.025000 1.340000 -0.050000
v -0.050000 1.340000 -0.025000
v -0.050000 1.340000 0.025000
v -0.025000 1.340000 0.050000
v 0.025000 1.340000 0.050000
v 0.050000 1.340000 0.025000
v 0.050000 1.340000 -0.025000
v 0.025000 1.340000 -0.050000
v -0.025000 1.420000 -0.050000
v -0.050000 1.420000 -0.025000
v -0.050000 1.420000 0.025000
v -0.025000 1.420000 0.050000
v 0.025000 1.420000 0.050000
v 0.050000 1.420000 0.025000
v 0.050000 1.420000 -0.025000
v 0.025000 1.420000 -0.050000
usemtl Skin
s off
f 392 391 390 389 388 387 386 385
f 393 394 395 396 397 398 399 400
f 385 386 394 393
f 386 387 395 394
f 387 388 396 395
f 388 389 397 396
f 389 390 398 397
f 390 391 399 398
f 391 392 400 399
f 392 385 393 400
o Necklace
v -0.022400 1.365000 -0.056000
v -0.056000 1.365000 -0.022400
v -0.056000 1.365000 0.022400
v -0.022400 1.365000 0.056000
v 0.022400 1.365000 0.056000
v 0.056000 1.365000 0.022400
v 0.056000 1.365000 -0.022400
v 0.022400 1.365000 -0.056000
v -0.022400 1.378000 -0.056000
v -0.056000 1.378000 -0.022400
v -0.056000 1.378000 0.022400
v -0.022400 1.378000 0.056000
v 0.022400 1.378000 0.056000
v 0.056000 1.378000 0.022400
v 0.056000 1.378000 -0.022400
v 0.022400 1.378000 -0.056000
usemtl Leather
s off
f 408 407 406 405 404 403 402 401
f 409 410 411 412 413 414 415 416
f 401 402 410 409
f 402 403 411 410
f 403 404 412 411
f 404 405 413 412
f 405 406 414 413
f 406 407 415 414
f 407 408 416 415
f 408 401 409 416
o Necklace.Pendant
v -0.014000 1.320000 0.085000
v -0.014000 1.320000 0.098000
v 0.014000 1.320000 0.098000
v 0.014000 1.320000 0.085000
v -0.014000 1.355000 0.085000
v -0.014000 1.355000 0.098000
v 0.014000 1.355000 0.098000
v 0.014000 1.355000 0.085000
usemtl Brass
s off
f 420 419 418 417
f 421 422 423 424
f 417 418 422 421
f 418 419 423 422
f 419 420 424 423
f 420 417 421 424
o Head
v -0.064800 1.400000 -0.110000
v -0.108000 1.400000 -0.066400
v -0.108000 1.400000 0.064400
v -0.064800 1.400000 0.108000
v 0.064800 1.400000 0.108000
v 0.108000 1.400000 0.064400
v 0.108000 1.400000 -0.066400
v 0.064800 1.400000 -0.110000
v -0.070800 1.660000 -0.120000
v -0.118000 1.660000 -0.072800
v -0.118000 1.660000 0.068800
v -0.070800 1.660000 0.116000
v 0.070800 1.660000 0.116000
v 0.118000 1.660000 0.068800
v 0.118000 1.660000 -0.072800
v 0.070800 1.660000 -0.120000
usemtl Skin
s off
f 432 431 430 429 428 427 426 425
f 433 434 435 436 437 438 439 440
f 425 426 434 433
f 426 427 435 434
f 427 428 436 435
f 428 429 437 436
f 429 430 438 437
f 430 431 439 438
f 431 432 440 439
f 432 425 433 440
o Head.Jaw
v -0.051000 1.380000 -0.020000
v -0.085000 1.380000 0.004000
v -0.085000 1.380000 0.076000
v -0.051000 1.380000 0.100000
v 0.051000 1.380000 0.100000
v 0.085000 1.380000 0.076000
v 0.085000 1.380000 0.004000
v 0.051000 1.380000 -0.020000
v -0.062400 1.450000 -0.040000
v -0.104000 1.450000 -0.010400
v -0.104000 1.450000 0.078400
v -0.062400 1.450000 0.108000
v 0.062400 1.450000 0.108000
v 0.104000 1.450000 0.078400
v 0.104000 1.450000 -0.010400
v 0.062400 1.450000 -0.040000
usemtl Skin
s off
f 448 447 446 445 444 443 442 441
f 449 450 451 452 453 454 455 456
f 441 442 450 449
f 442 443 451 450
f 443 444 452 451
f 444 445 453 452
f 445 446 454 453
f 446 447 455 454
f 447 448 456 455
f 448 441 449 456
o Head.Nose
v -0.022000 1.495000 0.105000
v -0.022000 1.495000 0.148000
v 0.022000 1.495000 0.148000
v 0.022000 1.495000 0.105000
v -0.012000 1.565000 0.105000
v -0.012000 1.565000 0.124000
v 0.012000 1.565000 0.124000
v 0.012000 1.565000 0.105000
usemtl Skin
s off
f 460 459 458 457
f 461 462 463 464
f 457 458 462 461
f 458 459 463 462
f 459 460 464 463
f 460 457 461 464
o Head.Nostril.L
v 0.006000 1.495000 0.130000
v 0.006000 1.495000 0.142000
v 0.018000 1.495000 0.142000
v 0.018000 1.495000 0.130000
v 0.006000 1.502000 0.130000
v 0.006000 1.502000 0.142000
v 0.018000 1.502000 0.142000
v 0.018000 1.502000 0.130000
usemtl SkinShade
s off
f 468 467 466 465
f 469 470 471 472
f 465 466 470 469
f 466 467 471 470
f 467 468 472 471
f 468 465 469 472
o Head.Nostril.R
v -0.018000 1.495000 0.130000
v -0.018000 1.495000 0.142000
v -0.006000 1.495000 0.142000
v -0.006000 1.495000 0.130000
v -0.018000 1.502000 0.130000
v -0.018000 1.502000 0.142000
v -0.006000 1.502000 0.142000
v -0.006000 1.502000 0.130000
usemtl SkinShade
s off
f 476 475 474 473
f 477 478 479 480
f 473 474 478 477
f 474 475 479 478
f 475 476 480 479
f 476 473 477 480
o Head.Cheek.L
v 0.065000 1.470000 0.095000
v 0.050000 1.470000 0.101300
v 0.050000 1.470000 0.109700
v 0.065000 1.470000 0.116000
v 0.085000 1.470000 0.116000
v 0.100000 1.470000 0.109700
v 0.100000 1.470000 0.101300
v 0.085000 1.470000 0.095000
v 0.065000 1.540000 0.095000
v 0.050000 1.540000 0.100100
v 0.050000 1.540000 0.106900
v 0.065000 1.540000 0.112000
v 0.085000 1.540000 0.112000
v 0.100000 1.540000 0.106900
v 0.100000 1.540000 0.100100
v 0.085000 1.540000 0.095000
usemtl Skin
s off
f 488 487 486 485 484 483 482 481
f 489 490 491 492 493 494 495 496
f 481 482 490 489
f 482 483 491 490
f 483 484 492 491
f 484 485 493 492
f 485 486 494 493
f 486 487 495 494
f 487 488 496 495
f 488 481 489 496
o Head.Cheek.R
v -0.085000 1.470000 0.095000
v -0.100000 1.470000 0.101300
v -0.100000 1.470000 0.109700
v -0.085000 1.470000 0.116000
v -0.065000 1.470000 0.116000
v -0.050000 1.470000 0.109700
v -0.050000 1.470000 0.101300
v -0.065000 1.470000 0.095000
v -0.085000 1.540000 0.095000
v -0.100000 1.540000 0.100100
v -0.100000 1.540000 0.106900
v -0.085000 1.540000 0.112000
v -0.065000 1.540000 0.112000
v -0.050000 1.540000 0.106900
v -0.050000 1.540000 0.100100
v -0.065000 1.540000 0.095000
usemtl Skin
s off
f 504 503 502 501 500 499 498 497
f 505 506 507 508 509 510 511 512
f 497 498 506 505
f 498 499 507 506
f 499 500 508 507
f 500 501 509 508
f 501 502 510 509
f 502 503 511 510
f 503 504 512 511
f 504 497 505 512
o Head.EyeWhite.L
v 0.030000 1.555000 0.108000
v 0.030000 1.555000 0.118000
v 0.080000 1.555000 0.118000
v 0.080000 1.555000 0.108000
v 0.030000 1.588000 0.108000
v 0.030000 1.588000 0.118000
v 0.080000 1.588000 0.118000
v 0.080000 1.588000 0.108000
usemtl EyeWhite
s off
f 516 515 514 513
f 517 518 519 520
f 513 514 518 517
f 514 515 519 518
f 515 516 520 519
f 516 513 517 520
o Head.EyeWhite.R
v -0.080000 1.555000 0.108000
v -0.080000 1.555000 0.118000
v -0.030000 1.555000 0.118000
v -0.030000 1.555000 0.108000
v -0.080000 1.588000 0.108000
v -0.080000 1.588000 0.118000
v -0.030000 1.588000 0.118000
v -0.030000 1.588000 0.108000
usemtl EyeWhite
s off
f 524 523 522 521
f 525 526 527 528
f 521 522 526 525
f 522 523 527 526
f 523 524 528 527
f 524 521 525 528
o Head.Eye.L
v 0.044000 1.557000 0.114000
v 0.044000 1.557000 0.121000
v 0.068000 1.557000 0.121000
v 0.068000 1.557000 0.114000
v 0.044000 1.586000 0.114000
v 0.044000 1.586000 0.121000
v 0.068000 1.586000 0.121000
v 0.068000 1.586000 0.114000
usemtl Eyes
s off
f 532 531 530 529
f 533 534 535 536
f 529 530 534 533
f 530 531 535 534
f 531 532 536 535
f 532 529 533 536
o Head.Eye.R
v -0.068000 1.557000 0.114000
v -0.068000 1.557000 0.121000
v -0.044000 1.557000 0.121000
v -0.044000 1.557000 0.114000
v -0.068000 1.586000 0.114000
v -0.068000 1.586000 0.121000
v -0.044000 1.586000 0.121000
v -0.044000 1.586000 0.114000
usemtl Eyes
s off
f 540 539 538 537
f 541 542 543 544
f 537 538 542 541
f 538 539 543 542
f 539 540 544 543
f 540 537 541 544
o Head.Lid.L
v 0.028000 1.586000 0.108000
v 0.028000 1.586000 0.120000
v 0.082000 1.586000 0.120000
v 0.082000 1.586000 0.108000
v 0.028000 1.596000 0.108000
v 0.028000 1.596000 0.120000
v 0.082000 1.596000 0.120000
v 0.082000 1.596000 0.108000
usemtl SkinShade
s off
f 548 547 546 545
f 549 550 551 552
f 545 546 550 549
f 546 547 551 550
f 547 548 552 551
f 548 545 549 552
o Head.Lid.R
v -0.082000 1.586000 0.108000
v -0.082000 1.586000 0.120000
v -0.028000 1.586000 0.120000
v -0.028000 1.586000 0.108000
v -0.082000 1.596000 0.108000
v -0.082000 1.596000 0.120000
v -0.028000 1.596000 0.120000
v -0.028000 1.596000 0.108000
usemtl SkinShade
s off
f 556 555 554 553
f 557 558 559 560
f 553 554 558 557
f 554 555 559 558
f 555 556 560 559
f 556 553 557 560
o Head.Brow.L
v 0.024000 1.600000 0.110000
v 0.024000 1.600000 0.125000
v 0.088000 1.600000 0.125000
v 0.088000 1.600000 0.110000
v 0.030000 1.616000 0.110000
v 0.030000 1.616000 0.125000
v 0.084000 1.616000 0.125000
v 0.084000 1.616000 0.110000
usemtl Hair
s off
f 564 563 562 561
f 565 566 567 568
f 561 562 566 565
f 562 563 567 566
f 563 564 568 567
f 564 561 565 568
o Head.Brow.R
v -0.088000 1.600000 0.110000
v -0.088000 1.600000 0.125000
v -0.024000 1.600000 0.125000
v -0.024000 1.600000 0.110000
v -0.084000 1.616000 0.110000
v -0.084000 1.616000 0.125000
v -0.030000 1.616000 0.125000
v -0.030000 1.616000 0.110000
usemtl Hair
s off
f 572 571 570 569
f 573 574 575 576
f 569 570 574 573
f 570 571 575 574
f 571 572 576 575
f 572 569 573 576
o Head.Mouth
v -0.034000 1.464000 0.104000
v -0.034000 1.464000 0.116000
v 0.034000 1.464000 0.116000
v 0.034000 1.464000 0.104000
v -0.030000 1.480000 0.104000
v -0.030000 1.480000 0.116000
v 0.030000 1.480000 0.116000
v 0.030000 1.480000 0.104000
usemtl Lips
s off
f 580 579 578 577
f 581 582 583 584
f 577 578 582 581
f 578 579 583 582
f 579 580 584 583
f 580 577 581 584
o Head.Ear.L
v 0.117200 1.500000 -0.035000
v 0.110000 1.500000 -0.018500
v 0.110000 1.500000 0.003500
v 0.117200 1.500000 0.020000
v 0.126800 1.500000 0.020000
v 0.134000 1.500000 0.003500
v 0.134000 1.500000 -0.018500
v 0.126800 1.500000 -0.035000
v 0.117200 1.580000 -0.035000
v 0.110000 1.580000 -0.018500
v 0.110000 1.580000 0.003500
v 0.117200 1.580000 0.020000
v 0.126800 1.580000 0.020000
v 0.134000 1.580000 0.003500
v 0.134000 1.580000 -0.018500
v 0.126800 1.580000 -0.035000
usemtl Skin
s off
f 592 591 590 589 588 587 586 585
f 593 594 595 596 597 598 599 600
f 585 586 594 593
f 586 587 595 594
f 587 588 596 595
f 588 589 597 596
f 589 590 598 597
f 590 591 599 598
f 591 592 600 599
f 592 585 593 600
o Head.Ear.R
v -0.126800 1.500000 -0.035000
v -0.134000 1.500000 -0.018500
v -0.134000 1.500000 0.003500
v -0.126800 1.500000 0.020000
v -0.117200 1.500000 0.020000
v -0.110000 1.500000 0.003500
v -0.110000 1.500000 -0.018500
v -0.117200 1.500000 -0.035000
v -0.126800 1.580000 -0.035000
v -0.134000 1.580000 -0.018500
v -0.134000 1.580000 0.003500
v -0.126800 1.580000 0.020000
v -0.117200 1.580000 0.020000
v -0.110000 1.580000 0.003500
v -0.110000 1.580000 -0.018500
v -0.117200 1.580000 -0.035000
usemtl Skin
s off
f 608 607 606 605 604 603 602 601
f 609 610 611 612 613 614 615 616
f 601 602 610 609
f 602 603 611 610
f 603 604 612 611
f 604 605 613 612
f 605 606 614 613
f 606 607 615 614
f 607 608 616 615
f 608 601 609 616
o Head.Ear.Inner.L
v 0.132000 1.515000 -0.022000
v 0.132000 1.515000 0.008000
v 0.136000 1.515000 0.008000
v 0.136000 1.515000 -0.022000
v 0.132000 1.565000 -0.022000
v 0.132000 1.565000 0.008000
v 0.136000 1.565000 0.008000
v 0.136000 1.565000 -0.022000
usemtl SkinShade
s off
f 620 619 618 617
f 621 622 623 624
f 617 618 622 621
f 618 619 623 622
f 619 620 624 623
f 620 617 621 624
o Head.Ear.Inner.R
v -0.136000 1.515000 -0.022000
v -0.136000 1.515000 0.008000
v -0.132000 1.515000 0.008000
v -0.132000 1.515000 -0.022000
v -0.136000 1.565000 -0.022000
v -0.136000 1.565000 0.008000
v -0.132000 1.565000 0.008000
v -0.132000 1.565000 -0.022000
usemtl SkinShade
s off
f 628 627 626 625
f 629 630 631 632
f 625 626 630 629
f 626 627 631 630
f 627 628 632 631
f 628 625 629 632
o Head.Hair.Top
v -0.050400 1.615000 -0.130000
v -0.126000 1.615000 -0.053800
v -0.126000 1.615000 0.047800
v -0.050400 1.615000 0.124000
v 0.050400 1.615000 0.124000
v 0.126000 1.615000 0.047800
v 0.126000 1.615000 -0.053800
v 0.050400 1.615000 -0.130000
v -0.038000 1.705000 -0.100000
v -0.095000 1.705000 -0.040000
v -0.095000 1.705000 0.040000
v -0.038000 1.705000 0.100000
v 0.038000 1.705000 0.100000
v 0.095000 1.705000 0.040000
v 0.095000 1.705000 -0.040000
v 0.038000 1.705000 -0.100000
usemtl Hair
s off
f 640 639 638 637 636 635 634 633
f 641 642 643 644 645 646 647 648
f 633 634 642 641
f 634 635 643 642
f 635 636 644 643
f 636 637 645 644
f 637 638 646 645
f 638 639 647 646
f 639 640 648 647
f 640 633 641 648
o Head.Hair.Back
v -0.061000 1.460000 -0.130000
v -0.122000 1.460000 -0.102500
v -0.122000 1.460000 -0.047500
v -0.061000 1.460000 -0.020000
v 0.061000 1.460000 -0.020000
v 0.122000 1.460000 -0.047500
v 0.122000 1.460000 -0.102500
v 0.061000 1.460000 -0.130000
v -0.063000 1.630000 -0.130000
v -0.126000 1.630000 -0.102500
v -0.126000 1.630000 -0.047500
v -0.063000 1.630000 -0.020000
v 0.063000 1.630000 -0.020000
v 0.126000 1.630000 -0.047500
v 0.126000 1.630000 -0.102500
v 0.063000 1.630000 -0.130000
usemtl Hair
s off
f 656 655 654 653 652 651 650 649
f 657 658 659 660 661 662 663 664
f 649 650 658 657
f 650 651 659 658
f 651 652 660 659
f 652 653 661 660
f 653 654 662 661
f 654 655 663 662
f 655 656 664 663
f 656 649 657 664
o Head.Hair.Side.L
v 0.112000 1.570000 -0.030000
v 0.112000 1.570000 0.080000
v 0.128000 1.570000 0.080000
v 0.128000 1.570000 -0.030000
v 0.112000 1.630000 -0.030000
v 0.112000 1.630000 0.080000
v 0.128000 1.630000 0.080000
v 0.128000 1.630000 -0.030000
usemtl Hair
s off
f 668 667 666 665
f 669 670 671 672
f 665 666 670 669
f 666 667 671 670
f 667 668 672 671
f 668 665 669 672
o Head.Hair.Side.R
v -0.128000 1.570000 -0.030000
v -0.128000 1.570000 0.080000
v -0.112000 1.570000 0.080000
v -0.112000 1.570000 -0.030000
v -0.128000 1.630000 -0.030000
v -0.128000 1.630000 0.080000
v -0.112000 1.630000 0.080000
v -0.112000 1.630000 -0.030000
usemtl Hair
s off
f 676 675 674 673
f 677 678 679 680
f 673 674 678 677
f 674 675 679 678
f 675 676 680 679
f 676 673 677 680
o Head.Hair.Fringe.L
v 0.005000 1.590000 0.100000
v 0.005000 1.590000 0.130000
v 0.110000 1.590000 0.130000
v 0.110000 1.590000 0.100000
v 0.000000 1.635000 0.100000
v 0.000000 1.635000 0.130000
v 0.100000 1.635000 0.130000
v 0.100000 1.635000 0.100000
usemtl Hair
s off
f 684 683 682 681
f 685 686 687 688
f 681 682 686 685
f 682 683 687 686
f 683 684 688 687
f 684 681 685 688
o Head.Hair.Fringe.R
v -0.110000 1.590000 0.100000
v -0.110000 1.590000 0.130000
v -0.005000 1.590000 0.130000
v -0.005000 1.590000 0.100000
v -0.100000 1.635000 0.100000
v -0.100000 1.635000 0.130000
v 0.000000 1.635000 0.130000
v 0.000000 1.635000 0.100000
usemtl Hair
s off
f 692 691 690 689
f 693 694 695 696
f 689 690 694 693
f 690 691 695 694
f 691 692 696 695
f 692 689 693 696
o Head.Hair.Bun
v -0.028000 1.550000 -0.190000
v -0.070000 1.550000 -0.160000
v -0.070000 1.550000 -0.120000
v -0.028000 1.550000 -0.090000
v 0.028000 1.550000 -0.090000
v 0.070000 1.550000 -0.120000
v 0.070000 1.550000 -0.160000
v 0.028000 1.550000 -0.190000
v -0.022000 1.690000 -0.175000
v -0.055000 1.690000 -0.149500
v -0.055000 1.690000 -0.115500
v -0.022000 1.690000 -0.090000
v 0.022000 1.690000 -0.090000
v 0.055000 1.690000 -0.115500
v 0.055000 1.690000 -0.149500
v 0.022000 1.690000 -0.175000
usemtl Hair
s off
f 704 703 702 701 700 699 698 697
f 705 706 707 708 709 710 711 712
f 697 698 706 705
f 698 699 707 706
f 699 700 708 707
f 700 701 709 708
f 701 702 710 709
f 702 703 711 710
f 703 704 712 711
f 704 697 705 712
o Head.Hair.Tie
v -0.034800 1.600000 -0.120000
v -0.058000 1.600000 -0.112000
v -0.058000 1.600000 -0.088000
v -0.034800 1.600000 -0.080000
v 0.034800 1.600000 -0.080000
v 0.058000 1.600000 -0.088000
v 0.058000 1.600000 -0.112000
v 0.034800 1.600000 -0.120000
v -0.034800 1.625000 -0.120000
v -0.058000 1.625000 -0.112000
v -0.058000 1.625000 -0.088000
v -0.034800 1.625000 -0.080000
v 0.034800 1.625000 -0.080000
v 0.058000 1.625000 -0.088000
v 0.058000 1.625000 -0.112000
v 0.034800 1.625000 -0.120000
usemtl Band
s off
f 720 719 718 717 716 715 714 713
f 721 722 723 724 725 726 727 728
f 713 714 722 721
f 714 715 723 722
f 715 716 724 723
f 716 717 725 724
f 717 718 726 725
f 718 719 727 726
f 719 720 728 727
f 720 713 721 728
o Head.Hair.Lock.L
v 0.108000 1.420000 0.025000
v 0.108000 1.420000 0.080000
v 0.130000 1.420000 0.080000
v 0.130000 1.420000 0.025000
v 0.110000 1.580000 0.025000
v 0.110000 1.580000 0.080000
v 0.128000 1.580000 0.080000
v 0.128000 1.580000 0.025000
usemtl Hair
s off
f 732 731 730 729
f 733 734 735 736
f 729 730 734 733
f 730 731 735 734
f 731 732 736 735
f 732 729 733 736
o Head.Hair.Lock.R
v -0.130000 1.420000 0.025000
v -0.130000 1.420000 0.080000
v -0.108000 1.420000 0.080000
v -0.108000 1.420000 0.025000
v -0.128000 1.580000 0.025000
v -0.128000 1.580000 0.080000
v -0.110000 1.580000 0.080000
v -0.110000 1.580000 0.025000
usemtl Hair
s off
f 740 739 738 737
f 741 742 743 744
f 737 738 742 741
f 738 739 743 742
f 739 740 744 743
f 740 737 741 744
o Head.Lash.L
v 0.078000 1.580000 0.110000
v 0.078000 1.580000 0.120000
v 0.088000 1.580000 0.120000
v 0.088000 1.580000 0.110000
v 0.078000 1.592000 0.110000
v 0.078000 1.592000 0.120000
v 0.088000 1.592000 0.120000
v 0.088000 1.592000 0.110000
usemtl Eyes
s off
f 748 747 746 745
f 749 750 751 752
f 745 746 750 749
f 746 747 751 750
f 747 748 752 751
f 748 745 749 752
o Head.Lash.R
v -0.088000 1.580000 0.110000
v -0.088000 1.580000 0.120000
v -0.078000 1.580000 0.120000
v -0.078000 1.580000 0.110000
v -0.088000 1.592000 0.110000
v -0.088000 1.592000 0.120000
v -0.078000 1.592000 0.120000
v -0.078000 1.592000 0.110000
usemtl Eyes
s off
f 756 755 754 753
f 757 758 759 760
f 753 754 758 757
f 754 755 759 758
f 755 756 760 759
f 756 753 757 760
o Arm.L
v 0.225500 1.000000 -0.068000
v 0.200000 1.000000 -0.027200
v 0.200000 1.000000 0.027200
v 0.225500 1.000000 0.068000
v 0.259500 1.000000 0.068000
v 0.285000 1.000000 0.027200
v 0.285000 1.000000 -0.027200
v 0.259500 1.000000 -0.068000
v 0.222200 1.360000 -0.080000
v 0.188000 1.360000 -0.032000
v 0.188000 1.360000 0.032000
v 0.222200 1.360000 0.080000
v 0.267800 1.360000 0.080000
v 0.302000 1.360000 0.032000
v 0.302000 1.360000 -0.032000
v 0.267800 1.360000 -0.080000
usemtl Wool
s off
f 768 767 766 765 764 763 762 761
f 769 770 771 772 773 774 775 776
f 761 762 770 769
f 762 763 771 770
f 763 764 772 771
f 764 765 773 772
f 765 766 774 773
f 766 767 775 774
f 767 768 776 775
f 768 761 769 776
o Arm.R
v -0.259500 1.000000 -0.068000
v -0.285000 1.000000 -0.027200
v -0.285000 1.000000 0.027200
v -0.259500 1.000000 0.068000
v -0.225500 1.000000 0.068000
v -0.200000 1.000000 0.027200
v -0.200000 1.000000 -0.027200
v -0.225500 1.000000 -0.068000
v -0.267800 1.360000 -0.080000
v -0.302000 1.360000 -0.032000
v -0.302000 1.360000 0.032000
v -0.267800 1.360000 0.080000
v -0.222200 1.360000 0.080000
v -0.188000 1.360000 0.032000
v -0.188000 1.360000 -0.032000
v -0.222200 1.360000 -0.080000
usemtl Wool
s off
f 784 783 782 781 780 779 778 777
f 785 786 787 788 789 790 791 792
f 777 778 786 785
f 778 779 787 786
f 779 780 788 787
f 780 781 789 788
f 781 782 790 789
f 782 783 791 790
f 783 784 792 791
f 784 777 785 792
o Arm.L.Puff
v 0.229800 1.200000 -0.082000
v 0.192000 1.200000 -0.024600
v 0.192000 1.200000 0.024600
v 0.229800 1.200000 0.082000
v 0.262200 1.200000 0.082000
v 0.300000 1.200000 0.024600
v 0.300000 1.200000 -0.024600
v 0.262200 1.200000 -0.082000
v 0.228500 1.340000 -0.082000
v 0.190000 1.340000 -0.024600
v 0.190000 1.340000 0.024600
v 0.228500 1.340000 0.082000
v 0.261500 1.340000 0.082000
v 0.300000 1.340000 0.024600
v 0.300000 1.340000 -0.024600
v 0.261500 1.340000 -0.082000
usemtl Wool
s off
f 800 799 798 797 796 795 794 793
f 801 802 803 804 805 806 807 808
f 793 794 802 801
f 794 795 803 802
f 795 796 804 803
f 796 797 805 804
f 797 798 806 805
f 798 799 807 806
f 799 800 808 807
f 800 793 801 808
o Arm.R.Puff
v -0.262200 1.200000 -0.082000
v -0.300000 1.200000 -0.024600
v -0.300000 1.200000 0.024600
v -0.262200 1.200000 0.082000
v -0.229800 1.200000 0.082000
v -0.192000 1.200000 0.024600
v -0.192000 1.200000 -0.024600
v -0.229800 1.200000 -0.082000
v -0.261500 1.340000 -0.082000
v -0.300000 1.340000 -0.024600
v -0.300000 1.340000 0.024600
v -0.261500 1.340000 0.082000
v -0.228500 1.340000 0.082000
v -0.190000 1.340000 0.024600
v -0.190000 1.340000 -0.024600
v -0.228500 1.340000 -0.082000
usemtl Wool
s off
f 816 815 814 813 812 811 810 809
f 817 818 819 820 821 822 823 824
f 809 810 818 817
f 810 811 819 818
f 811 812 820 819
f 812 813 821 820
f 813 814 822 821
f 814 815 823 822
f 815 816 824 823
f 816 809 817 824
o Arm.L.Cuff
v 0.224200 1.020000 -0.074000
v 0.196000 1.020000 -0.029600
v 0.196000 1.020000 0.029600
v 0.224200 1.020000 0.074000
v 0.261800 1.020000 0.074000
v 0.290000 1.020000 0.029600
v 0.290000 1.020000 -0.029600
v 0.261800 1.020000 -0.074000
v 0.224200 1.080000 -0.074000
v 0.196000 1.080000 -0.029600
v 0.196000 1.080000 0.029600
v 0.224200 1.080000 0.074000
v 0.261800 1.080000 0.074000
v 0.290000 1.080000 0.029600
v 0.290000 1.080000 -0.029600
v 0.261800 1.080000 -0.074000
usemtl WoolShade
s off
f 832 831 830 829 828 827 826 825
f 833 834 835 836 837 838 839 840
f 825 826 834 833
f 826 827 835 834
f 827 828 836 835
f 828 829 837 836
f 829 830 838 837
f 830 831 839 838
f 831 832 840 839
f 832 825 833 840
o Arm.R.Cuff
v -0.261800 1.020000 -0.074000
v -0.290000 1.020000 -0.029600
v -0.290000 1.020000 0.029600
v -0.261800 1.020000 0.074000
v -0.224200 1.020000 0.074000
v -0.196000 1.020000 0.029600
v -0.196000 1.020000 -0.029600
v -0.224200 1.020000 -0.074000
v -0.261800 1.080000 -0.074000
v -0.290000 1.080000 -0.029600
v -0.290000 1.080000 0.029600
v -0.261800 1.080000 0.074000
v -0.224200 1.080000 0.074000
v -0.196000 1.080000 0.029600
v -0.196000 1.080000 -0.029600
v -0.224200 1.080000 -0.074000
usemtl WoolShade
s off
f 848 847 846 845 844 843 842 841
f 849 850 851 852 853 854 855 856
f 841 842 850 849
f 842 843 851 850
f 843 844 852 851
f 844 845 853 852
f 845 846 854 853
f 846 847 855 854
f 847 848 856 855
f 848 841 849 856
o Arm.L.Lower
v 0.229200 0.820000 -0.040000
v 0.213000 0.820000 -0.016000
v 0.213000 0.820000 0.016000
v 0.229200 0.820000 0.040000
v 0.250800 0.820000 0.040000
v 0.267000 0.820000 0.016000
v 0.267000 0.820000 -0.016000
v 0.250800 0.820000 -0.040000
v 0.228000 1.030000 -0.052000
v 0.207000 1.030000 -0.020800
v 0.207000 1.030000 0.020800
v 0.228000 1.030000 0.052000
v 0.256000 1.030000 0.052000
v 0.277000 1.030000 0.020800
v 0.277000 1.030000 -0.020800
v 0.256000 1.030000 -0.052000
usemtl Skin
s off
f 864 863 862 861 860 859 858 857
f 865 866 867 868 869 870 871 872
f 857 858 866 865
f 858 859 867 866
f 859 860 868 867
f 860 861 869 868
f 861 862 870 869
f 862 863 871 870
f 863 864 872 871
f 864 857 865 872
o Arm.R.Lower
v -0.250800 0.820000 -0.040000
v -0.267000 0.820000 -0.016000
v -0.267000 0.820000 0.016000
v -0.250800 0.820000 0.040000
v -0.229200 0.820000 0.040000
v -0.213000 0.820000 0.016000
v -0.213000 0.820000 -0.016000
v -0.229200 0.820000 -0.040000
v -0.256000 1.030000 -0.052000
v -0.277000 1.030000 -0.020800
v -0.277000 1.030000 0.020800
v -0.256000 1.030000 0.052000
v -0.228000 1.030000 0.052000
v -0.207000 1.030000 0.020800
v -0.207000 1.030000 -0.020800
v -0.228000 1.030000 -0.052000
usemtl Skin
s off
f 880 879 878 877 876 875 874 873
f 881 882 883 884 885 886 887 888
f 873 874 882 881
f 874 875 883 882
f 875 876 884 883
f 876 877 885 884
f 877 878 886 885
f 878 879 887 886
f 879 880 888 887
f 880 873 881 888
o Arm.L.Lower.Bracelet
v 0.228000 0.830000 -0.043000
v 0.210000 0.830000 -0.017200
v 0.210000 0.830000 0.017200
v 0.228000 0.830000 0.043000
v 0.252000 0.830000 0.043000
v 0.270000 0.830000 0.017200
v 0.270000 0.830000 -0.017200
v 0.252000 0.830000 -0.043000
v 0.228000 0.850000 -0.043000
v 0.210000 0.850000 -0.017200
v 0.210000 0.850000 0.017200
v 0.228000 0.850000 0.043000
v 0.252000 0.850000 0.043000
v 0.270000 0.850000 0.017200
v 0.270000 0.850000 -0.017200
v 0.252000 0.850000 -0.043000
usemtl Band
s off
f 896 895 894 893 892 891 890 889
f 897 898 899 900 901 902 903 904
f 889 890 898 897
f 890 891 899 898
f 891 892 900 899
f 892 893 901 900
f 893 894 902 901
f 894 895 903 902
f 895 896 904 903
f 896 889 897 904
o Arm.R.Lower.Bracelet
v -0.252000 0.830000 -0.043000
v -0.270000 0.830000 -0.017200
v -0.270000 0.830000 0.017200
v -0.252000 0.830000 0.043000
v -0.228000 0.830000 0.043000
v -0.210000 0.830000 0.017200
v -0.210000 0.830000 -0.017200
v -0.228000 0.830000 -0.043000
v -0.252000 0.850000 -0.043000
v -0.270000 0.850000 -0.017200
v -0.270000 0.850000 0.017200
v -0.252000 0.850000 0.043000
v -0.228000 0.850000 0.043000
v -0.210000 0.850000 0.017200
v -0.210000 0.850000 -0.017200
v -0.228000 0.850000 -0.043000
usemtl Band
s off
f 912 911 910 909 908 907 906 905
f 913 914 915 916 917 918 919 920
f 905 906 914 913
f 906 907 915 914
f 907 908 916 915
f 908 909 917 916
f 909 910 918 917
f 910 911 919 918
f 911 912 920 919
f 912 905 913 920
o Arm.L.Lower.Hand
v 0.223200 0.750000 -0.042000
v 0.212000 0.750000 -0.025200
v 0.212000 0.750000 0.025200
v 0.223200 0.750000 0.042000
v 0.256800 0.750000 0.042000
v 0.268000 0.750000 0.025200
v 0.268000 0.750000 -0.025200
v 0.256800 0.750000 -0.042000
v 0.223200 0.820000 -0.036000
v 0.212000 0.820000 -0.021600
v 0.212000 0.820000 0.021600
v 0.223200 0.820000 0.036000
v 0.256800 0.820000 0.036000
v 0.268000 0.820000 0.021600
v 0.268000 0.820000 -0.021600
v 0.256800 0.820000 -0.036000
usemtl Skin
s off
f 928 927 926 925 924 923 922 921
f 929 930 931 932 933 934 935 936
f 921 922 930 929
f 922 923 931 930
f 923 924 932 931
f 924 925 933 932
f 925 926 934 933
f 926 927 935 934
f 927 928 936 935
f 928 921 929 936
o Arm.R.Lower.Hand
v -0.256800 0.750000 -0.042000
v -0.268000 0.750000 -0.025200
v -0.268000 0.750000 0.025200
v -0.256800 0.750000 0.042000
v -0.223200 0.750000 0.042000
v -0.212000 0.750000 0.025200
v -0.212000 0.750000 -0.025200
v -0.223200 0.750000 -0.042000
v -0.256800 0.820000 -0.036000
v -0.268000 0.820000 -0.021600
v -0.268000 0.820000 0.021600
v -0.256800 0.820000 0.036000
v -0.223200 0.820000 0.036000
v -0.212000 0.820000 0.021600
v -0.212000 0.820000 -0.021600
v -0.223200 0.820000 -0.036000
usemtl Skin
s off
f 944 943 942 941 940 939 938 937
f 945 946 947 948 949 950 951 952
f 937 938 946 945
f 938 939 947 946
f 939 940 948 947
f 940 941 949 948
f 941 942 950 949
f 942 943 951 950
f 943 944 952 951
f 944 937 945 952
o Arm.L.Lower.Fingers
v 0.228660 0.700000 -0.030000
v 0.216480 0.700000 -0.011250
v 0.216480 0.700000 0.026250
v 0.228660 0.700000 0.045000
v 0.253020 0.700000 0.045000
v 0.265200 0.700000 0.026250
v 0.265200 0.700000 -0.011250
v 0.253020 0.700000 -0.030000
v 0.228660 0.750000 -0.038000
v 0.216480 0.750000 -0.018000
v 0.216480 0.750000 0.022000
v 0.228660 0.750000 0.042000
v 0.253020 0.750000 0.042000
v 0.265200 0.750000 0.022000
v 0.265200 0.750000 -0.018000
v 0.253020 0.750000 -0.038000
usemtl Skin
s off
f 960 959 958 957 956 955 954 953
f 961 962 963 964 965 966 967 968
f 953 954 962 961
f 954 955 963 962
f 955 956 964 963
f 956 957 965 964
f 957 958 966 965
f 958 959 967 966
f 959 960 968 967
f 960 953 961 968
o Arm.R.Lower.Fingers
v -0.253020 0.700000 -0.030000
v -0.265200 0.700000 -0.011250
v -0.265200 0.700000 0.026250
v -0.253020 0.700000 0.045000
v -0.228660 0.700000 0.045000
v -0.216480 0.700000 0.026250
v -0.216480 0.700000 -0.011250
v -0.228660 0.700000 -0.030000
v -0.253020 0.750000 -0.038000
v -0.265200 0.750000 -0.018000
v -0.265200 0.750000 0.022000
v -0.253020 0.750000 0.042000
v -0.228660 0.750000 0.042000
v -0.216480 0.750000 0.022000
v -0.216480 0.750000 -0.018000
v -0.228660 0.750000 -0.038000
usemtl Skin
s off
f 976 975 974 973 972 971 970 969
f 977 978 979 980 981 982 983 984
f 969 970 978 977
f 970 971 979 978
f 971 972 980 979
f 972 973 981 980
f 973 974 982 981
f 974 975 983 982
f 975 976 984 983
f 976 969 977 984
o Arm.L.Lower.Knuckles
v 0.217600 0.735000 0.042000
v 0.217600 0.735000 0.047000
v 0.263520 0.735000 0.047000
v 0.263520 0.735000 0.042000
v 0.217600 0.745000 0.042000
v 0.217600 0.745000 0.047000
v 0.263520 0.745000 0.047000
v 0.263520 0.745000 0.042000
usemtl SkinShade
s off
f 988 987 986 985
f 989 990 991 992
f 985 986 990 989
f 986 987 991 990
f 987 988 992 991
f 988 985 989 992
o Arm.R.Lower.Knuckles
v -0.263520 0.735000 0.042000
v -0.263520 0.735000 0.047000
v -0.217600 0.735000 0.047000
v -0.217600 0.735000 0.042000
v -0.263520 0.745000 0.042000
v -0.263520 0.745000 0.047000
v -0.217600 0.745000 0.047000
v -0.217600 0.745000 0.042000
usemtl SkinShade
s off
f 996 995 994 993
f 997 998 999 1000
f 993 994 998 997
f 994 995 999 998
f 995 996 1000 999
f 996 993 997 1000
o Arm.L.Lower.Thumb
v 0.205200 0.720000 0.015000
v 0.200000 0.720000 0.022000
v 0.200000 0.720000 0.043000
v 0.205200 0.720000 0.050000
v 0.220800 0.720000 0.050000
v 0.226000 0.720000 0.043000
v 0.226000 0.720000 0.022000
v 0.220800 0.720000 0.015000
v 0.212160 0.790000 0.015000
v 0.208000 0.790000 0.022000
v 0.208000 0.790000 0.043000
v 0.212160 0.790000 0.050000
v 0.224640 0.790000 0.050000
v 0.228800 0.790000 0.043000
v 0.228800 0.790000 0.022000
v 0.224640 0.790000 0.015000
usemtl Skin
s off
f 1008 1007 1006 1005 1004 1003 1002 1001
f 1009 1010 1011 1012 1013 1014 1015 1016
f 1001 1002 1010 1009
f 1002 1003 1011 1010
f 1003 1004 1012 1011
f 1004 1005 1013 1012
f 1005 1006 1014 1013
f 1006 1007 1015 1014
f 1007 1008 1016 1015
f 1008 1001 1009 1016
o Arm.R.Lower.Thumb
v -0.220800 0.720000 0.015000
v -0.226000 0.720000 0.022000
v -0.226000 0.720000 0.043000
v -0.220800 0.720000 0.050000
v -0.205200 0.720000 0.050000
v -0.200000 0.720000 0.043000
v -0.200000 0.720000 0.022000
v -0.205200 0.720000 0.015000
v -0.224640 0.790000 0.015000
v -0.228800 0.790000 0.022000
v -0.228800 0.790000 0.043000
v -0.224640 0.790000 0.050000
v -0.212160 0.790000 0.050000
v -0.208000 0.790000 0.043000
v -0.208000 0.790000 0.022000
v -0.212160 0.790000 0.015000
usemtl Skin
s off
f 1024 1023 1022 1021 1020 1019 1018 1017
f 1025 1026 1027 1028 1029 1030 1031 1032
f 1017 1018 1026 1025
f 1018 1019 1027 1026
f 1019 1020 1028 1027
f 1020 1021 1029 1028
f 1021 1022 1030 1029
f 1022 1023 1031 1030
f 1023 1024 1032 1031
f 1024 1017 1025 1032
o Arm.R.Lower.Tool.Handle
v -0.247500 0.723000 -0.080000
v -0.255000 0.723000 0.027500
v -0.255000 0.723000 0.242500
v -0.247500 0.723000 0.350000
v -0.232500 0.723000 0.350000
v -0.225000 0.723000 0.242500
v -0.225000 0.723000 0.027500
v -0.232500 0.723000 -0.080000
v -0.247500 0.757000 -0.080000
v -0.255000 0.757000 0.027500
v -0.255000 0.757000 0.242500
v -0.247500 0.757000 0.350000
v -0.232500 0.757000 0.350000
v -0.225000 0.757000 0.242500
v -0.225000 0.757000 0.027500
v -0.232500 0.757000 -0.080000
usemtl Wood
s off
f 1040 1039 1038 1037 1036 1035 1034 1033
f 1041 1042 1043 1044 1045 1046 1047 1048
f 1033 1034 1042 1041
f 1034 1035 1043 1042
f 1035 1036 1044 1043
f 1036 1037 1045 1044
f 1037 1038 1046 1045
f 1038 1039 1047 1046
f 1039 1040 1048 1047
f 1040 1033 1041 1048
o Arm.R.Lower.Tool.Grip
v -0.250000 0.718000 -0.080000
v -0.260000 0.718000 -0.047500
v -0.260000 0.718000 0.017500
v -0.250000 0.718000 0.050000
v -0.230000 0.718000 0.050000
v -0.220000 0.718000 0.017500
v -0.220000 0.718000 -0.047500
v -0.230000 0.718000 -0.080000
v -0.250000 0.762000 -0.080000
v -0.260000 0.762000 -0.047500
v -0.260000 0.762000 0.017500
v -0.250000 0.762000 0.050000
v -0.230000 0.762000 0.050000
v -0.220000 0.762000 0.017500
v -0.220000 0.762000 -0.047500
v -0.230000 0.762000 -0.080000
usemtl Leather
s off
f 1056 1055 1054 1053 1052 1051 1050 1049
f 1057 1058 1059 1060 1061 1062 1063 1064
f 1049 1050 1058 1057
f 1050 1051 1059 1058
f 1051 1052 1060 1059
f 1052 1053 1061 1060
f 1053 1054 1062 1061
f 1054 1055 1063 1062
f 1055 1056 1064 1063
f 1056 1049 1057 1064
o Arm.R.Lower.Tool.Wedge
v -0.260000 0.710000 0.280000
v -0.260000 0.710000 0.330000
v -0.220000 0.710000 0.330000
v -0.220000 0.710000 0.280000
v -0.260000 0.770000 0.280000
v -0.260000 0.770000 0.330000
v -0.220000 0.770000 0.330000
v -0.220000 0.770000 0.280000
usemtl Iron
s off
f 1068 1067 1066 1065
f 1069 1070 1071 1072
f 1065 1066 1070 1069
f 1066 1067 1071 1070
f 1067 1068 1072 1071
f 1068 1065 1069 1072
o Arm.R.Lower.Tool.Head
v -0.252000 0.650000 0.270000
v -0.252000 0.650000 0.340000
v -0.228000 0.650000 0.340000
v -0.228000 0.650000 0.270000
v -0.252000 0.770000 0.290000
v -0.252000 0.770000 0.340000
v -0.228000 0.770000 0.340000
v -0.228000 0.770000 0.290000
usemtl Iron
s off
f 1076 1075 1074 1073
f 1077 1078 1079 1080
f 1073 1074 1078 1077
f 1074 1075 1079 1078
f 1075 1076 1080 1079
f 1076 1073 1077 1080
o Arm.R.Lower.Tool.Edge
v -0.247000 0.625000 0.240000
v -0.247000 0.625000 0.272000
v -0.233000 0.625000 0.272000
v -0.233000 0.625000 0.240000
v -0.247000 0.760000 0.265000
v -0.247000 0.760000 0.292000
v -0.233000 0.760000 0.292000
v -0.233000 0.760000 0.265000
usemtl Steel
s off
f 1084 1083 1082 1081
f 1085 1086 1087 1088
f 1081 1082 1086 1085
f 1082 1083 1087 1086
f 1083 1084 1088 1087
f 1084 1081 1085 1088
o Load
v -0.096000 0.860000 -0.335000
v -0.160000 0.860000 -0.293000
v -0.160000 0.860000 -0.167000
v -0.096000 0.860000 -0.125000
v 0.096000 0.860000 -0.125000
v 0.160000 0.860000 -0.167000
v 0.160000 0.860000 -0.293000
v 0.096000 0.860000 -0.335000
v -0.084000 1.260000 -0.315000
v -0.140000 1.260000 -0.277000
v -0.140000 1.260000 -0.163000
v -0.084000 1.260000 -0.125000
v 0.084000 1.260000 -0.125000
v 0.140000 1.260000 -0.163000
v 0.140000 1.260000 -0.277000
v 0.084000 1.260000 -0.315000
usemtl Load
s off
f 1096 1095 1094 1093 1092 1091 1090 1089
f 1097 1098 1099 1100 1101 1102 1103 1104
f 1089 1090 1098 1097
f 1090 1091 1099 1098
f 1091 1092 1100 1099
f 1092 1093 1101 1100
f 1093 1094 1102 1101
f 1094 1095 1103 1102
f 1095 1096 1104 1103
f 1096 1089 1097 1104
o Load.Top
v -0.030000 1.260000 -0.275000
v -0.075000 1.260000 -0.248000
v -0.075000 1.260000 -0.212000
v -0.030000 1.260000 -0.185000
v 0.030000 1.260000 -0.185000
v 0.075000 1.260000 -0.212000
v 0.075000 1.260000 -0.248000
v 0.030000 1.260000 -0.275000
v -0.020000 1.320000 -0.275000
v -0.050000 1.320000 -0.248000
v -0.050000 1.320000 -0.212000
v -0.020000 1.320000 -0.185000
v 0.020000 1.320000 -0.185000
v 0.050000 1.320000 -0.212000
v 0.050000 1.320000 -0.248000
v 0.020000 1.320000 -0.275000
usemtl Load
s off
f 1112 1111 1110 1109 1108 1107 1106 1105
f 1113 1114 1115 1116 1117 1118 1119 1120
f 1105 1106 1114 1113
f 1106 1107 1115 1114
f 1107 1108 1116 1115
f 1108 1109 1117 1116
f 1109 1110 1118 1117
f 1110 1111 1119 1118
f 1111 1112 1120 1119
f 1112 1105 1113 1120
o Load.Rope
v -0.099600 1.020000 -0.341000
v -0.166000 1.020000 -0.297800
v -0.166000 1.020000 -0.168200
v -0.099600 1.020000 -0.125000
v 0.099600 1.020000 -0.125000
v 0.166000 1.020000 -0.168200
v 0.166000 1.020000 -0.297800
v 0.099600 1.020000 -0.341000
v -0.099600 1.055000 -0.341000
v -0.166000 1.055000 -0.297800
v -0.166000 1.055000 -0.168200
v -0.099600 1.055000 -0.125000
v 0.099600 1.055000 -0.125000
v 0.166000 1.055000 -0.168200
v 0.166000 1.055000 -0.297800
v 0.099600 1.055000 -0.341000
usemtl Rope
s off
f 1128 1127 1126 1125 1124 1123 1122 1121
f 1129 1130 1131 1132 1133 1134 1135 1136
f 1121 1122 1130 1129
f 1122 1123 1131 1130
f 1123 1124 1132 1131
f 1124 1125 1133 1132
f 1125 1126 1134 1133
f 1126 1127 1135 1134
f 1127 1128 1136 1135
f 1128 1121 1129 1136
o Load.Knot
v -0.012000 1.250000 -0.285000
v -0.030000 1.250000 -0.252000
v -0.030000 1.250000 -0.208000
v -0.012000 1.250000 -0.175000
v 0.012000 1.250000 -0.175000
v 0.030000 1.250000 -0.208000
v 0.030000 1.250000 -0.252000
v 0.012000 1.250000 -0.285000
v -0.012000 1.290000 -0.285000
v -0.030000 1.290000 -0.252000
v -0.030000 1.290000 -0.208000
v -0.012000 1.290000 -0.175000
v 0.012000 1.290000 -0.175000
v 0.030000 1.290000 -0.208000
v 0.030000 1.290000 -0.252000
v 0.012000 1.290000 -0.285000
usemtl Rope
s off
f 1144 1143 1142 1141 1140 1139 1138 1137
f 1145 1146 1147 1148 1149 1150 1151 1152
f 1137 1138 1146 1145
f 1138 1139 1147 1146
f 1139 1140 1148 1147
f 1140 1141 1149 1148
f 1141 1142 1150 1149
f 1142 1143 1151 1150
f 1143 1144 1152 1151
f 1144 1137 1145 1152
o Load.Patch.L
v 0.060000 1.100000 -0.337000
v 0.060000 1.100000 -0.325000
v 0.120000 1.100000 -0.325000
v 0.120000 1.100000 -0.337000
v 0.060000 1.180000 -0.337000
v 0.060000 1.180000 -0.325000
v 0.120000 1.180000 -0.325000
v 0.120000 1.180000 -0.337000
usemtl LoadShade
s off
f 1156 1155 1154 1153
f 1157 1158 1159 1160
f 1153 1154 1158 1157
f 1154 1155 1159 1158
f 1155 1156 1160 1159
f 1156 1153 1157 1160
o Load.Patch.R
v -0.120000 1.100000 -0.337000
v -0.120000 1.100000 -0.325000
v -0.060000 1.100000 -0.325000
v -0.060000 1.100000 -0.337000
v -0.120000 1.180000 -0.337000
v -0.120000 1.180000 -0.325000
v -0.060000 1.180000 -0.325000
v -0.060000 1.180000 -0.337000
usemtl LoadShade
s off
f 1164 1163 1162 1161
f 1165 1166 1167 1168
f 1161 1162 1166 1165
f 1162 1163 1167 1166
f 1163 1164 1168 1167
f 1164 1161 1165 1168
